<svg version="1.1" xmlns="http://www.w3.org/2000/svg" xmlns:xlink="http://www.w3.org/1999/xlink" width="197.50667" height="129.61365" viewBox="0,0,197.50667,129.61365"><g transform="translate(-134.57118,-116.42756)"><g data-paper-data="{&quot;isPaintingLayer&quot;:true}" fill-rule="nonzero" stroke-linejoin="miter" stroke-miterlimit="10" stroke-dasharray="" stroke-dashoffset="0" style="mix-blend-mode: normal"><g stroke="#ff0000" stroke-width="0" stroke-linecap="round"><path d="M207.84288,142.42609l3.71234,4.93095c0,0 -4.06539,27.08415 -4.05703,27.65723c0.04066,2.78832 1.95502,34.81853 1.95502,34.81853l-2.16554,10.45955l-40.58983,2.39079l-6.65126,-7.04018c0,0 -1.50651,-12.56069 -1.55492,-19.19062c-0.05626,-7.70258 0.34999,-24.29121 0.34999,-24.29121l-4.51337,-10.9078l4.79024,-11.03051z" fill="#000000"></path><path d="M156.17944,161.25331l4.64043,-9.86186l44.7027,-5.97689l2.93894,3.4367l-3.76068,13.60747l0.04837,23.00093l1.85617,24.80405l-1.54681,8.06882l-36.96867,1.94248l-5.72319,-6.724c0,0 -2.14202,-18.65737 -2.39335,-26.15623c-0.20176,-6.02012 1.00123,-15.38307 1.00123,-15.38307z" fill="#00e397"></path><path d="M156.17944,161.25331l4.64043,-9.86186c0,0 24.97033,-3.33861 33.17269,-4.43529c2.56923,-0.34352 -9.58038,5.39639 -20.62959,9.30136c-7.2903,2.57651 -14.8003,3.84794 -14.8003,3.84794c0,0 -1.26955,3.64649 -1.37113,3.41859c-0.4447,-0.99774 -1.01208,-2.27071 -1.01208,-2.27071z" fill="#00ffa9"></path><path d="M204.40513,162.40158l0.04837,23.00093l1.85618,24.80407l-1.54681,8.06882l-36.72981,1.94248l-5.27838,-6.50915c0,0 2.38016,-18.8722 2.12884,-26.37108c-0.20177,-6.02012 1.00122,-15.38305 1.00122,-15.38305c0,0 11.6811,-2.89689 17.84902,-4.42651c1.21452,-0.3012 9.30504,-7.88924 10.31998,-8.14096c0.96046,-0.23821 10.35139,3.01449 10.35139,3.01449z" fill="#00e397"></path></g><path d="M218.24035,116.43829c18.10609,-0.33772 30.17966,7.29735 35.84698,22.90589c3.57259,9.83941 5.58574,21.73259 6.11255,33.49423c1.36473,30.46842 -4.84138,60.66329 -4.84138,60.66329c0,0 -2.58179,1.84896 -5.18189,2.23851c-2.286,0.34248 -6.64085,1.1006 -8.69048,1.10763c-0.17291,0.0006 -5.21981,-0.54105 -7.62893,-1.00996c-3.11778,-0.60683 -7.73743,-3.14339 -7.73743,-3.14339c0,0 -1.14386,-16.91178 -1.04887,-18.52259c0.0231,-0.3917 0.55733,0.08771 0.02735,0.11718c-0.79274,0.04413 -3.05854,0.13423 -5.69047,3.2441c-0.10225,0.12083 -1.99312,11.2688 -2.07524,11.76288c-0.46142,2.77549 -2.19477,6.87213 -2.60696,7.2538c-0.27736,0.25683 -3.58811,2.31934 -6.25241,2.73511c-2.83488,0.44238 -8.12062,0.43247 -11.87053,0.16463c-0.11459,-0.00819 -6.66445,-1.0899 -8.51952,-1.25877c-5.71335,-0.52003 -7.29543,-4.95356 -7.29543,-4.95356c0,0 0.65586,-24.23552 0.62035,-49.95802c-0.02598,-18.82171 -0.11038,-38.83179 6.81329,-52.53437c5.34939,-10.58695 15.31477,-14.03233 30.01906,-14.30658z" fill="#000000" stroke="#ff0000" stroke-width="0" stroke-linecap="round"></path><path d="M218.42875,118.36735c9.49268,-0.17706 17.71392,1.99995 23.40464,6.36165c12.00599,9.20205 15.64931,27.32761 16.57371,47.96516c1.36473,30.46839 -4.62127,59.52916 -4.62127,59.52916c0,0 -1.99476,1.00723 -4.59487,1.39678c-2.47887,0.37137 -5.92361,0.81473 -7.93813,0.74625c-2.01699,-0.06857 -4.62014,-0.27248 -7.28064,-0.79034c-3.11778,-0.60683 -5.75623,-2.2219 -5.75623,-2.2219c0,0 -1.07047,-16.20296 -0.97548,-17.81375c0.05767,-0.97759 2.82447,-1.9635 2.82447,-1.9635c0,0 -7.36251,-1.3422 -11.72506,4.28021c-1.93539,2.49433 -2.12341,7.33196 -2.70135,11.76747c-0.07399,0.56784 -0.15435,1.12905 -0.2456,1.67793c-0.46142,2.77549 -1.66279,5.20637 -2.07497,5.58805c-0.27736,0.25683 -1.9371,1.68139 -4.6014,2.09716c-2.92152,0.4559 -6.6891,0.85751 -10.56377,0.67585c-2.09108,-0.09804 -4.35737,-0.6442 -6.21242,-0.81305c-5.71335,-0.52003 -8.8119,-3.86668 -8.8119,-3.86668c0,0 0.55803,-24.33002 0.52252,-50.0525c-0.03349,-24.26454 -0.66796,-47.39982 12.6207,-58.2665c4.98326,-4.07502 12.95635,-6.12572 22.15709,-6.29733z" fill="#00ffa9" stroke="#ff0000" stroke-width="0" stroke-linecap="round"></path><path d="M253.3619,233.58806c0,0 -1.99476,0.80867 -4.59487,1.12142c-2.47887,0.29817 -5.9236,0.65412 -7.93812,0.59914c-2.01699,-0.05506 -4.62015,-0.21878 -7.28065,-0.63455c-3.11778,-0.4872 -5.75623,-1.78388 -5.75623,-1.78388c0,0 -1.07046,-13.0088 -0.97547,-14.30203c0.05767,-0.78486 2.2183,-1.57642 2.2183,-1.57642c0,0 -6.75632,-1.0776 -11.11888,3.43643c-1.93539,2.0026 -2.12341,5.88657 -2.70135,9.44769c-0.07399,0.4559 -0.15436,0.90647 -0.24561,1.34715c-0.46142,2.22834 -1.66278,4.18001 -2.07496,4.48645c-0.27736,0.20621 -1.93711,1.34993 -4.60141,1.68374c-2.92152,0.36603 -6.68908,0.68847 -10.56376,0.54262c-2.09108,-0.07872 -4.35736,-0.51721 -6.21243,-0.65278c-5.71335,-0.41751 -8.81191,-3.10443 -8.81191,-3.10443c0,0 0.55803,-19.53371 0.52253,-40.1854c-0.01842,-10.70503 -0.21828,-21.13626 1.81033,-29.80979c1.32262,-5.65496 -0.62316,8.42497 5.79486,24.94527c1.65215,4.25273 5.22885,8.4546 7.94337,12.7737c2.11246,3.36115 7.55353,6.78199 14.5693,8.26105c4.00328,0.84395 15.82982,1.78638 15.78548,1.79149c-0.79648,0.09156 6.12717,4.6996 5.60042,7.89837c-0.5094,3.09355 0.68635,6.0044 1.10616,6.58921c0.34892,0.48604 2.02316,1.46469 3.99359,1.93452c1.75654,0.41884 3.74846,0.38657 5.24665,-0.02845c1.19555,-0.33116 5.56688,-3.07962 8.28455,-5.80933c1.51243,-1.51914 1.67427,-3.48264 2.50105,-3.94151c0.80007,-0.44405 -0.64177,4.50288 -0.61381,4.55834c0.50597,1.00349 -1.8871,10.41201 -1.8871,10.41201z" fill="#00e397" stroke="#ff0000" stroke-width="0" stroke-linecap="round"></path><path d="M188.14681,236.32621c-2.97118,-1.0015 -5.12943,-2.63369 -5.12943,-2.63369c0,0 0.55803,-24.33001 0.52253,-50.05249c-0.00869,-6.29773 -0.05787,-12.51939 0.1064,-18.47021c0.10731,-3.88723 2.2707,26.82589 4.70417,49.48153c0.36714,3.41812 1.65529,11.6568 7.3138,15.66842c3.42562,2.4286 10.91917,2.49799 13.73255,1.32526c1.81772,-0.7577 2.55445,-10.94826 6.5786,-15.47477c4.64676,-5.22685 12.56075,-4.65664 13.46257,-4.38002c0.07536,0.02312 -4.85956,-0.05751 -8.03002,1.93642c-3.03293,1.90743 -4.30579,5.73525 -4.31266,6.07428c-0.04686,2.31502 -0.90989,7.59134 -2.02999,11.48345c-0.78789,2.73779 -2.36357,4.63111 -2.36745,4.69037c-0.06713,1.02507 -5.38598,2.21895 -10.81146,2.12685c-6.51027,-0.11048 -13.34534,-1.6425 -13.73961,-1.77542z" fill="#00e397" stroke="#ff0000" stroke-width="0" stroke-linecap="round"></path><path d="M227.6074,231.63758c0,0 -1.07047,-16.20296 -0.97548,-17.81375c0.05767,-0.97759 2.2183,-1.9635 2.2183,-1.9635c0,0 -0.5857,14.92494 6.73498,18.48502c1.67866,0.81634 7.92871,2.38092 12.13677,0.68709c3.55,-1.42896 5.24268,-6.06161 5.59311,-6.48142c1.28885,-1.54401 1.52983,-6.83351 2.15803,-6.84626c1.08746,-0.02211 -1.97758,14.77533 -1.97081,14.86075c0.04932,0.6229 -4.94435,1.78098 -9.82397,1.96058c-5.08351,0.1871 -10.06719,-0.61844 -10.31471,-0.66661z" fill="#00e397" stroke="#ff0000" stroke-width="0" stroke-linecap="round"></path><g stroke-linecap="butt"><path d="M216.09029,154.22153c1.02814,-2.13361 2.93715,-0.98451 2.93715,-0.98451c4.55233,2.74027 9.3212,5.87911 14.27867,7.61085c3.79539,1.32579 7.64538,2.26201 11.37242,3.93219l2.191,0.64988c0.26731,0.07187 0.52676,0.20215 0.76328,0.39352c0.97002,0.7848 1.18714,2.29988 0.48496,3.38401c-0.53758,0.82999 -1.45813,1.16681 -2.29545,0.92695l-3.39285,-0.88012c-2.76475,-0.00259 -5.42171,-1.44029 -8.22652,-1.45177c-6.65019,-0.02722 -13.91297,-0.1023 -20.48087,1.06169c-2.80778,0.4976 -5.68312,1.89532 -8.43224,2.74395l-2.3779,0.04326c-0.45561,0.10369 -1.00939,0.06672 -1.54467,-0.38688c-0.35887,-0.23971 -0.69834,-0.62542 -0.85287,-1.24599c-0.21302,-0.59854 -0.15169,-1.13521 0.00419,-1.5688c0.17309,-0.69356 0.56724,-1.09356 0.96869,-1.32423c4.36131,-3.84926 9.20788,-8.66654 14.42103,-10.95284c-0.17687,-0.51087 -0.19734,-1.16401 0.18196,-1.95115z" fill="#3f7ce2" stroke="none" stroke-width="0.5"></path><path d="M221.78601,151.7701c0.61247,-0.18803 1.21266,-0.33401 1.80734,-0.45461c1.92067,-0.95738 3.78713,-1.70249 5.87794,-2.32141c1.97221,-0.35486 3.933,-0.55413 5.87651,-0.59618c1.7948,-0.61995 3.61228,-1.12374 5.51594,-1.13689c1.5692,-0.01083 3.11271,0.47489 4.67925,0.57744l1.99025,0.44303c0,0 1.9963,0.47171 1.70636,2.66433c1.61033,0.65209 3.19599,1.42993 4.75292,2.33465c3.09913,1.80087 6.38866,3.11792 9.10745,5.66969c3.64639,3.42237 6.98563,15.28903 3.16021,12.12016c-0.02842,-0.02063 -0.04354,-0.03283 -0.04354,-0.03283l0.0015,-0.00272c-0.07963,-0.06872 -0.15048,-0.13774 -0.21187,-0.20252c-0.50002,-0.18427 -1.00002,-0.36856 -1.50003,-0.55282c-3.8318,0.06336 -7.80978,0.04379 -11.62495,-0.38313c-2.4581,-0.27507 -4.74171,-1.26264 -7.17616,-1.66536c-2.37195,-0.39238 -5.26837,-0.31536 -7.56048,-1.15039c-6.17841,-2.25088 -17.83857,-7.81422 -23.28586,-11.75053c0,0 3.43578,-0.17435 4.61314,-2.20934c0.5494,-0.94962 1.23892,-1.16956 1.81815,-1.13406c0.11544,-0.06438 0.22982,-0.1151 0.33733,-0.15505c0.09792,-0.04268 0.15866,-0.06143 0.15866,-0.06143z" fill="#98fdff" stroke="none" stroke-width="0.5"></path><path d="M200.51347,166.85917c0.56382,-0.87049 1.54889,-1.19848 2.41737,-0.88769l1.23575,-1.39827l1.30032,-1.29604c0,0 0.12102,-0.11998 0.32627,-0.25743c0.01736,-0.23163 0.0661,-0.48287 0.15445,-0.75479c0.73999,-2.27787 2.77807,-1.45081 2.77807,-1.45081c4.05195,1.64879 8.11693,2.19395 12.31839,2.92911c0.71285,0.0749 1.40103,0.17034 2.05533,0.28473c0,0 0.12711,0.02336 0.31427,0.0933c0.39344,0.13784 0.93525,0.43223 1.25022,1.04943c0.20364,0.38203 0.31739,0.88638 0.23579,1.54964c-0.0672,0.66527 -0.28869,1.12273 -0.57032,1.43686c-0.44137,0.51136 -1.0314,0.64739 -1.44309,0.67257c-0.19681,0.0162 -0.32515,0.00384 -0.32515,0.00384l-1.17283,-0.12038c-0.40618,-0.0747 -0.81099,-0.14715 -1.21455,-0.21828c-4.36343,-0.41159 -9.61526,0.20484 -13.39102,1.84456l-0.36005,-0.09753l0.00643,0.14939l-2.20155,0.11859c-0.288,0.01828 -0.58034,-0.0273 -0.85885,-0.13996c-0.71969,0.47213 -1.65099,0.45513 -2.37028,-0.1268c-0.97002,-0.7848 -1.18714,-2.29988 -0.48496,-3.38401z" fill="#00aeff" stroke="none" stroke-width="0.5"></path><path d="M259.93057,156.86861c0.07062,0.0487 0.1413,0.09733 0.21204,0.14593c0.42128,0.17209 0.8508,0.51268 1.10122,1.17205c0.20472,0.40758 0.32955,0.93158 0.18824,1.55405c-0.08159,0.63565 -0.37568,1.06697 -0.70394,1.35661c-0.46364,0.51099 -0.98601,0.639 -1.43918,0.61345l-2.22644,0.36614c-8.71569,-1.79593 -17.1539,-4.73911 -23.73547,-11.50249c0,0 -1.5958,-1.64063 -0.12786,-3.42417c1.19483,-1.45173 2.47437,-0.63485 2.90911,-0.28064c0.40221,-0.29364 0.87969,-0.42759 1.35263,-0.38745l2.17092,0.1454c1.58152,-0.00333 3.68568,-0.10079 5.21263,0.33288c2.75929,0.78364 4.98377,3.0106 7.37896,4.57893c1.11008,0.72685 2.19992,1.47523 3.28369,2.23173c0.82834,0.19689 1.6649,0.45497 2.52953,0.85656l0.98954,0.72399c0,0 0.72012,0.58262 0.90436,1.51706z" fill="#ffffff" stroke="none" stroke-width="0.5"></path><path d="M244.37555,147.36033c17.63833,6.20254 24.81,19.53992 23.90319,22.76107c-0.90679,3.22114 -13.59499,0.53851 -32.02596,-1.12258c-20.46128,-1.84406 -37.76324,3.79599 -36.85644,0.57483c0.90681,-3.22118 27.34086,-28.41587 44.97921,-22.21333z" fill="none" stroke="#13263b" stroke-width="3"></path></g><g><path d="M318.32538,192.79835c-0.11897,1.30423 -1.36136,2.35038 -2.30756,2.26407c-0.9462,-0.08631 -5.9259,-6.18223 -5.80693,-7.48647c0.06386,-0.70012 -14.53645,-4.00038 -13.79751,-4.39395c0.15042,-0.08011 0.51443,-3.23458 1.96493,-3.06703c4.69816,0.54272 14.73134,5.25086 15.06624,5.28141c0.11268,0.01028 -4.40525,-3.55844 -5.48182,-7.57613c-1.96681,-7.34003 -1.44082,-17.40399 -0.95929,-16.77943c0.43751,0.56745 1.05961,-4.93988 8.82541,-3.22208c2.58075,0.57086 11.38157,3.89744 13.75825,8.58697c2.99144,5.90255 0.01093,13.30404 0.6974,15.33845c1.47145,4.36078 -4.544,8.4342 -8.35567,10.17087c-2.16118,0.98468 -3.59036,0.7401 -3.60343,0.88334z" fill="#516087" stroke="none" stroke-width="0" stroke-linecap="butt"></path><path d="M321.76889,165.28543c-0.07698,0.84392 -1.19668,1.43159 -2.50091,1.31262c-1.30424,-0.11897 -2.29912,-0.89954 -2.22213,-1.74346c0.07698,-0.84392 1.19668,-1.43159 2.50092,-1.31262c1.30424,0.11897 2.29911,0.89954 2.22213,1.74346z" fill="#9ec6c6" stroke="none" stroke-width="0" stroke-linecap="butt"></path><path d="M313.33942,185.01326c-0.05548,0.60831 -0.7169,1.26431 -1.25599,1.84994c-0.54873,0.59613 -0.97746,1.11872 -1.27918,1.37383c-1.05895,0.89528 -5.22141,-2.13333 -5.10944,-3.36084c0.07583,-0.83133 0.89222,-2.90376 2.22577,-3.0559c0.18111,-0.02066 -4.00631,-1.16117 -7.40601,-1.62033c-1.91102,-0.25809 -4.10345,1.31146 -3.83553,-0.52303c0.14418,-0.98715 -1.05766,-2.55388 -1.1202,-4.41039c-0.08907,-2.6441 1.06779,-5.78113 2.59583,-7.85613c1.26737,-1.72104 2.75618,-5.17008 4.49858,-6.3883c4.17586,-2.91965 8.8926,-2.41203 8.8926,-2.41203c0,0 -2.54523,2.35562 -2.08686,8.74049c0.15235,2.12223 1.24713,8.92615 4.52003,13.44753c4.20819,5.81345 10.76916,9.4474 10.76916,9.4474c0,0 -2.89034,3.42937 -4.87053,2.50042c-1.59049,-0.74616 -2.74893,-2.79847 -3.94271,-4.47897c-1.31663,-1.85347 -2.59061,-3.30748 -2.59552,-3.25365z" fill="#393b47" stroke="none" stroke-width="0" stroke-linecap="butt"></path><path d="M298.18953,184.68334c0,0 1.45078,-1.71314 2.10071,-2.45758c0.49114,-0.56258 1.45766,-1.61833 1.45766,-1.61833l7.09992,2.01333c0,0 -0.47973,1.29188 -0.97469,1.81198c-0.55993,0.5884 -2.21406,1.53893 -2.21406,1.53893z" fill="#9ec6c6" stroke="none" stroke-width="0" stroke-linecap="butt"></path><path d="M292.62861,227.34647c-0.10994,1.20513 -1.55608,2.36178 -3.01055,2.22911c-1.45447,-0.13268 -7.45464,-5.61038 -7.3447,-6.81551c0.10994,-1.20513 19.50105,-37.9832 20.95551,-37.85052c0.19966,0.01821 9.34792,4.35569 9.10787,5.70866c-1.50866,8.50308 -19.61328,35.68855 -19.70812,36.72826z" fill="#2e2230" stroke="none" stroke-width="0" stroke-linecap="butt"></path><path d="M313.07851,194.46316c-0.05557,0.60915 6.60512,5.92666 6.51601,7.04658c-0.13988,1.75788 0.4636,4.19216 -0.38412,6.24899c-1.09492,2.65659 -3.19625,2.53763 -5.09652,4.72474c-1.41824,1.63232 -1.95491,4.10768 -3.24735,5.7473c-1.24927,1.58482 -3.26219,2.36366 -4.18517,2.27946c-1.10336,-0.10065 -4.59038,6.17606 -8.90286,6.92043c-2.65454,0.45819 -13.38578,-4.80966 -15.53377,-5.49256c-2.33283,-0.74165 -2.05087,-7.08746 -3.29833,-7.85591c-2.2885,-1.40975 4.10678,-2.19325 2.87603,-3.67018c-0.82373,-0.98851 -1.44376,-1.81398 -1.36402,-2.68812c0.08151,-0.8936 -1.06123,-3.76443 -0.05529,-4.36722c0.70474,-0.42229 -8.30315,-4.81245 -7.21349,-5.01173c1.44994,-0.26517 -0.44389,-5.76782 2.41231,-5.32278c1.15147,0.17941 4.47834,-3.23767 5.88985,-2.78021c8.08798,2.6213 17.34572,12.70949 19.33936,12.89136c4.77898,0.43594 12.66814,-13.28288 12.24737,-8.67011z" fill="#00e397" stroke="none" stroke-width="0" stroke-linecap="butt"></path><path d="M313.46564,203.52708c-0.92396,2.23117 -3.20831,4.41292 -6.60134,4.32621c-2.03753,-0.05206 -3.67801,-0.94328 -5.89598,-1.99387c-1.74722,-0.8276 -4.14355,-1.72304 -5.38396,-2.59777c-0.79186,-0.55841 10.51345,8.05259 0.47928,10.86209c-1.34784,0.37738 -6.55778,-1.34229 -10.42017,-3.05613c-0.53235,-0.23622 -1.03165,-0.47349 -1.49424,-0.70473c-0.45064,-0.22527 -2.2805,-1.57775 -2.7107,-1.20821c-0.11328,0.09732 0.3984,1.35308 2.45133,2.90927c2.52265,1.91224 -3.99733,-1.35683 -2.89353,0.93922c3.83914,7.98593 12.2394,6.33114 12.54122,6.28689c0.74595,-0.10934 7.25434,-1.83486 -6.61445,-5.22055c-4.19137,-1.02322 -6.43316,-5.80995 -6.47973,-5.83484c-0.60114,-0.32107 -0.01305,-5.76267 0.91295,-7.0992c2.02386,-2.92114 6.02863,-2.81953 5.34831,-3.86048c-0.47277,-0.72337 -2.86553,1.62728 -6.66395,0.16785c-1.25098,-0.86444 -1.85942,-1.8965 -1.64918,-3.04182c0.32368,-1.76336 2.3123,-3.66863 3.53624,-6.10125c1.13214,-2.25017 0.50295,-5.65086 1.96716,-7.24092c1.69014,-1.8354 4.37724,-2.4601 4.52806,-2.42561c4.45095,1.01745 6.6551,2.33586 7.06503,3.69282c0.28826,0.95417 -1.32745,2.1415 0.73139,2.3293c4.98677,0.4549 21.91684,7.59289 17.24618,18.87173z" fill="#00ffa9" stroke="none" stroke-width="0" stroke-linecap="butt"></path><path d="M282.12652,211.22561c0,0 -1.4605,-1.47645 -1.80504,-2.8353c-0.34454,-1.35885 -0.52706,-2.20665 -0.40386,-3.55724c0.1232,-1.3506 0.36442,-2.12828 1.02985,-3.30507c0.66543,-1.17678 1.1783,-1.62569 2.29924,-2.5823c1.12092,-0.95661 3.07975,-1.82321 3.07975,-1.82321c0,0 -0.7118,-1.97051 -0.79066,-3.30928c-0.07886,-1.33877 -0.33819,-1.76546 0.4279,-3.35997c0.76608,-1.59453 1.90126,-2.65789 2.86866,-3.5015c0.9674,-0.84361 1.18112,-1.13297 2.80236,-1.44388c2.50886,-0.48111 4.46655,-0.12998 6.53408,0.23185c2.06751,0.36184 2.28892,0.43875 5.05603,1.79653c2.76711,1.35778 4.71527,2.56133 6.79558,4.01889c2.08034,1.45757 3.57576,2.85208 4.95677,4.21534c1.38101,1.36326 2.24722,2.14506 3.17287,3.80983c0.92565,1.66477 1.24119,2.97704 1.51992,4.63019c0.27874,1.65317 0.58625,2.79559 -0.0232,4.24664c-0.60946,1.45104 -1.75276,1.96097 -2.92316,2.76818c-1.1704,0.80721 -2.66583,0.92379 -3.2949,1.52033c-0.62909,0.59655 0.03543,0.84708 -0.55885,2.1341c-0.59429,1.28701 -0.90344,1.99579 -1.8616,3.1078c-0.95816,1.11201 -2.00117,1.90581 -2.89022,2.407c-0.88905,0.5012 -1.0626,-0.25376 -2.4847,0.6231c-1.4221,0.87686 -1.15495,1.26359 -3.17493,2.8666c-1.25209,0.99363 -2.53553,2.79874 -4.39019,3.44312c-1.13739,0.39519 -2.77976,0.07488 -3.90707,-0.31541c-2.96549,-1.0267 -5.17193,-1.72854 -7.50736,-2.86989c-2.33543,-1.14135 -4.53476,-2.48044 -5.62461,-3.54791c-1.08985,-1.06747 -1.18662,-1.94962 -1.61876,-3.54666c-0.43214,-1.59705 -0.87839,-3.03313 -0.46935,-4.17019c0.40904,-1.13705 3.18549,-1.6517 3.18549,-1.6517z" fill="none" stroke="#000000" stroke-width="2" stroke-linecap="round"></path><path d="M298.67704,205.45175c0,0 -4.62716,-2.54963 -7.62367,-4.25629c-3.66013,-2.08462 -4.94944,-4.2956 -4.94944,-4.2956" fill="none" stroke="#000000" stroke-width="2" stroke-linecap="round"></path><path d="M292.64325,215.70534c0,0 -4.25416,-1.34468 -6.1222,-2.14812c-1.69787,-0.73024 -4.62433,-2.47396 -4.62433,-2.47396" fill="none" stroke="#000000" stroke-width="2" stroke-linecap="round"></path><path d="M280.53871,201.78428c0,0 -1.23189,0.04147 -2.51724,-0.35103c-1.28534,-0.39248 -2.52709,-0.61247 -3.36229,-1.11911c-0.8352,-0.50664 -1.21011,-0.70452 -1.58391,-1.88134c-0.37379,-1.17682 -0.15003,-2.05962 0.28553,-3.13017c0.43557,-1.07056 0.86801,-1.39037 1.90513,-2.25407c1.03712,-0.86372 1.72527,-1.34136 2.87997,-1.98774c1.26733,-0.7094 2.1406,-0.99132 2.8917,-1.80926c0.75109,-0.81792 1.00399,-0.98486 1.41032,-3.07426c0.40632,-2.0894 0.11865,-3.24274 0.51575,-4.3231c0.35697,-0.9712 1.18744,-1.45958 2.2553,-2.10073c1.06788,-0.64117 1.87688,-0.95345 3.01018,-1.06074c1.13333,-0.10728 1.8885,0.16252 2.86743,0.50435c0.97892,0.34183 1.34189,0.56864 2.30898,1.30316c0.96709,0.73453 1.67177,1.20991 2.23211,2.1459c0.56034,0.93599 0.7889,2.7146 0.7889,2.7146" fill="none" stroke="#000000" stroke-width="2" stroke-linecap="round"></path><path d="M292.92619,227.09111c0,0 -0.65197,1.71932 -1.60033,2.18852c-0.94836,0.46918 -2.08965,0.15424 -2.70256,-0.05977c-0.61291,-0.21402 -2.35184,-1.19883 -3.61955,-2.29113c-1.26769,-1.09231 -2.03502,-1.96755 -3.0467,-3.45281c-1.01168,-1.48528 -1.56494,-3.31764 -1.56494,-3.31764" fill="none" stroke="#000000" stroke-width="2" stroke-linecap="round"></path><path d="M296.98402,184.28178c0,0 2.88098,0.18009 4.68427,0.5487c1.80332,0.36861 2.52404,0.46686 4.02741,1.09574c1.50337,0.62886 2.84326,1.26281 4.50856,2.47494c1.66532,1.21214 1.95569,1.72587 2.8666,3.17493c0.91092,1.44906 1.58581,3.90784 1.58581,3.90784" fill="none" stroke="#000000" stroke-width="2" stroke-linecap="round"></path><path d="M295.73697,181.98295c0,0 0.64935,-1.25214 1.46708,-1.44429c0.81775,-0.19214 3.66842,-0.57141 5.96506,-0.18421c2.29666,0.38717 4.16973,1.14772 6.57718,2.42086c2.40745,1.27314 3.44838,1.97535 5.2305,3.87614c1.78213,1.90079 1.97542,2.49303 2.75678,4.37884c0.78138,1.88582 0.59016,2.84588 0.59016,2.84588c0,0 -0.92264,0.89742 -1.42393,1.17615c-0.42317,0.23529 -1.3894,0.3881 -1.3894,0.3881" fill="none" stroke="#000000" stroke-width="2" stroke-linecap="round"></path><path d="M296.59108,180.60415c0,0 -0.81988,-1.87702 -1.03877,-3.25097c-0.2189,-1.37397 -0.2838,-2.45538 -0.11916,-4.01683c0.16464,-1.56145 0.28711,-2.86474 1.01928,-4.51995c0.73217,-1.65522 1.63948,-3.12473 3.10986,-4.81483c1.47039,-1.69009 2.51123,-2.91153 4.62004,-4.0701c2.10881,-1.15857 3.80971,-1.46368 6.37057,-1.96814c2.56086,-0.50446 3.06171,-0.55365 5.00194,-0.27208c1.94023,0.28156 3.95463,0.80015 6.25994,1.90636c2.30531,1.10621 3.08918,1.74292 4.67248,3.33965c1.58329,1.59675 2.67211,2.8339 3.665,5.06865c0.9929,2.23474 1.09714,3.48913 1.16932,5.81215c0.07218,2.323 -0.27561,4.34863 -0.76834,7.0921c-0.49273,2.74347 -0.37581,2.62695 -1.05928,4.07119c-0.68346,1.44425 -1.49158,2.71571 -2.85062,4.19105c-1.35905,1.47535 -2.28418,1.83441 -3.89727,2.80071c-1.61309,0.96631 -4.19255,2.04542 -4.19255,2.04542" fill="none" stroke="#000000" stroke-width="2" stroke-linecap="round"></path><path d="M300.97673,179.54749c0,0 -0.60634,-1.87955 -0.83811,-3.23268c-0.23175,-1.35313 -0.31005,-2.2899 -0.37091,-3.91842c-0.06086,-1.62851 0.06576,-2.48947 0.42436,-3.76493c0.3586,-1.27546 0.614,-1.75605 1.39454,-2.86716c0.78056,-1.11109 1.17441,-1.50193 2.0365,-2.36349c0.86209,-0.86155 2.16766,-2.16842 3.79898,-3.49757c1.63132,-1.32915 2.88274,-1.88166 2.88274,-1.88166" fill="none" stroke="#000000" stroke-width="1.5" stroke-linecap="round"></path><path d="M304.05587,179.94977c0,0 -0.0957,-1.32241 -0.10471,-2.66844c-0.00604,-0.90282 -0.02055,-1.69516 -0.0032,-2.35898c0.0432,-1.65357 0.12854,-2.72438 0.42451,-4.21003c0.29595,-1.48566 0.32843,-2.04935 1.23063,-3.73186c0.90219,-1.68253 0.77516,-1.82237 2.7922,-3.99406c2.01703,-2.17168 5.84984,-5.1314 5.84984,-5.1314" fill="none" stroke="#000000" stroke-width="1.5" stroke-linecap="round"></path><path d="M308.38944,181.6804c0,0 -0.21309,-1.68768 0.05954,-3.75775c0.27264,-2.07007 0.48555,-3.35514 1.12528,-5.23864c0.63974,-1.88351 1.30055,-3.08454 2.20137,-4.61445c0.90083,-1.52992 0.94395,-1.58087 2.60239,-3.68766c1.65845,-2.10679 5.10933,-5.44173 5.10933,-5.44173" fill="none" stroke="#000000" stroke-width="1.5" stroke-linecap="round"></path><path d="M324.52137,161.42258c0,0 -0.46717,1.76739 -1.21349,3.59768c-0.45251,1.10971 -1.1045,2.18252 -1.53941,3.07062c-1.1522,2.35287 -1.72766,3.17852 -2.98594,5.23077c-1.25828,2.05226 -1.73381,3.00916 -2.98581,4.78569c-0.45945,0.65195 -1.19562,1.65054 -1.82341,2.45963c-1.08291,1.39568 -2.19127,2.51545 -2.19127,2.51545" fill="none" stroke="#000000" stroke-width="1.5" stroke-linecap="round"></path><path d="M329.60175,166.94403c0,0 -0.73339,3.33331 -1.40988,5.25315c-0.67649,1.91983 -1.19583,3.12404 -2.38751,4.88072c-1.19169,1.75666 -2.34067,3.16518 -4.20437,4.83638c-0.76629,0.68714 -1.81147,1.75012 -2.94847,2.55739c-1.6283,1.1561 -3.29156,1.97191 -3.29156,1.97191" fill="none" stroke="#000000" stroke-width="1.5" stroke-linecap="round"></path><path d="M331.32786,177.29852c0,0 -2.16322,4.41255 -4.09184,6.708c-1.92861,2.29545 -2.84488,2.71378 -4.9812,4.03716c-2.13634,1.32338 -4.92589,2.09992 -4.92589,2.09992" fill="none" stroke="#000000" stroke-width="1.5" stroke-linecap="round"></path><path d="M301.87612,161.70381c0,0 1.42126,-0.04678 3.60822,-0.0755c2.18695,-0.02872 2.29384,-0.36907 5.59291,-0.09678c3.29907,0.2723 6.06139,0.61493 8.38347,1.25031c2.32208,0.63538 3.87678,1.38143 5.59208,2.5738c1.71531,1.19237 2.21588,1.40107 3.65443,3.85375c1.43854,2.4527 2.43871,6.53491 2.43871,6.53491" fill="none" stroke="#000000" stroke-width="1.5" stroke-linecap="round"></path><path d="M297.59136,166.97797c0,0 4.70973,-0.61876 7.9682,-0.85125c3.25848,-0.2325 3.32216,-0.06113 5.45055,0.13302c2.1284,0.19416 3.26762,0.33659 5.24962,1.0049c1.982,0.66833 3.26649,1.20616 5.1215,2.40948c1.85502,1.20332 2.40492,1.61569 3.6036,3.0803c1.19868,1.4646 1.79904,2.66977 2.7458,4.49923c0.94676,1.82948 2.1761,6.30862 2.1761,6.30862" fill="none" stroke="#000000" stroke-width="1.5" stroke-linecap="round"></path><path d="M296.17625,177.16728c0,0 0.65039,-0.65344 1.48595,-1.17405c0.73267,-0.45649 1.60384,-0.76803 2.35641,-1.0247c1.61082,-0.54939 2.11948,-0.6966 4.30154,-0.57875c2.18207,0.11785 3.12106,0.38588 5.48309,1.10713c2.36203,0.72126 3.89951,1.09439 5.85484,2.35497c1.95533,1.26058 3.25936,2.39222 4.23442,4.14945c0.97506,1.75723 0.87717,2.68672 0.87403,5.05685c-0.00313,2.37015 -2.22879,3.9151 -0.88832,5.74583" fill="none" stroke="#000000" stroke-width="1.5" stroke-linecap="round"></path></g><g stroke="#000000" stroke-linecap="round"><path d="M235.17113,201.83425l-3.75,-2.25l-3.25,1.25c0,0 -8.4918,1.30489 -17,1.25c-8.5082,-0.05489 -21.75,-1.5 -21.75,-1.5c0,0 -1.16122,-5.10042 -0.75,-8.75c0.41122,-3.64958 2.75,-9 2.75,-9l9.75,8.75l8.25,5.5l3,-1.75l6.5,4l3.75,-1.5l5.75,3l2.5,-1.75l4.5,2.75l6.5,-4.5z" fill="#ffffff" stroke-width="2"></path><path d="M220.42114,199.33425l-6.5,1.75l-4,-4l-5.5,3.5l-2.5,-8l-6.75,8l-4,-16.25" fill="none" stroke-width="1"></path></g><g><g stroke-width="2"><path d="M151.88139,227.19458" fill="none" stroke="#000000" stroke-linecap="round"></path><path d="M149.01058,220.12314" fill="none" stroke="#000000" stroke-linecap="round"></path><path d="M136.37016,204.15696c0,0 1.8403,-5.05338 3.03498,-7.27321c0.82414,-1.53135 2.96351,-3.2824 2.96351,-3.2824l3.21932,-0.35188c0,0 -2.16663,5.59661 -3.35121,8.05147c-1.03731,2.14966 -0.33961,1.7801 -2.25104,3.08672c-1.91146,1.30663 -3.61552,-0.23072 -3.61552,-0.23072z" fill="#312e37" stroke="#000000" stroke-linecap="butt"></path><path d="M177.47014,199.73959l4.4931,1.02749c0,0 -0.85026,7.91714 -2.25624,11.78194c-1.44136,3.962 -6.28842,11.70573 -6.28842,11.70573l-4.33132,-0.85978c0,0 2.49747,-8.69069 3.93438,-12.74549c1.35222,-3.81579 4.44853,-10.90986 4.44853,-10.90986z" fill="#a09aa6" stroke="none" stroke-linecap="butt"></path><path d="M177.47014,199.73959c0,0 4.38929,6.41788 2.31521,11.90046c-1.33183,4.73569 -10.69811,11.7549 -10.69811,11.7549c0,0 2.49747,-8.6907 3.93438,-12.7455c1.35222,-3.81579 4.44853,-10.90986 4.44853,-10.90986z" fill="#695f72" stroke="none" stroke-linecap="butt"></path><path d="M177.47014,199.73959l4.4931,1.02749c0,0 -0.85026,7.91714 -2.25624,11.78194c-1.44137,3.96201 -6.28842,11.70573 -6.28842,11.70573l-4.33132,-0.85978c0,0 2.49747,-8.69069 3.93438,-12.74549c1.35222,-3.81579 4.44853,-10.90986 4.44853,-10.90986z" fill="none" stroke="#000000" stroke-linecap="butt"></path><path d="M179.30285,199.35773c0,0 0.39604,7.18024 -0.79793,11.02874c-1.27552,4.11134 -6.62672,12.9029 -6.62672,12.9029" fill="none" stroke="#000000" stroke-linecap="round"></path><path d="M177.12661,219.4534l3.62275,-13.40746l3.66923,1.46321l1.75063,2.16194l2.33446,-0.53287l1.49379,1.87899l2.54346,-0.42928l1.52469,2.36018l1.95772,-1.01879c0,0 18.2948,7.10878 20.31024,8.56399c3.8599,2.78698 11.89121,23.55033 11.89121,23.55033z" fill="#4a627c" stroke="none" stroke-linecap="butt"></path><path d="M195.52418,214.5423l-14.77479,-8.49636l3.66922,1.46321l1.75063,2.16194l2.33446,-0.53287l1.49378,1.87898l2.54345,-0.42927l1.5247,2.36018l1.95772,-1.0188c0,0 12.97806,4.03649 19.65759,8.50276c4.09138,2.7357 2.8936,3.75375 -1.25424,0.193c-2.7726,-2.38016 -5.82507,-2.42676 -5.82507,-2.42676l-0.72313,10.96017l-12.00889,-6.64153z" fill="#91b6c0" stroke="none" stroke-linecap="butt"></path><path d="M191.90818,220.46143l-0.28815,-7.56016" fill="none" stroke="#91b6c0" stroke-linecap="round"></path><path d="M182.53668,207.88498l2.64381,3.40108l2.99202,-0.63877l1.79848,2.30466l1.91699,-0.43305l1.31488,2.46341l3.49303,-0.99951c0,0 14.89409,4.87922 19.02484,7.60604c3.25319,2.14755 5.16361,8.88952 5.16361,8.88952" fill="none" stroke="#91b6c0" stroke-linecap="round"></path><path d="M177.12662,219.4534l3.62276,-13.40746l3.66922,1.46321l1.75063,2.16194l2.33446,-0.53287l1.49378,1.87898l2.54345,-0.42927l1.5247,2.36018l1.95772,-1.0188c0,0 18.29481,7.10878 20.31025,8.56399c3.8599,2.78698 11.89121,23.55033 11.89121,23.55033z" fill="none" stroke="#000000" stroke-linecap="butt"></path><path d="M179.65195,215.45631c0,0 13.7394,6.22137 21.00402,9.81401c10.91891,5.0247 25.99564,17.34842 25.99564,17.34842" fill="none" stroke="#000000" stroke-linecap="round"></path></g><g stroke-width="4" stroke-linecap="butt"><g><path d="M149.70692,217.3713c0,0 -4.8669,2.93416 -6.41323,1.1276c-0.15978,-0.18667 -4.46696,-6.93392 0.83437,-8.62828c1.14858,-0.36714 5.01893,-1.43674 6.71648,-0.57415c3.32098,1.68739 4.58744,6.23462 4.74499,6.14156c2.08266,-1.2298 5.68492,-9.406 6.69306,-8.14776c0.51714,0.64543 0.07901,3.62197 -0.95769,7.42542c-0.2882,1.05751 -0.83841,2.44264 -1.16957,3.41484c-0.09756,0.28599 -0.17175,1.14086 -0.26429,1.40363c-0.66744,1.89481 -1.22083,3.16635 -1.85091,3.53844c-2.08266,1.2298 -8.33329,-5.70123 -8.33329,-5.70123z" fill="#00ffa9" stroke="#000000"></path><path d="M153.16422,219.63938c0,0 -0.71293,-0.68202 -1.21924,-2.23927c-0.51344,-1.57915 -0.11849,-4.0041 1.01397,-4.67287c0.99365,-0.58677 4.86714,-2.45907 6.59888,-1.64283c2.18831,1.03143 2.19254,4.91913 2.37875,5.15152c0.33358,0.41634 -4.31231,-1.82156 -6.56155,-0.49332c-2.24928,1.32825 -2.21077,3.89676 -2.21077,3.89676z" fill="#00e397" stroke="none"></path></g><g><path d="M149.8169,209.34749c-0.32016,-0.39961 -3.81087,3.40505 -7.44495,0.50436c-1.94237,-1.55039 -0.7622,-5.91165 -1.20122,-7.91016c-0.61692,-2.8081 5.78071,-9.62375 6.69494,-9.63464c1.95074,-0.02311 5.67189,1.85873 5.67189,1.85873c0,0 0.57761,0.58331 2.14724,-1.24082c0.74655,-0.86765 1.27058,-0.57092 2.21563,-0.46933c2.35365,0.25309 5.7623,2.34858 5.7623,2.34858c0,0 1.52154,-0.86838 3.44113,-1.62531c0.91789,-0.36192 1.70338,-1.13757 2.87616,-0.95664c3.04116,0.46941 4.51915,4.04255 6.28439,6.24567c1.53333,1.91372 0.71411,4.39574 -0.38161,7.50086c-1.66943,4.73087 -4.54428,8.88239 -8.46731,11.19903c-1.39525,0.82386 -3.72547,0.71655 -6.07701,-0.35435c-1.10174,-0.50159 -2.11751,-0.77705 -2.6772,-1.40233c-1.22769,-1.37129 -0.51435,-2.85604 -0.51435,-2.85604c0,0 -3.15418,0.47669 -4.62166,0.4609c-1.54922,-0.01655 -2.7861,-2.51746 -3.70839,-3.66848z" fill="#00ffa9" stroke="#000000"></path><path d="M173.42267,198.66538c-0.52639,-0.65696 -2.0015,-1.0251 -2.83808,-1.65006c-0.27913,-0.20853 -2.14925,0.46519 -3.56118,1.90291c-3.12705,3.18416 -6.51707,9.00333 -6.29041,8.86948c0.0113,-0.00667 0.64162,-6.80449 -1.91624,-8.2331c-1.20525,-0.67316 -3.20051,-0.64801 -4.36839,-0.78946c-1.70171,-0.20609 -3.19194,4.3264 -3.19194,4.3264c0,0 0.43584,-4.32309 -1.33483,-3.80809c-2.46706,0.71754 -8.21273,10.39535 -8.21273,10.39535c0,0 -0.82366,-3.31158 -1.07026,-6.07259c-0.22063,-2.47033 1.86478,-4.81938 2.79189,-5.87676c2.21655,-2.52801 5.09282,-3.62024 4.81743,-3.9311c-0.26521,-0.29937 1.29359,-0.38553 2.7904,0.16245c1.73411,0.63486 3.4572,1.9262 3.31426,1.62232c-0.4449,-0.9458 3.36344,-2.17265 3.3604,-2.46554c-0.01423,-1.36643 5.30699,3.71624 6.16927,2.14234c0.8321,-1.51882 3.81028,-1.39182 4.85726,-2.02957c1.87834,-1.14415 4.97856,3.30777 5.39637,3.82925c1.11196,1.38779 2.94339,5.96152 2.94339,5.96152c0,0 -2.5447,-2.96795 -3.65665,-4.35575z" fill="#00e397" stroke="none"></path><path d="M158.71208,213.79337c-0.6248,0.36897 -0.78048,-0.3501 -1.22526,-0.90521c-0.44479,-0.55512 0.75191,-2.0728 1.37672,-2.44176c0.6248,-0.36897 3.80608,-6.6897 3.80608,-6.6897c0,0 -3.33272,9.66771 -3.95752,10.03665z" fill="#000000" stroke="none"></path><path d="M149.55041,209.43093c-0.31137,-0.38859 -1.48998,0.58372 -0.8964,0.23321c0.59356,-0.35052 2.86555,-8.79955 2.86555,-8.79955c0,0 -0.77061,8.45085 -1.36418,8.80137c-0.59356,0.35052 -0.29362,0.15355 -0.60496,-0.23504z" fill="#000000" stroke="none"></path><path d="M150.54538,208.60451c-0.32016,-0.39961 -3.74564,3.07032 -7.37978,0.16969c-0.84172,-0.67185 -3.07232,-5.08018 -1.7092,-8.26374c1.78241,-4.16286 7.02243,-8.43771 7.54041,-8.44381c1.95081,-0.02316 5.88285,1.28996 5.88285,1.28996c0,0 0.518,-0.0844 1.21551,-0.50115c0.70318,-0.42013 1.2157,-0.80496 1.6709,-0.7891c2.2735,0.07948 6.52742,2.49677 6.52742,2.49677c0,0 0.81121,-0.6643 2.35953,-1.43527c1.09551,-0.54547 2.536,-1.27796 4.03824,-1.04612c3.04116,0.46941 5.18526,4.18937 6.29972,6.68081c0.42116,0.94171 0.37669,3.55854 -0.71902,6.66364c-1.66943,4.73087 -4.01126,8.71569 -7.93427,11.03233c-1.50156,0.88667 -3.89286,0.39339 -6.24559,-0.65203c-0.12672,-0.05624 -1.96351,-0.89262 -2.36298,-1.33876c-1.22769,-1.37129 -0.9016,-2.92344 -0.9016,-2.92344c0,0 -3.38045,0.61024 -4.84786,0.59449c-1.54923,-0.01665 -2.51192,-2.3833 -3.4342,-3.53422z" fill="none" stroke="#000000"></path><path d="M150.27518,208.76209c-0.32016,-0.39961 -3.74564,3.07032 -7.37978,0.16969c-0.84172,-0.67185 -3.07232,-5.08018 -1.7092,-8.26374c1.78241,-4.16286 6.81147,-7.86892 7.32951,-7.87507c1.95074,-0.02311 6.04396,1.49099 6.04396,1.49099c0,0 0.88998,-0.45209 1.58745,-0.8689c0.70318,-0.42013 1.21576,-0.80491 1.6709,-0.78899c2.2735,0.07937 6.30115,2.63032 6.30115,2.63032c0,0 1.15068,-0.86472 2.69888,-1.63568c1.09557,-0.54552 2.30978,-1.14438 3.81209,-0.91247c3.0411,0.46936 4.97625,3.72042 6.09064,6.21191c0.42123,0.94166 0.37669,3.55854 -0.71902,6.66364c-1.66943,4.73087 -4.01119,8.71564 -7.93427,11.03233c-1.50156,0.88667 -3.89286,0.39339 -6.24559,-0.65204c-0.12667,-0.05628 -1.96351,-0.89261 -2.36291,-1.33881c-1.22769,-1.37118 -0.9016,-2.92344 -0.9016,-2.92344c0,0 -3.38051,0.61027 -4.84793,0.59453c-1.54923,-0.01665 -2.51186,-2.38324 -3.43421,-3.53422z" fill="none" stroke="#000000"></path></g></g></g><g stroke="#000000" stroke-width="3.5" stroke-linecap="butt"><path d="M178.80613,149.4387c-0.17878,-2.99468 1.58971,-7.57118 8.73906,-13.9492c6.72202,-5.9968 13.90741,-7.24226 15.31455,-8.36941c0.82701,-0.66246 3.52311,0.18132 5.44358,1.53884c0.97905,0.69205 1.93955,1.371 2.60818,1.84363c1.65674,1.17109 4.62841,3.17502 2.72674,4.69829c-1.89348,1.51674 -8.12605,3.16059 -16.00267,8.92062c-7.08774,5.18315 -12.91907,12.19846 -14.49507,11.08443c-1.39804,-0.98823 -4.15558,-2.77251 -4.33437,-5.76719z" fill="#4f5357"></path><path d="M232.36542,131.31219c-0.23402,5.02104 -6.55992,8.65052 -14.12931,8.10666c-7.56939,-0.54387 -13.51587,-5.05511 -13.28187,-10.07615c0.234,-5.02105 6.55991,-8.65052 14.1293,-8.10666c7.56939,0.54385 13.51589,5.0551 13.28187,10.07615z" fill="#75756c"></path><g><path d="M232.02535,126.84366c-0.22669,3.53377 -6.35469,6.08816 -13.68727,5.7054c-7.33257,-0.38276 -13.09302,-3.55774 -12.86633,-7.09152c0.22669,-3.53377 6.35468,-6.08816 13.68725,-5.7054c7.33257,0.38277 13.09303,3.55776 12.86634,7.09152z" fill="#533023"></path><path d="M212.84734,129.95785l4.22686,-8.99766c0,0 2.17583,-0.13329 3.28357,0.13822c1.16504,0.28555 5.72593,1.64898 5.72593,1.64898l-6.0035,8.24647z" fill="#b08a80"></path></g><path d="M258.25786,149.7083c-1.01374,1.15665 -4.01658,-6.4237 -9.37114,-10.98453c-5.95052,-5.06844 1.21084,-14.2024 6.37346,-8.84148c5.49082,5.70171 5.46589,11.17748 5.57472,14.05582c0.10883,2.87834 -1.67778,4.74416 -2.57705,5.77019z" data-paper-data="{&quot;index&quot;:null}" fill="#4f5357"></path><path d="M247.72576,123.81219c6.9786,2.51944 10.91502,8.40804 8.79224,13.15257c-2.12278,4.74453 -9.50093,6.54833 -16.47953,4.02889c-6.9786,-2.51944 -10.91502,-8.40804 -8.79224,-13.15257c2.12278,-4.74453 9.50093,-6.54832 16.47953,-4.02888z" fill="#75756c"></path><g><path d="M259.42043,133.048c-1.38225,3.39419 -8.0753,4.20722 -14.94936,1.81598c-6.87407,-2.39126 -11.32605,-7.08126 -9.9438,-10.47545c1.38225,-3.39418 8.0753,-4.20723 14.94936,-1.81598c6.87407,2.39124 11.32605,7.08127 9.9438,10.47545z" fill="#533023"></path><path d="M240.08399,130.81915l7.00375,-7.63839c0,0 2.12122,0.4681 3.0892,1.03835c1.01805,0.59975 4.92248,3.18788 4.92248,3.18788l-8.45207,6.41494z" fill="#b08a80"></path></g></g></g></g></svg>