<svg version="1.1" xmlns="http://www.w3.org/2000/svg" xmlns:xlink="http://www.w3.org/1999/xlink" width="195.68807" height="121.17156" viewBox="0,0,195.68807,121.17156"><g transform="translate(-158.18702,-119.37327)"><g data-paper-data="{&quot;isPaintingLayer&quot;:true}" fill-rule="nonzero" stroke-linejoin="miter" stroke-miterlimit="10" stroke-dasharray="" stroke-dashoffset="0" style="mix-blend-mode: normal"><g stroke-linecap="butt"><path d="M229.33469,135.05754c0.89335,0.40366 14.45946,4.10766 11.2915,15.72893c-2.26383,8.30448 -10.38532,17.39387 -14.87378,28.48377c-5.33795,13.18884 -7.38848,28.1838 -14.1498,33.78283c-4.33564,3.59035 -17.99981,-4.76612 -18.8524,-5.13497c-5.74992,-2.48755 -11.935,-4.98577 -12.18911,-9.07404c-0.28149,-4.5289 9.73294,-30.22193 18.71234,-48.27819c4.03533,-8.11443 7.31297,-14.39009 9.66942,-17.40334c0.33693,-0.43086 2.14891,-1.59474 5.20206,-1.57922c5.10889,0.02599 12.26231,2.15147 15.18974,3.47421z" fill="#00e48d" stroke="none" stroke-width="0"></path><path d="M211.84826,130.95717c1.14054,-2.59325 10.1684,0.68587 15.35488,2.96694c0.29099,0.12799 1.41782,11.64243 -4.41457,22.8592c-2.75853,5.30515 -27.05191,36.98309 -30.55965,41.98874c-10.78147,15.38547 -7.98979,-2.71331 -10.64569,-1.65556c-3.50674,1.39661 1.76706,-20.80111 10.00206,-37.41667c4.83968,-9.76489 19.83389,-27.76706 20.26297,-28.74262z" fill="#00ff9d" stroke="none" stroke-width="0"></path><path d="M228.91166,134.87149c0.89335,0.40366 14.45946,4.10766 11.2915,15.72893c-2.11763,7.76817 -10.90026,16.99749 -14.99593,27.41336c-5.48984,13.9615 -6.89917,28.95019 -14.02765,34.85326c-4.33564,3.59035 -17.99982,-4.76609 -18.85243,-5.13495c-5.74992,-2.48755 -11.935,-4.98577 -12.18911,-9.07404c-0.14254,-2.29335 2.30262,-20.19418 9.23345,-35.86223c6.75608,-15.27307 17.98513,-28.3319 19.14833,-29.81929c0.33693,-0.43086 2.14891,-1.59474 5.20206,-1.57922c5.10889,0.02599 12.26231,2.15146 15.18975,3.47421z" fill="none" stroke="#000000" stroke-width="3"></path></g><path d="M289.22241,196.5966c-0.02228,0.49889 2.87582,5.73981 4.16703,11.80288c1.74069,8.17367 1.69422,17.84152 -1.66531,19.39953c-8.40014,3.89565 -18.77722,3.16843 -20.6316,3.32227c-2.36894,0.19653 -9.33163,0.92947 -11.68947,-2.83708c-1.07728,-1.72091 0.8407,-4.45116 0.75362,-7.33573c-0.11323,-3.75069 -2.02046,-7.76225 -1.93391,-10.15505c0.08788,-2.4291 -7.55027,-2.25451 -7.55027,-2.25451l-7.00237,1.29133c0,0 -19.05172,18.78925 -22.43166,23.23433c-3.92964,5.16803 -10.13923,5.71244 -13.44327,5.98026c-6.33965,0.51389 -13.13648,-1.46233 -16.02436,-3.91536c-0.92199,-0.78316 -2.85777,-2.63687 -3.77172,-6.34827c-0.65466,-2.65846 27.52151,-76.84722 28.13055,-79.46097c0.83112,-3.56696 15.51729,-18.38829 32.19926,-25.40791c10.59055,-4.45642 21.98551,-2.62956 31.15047,-2.8506c17.53462,-0.42292 19.89454,25.06554 20.08805,28.03605c1.15507,17.73119 -9.84973,36.40754 -10.34504,47.49882z" fill="#00e48d" stroke="none" stroke-width="0" stroke-linecap="round"></path><g stroke-linecap="round"><path d="M289.25487,192.2481c0.83817,8.5896 6.22151,16.54729 5.85304,24.79818c-0.01896,0.42462 -0.66094,9.33531 -4.87816,11.41538c-3.08484,1.52155 -14.92298,0.40655 -15.70095,-0.2907c-1.30205,-1.16695 -1.80105,-25.25643 -1.80105,-25.25643c0,0 -19.22126,3.3044 -28.61784,-14.67222c-1.85773,-3.55402 -2.70115,-7.02532 -2.14323,-10.70979c0.33467,-2.2102 3.18313,-5.8309 4.04845,-13.04276c0.99976,-8.33248 0.01256,-20.35821 0.12853,-22.73059c0.12594,-2.57632 0.16402,-7.10291 2.9731,-11.10877c3.00906,-4.29105 8.81007,-7.98457 9.1958,-8.04333c4.98409,-0.75915 10.57014,-1.32558 11.77081,-1.0879c2.58165,0.51104 13.94733,-1.18101 18.27418,1.64434c8.0156,5.23399 10.44301,17.36665 11.10486,19.12143c0.42355,1.12298 -0.17228,24.88041 -1.56967,29.17492c-1.58431,4.86897 -9.42184,12.75386 -8.63786,20.78823z" fill="#00ff9d" stroke="none" stroke-width="0"></path><path d="M289.22241,196.5966c-0.02228,0.49889 2.87582,5.73981 4.16703,11.80288c1.74069,8.17367 1.69422,17.84152 -1.66531,19.39953c-8.40014,3.89565 -18.77722,3.16843 -20.6316,3.32227c-2.36894,0.19653 -9.33163,0.92947 -11.68947,-2.83708c-1.07728,-1.72091 0.8407,-4.45116 0.75362,-7.33573c-0.11323,-3.75069 -2.02046,-7.76225 -1.93391,-10.15505c0.08788,-2.4291 -7.55027,-2.25451 -7.55027,-2.25451l-7.00237,1.29133c0,0 -19.05172,18.78925 -22.43166,23.23433c-3.92964,5.16803 -10.13923,5.71244 -13.44327,5.98026c-6.33965,0.51389 -13.13648,-1.46233 -16.02436,-3.91536c-0.92199,-0.78316 -2.85777,-2.63687 -3.77172,-6.34827c-0.65466,-2.65846 27.52151,-76.84722 28.13055,-79.46097c0.83114,-3.56695 15.51729,-18.38829 32.19926,-25.40793c10.59057,-4.45642 21.98551,-2.62954 31.15047,-2.8506c17.53462,-0.42292 19.89454,25.06552 20.08805,28.03605c1.15507,17.73119 -9.84972,36.40754 -10.34504,47.49882z" fill="none" stroke="#000000" stroke-width="3"></path></g><g stroke="#000000" stroke-width="3.5" stroke-linecap="butt"><path d="M233.44885,132.95887c0.69654,-2.33779 3.32093,-5.3424 10.55769,-8.22647c6.80421,-2.71169 12.64061,-1.66426 14.0293,-2.13398c0.81617,-0.27607 2.64134,1.11868 3.73099,2.69016c0.5555,0.80113 1.10047,1.58709 1.47984,2.13421c0.94001,1.35567 2.65298,3.71348 0.77625,4.34826c-1.86865,0.63207 -7.0879,0.15411 -14.70839,2.36368c-6.85727,1.98828 -13.26432,5.72595 -14.15851,4.43634c-0.79323,-1.14399 -2.4037,-3.2744 -1.70717,-5.61219z" fill="#4f5357"></path><path d="M279.41303,134.00993c-1.57567,3.77116 -7.41863,4.78433 -13.05063,2.26296c-5.63199,-2.52137 -8.92028,-7.62246 -7.34462,-11.39363c1.57566,-3.77117 7.41863,-4.78433 13.05062,-2.26297c5.632,2.52136 8.9203,7.62246 7.34462,11.39363z" fill="#75756c"></path><g><path d="M280.39637,130.5012c-1.15631,2.63687 -6.54897,2.88368 -12.04485,0.55129c-5.49587,-2.33239 -9.01378,-6.36078 -7.85747,-8.99765c1.15631,-2.63687 6.54896,-2.88369 12.04484,-0.55129c5.49587,2.3324 9.01378,6.36079 7.85748,8.99765z" fill="#533023"></path><path d="M264.87727,127.54516l5.73266,-5.69862c0,0 1.6995,0.50349 2.47032,1.01911c0.81069,0.54229 3.91607,2.85286 3.91607,2.85286l-6.8811,4.63042z" fill="#b08a80"></path></g><path d="M294.07796,155.26863c-1.09632,0.6017 -1.28172,-6.02538 -4.10396,-10.99968c-3.13636,-5.52794 4.87629,-10.51431 7.3293,-4.9821c2.60895,5.88389 1.06653,10.06065 0.34891,12.29008c-0.71762,2.22944 -2.60173,3.15795 -3.57425,3.6917z" data-paper-data="{&quot;index&quot;:null}" fill="#4f5357"></path><path d="M293.23544,132.55296c4.63099,3.86642 6.00034,9.46066 3.05851,12.49509c-2.94183,3.03443 -9.08084,2.35997 -13.71183,-1.50645c-4.63099,-3.86642 -6.00034,-9.46066 -3.05851,-12.49509c2.94183,-3.03443 9.08084,-2.35997 13.71183,1.50645z" fill="#75756c"></path><g><path d="M299.60117,142.86297c-2.00037,2.20874 -7.3403,0.96789 -11.92709,-2.77149c-4.58679,-3.73941 -6.68349,-8.5613 -4.68313,-10.77004c2.00037,-2.20873 7.3403,-0.9679 11.92709,2.77149c4.5868,3.73939 6.68349,8.56131 4.68313,10.77004z" fill="#533023"></path><path d="M285.44748,135.78057l7.47616,-3.88755c0,0 1.49046,0.94778 2.07139,1.65277c0.61098,0.74146 2.87408,3.80511 2.87408,3.80511l-8.24236,2.54986z" fill="#b08a80"></path></g></g><g><path d="M287.06175,154.71838c0.4445,0.33463 0.84956,0.68138 1.13461,1.03396c0.1458,0.18034 0.27404,0.38948 0.39389,0.61376c0.31454,0.34237 0.60642,0.68415 0.85692,1.0076c-0.02635,-0.09335 -0.05511,-0.18126 -0.08816,-0.26129c-0.35751,-0.86568 -1.27371,-1.77193 -2.29726,-2.39403zM290.24471,158.30291c2.70745,1.56764 3.6264,4.71776 3.65598,7.63546c0.00246,1.09208 0.93529,5.03463 -0.01713,5.78242c-0.67493,0.52991 -2.73464,0.24765 -3.57189,0.25022c-2.98008,0.04314 -5.98915,-0.43913 -9.00032,-0.43799c-3.02076,-0.01339 -6.04389,-0.21168 -9.09527,-0.21791c-3.05395,-0.01986 -6.04514,-0.58413 -9.08435,-0.72241c-2.88543,-0.61802 -6.23385,-1.44222 -8.3955,-3.59559c-2.24619,-2.24704 -1.41183,-4.59899 -1.45429,-7.40886c0,0 0,-0.21721 0.21721,-0.21721c0.0447,0 0.0802,0.0092 0.1084,0.02381l0.27541,-0.24132c1.19597,-0.57939 2.18694,-0.87294 3.28383,-1.63077c1.71532,-2.3056 5.5056,-2.97918 8.16993,-3.46302c2.08143,-1.27996 5.97833,-3.13592 8.41704,-3.15996c2.28444,0.00055 5.82523,0.5131 8.06796,1.64328l0.00898,-0.03375l0.41532,0.11045c0.0952,0.02306 0.1659,0.10883 0.1659,0.21112c0,0.01326 -0.00119,0.02624 -0.00346,0.03885c0.93799,0.12599 1.78754,0.32565 2.42389,0.64249c0.01602,0.00021 0.03204,0.00052 0.04805,0.00094c-0.01597,-0.03024 -0.02501,-0.0647 -0.02501,-0.10128c0,-0.11996 0.09725,-0.21721 0.21721,-0.21721c0.07615,0 0.14314,0.03918 0.18192,0.09848l0.18519,0.27457c2.20722,0.372 4.18822,2.54407 4.805,4.73521z" fill="#6fddfe" stroke="none" stroke-width="0.5" stroke-linecap="butt"></path><path d="M254.10312,158.9414c0.0004,-0.01793 0.00948,-0.22201 0.21626,-0.22201c0.21627,0 0.21627,0.22326 0.21627,0.22326c0,3.36372 1.54455,4.04434 3.72316,6.21082c2.00967,2.07547 5.56,2.66256 8.22142,3.34134c2.92946,0.23218 6.08448,0.69506 8.96919,1.2461c2.92633,0.56754 6.1453,0.41703 8.98499,1.15111c2.31598,0.61766 5.07757,0.37545 7.53054,0.33524c0.06259,-0.00326 0.1239,-0.00433 0.18342,-0.00262c0.13868,-0.00168 0.2763,-0.00261 0.41272,-0.00261h0.43255c0.11945,0 0.21627,0.09996 0.21627,0.22326c0,0.1233 -0.09683,0.22326 -0.21627,0.22326h-0.43255c-0.03921,0 -0.07851,0.00007 -0.11789,0.00021c-2.54093,0.61784 -5.52074,0.22306 -8.07958,0.22306c-2.99209,0 -6.00839,0.66959 -8.95144,0.66432c-0.85157,0.38342 -1.69204,0.04677 -2.56194,0.2246c-1.98353,0.40549 -4.41705,0.66582 -6.4101,0.67387c-2.99235,0.00025 -6.03485,0.43683 -9.01515,0.44631c-3.03987,0.00147 -5.98217,0.44592 -9.0247,0.44673c-0.96924,0.00006 -4.12827,0.77763 -4.86059,0.17626c-1.0706,-0.87917 0.05569,-2.5189 0.79098,-3.55205c-0.09266,-0.02522 -0.16098,-0.11232 -0.16098,-0.2159c0,-0.0467 0.01389,-0.09005 0.03764,-0.12589l0.23725,-0.36966l0.02707,0.01851c0.87498,-2.39395 2.90919,-5.19873 4.68982,-6.77352c0.76665,-1.49393 3.30121,-3.70419 4.7677,-4.49777l0.07414,-0.03981c0,0 0.04349,-0.02335 0.09982,-0.02645z" fill="#1c4ea5" stroke="none" stroke-width="0.5" stroke-linecap="butt"></path><path d="M243.073,175.01029c0,0 -0.85864,-2.48341 2.38933,-7.16799c3.24798,-4.68457 3.62621,-5.08006 8.90569,-9.1229c5.27948,-4.04285 9.94812,-5.27728 13.68435,-6.29915c3.73623,-1.02187 8.97896,-1.53831 13.90156,0c4.9226,1.53831 5.24478,0.97885 8.90569,6.08193c3.66091,5.10308 3.25818,13.24993 3.25818,13.24993c0,0 -17.54789,0.83927 -22.59004,1.30327c-5.04214,0.464 -28.45476,1.95491 -28.45476,1.95491z" fill="none" stroke="#000000" stroke-width="2" stroke-linecap="round"></path><path d="M280.14763,154.43929c1.95935,0.16653 3.67124,0.69357 5.39801,1.99166c0.7758,1.0978 1.86274,3.40211 0.35501,4.64882c-0.71686,0.59276 -2.26395,0.1698 -3.07366,0.00786c-2.29594,-0.45919 -4.92957,-0.22581 -7.05266,-1.42145c-2.33083,-1.31263 -2.94734,-4.0531 -0.06037,-5.22414c1.367,-0.5545 2.68049,-0.06173 4.06785,-0.06689c0,0 0.1647,0 0.36582,0.06414z" fill="#ffffff" stroke="none" stroke-width="0.5" stroke-linecap="butt"></path></g><g stroke="#000000" stroke-linecap="round"><path d="M241.77937,187.95452l5.09967,-1.10328l5.36988,6.57435l9.12461,-1.06733l2.98153,3.52203l10.19935,-2.20657l-7.37233,11.2846l-7.19249,3.05578l-4.5046,-4.56226l-6.01389,1.70621l-5.09777,-5.03199l-7.61721,0.93413c0,0 -5.64127,-6.05414 -6.84403,-10.22958c-1.20276,-4.17546 -0.8928,-16.62949 -0.8928,-16.62949l7.50178,9.25772z" data-paper-data="{&quot;index&quot;:null}" fill="#ffffff" stroke-width="2"></path><path d="M272.4435,194.59656l-12.15723,12.69593l1.28053,-14.43189l-12.19283,11.54565l-2.24148,-16.62567l-9.50803,12.72911l-7.6135,-22.79206" fill="none" stroke-width="1"></path></g><g data-paper-data="{&quot;index&quot;:null}"><path d="M332.83636,187.90245c0.41449,0.42933 0.03501,0.90725 0.01456,0.93233c-1.13642,3.44931 -2.80165,7.59394 -6.50834,8.92728c-0.88389,0.47533 -2.71754,1.46443 -3.01116,-0.56553c-0.06636,-0.45879 0.55794,-0.7427 0.87439,-1.08142c0.79329,-0.84916 1.95351,-1.14771 2.81249,-1.88316c1.28663,-1.10161 1.92829,-2.73475 2.87716,-4.08152c0.69198,-0.98216 1.20033,-1.50283 1.57686,-2.65295c0,0 0.2216,-0.67686 0.89846,-0.45528c0.58012,0.18991 0.50026,0.71425 0.4656,0.86028z" fill="#323440" stroke="none" stroke-width="0.5" stroke-linecap="butt"></path><path d="M328.90874,196.39658l-0.28059,0.61848c-0.38896,0.05462 -0.78825,0.26838 -1.16687,0.16383c-1.29075,-0.35643 -2.37103,-2.5785 -0.39313,-3.18013c0.46875,-0.1426 1.34567,0.60395 1.81962,1.01374c0.0863,0.0456 0.15122,0.10588 0.20004,0.17163c0.04539,0.0399 0.52141,0.47966 0.08564,1.00033c-0.08649,0.10332 -0.17616,0.17075 -0.26473,0.21214z" fill="#51626b" stroke="none" stroke-width="0.5" stroke-linecap="butt"></path><path d="M331.76758,191.14151c-0.05324,0.13376 -0.1281,0.24781 -0.25313,0.31605c-0.97669,0.53326 -2.13388,-0.03115 -2.20616,-1.26314c-0.02882,-0.49138 0.89214,-1.15562 1.23156,-1.43603c0,0 0.48557,-0.39859 0.9569,0.12591c0.14296,0.01533 0.28766,0.07456 0.41153,0.17821c0.20242,0.16945 0.29776,0.41459 0.27119,0.63798l-0.07103,0.70778l-0.05665,0.31978c0,0 -0.0518,0.28218 -0.28422,0.41341z" fill="#91aea7" stroke="none" stroke-width="0.5" stroke-linecap="butt"></path><path d="M311.52965,179.12829c-0.13951,-1.7296 -0.0049,-3.33062 0.03579,-5.04443c0.06156,-2.59103 -1.11267,-6.43136 2.41343,-7.38552c1.18799,-0.32145 3.35079,0.25984 4.50272,0.5989c0,0 0.32116,0.09656 0.45647,0.37752c1.07297,0.14705 2.1792,0.13577 3.25414,0.44082c2.94388,0.83544 6.1395,3.29245 7.71044,5.86319c4.27366,4.72623 2.80294,12.2721 -1.01271,16.8438c-1.44267,1.72371 -3.43358,4.72624 -5.89319,5.14089c-0.25256,0.3012 -0.70141,0.34089 -1.00288,0.08856l-0.10012,-0.0838c-0.30495,-0.04938 -0.61622,-0.14229 -0.93368,-0.28502c-1.95883,-0.88067 -4.2672,-3.80265 -5.4024,-5.56659c-0.2,-0.3108 -0.43788,-0.60136 -0.6413,-0.88666c-0.20896,-0.28028 -0.40701,-0.57891 -0.59193,-0.90321l-0.00324,-0.02199l-0.00636,0.00314l-0.58018,-1.18384c-0.12821,-0.24742 -0.10382,-0.55808 0.08622,-0.78515c0.02737,-0.0327 0.05702,-0.06231 0.08859,-0.08879c-1.2428,-2.12775 -2.13221,-4.44935 -2.37991,-7.12182z" fill="#4a5b80" stroke="none" stroke-width="0.5" stroke-linecap="butt"></path><path d="M329.08009,179.32221c0.28232,1.64985 -1.13666,3.82438 -3.08125,2.03328c-0.2519,-0.23204 -0.11793,-0.63008 -0.24777,-0.93269c-0.4768,-1.11113 -1.87334,-1.38213 -1.36824,-2.84222c0.67775,-1.9591 3.43437,-0.06657 4.4982,0.81961c0,0 0.54134,0.45309 0.19907,0.92205z" fill="#98c0bf" stroke="none" stroke-width="0.5" stroke-linecap="butt"></path><path d="M313.63687,166.94338c0.1578,-0.13266 0.5128,-0.34283 0.91643,-0.005c0.54617,0.45711 0.08904,1.00328 0.08904,1.00328c-3.16675,3.75896 -2.84895,9.20627 -1.95446,13.68231c1.32894,3.81743 2.88445,7.49634 5.86316,10.39898c0.89984,0.87683 1.76633,1.8829 2.75624,2.65949c0.34276,0.2689 0.91222,0.37038 1.04461,0.78541c0.1644,0.51533 -0.1896,1.06508 -0.28439,1.5976c-1.8822,0.4072 -4.17901,0.50369 -6.0889,0.18721c-1.18055,-0.19562 -2.07444,-1.12346 -3.12084,-1.6296c-2.68453,-1.29845 -5.71912,-3.34446 -7.1635,-6.02495c-1.59054,-2.5817 -1.77288,-4.94088 -2.20556,-7.85749c-0.15273,-1.02948 -0.41769,-2.3799 -0.29075,-3.42819c0.22257,-1.83786 2.41164,-4.11532 3.55571,-5.48723c1.80702,-2.15897 3.84697,-3.60455 5.95843,-5.41485l0.17833,-0.22818c0,0 0.32104,-0.38357 0.74649,-0.23876z" fill="#313746" stroke="none" stroke-width="0.5" stroke-linecap="butt"></path><path d="M335.17285,184.67403c1.21468,-0.09443 1.46749,0.95398 1.51281,1.22951c1.71917,2.06828 3.59823,4.36228 4.67184,6.80422c0.93329,2.12277 1.36209,4.40185 2.67137,6.35158c2.6846,3.99788 9.18492,7.10801 8.59035,12.68649c-0.07747,0.72692 -0.39639,1.40732 -0.59458,2.11096c-2.39367,2.96583 -6.17302,7.19862 -10.56155,5.35643c-0.95495,-0.40085 -1.52516,-1.41943 -2.40154,-1.97133c-0.60739,-0.38247 -1.83119,-0.01014 -2.35367,-0.03392c-1.12385,-0.05117 -2.72864,-0.42547 -3.71443,-0.97656c-1.52222,-0.85094 -3.12461,-2.41512 -3.72066,-4.06636c-0.13368,-0.37041 0.05707,-0.82055 -0.11232,-1.17606c-0.51163,-1.07377 -4.16333,-1.7575 -5.06507,-2.06915c-2.55432,-1.43967 -5.01208,-3.78444 -7.70625,-4.87522c-2.89248,-1.1711 -5.3582,-0.49321 -7.85433,-2.78012c-1.66217,-1.52287 -4.21958,-6.60322 -0.47885,-7.90819c0.82428,-0.28755 1.66596,0.53955 2.45331,0.9167c2.35229,1.12684 3.99008,2.11128 6.69533,2.40326c1.27808,0.0476 3.18058,0.00837 4.24344,0.72791c0.40941,0.27716 0.12596,1.029 0.42857,1.41997c0.13087,0.16909 0.43202,0.00949 0.64024,-0.03907c1.36525,-0.31847 2.74489,-0.64226 4.10336,-1.01427c2.80104,-0.76709 4.06563,-3.39605 5.40881,-5.7583c0.59067,-1.03884 1.64198,-2.1605 1.7693,-3.43003c0.06398,-0.63768 -0.50017,-1.65121 -0.71322,-2.12965c0,0 -0.56814,-1.30621 0.73809,-1.87436c0.60026,-0.26108 1.04466,-0.12633 1.34966,0.09555z" fill="#00e48d" stroke="none" stroke-width="0.5" stroke-linecap="butt"></path><path d="M334.84801,184.38985l0.66358,0.07403c2.68706,-0.02972 6.10149,1.08247 7.89768,3.24743c1.2307,1.48337 0.95488,2.72054 1.97746,4.1215c1.78968,1.46867 3.8776,2.8361 4.04145,5.40803c0.0616,0.96701 -0.66999,1.48779 -0.23523,2.39056c0.65845,1.36726 2.23305,2.14026 3.12007,3.32806c0.8267,1.10709 1.31328,2.26161 1.50513,3.63393c0.4821,3.44817 -2.17514,5.82991 -5.0134,7.2145c-0.66995,0.32682 -1.32456,0.99015 -2.06019,0.86975c-3.80917,-0.62348 -2.7598,-4.09899 -1.45381,-6.27333c-0.6444,0.45599 -1.81251,1.12513 -1.92782,1.2054c-1.16356,0.8101 -1.98492,2.17168 -3.0933,2.92052c-0.82023,0.55414 -1.73571,1.6108 -2.67323,1.29317c-0.89049,-0.30168 -0.87087,-1.68005 -1.13348,-2.58282c-0.77067,-2.64937 1.3416,-6.8146 3.80799,-7.98835c0.29619,-0.14095 0.66927,0.19756 0.97977,0.09177c0.02925,-0.00995 -1.16749,-2.40908 -1.18692,-2.43651c-0.14547,-0.20543 -0.28016,-0.41781 -0.40559,-0.63584c-0.03484,-0.02424 -0.06891,-0.05025 -0.10208,-0.07802c-0.05891,-0.04929 -0.11283,-0.10233 -0.16167,-0.15849l-0.18451,-0.20532l-0.02881,0.02469l-0.82945,-0.96743c-0.19231,0.68946 -0.43834,1.86187 -0.47172,2.06172c-0.41718,2.49797 -0.95695,4.04798 -2.42245,6.14996c-0.99239,0.96863 -2.00668,2.32219 -3.68161,2.16372c-2.27021,-0.21478 -3.55105,-3.02896 -3.61939,-4.92915c-0.12893,-3.58464 2.76663,-5.57566 4.01229,-8.62141c1.14406,-2.79734 1.48261,-6.21721 0.64609,-9.12803c-0.15764,-0.2077 -0.26437,-0.49083 -0.24845,-0.87597c-0.05397,-0.42349 -0.00519,-1.18854 0.94303,-1.51705c0.61869,-0.21435 1.0515,-0.04573 1.33862,0.19901z" fill="#00ff9d" stroke="none" stroke-width="0.5" stroke-linecap="butt"></path><path d="M348.6008,195.31552c0.8811,1.73881 0.42427,4.78079 0.42427,4.78079c0,0 2.65901,1.78138 3.571,3.50947c0.91201,1.7281 1.06884,2.49116 1.08563,4.19042c0.01681,1.69925 -0.41219,2.82676 -1.00442,4.02205c-0.59223,1.19529 -1.66718,2.41421 -2.64949,3.58787c-1.19623,1.42924 -1.71375,2.26877 -3.89024,3.59232c-2.17653,1.32354 -2.14507,1.30992 -3.57078,0.94474c-1.42571,-0.36516 -3.64921,-2.79395 -3.64921,-2.79395c0,0 -3.02342,0.06122 -5.20077,-0.71771c-1.03947,-0.37186 -2.20915,-1.29469 -2.8079,-2.26652c-0.59873,-0.97183 -1.18004,-3.14448 -1.18004,-3.14448l-5.05531,-2.66917c0,0 -1.77868,-2.7567 -2.59176,-4.67948c-0.81309,-1.92275 -0.784,-2.0832 -0.81612,-3.37948c-0.03212,-1.2963 0.82539,-3.47451 0.82539,-3.47451c0,0 -1.59994,0.38619 -2.63376,0.32479c-1.03384,-0.06142 -2.1541,-0.15469 -4.06231,-0.72257c-1.90821,-0.56788 -2.67147,-0.89571 -4.13678,-1.90038c-1.46528,-1.00466 -2.90591,-2.25356 -4.46456,-3.99704c-1.55862,-1.7435 -1.93392,-2.04041 -2.70555,-3.9101c-0.77161,-1.86971 -1.12023,-3.08619 -0.90532,-4.83942c0.21489,-1.75322 0.54812,-4.22769 2.078,-6.92592c1.52984,-2.69823 2.74564,-4.08665 5.02923,-5.60919c2.28358,-1.52255 2.83219,-1.53971 4.93812,-1.84511c2.10593,-0.3054 3.1626,-0.20121 5.13598,0.38419c1.97338,0.58539 3.40696,0.84456 5.24079,2.13651c1.83382,1.29192 2.77073,2.41185 4.27353,4.52507c1.50283,2.11319 1.91216,3.06119 2.45725,5.27373c0.54509,2.21256 0.20901,5.54885 0.20901,5.54885c0,0 1.9208,-0.66334 3.17461,-0.56003c1.25382,0.10332 5.10563,1.24237 5.10563,1.24237c0,0 2.07797,1.01273 2.86562,2.17496c0.78766,1.16222 1.21123,3.84055 1.21123,3.84055c0,0 2.81798,1.61757 3.6991,3.3564z" fill="none" stroke="#000000" stroke-width="2" stroke-linecap="round"></path><path d="M338.90403,201.56142c0,0 -0.79726,0.45692 -1.67622,2.00273c-0.87898,1.5458 -0.99992,2.38317 -1.86781,3.83883c-0.86788,1.45562 -1.60591,2.83861 -2.61245,3.43237c-1.00658,0.59374 -3.51203,-0.05447 -3.51203,-0.05447" fill="none" stroke="#000000" stroke-width="2" stroke-linecap="round"></path><path d="M336.53966,215.94006c0,0 0.8471,-0.71142 1.4165,-1.13738c0.57363,-0.42916 1.87518,-2.82417 3.12531,-3.75944c1.47812,-1.10582 3.09482,-0.9893 3.09482,-0.9893c0,0 -1.96257,2.63656 -2.82018,4.79419c-0.85761,2.15763 -0.219,2.85202 -0.219,2.85202z" fill="#000000" stroke="#000000" stroke-width="0" stroke-linecap="butt"></path><path d="M332.64233,186.26339c0,0 0.45646,0.99142 0.48521,1.66919c0.02874,0.67777 0.0769,1.64101 -0.30001,2.69614c-0.37692,1.0551 -1.18044,2.41416 -2.11169,3.85459c-0.93126,1.44045 -1.23968,1.84919 -2.18079,2.69034c-0.94111,0.84113 -1.87953,1.60921 -2.96015,1.66851c-1.08063,0.05929 -3.34137,-0.7343 -3.34137,-0.7343" fill="none" stroke="#000000" stroke-width="2" stroke-linecap="round"></path><path d="M332.25217,181.10731c0,0 -0.20732,2.97009 -0.86126,4.72785c-0.65395,1.75776 -1.32526,2.94631 -2.67218,5.05291c-1.3469,2.10658 -1.58469,2.19747 -2.53701,3.09433c-0.95233,0.89689 -3.64188,3.01968 -3.64188,3.01968" fill="none" stroke="#000000" stroke-width="2" stroke-linecap="round"></path><path d="M328.74255,173.46419c0,0 0.80986,2.88186 0.84057,4.91387c0.03073,2.03202 -0.15451,2.6489 -0.70214,4.24183c-0.54765,1.59294 -1.19684,3.08429 -2.40553,4.79748c-1.20871,1.7132 -2.28083,2.9387 -4.15413,4.5194c-1.87329,1.58073 -2.83361,1.69876 -4.28494,2.05573c-1.45134,0.35695 -6.09362,0.57942 -6.09362,0.57942" fill="none" stroke="#000000" stroke-width="1.5" stroke-linecap="round"></path><path d="M308.67473,191.81861c0,0 -0.85459,-2.62832 -1.1074,-4.44709c-0.2528,-1.81875 -0.46346,-3.14515 -0.40556,-5.11608c0.05788,-1.97092 0.02795,-3.36326 0.79423,-5.26119c0.76627,-1.8979 1.35864,-2.85601 2.93864,-4.44032c1.58002,-1.58429 2.42514,-2.13913 3.97758,-2.70255c1.55242,-0.56341 2.88828,-0.59143 4.8337,-0.65999c1.94544,-0.06857 5.26347,0.49558 5.26347,0.49558" fill="none" stroke="#000000" stroke-width="1.5" stroke-linecap="round"></path><path d="M310.47866,174.27613l1.71527,-0.42186l4.87508,0.24146l5.93176,0.75439l4.59248,1.61479l4.30829,3.72974" fill="none" stroke="#000000" stroke-width="1.5" stroke-linecap="round"></path><path d="M306.38248,173.6959c0,0 2.07687,1.08962 3.4123,1.98917c1.33542,0.89952 1.19401,0.91824 1.89335,1.58466c0.69932,0.66643 2.76568,2.74265 4.51331,4.52053c1.74761,1.77784 3.62901,3.53917 5.78688,5.95794c2.15787,2.41877 4.24416,5.28593 4.24416,5.28593" fill="none" stroke="#000000" stroke-width="1.5" stroke-linecap="round"></path><path d="M316.9614,167.56635c0,0 1.96021,1.95889 2.61838,3.67749c0.65817,1.71861 0.58826,2.63214 0.45272,4.34157c-0.13555,1.70945 -0.41392,2.83049 -1.15254,4.48405c-0.7386,1.65357 -1.14684,2.37401 -2.39048,3.44791c-1.24363,1.07391 -2.18272,1.82459 -4.01434,2.40741c-1.83165,0.5828 -2.54564,0.51625 -3.91848,0.11673c-1.37283,-0.39952 -4.71576,-2.35522 -4.71576,-2.35522" fill="none" stroke="#000000" stroke-width="1.5" stroke-linecap="round"></path><path d="M307.70059,171.93153c0.72239,-0.75082 2.72425,-0.82048 3.62266,-0.29199c0.89841,0.52849 1.26339,1.01233 1.45481,1.96064c0.19143,0.9483 0.11977,2.15456 -0.37205,3.40359c-0.49186,1.24904 -0.85194,2.13094 -2.04851,2.74346c-1.19659,0.61251 -2.13583,0.55132 -3.368,0.02926c-1.23216,-0.52207 -2.37449,-2.07367 -2.11022,-3.26892" fill="none" stroke="#000000" stroke-width="1.5" stroke-linecap="round"></path><path d="M325.81885,209.10497c0,0 -3.55221,-2.20645 -5.88721,-3.51239c-2.335,-1.30594 -2.13863,-1.36131 -3.66796,-1.83166c-1.52934,-0.47034 -2.35904,-0.09511 -3.81678,-0.47022c-1.45772,-0.37511 -1.90607,-0.43965 -2.80598,-1.23404c-0.89993,-0.79439 -1.6493,-1.42339 -2.36479,-2.988c-0.71546,-1.56462 -0.74949,-2.19194 -0.47915,-3.23112c0.27035,-1.0392 1.74537,-3.12102 1.74537,-3.12102" fill="none" stroke="#000000" stroke-width="2" stroke-linecap="round"></path><path d="M352.90304,215.62691c-0.22516,0.40584 -0.54516,0.81175 -1.02892,1.29839c-0.50599,0.50902 -1.51567,1.66513 -2.41165,1.43935c-0.07429,-0.01871 -0.14578,-0.04383 -0.215,-0.07403l-0.01269,0.0387l-0.67817,-0.22202c-0.08933,-0.02698 -0.17481,-0.07205 -0.25087,-0.13571c-0.30164,-0.25245 -0.3415,-0.70164 -0.08904,-1.00328c0.0887,-0.10599 0.20171,-0.17968 0.32408,-0.21968l0.69485,-0.24072c2.2267,-1.20851 3.1593,-2.36094 2.90788,-4.96192c0,0 -0.06297,-0.70943 0.64646,-0.77237c0.70943,-0.06296 0.77238,0.64645 0.77238,0.64645c0.02046,0.24843 0.03668,0.55611 0.04282,0.88989c0.10135,0.23467 0.04233,0.48304 0.04233,0.48304l-0.04449,0.18049c-0.01882,0.72553 -0.09572,1.47171 -0.2811,1.95218c-0.09431,0.24448 -0.23884,0.47847 -0.41884,0.70125z" fill="#000000" stroke="none" stroke-width="0.5" stroke-linecap="butt"></path></g><g data-paper-data="{&quot;index&quot;:null}" stroke="none" stroke-linecap="butt"><path d="M232.67526,193.77701c-0.95334,-0.34107 -1.43713,-1.42554 -1.08054,-2.42221c0.35659,-0.99667 1.41847,-1.52815 2.37182,-1.18707c0.95334,0.34107 1.43713,1.42555 1.08056,2.42221c-0.35659,0.99667 -1.41849,1.52813 -2.37183,1.18706z" fill="#50526b" stroke-width="0"></path><path d="M222.10515,190.17239c-2.34003,-0.83719 -5.92882,-5.69289 -5.29318,-7.46959c0.63564,-1.77669 5.255,0.19844 7.59503,1.03562c2.34003,0.83719 9.63232,6.72085 9.63232,6.72085c0,0 -1.89908,1.55742 -3.90571,1.6094c-2.98452,0.0773 -6.62922,-1.39567 -8.02846,-1.89627z" fill="#333240" stroke-width="0"></path><path d="M195.37375,206.2342c-0.38996,-0.13952 -14.09821,-12.29792 -13.90758,-13.22853c0.05407,-0.26388 0.91842,-2.47279 2.22352,-1.74913c4.06939,2.25641 12.30587,10.33713 12.65933,9.20354c0.82148,-2.63463 1.52875,-5.34798 1.81545,-6.14934c0.58913,-1.64669 2.40162,-2.504 4.0483,-1.91487c1.64669,0.58913 2.504,2.40161 1.91488,4.0483c-0.58913,1.64669 -7.10721,10.37916 -8.7539,9.79003z" fill="#323232" stroke-width="0"></path><path d="M196.31035,204.53933c-0.55499,-0.44019 -0.06749,-2.26851 1.08886,-4.08363c1.15635,-1.81512 2.54366,-2.92972 3.09866,-2.48953c0.55499,0.44019 0.06748,2.26851 -1.08886,4.08363c-1.15635,1.81512 -2.54366,2.92972 -3.09865,2.48954z" fill="#50526b" stroke-width="0"></path><path d="M185.69228,183.65321c-2.88893,-1.03356 8.11701,-12.79262 8.90251,-14.98821c0.78551,-2.19559 12.66656,9.25199 15.55549,10.28555c2.88893,1.03356 24.44655,15.12014 23.66104,17.31573c-0.19346,0.54075 -3.97856,7.61021 -6.46818,7.15247c-1.52228,-0.27989 -2.74929,-1.74528 -4.56966,-2.69787c-0.50562,-0.2646 -0.82621,0.63851 -1.39784,1.32625c-0.75393,0.90707 -1.76783,1.67728 -2.4677,1.25596c-0.94508,-0.56895 -1.46449,-1.46555 -2.39454,-2.23887c-0.50458,-0.41954 -1.43631,2.64476 -1.93601,2.18995c-1.63656,-1.48953 -4.49157,-4.57237 -8.72448,-7.48184c-8.27574,-5.68826 -19.41295,-11.85163 -20.16064,-12.11913z" fill="#485e85" stroke-width="0"></path><path d="M182.86857,167.30197c-0.95334,-0.34107 5.29595,-3.09324 5.58535,-3.90214c0.2894,-0.8089 1.29684,-1.18814 2.25018,-0.84706c0.95334,0.34107 5.13018,3.63715 4.84078,4.44605c-0.2894,0.8089 -11.72298,0.64424 -12.67632,0.30316z" fill="#323232" stroke-width="0"></path><path d="M218.50105,202.11755c0,0 3.18102,-0.52793 0.42162,-3.00119c-2.94208,-2.63701 -8.44546,-6.12935 -13.34457,-9.43319c-4.14304,-2.79396 -6.85063,-4.95898 -9.51999,-6.50236c-1.3663,-0.78999 -7.43805,-1.95685 -7.92285,-0.7782c-0.26357,0.64078 2.82669,2.05481 4.05694,3.09236c1.23465,1.04126 0.60978,1.70495 0.60978,1.70495c0,0 -10.10646,-4.69314 -11.31444,-7.12853c-1.54357,-3.11194 5.87161,-4.08235 7.55707,-3.47935c0.76006,0.27192 3.86537,-8.25974 7.00935,-5.744c1.71773,1.3745 2.83515,4.82649 2.35813,7.78076c-0.22847,1.41495 -1.16927,0.98091 -1.20409,1.97583c-0.02808,0.80237 0.91299,1.44625 1.12702,1.5854c10.14851,6.59837 24.68787,16.854 24.04208,18.65908c-0.94054,2.62893 -3.87604,1.26847 -3.87604,1.26847z" fill="#333947" stroke-width="0"></path><path d="M194.22137,168.05937c0,0 2.37554,0.87017 5.20303,2.65996c8.87139,5.61559 27.94942,18.16942 32.59203,21.52646c2.29197,1.65731 1.37637,3.87073 1.37637,3.87073l-3.04157,-0.73415l-8.87413,3.4434l-6.86437,-4.84316l8.73819,-4.08051l-2.66086,-1.62781c0,0 -1.80649,1.02075 -2.95795,1.56076c-1.53226,0.71858 -5.42404,2.37017 -5.42404,2.37017l-2.3854,-1.75086c0,0 3.73319,-1.74063 5.29404,-2.43333c1.19525,-0.53044 3.27041,-1.36753 3.27041,-1.36753c0,0 -1.76755,-1.33586 -4.25883,-3.03915c-4.322,-2.95495 -10.74699,-7.22609 -13.35915,-9.05858c-2.23773,-1.56984 -5.10583,-3.84362 -5.10583,-3.84362z" fill="#93c4c9" stroke-width="0"></path><path d="M169.25746,199.64029c-3.46672,-1.24028 -11.60744,-11.09557 -10.55321,-14.04228c0.22862,-0.63903 1.89505,-5.2766 4.87351,-9.16983c2.24721,-2.9374 5.69195,-5.28982 7.2892,-6.09033c1.81964,-0.91198 6.04627,-0.09236 8.05913,-0.92808c1.71463,-0.71189 3.29938,-0.70364 4.86722,-1.2555c1.62816,-0.57311 3.22197,-2.69245 4.52994,-3.15084c0.86825,-0.30431 1.89741,0.24397 2.27686,0.37972c1.23073,0.44032 6.30017,4.98327 4.42466,7.22057c-1.39858,1.66836 -3.10359,4.73538 -6.08391,6.00775c-2.12865,0.90877 -6.13233,-0.64191 -8.12223,-0.31571c-0.75088,0.12309 2.59341,2.45867 2.53666,3.15372c-0.09532,1.16727 16.49385,16.46438 16.36753,16.81747c-0.13766,0.38478 -2.95083,4.60788 -4.51344,3.46909c-1.05795,-0.77101 -3.035,-2.13756 -4.21065,-3.74029c-2.73911,-3.73419 -4.86815,-8.52085 -7.68076,-8.39982c-7.85194,0.33789 -12.06706,10.75758 -14.06053,10.04439z" fill="#00e48d" stroke-width="0"></path><path d="M181.62172,197.17519c-0.4719,-0.16884 -4.91173,5.29058 -6.28261,4.34268c-1.01407,-0.70119 -5.40436,-1.1305 -7.63405,-3.00919c-2.26582,-1.90913 -2.44914,-3.46482 -2.97903,-5.26717c-0.40174,-1.36647 0.50819,-5.25182 1.86944,-7.15178c1.05575,-1.47357 2.54802,-2.92845 4.09216,-3.41798c0.59855,-0.18977 1.36399,-0.13332 1.97266,0.06554c0.67994,0.22217 1.33973,1.02134 1.95922,1.36002c1.13819,0.62228 1.83168,0.71354 1.83168,0.71354c0,0 -4.15878,-3.9034 -1.23182,-6.55067c1.28562,-1.16277 3.62148,-0.1703 5.62391,1.20853c0.3397,0.2339 0.31578,-1.69809 0.62949,-1.4505c0.05302,0.04185 2.32801,0.28971 2.32801,0.28971c0,0 -0.44563,-0.74402 -0.39866,-1.34767c0.10389,-1.33538 1.10697,-3.41927 1.74675,-3.71979c0.84808,-0.39838 1.57785,-1.48778 2.30262,-2.4541c1.25933,-1.67908 2.6749,-3.06965 5.24102,-1.81024c4.15504,2.03923 1.46062,5.5654 -1.05552,7.70247c-1.36089,1.15584 -2.78697,1.81329 -2.78211,1.81873c0.23025,0.25878 -4.2549,-0.08594 -6.05991,0.22701c-0.71121,0.12331 -0.05576,0.86823 0.03053,1.00669c0.72589,1.16457 1.35688,2.42921 1.65212,2.53483c0.88608,0.31702 2.88134,1.84892 5.39598,3.36908c2.91254,1.76066 6.44674,3.64791 8.56283,5.88527c1.88257,1.99046 1.87472,4.57498 1.55609,5.46558c-0.22466,0.62793 -2.66919,3.75199 -7.03355,1.64886c-4.24246,-2.04438 -7.98655,-7.25701 -9.24414,-7.06843c-0.87055,0.13054 -1.20065,5.92828 -2.09309,5.60899z" fill="#00ff9d" stroke-width="0"></path><path d="M175.82498,175.51448l-0.0636,0.05216l-0.19169,-0.23378c-0.05598,-0.06588 -0.07619,-0.15902 -0.04496,-0.24627c0.03615,-0.10103 0.13064,-0.16444 0.23197,-0.16583l0.26273,-0.00971c1.16929,-0.21999 2.1689,0.472 3.09247,1.12963c0.20988,0.04045 0.36155,0.15946 0.36155,0.15946c0.17073,0.13397 0.33912,0.27067 0.5055,0.40975c1.37021,0.67006 3.34952,1.47258 5.38353,1.4918c2.34285,0.02213 4.66437,-0.79721 4.66437,-0.79721l1.05275,-0.63116c0,0 1.45136,-1.32576 1.97554,-2.30339c0.60066,-0.89989 1.46002,-2.06183 1.59743,-3.17984c0.25948,-2.11125 -3.94685,-5.60548 -5.88225,-5.50498c-1.18433,0.06151 -2.86396,2.3062 -4.04199,2.85444c-1.41418,0.28202 -2.59039,1.03334 -4.05976,1.21262c-4.52183,0.55167 -8.46797,0.11505 -12.4534,2.56853c-4.54463,3.71905 -6.36467,7.7931 -8.38533,13.19568l0.15119,0.32078c0.19189,0.55813 0.41079,1.10798 0.66036,1.6428c0.58651,2.94101 2.3224,5.00927 4.17819,7.21898c0.83529,0.99459 1.42638,2.66561 2.53143,3.40061c1.30233,0.86622 3.54159,1.08445 5.03748,1.62432c3.51141,2.00211 4.85047,0.63716 7.17256,-1.9428c0.49577,-0.55083 1.45924,-0.81715 1.83301,-1.38516c1.22172,-1.8567 0.33921,-6.4356 3.20278,-4.96892c2.48174,3.02664 6.2909,4.85526 8.77064,7.87186c1.06788,1.29908 2.22692,2.79469 3.66834,1.38716c0.49398,-0.62596 1.1847,-1.06874 1.49794,-1.80427c1.10966,-2.60566 0.74352,-4.73579 -0.42282,-6.50219c-0.10149,-0.0654 -0.32131,-0.23604 -0.3667,-0.51073c-1.45061,-1.86769 -3.79113,-3.30757 -6.11921,-4.46891c-1.57185,-0.94371 -3.21625,-1.63746 -4.74658,-2.62347c-2.84389,-1.83232 -4.95147,-4.5068 -7.49011,-6.70197c-1.17203,-0.67568 -2.79911,-1.61742 -3.5634,-2.55996zM195.85281,175.33225c1.28282,-1.28216 3.42341,-2.0812 5.02932,-3.02992c-1.88053,-1.16015 -3.59745,-1.97723 -5.20699,-3.30586l-0.05666,0.11209l-0.0439,-0.02219c0.40877,0.78495 0.62818,1.56897 0.56859,2.27098c-0.11311,1.33252 -1.09508,2.72642 -1.80822,3.79485c-0.21288,0.37045 -0.44346,0.71457 -0.68988,1.03342c0.71799,-0.33375 1.44981,-0.63602 2.20776,-0.85338zM201.34592,172.60635c-1.66608,1.02518 -3.81611,1.83995 -5.23959,3.15685c-1.18356,0.3872 -2.28818,0.91876 -3.39929,1.45001c-0.10714,0.09931 -0.21627,0.19516 -0.32727,0.28759c1.15662,0.67899 2.37476,1.37581 3.58647,2.10223c1.43908,-0.71059 2.9875,-1.70515 4.47328,-2.16464c1.72944,-0.81991 3.66659,-1.15184 5.51582,-1.67258c-1.5124,-1.11263 -3.05866,-2.19076 -4.5991,-3.1666c-0.00643,0.0047 -0.01036,0.00711 -0.01036,0.00711zM200.62073,177.90441c-1.37682,0.42578 -2.80303,1.31282 -4.14919,2.00366c1.95185,1.18684 3.8623,2.45523 5.44513,3.85494c5.24232,2.89762 9.19244,7.55469 14.55569,10.34472c0,0 0.02258,0.01192 0.05723,0.03553c0.03569,0.02201 0.05578,0.03778 0.05578,0.03778l0.72793,0.57161c2.39549,2.11665 4.89865,4.02303 7.40268,5.9806c0.47998,0.37523 2.46518,2.43621 3.07454,2.23818c0.2966,-0.0964 1.08074,-1.32382 1.30604,-1.57858c1.28983,-1.45463 2.57014,-3.15295 3.37963,-4.93318c0.10297,-0.22645 0.71849,-1.47735 0.55402,-1.75216c-1.25791,-2.1017 -5.22312,-3.88227 -7.17918,-5.41825c-4.71947,-4.22132 -10.78553,-7.06672 -16.04051,-10.5771c-1.08323,-0.85347 -2.20611,-1.72122 -3.3512,-2.57336c-1.94483,0.56944 -4.00975,0.9025 -5.8386,1.76564zM212.15824,197.45027l-0.15486,0.01868l-0.03511,-0.291c-0.00553,-0.03887 -0.00195,-0.07963 0.0122,-0.11916c0.04651,-0.13001 0.1896,-0.19768 0.3196,-0.15118c0.02154,0.0077 0.04136,0.01807 0.05925,0.03056l0.20476,0.13668c0.2825,0.10133 0.5157,0.24668 0.76386,0.41489c0.66357,0.2374 1.58221,1.03471 2.3902,1.74725c0.86518,0.76296 1.60026,1.43794 1.65613,1.51312c0.08937,0.12024 0.41189,0.20873 0.36849,0.27098c-0.00119,0.01913 -0.00505,0.03927 -0.01239,0.06038c0.54295,0.45373 0.94134,1.16296 1.63008,1.36656c0.51448,0.15207 1.84294,-1.03879 2.82483,-1.78684c-1.96263,-1.55702 -3.94014,-3.08157 -5.83214,-4.75617l-0.64226,-0.50358c-5.35827,-2.87873 -9.40366,-7.4584 -14.66131,-10.41447c-2.84542,-2.51626 -6.75569,-4.602 -10.04652,-6.55707c-2.45228,1.32148 -5.48125,1.40758 -8.2933,0.74067c1.5743,1.57284 3.1302,3.16383 5.01075,4.36449c1.49486,0.95442 3.09508,1.62928 4.62956,2.5517c2.5543,1.30573 5.10243,2.97857 6.70939,5.09945l0.17372,0.09064c5.11979,1.8317 9.0742,5.10187 13.02066,8.70172c0.43907,0.49207 1.6169,2.42349 2.45162,2.35563c0.44836,-0.03647 0.78998,-0.71551 1.13511,-1.17812c-1.11327,-0.98269 -3.24374,-2.50709 -3.68232,-3.70579zM183.73497,194.61076c1.64809,1.15615 3.25982,2.66123 4.5168,4.27777c0.15027,0.06707 0.2463,0.16021 0.2463,0.16021l0.60796,0.59145c1.75034,2.13463 4.26696,3.34015 6.26037,5.16264c1.17023,1.94237 2.14809,-0.54435 2.98184,-1.71867c1.81727,-2.55961 3.68888,-5.31573 5.72369,-7.73563c-1.20556,-0.77253 -2.4679,-1.46561 -3.81515,-2.05305c0.69467,1.79459 0.70476,3.85217 -0.35715,6.20629c-0.42363,0.9391 -1.13683,1.40234 -1.75232,2.19152c-0.95581,0.90244 -1.73483,1.60653 -3.14078,1.03459c-1.39418,-0.56714 -2.2502,-2.07407 -3.27175,-3.06164c-2.52595,-2.44194 -5.78469,-4.32462 -8.06724,-7.01755c0.00799,0.33911 -0.06376,0.97782 -0.18513,1.68052zM187.46234,200.33917c-1.13742,-1.61425 -2.72876,-3.16435 -4.3486,-4.33043c-0.15232,0.55076 -0.32277,1.01441 -0.49349,1.25111c-0.36208,0.502 -1.03672,0.67738 -1.5373,1.04139c-0.85215,0.61968 -1.2064,1.78527 -1.88693,2.51729c-2.02298,2.17606 -5.13095,1.52734 -7.42761,0.27115c-1.61104,-0.57055 -3.8702,-0.8199 -5.28137,-1.76396c-1.25868,-0.84204 -1.88254,-2.55348 -2.82682,-3.67504c-1.9644,-2.33321 -3.82393,-4.59559 -4.44301,-7.69989c-0.16567,-0.34498 -0.31368,-0.69863 -0.44882,-1.05703c-0.39629,-0.17561 -0.41418,-0.65988 -0.41418,-0.65988l-0.00767,-0.34757l-0.08373,-0.17633c0,0 -0.29107,-0.61536 0.26766,-0.95087c1.96092,-5.56724 4.13374,-9.81642 8.81356,-13.65958c3.54692,-2.18941 6.97897,-2.30179 10.80881,-2.61092c0.09411,-0.16186 0.22235,-0.2572 0.22235,-0.2572l0.71413,-0.44087c3.66521,-0.70209 5.88766,-3.85453 8.9528,-5.48171l0.03333,-0.04248l-0.10578,-0.12899l0.6335,-0.51944c0.09539,-0.08104 0.20984,-0.1371 0.33215,-0.16288c0.31032,-0.30996 0.77191,-0.14481 0.77191,-0.14481c2.63211,0.94884 4.51715,2.28864 6.0968,4.60424c0.32495,0.47633 1.5008,1.497 0.88221,2.2221c0.93465,0.27192 1.89235,1.26874 2.71178,1.82282c3.72433,2.51825 7.70571,4.73438 11.29251,7.53802c1.26236,0.84189 2.56452,1.64716 3.88082,2.44228c0.10073,0.01249 0.16823,0.03665 0.16823,0.03665l0.67254,0.24062c3.34456,1.19656 6.844,2.27857 10.32872,2.93664c2.60412,1.41738 4.46253,3.69778 6.96153,5.08076c0.75465,0.41764 3.04073,1.14064 3.3965,1.89279c0.5728,1.21101 -0.88488,3.1855 -1.56002,4.05013c0,0 -0.02829,0.03603 -0.07977,0.08332c0.77934,2.44645 -2.8516,6.55338 -4.23884,8.12594c-0.49238,0.55679 -1.40069,1.88823 -2.117,2.05196c-1.17502,0.26856 -2.95829,-1.36989 -3.75855,-2.03294c-0.3242,-0.2686 -0.64984,-0.53442 -0.97647,-0.79831c-1.46671,0.71322 -2.62841,2.63813 -4.34796,2.30175c-0.73043,-0.14289 -1.11853,-0.6716 -1.61732,-1.12813c-0.21499,-0.19677 -0.3939,-0.78867 -0.62517,-0.61128c-0.63915,0.49022 -0.76024,1.5658 -1.95477,1.66003c-1.57919,0.12457 -2.75762,-1.80926 -3.63546,-2.79593c-1.91154,-1.73537 -3.81564,-3.39626 -5.86361,-4.84171c-2.64299,3.15108 -4.51514,6.97454 -7.35141,9.96707c-1.3842,1.46046 -2.739,1.22523 -3.7607,-0.39848c-1.98455,-1.79332 -4.45504,-2.97317 -6.19779,-5.09014c-0.33845,-0.03025 -0.55169,-0.33119 -0.55169,-0.33119zM234.74299,190.76849c-0.07461,-0.15775 -2.43573,-1.03578 -2.77114,-1.22413c-2.42773,-1.36329 -4.2567,-3.55085 -6.73622,-4.97846c-1.64776,-0.28109 -3.30696,-0.68819 -4.9506,-1.16539c2.29265,1.44389 4.51458,2.97467 6.52633,4.73638c1.61997,1.2702 5.09994,2.95409 6.79486,4.79392c0.46672,-0.61791 1.3057,-1.80519 1.13679,-2.1623zM187.87115,164.35624c-0.05353,0.03827 -0.10785,0.07618 -0.16246,0.11379c0.06369,-0.03143 0.12814,-0.06076 0.1934,-0.08775c-0.01049,-0.00868 -0.0208,-0.01734 -0.03093,-0.02602zM189.1078,163.38005c-0.57809,0.08609 0.04701,0.0615 0.60708,0.36982c1.36416,0.71971 2.78929,1.42251 4.10035,2.23374c0.03288,0.02036 0.18695,0.15789 0.38279,0.34149c-0.23463,-0.39756 -0.46088,-0.80857 -0.7577,-1.09408c-1.17094,-1.12631 -2.42291,-1.82932 -3.91016,-2.38868l-0.40848,0.52057l-0.00718,-0.00563zM184.25737,167.11534c0.63841,-0.30812 1.20362,-0.83832 1.77334,-1.36422c-0.6143,0.48668 -1.23579,0.95498 -1.87584,1.38567c0.034,-0.00745 0.06817,-0.0146 0.10249,-0.02144z" fill="#000000" stroke-width="0.5"></path><path d="M175.53805,182.67896l5.18548,6.71036l-7.34864,-4.90496c0,0 0.47241,-0.96977 0.85129,-1.28601c0.33733,-0.28154 1.31186,-0.5194 1.31186,-0.5194z" fill="#000000" stroke-width="0"></path></g></g></g></svg>