<svg version="1.1" xmlns="http://www.w3.org/2000/svg" xmlns:xlink="http://www.w3.org/1999/xlink" width="194.99038" height="121.17156" viewBox="0,0,194.99038,121.17156"><g transform="translate(-170.01974,-119.37327)"><g data-paper-data="{&quot;isPaintingLayer&quot;:true}" fill-rule="nonzero" stroke-linejoin="miter" stroke-miterlimit="10" stroke-dasharray="" stroke-dashoffset="0" style="mix-blend-mode: normal"><g stroke-linecap="butt"><path d="M230.98508,135.05754c0.9194,0.40366 14.88115,4.10766 11.6208,15.72893c-2.32985,8.30448 -10.6882,17.39387 -15.30756,28.48377c-5.49363,13.18884 -7.60396,28.1838 -14.56246,33.78283c-4.46208,3.59035 -18.52476,-4.76612 -19.40221,-5.13497c-5.91761,-2.48755 -12.28307,-4.98577 -12.54459,-9.07404c-0.2897,-4.5289 10.01679,-30.22193 19.25807,-48.27819c4.15302,-8.11443 7.52624,-14.39009 9.95142,-17.40334c0.34676,-0.43086 2.21158,-1.59474 5.35377,-1.57922c5.25789,0.02599 12.61993,2.15147 15.63273,3.47421z" fill="#00e48d" stroke="none" stroke-width="0"></path><path d="M212.98868,130.95717c1.1738,-2.59325 10.46495,0.68587 15.80269,2.96694c0.29948,0.12799 1.45917,11.64243 -4.54332,22.8592c-2.83898,5.30515 -27.84085,36.98309 -31.45089,41.98874c-11.0959,15.38547 -8.2228,-2.71331 -10.95616,-1.65556c-3.60901,1.39661 1.81859,-20.80111 10.29376,-37.41667c4.98082,-9.76489 20.41232,-27.76706 20.85392,-28.74262z" fill="#00ff9d" stroke="none" stroke-width="0"></path><path d="M230.54972,134.87149c0.9194,0.40366 14.88115,4.10766 11.6208,15.72893c-2.17939,7.76817 -11.21815,16.99749 -15.43327,27.41336c-5.64995,13.9615 -7.10038,28.95019 -14.43675,34.85326c-4.46208,3.59035 -18.52477,-4.76609 -19.40224,-5.13495c-5.91761,-2.48755 -12.28307,-4.98577 -12.54459,-9.07404c-0.1467,-2.29335 2.36977,-20.19418 9.50273,-35.86223c6.95311,-15.27307 18.50965,-28.3319 19.70677,-29.81929c0.34676,-0.43086 2.21158,-1.59474 5.35377,-1.57922c5.25789,0.02599 12.61993,2.15146 15.63274,3.47421z" fill="none" stroke="#000000" stroke-width="3"></path></g><path d="M292.39762,196.5966c-0.02293,0.49889 2.95969,5.73981 4.28856,11.80288c1.79146,8.17367 1.74363,17.84152 -1.71388,19.39953c-8.64512,3.89565 -19.32484,3.16843 -21.2333,3.32227c-2.43803,0.19653 -9.60378,0.92947 -12.03038,-2.83708c-1.1087,-1.72091 0.86522,-4.45116 0.7756,-7.33573c-0.11653,-3.75069 -2.07938,-7.76225 -1.99031,-10.15505c0.09044,-2.4291 -7.77047,-2.25451 -7.77047,-2.25451l-7.20659,1.29133c0,0 -19.60734,18.78925 -23.08586,23.23433c-4.04424,5.16803 -10.43493,5.71244 -13.83533,5.98026c-6.52454,0.51389 -13.51959,-1.46233 -16.49169,-3.91536c-0.94888,-0.78316 -2.94111,-2.63687 -3.88172,-6.34827c-0.67375,-2.65846 28.32415,-76.84722 28.95095,-79.46097c0.85536,-3.56696 15.96984,-18.38829 33.13832,-25.40791c10.89941,-4.45642 22.62669,-2.62956 32.05894,-2.8506c18.046,-0.42292 20.47474,25.06554 20.6739,28.03605c1.18876,17.73119 -10.13699,36.40754 -10.64674,47.49882z" fill="#00e48d" stroke="none" stroke-width="0" stroke-linecap="round"></path><g stroke-linecap="round"><path d="M292.43103,192.2481c0.86261,8.5896 6.40295,16.54729 6.02374,24.79818c-0.01951,0.42462 -0.68022,9.33531 -5.02043,11.41538c-3.17481,1.52155 -15.35819,0.40655 -16.15885,-0.2907c-1.34002,-1.16695 -1.85358,-25.25643 -1.85358,-25.25643c0,0 -19.78183,3.3044 -29.45245,-14.67222c-1.91191,-3.55402 -2.77993,-7.02532 -2.20574,-10.70979c0.34443,-2.2102 3.27596,-5.8309 4.16652,-13.04276c1.02892,-8.33248 0.01293,-20.35821 0.13228,-22.73059c0.12961,-2.57632 0.1688,-7.10291 3.05981,-11.10877c3.09682,-4.29105 9.06701,-7.98457 9.46399,-8.04333c5.12945,-0.75915 10.87841,-1.32558 12.11409,-1.0879c2.65694,0.51104 14.35409,-1.18101 18.80713,1.64434c8.24937,5.23399 10.74757,17.36665 11.42872,19.12143c0.4359,1.12298 -0.1773,24.88041 -1.61545,29.17492c-1.63051,4.86897 -9.69662,12.75386 -8.88977,20.78823z" fill="#00ff9d" stroke="none" stroke-width="0"></path><path d="M292.39762,196.5966c-0.02293,0.49889 2.95969,5.73981 4.28856,11.80288c1.79146,8.17367 1.74363,17.84152 -1.71388,19.39953c-8.64512,3.89565 -19.32484,3.16843 -21.2333,3.32227c-2.43803,0.19653 -9.60378,0.92947 -12.03038,-2.83708c-1.1087,-1.72091 0.86522,-4.45116 0.7756,-7.33573c-0.11653,-3.75069 -2.07938,-7.76225 -1.99031,-10.15505c0.09044,-2.4291 -7.77047,-2.25451 -7.77047,-2.25451l-7.20659,1.29133c0,0 -19.60734,18.78925 -23.08586,23.23433c-4.04424,5.16803 -10.43493,5.71244 -13.83533,5.98026c-6.52454,0.51389 -13.51959,-1.46233 -16.49169,-3.91536c-0.94888,-0.78316 -2.94111,-2.63687 -3.88172,-6.34827c-0.67375,-2.65846 28.32415,-76.84722 28.95095,-79.46097c0.85538,-3.56695 15.96984,-18.38829 33.13832,-25.40793c10.89943,-4.45642 22.62669,-2.62954 32.05894,-2.8506c18.046,-0.42292 20.47474,25.06552 20.6739,28.03605c1.18876,17.73119 -10.13698,36.40754 -10.64674,47.49882z" fill="none" stroke="#000000" stroke-width="3"></path></g><g stroke="#000000" stroke-width="3.5" stroke-linecap="butt"><path d="M234.99749,132.95887c0.71685,-2.33779 3.41778,-5.3424 10.86559,-8.22647c7.00265,-2.71169 13.00926,-1.66426 14.43845,-2.13398c0.83997,-0.27607 2.71837,1.11868 3.8398,2.69016c0.5717,0.80113 1.13256,1.58709 1.523,2.13421c0.96742,1.35567 2.73035,3.71348 0.79889,4.34826c-1.92315,0.63207 -7.29461,0.15411 -15.13734,2.36368c-7.05725,1.98828 -13.65116,5.72595 -14.57143,4.43634c-0.81636,-1.14399 -2.4738,-3.2744 -1.75696,-5.61219z" fill="#4f5357"></path><path d="M282.30216,134.00993c-1.62162,3.77116 -7.63499,4.78433 -13.43124,2.26296c-5.79624,-2.52137 -9.18043,-7.62246 -7.55882,-11.39363c1.62161,-3.77117 7.63499,-4.78433 13.43123,-2.26297c5.79625,2.52136 9.18045,7.62246 7.55882,11.39363z" fill="#75756c"></path><g><path d="M283.31418,130.5012c-1.19003,2.63687 -6.73996,2.88368 -12.39613,0.55129c-5.65615,-2.33239 -9.27666,-6.36078 -8.08662,-8.99765c1.19003,-2.63687 6.73995,-2.88369 12.39611,-0.55129c5.65615,2.3324 9.27666,6.36079 8.08664,8.99765z" fill="#533023"></path><path d="M267.34248,127.54516l5.89985,-5.69862c0,0 1.74906,0.50349 2.54236,1.01911c0.83433,0.54229 4.03028,2.85286 4.03028,2.85286l-7.08178,4.63042z" fill="#b08a80"></path></g><path d="M297.39478,155.26863c-1.12829,0.6017 -1.3191,-6.02538 -4.22365,-10.99968c-3.22783,-5.52794 5.0185,-10.51431 7.54305,-4.9821c2.68504,5.88389 1.09763,10.06065 0.35909,12.29008c-0.73855,2.22944 -2.67761,3.15795 -3.67849,3.6917z" data-paper-data="{&quot;index&quot;:null}" fill="#4f5357"></path><path d="M296.52769,132.55296c4.76605,3.86642 6.17533,9.46066 3.14771,12.49509c-3.02763,3.03443 -9.34567,2.35997 -14.11172,-1.50645c-4.76605,-3.86642 -6.17533,-9.46066 -3.14771,-12.49509c3.02763,-3.03443 9.34567,-2.35997 14.11172,1.50645z" fill="#75756c"></path><g><path d="M303.07907,142.86297c-2.05871,2.20874 -7.55437,0.96789 -12.27493,-2.77149c-4.72056,-3.73941 -6.87841,-8.5613 -4.81971,-10.77004c2.05871,-2.20873 7.55437,-0.9679 12.27493,2.77149c4.72057,3.73939 6.87841,8.56131 4.81971,10.77004z" fill="#533023"></path><path d="M288.5126,135.78057l7.69419,-3.88755c0,0 1.53393,0.94778 2.1318,1.65277c0.6288,0.74146 2.9579,3.80511 2.9579,3.80511l-8.48274,2.54986z" fill="#b08a80"></path></g></g><g><path d="M290.17395,154.71838c0.45746,0.33463 0.87434,0.68138 1.1677,1.03396c0.15005,0.18034 0.28203,0.38948 0.40538,0.61376c0.32371,0.34237 0.62411,0.68415 0.88191,1.0076c-0.02712,-0.09335 -0.05672,-0.18126 -0.09073,-0.26129c-0.36794,-0.86568 -1.31086,-1.77193 -2.36426,-2.39403zM293.44974,158.30291c2.78641,1.56764 3.73216,4.71776 3.7626,7.63546c0.00253,1.09208 0.96257,5.03463 -0.01763,5.78242c-0.69461,0.52991 -2.81439,0.24765 -3.67606,0.25022c-3.06699,0.04314 -6.16382,-0.43913 -9.2628,-0.43799c-3.10886,-0.01339 -6.22015,-0.21168 -9.36052,-0.21791c-3.14302,-0.01986 -6.22144,-0.58413 -9.34929,-0.72241c-2.96958,-0.61802 -6.41565,-1.44222 -8.64035,-3.59559c-2.3117,-2.24704 -1.453,-4.59899 -1.4967,-7.40886c0,0 0,-0.21721 0.22354,-0.21721c0.046,0 0.08254,0.0092 0.11156,0.02381l0.28344,-0.24132c1.23085,-0.57939 2.25072,-0.87294 3.3796,-1.63077c1.76535,-2.3056 5.66616,-2.97918 8.4082,-3.46302c2.14213,-1.27996 6.15268,-3.13592 8.66251,-3.15996c2.35106,0.00055 5.99512,0.5131 8.30325,1.64328l0.00924,-0.03375l0.42743,0.11045c0.09798,0.02306 0.17074,0.10883 0.17074,0.21112c0,0.01326 -0.00122,0.02624 -0.00356,0.03885c0.96535,0.12599 1.83967,0.32565 2.49458,0.64249c0.01649,0.00021 0.03297,0.00052 0.04945,0.00094c-0.01644,-0.03024 -0.02574,-0.0647 -0.02574,-0.10128c0,-0.11996 0.10009,-0.21721 0.22354,-0.21721c0.07837,0 0.14731,0.03918 0.18723,0.09848l0.19059,0.27457c2.27159,0.372 4.31036,2.54407 4.94513,4.73521z" fill="#6fddfe" stroke="none" stroke-width="0.5" stroke-linecap="butt"></path><path d="M256.25412,158.9414c0.00041,-0.01793 0.00976,-0.22201 0.22257,-0.22201c0.22258,0 0.22258,0.22326 0.22258,0.22326c0,3.36372 1.5896,4.04434 3.83174,6.21082c2.06828,2.07547 5.72215,2.66256 8.46119,3.34134c3.01489,0.23218 6.26193,0.69506 9.23077,1.2461c3.01167,0.56754 6.32452,0.41703 9.24703,1.15111c2.38352,0.61766 5.22565,0.37545 7.75016,0.33524c0.06442,-0.00326 0.12751,-0.00433 0.18877,-0.00262c0.14272,-0.00168 0.28436,-0.00261 0.42476,-0.00261h0.44516c0.12293,0 0.22258,0.09996 0.22258,0.22326c0,0.1233 -0.09965,0.22326 -0.22258,0.22326h-0.44516c-0.04035,0 -0.0808,0.00007 -0.12133,0.00021c-2.61503,0.61784 -5.68175,0.22306 -8.31521,0.22306c-3.07935,0 -6.18362,0.66959 -9.2125,0.66432c-0.87641,0.38342 -1.74139,0.04677 -2.63666,0.2246c-2.04138,0.40549 -4.54587,0.66582 -6.59704,0.67387c-3.07962,0.00025 -6.21085,0.43683 -9.27807,0.44631c-3.12852,0.00147 -6.15663,0.44592 -9.2879,0.44673c-0.99751,0.00006 -4.24867,0.77763 -5.00234,0.17626c-1.10182,-0.87917 0.05731,-2.5189 0.81405,-3.55205c-0.09536,-0.02522 -0.16567,-0.11232 -0.16567,-0.2159c0,-0.0467 0.0143,-0.09005 0.03874,-0.12589l0.24417,-0.36966l0.02786,0.01851c0.9005,-2.39395 2.99403,-5.19873 4.82659,-6.77352c0.78901,-1.49393 3.39749,-3.70419 4.90674,-4.49777l0.0763,-0.03981c0,0 0.04476,-0.02335 0.10273,-0.02645z" fill="#1c4ea5" stroke="none" stroke-width="0.5" stroke-linecap="butt"></path><path d="M244.90231,175.01029c0,0 -0.88368,-2.48341 2.45901,-7.16799c3.3427,-4.68457 3.73196,-5.08006 9.16541,-9.1229c5.43345,-4.04285 10.23825,-5.27728 14.08344,-6.29915c3.84519,-1.02187 9.24082,-1.53831 14.30698,0c5.06616,1.53831 5.39774,0.97885 9.16541,6.08193c3.76768,5.10308 3.3532,13.24993 3.3532,13.24993c0,0 -18.05966,0.83927 -23.24885,1.30327c-5.18919,0.464 -29.28461,1.95491 -29.28461,1.95491z" fill="none" stroke="#000000" stroke-width="2" stroke-linecap="round"></path><path d="M283.05819,154.43929c2.01649,0.16653 3.77831,0.69357 5.55544,1.99166c0.79843,1.0978 1.91706,3.40211 0.36536,4.64882c-0.73777,0.59276 -2.32998,0.1698 -3.1633,0.00786c-2.3629,-0.45919 -5.07334,-0.22581 -7.25834,-1.42145c-2.39881,-1.31263 -3.0333,-4.0531 -0.06213,-5.22414c1.40687,-0.5545 2.75866,-0.06173 4.18648,-0.06689c0,0 0.1695,0 0.37649,0.06414z" fill="#ffffff" stroke="none" stroke-width="0.5" stroke-linecap="butt"></path></g><g stroke="#000000" stroke-linecap="round"><path d="M243.57096,187.95452l5.2484,-1.10328l5.52649,6.57435l9.39072,-1.06733l3.06848,3.52203l10.4968,-2.20657l-7.58734,11.2846l-7.40225,3.05578l-4.63597,-4.56226l-6.18928,1.70621l-5.24644,-5.03199l-7.83936,0.93413c0,0 -5.80579,-6.05414 -7.04363,-10.22958c-1.23784,-4.17546 -0.91884,-16.62949 -0.91884,-16.62949l7.72056,9.25772z" data-paper-data="{&quot;index&quot;:null}" fill="#ffffff" stroke-width="2"></path><path d="M275.12937,194.59656l-12.51178,12.69593l1.31788,-14.43189l-12.54842,11.54565l-2.30685,-16.62567l-9.78532,12.72911l-7.83554,-22.79206" fill="none" stroke-width="1"></path></g><g data-paper-data="{&quot;index&quot;:null}"><path d="M339.10517,189.60423c0.49801,0.32881 0.23166,0.87787 0.21716,0.9068c-0.35834,3.61397 -1.08145,8.0217 -4.40902,10.12992c-0.75923,0.65633 -2.33361,2.02086 -3.06206,0.10349c-0.16464,-0.43334 0.38289,-0.84634 0.61802,-1.24582c0.58943,-1.00148 1.65684,-1.54542 2.33513,-2.45022c1.01598,-1.35526 1.28676,-3.08892 1.91972,-4.60994c0.46159,-1.10924 0.84442,-1.72808 0.96156,-2.93258c0,0 0.06895,-0.70887 0.77781,-0.63994c0.60755,0.05908 0.64374,0.58823 0.6417,0.7383z" fill="#323440" stroke="none" stroke-width="0.5" stroke-linecap="butt"></path><path d="M337.1207,198.74963l-0.13923,0.66473c-0.36774,0.13798 -0.71093,0.43353 -1.10323,0.4139c-1.33739,-0.06692 -2.87545,-2.00055 -1.07594,-3.0183c0.42647,-0.24122 1.44487,0.29655 1.99665,0.59334c0.09416,0.02572 0.17064,0.07042 0.2326,0.12397c0.05299,0.02906 0.61332,0.35466 0.30133,0.9577c-0.06193,0.11967 -0.13477,0.205 -0.2122,0.26468z" fill="#51626b" stroke="none" stroke-width="0.5" stroke-linecap="butt"></path><path d="M338.76708,192.99827c-0.02285,0.14214 -0.07109,0.26975 -0.17826,0.36357c-0.83719,0.73307 -2.08949,0.43409 -2.42821,-0.75262c-0.13509,-0.47332 0.6192,-1.32211 0.88944,-1.66968c0,0 0.38716,-0.49473 0.96136,-0.0854c0.14287,-0.01616 0.29699,0.01016 0.44045,0.08436c0.23445,0.12132 0.38087,0.33983 0.40356,0.56365l0.08474,0.70627l0.01432,0.32444c0,0 0.01087,0.28669 -0.18742,0.46536z" fill="#91aea7" stroke="none" stroke-width="0.5" stroke-linecap="butt"></path><path d="M316.39945,185.67843c-0.51266,-1.65776 -0.72978,-3.24969 -1.06312,-4.93126c-0.50392,-2.5423 -2.48594,-6.03494 0.74791,-7.73377c1.08953,-0.57234 3.327,-0.47578 4.52512,-0.3956c0,0 0.33448,0.02434 0.5277,0.2691c1.07925,-0.09004 2.1565,-0.34185 3.27207,-0.2781c3.05514,0.17459 6.70897,1.87708 8.80183,4.04422c5.19997,3.68263 5.40707,11.3677 2.67807,16.66035c-1.03287,1.99641 -2.32246,5.36032 -4.63283,6.30042c-0.18094,0.34895 -0.61039,0.4854 -0.95955,0.30474l-0.11596,-0.06c-0.30839,0.01818 -0.63242,-0.00474 -0.97333,-0.07495c-2.10356,-0.43316 -4.99262,-2.7826 -6.48457,-4.25714c-0.26286,-0.25981 -0.55828,-0.49162 -0.81893,-0.7258c-0.26496,-0.22807 -0.52327,-0.47643 -0.77434,-0.7527l-0.00795,-0.02076l-0.00552,0.00445l-0.82396,-1.02916c-0.17899,-0.21358 -0.22281,-0.5221 -0.08676,-0.78509c0.0196,-0.03787 0.04209,-0.07323 0.06714,-0.10594c-1.67616,-1.8062 -3.0496,-3.87853 -3.87309,-6.433z" fill="#4a5b80" stroke="none" stroke-width="0.5" stroke-linecap="butt"></path><path d="M333.57126,182.04739c0.63468,1.54883 -0.27693,3.9801 -2.56477,2.65524c-0.29637,-0.17164 -0.25226,-0.5893 -0.44485,-0.85639c-0.70723,-0.9807 -2.12928,-0.94121 -1.95411,-2.47623c0.23505,-2.05965 3.33753,-0.81255 4.56875,-0.17919c0,0 0.62699,0.32439 0.395,0.85661z" fill="#98c0bf" stroke="none" stroke-width="0.5" stroke-linecap="butt"></path><path d="M315.80378,173.32701c0.12514,-0.16383 0.42588,-0.44623 0.89337,-0.20436c0.63258,0.32726 0.30529,0.95984 0.30529,0.95984c-2.27258,4.35815 -0.77665,9.60566 1.07072,13.77966c2.12804,3.43661 4.44706,6.68871 7.98618,8.87335c1.06913,0.65993 2.13384,1.45326 3.26906,1.99575c0.39307,0.18784 0.97097,0.16293 1.19053,0.53919c0.27263,0.46719 0.04679,1.08081 0.07019,1.6212c-1.74843,0.80715 -3.96916,1.40128 -5.90214,1.50813c-1.19482,0.06605 -2.26925,-0.64496 -3.40073,-0.91119c-2.9028,-0.68296 -6.30999,-2.01935 -8.30321,-4.32116c-2.11437,-2.17357 -2.80588,-4.43649 -3.86306,-7.18898c-0.37316,-0.97155 -0.92572,-2.23191 -1.03001,-3.2827c-0.18283,-1.84224 1.458,-4.5416 2.27601,-6.12964c1.29373,-2.50055 2.9701,-4.35551 4.63687,-6.58202l0.12438,-0.26153c0,0 0.22985,-0.44426 0.67662,-0.39553z" fill="#313746" stroke="none" stroke-width="0.5" stroke-linecap="butt"></path><path d="M340.68288,185.94463c1.165,-0.35657 1.63996,0.61167 1.74417,0.87073c2.12816,1.64446 4.46151,3.47443 6.04093,5.62411c1.37299,1.86871 2.28761,3.9998 3.9899,5.61778c3.49047,3.31764 10.51192,4.93823 11.14591,10.51237c0.08262,0.72635 -0.08055,1.45986 -0.12082,2.18977c-1.69068,3.41576 -4.45803,8.36972 -9.14233,7.52698c-1.01931,-0.18337 -1.79756,-1.0534 -2.77306,-1.4013c-0.67608,-0.24108 -1.78949,0.38871 -2.30462,0.47923c-1.10804,0.19469 -2.75582,0.17869 -3.83794,-0.1446c-1.67095,-0.49918 -3.5754,-1.67706 -4.51659,-3.15895c-0.2111,-0.33243 -0.12291,-0.8133 -0.36563,-1.12341c-0.7331,-0.93665 -4.44606,-0.8091 -5.39402,-0.91699c-2.80645,-0.84913 -5.71568,-2.60268 -8.58268,-3.08085c-3.07804,-0.51339 -5.33708,0.68497 -8.27116,-1.00376c-1.95381,-1.12454 -5.55576,-5.52638 -2.18879,-7.61433c0.74192,-0.46008 1.74346,0.16397 2.59403,0.36069c2.54117,0.58778 4.35398,1.19211 7.05792,0.88822c1.25779,-0.23175 3.10614,-0.68417 4.30014,-0.21324c0.45992,0.1814 0.34693,0.97691 0.72739,1.29263c0.16454,0.13655 0.42373,-0.08478 0.61638,-0.1775c1.26319,-0.60802 2.53927,-1.22436 3.78418,-1.88315c2.5669,-1.35842 3.2289,-4.19961 4.02567,-6.79759c0.35038,-1.1425 1.13232,-2.46611 0.98024,-3.73292c-0.07636,-0.63632 -0.84761,-1.50274 -1.15969,-1.92333c0,0 -0.83885,-1.15122 0.31239,-1.99008c0.52904,-0.38548 0.99211,-0.3507 1.3381,-0.20053z" fill="#00e48d" stroke="none" stroke-width="0.5" stroke-linecap="butt"></path><path d="M340.30397,185.73797l0.66378,-0.07219c2.61616,-0.61392 6.19081,-0.27163 8.41519,1.45042c1.52408,1.17991 1.52418,2.44745 2.82719,3.59223c2.06646,1.04388 4.40197,1.92403 5.12174,4.39862c0.27062,0.93041 -0.33007,1.59796 0.29078,2.38444c0.94028,1.19115 2.64539,1.60286 3.76969,2.56909c1.04786,0.90059 1.77409,1.92151 2.26006,3.21916c1.22112,3.26054 -0.85395,6.16359 -3.32276,8.1328c-0.58274,0.46482 -1.07727,1.25473 -1.82147,1.29735c-3.85355,0.22064 -3.58587,-3.39996 -2.7845,-5.80644c-0.52969,0.58533 -1.52413,1.49269 -1.61921,1.59614c-0.95932,1.04395 -1.4646,2.55167 -2.3834,3.52383c-0.67994,0.7194 -1.34346,1.95 -2.32764,1.84406c-0.93481,-0.10061 -1.21569,-1.4502 -1.66852,-2.27416c-1.32889,-2.41808 -0.17395,-6.94323 1.97781,-8.62571c0.25841,-0.20204 0.69623,0.04714 0.97625,-0.1237c0.02638,-0.01608 -1.66389,-2.09718 -1.68883,-2.11972c-0.1867,-0.16884 -0.36439,-0.34681 -0.53427,-0.53231c-0.03928,-0.01607 -0.0782,-0.03405 -0.11662,-0.05393c-0.06823,-0.03528 -0.1324,-0.07532 -0.19229,-0.1195l-0.22478,-0.16023l-0.02274,0.03037l-1.02015,-0.76368c-0.03762,0.71479 -0.02254,1.91264 -0.01162,2.11496c0.13657,2.52888 -0.05286,4.15922 -1.02566,6.5298c-0.75775,1.16142 -1.45308,2.70331 -3.12234,2.91323c-2.26253,0.28454 -4.12523,-2.18335 -4.60556,-4.0231c-0.90613,-3.47062 1.4866,-6.04419 2.03941,-9.28806c0.50771,-2.9793 0.09372,-6.39086 -1.35636,-9.04979c-0.19907,-0.16841 -0.36487,-0.42151 -0.43317,-0.80088c-0.14486,-0.40159 -0.26378,-1.15891 0.59019,-1.68595c0.5572,-0.34388 1.01633,-0.27352 1.34984,-0.09715z" fill="#00ff9d" stroke="none" stroke-width="0.5" stroke-linecap="butt"></path><path d="M356.10524,193.40801c1.23847,1.50532 1.45476,4.5738 1.45476,4.5738c0,0 2.98301,1.15986 4.2493,2.648c1.26631,1.48814 1.58548,2.19876 1.97175,3.85362c0.38629,1.65484 0.21301,2.8487 -0.10483,4.14424c-0.31784,1.29554 -1.10169,2.71922 -1.80496,4.07857c-0.85643,1.65536 -1.1788,2.58741 -3.01499,4.35299c-1.83624,1.76558 -1.8085,1.74544 -3.27951,1.69936c-1.47101,-0.04606 -4.16988,-1.93261 -4.16988,-1.93261c0,0 -2.9376,0.71788 -5.23229,0.43158c-1.09549,-0.13668 -2.438,-0.78277 -3.23394,-1.60096c-0.79592,-0.8182 -1.83622,-2.81221 -1.83622,-2.81221l-5.5151,-1.50475c0,0 -2.3361,-2.30342 -3.54822,-4.00311c-1.21213,-1.69965 -1.21866,-1.86259 -1.53218,-3.12079c-0.31352,-1.25822 0.04928,-3.57086 0.04928,-3.57086c0,0 -1.47751,0.7252 -2.49991,0.89031c-1.02242,0.16509 -2.13612,0.31792 -4.12219,0.17902c-1.98607,-0.13889 -2.80239,-0.29272 -4.45125,-0.95433c-1.64883,-0.66161 -3.32678,-1.56698 -5.22756,-2.92937c-1.90076,-1.36242 -2.3317,-1.57052 -3.49181,-3.22741c-1.1601,-1.65692 -1.76516,-2.76834 -1.93704,-4.52631c-0.1719,-1.75796 -0.38529,-4.24563 0.52057,-7.21217c0.90582,-2.96654 1.79024,-4.58632 3.68765,-6.56943c1.8974,-1.98312 2.42912,-2.11929 4.41807,-2.87578c1.98895,-0.75649 3.04297,-0.88481 5.09645,-0.743c2.05349,0.1418 3.50911,0.08269 5.58019,0.94448c2.07107,0.86176 3.22929,1.75089 5.15605,3.48632c1.92678,1.73539 2.53266,2.57155 3.54629,4.61239c1.01364,2.04085 1.41185,5.3703 1.41185,5.3703c0,0 1.73035,-1.06555 2.97658,-1.23764c1.24625,-0.17208 5.25364,0.10121 5.25364,0.10121c0,0 2.24859,0.53612 3.27034,1.49903c1.02176,0.9629 2.01818,3.4848 2.01818,3.4848c0,0 3.10251,0.96538 4.34101,2.47071z" fill="none" stroke="#000000" stroke-width="2" stroke-linecap="round"></path><path d="M348.00057,201.61489c0,0 -0.67868,0.61951 -1.20008,2.31958c-0.52142,1.70007 -0.45718,2.54368 -0.9874,4.15336c-0.53022,1.60963 -0.9495,3.12011 -1.80266,3.91873c-0.8532,0.79861 -3.43967,0.71132 -3.43967,0.71132" fill="none" stroke="#000000" stroke-width="2" stroke-linecap="round"></path><path d="M348.82278,216.16341c0,0 0.67193,-0.87875 1.13495,-1.41844c0.46646,-0.54373 1.21546,-3.16463 2.23203,-4.3496c1.20197,-1.40105 2.80526,-1.63925 2.80526,-1.63925c0,0 -1.34159,3.00054 -1.70897,5.29312c-0.36738,2.29257 0.40707,2.8313 0.40707,2.8313z" fill="#000000" stroke="#000000" stroke-width="0" stroke-linecap="butt"></path><path d="M338.55901,188.04671c0,0 0.66132,0.86829 0.83692,1.52355c0.17559,0.65526 0.43226,1.58492 0.29407,2.69679c-0.13821,1.11185 -0.62663,2.61322 -1.222,4.22183c-0.59538,1.60862 -0.80743,2.0747 -1.54287,3.10053c-0.73545,1.02582 -1.48417,1.97975 -2.52597,2.27285c-1.04181,0.2931 -3.42109,0.01064 -3.42109,0.01064" fill="none" stroke="#000000" stroke-width="2" stroke-linecap="round"></path><path d="M337.05585,183.0992c0,0 0.44417,2.944 0.18853,4.80196c-0.25565,1.85796 -0.65214,3.16414 -1.50821,5.51342c-0.85605,2.34925 -1.06835,2.48973 -1.80261,3.57238c-0.73426,1.08268 -2.89724,3.74002 -2.89724,3.74002" fill="none" stroke="#000000" stroke-width="2" stroke-linecap="round"></path><path d="M331.96666,176.40331c0,0 1.41775,2.63647 1.89005,4.61307c0.47232,1.97661 0.4258,2.61902 0.23804,4.29295c-0.18777,1.67395 -0.49677,3.27086 -1.30355,5.20607c-0.8068,1.93523 -1.58645,3.36472 -3.07075,5.31528c-1.48428,1.9506 -2.39588,2.27483 -3.73471,2.93916c-1.33884,0.66431 -5.82138,1.89196 -5.82138,1.89196" fill="none" stroke="#000000" stroke-width="1.5" stroke-linecap="round"></path><path d="M316.37536,198.6859c0,0 -1.40622,-2.37927 -2.04887,-4.0994c-0.64264,-1.72011 -1.13697,-2.96885 -1.50948,-4.90512c-0.37253,-1.93626 -0.70482,-3.2887 -0.37005,-5.30792c0.33477,-2.01919 0.70438,-3.08327 1.90162,-4.97352c1.19727,-1.89023 1.90135,-2.61573 3.29392,-3.50357c1.39255,-0.88782 2.69028,-1.20596 4.57413,-1.69634c1.88386,-0.4904 5.24513,-0.66203 5.24513,-0.66203" fill="none" stroke="#000000" stroke-width="1.5" stroke-linecap="round"></path><path d="M314.31746,181.17139l1.58231,-0.78512l4.81074,-0.82552l5.95374,-0.5549l4.83386,0.5764l5.01686,2.70249" fill="none" stroke="#000000" stroke-width="1.5" stroke-linecap="round"></path><path d="M310.1932,181.49672c0,0 2.26425,0.61141 3.76347,1.1987c1.4992,0.58726 1.36526,0.63631 2.19289,1.13452c0.82762,0.49822 3.29637,2.07486 5.3891,3.42969c2.0927,1.3548 4.31238,2.66436 6.94502,4.55541c2.63263,1.89105 5.29301,4.23533 5.29301,4.23533" fill="none" stroke="#000000" stroke-width="1.5" stroke-linecap="round"></path><path d="M319.18419,173.21137c0,0 2.33961,1.48523 3.3561,3.01935c1.01649,1.53413 1.14711,2.44097 1.38692,4.13892c0.23981,1.69797 0.21214,2.85272 -0.14883,4.62741c-0.36095,1.77469 -0.60257,2.56672 -1.58263,3.88558c-0.98004,1.31887 -1.73321,2.25596 -3.39405,3.22351c-1.66087,0.96753 -2.37222,1.058 -3.79911,0.96689c-1.42688,-0.09111 -5.11536,-1.27224 -5.11536,-1.27224" fill="none" stroke="#000000" stroke-width="1.5" stroke-linecap="round"></path><path d="M311.09564,179.48773c0.54163,-0.89006 2.48033,-1.39381 3.47223,-1.07355c0.99191,0.32026 1.45346,0.71305 1.84671,1.59695c0.39326,0.88389 0.58589,2.07682 0.37775,3.40296c-0.20818,1.32616 -0.36766,2.26529 -1.4022,3.12359c-1.03457,0.85829 -1.96461,1.00302 -3.28087,0.76169c-1.31626,-0.24134 -2.76894,-1.50708 -2.77118,-2.73119" fill="none" stroke="#000000" stroke-width="1.5" stroke-linecap="round"></path><path d="M336.87121,211.82588c0,0 -3.94732,-1.38031 -6.5106,-2.14666c-2.56328,-0.76635 -2.38367,-0.86314 -3.97871,-0.98931c-1.59505,-0.12616 -2.32318,0.42068 -3.82761,0.37188c-1.50442,-0.0488 -1.95607,-0.0142 -3.00732,-0.59365c-1.05127,-0.57945 -1.91959,-1.03025 -2.9585,-2.40159c-1.03888,-1.37136 -1.20865,-1.97623 -1.171,-3.04934c0.03766,-1.07313 1.02415,-3.42611 1.02415,-3.42611" fill="none" stroke="#000000" stroke-width="2" stroke-linecap="round"></path><path d="M364.72562,212.29586c-0.13142,0.44512 -0.35539,0.91095 -0.72162,1.49123c-0.38306,0.60696 -1.11687,1.95513 -2.04051,1.92979c-0.07658,-0.00209 -0.15183,-0.01105 -0.22596,-0.02545l-0.00396,0.04053l-0.71024,-0.06907c-0.09306,-0.00689 -0.1863,-0.03227 -0.2744,-0.07785c-0.34936,-0.18074 -0.48604,-0.61048 -0.30529,-0.95984c0.0635,-0.12276 0.15776,-0.21928 0.26849,-0.28496l0.62579,-0.3862c1.91024,-1.66423 2.56962,-2.99203 1.75806,-5.47591c0,0 -0.21589,-0.67871 0.46283,-0.89457c0.67871,-0.21588 0.89458,0.46282 0.89458,0.46282c0.07405,0.23802 0.15685,0.53479 0.2355,0.85923c0.15,0.20698 0.14646,0.46224 0.14646,0.46224l-0.00413,0.18585c0.13956,0.71223 0.22693,1.45726 0.15058,1.96656c-0.03883,0.25915 -0.12896,0.51899 -0.25615,0.77561z" fill="#000000" stroke="none" stroke-width="0.5" stroke-linecap="butt"></path></g><g data-paper-data="{&quot;index&quot;:null}" stroke="none" stroke-linecap="butt"><path d="M244.50797,199.19364c-0.95334,-0.34107 -1.43713,-1.42554 -1.08054,-2.42221c0.35659,-0.99667 1.41847,-1.52815 2.37182,-1.18707c0.95334,0.34107 1.43713,1.42555 1.08056,2.42221c-0.35659,0.99667 -1.41849,1.52813 -2.37183,1.18706z" fill="#50526b" stroke-width="0"></path><path d="M233.93786,195.58902c-2.34003,-0.83719 -5.92882,-5.69289 -5.29318,-7.46959c0.63564,-1.77669 5.255,0.19844 7.59503,1.03562c2.34003,0.83719 9.63232,6.72085 9.63232,6.72085c0,0 -1.89908,1.55742 -3.90571,1.6094c-2.98452,0.0773 -6.62922,-1.39567 -8.02846,-1.89627z" fill="#333240" stroke-width="0"></path><path d="M207.20646,211.65083c-0.38996,-0.13952 -14.09821,-12.29792 -13.90758,-13.22853c0.05407,-0.26388 0.91842,-2.47279 2.22352,-1.74913c4.06939,2.25641 12.30587,10.33713 12.65933,9.20354c0.82148,-2.63463 1.52875,-5.34798 1.81545,-6.14934c0.58913,-1.64669 2.40162,-2.504 4.0483,-1.91487c1.64669,0.58913 2.504,2.40161 1.91488,4.0483c-0.58913,1.64669 -7.10721,10.37916 -8.7539,9.79003z" fill="#323232" stroke-width="0"></path><path d="M208.14306,209.95596c-0.55499,-0.44019 -0.06749,-2.26851 1.08886,-4.08363c1.15635,-1.81512 2.54366,-2.92972 3.09866,-2.48953c0.55499,0.44019 0.06748,2.26851 -1.08886,4.08363c-1.15635,1.81512 -2.54366,2.92972 -3.09865,2.48954z" fill="#50526b" stroke-width="0"></path><path d="M197.52499,189.06984c-2.88893,-1.03356 8.11701,-12.79262 8.90251,-14.98821c0.78551,-2.19559 12.66656,9.25199 15.55549,10.28555c2.88893,1.03356 24.44655,15.12014 23.66104,17.31573c-0.19346,0.54075 -3.97856,7.61021 -6.46818,7.15247c-1.52228,-0.27989 -2.74929,-1.74528 -4.56966,-2.69787c-0.50562,-0.2646 -0.82621,0.63851 -1.39784,1.32625c-0.75393,0.90707 -1.76783,1.67728 -2.4677,1.25596c-0.94508,-0.56895 -1.46449,-1.46555 -2.39454,-2.23887c-0.50458,-0.41954 -1.43631,2.64476 -1.93601,2.18995c-1.63656,-1.48953 -4.49157,-4.57237 -8.72448,-7.48184c-8.27574,-5.68826 -19.41295,-11.85163 -20.16064,-12.11913z" fill="#485e85" stroke-width="0"></path><path d="M194.70128,172.7186c-0.95334,-0.34107 5.29595,-3.09324 5.58535,-3.90214c0.2894,-0.8089 1.29684,-1.18814 2.25018,-0.84706c0.95334,0.34107 5.13018,3.63715 4.84078,4.44605c-0.2894,0.8089 -11.72298,0.64424 -12.67632,0.30316z" fill="#323232" stroke-width="0"></path><path d="M230.33376,207.53418c0,0 3.18102,-0.52793 0.42162,-3.00119c-2.94208,-2.63701 -8.44546,-6.12935 -13.34457,-9.43319c-4.14304,-2.79396 -6.85063,-4.95898 -9.51999,-6.50236c-1.3663,-0.78999 -7.43805,-1.95685 -7.92285,-0.7782c-0.26357,0.64078 2.82669,2.05481 4.05694,3.09236c1.23465,1.04126 0.60978,1.70495 0.60978,1.70495c0,0 -10.10646,-4.69314 -11.31444,-7.12853c-1.54357,-3.11194 5.87161,-4.08235 7.55707,-3.47935c0.76006,0.27192 3.86537,-8.25974 7.00935,-5.744c1.71773,1.3745 2.83515,4.82649 2.35813,7.78076c-0.22847,1.41495 -1.16927,0.98091 -1.20409,1.97583c-0.02808,0.80237 0.91299,1.44625 1.12702,1.5854c10.14851,6.59837 24.68787,16.854 24.04208,18.65908c-0.94054,2.62893 -3.87604,1.26847 -3.87604,1.26847z" fill="#333947" stroke-width="0"></path><path d="M206.05408,173.476c0,0 2.37554,0.87017 5.20303,2.65996c8.87139,5.61559 27.94942,18.16942 32.59203,21.52646c2.29197,1.65731 1.37637,3.87073 1.37637,3.87073l-3.04157,-0.73415l-8.87413,3.4434l-6.86437,-4.84316l8.73819,-4.08051l-2.66086,-1.62781c0,0 -1.80649,1.02075 -2.95795,1.56076c-1.53226,0.71858 -5.42404,2.37017 -5.42404,2.37017l-2.3854,-1.75086c0,0 3.73319,-1.74063 5.29404,-2.43333c1.19525,-0.53044 3.27041,-1.36753 3.27041,-1.36753c0,0 -1.76755,-1.33586 -4.25883,-3.03915c-4.322,-2.95495 -10.74699,-7.22609 -13.35915,-9.05858c-2.23773,-1.56984 -5.10583,-3.84362 -5.10583,-3.84362z" fill="#93c4c9" stroke-width="0"></path><path d="M181.09017,205.05692c-3.46672,-1.24028 -11.60744,-11.09557 -10.55321,-14.04228c0.22862,-0.63903 1.89505,-5.2766 4.87351,-9.16983c2.24721,-2.9374 5.69195,-5.28982 7.2892,-6.09033c1.81964,-0.91198 6.04627,-0.09236 8.05913,-0.92808c1.71463,-0.71189 3.29938,-0.70364 4.86722,-1.2555c1.62816,-0.57311 3.22197,-2.69245 4.52994,-3.15084c0.86825,-0.30431 1.89741,0.24397 2.27686,0.37972c1.23073,0.44032 6.30017,4.98327 4.42466,7.22057c-1.39858,1.66836 -3.10359,4.73538 -6.08391,6.00775c-2.12865,0.90877 -6.13233,-0.64191 -8.12223,-0.31571c-0.75088,0.12309 2.59341,2.45867 2.53666,3.15372c-0.09532,1.16727 16.49385,16.46438 16.36753,16.81747c-0.13766,0.38478 -2.95083,4.60788 -4.51344,3.46909c-1.05795,-0.77101 -3.035,-2.13756 -4.21065,-3.74029c-2.73911,-3.73419 -4.86815,-8.52085 -7.68076,-8.39982c-7.85194,0.33789 -12.06706,10.75758 -14.06053,10.04439z" fill="#00e48d" stroke-width="0"></path><path d="M193.45443,202.59182c-0.4719,-0.16884 -4.91173,5.29058 -6.28261,4.34268c-1.01407,-0.70119 -5.40436,-1.1305 -7.63405,-3.00919c-2.26582,-1.90913 -2.44914,-3.46482 -2.97903,-5.26717c-0.40174,-1.36647 0.50819,-5.25182 1.86944,-7.15178c1.05575,-1.47357 4.09985,-2.3481 5.64399,-2.83763c0.59855,-0.18977 -0.18784,-0.71367 0.42083,-0.51481c0.67994,0.22217 1.33973,1.02134 1.95922,1.36002c1.13819,0.62228 1.83168,0.71354 1.83168,0.71354c0,0 -4.15878,-3.9034 -1.23182,-6.55067c1.28562,-1.16277 3.62148,-0.1703 5.62391,1.20853c0.3397,0.2339 0.31578,-1.69809 0.62949,-1.4505c0.05302,0.04185 2.32801,0.28971 2.32801,0.28971c0,0 -0.44563,-0.74402 -0.39866,-1.34767c0.10389,-1.33538 1.10697,-3.41927 1.74675,-3.71979c0.84808,-0.39838 1.57785,-1.48778 2.30262,-2.4541c1.25933,-1.67908 2.6749,-3.06965 5.24102,-1.81024c4.15504,2.03923 1.46062,5.5654 -1.05552,7.70247c-1.36089,1.15584 -2.78697,1.81329 -2.78211,1.81873c0.23025,0.25878 -4.2549,-0.08594 -6.05991,0.22701c-0.71121,0.12331 -0.05576,0.86823 0.03053,1.00669c0.72589,1.16457 1.35688,2.42921 1.65212,2.53483c0.88608,0.31702 2.88134,1.84892 5.39598,3.36908c2.91254,1.76066 6.44674,3.64791 8.56283,5.88527c1.88257,1.99046 1.87472,4.57498 1.55609,5.46558c-0.22466,0.62793 -2.66919,3.75199 -7.03355,1.64886c-4.24246,-2.04438 -7.98655,-7.25701 -9.24414,-7.06843c-0.87055,0.13054 -1.20065,5.92828 -2.09309,5.60899z" fill="#00ff9d" stroke-width="0"></path><path d="M187.65769,180.93111l-0.0636,0.05216l-0.19169,-0.23378c-0.05598,-0.06588 -0.07619,-0.15902 -0.04496,-0.24627c0.03615,-0.10103 0.13064,-0.16444 0.23197,-0.16583l0.26273,-0.00971c1.16929,-0.21999 2.1689,0.472 3.09247,1.12963c0.20988,0.04045 0.36155,0.15946 0.36155,0.15946c0.17073,0.13397 0.33912,0.27067 0.5055,0.40975c1.37021,0.67006 3.34952,1.47258 5.38353,1.4918c2.34285,0.02213 4.66437,-0.79721 4.66437,-0.79721l1.05275,-0.63116c0,0 1.45136,-1.32576 1.97554,-2.30339c0.60066,-0.89989 1.46002,-2.06183 1.59743,-3.17984c0.25948,-2.11125 -3.94685,-5.60548 -5.88225,-5.50498c-1.18433,0.06151 -2.86396,2.3062 -4.04199,2.85444c-1.41418,0.28202 -2.59039,1.03334 -4.05976,1.21262c-4.52183,0.55167 -8.46797,0.11505 -12.4534,2.56853c-4.54463,3.71905 -6.36467,7.7931 -8.38533,13.19568l0.15119,0.32078c0.19189,0.55813 0.41079,1.10798 0.66036,1.6428c0.58651,2.94101 2.3224,5.00927 4.17819,7.21898c0.83529,0.99459 1.42638,2.66561 2.53143,3.40061c1.30233,0.86622 3.54159,1.08445 5.03748,1.62432c3.51141,2.00211 4.85047,0.63716 7.17256,-1.9428c0.49577,-0.55083 1.45924,-0.81715 1.83301,-1.38516c1.22172,-1.8567 0.33921,-6.4356 3.20278,-4.96892c2.48174,3.02664 6.2909,4.85526 8.77064,7.87186c1.06788,1.29908 2.22692,2.79469 3.66834,1.38716c0.49398,-0.62596 1.1847,-1.06874 1.49794,-1.80427c1.10966,-2.60566 0.74352,-4.73579 -0.42282,-6.50219c-0.10149,-0.0654 -0.32131,-0.23604 -0.3667,-0.51073c-1.45061,-1.86769 -3.79113,-3.30757 -6.11921,-4.46891c-1.57185,-0.94371 -3.21625,-1.63746 -4.74658,-2.62347c-2.84389,-1.83232 -4.95147,-4.5068 -7.49011,-6.70197c-1.17203,-0.67568 -2.79911,-1.61742 -3.5634,-2.55996zM207.68552,180.74888c1.28282,-1.28216 3.42341,-2.0812 5.02932,-3.02992c-1.88053,-1.16015 -3.59745,-1.97723 -5.20699,-3.30586l-0.05666,0.11209l-0.0439,-0.02219c0.40877,0.78495 0.62818,1.56897 0.56859,2.27098c-0.11311,1.33252 -1.09508,2.72642 -1.80822,3.79485c-0.21288,0.37045 -0.44346,0.71457 -0.68988,1.03342c0.71799,-0.33375 1.44981,-0.63602 2.20776,-0.85338zM213.17863,178.02298c-1.66608,1.02518 -3.81611,1.83995 -5.23959,3.15685c-1.18356,0.3872 -2.28818,0.91876 -3.39929,1.45001c-0.10714,0.09931 -0.21627,0.19516 -0.32727,0.28759c1.15662,0.67899 2.37476,1.37581 3.58647,2.10223c1.43908,-0.71059 2.9875,-1.70515 4.47328,-2.16464c1.72944,-0.81991 3.66659,-1.15184 5.51582,-1.67258c-1.5124,-1.11263 -3.05866,-2.19076 -4.5991,-3.1666c-0.00643,0.0047 -0.01036,0.00711 -0.01036,0.00711zM212.45344,183.32104c-1.37682,0.42578 -2.80303,1.31282 -4.14919,2.00366c1.95185,1.18684 3.8623,2.45523 5.44513,3.85494c5.24232,2.89762 9.19244,7.55469 14.55569,10.34472c0,0 0.02258,0.01192 0.05723,0.03553c0.03569,0.02201 0.05578,0.03778 0.05578,0.03778l0.72793,0.57161c2.39549,2.11665 4.89865,4.02303 7.40268,5.9806c0.47998,0.37523 2.46518,2.43621 3.07454,2.23818c0.2966,-0.0964 1.08074,-1.32382 1.30604,-1.57858c1.28983,-1.45463 2.57014,-3.15295 3.37963,-4.93318c0.10297,-0.22645 0.71849,-1.47735 0.55402,-1.75216c-1.25791,-2.1017 -5.22312,-3.88227 -7.17918,-5.41825c-4.71947,-4.22132 -10.78553,-7.06672 -16.04051,-10.5771c-1.08323,-0.85347 -2.20611,-1.72122 -3.3512,-2.57336c-1.94483,0.56944 -4.00975,0.9025 -5.8386,1.76564zM223.99095,202.8669l-0.15486,0.01868l-0.03511,-0.291c-0.00553,-0.03887 -0.00195,-0.07963 0.0122,-0.11916c0.04651,-0.13001 0.1896,-0.19768 0.3196,-0.15118c0.02154,0.0077 0.04136,0.01807 0.05925,0.03056l0.20476,0.13668c0.2825,0.10133 0.5157,0.24668 0.76386,0.41489c0.66357,0.2374 1.58221,1.03471 2.3902,1.74725c0.86518,0.76296 1.60026,1.43794 1.65613,1.51312c0.08937,0.12024 0.41189,0.20873 0.36849,0.27098c-0.00119,0.01913 -0.00505,0.03927 -0.01239,0.06038c0.54295,0.45373 0.94134,1.16296 1.63008,1.36656c0.51448,0.15207 1.84294,-1.03879 2.82483,-1.78684c-1.96263,-1.55702 -3.94014,-3.08157 -5.83214,-4.75617l-0.64226,-0.50358c-5.35827,-2.87873 -9.40366,-7.4584 -14.66131,-10.41447c-2.84542,-2.51626 -6.75569,-4.602 -10.04652,-6.55707c-2.45228,1.32148 -5.48125,1.40758 -8.2933,0.74067c1.5743,1.57284 3.1302,3.16383 5.01075,4.36449c1.49486,0.95442 3.09508,1.62928 4.62956,2.5517c2.5543,1.30573 5.10243,2.97857 6.70939,5.09945l0.17372,0.09064c5.11979,1.8317 9.0742,5.10187 13.02066,8.70172c0.43907,0.49207 1.6169,2.42349 2.45162,2.35563c0.44836,-0.03647 0.78998,-0.71551 1.13511,-1.17812c-1.11327,-0.98269 -3.24374,-2.50709 -3.68232,-3.70579zM195.56768,200.02739c1.64809,1.15615 3.25982,2.66123 4.5168,4.27777c0.15027,0.06707 0.2463,0.16021 0.2463,0.16021l0.60796,0.59145c1.75034,2.13463 4.26696,3.34015 6.26037,5.16264c1.17023,1.94237 2.14809,-0.54435 2.98184,-1.71867c1.81727,-2.55961 3.68888,-5.31573 5.72369,-7.73563c-1.20556,-0.77253 -2.4679,-1.46561 -3.81515,-2.05305c0.69467,1.79459 0.70476,3.85217 -0.35715,6.20629c-0.42363,0.9391 -1.13683,1.40234 -1.75232,2.19152c-0.95581,0.90244 -1.73483,1.60653 -3.14078,1.03459c-1.39418,-0.56714 -2.2502,-2.07407 -3.27175,-3.06164c-2.52595,-2.44194 -5.78469,-4.32462 -8.06724,-7.01755c0.00799,0.33911 -0.06376,0.97782 -0.18513,1.68052zM199.29505,205.7558c-1.13742,-1.61425 -2.72876,-3.16435 -4.3486,-4.33043c-0.15232,0.55076 -0.32277,1.01441 -0.49349,1.25111c-0.36208,0.502 -1.03672,0.67738 -1.5373,1.04139c-0.85215,0.61968 -1.2064,1.78527 -1.88693,2.51729c-2.02298,2.17606 -5.13095,1.52734 -7.42761,0.27115c-1.61104,-0.57055 -3.8702,-0.8199 -5.28137,-1.76396c-1.25868,-0.84204 -1.88254,-2.55348 -2.82682,-3.67504c-1.9644,-2.33321 -3.82393,-4.59559 -4.44301,-7.69989c-0.16567,-0.34498 -0.31368,-0.69863 -0.44882,-1.05703c-0.39629,-0.17561 -0.41418,-0.65988 -0.41418,-0.65988l-0.00767,-0.34757l-0.08373,-0.17633c0,0 -0.29107,-0.61536 0.26766,-0.95087c1.96092,-5.56724 4.13374,-9.81642 8.81356,-13.65958c3.54692,-2.18941 6.97897,-2.30179 10.80881,-2.61092c0.09411,-0.16186 0.22235,-0.2572 0.22235,-0.2572l0.71413,-0.44087c3.66521,-0.70209 5.88766,-3.85453 8.9528,-5.48171l0.03333,-0.04248l-0.10578,-0.12899l0.6335,-0.51944c0.09539,-0.08104 0.20984,-0.1371 0.33215,-0.16288c0.31032,-0.30996 0.77191,-0.14481 0.77191,-0.14481c2.63211,0.94884 4.51715,2.28864 6.0968,4.60424c0.32495,0.47633 1.5008,1.497 0.88221,2.2221c0.93465,0.27192 1.89235,1.26874 2.71178,1.82282c3.72433,2.51825 7.70571,4.73438 11.29251,7.53802c1.26236,0.84189 2.56452,1.64716 3.88082,2.44228c0.10073,0.01249 0.16823,0.03665 0.16823,0.03665l0.67254,0.24062c3.34456,1.19656 6.844,2.27857 10.32872,2.93664c2.60412,1.41738 4.46253,3.69778 6.96153,5.08076c0.75465,0.41764 3.04073,1.14064 3.3965,1.89279c0.5728,1.21101 -0.88488,3.1855 -1.56002,4.05013c0,0 -0.02829,0.03603 -0.07977,0.08332c0.77934,2.44645 -2.8516,6.55338 -4.23884,8.12594c-0.49238,0.55679 -1.40069,1.88823 -2.117,2.05196c-1.17502,0.26856 -2.95829,-1.36989 -3.75855,-2.03294c-0.3242,-0.2686 -0.64984,-0.53442 -0.97647,-0.79831c-1.46671,0.71322 -2.62841,2.63813 -4.34796,2.30175c-0.73043,-0.14289 -1.11853,-0.6716 -1.61732,-1.12813c-0.21499,-0.19677 -0.3939,-0.78867 -0.62517,-0.61128c-0.63915,0.49022 -0.76024,1.5658 -1.95477,1.66003c-1.57919,0.12457 -2.75762,-1.80926 -3.63546,-2.79593c-1.91154,-1.73537 -3.81564,-3.39626 -5.86361,-4.84171c-2.64299,3.15108 -4.51514,6.97454 -7.35141,9.96707c-1.3842,1.46046 -2.739,1.22523 -3.7607,-0.39848c-1.98455,-1.79332 -4.45504,-2.97317 -6.19779,-5.09014c-0.33845,-0.03025 -0.55169,-0.33119 -0.55169,-0.33119zM246.5757,196.18512c-0.07461,-0.15775 -2.43573,-1.03578 -2.77114,-1.22413c-2.42773,-1.36329 -4.2567,-3.55085 -6.73622,-4.97846c-1.64776,-0.28109 -3.30696,-0.68819 -4.9506,-1.16539c2.29265,1.44389 4.51458,2.97467 6.52633,4.73638c1.61997,1.2702 5.09994,2.95409 6.79486,4.79392c0.46672,-0.61791 1.3057,-1.80519 1.13679,-2.1623zM199.70386,169.77287c-0.05353,0.03827 -0.10785,0.07618 -0.16246,0.11379c0.06369,-0.03143 0.12814,-0.06076 0.1934,-0.08775c-0.01049,-0.00868 -0.0208,-0.01734 -0.03093,-0.02602zM200.94051,168.79668c-0.57809,0.08609 0.04701,0.0615 0.60708,0.36982c1.36416,0.71971 2.78929,1.42251 4.10035,2.23374c0.03288,0.02036 0.18695,0.15789 0.38279,0.34149c-0.23463,-0.39756 -0.46088,-0.80857 -0.7577,-1.09408c-1.17094,-1.12631 -2.42291,-1.82932 -3.91016,-2.38868l-0.40848,0.52057l-0.00718,-0.00563zM196.09008,172.53197c0.63841,-0.30812 1.20362,-0.83832 1.77334,-1.36422c-0.6143,0.48668 -1.23579,0.95498 -1.87584,1.38567c0.034,-0.00745 0.06817,-0.0146 0.10249,-0.02144z" fill="#000000" stroke-width="0.5"></path><path d="M187.37076,188.09559l5.18548,6.71036l-7.34864,-4.90496c0,0 0.47241,-0.96977 0.85129,-1.28601c0.33733,-0.28154 1.31186,-0.5194 1.31186,-0.5194z" fill="#000000" stroke-width="0"></path></g></g></g></svg>