<svg version="1.1" xmlns="http://www.w3.org/2000/svg" xmlns:xlink="http://www.w3.org/1999/xlink" width="217.34584" height="133.3728" viewBox="0,0,217.34584,133.3728"><g transform="translate(-133.7254,-110.63586)"><g data-paper-data="{&quot;isPaintingLayer&quot;:true}" fill-rule="nonzero" stroke-linejoin="miter" stroke-miterlimit="10" stroke-dasharray="" stroke-dashoffset="0" style="mix-blend-mode: normal"><path d="M195.35465,209.62707c-3.10578,-1.34436 -6.3801,-3.024 -7.20946,-6.64348c-0.53042,-2.31481 0.10992,-5.07759 0.23907,-7.40203c0.40283,-7.25082 2.40116,-13.70687 5.0948,-20.43843c1.34446,-3.35988 3.45379,-6.61249 4.2982,-10.09358c0.57577,-4.56916 2.34856,-8.4528 4.2799,-12.58328c1.184,-2.5322 2.41136,-5.26947 5.05016,-6.72167c1.06709,-0.58724 5.11269,-1.30118 6.37118,-1.30138c5.28771,-0.00085 8.41705,2.22552 12.96329,4.05794c2.63335,-3.88168 5.89451,-7.29956 9.60654,-10.36726c0.92098,-1.09302 2.07126,-1.97356 3.173,-2.88409c1.12918,-0.9332 1.87491,-2.26453 2.96176,-3.24671c4.04192,-3.65268 10.46426,-7.11339 15.79167,-8.17471c3.54474,-0.70619 7.08118,-0.68258 10.61124,-1.32144l-0.59698,-0.06052c0,0 0.55329,0.53333 2.49849,0.81122c1.94521,0.27789 1.11654,0.29535 1.11654,0.29535l0.98716,-1.46475c0.36571,0.19822 0.70229,0.55931 0.88474,1.19785c0.42707,1.49473 -0.66627,2.14479 -1.14162,2.35114c-0.07634,1.34541 -0.12762,2.72003 0.08411,3.89673c0.6099,3.38935 1.8458,6.03938 1.39377,9.67868c-0.63219,5.08989 -3.07811,9.72214 -3.57624,14.83744c-0.33973,3.02338 -0.589,6.31062 -0.0262,9.32817c0.64879,3.47858 2.46345,6.88509 3.52891,10.26241c3.91806,12.41967 8.88596,27.58063 20.71806,34.71863c0.53708,0.93762 1.31092,1.77488 1.61127,2.81285c0.17371,0.6003 0.00307,4.13393 0.06203,5.06394c0.22647,3.57236 0.80034,6.739 -1.50118,9.85201c-1.72086,2.32762 -4.16805,5.35893 -6.37446,7.21171c-0.96497,0.8103 -2.27932,1.17284 -3.16105,2.073c-1.16786,1.19226 -3.88617,2.16773 -5.4728,2.68538c-4.4835,1.46273 -8.74597,1.19867 -13.38852,1.19109c-1.11985,-0.24813 -2.48564,-0.00147 -3.35954,-0.74439c-0.8571,-0.72866 -0.98146,-2.04761 -1.21828,-3.14737c-0.49638,-2.30514 0.15199,-5.36245 0.92071,-7.54023c0.50021,-1.41704 1.08169,-1.81092 0.99386,-3.32157c-0.1078,-1.85432 -2.07765,-3.35042 -2.65891,-5.03759c-0.36063,-1.04672 0.3327,-2.5917 -0.53621,-3.27774c-0.30784,-0.24306 -0.78583,-0.05126 -1.1688,-0.13598c-2.89027,-0.63938 -5.39767,-1.13175 -8.38145,-1.30437c-3.03502,-0.17558 -5.12479,0.20026 -7.61397,1.87614c-2.61073,1.69581 -5.61043,5.67863 -6.35017,8.78016c-0.52665,2.20812 -2.14361,4.5335 -3.14588,6.65789c-2.30145,4.87811 -5.38869,6.21235 -10.01188,7.66079c-4.81716,1.50923 -9.40504,2.66609 -14.43929,1.43241c-2.94541,-0.36308 -5.65999,-1.06176 -8.54554,-1.65394c-1.14257,-0.23447 -2.204,-1.01866 -3.17909,-1.65866c-2.89408,-1.89949 -3.73405,-2.53515 -3.35909,-5.46847c0.68888,-5.38897 5.02923,-13.62423 7.36161,-18.28094c0.35205,-0.7029 0.63833,-1.54878 0.91591,-2.43899c-2.40867,-0.42303 -4.73883,-1.01179 -7.10129,-2.01933z" fill="#2e00e3" stroke="none" stroke-width="0.5" stroke-linecap="butt"></path><path d="M209.06453,151.6466c-0.01046,-0.00469 -0.02093,-0.0094 -0.03139,-0.01413l-0.1173,0.14077l-0.53381,-0.44485c-0.9939,-0.48075 -1.95881,-1.0249 -2.87833,-1.63288c0,0 -1.10351,-0.73568 -0.89295,-1.90483c0.03047,-0.57062 0.29797,-1.01647 0.29797,-1.01647l1.9713,-2.25537c3.17491,-0.89786 6.04976,-1.06926 9.32075,-0.61122c2.1422,0.29998 4.83719,0.23259 5.54554,3.25334c0.27242,1.16169 -0.81619,2.2495 -1.36383,3.3096c-0.37317,0.72235 -0.78357,1.46014 -1.38363,2.00876c-2.59155,2.36937 -5.23798,1.8505 -8.10862,0.33831c-0.505,-0.26602 -1.21581,-0.42445 -1.59006,-0.82204c-0.01504,0.00169 -0.03008,0.00338 -0.04511,0.00507z" fill="#2e00e3" stroke="none" stroke-width="0.5" stroke-linecap="butt"></path><path d="M296.09654,205.61779c0,4.72431 -0.37819,25.82575 -15.20371,25.60702c-11.30752,-0.16681 -5.72621,-16.24363 -5.72621,-16.24363c0,0 -16.54003,1.1134 -29.36625,-10.52361c-9.11829,-8.27288 -11.15861,-21.46854 -10.84122,-25.55295c0.55079,-7.08815 10.1666,-30.58907 23.9249,-45.59028c6.43519,-7.01653 11.59339,-10.13461 15.74825,-10.75519c3.56414,-0.53235 6.46272,0.99134 7.96995,0.99134c2.87981,0 19.19657,6.04709 21.69691,23.76991c2.91389,20.65408 -8.20262,53.71344 -8.20262,58.2974z" fill="#3500ff" stroke="#000000" stroke-width="0" stroke-linecap="butt"></path><path d="M235.07947,137.32019c4.18407,-3.93049 8.56711,-7.08839 11.56654,-9.088c2.99942,-1.99961 4.52343,-2.99806 8.26181,-4.13091c3.73841,-1.13285 6.40191,-1.50006 10.46495,-1.92776c4.06305,-0.42768 5.91402,-0.55983 10.46495,-0.27538c4.55093,0.28443 8.17418,1.08662 11.29114,2.20314c3.11694,1.11652 4.51793,1.14936 7.71102,4.4063c3.19309,3.25694 4.35934,4.97567 6.60945,9.36338c2.25011,4.38772 3.0163,7.02606 3.85552,12.11733c0.83921,5.09127 0.37753,6.92712 -0.27538,13.2189c-0.65292,6.29179 -1.12779,8.08299 -2.75394,15.97283c-1.62615,7.88984 -4.12837,17.54795 -4.68168,20.10374c-0.55332,2.55579 -0.8533,3.07145 -1.10158,6.60945c-0.24829,3.538 0.04759,6.2804 0,9.088c-0.04758,2.80759 0.44165,4.45755 -0.27538,7.16023c-0.71703,2.70268 -1.38816,3.77863 -3.30472,6.33405c-1.91657,2.55544 -2.68404,3.1161 -5.78326,5.78327c-3.77162,3.24583 -7.78912,4.3718 -11.56654,5.23247c-3.77741,0.86068 -7.98741,0.57763 -9.91417,0.27538c-1.92677,-0.30224 -2.96077,-0.28454 -4.13091,-2.47854c-1.17014,-2.194 -0.90516,-3.09241 -0.27538,-5.78326c0.62977,-2.69085 2.23529,-4.51744 2.47854,-6.60945c0.24325,-2.09199 0.03369,-3.20095 -1.10158,-5.23247c-1.13527,-2.03154 -1.32714,-2.95724 -4.13091,-4.13091c-2.80377,-1.17367 -3.56583,-1.07739 -7.71103,-0.82618c-4.14519,0.25122 -10.46495,1.92776 -10.46495,1.92776c0,0 -0.61432,3.51268 -2.75393,7.98642c-2.13961,4.47373 -3.88524,8.28438 -6.33405,11.01575c-2.4488,2.73136 -5.15142,4.1139 -9.91417,5.50788c-4.76274,1.39398 -7.94038,1.63883 -12.66812,1.10158c-4.72774,-0.53724 -9.79995,-2.7817 -11.56654,-3.8555c-1.76659,-1.07379 -2.68389,-1.66049 -2.75393,-5.23247c-0.07004,-3.57197 0.27866,-2.9004 2.47854,-8.81259c2.19987,-5.91218 4.00376,-9.20444 6.33405,-14.87126c2.33028,-5.66683 2.59395,-6.23988 5.78326,-14.59587c3.18931,-8.35598 5.54754,-14.55432 7.98642,-21.48071c2.43888,-6.92639 4.04231,-13.67254 5.78327,-17.90059c1.74096,-4.22806 3.50416,-6.84689 5.78326,-10.18957c2.27911,-3.34268 2.42538,-4.05592 6.60945,-7.98642z" fill="none" stroke="#000000" stroke-width="3" stroke-linecap="round"></path><path d="M201.17953,210.85031c0,0 -5.12906,-0.97299 -7.43562,-2.20315c-2.30657,-1.23016 -3.68909,-2.10084 -4.95709,-4.4063c-1.268,-2.30546 -1.22817,-3.00171 -1.10158,-6.60945c0.12659,-3.60774 0.23713,-3.9417 1.65236,-9.088c1.41523,-5.14629 2.53053,-8.30618 4.4063,-12.9435c1.87577,-4.63732 3.54784,-6.52646 5.50788,-11.56654c1.96002,-5.04008 2.84515,-10.40628 4.13091,-13.21889c1.28578,-2.8126 0.92326,-4.41863 4.6817,-6.05866c3.75843,-1.64004 6.82878,-1.07024 10.46495,-0.55079c3.63618,0.51945 8.81259,3.30472 8.81259,3.30472" fill="none" stroke="#000000" stroke-width="3" stroke-linecap="round"></path><g><g stroke-linecap="round"><path d="M248.46205,124.07984c14.08244,-3.53809 24.28898,-7.01356 37.62793,-3.2691c13.33895,3.74446 30.66315,10.6694 22.13418,20.0453c-8.52896,9.37589 -27.8656,-5.77922 -35.64806,-5.18949c-7.78247,0.58973 -8.13327,8.45148 -16.43335,9.136c-12.5882,1.03816 -4.86527,-6.38643 -8.54227,-8.39219c-3.1213,-1.70262 -12.55939,3.30471 -12.12706,-2.88266c0.19153,-2.74122 5.14523,-7.47729 12.98864,-9.44787z" fill="#fff3df" stroke="none" stroke-width="0"></path><path d="M249.28615,125.63794c4.21008,-1.05774 1.7984,14.34042 5.89402,14.0992c7.5049,-0.44198 6.40642,-7.74581 14.54722,-9.25574c2.27687,-0.42231 13.85584,2.6824 15.89963,3.25613c13.33895,3.74446 31.12613,-2.2574 22.59715,7.11849c-8.52896,9.37589 -27.8656,-5.77922 -35.64806,-5.18949c-7.78247,0.58973 -8.13327,8.45148 -16.43335,9.136c-12.5882,1.03816 -4.86527,-6.38643 -8.54227,-8.39219c-3.1213,-1.70262 -12.55939,3.30471 -12.12706,-2.88266c0.19153,-2.74123 2.66501,-5.16553 10.50842,-7.13612z" fill="#cfa7a7" stroke="none" stroke-width="0"></path><path d="M286.08993,120.81074c13.33894,3.74446 30.66313,10.6694 22.13418,20.04529c-8.52896,9.37589 -27.86559,-5.7792 -35.64805,-5.18947c-7.78245,0.58973 -8.13326,8.4515 -16.43334,9.13601c-12.5882,1.03816 -4.86527,-6.38642 -8.54228,-8.39217c-3.12131,-1.70262 -12.55939,3.3047 -12.12706,-2.88266c0.19153,-2.74123 5.14526,-7.4773 12.98863,-9.44788c14.08244,-3.53809 24.28896,-7.01355 37.62792,-3.26909z" fill="none" stroke="#000000" stroke-width="4"></path></g><path d="M268.83909,128.4678c-10.06319,-0.29578 -21.6652,-4.38757 -15.02529,-9.32777c0.49759,-0.37021 1.37686,-1.16935 2.3207,-1.98919c0.98605,-0.85651 2.04256,-1.73564 2.80796,-2.17196c8.27826,-4.71897 21.59003,-7.81368 31.737,2.85656c11.98316,12.60115 -11.77717,10.92814 -21.84035,10.63235z" fill="#ffd500" stroke="none" stroke-width="0" stroke-linecap="round"></path><path d="M268.83909,128.4678c-10.06319,-0.29578 -21.6652,-4.38757 -15.0253,-9.32777c0.49759,-0.37022 1.37686,-1.16935 2.32071,-1.98919c0.98605,-0.85651 2.04256,-1.73564 2.80796,-2.17195c8.27826,-4.71897 2.47499,4.45331 9.15007,7.55918c14.02448,6.52549 23.55529,-2.03453 24.56827,-1.06817c8.0971,7.7244 -14.87748,7.26079 -23.82171,6.99791z" fill="#ff7e00" stroke="none" stroke-width="0" stroke-linecap="round"></path><path d="M268.89093,128.86131c-10.06319,-0.29578 -21.66519,-4.38759 -15.0253,-9.32779c2.41207,-1.79462 6.25,-4.91959 10.86808,-6.54976c8.09447,-2.85734 18.36756,-2.77835 25.9976,5.24517c11.98316,12.60114 -11.77717,10.92814 -21.84037,10.63235z" fill="none" stroke="#000000" stroke-width="4" stroke-linecap="round"></path><path d="M273.39771,116.68158c1.53817,-2.01576 5.20816,-2.22136 8.19714,-0.45923c2.98897,1.76213 4.16508,4.82471 2.6269,6.84044c-0.69925,0.91636 -2.05363,-2.24436 -4.55712,-3.59963c-3.00358,-1.62599 -7.10585,-1.68218 -6.26692,-2.78159z" fill="#fff45c" stroke="none" stroke-width="0" stroke-linecap="butt"></path></g><g><path d="M253.40127,160.20209c-0.21705,-0.10657 -0.4361,-0.32165 -0.4361,-0.75579c0,-0.86043 0.86043,-0.86043 0.86043,-0.86043h0.22705c0.07388,-0.00773 0.14197,-0.00722 0.20471,0h0.14186c2.69696,0 5.3042,0.28681 8.03067,0.28681c7.23254,0 14.46245,-0.1458 21.61587,0.58007c2.22249,0.22552 4.36123,-0.15846 6.57628,0.28455c5.07842,-0.01576 10.0999,-0.56897 15.11614,-0.57781c0.97329,-0.00171 4.29994,-0.40389 5.00016,0.35733c0.43358,0.47134 -0.42232,3.38598 -0.42232,4.08265c-1.16285,3.48856 -1.41729,6.91177 -3.89406,9.84917c-2.67876,3.17695 -8.17496,2.90759 -11.73154,4.05557c-3.5812,0.03986 -6.84249,0.69815 -10.54776,0.29373c-4.75993,-0.51954 -9.19568,-1.9769 -13.85083,-2.88061c-7.4417,-1.48961 -15.01933,-7.13248 -16.89055,-14.71522z" fill="#6fddfe" stroke="none" stroke-width="0.5" stroke-linecap="butt"></path><path d="M252.82287,160.49721c0,0 -0.47729,-0.71592 0.23864,-1.1932c0.71592,-0.47729 1.1932,0.23864 1.1932,0.23864c3.64629,5.54881 7.53978,10.65882 13.66703,13.73603c7.21234,2.38362 14.00895,3.27035 21.61726,3.38733c4.56476,-1.52158 9.72553,-1.29467 14.36056,-2.78317l0.77793,-0.51862c0.13849,-0.09527 0.30627,-0.15103 0.48707,-0.15103c0.4752,0 0.86043,0.38523 0.86043,0.86043c0,0.3034 -0.15703,0.57012 -0.39425,0.72332l-0.84932,0.56622l-0.03671,-0.05507l-0.06254,0.11209c-0.14112,0.04821 -0.28269,0.09476 -0.4247,0.13976c-0.64339,0.57741 -2.11224,0.70025 -2.91777,1.23727c-3.83866,2.5591 -7.69819,3.34974 -12.0178,3.53692c0.04386,0.10326 0.06813,0.21686 0.06813,0.33613c0,0.4752 -0.38523,0.86043 -0.86043,0.86043h-1.14724v-0.00009c-0.24378,-0.00021 -0.48687,-0.00093 -0.72896,-0.00336c-5.88136,1.24909 -12.85649,-0.61611 -18.30561,-2.01066c-2.9349,-0.01533 -5.76545,-1.37515 -8.29533,-2.65836c-1.1267,-0.57149 -2.25467,-0.27006 -3.1821,-1.40188c-0.35257,-0.43027 -0.50064,-0.93782 -0.57971,-1.46951c-0.24435,-0.14448 -0.36652,-0.38883 -0.36652,-0.38883l-0.12563,-0.35c-2.50403,-2.5202 -3.62897,-6.20975 -3.1691,-9.65636c0.01263,-0.26728 0.02603,-0.54104 0.03562,-0.82548l-0.25783,-0.04298l0.28058,-1.68349c0.02485,-0.16732 0.09788,-0.31893 0.20452,-0.44026c-0.02314,-0.03405 -0.04627,-0.06811 -0.0694,-0.10218z" fill="#1c4ea5" stroke="none" stroke-width="0.5" stroke-linecap="butt"></path><path d="M311.18756,159.15949c0,0 -0.48014,6.23003 -2.85587,11.17995c-1.66493,3.46896 -5.5642,6.59096 -7.18247,7.17588c-3.92741,1.41955 -8.75433,3.83045 -15.20092,4.30215c-6.44659,0.4717 -12.25165,-0.26138 -19.50307,-2.29448c-7.25141,-2.0331 -8.46292,-2.74817 -11.47239,-7.17025c-3.00947,-4.42208 -2.58129,-13.48006 -2.58129,-13.48006z" fill="none" stroke="#000000" stroke-width="2" stroke-linecap="round"></path><path d="M301.79104,161.43253c2.60727,0.15153 5.1574,0.82761 3.84532,3.29554c-0.44901,0.84456 -2.18671,1.28421 -2.96187,1.80098c-2.81218,0.96074 -5.82514,0.97652 -8.64927,0.05317c-1.25942,-0.41177 -2.9669,-1.4819 -1.95211,-3.23978c0.88716,-1.5368 2.9364,-1.74043 4.94694,-1.79506c0.20481,-0.09342 0.40063,-0.09342 0.40063,-0.09342h0.28681c0.4702,0 1.36426,-0.05127 2.39685,-0.05878c0.28126,-0.04371 0.541,-0.10287 0.77277,-0.18387c0,0 0.56756,-0.18919 0.91393,0.22121z" fill="#ffffff" stroke="none" stroke-width="0.5" stroke-linecap="butt"></path></g><path d="M262.0826,210.86036l-2.53112,-4.00303l-3.604,0.39562c0,0 -8.55237,-1.33499 -16.52085,-4.31792c-7.96847,-2.98293 -19.77101,-9.26764 -19.77101,-9.26764c0,0 1.15709,-6.55828 3.1519,-10.82523c1.99481,-4.26694 6.55001,-9.92736 6.55001,-9.92736l5.30277,13.91045l5.32605,9.47094l3.58951,-1.08522l4.3432,7.05936l4.18388,-0.52617l4.07938,5.59448l3.11981,-1.25662l3.0153,4.86403l8.08947,-3.20682z" fill="#67080a" stroke="#000000" stroke-width="2" stroke-linecap="round"></path><g data-paper-data="{&quot;index&quot;:null}" stroke-width="1.5"><g><g><g><path d="M178.45162,209.3662c-1.42944,1.59046 -2.85524,3.18258 -4.35535,4.68397c-1.91102,1.91263 -5.10886,5.13521 -8.34604,4.15251c-1.25577,-0.38122 -1.81917,-1.75471 -2.46407,-3.0114c-0.54761,-0.09795 -1.13233,-0.39078 -1.70276,-1.01297c-2.0655,-2.25299 0.18748,-4.3185 0.18748,-4.3185c0.15101,-0.13765 0.30269,-0.274 0.45504,-0.40904c0.08432,-0.08169 0.16919,-0.15613 0.25438,-0.22379c4.67113,-4.07835 9.9442,-6.99138 15.23119,-10.20659c4.96711,-3.02067 9.38914,-6.79785 14.52746,-9.55077l0.26759,0.01843l-0.03721,-0.10822l2.86404,-0.98489c0.09017,-0.03207 0.18263,-0.0602 0.27726,-0.08417c1.6364,-0.41448 3.29895,0.57608 3.71343,2.21248c0.3376,1.33286 -0.25694,2.68306 -1.37337,3.36208l-2.65105,1.69857l-0.37434,-0.58424l-0.29155,0.10025c-0.09723,0.05265 -0.1942,0.10572 -0.29092,0.15918c-2.51293,2.22069 -5.21745,4.01938 -7.99868,6.28656c0.61672,0.91848 -0.26527,1.67922 -0.26527,1.67922c-1.90942,1.64498 -3.64149,3.47302 -5.40323,5.25646l-0.57225,0.6356c0,0 -0.76186,0.8433 -1.65181,0.24928z" fill="#465c83" stroke="none" stroke-linecap="butt"></path><path d="M163.89566,216.90975c-1.03265,-0.6905 -1.26364,-1.47563 -1.08776,-2.53273l-0.20891,-0.01543l0.11627,-1.575c0.02815,-0.55931 0.41574,-1.05885 0.98696,-1.20354c0.55483,-0.14053 1.11668,0.09582 1.41514,0.54794l1.22252,1.76098l-0.03469,0.02409l0.10922,0.09675c0.18553,0.44863 0.36291,0.90149 0.52821,1.35868l0.53407,0.16074c0.43597,0.12299 0.79609,0.46899 0.9153,0.93965c0.13806,0.54506 -0.08762,1.09691 -0.52428,1.39914l-0.25811,0.18763c-0.06036,0.37606 -0.28339,0.82204 -0.96514,0.99472c-0.73782,0.18688 -1.15552,-0.16352 -1.37602,-0.48994l-0.55661,-0.03506c0,0 -1.1995,-0.42422 -0.81615,-1.61862z" fill="#b3cbd5" stroke="none" stroke-linecap="butt"></path><path d="M202.27368,180.85044c0.09452,0.37319 0.08674,0.74831 -0.00571,1.09569c0.06495,0.57367 -0.1022,1.13342 -0.43681,1.57075c0.22023,0.19479 0.4241,0.40174 0.60881,0.61533c1.86522,2.15689 0.02712,4.98372 1.39158,7.33735c0.33514,0.57812 1.20686,1.30208 2.1138,2.06103c0.19006,-0.12026 0.40208,-0.21295 0.63195,-0.27118c1.16885,-0.29605 2.3564,0.41148 2.65245,1.58033c0.21192,0.8367 -0.09042,1.68299 -0.7081,2.20499c-0.13035,0.41402 -0.44235,0.7724 -0.81781,1.11136c0.06135,0.34193 0.22865,1.88961 -1.64984,2.36541c-1.00158,0.25369 -1.63675,-0.03747 -2.028,-0.41458c-0.34486,-0.08286 -0.70081,-0.27265 -1.03857,-0.63018c-0.56854,-0.6018 -0.61577,-1.18158 -0.4754,-1.65482c-1.46035,-1.20635 -2.72679,-2.4461 -3.98928,-3.94145c-0.03445,-0.08613 -1.10182,-2.1879 -1.39463,-3.69899c-0.27311,0.24623 -0.54945,0.46847 -0.75259,0.61604c-3.74446,2.72016 -7.76081,4.96859 -11.78024,7.30091c-5.37114,3.11667 -10.00263,6.98815 -15.3447,10.01146c-0.05374,0.03042 -5.04892,3.04602 -5.25071,3.05946c-0.18697,0.01245 -0.37278,0.0156 -0.55765,0.01087l0.00269,0.09439l-2.53874,0.17983c-1.02951,0.09134 -1.97645,-0.49373 -2.21259,-1.42602c-0.19972,-0.7885 0.16597,-1.60061 0.85757,-2.08027l1.86505,-1.35157c4.47064,-4.22826 10.00034,-7.18733 14.71442,-11.23929c4.59984,-3.64076 10.04674,-6.8893 15.19744,-9.86981c1.29157,-0.74737 3.54737,-2.29254 5.54449,-2.99558c-0.00088,-0.00343 -0.00176,-0.00687 -0.00263,-0.0103c-0.29605,-1.16885 0.41149,-2.35639 1.58034,-2.65244c0.07429,-0.01882 0.14865,-0.03358 0.22284,-0.04443c0.25932,-0.24072 0.58098,-0.42169 0.94815,-0.51469c1.16885,-0.29605 2.3564,0.41148 2.65245,1.58033z" fill="#373142" stroke="none" stroke-linecap="butt"></path><path d="M197.98844,195.62562c-0.8182,0.20724 -1.62548,-0.19329 -1.80311,-0.89459c-0.17763,-0.70131 0.34165,-1.43783 1.15985,-1.64507c0.8182,-0.20724 1.62548,0.19329 1.80311,0.89459c0.17763,0.70131 -0.34165,1.43783 -1.15985,1.64507z" fill="#465c83" stroke="none" stroke-linecap="butt"></path><path d="M159.91595,209.95556c0.09483,0.3744 0.01805,0.75199 -0.18084,1.04969c0.49123,0.1718 0.95764,0.40245 1.37577,0.69123c0,0 1.04441,0.79066 0.25376,1.83506c-0.79066,1.04441 -1.83507,0.25376 -1.83507,0.25376c-0.55347,-0.49335 -1.42908,-0.66446 -2.15907,-0.53468l0.79023,-0.00075c0,0 -0.43677,1.235 -1.67174,0.79822c-1.235,-0.43677 -0.79822,-1.67174 -0.79822,-1.67174l1.4021,-1.73086c0.09698,-0.0064 0.19454,-0.01059 0.29252,-0.0126c-0.00317,-0.01129 -0.00621,-0.02264 -0.0091,-0.03407c-0.17763,-0.70131 0.2469,-1.41383 0.9482,-1.59146c0.70131,-0.17763 1.41383,0.24689 1.59146,0.9482z" fill="#373142" stroke="none" stroke-linecap="butt"></path><path d="M156.70744,216.04653c0.72745,-0.83986 2.2397,-0.97426 3.28122,-0.5872c0.47931,0.17813 0.80031,0.76252 0.99526,1.5233c1.44798,1.564 3.11042,3.43202 2.12084,5.66873c-0.38858,0.87828 -3.30644,2.55321 -4.13422,2.09573c-0.45743,-0.2528 -0.81725,-2.50847 -0.78395,-4.43905c-0.9577,-1.43005 -2.21458,-3.41243 -1.47913,-4.26152z" fill="#373142" stroke="none" stroke-linecap="butt"></path><path d="M160.16864,214.3422c0.00861,0.03398 0.01582,0.06802 0.02162,0.10198c1.85417,0.53717 2.03276,1.16724 3.07085,3.09927c0,0 0.62,1.15392 -0.5339,1.77393c-1.15391,0.61999 -1.77392,-0.53391 -1.77392,-0.53391c-0.69807,-1.29919 -0.41982,-1.87504 -1.88359,-1.93295l-0.39169,0.21568c0,0 -1.26983,0.32163 -1.59146,-0.9482c-0.18954,-0.74834 0.17362,-1.16736 0.50388,-1.38533c-0.03287,-0.6123 0.36986,-1.18242 0.98675,-1.33867c0.70131,-0.17763 1.41383,0.2469 1.59146,0.9482z" fill="#373142" stroke="none" stroke-linecap="butt"></path><path d="M159.27426,220.72989c-0.70131,0.17763 -1.41383,-0.2469 -1.59146,-0.9482c-0.17763,-0.70131 0.2469,-1.41383 0.9482,-1.59146c0.70131,-0.17763 1.41383,0.2469 1.59146,0.9482c0.17763,0.70131 -0.2469,1.41383 -0.9482,1.59146z" fill="#373142" stroke="none" stroke-linecap="butt"></path><path d="M155.30571,220.12426c0.03534,0.07504 0.06404,0.15454 0.08517,0.23794c0.17763,0.70131 -0.2469,1.41383 -0.94821,1.59146c-0.70131,0.17763 -1.41383,-0.2469 -1.59146,-0.9482c-0.10328,-0.40777 -0.003,-0.81934 0.23692,-1.12734c-0.03534,-0.07504 -0.06403,-0.15454 -0.08516,-0.23794c-0.17763,-0.70131 0.2469,-1.41383 0.9482,-1.59146c0.70131,-0.17763 1.41383,0.2469 1.59146,0.9482c0.10328,0.40777 0.003,0.81934 -0.23692,1.12734z" fill="#373142" stroke="none" stroke-linecap="butt"></path><path d="M155.91617,223.59862l-0.77519,-0.9899c-1.42687,-1.44903 -3.37806,-10.73369 1.52657,-9.41642c0.9007,0.24191 1.1197,1.5515 1.33462,2.459c0.21341,0.90113 -0.48184,1.82208 -0.42069,2.74611c0.12756,1.9276 1.43916,3.43551 1.92238,5.28443c0,0 0.32163,1.26983 -0.9482,1.59146c-1.26983,0.32163 -1.59146,-0.9482 -1.59146,-0.9482c-0.01586,-0.06524 -0.03297,-0.13076 -0.05129,-0.19653c-0.59609,-0.02038 -0.99674,-0.52996 -0.99674,-0.52996z" fill="#465c83" stroke="none" stroke-linecap="butt"></path><path d="M204.47521,200.50691l-3.9041,-5.04913l-8.88749,0.15091l-7.19066,9.95945l-14.83819,11.89645l-3.38476,3.22l-4.37152,3.46993l-4.93389,1.24969l-4.02582,-4.49324l0.04304,-6.04887l6.76624,-7.48926l41.26452,-28.82821l3.49913,13.81488l5.62446,2.5132l-1.5954,3.02931z" fill="none" stroke="#000000" stroke-linecap="round"></path><path d="M161.961,224.40126l-4.74967,0.94051l-4.33173,-3.62819l0.04302,-6.04888l1.90458,-2.84509l6.1771,1.58568l1.98328,2.64791l1.1872,4.68719z" fill="none" stroke="#000000" stroke-linecap="round"></path></g><path d="M158.84617,221.00419c-0.70131,0.17763 -1.41383,-0.24689 -1.59146,-0.9482c-0.17763,-0.70131 0.2469,-1.41383 0.9482,-1.59146c0.70131,-0.17763 1.41383,0.2469 1.59146,0.9482c0.17763,0.70131 -0.2469,1.41383 -0.9482,1.59146z" fill="#000000" stroke="none" stroke-linecap="butt"></path></g><g><g><g><g><path d="M201.51764,205.0489c-0.45373,2.29176 -8.51574,2.10809 -9.70496,-0.33051c-3.66498,-7.51539 0.19449,-9.10017 4.43057,-8.076c2.37787,0.57488 4.87442,1.97185 6.22535,3.60337z" fill="#4b00ff" stroke="none" stroke-linecap="butt"></path><path d="M191.60885,197.22241c0.76162,-0.19291 1.53626,-0.11609 2.24452,0.17518c0.48683,-0.99807 1.32839,-1.75441 2.40264,-2.0265c2.11343,-0.5353 4.32712,1.00642 4.94441,3.44352c0.29742,1.17423 0.16997,2.34204 -0.27835,3.29695c0.13132,0.28514 0.23918,0.58819 0.31981,0.90653c0.61729,2.4371 -0.59558,4.8467 -2.70902,5.38201c-1.78917,0.45317 -3.65022,-0.58221 -4.55368,-2.38925c-0.04456,0.01321 -0.08956,0.02557 -0.13496,0.03707c-2.11343,0.5353 -4.32711,-1.0064 -4.94439,-3.4435c-0.61729,-2.4371 0.59557,-4.84671 2.709,-5.38201z" fill="#4b00ff" stroke="none" stroke-linecap="butt"></path><path d="M192.5942,202.64523c11.54049,-2.92306 1.21276,13.06196 -4.97055,9.30253c-6.01875,-3.65939 -0.38623,-12.93087 4.83515,-9.36718z" fill="#4e00e3" stroke="none" stroke-linecap="butt"></path><path d="M201.89624,204.1606l-3.10596,3.94204l-8.22209,4.44905l-3.55361,0.37419l-1.80542,-5.32749l4.8902,-8.60106l5.65075,-3.79776l3.92911,1.10835l3.30537,4.94758c0,0 -0.22392,0.59772 -0.36664,0.97865c-0.20022,0.53445 -0.72172,1.92645 -0.72172,1.92645z" fill="#3500ff" stroke="#000000" stroke-linecap="round"></path></g><path d="M191.73501,211.85937l-5.44005,-7.05008l1.95095,-2.68541l6.60216,7.59851z" fill="#434d59" stroke="#000000" stroke-linecap="round"></path></g><g><path d="M204.56978,204.44454c0.33294,-0.08433 0.67082,-0.06559 0.98718,0.03779c1.60603,-0.3198 3.3536,0.06834 4.26748,1.46323c0.41721,0.25066 0.85057,0.40123 1.21906,0.1887c0.44941,-0.25919 1.42085,-0.93244 2.39477,-1.58781c0.3871,-1.36829 1.34647,-2.44465 2.65839,-2.77694c1.43636,-0.36381 2.92565,0.25789 3.93181,1.48061c1.34337,0.75033 1.78528,2.25772 1.25326,3.78681c0.35009,0.31028 0.62191,0.74427 0.75198,1.2578c0.30865,1.21856 -0.29779,2.42335 -1.35451,2.691c-0.31045,0.07863 -0.62521,0.06765 -0.92281,-0.01801c-0.36665,1.41871 -1.34144,2.54254 -2.6872,2.8834c-0.31039,0.07862 -0.62324,0.11121 -0.93316,0.10167c-0.2521,0.40821 -0.56776,0.76268 -0.93721,1.04328c0.13572,1.10086 -0.4532,2.12198 -1.41561,2.36575c-1.05673,0.26766 -2.16356,-0.5032 -2.47221,-1.72175c-0.04245,-0.1676 -0.06759,-0.33493 -0.07663,-0.4996c-0.81047,-0.48479 -1.50044,-1.26575 -1.93237,-2.24419c-1.80189,0.03888 -3.42038,-0.2345 -4.53109,-0.86532c-0.97127,0.09111 -1.92552,-0.64985 -2.20855,-1.76726c-0.05393,-0.21293 -0.07993,-0.42545 -0.08046,-0.6326c-0.16297,-0.34082 -0.2888,-0.72609 -0.36913,-1.15748c-0.21593,-1.15952 0.26191,-2.15168 1.08284,-2.86905c0.05512,-0.04817 0.1118,-0.09509 0.1699,-0.14076c0.24295,-0.50202 0.66497,-0.88271 1.20428,-1.01931z" fill="#4e00e3" stroke="none" stroke-linecap="butt"></path><path d="M221.16414,202.95967c0.30865,1.21856 -0.29779,2.42335 -1.35451,2.691c-0.2128,0.0539 -0.4276,0.06569 -0.63755,0.04018c-0.37707,1.4173 -1.18441,2.95826 -2.18098,4.25185c-1.15698,1.50179 -2.56901,2.67016 -3.85893,2.92449c-1.8116,0.35718 -3.209,-0.54787 -4.04727,-1.89275c-0.32352,-0.47434 -0.57437,-1.02133 -0.72681,-1.62315c-0.10666,-0.42109 -0.15817,-0.84154 -0.15937,-1.25173c-2.20757,0.43075 -4.02489,-0.31565 -4.24305,-3.23327c-0.18909,-2.52905 3.46238,-7.91681 6.97635,-10.34704c0.48473,-0.56691 1.11991,-0.98417 1.86541,-1.173c0.49937,-0.12648 1.00403,-0.13928 1.49204,-0.05343c0.20065,0.01542 0.39452,0.0533 0.58041,0.11548c0.17412,0.05823 0.33612,0.14041 0.48845,0.24179c1.13451,0.57016 2.05855,1.6938 2.42228,3.12983c0.25104,0.99113 0.19653,1.97842 -0.10014,2.83745c0.49307,0.25025 0.91382,0.75017 1.22068,1.58099c0.98984,-0.12461 1.97467,0.623 2.26298,1.76129z" fill="#3500ff" stroke="none" stroke-linecap="butt"></path><path d="M215.94963,193.39433l2.40722,7.92453l-5.84832,7.70901l3.30334,-5.91112l4.15848,-1.74524l2.21927,7.97215l-8.77758,7.98964l-4.10542,-3.57326l-6.40754,-1.60624l-1.04309,-4.11823l1.16596,-3.29385l3.49131,-5.95873l4.43949,-4.5843z" fill="#3500ff" stroke="#000000" stroke-linecap="round"></path></g></g><g><path d="M216.21052,188.47423c0.30865,1.21856 -0.29779,2.42335 -1.35451,2.691c-0.04176,0.01058 -0.08359,0.01953 -0.12547,0.0269c-1.36521,2.16121 -3.56871,2.54521 -5.31146,1.72388c-1.67109,0.55167 -2.4323,-1.40314 -2.4323,-1.40314c-1.15243,-3.16929 -2.08177,-5.79104 0.94636,-7.17916c0.5928,-0.27176 -1.30291,-0.29696 -1.93958,-0.52424c-2.54061,-0.90693 -3.4885,-0.46798 -4.85404,-3.96782c-1.09638,-2.81001 0.68704,-8.87377 3.86524,-9.00287c1.17694,-0.04781 2.86155,1.40216 4.26871,3.13501c0.90326,-0.1182 1.80203,-0.1906 2.65915,0.16448c1.34828,0.55857 2.83145,3.41537 3.12411,5.65199c0.19942,0.40488 0.26393,0.75649 0.26393,0.75649l0.4344,2.37341c0.1085,0.86197 0.21699,1.72392 0.3255,2.5859c0,0 0.14196,1.13133 -0.47757,1.85022c0.2801,0.29557 0.49596,0.67756 0.60752,1.11802z" fill="#4b00ff" stroke="none" stroke-linecap="butt"></path><path d="M204.32917,190.05836c0.0417,-0.00773 0.07731,-0.01974 0.10725,-0.03579zM204.12467,188.67723c-0.95498,-1.7595 -3.00068,-4.81825 -1.24755,-6.96942c0.90156,-1.10625 2.74858,-0.36756 4.11436,-0.07122c0.78998,0.17142 1.40817,0.94816 2.11225,1.42223c0,0 1.74811,1.21747 0.79033,3.1203c-0.51762,1.02836 -1.26605,1.14536 -1.84464,1.03573c0.62488,0.77347 1.13624,1.77985 1.12296,2.92817c-0.01492,1.28899 -1.23053,2.07858 -1.84579,3.11787l-3.67731,-1.11048c0,0 -1.3555,-1.7567 0.10592,-3.17689c0.12416,-0.12068 0.2476,-0.21841 0.36948,-0.29624z" fill="#4e00e3" stroke="none" stroke-linecap="butt"></path><path d="M215.45507,191.62849l-9.24918,2.15751l-2.38383,-1.80351l-0.23381,-3.45913l-1.05781,-4.17632l-2.41071,-6.98167l1.78396,-5.6368l5.30701,-0.60349l5.09484,4.26484l3.30941,5.45779l0.95246,8.83244z" fill="#3500ff" stroke="#000000" stroke-linecap="round"></path></g></g></g><g><path d="M141.40592,213.21581c-3.5801,-1.64999 -5.1497,-6.87171 -5.18404,-10.8511c-0.36015,-0.03117 -0.67747,-0.28567 -0.77123,-0.65585c-0.06845,-0.27027 -0.00276,-0.54301 0.15516,-0.74795l0.55764,-0.73661l0.0665,0.05033l0.08883,-0.20881c0.07663,-0.00794 0.15327,-0.01586 0.22991,-0.02379l-0.03963,-0.09042l0.34424,-0.15093l0.20628,-0.48762c0,0 0.44699,-0.75023 1.19722,-0.30324c0.75023,0.44699 0.30324,1.19721 0.30324,1.19721l0.01235,-0.17368c-0.01149,0.10014 -0.02176,0.19915 -0.03084,0.29707c0.00712,0.09313 -0.00095,0.18503 -0.02246,0.27273c-0.03422,0.47704 -0.03965,0.92845 -0.01941,1.36009c0.06929,0.36375 0.10419,0.76532 0.1172,1.13649c0.33289,2.06583 1.27398,3.74802 2.39768,5.85145c0.59684,1.11723 0.08057,2.08601 1.39636,2.60316c0,0 0.79501,0.3614 0.4336,1.1564c-0.17406,0.38289 -0.44868,0.49755 -0.68664,0.51352c-0.35898,0.17019 -0.75195,-0.00845 -0.75195,-0.00845z" fill="#9bb3c1" stroke="none" stroke-linecap="butt"></path><path d="M141.81959,213.80814c-0.648,-0.58545 -0.06256,-1.23344 -0.06256,-1.23344l0.02277,-0.02322c-0.03855,-0.15994 -0.02689,-0.35344 0.08222,-0.58125c0.32361,-0.67567 0.94926,-0.49407 1.12056,-0.42881c0.94135,-0.6911 2.34328,-1.74055 3.04756,-1.86607c-0.35248,-0.74827 -1.23235,-1.56955 -1.72841,-2.70694c-0.46567,-1.06771 -0.35954,-2.43552 -0.86679,-3.4714c-0.01725,-0.0352 -0.03501,-0.06986 -0.05325,-0.104c-0.49853,-0.52096 -0.99707,-1.02383 -1.467,-1.51148c-1.41144,-0.94601 -2.98134,-1.37666 -2.24402,-3.09832l-0.293,-0.13319l0.38234,-0.84106c0.10505,-0.23644 0.31365,-0.42405 0.58391,-0.49251c0.46754,-0.11842 0.94257,0.1646 1.06099,0.63214l0.18817,0.74293c0.20822,0.31953 0.41645,0.63909 0.62467,0.95862c0.01497,0.01747 0.03001,0.03487 0.04514,0.05217c0.37524,0.2673 0.70637,0.60081 1.00391,0.98c1.03008,0.88723 2.18042,1.6444 3.04272,2.71311c3.49324,4.32947 4.01444,11.57237 -1.71225,12.49204l0.04065,0.1605l-0.84657,0.21442c-0.46754,0.11842 -0.94256,-0.1646 -1.06098,-0.63214c-0.05129,-0.20251 -0.02728,-0.40642 0.05444,-0.58216l0.33443,-0.73565c0.00767,-0.1707 -0.04069,-0.34611 -0.12621,-0.50937c-0.16509,0.14453 -0.64875,0.47918 -1.17344,0.00514zM145.55997,213.92675l-0.72537,-0.08063c-0.00237,-0.00022 -0.00473,-0.00041 -0.00709,-0.00064c0.0046,0.09581 0.0065,0.19639 0.00598,0.30226c0.21228,-0.08419 0.46452,-0.15056 0.72649,-0.22098z" fill="#373142" stroke="none" stroke-linecap="butt"></path><path d="M181.24652,191.63579c-1.09233,1.04362 -2.18107,2.09184 -3.27163,3.13769c-7.89118,5.50669 -16.94029,10.75982 -24.1454,17.06151l-0.31159,0.35998c0,0 -0.87815,0.972 -1.85016,0.09384c-0.972,-0.87815 -0.09385,-1.85015 -0.09385,-1.85015l0.54447,-0.58754c7.33158,-6.252 16.2288,-11.60679 24.1949,-17.10314c6.70989,-6.51154 13.46568,-13.02115 21.32807,-18.06528c0,0 1.10297,-0.70669 1.80965,0.39627c0.26176,0.40853 0.27524,0.76268 0.18847,1.04671c0.13146,0.15035 0.23038,0.33311 0.28278,0.53997c0.02943,0.11618 0.04233,0.23266 0.04019,0.34696l0.00442,1.43086l-0.1986,0.00061l0.11931,0.45224c-4.47741,5.70274 -11.80731,8.68053 -17.79554,12.51839c0,0 -0.38482,0.24655 -0.84548,0.2211z" fill="#313b48" stroke="none" stroke-linecap="butt"></path><path d="M158.14757,185.37024c1.76164,-0.69141 4.08994,-0.96478 6.26131,-1.3821c-0.0516,-0.09461 -0.09227,-0.19717 -0.11995,-0.30646c-0.16695,-0.65914 0.19801,-1.32818 0.82473,-1.55373l1.48666,-0.55743c2.8657,-1.07189 6.76991,-3.92819 10.19824,-5.11312c0.38084,-0.22561 0.76292,-0.45015 1.14622,-0.67352c0.50677,-0.32067 1.02978,-0.62989 1.57377,-0.92406l0.61419,-0.33001c4.96358,-2.79624 10.11522,-5.35872 15.3873,-7.41415c4.28829,-0.44149 3.5784,2.88729 4.82136,6.18913l0.40568,0.92036c0,0 0.52602,1.19969 -0.67367,1.72571c-0.31186,0.13673 -0.5782,0.15686 -0.8016,0.11176c-2.37202,2.03175 -4.27166,4.5435 -6.59238,6.55058c-4.81245,4.1621 -11.29285,6.68504 -16.38918,10.58024c-5.75668,4.90672 -11.931,9.76431 -18.24561,14.15973c-1.02758,0.71526 -5.49087,4.57578 -6.67852,4.23217c-1.94575,-0.56297 -2.17508,-2.49471 -2.57134,-3.98396c-1.2555,-3.30001 -9.21811,-8.43588 -7.83756,-11.43868c0.65539,-1.42555 4.47543,-3.06046 5.84456,-3.86902c3.81581,-2.25346 7.43437,-4.82261 11.3458,-6.92345z" fill="#465c83" stroke="none" stroke-linecap="butt"></path><path d="M141.55582,196.33749c2.29246,-2.31015 5.97392,-2.91932 8.86864,-4.4311c2.67152,-1.3952 5.47034,-3.33631 8.3595,-5.0887c0.96779,-2.41011 6.37097,-3.3205 8.68013,-4.14739l-0.0744,-0.20525l1.26215,-0.45748c0.62395,-1.92905 2.83996,-2.58326 4.12525,-2.04717c0.30271,-0.37468 0.67599,-0.6854 1.09993,-0.96522c0.0499,-0.14787 0.10698,-0.29296 0.17174,-0.43505c1.13913,-2.49962 4.28852,-2.64872 6.50046,-3.61635c3.22575,-1.41114 5.92738,-3.81627 9.04642,-5.39696c1.79871,-0.70126 3.66885,-1.05364 5.46314,-1.75848l1.31055,-0.51198c0.05592,-0.02279 0.11405,-0.04198 0.17425,-0.05723c0.70131,-0.17763 1.41383,0.2469 1.59146,0.9482c0.16558,0.65372 -0.19205,1.3172 -0.80937,1.54809l-1.3136,0.51317c-0.10888,0.04233 -0.21802,0.08333 -0.32742,0.12317c-0.40729,0.95104 -1.88378,1.16657 -3.24339,1.85463c-4.55091,2.30308 -9.09415,4.45618 -13.45913,7.03476c-0.41581,0.24562 -1.66555,0.78062 -2.7523,1.34915c-0.339,3.23539 2.31092,8.18763 2.47437,11.2135c0,0 0.06636,1.30825 -1.24189,1.37462c-1.30825,0.06636 -1.37461,-1.2419 -1.37461,-1.2419c-0.09098,-1.93998 -1.01583,-4.34212 -1.71322,-6.72384c-0.03813,0.01351 -0.07719,0.02538 -0.11717,0.03551c-0.48652,0.12323 -0.97841,-0.04333 -1.2934,-0.39105l-1.23168,-1.30849l0.3244,-0.30535c-0.31707,-0.37725 -0.52055,-0.80256 -0.52525,-1.28793c-0.00369,-0.3804 -0.44566,0.67921 -0.42521,1.05908c0.05797,1.07662 0.79225,2.01175 1.05747,3.05679c0.59177,2.33199 3.01817,6.95079 2.57729,9.23665c-0.6183,3.20563 -5.48231,4.60678 -7.90854,5.81736c-0.69807,0.34831 -1.3035,1.44743 -2.03037,1.1641c-0.93273,-0.36358 -1.04181,-1.7098 -1.56271,-2.56469c-0.80099,-3.15166 -1.29292,-6.49222 -3.02267,-9.2995c-0.19129,-0.31044 -0.44983,-0.61634 -0.70253,-0.93442c-3.21273,1.77223 -6.24494,3.92027 -9.53751,5.53176c-2.10927,1.03234 -5.23427,1.4445 -6.6954,3.3l-0.84983,0.46695c0,0 -1.26983,0.32163 -1.59146,-0.9482c-0.23237,-0.91743 0.36595,-1.33993 0.71596,-1.50377z" fill="#9bb3c1" stroke="none" stroke-linecap="butt"></path><path d="M190.26137,185.68878l-3.78044,-14.20427" fill="none" stroke="#000000" stroke-linecap="round"></path><path d="M194.20728,183.95864l-3.86739,-14.54759" fill="none" stroke="#000000" stroke-linecap="round"></path><path d="M194.45522,166.90732l3.00909,14.76499" fill="none" stroke="#000000" stroke-linecap="round"></path><path d="M184.50572,171.61947l-1.12368,-2.27279l8.96301,-4.2796l0.86507,1.97296z" fill="#373142" stroke="#000000" stroke-linecap="round"></path><path d="M139.91709,196.79628l-2.84705,-4.02837l7.12049,-2.89957l5.01484,-3.27958l4.80422,-1.94752l5.06959,0.54266z" fill="#373142" stroke="#000000" stroke-linecap="round"></path><path d="M178.89576,193.31202c-0.51349,-0.70638 0.19289,-1.21986 0.19289,-1.21986l0.85445,-0.59617c0.29485,-0.12927 0.5897,-0.25857 0.88454,-0.38784c0,0 0.79979,-0.35067 1.15047,0.44912c0.35067,0.79979 -0.44912,1.15048 -0.44912,1.15048c-0.29485,0.12927 -0.5897,0.25856 -0.88454,0.38784l-0.52882,0.40935c0,0 -0.70637,0.5135 -1.21987,-0.19288z" fill="#313b48" stroke="none" stroke-linecap="butt"></path><path d="M163.90388,184.81769c-0.21442,-0.84657 0.63214,-1.06099 0.63214,-1.06099l-0.04812,0.1073c2.7842,-2.39986 5.6858,-5.10351 9.34913,-6.06658c0,0 0.84656,-0.21442 1.06098,0.63214c0.21442,0.84657 -0.63213,1.06099 -0.63213,1.06099c-3.37308,0.81282 -6.1022,3.5082 -8.63721,5.69606l-0.6638,0.26324c0,0 -0.84657,0.21442 -1.06099,-0.63214z" fill="#9bb3c1" stroke="none" stroke-linecap="butt"></path><path d="M146.24181,209.78605l0.24748,-0.06268l0.35737,1.41094c0.11842,0.46754 -0.1646,0.94256 -0.63214,1.06098c-0.35195,0.08914 -0.70812,-0.04918 -0.91325,-0.32247l-0.12908,-0.16418c-3.4935,1.17147 -8.29,-6.3064 -6.98528,-9.82182c0.35497,-0.95642 1.65485,-1.87942 2.73218,-1.60656c1.32743,0.33621 1.71738,2.30393 2.96929,3.04485c2.06601,1.57475 1.77852,2.93657 1.80749,4.70861c0.22891,0.53566 0.42089,1.09568 0.54594,1.75233z" fill="#000000" stroke="none" stroke-linecap="butt"></path><path d="M142.62841,212.7801l0.11287,-0.02859c1.53946,-0.38162 3.33471,-0.31919 5.00117,-0.10113l-0.00936,-0.07524l0.55635,-0.06918c-0.27822,-0.50223 -0.1346,-0.87802 -0.14485,-2.00217c0,0 -0.0027,-0.87328 0.87059,-0.87597c0.87329,-0.00269 0.87597,0.87058 0.87597,0.87058c-0.00502,2.71425 0.58205,4.16279 -2.58658,5.88773l-0.06212,0.00122l0.00795,0.02121l-0.9754,0.36573c-0.03354,0.0131 -0.06825,0.02424 -0.10406,0.03331c-0.46754,0.11842 -0.94256,-0.1646 -1.06098,-0.63214c-0.08119,-0.32054 0.02629,-0.64459 0.25257,-0.85483l0.66356,-0.63986l0.08393,0.08704c0.06969,-0.09885 0.14187,-0.19363 0.21846,-0.28694c-1.11386,-0.00028 -2.49544,-0.20852 -3.15836,-0.03622l-0.11287,0.02859c0,0 -0.84656,0.21442 -1.06098,-0.63214c-0.21442,-0.84657 0.63214,-1.06098 0.63214,-1.06098z" fill="#373142" stroke="none" stroke-linecap="butt"></path><path d="M136.22828,198.8173l-0.03013,0.40963c2.03013,-1.54346 5.04147,-2.29155 3.3243,1.40357c0,0 -0.37724,0.78759 -1.16485,0.41038c-0.58109,-0.27831 -0.52813,-0.78001 -0.46039,-1.02397c-0.16791,0.19196 -0.37967,0.39838 -0.63793,0.59733l-1.61335,-0.15028c0,0 -0.82331,-0.29118 -0.53214,-1.1145c0.29117,-0.82332 1.1145,-0.53215 1.1145,-0.53215z" fill="#9bb3c1" stroke="none" stroke-linecap="butt"></path><path d="M136.38618,203.31054c-0.46754,0.11842 -0.94257,-0.1646 -1.06099,-0.63213c-0.11842,-0.46754 0.16461,-0.94257 0.63214,-1.06099c0.46754,-0.11842 0.94256,0.1646 1.06098,0.63214c0.11842,0.46754 -0.1646,0.94256 -0.63214,1.06098z" fill="#9bb3c1" stroke="none" stroke-linecap="butt"></path><path d="M141.04832,213.04267c-0.57038,-0.6613 0.09092,-1.23167 0.09092,-1.23167l0.24617,-0.21233c-0.07326,-0.09315 -0.12863,-0.20283 -0.1596,-0.3251c-0.11842,-0.46754 0.1646,-0.94257 0.63214,-1.06099c0.46754,-0.11842 0.94256,0.1646 1.06098,0.63214c0.01565,0.06177 0.02431,0.12368 0.02643,0.18487c0.07184,0.04749 0.14372,0.1104 0.2142,0.19212c0.57038,0.6613 -0.09092,1.23169 -0.09092,1.23169l-0.78863,0.68022c0,0 -0.66129,0.57038 -1.23167,-0.09093z" fill="#9bb3c1" stroke="none" stroke-linecap="butt"></path><path d="M152.70972,212.29802c0.00486,0.01554 0.00933,0.0313 0.01338,0.04728c0.11842,0.46754 -0.1646,0.94257 -0.63214,1.06099c-0.46754,0.11842 -0.94256,-0.1646 -1.06098,-0.63214c-0.07449,-0.29407 0.00985,-0.59111 0.19903,-0.80051c-0.00487,-0.01555 -0.00933,-0.03131 -0.01338,-0.04728c-0.11842,-0.46754 0.1646,-0.94257 0.63214,-1.06099c0.46754,-0.11842 0.94257,0.1646 1.06099,0.63214c0.07449,0.29408 -0.00985,0.59111 -0.19903,0.80051z" fill="#313b48" stroke="none" stroke-linecap="butt"></path><path d="M199.31194,168.05192l2.2519,6.00582l-2.59806,7.05158l-8.05897,4.96399l-33.16986,23.38062l-10.02517,8.01941l-5.3717,-1.01415l-5.21358,-5.43835l-2.6432,-7.55076l0.2863,-4.63933l4.33271,-1.64544l21.35018,-12.34928l15.34886,-8.63714l15.65322,-7.43553l6.09054,-2.63869z" fill="none" stroke="#000000" stroke-linecap="round"></path><path d="M146.83985,216.54122l-2.87198,-0.27353l-6.70191,-5.90983l-1.94869,-6.11279l-0.67698,-5.83432l3.61706,-2.31749l8.25207,4.9166l4.2736,12.1303z" fill="none" stroke="#000000" stroke-linecap="round"></path></g></g><g><path d="M315.07092,197.682c1.07229,-0.15423 2.15222,0.64499 2.26411,1.42293c0.11189,0.77793 -3.83897,5.95334 -4.91126,6.10758c-0.57562,0.08279 -0.43299,12.46391 -0.89132,11.94473c-0.0933,-0.10568 -2.7014,0.20598 -2.84458,-0.99333c-0.46373,-3.88454 1.40188,-12.86039 1.36228,-13.13573c-0.01333,-0.09264 -2.0191,4.22682 -5.04572,5.86314c-5.52943,2.98943 -13.72851,4.49501 -13.31822,3.98784c0.37275,-0.46081 -4.1781,0.09412 -4.2842,-6.48409c-0.03526,-2.18609 0.95482,-9.9055 4.27288,-12.71675c4.17633,-3.53842 10.70341,-2.55863 12.20889,-3.50093c3.22703,-2.01984 7.65772,2.03998 9.78573,4.77431c1.20656,1.55034 1.28367,2.74725 1.40144,2.73031z" fill="#516087" stroke="none" stroke-width="0" stroke-linecap="butt"></path><path d="M292.27184,200.18418c0.69383,-0.0998 1.38133,0.68856 1.53557,1.76085c0.15423,1.07229 -0.28319,2.02246 -0.97704,2.12226c-0.69383,0.0998 -1.38133,-0.68856 -1.53557,-1.76086c-0.15423,-1.07229 0.28321,-2.02246 0.97704,-2.12225z" fill="#9ec6c6" stroke="none" stroke-width="0" stroke-linecap="butt"></path><path d="M309.76202,203.18622c0.50013,-0.07194 1.15476,0.33456 1.72934,0.65611c0.58486,0.32731 1.08755,0.57213 1.35066,0.76603c0.92337,0.68053 -0.71592,4.61043 -1.72513,4.75559c-0.68349,0.09831 -2.5076,-0.1614 -2.88562,-1.20535c-0.05133,-0.14177 -0.16654,3.44634 0.11558,6.27001c0.15858,1.58722 1.84177,3.05061 0.31424,3.18662c-0.82198,0.07318 -1.85235,1.34055 -3.33426,1.7467c-2.11058,0.57844 -4.85662,0.24878 -6.81919,-0.58312c-1.62779,-0.68998 -4.68851,-1.22696 -6.00272,-2.39555c-3.14972,-2.80065 -3.64526,-6.69342 -3.64526,-6.69342c0,0 2.38333,1.59662 7.43327,0.00408c1.67852,-0.52934 6.94368,-2.71432 9.95467,-6.21451c3.87145,-4.50045 5.53815,-10.4764 5.53815,-10.4764c0,0 3.3135,1.66854 2.94551,3.43999c-0.29558,1.42286 -1.72502,2.74837 -2.84849,4.03105c-1.23911,1.4147 -2.16494,2.71852 -2.12071,2.71216z" fill="#393b47" stroke="none" stroke-width="0" stroke-linecap="butt"></path><path d="M312.40013,215.44028c0,0 -1.65658,-0.83909 -2.38019,-1.21939c-0.54682,-0.28738 -1.58161,-0.86278 -1.58161,-0.86278l0.25933,-6.09905c0,0 1.13148,0.13843 1.64487,0.43702c0.58078,0.33779 1.66269,1.48668 1.66269,1.48668z" fill="#9ec6c6" stroke="none" stroke-width="0" stroke-linecap="butt"></path><path d="M347.79613,211.73828c0.99081,-0.14252 2.19872,0.79949 2.37072,1.99531c0.172,1.19582 -3.08583,7.07388 -4.07664,7.21639c-0.99081,0.14252 -34.30187,-8.41232 -34.47387,-9.60813c-0.02361,-0.16415 1.71334,-8.35691 2.84804,-8.42304c7.13141,-0.4157 32.47693,8.94242 33.33175,8.81947z" fill="#2e2230" stroke="none" stroke-width="0" stroke-linecap="butt"></path><path d="M317.41618,201.58502c0.50081,-0.07204 3.50315,-6.45091 4.42141,-6.59385c1.44135,-0.22435 3.2845,-1.17652 5.10207,-0.88857c2.34756,0.37191 2.65456,2.08561 4.77869,3.19554c1.58531,0.82839 3.68005,0.78581 5.24712,1.51157c1.51472,0.70152 2.52721,2.17201 2.63636,2.93084c0.13048,0.90715 5.84954,2.5101 7.27505,5.83761c0.87747,2.04824 -1.30475,11.6931 -1.44258,13.55242c-0.14968,2.01932 -5.31008,3.00866 -5.68935,4.15975c-0.69579,2.1117 -2.55196,-2.88429 -3.50453,-1.61086c-0.63755,0.85229 -1.18295,1.50942 -1.90165,1.6128c-0.73468,0.10567 -2.82577,1.57544 -3.50362,0.8815c-0.47487,-0.48615 -2.28113,7.60372 -2.65032,6.7651c-0.49126,-1.11593 -4.55618,1.46264 -4.74547,-0.92099c-0.07632,-0.96094 -3.46361,-2.98312 -3.36602,-4.2066c0.55918,-7.01063 6.90263,-16.39364 6.66687,-18.03274c-0.56514,-3.92912 -13.11643,-7.64804 -9.32398,-8.19352z" fill="#2e00e3" stroke="none" stroke-width="0" stroke-linecap="butt"></path><path d="M324.63554,199.53633c1.97247,0.31586 4.16588,1.7359 4.74641,4.48281c0.34861,1.64954 -0.05412,3.14041 -0.47442,5.12652c-0.33109,1.56457 -0.59236,3.66446 -1.05851,4.83025c-0.29758,0.74422 4.46477,-10.00331 8.64866,-2.46748c0.56199,1.01225 0.17674,5.53418 -0.4621,8.97064c-0.08805,0.47364 -0.18328,0.9209 -0.2807,1.33744c-0.0949,0.40579 -0.83251,2.13747 -0.45269,2.41281c0.10003,0.07251 1.01244,-0.57992 1.87122,-2.53013c1.05526,-2.39643 -0.32569,3.47662 1.31035,2.14835c5.69033,-4.61985 2.74876,-11.06222 2.65531,-11.29661c-0.23096,-0.57929 -2.86683,-5.48576 -2.93316,6.32309c-0.02005,3.56882 -3.4422,6.29016 -3.45328,6.33241c-0.14314,0.54526 -4.63461,1.11496 -5.88757,0.62598c-2.73846,-1.0687 -3.42426,-4.31073 -4.1315,-3.56379c-0.49147,0.51908 1.85863,1.99395 1.41227,5.33017c-0.45585,1.17232 -1.1697,1.85972 -2.13161,1.91006c-1.48098,0.07749 -3.39525,-1.15754 -5.58731,-1.6762c-2.02765,-0.47975 -4.64354,0.67831 -6.20365,-0.19516c-1.80084,-1.00826 -2.81853,-3.05077 -2.81969,-3.17875c-0.03433,-3.77661 0.60412,-5.80292 1.61747,-6.39286c0.71255,-0.41483 1.97765,0.65772 1.73417,-1.03498c-0.58971,-4.09994 1.90932,-19.0913 11.88033,-17.4946z" fill="#3500ff" stroke="none" stroke-width="0" stroke-linecap="butt"></path><path d="M336.83679,223.27884c0,0 -0.90815,1.4582 -1.93556,1.9959c-1.02742,0.53769 -1.67463,0.84705 -2.78504,1.00676c-1.11041,0.15971 -1.78243,0.11466 -2.8569,-0.19525c-1.07447,-0.30992 -1.534,-0.63659 -2.5186,-1.35524c-0.9846,-0.71865 -2.05736,-2.12879 -2.05736,-2.12879c0,0 -1.44921,0.95043 -2.51137,1.27048c-1.06216,0.32005 -1.3558,0.61049 -2.78571,0.29965c-1.42991,-0.31084 -2.50315,-1.02051 -3.36739,-1.63727c-0.86425,-0.61676 -1.13805,-0.73329 -1.69895,-1.97828c-0.86799,-1.92662 -0.96065,-3.56924 -1.06573,-5.30228c-0.1051,-1.73304 -0.08564,-1.92594 0.4766,-4.41281c0.56225,-2.48686 1.15733,-4.28518 1.9315,-6.23853c0.77417,-1.95336 1.60969,-3.42398 2.442,-4.79653c0.83231,-1.37255 1.29538,-2.21941 2.45759,-3.28333c1.16221,-1.06392 2.15768,-1.56933 3.43452,-2.11047c1.27685,-0.54114 2.13721,-1.00756 3.42163,-0.79524c1.28443,0.21232 1.91389,1.03458 2.78775,1.82167c0.87386,0.78708 1.25428,1.96809 1.85488,2.35996c0.6006,0.39187 0.67484,-0.19086 1.82437,0.04068c1.14954,0.23154 1.77912,0.34447 2.85758,0.90236c1.07846,0.5579 1.91711,1.24503 2.4908,1.86438c0.5737,0.61934 -0.00055,0.90368 0.97761,1.87997c0.97816,0.97629 1.23815,0.68719 2.9152,2.00539c1.03953,0.8171 2.73805,1.5039 3.61203,2.87281c0.53599,0.8395 0.59302,2.22247 0.49502,3.20438c-0.25781,2.58304 -0.39968,4.49305 -0.8705,6.59107c-0.47082,2.09802 -1.12683,4.12444 -1.77693,5.20601c-0.65009,1.08157 -1.3414,1.32851 -2.54369,1.98234c-1.20229,0.65383 -2.27235,1.28816 -3.26571,1.17692c-0.99335,-0.11123 -1.93962,-2.24675 -1.93962,-2.24675z" fill="none" stroke="#000000" stroke-width="2" stroke-linecap="round"></path><path d="M329.01864,211.06751c0,0 -1.1648,4.21203 -1.96382,6.95039c-0.97596,3.34477 -2.50799,4.80602 -2.50799,4.80602" fill="none" stroke="#000000" stroke-width="2" stroke-linecap="round"></path><path d="M338.42593,213.95764c0,0 -0.2667,3.68097 -0.55518,5.33813c-0.2622,1.5062 -1.10446,4.19527 -1.10446,4.19527" fill="none" stroke="#000000" stroke-width="2" stroke-linecap="round"></path><path d="M329.54386,226.36599c0,0 0.26947,0.98333 0.19999,2.09284c-0.06948,1.10951 -0.0085,2.15088 -0.25611,2.92005c-0.24762,0.76918 -0.33498,1.10879 -1.2103,1.63512c-0.87532,0.52633 -1.62858,0.51547 -2.57352,0.37016c-0.94493,-0.14531 -1.28515,-0.432 -2.17894,-1.101c-0.89379,-0.669 -1.41003,-1.13121 -2.15147,-1.93649c-0.81374,-0.88384 -1.20796,-1.53251 -2.01009,-1.98015c-0.80212,-0.44763 -0.98493,-0.61914 -2.7441,-0.54565c-1.75917,0.07349 -2.63211,0.52603 -3.57756,0.41354c-0.84992,-0.10112 -1.40207,-0.67577 -2.12268,-1.41218c-0.7206,-0.73641 -1.12694,-1.32755 -1.43048,-2.21895c-0.30354,-0.8914 -0.23117,-1.55079 -0.14372,-2.40403c0.08744,-0.85324 0.20039,-1.18879 0.6061,-2.10776c0.40571,-0.91897 0.65318,-1.57713 1.29897,-2.20742c0.64577,-0.63029 2.03318,-1.15508 2.03318,-1.15508" fill="none" stroke="#000000" stroke-width="2" stroke-linecap="round"></path><path d="M347.53361,211.54776c0,0 1.50846,0.1951 2.06776,0.86831c0.5593,0.67321 0.52462,1.65193 0.46987,2.18615c-0.05475,0.53422 -0.51393,2.12225 -1.14991,3.3517c-0.636,1.22944 -1.19322,2.01463 -2.19449,3.11337c-1.00128,1.09875 -2.3697,1.89514 -2.3697,1.89514" fill="none" stroke="#000000" stroke-width="2" stroke-linecap="round"></path><path d="M312.30805,216.48725c0,0 -0.40725,-2.35278 -0.45626,-3.87451c-0.04901,-1.52174 -0.10808,-2.12052 0.10984,-3.45079c0.21791,-1.33027 0.47123,-2.52994 1.12744,-4.1023c0.65622,-1.57237 1.01396,-1.90449 2.00539,-2.9152c0.99144,-1.01072 2.84064,-2.02505 2.84064,-2.02505" fill="none" stroke="#000000" stroke-width="2" stroke-linecap="round"></path><path d="M310.69724,217.93133c0,0 -1.13202,-0.28253 -1.44336,-0.90371c-0.31134,-0.62119 -1.16287,-2.84239 -1.29149,-4.76466c-0.12862,-1.92228 0.12439,-3.57527 0.68746,-5.75651c0.56307,-2.18123 0.92861,-3.15344 2.11658,-4.95177c1.18797,-1.79834 1.62749,-2.06738 2.99521,-3.05757c1.36773,-0.99019 2.17692,-1.02031 2.17692,-1.02031c0,0 0.89897,0.57044 1.21934,0.92039c0.27044,0.29543 0.5786,1.04364 0.5786,1.04364" fill="none" stroke="#000000" stroke-width="2" stroke-linecap="round"></path><path d="M309.42404,217.50828c0,0 -1.35326,1.01948 -2.41691,1.45896c-1.06364,0.43948 -1.92141,0.69896 -3.20944,0.86574c-1.28803,0.16678 -2.36022,0.31802 -3.83248,0.04609c-1.47225,-0.27193 -2.82862,-0.72037 -4.47043,-1.57964c-1.6418,-0.85927 -2.82416,-1.46272 -4.16061,-2.93758c-1.33645,-1.47486 -1.90796,-2.78507 -2.80469,-4.74907c-0.89674,-1.964 -1.03231,-2.35759 -1.1776,-3.97281c-0.1453,-1.61523 -0.11408,-3.33557 0.33424,-5.40262c0.44832,-2.06705 0.81043,-2.81986 1.79184,-4.39992c0.98141,-1.58007 1.76825,-2.69332 3.37621,-3.9206c1.60796,-1.22728 2.59736,-1.55157 4.4528,-2.05487c1.85544,-0.50331 3.55208,-0.61168 5.85414,-0.741c2.30205,-0.12931 2.18589,-0.20107 3.47904,0.0721c1.29315,0.27316 2.47115,0.67976 3.9188,1.4906c1.44765,0.81085 1.91389,1.48645 3.00062,2.59928c1.08673,1.11283 2.44945,2.98165 2.44945,2.98165" fill="none" stroke="#000000" stroke-width="2" stroke-linecap="round"></path><path d="M307.73323,214.18178c0,0 -1.39622,0.84815 -2.44064,1.29398c-1.04441,0.44583 -1.78321,0.68837 -3.08198,1.04946c-1.29877,0.36109 -2.01583,0.42421 -3.1109,0.38009c-1.09507,-0.04411 -1.53075,-0.15751 -2.57442,-0.57264c-1.04367,-0.41515 -1.43366,-0.65717 -2.29217,-1.18574c-0.85849,-0.52858 -2.16034,-1.32867 -3.54254,-2.38664c-1.38219,-1.05795 -2.06663,-1.95906 -2.06663,-1.95906" fill="none" stroke="#000000" stroke-width="1.5" stroke-linecap="round"></path><path d="M307.4668,211.62698c0,0 -1.04578,0.33045 -2.12718,0.59568c-0.72532,0.1779 -1.36011,0.34143 -1.89762,0.4547c-1.33888,0.28216 -2.21689,0.41871 -3.4691,0.4653c-1.2522,0.04659 -1.71201,0.12849 -3.23882,-0.27503c-1.52681,-0.40351 -1.615,-0.27448 -3.74909,-1.48134c-2.1341,-1.20684 -5.2503,-3.72378 -5.2503,-3.72378" fill="none" stroke="#000000" stroke-width="1.5" stroke-linecap="round"></path><path d="M308.02883,207.80811c0,0 -1.3172,0.49493 -3.0352,0.6723c-1.718,0.17737 -2.79287,0.25232 -4.43111,0.09852c-1.63825,-0.15379 -2.73131,-0.45534 -4.13507,-0.887c-1.40375,-0.43166 -1.45301,-0.45659 -3.46615,-1.38733c-2.01314,-0.93074 -5.3581,-3.06843 -5.3581,-3.06843" fill="none" stroke="#000000" stroke-width="1.5" stroke-linecap="round"></path><path d="M288.63594,198.70968c0,0 1.51172,0.03718 3.12755,0.28695c0.97969,0.15143 1.96792,0.47047 2.76591,0.65023c2.11413,0.47621 2.88881,0.78103 4.78138,1.40021c1.89257,0.61918 2.75371,0.81843 4.42321,1.48541c0.61266,0.24476 1.55731,0.64575 2.32869,0.99585c1.33063,0.60391 2.44411,1.28117 2.44411,1.28117" fill="none" stroke="#000000" stroke-width="1.5" stroke-linecap="round"></path><path d="M292.10525,193.56336c0,0 2.82282,-0.04871 4.49732,0.1277c1.6745,0.1764 2.74306,0.3635 4.38501,0.98575c1.64195,0.62225 2.99556,1.27685 4.69754,2.45623c0.6998,0.48492 1.75546,1.12224 2.62298,1.88243c1.24237,1.08868 2.21761,2.27073 2.21761,2.27073" fill="none" stroke="#000000" stroke-width="1.5" stroke-linecap="round"></path><path d="M300.10649,190.18984c0,0 3.9653,0.895 6.18204,2.00698c2.21674,1.11197 2.72897,1.7691 4.20331,3.23453c1.47434,1.46543 2.63385,3.5613 2.63385,3.5613" fill="none" stroke="#000000" stroke-width="1.5" stroke-linecap="round"></path><path d="M293.20239,216.87796c0,0 -0.31004,-1.1347 -0.75229,-2.88899c-0.44226,-1.7543 -0.73662,-1.77507 -1.14981,-4.48195c-0.41318,-2.70689 -0.66689,-4.99534 -0.60066,-6.98564c0.06623,-1.9903 0.36859,-3.38433 0.99931,-4.99313c0.63072,-1.6088 0.70271,-2.05161 2.40064,-3.67926c1.69793,-1.62765 4.7911,-3.21485 4.7911,-3.21485" fill="none" stroke="#000000" stroke-width="1.5" stroke-linecap="round"></path><path d="M298.26762,219.31498c0,0 -1.40056,-3.67123 -2.21215,-6.24871c-0.8116,-2.57748 -0.68591,-2.66156 -0.9376,-4.41145c-0.25169,-1.74989 -0.35542,-2.69391 -0.1975,-4.41687c0.15792,-1.72296 0.34452,-2.85964 0.95728,-4.58297c0.61276,-1.72333 0.8392,-2.24485 1.788,-3.4901c0.9488,-1.24526 1.80351,-1.95933 3.09419,-3.07181c1.29068,-1.11248 4.65936,-2.96017 4.65936,-2.96017" fill="none" stroke="#000000" stroke-width="1.5" stroke-linecap="round"></path><path d="M306.73798,218.5008c0,0 -0.65047,-0.39812 -1.22954,-0.97071c-0.50776,-0.50207 -0.92541,-1.14338 -1.27618,-1.69976c-0.75081,-1.19091 -0.96675,-1.57201 -1.29014,-3.35045c-0.32339,-1.77844 -0.28767,-2.58541 -0.15999,-4.62433c0.12768,-2.03892 0.13326,-3.3476 0.77287,-5.16262c0.63961,-1.81502 1.30029,-3.08122 2.52742,-4.20264c1.22713,-1.1214 1.99382,-1.22077 3.90163,-1.6725c1.90781,-0.45173 3.57757,1.0431 4.79381,-0.38643" fill="none" stroke="#000000" stroke-width="1.5" stroke-linecap="round"></path></g></g></g></svg>