<svg version="1.1" xmlns="http://www.w3.org/2000/svg" xmlns:xlink="http://www.w3.org/1999/xlink" width="197.93049" height="125.59938" viewBox="0,0,197.93049,125.59938"><g transform="translate(-153.00734,-116.77853)"><g data-paper-data="{&quot;isPaintingLayer&quot;:true}" fill-rule="nonzero" stroke-linejoin="miter" stroke-miterlimit="10" stroke-dasharray="" stroke-dashoffset="0" style="mix-blend-mode: normal"><g stroke-width="3" stroke-linecap="butt"><g><path d="M204.57976,151.22282l-1.54104,-15.6306c0,0 9.5565,-10.39023 11.89299,-11.75359c6.56543,-3.83098 16.75764,-5.38545 22.48624,-5.5601c5.73918,-0.17498 18.88123,1.18421 27.08684,5.11271c3.00071,1.4366 9.8623,10.65995 9.8623,10.65995l-0.22015,24.43658z" fill="#14ffa5" stroke="none"></path><path d="M209.07155,154.60987l-2.2015,-14.08955c0,0 3.18326,-7.03964 10.57632,-10.58551c5.962,-2.8595 15.73947,-2.3692 20.47385,-2.40186c5.32586,-0.03672 16.14132,0.88449 22.9958,4.0234c6.88507,3.15291 9.79734,8.52365 9.79734,8.52365l-46.0112,14.52986z" fill="#00e28c" stroke="none"></path><path d="M204.57976,151.22282l-1.54104,-15.6306c0,0 9.5565,-10.39023 11.89299,-11.75359c6.56543,-3.83098 16.75764,-5.38545 22.48624,-5.5601c5.73918,-0.17498 18.88123,1.18421 27.08684,5.11271c3.00071,1.4366 9.8623,10.65995 9.8623,10.65995l-0.22015,24.43658z" fill="none" stroke="#000000"></path></g><path d="M197.09468,200.09596c0,0 -0.88596,-39.80693 3.13389,-49.55073c0.8608,-2.08651 2.71706,-4.06532 3.82204,-5.8935c8.42885,-13.94564 33.7107,-11.70129 36.19334,-11.70129c0.35608,0 18.50293,0.87952 30.97364,6.71855c6.30299,2.95117 11.15599,11.26704 11.52918,13.04576c0.21324,1.01629 2.13146,6.99291 2.51736,14.83705c0.63072,12.82017 -0.25621,29.52504 -0.25621,29.52504l15.33677,15.78778c0,0 -3.0976,16.26766 -3.67664,17.30576c-2.81455,5.04586 -9.51504,7.21346 -12.15121,8.90005c-6.91388,4.42346 -24.09414,-0.6639 -24.09414,-0.6639l-5.01796,-13.24157l-24.62396,0.41635l-4.39416,13.08953c0,0 -18.989,4.67948 -24.65813,1.90176c-1.07136,-0.52495 -8.98599,-2.57437 -12.07353,-6.02296c-2.59933,-2.90328 -9.99966,-18.77594 -9.99966,-18.77594z" fill="#14ffa5" stroke="none"></path><path d="M265.00854,172.19155c17.13093,7.23706 18.25332,24.98055 18.25332,24.98055c0,0 19.10226,11.17284 16.10402,18.72585c-0.54361,1.36944 -0.88008,14.35626 -4.04244,16.87993c-4.25454,3.39527 -16.86836,8.34517 -16.86836,8.34517l-11.56691,-2.73873l-3.45622,-11.04929l-6.79907,0.23504l-2.66977,-2.19575c0,0 -18.46821,0.61897 -21.59125,0.8927c-2.50302,0.21939 -2.67133,1.605 -2.67133,1.605l-5.82935,0.03804l-2.63467,10.53896c0,0 -11.45919,3.7254 -13.72986,3.24444c-3.66036,-0.77532 -11.67047,-0.09008 -17.13034,-5.80144c-6.46117,-6.75878 -10.5846,-19.12662 -10.5846,-19.12662c0,0 12.22746,-11.12345 17.60729,-17.33678l2.84639,-1.74202c0,0 2.51993,-16.81326 14.92272,-23.34039c15.17207,-7.98449 41.41731,-5.71307 49.84047,-2.15464z" fill="#00e28c" stroke="none"></path><path d="M197.09468,200.09596c0,0 -0.88596,-39.80693 3.13389,-49.55073c0.8608,-2.08651 2.71706,-4.06532 3.82204,-5.8935c8.42885,-13.94564 33.7107,-11.70129 36.19334,-11.70129c0.35608,0 18.50293,0.87952 30.97364,6.71855c6.30299,2.95117 11.15599,11.26704 11.52918,13.04576c0.21324,1.01629 2.13146,6.99291 2.51736,14.83705c0.63072,12.82017 -0.25621,29.52504 -0.25621,29.52504l15.33677,15.78778c0,0 -3.0976,16.26766 -3.67664,17.30576c-2.81455,5.04586 -9.51504,7.21346 -12.15121,8.90005c-6.91388,4.42346 -24.09414,-0.6639 -24.09414,-0.6639l-5.01796,-13.24157l-24.62396,0.41635l-4.39416,13.08953c0,0 -18.989,4.67948 -24.65813,1.90176c-1.07136,-0.52495 -8.98599,-2.57437 -12.07353,-6.02296c-2.59933,-2.90328 -9.99966,-18.77594 -9.99966,-18.77594z" fill="none" stroke="#000000"></path></g><g stroke="#000000" stroke-width="3.5" stroke-linecap="butt"><path d="M203.45714,181.9978c-0.16456,-2.75661 1.46333,-6.96928 8.04432,-12.84026c6.18763,-5.52006 12.80179,-6.66651 14.09706,-7.70406c0.76126,-0.6098 3.24303,0.1669 5.01082,1.4165c0.90121,0.63704 1.78536,1.26201 2.40083,1.69707c1.52504,1.07799 4.26046,2.92261 2.50997,4.32479c-1.74296,1.39617 -7.48003,2.90934 -14.73048,8.21145c-6.52427,4.7711 -11.89203,11.2287 -13.34273,10.20324c-1.2869,-0.90967 -3.82522,-2.5521 -3.98981,-5.30872z" fill="#4f5357"></path><path d="M252.75856,165.3123c-0.21541,4.62187 -6.03842,7.96282 -13.00605,7.4622c-6.96764,-0.50064 -12.44137,-4.65323 -12.22599,-9.27511c0.2154,-4.62189 6.03842,-7.96282 13.00605,-7.4622c6.96764,0.50061 12.4414,4.65323 12.22599,9.27511z" fill="#75756c"></path><g><path d="M252.44552,161.19901c-0.20867,3.25285 -5.8495,5.60416 -12.59916,5.25182c-6.74964,-0.35232 -12.05215,-3.2749 -11.84347,-6.52775c0.20867,-3.25285 5.84949,-5.60416 12.59913,-5.25182c6.74964,0.35235 12.05216,3.27493 11.84348,6.52775z" fill="#533023"></path><path d="M234.79213,164.06563l3.89084,-8.28236c0,0 2.00286,-0.12271 3.02253,0.12723c1.07241,0.26285 5.27073,1.51789 5.27073,1.51789l-5.52624,7.5909z" fill="#b08a80"></path></g><path d="M276.59259,182.24595c-0.93314,1.0647 -3.69726,-5.91303 -8.62615,-10.11129c-5.47746,-4.6655 1.11459,-13.07333 5.86678,-8.13859c5.05431,5.24844 5.03136,10.28888 5.13154,12.93841c0.10018,2.64951 -1.5444,4.367 -2.37218,5.31146z" data-paper-data="{&quot;index&quot;:null}" fill="#4f5357"></path><path d="M266.89778,158.40854c6.42382,2.31914 10.0473,7.73962 8.09328,12.10695c-1.95402,4.36735 -8.74562,6.02776 -15.16943,3.70859c-6.42382,-2.31914 -10.0473,-7.73962 -8.09328,-12.10695c1.95402,-4.36735 8.74562,-6.02773 15.16943,-3.70858z" fill="#75756c"></path><g><path d="M277.66274,166.9101c-1.27236,3.12435 -7.43333,3.87275 -13.76092,1.67161c-6.32759,-2.20115 -10.42564,-6.51832 -9.15329,-9.64268c1.27236,-3.12434 7.43333,-3.87276 13.76092,-1.67161c6.32759,2.20114 10.42564,6.51832 9.15329,9.64268z" fill="#533023"></path><path d="M259.86352,164.85843l6.44698,-7.03114c0,0 1.95259,0.43089 2.84361,0.95581c0.93712,0.55207 4.53116,2.93444 4.53116,2.93444l-7.78015,5.90496z" fill="#b08a80"></path></g></g><g stroke-width="2" stroke-linecap="butt"><path d="M269.32588,197.58315c0.06842,3.16443 -5.76228,4.46741 -28.83475,3.0386c-23.61741,-1.46256 -32.64931,-12.34207 -32.64931,-12.34207c0,0 4.82935,1.42861 25.55082,2.66509c0.6053,0.03613 8.52016,1.80615 9.10271,1.84474c23.39466,1.54992 25.26683,-3.84463 25.33359,-0.75709c0,0 2.82784,-0.39414 3.07574,0.52504c0.25106,0.93091 -1.57879,5.0257 -1.57879,5.0257z" fill="#8bcde0" stroke="none"></path><path d="M269.78806,195.14257c0,0 1.53381,4.50722 -11.77132,5.79809c-10.24448,0.99394 -30.35263,-0.54744 -35.86361,-3.28256c-16.54192,-8.2098 -10.05795,-9.51717 -10.05795,-9.51717c0,0 3.37453,3.21213 11.59643,5.38378c1.13263,0.29916 2.35724,0.57858 3.6777,0.82713c0.41831,0.07874 0.83612,0.15476 1.25329,0.22815c21.42172,3.76784 41.16549,0.56259 41.16549,0.56259z" fill="#194eac" stroke="none"></path><path d="M242.04243,201.56023c-23.61741,-1.46256 -34.56558,-13.86956 -34.56558,-13.86956c0,0 32.17401,4.8807 42.85403,5.54969c9.58999,0.6007 22.41366,-2.64242 22.41366,-2.64242c0,0 -1.25448,5.40733 -3.30996,6.14125c-2.05548,0.73391 -4.31967,6.24986 -27.39214,4.82105z" fill="none" stroke="#000000"></path><path d="M236.15244,194.26626c-0.02129,-0.98449 3.19082,-1.04568 17.59331,0.94067c6.16464,0.85021 11.8393,-1.25071 11.86059,-0.26624c0.02129,0.98449 -4.06588,1.68884 -10.25669,1.66232c-11.7378,-0.05027 -19.1759,-1.35226 -19.1972,-2.33676z" data-paper-data="{&quot;index&quot;:null}" fill="#ffffff" stroke="none"></path></g><g><g stroke-width="2.5" stroke-linecap="round"><path d="M158.81694,186.89557l6.6127,-3.96762l7.27396,7.27396l-9.91904,6.6127l-7.93524,-4.62888z" fill="#000000" stroke="#000000"></path><path d="M166.30338,184.83758l-4.62888,4.29826l-5.62079,2.64508l0.49595,-1.98381l2.81039,-2.64508l5.62079,-3.47167z" fill="#313131" stroke="#313131"></path><path d="M158.81694,186.89557l6.6127,-3.96762l7.27396,7.27396l-9.91904,6.6127l-7.93524,-4.62888z" fill="none" stroke="#000000"></path></g><g><g><path d="M195.56895,186.95991c0,0.91302 -0.74015,1.65318 -1.65318,1.65318c-0.34195,0 -0.65965,-0.10382 -0.9233,-0.28166c-0.98527,0.24759 -2.1492,0.2824 -3.37495,0.28166c-0.82124,-0.0005 -2.73342,0.05763 -3.67697,-0.19877c-0.23391,0.12678 -0.50185,0.19877 -0.7866,0.19877c-0.91302,0 -1.65318,-0.74015 -1.65318,-1.65318c0,-0.19347 0.03323,-0.37919 0.09431,-0.55174c-1.37104,-2.16395 -1.64196,-5.33185 -2.05145,-7.58371c0,0 -0.29573,-1.62651 1.33078,-1.92224c0.30878,-0.05614 0.5696,-0.043 0.78954,0.01513c0.63055,-0.17069 1.23741,0.13273 1.23741,0.13273l0.39416,0.19883c2.09237,1.16452 3.66358,2.08562 6.02435,2.64658c1.13343,0.26932 3.55132,0.5222 4.25285,1.44871c0.55169,0.72858 0.32018,1.80848 0.32479,2.72235c0.00495,0.98067 -0.14432,1.75076 -0.41815,2.35523c0.05805,0.1687 0.08956,0.34973 0.08956,0.53813z" fill="#1f2d47" stroke="none" stroke-width="0.5" stroke-linecap="butt"></path><path d="M196.23022,184.14951c0,0.91302 -0.74015,1.65318 -1.65318,1.65318c-0.45761,0 -0.87179,-0.18593 -1.17113,-0.48637c-1.89063,0.10583 -4.78672,-2.48873 -5.61864,-3.30419c0,0 -1.16897,-1.16897 0,-2.33794c1.16897,-1.16897 2.33794,0 2.33794,0c0.06634,0.06811 0.14883,0.13983 0.24342,0.21457c0.12286,-0.02421 0.25783,-0.03751 0.40611,-0.03751c0.39354,0 0.69341,0.09368 0.92188,0.23645c1.45181,0.12061 3.56132,0.34026 4.36878,1.19173c-0.00034,0.01985 -0.0005,0.03974 -0.0005,0.05967c0,0.44336 0.08311,0.86731 0.23461,1.25711c-0.07082,0.19918 -0.18199,0.41476 -0.33885,0.64817c0.17044,0.26002 0.26956,0.57099 0.26956,0.90511z" fill="#14ffa5" stroke="none" stroke-width="0.5" stroke-linecap="butt"></path><path d="M181.10368,176.05242l8.5965,3.63698l5.29016,0.66127l0.66127,3.96762l-0.33064,4.62888h-11.24158z" fill="none" stroke="#000000" stroke-width="2.5" stroke-linecap="round"></path></g><path d="M188.37765,182.66512l1.65318,4.29826l1.98381,1.98381l1.41566,3.27273c0.4365,2.42581 0.89992,4.62638 1.56006,6.31568c-4.62888,6.70233 -9.49878,12.89476 -19.50745,17.19301c-8.89269,3.81899 -20.56519,-5.91859 -17.85428,-15.2092c3.30635,-11.33122 12.47448,-22.48317 13.88666,-27.77332c5.94812,-2.66641 10.1265,-2.76543 13.12687,-1.29382z" fill="#00ff9d" stroke="#000000" stroke-width="2.5" stroke-linecap="butt"></path><path d="M179.11987,207.79336l1.32254,-8.5965l4.62888,3.63698z" fill="#000000" stroke="#000000" stroke-width="2.5" stroke-linecap="round"></path><path d="M188.33999,187.10803c0.3121,0.37418 0.86794,0.49041 1.22141,0.82855c0.36747,0.35152 0.7004,0.79872 1.00382,1.28477l1.19385,0.86456c0.42491,0.30083 0.7008,0.78634 0.7008,1.33408c0,0.91302 -0.76654,1.65318 -1.71213,1.65318c-0.33228,0 -0.64244,-0.09139 -0.90501,-0.24957l-1.37668,-0.79756c-1.78026,0.06577 -3.88218,-0.2953 -5.58012,0.24188c-0.91322,0.28892 -1.80906,1.42 -2.67961,1.02701c-1.12312,-0.507 -2.02935,-4.76314 -1.49837,-5.76766c0.30585,-0.5786 1.37939,-0.20393 1.92606,-0.58258c0.18605,-0.12887 -0.13431,-0.42659 -0.15072,-0.64711c-0.03686,-0.49549 -0.00834,-0.99351 -0.00834,-1.49027c0,-2.53212 1.57782,-4.93214 -0.5258,-6.76627c0,0 -0.25781,-0.24893 -0.41651,-0.63192c-0.75138,0.34816 -1.49258,0.89182 -2.25937,0.7241c-0.75083,-0.16424 -0.98334,-1.16565 -1.60647,-1.60216c-0.3732,-0.26143 -0.87102,-0.29232 -1.30654,-0.43849c0,0 -1.58967,-0.61397 -0.9538,-2.1489c0.63586,-1.53493 2.22554,-0.92096 2.22554,-0.92096c0.2489,0.10391 0.51009,0.18776 0.77058,0.27278l1.179,-0.8403c0.7424,-0.28114 1.44099,-0.71442 2.22717,-0.84344c4.67023,-0.76639 5.91643,3.26146 6.2203,7.01668l0.1447,-0.05588l0.67043,1.61837c0.08811,0.19919 0.13687,0.41849 0.13687,0.64878c0,0.39956 -0.1468,0.76601 -0.39116,1.05181l0.26872,0.64866c0.48083,1.17283 0.66554,3.5897 1.48141,4.56789z" fill="#00e28c" stroke="none" stroke-width="0.5" stroke-linecap="butt"></path><path d="M184.85527,172.57381c0,1.65318 -1.85982,1.65318 -1.85982,1.65318h-0.74393c-2.52731,0 -4.92978,0.32075 -7.43929,0.33064c0,0 -1.85982,0 -1.85982,-1.65318c0,-1.65318 1.85982,-1.65318 1.85982,-1.65318c2.49162,0.01195 4.91973,-0.33064 7.43929,-0.33064h0.74393c0,0 1.85982,0 1.85982,1.65318z" fill="#00e28c" stroke="none" stroke-width="0.5" stroke-linecap="butt"></path><path d="M176.14416,180.02005l4.62888,-2.97572" fill="none" stroke="#000000" stroke-width="2.5" stroke-linecap="round"></path><path d="M183.65834,177.48036c1.37553,-0.91701 2.29253,0.45851 2.29253,0.45851l0.90682,1.58471c0.38975,1.99552 0.97726,5.93312 2.52361,7.42111c0.94949,0.91366 2.55879,1.15386 3.21937,2.29402c0.43926,0.75818 0.36579,1.71386 0.5487,2.57079c0,0 0.27178,1.63068 -1.35891,1.90246c-1.63068,0.27178 -1.90246,-1.35891 -1.90246,-1.35891c-0.03752,-0.46561 0.09759,-0.97967 -0.11258,-1.39682c-0.48052,-0.95377 -1.98611,-0.90932 -2.73206,-1.6736c-2.06631,-2.11708 -2.85709,-6.31189 -3.42782,-9.11062l-0.41573,-0.3991c0,0 -0.91701,-1.37552 0.45851,-2.29254z" fill="#14ffa5" stroke="none" stroke-width="0.5" stroke-linecap="butt"></path><path d="M189.03891,186.63273l-7.6046,0.33064l-6.6127,-1.98381" fill="none" stroke="#000000" stroke-width="2.5" stroke-linecap="round"></path><path d="M187.38573,183.65703l-8.26587,-4.62888" fill="none" stroke="#000000" stroke-width="2.5" stroke-linecap="round"></path><path d="M188.37765,182.66512l1.65318,4.29826l1.98381,1.98381l1.41566,3.27273c0.4365,2.42581 0.89992,4.62638 1.56006,6.31568c-4.62888,6.70233 -9.49878,12.89476 -19.50745,17.19301c-8.89269,3.81899 -20.56519,-5.91859 -17.85428,-15.2092c3.30635,-11.33122 12.47448,-22.48317 13.88666,-27.77332c5.94812,-2.66641 10.1265,-2.76543 13.12687,-1.29382z" fill="none" stroke="#000000" stroke-width="2.5" stroke-linecap="butt"></path><g><path d="M187.05511,196.55178l9.25778,3.30635l-8.5965,11.57222l-14.87857,8.5965l-4.62888,-1.65318l-0.66127,-7.93524l12.56412,-6.28206z" fill="#343133" stroke="#000000" stroke-width="2.5" stroke-linecap="round"></path><path d="M187.05511,196.55178l9.25778,3.30635l-8.5965,11.57222l-14.87857,8.5965l-4.62888,-1.65318l-0.66127,-7.93524l12.56412,-6.28206z" fill="none" stroke="#000000" stroke-width="2.5" stroke-linecap="round"></path><path d="M168.87019,210.10781l3.63698,0.66127v8.92714l-3.96762,-1.32254z" fill="#000000" stroke="#000000" stroke-width="0.5" stroke-linecap="round"></path><g><path d="M188.37864,203.47194c1.85181,0.46025 3.71922,1.21227 5.55882,2.32112c0.29315,0.17669 0.58378,0.35212 0.87193,0.52625l0.78125,3.6618l3.30635,-0.8817l0.66127,3.96762l4.18804,-1.76338l0.44085,3.96762l1.78999,-2.16117c12.05936,7.27798 19.24633,10.98146 29.28969,11.30874c9.52508,0.31039 -7.19711,12.25677 -21.81676,11.83488c-3.0879,-0.08911 -5.06414,1.62437 -7.38931,-0.92393c-2.84775,-3.12103 -5.69618,-7 -9.01847,-8.91252c-8.81745,-5.0759 -17.72331,-10.02734 -21.04965,-12.9949c-0.18224,-0.16259 -0.35805,-0.29833 -0.52808,-0.40993l1.61055,-1.70878z" fill="#ffffff" stroke="#000000" stroke-width="2.5" stroke-linecap="butt"></path><path d="M202.55131,211.85693c0.54781,0 0.9919,0.44409 0.9919,0.9919c0,0.12376 -0.02267,0.24223 -0.06408,0.35148c0.04692,0.05398 0.08637,0.11512 0.11674,0.18498c0.25223,0.58023 -0.38674,1.20481 -0.58011,1.80721c0,0 -0.08362,0.14634 -0.24224,0.2839l-0.54776,1.31461l-0.06285,-0.02618l-0.02181,0.19997c-0.68423,0.74562 -1.08648,1.9359 -2.05269,2.23685c-0.82947,0.25836 -3.58295,-1.12786 -4.43531,-1.60789c-4.164,-2.34501 -8.3309,-5.11946 -11.5236,-8.66467c0,0 -0.47488,-0.52764 -0.45652,-1.20259c-0.10011,-0.30966 -0.10011,-0.5646 -0.10011,-0.5646l0.68082,-1.46923c0.89368,-0.64843 2.81017,-2.15882 3.84394,-2.2912c1.51114,-0.19352 5.47534,1.49418 6.3157,2.72449c0.45624,0.66796 0.37682,1.57447 0.51415,2.37163c0.09195,0.53373 -0.20403,1.53913 0.33518,1.58984c1.31391,0.12354 2.74037,-1.52975 3.86803,-0.84421c1.12558,0.68427 0.61003,2.56532 1.00762,3.82114c0.0193,0.06095 0.00928,0.1424 -0.00511,0.22444l0.55785,-0.23244c0.0335,-0.01487 0.06759,-0.02865 0.10222,-0.04132l0.78134,-0.34028c0.08229,-0.4648 0.48825,-0.81782 0.97667,-0.81782z" fill="#b9d5d6" stroke="none" stroke-width="0.5" stroke-linecap="butt"></path><path d="M195.84648,213.0212c-0.70138,0.70138 -1.40277,0 -1.40277,0l-0.34258,-0.44291c-0.3102,-1.02347 -1.61954,-1.29696 -2.63644,-1.3887c0,0 -0.98584,-0.10953 -0.8763,-1.09538c0.10953,-0.98584 1.09538,-0.8763 1.09538,-0.8763c1.91449,0.24134 3.37487,0.81536 4.24077,2.57892l-0.07806,-0.1784c0,0 0.70138,0.70138 0,1.40277z" fill="#5c110f" stroke="none" stroke-width="0.5" stroke-linecap="butt"></path><path d="M202.72008,212.87277c0.24057,0.9623 -0.72171,1.20286 -0.72171,1.20286l-1.05803,0.26451c0,0 -0.96229,0.24057 -1.20286,-0.72171c-0.24057,-0.9623 0.72171,-1.20286 0.72171,-1.20286l1.05803,-0.26451c0,0 0.96229,-0.24057 1.20286,0.72171z" fill="#5c110f" stroke="none" stroke-width="0.5" stroke-linecap="butt"></path><path d="M208.9327,230.69889c-0.20527,-0.02582 -0.41071,-0.04975 -0.61707,-0.06342c-0.29336,-0.01943 -0.58879,-0.02776 -0.88198,-0.00591c-2.29199,0.17071 3.03317,2.35503 2.67428,0.43196l-0.65548,-0.05738c0,0 -0.297,-0.07424 -0.51975,-0.30525zM203.93459,224.08903c-0.11389,-0.17583 -0.17573,-0.41658 -0.10324,-0.74281c0.21518,-0.96829 1.18346,-0.75311 1.18346,-0.75311c3.04672,0.68037 6.30253,1.7672 9.22402,2.80462c1.34321,0.47698 2.05168,2.16569 3.37953,2.49516c1.97536,0.49014 4.23086,-0.25247 6.27573,0.24814c0.6843,0.09036 1.32562,0.3905 2.00111,0.5324c2.68198,0.5634 5.2983,-0.54134 7.68364,-1.5554l0.0824,0.00291l-0.0063,-0.0252l1.03645,-0.25912c0.08351,-0.02283 0.17141,-0.03501 0.26215,-0.03501c0.54781,0 0.9919,0.44409 0.9919,0.9919c0,0.18535 -0.05084,0.35883 -0.13933,0.50724l-0.52037,0.91065l-0.05019,-0.02869c-0.04384,0.09521 -0.09361,0.18772 -0.15083,0.27685c-0.22809,0.35535 -0.76893,0.35008 -1.14382,0.54438c-1.30964,0.67879 -2.66311,1.14987 -4.01329,1.74061c-4.72358,2.06671 -10.52364,4.17457 -15.73794,4.18255c-2.1588,0 -5.16927,0.54743 -7.11136,-0.53122c-2.96344,-1.64592 -4.23947,-5.22437 -6.75518,-7.37456c-1.48859,-1.27231 -3.11591,-1.67923 -4.4367,-3.28039l-0.00722,-0.15275l-0.05876,0.02518l-0.38813,-0.90563c-0.05706,-0.12519 -0.08884,-0.26433 -0.08884,-0.41089c0,-0.54781 0.44409,-0.9919 0.9919,-0.9919c0.2739,0 0.52188,0.11102 0.70138,0.29052l0.79353,0.79353l-0.00829,0.00829c0.01315,0.008 0.02627,0.01607 0.03935,0.02421c0.4446,0.27673 0.66756,0.89701 1.16827,1.05042c0.44875,0.13749 1.98777,0.05606 2.22311,0.175c0.50922,0.25736 1.68303,3.15609 2.35844,1.06645c0.08441,-0.26116 0.04797,-0.54683 0.07196,-0.82025z" fill="#a7120a" stroke="none" stroke-width="0.5" stroke-linecap="butt"></path><path d="M223.91418,227.84038l-0.58978,-0.12065c-3.89002,-0.49258 -7.08506,-2.50394 -10.7495,-3.60722c-1.75489,-0.52835 -3.83789,-0.53395 -5.64998,-0.75716c0,0 -0.36356,-0.04544 -0.62114,-0.30205c-0.12204,0.0138 -0.23153,0.02595 -0.32308,0.03754l-0.51979,0.00766c0,0 -0.9919,0 -0.9919,-0.9919c0,-0.9919 0.9919,-0.9919 0.9919,-0.9919l0.27373,0.00766c0.19997,-0.02463 0.47845,-0.11233 0.74881,-0.13058c-0.74363,-0.71865 -1.68363,-1.67483 -1.74587,-2.10172c-0.05563,-0.38166 0.29875,-0.68321 0.56047,-1.00287l-0.02787,-0.00349l0.13062,-1.04498c0.05471,-0.49606 0.47524,-0.88193 0.98587,-0.88193c0.54781,0 0.9919,0.44409 0.9919,0.9919v1.02124c0.36377,0.33761 0.78596,1.26978 1.08755,2.1813c0.07192,0.06382 0.14201,0.12911 0.20898,0.19594c0,0 0.0847,0.0847 0.1658,0.22467c0.08891,0.04799 0.16967,0.10916 0.23965,0.18089l0.34193,0.3099c1.44027,0.66048 3.32112,0.17275 4.85623,-0.06456c0.26451,-0.04089 0.69918,0.07644 0.9226,-0.00841l-0.19543,-0.456c-0.05706,-0.12519 -0.08884,-0.26433 -0.08884,-0.41089c0,-0.54781 0.44409,-0.9919 0.9919,-0.9919c0.18535,0 0.35883,0.05084 0.50724,0.13933l0.8586,0.49063c3.91759,1.46177 7.87965,2.96173 11.72126,4.60814c0.11438,0.04902 1.3118,0.57112 1.67897,0.70118c0.66311,-0.13822 1.33494,-0.24799 2.03017,-0.25237h1.05803v0c0.54781,0 0.9919,0.44409 0.9919,0.9919c0,0.47205 -0.32975,0.86709 -0.77146,0.96732l-1.0379,0.25948l-0.00756,-0.03026c-0.03686,0.0182 -0.07412,0.03571 -0.11182,0.05244c-0.73148,0.32501 -1.58606,0.28692 -2.47668,0.0626c-1.30436,0.29817 -2.58644,0.66874 -3.98164,0.46642c-0.58301,-0.08455 -0.98725,-0.22239 -1.32998,-0.36205c-0.26495,0.78652 -1.12392,0.61473 -1.12392,0.61473zM226.76268,225.63107c-0.42247,-0.20625 -0.82383,-0.39895 -1.19255,-0.55468c0.33085,0.23836 0.64841,0.50546 1.04035,0.54238c0.05085,0.00478 0.10158,0.00888 0.1522,0.0123z" fill="#e41104" stroke="none" stroke-width="0.5" stroke-linecap="butt"></path><path d="M183.36104,208.78305l0.24108,0.16273c2.60548,1.50032 4.82078,3.63601 7.25578,5.36625c1.7842,1.4849 3.81151,2.62072 5.83043,3.75535c1.14161,0.64158 3.39572,1.24851 4.14082,2.38224c1.47008,2.23685 -0.5646,4.53937 -2.82434,4.21907c-2.2466,-0.31843 -5.53152,-2.48855 -7.46859,-3.69455c-3.90355,-2.23806 -8.08049,-3.64824 -10.85957,-7.39097c-0.34121,-0.45954 -1.93301,-1.67629 -1.92293,-1.92462c0.04155,-1.02311 3.61871,-2.80344 4.43654,-3.16002c0,0 0.73822,-0.31638 1.17078,0.28452z" fill="#89b8b9" stroke="none" stroke-width="0.5" stroke-linecap="butt"></path><path d="M193.06915,215.32154l0.13966,0.15874c0.96685,0.6906 1.77652,1.2726 2.86816,1.75229c0,0 0.30408,0.13515 0.48171,0.42501c0.22389,-0.01786 0.48324,0.04968 0.74259,0.30903c0.70138,0.70138 0,1.40277 0,1.40277l-0.83364,0.42278c-2.83855,-0.00486 -4.75576,-1.31231 -6.04509,-3.85466c0,0 -0.44359,-0.88719 0.44359,-1.33078c0.79728,-0.39864 1.23632,0.27744 1.31711,0.41857c0.49232,-0.09732 0.8859,0.29625 0.8859,0.29625z" fill="#5c110f" stroke="none" stroke-width="0.5" stroke-linecap="butt"></path><path d="M188.37864,203.47193c1.85181,0.46025 3.71923,1.21227 5.55882,2.32112c0.29315,0.1767 0.58378,0.35212 0.87193,0.52624l0.78125,3.6618l3.30635,-0.88169l0.66127,3.96762l4.18804,-1.76339l0.44085,3.96762l1.78999,-2.16117c12.05936,7.27798 19.24633,10.98146 29.28969,11.30873c9.52508,0.31039 -7.19711,12.25677 -21.81676,11.83488c-3.0879,-0.0891 -5.06414,1.62437 -7.38931,-0.92394c-2.84775,-3.12103 -5.69619,-6.99999 -9.01848,-8.91252c-8.81745,-5.0759 -17.72331,-10.02734 -21.04965,-12.9949c-0.18224,-0.16259 -0.35805,-0.29833 -0.52808,-0.40993l1.61055,-1.70878z" fill="none" stroke="#000000" stroke-width="2.5" stroke-linecap="butt"></path><path d="M237.47105,226.29241l-10.13946,2.42465l-3.7472,-1.10211l-18.73597,-5.06973l-7.49438,-4.40847l-9.03735,-5.731l-5.51058,-4.62888" fill="none" stroke="#000000" stroke-width="2.5" stroke-linecap="round"></path></g></g></g></g><g stroke="#000000" stroke-linecap="round"><path d="M259.80773,202.63955l-2.42511,2.20464" fill="none" stroke-width="2"></path><path d="M255.83938,206.60791l-6.173,6.39346l-5.29114,2.86603l-10.36181,3.30696h-4.85021l-7.27532,-3.30696l-2.86603,-5.29114l0.88186,-3.0865l1.98418,-1.76371l2.42511,2.20464l6.173,2.86603l8.5981,-0.44093l3.30696,-0.44093l6.83439,2.42511z" fill="#ffffff" stroke-width="2"></path><path d="M219.24231,202.41909l-3.0865,3.74789" fill="none" stroke-width="2"></path><path d="M216.59674,207.93069l-1.98418,-2.42511" fill="none" stroke-width="2"></path><path d="M207.55771,198.6712l3.0865,-0.66139l0.88186,3.30696l3.0865,-0.66139l1.54325,1.32278" fill="none" stroke-width="2"></path><path d="M221.44697,213.66276l3.96835,-4.40928l3.30696,8.37764l5.73207,-5.95253l2.20464,5.29114l4.62975,-6.39346l3.30696,4.62975" fill="none" stroke-width="1"></path></g><g data-paper-data="{&quot;index&quot;:null}"><path d="M313.03325,183.82171c0.61893,-0.18838 0.89312,0.41372 0.90725,0.44583c2.76939,2.79853 5.94921,6.45057 5.40801,10.6867c0.02288,1.08777 0.07328,3.34587 -2.03128,2.62801c-0.47565,-0.16224 -0.44178,-0.90498 -0.6127,-1.37757c-0.42847,-1.18471 -0.14439,-2.45204 -0.43069,-3.64408c-0.42883,-1.7855 -1.68896,-3.21054 -2.52108,-4.7909c-0.60685,-1.15251 -0.85874,-1.9001 -1.78334,-2.83092c0,0 -0.54413,-0.5478 0.00366,-1.09195c0.46949,-0.46637 0.9363,-0.13063 1.06018,-0.02515z" fill="#323440" stroke="none" stroke-width="0.5" stroke-linecap="butt"></path><path d="M319.29609,191.80332l0.45868,0.57596c-0.13914,0.40244 -0.12973,0.89335 -0.41742,1.2073c-0.98078,1.07027 -3.65884,1.01709 -3.26401,-1.18913c0.09356,-0.52287 1.24683,-1.0012 1.87622,-1.25661c0.0866,-0.06082 0.17681,-0.09376 0.26437,-0.10846c0.06091,-0.02414 0.72026,-0.26677 1.00795,0.41076c0.05708,0.13446 0.07794,0.25429 0.07421,0.36021z" fill="#51626b" stroke="none" stroke-width="0.5" stroke-linecap="butt"></path><path d="M315.63304,186.45123c0.10287,0.11738 0.17605,0.2459 0.18026,0.40027c0.03304,1.20594 -1.08265,2.04468 -2.30767,1.50676c-0.48859,-0.21456 -0.67557,-1.4313 -0.77885,-1.89729c0,0 -0.14528,-0.66539 0.59356,-0.86168c0.08532,-0.13046 0.21387,-0.24093 0.37504,-0.30939c0.26343,-0.11184 0.54712,-0.08296 0.74968,0.05289l0.64825,0.4177l0.28077,0.21242c0,0 0.24687,0.1892 0.2589,0.47831z" fill="#91aea7" stroke="none" stroke-width="0.5" stroke-linecap="butt"></path><path d="M294.05273,200.06315c-1.73857,-0.71847 -3.21779,-1.63816 -4.85223,-2.52281c-2.47101,-1.33751 -6.75767,-2.09823 -5.9395,-5.97298c0.27567,-1.30545 1.9037,-3.10668 2.79923,-4.0515c0,0 0.25163,-0.26241 0.58963,-0.25446c0.67123,-0.96331 1.20601,-2.03683 2.03074,-2.9241c2.25866,-2.42992 6.20695,-4.30299 9.46364,-4.55152c6.67077,-1.79448 13.23007,3.3475 15.76144,9.28621c0.95244,2.243 2.86903,5.64608 2.05608,8.22513c0.1662,0.39239 -0.01688,0.84529 -0.40919,1.01186l-0.13029,0.05532c-0.19809,0.27004 -0.44133,0.52471 -0.73572,0.76078c-1.81643,1.45664 -5.77595,2.24381 -8.03881,2.46964c-0.3987,0.03977 -0.79654,0.1261 -1.17231,0.18175c-0.37366,0.06348 -0.75965,0.10737 -1.16394,0.12592l-0.02283,-0.00772l-0.00011,0.00769l-1.42906,-0.02385c-0.3021,0.00173 -0.58998,-0.17506 -0.71545,-0.47052c-0.01807,-0.04255 -0.03202,-0.08579 -0.04202,-0.12932c-2.66716,0.15024 -5.34715,-0.13629 -8.04933,-1.21541z" fill="#4a5b80" stroke="none" stroke-width="0.5" stroke-linecap="butt"></path><path d="M302.89704,183.21564c1.73202,0.54127 3.13138,2.98378 0.44304,3.97758c-0.34827,0.12873 -0.66645,-0.19695 -1.02263,-0.22087c-1.30787,-0.08778 -2.25837,1.12676 -3.41879,-0.08109c-1.557,-1.62066 1.6298,-3.34837 3.01007,-3.93826c0,0 0.70444,-0.29912 0.98834,0.26264z" fill="#98c0bf" stroke="none" stroke-width="0.5" stroke-linecap="butt"></path><path d="M283.32887,192.0184c-0.05023,-0.21777 -0.07802,-0.66416 0.44722,-0.88719c0.7107,-0.30179 1.01248,0.40893 1.01248,0.40893c2.06683,4.91136 7.48242,7.29154 12.24481,8.6359c4.34087,0.60006 8.65977,0.91307 12.93128,-0.53079c1.29036,-0.43619 2.68902,-0.77644 3.92704,-1.34903c0.42867,-0.19826 0.80753,-0.69796 1.27351,-0.62105c0.57859,0.09548 0.9347,0.70841 1.40205,1.0626c-0.53532,2.01793 -1.57512,4.28287 -2.82274,5.97056c-0.77118,1.0432 -2.10784,1.44849 -3.11263,2.20903c-2.57772,1.95115 -6.04981,3.8715 -9.35001,3.94371c-3.27693,0.26203 -5.64443,-0.72565 -8.67355,-1.74662c-1.0692,-0.36036 -2.50358,-0.7707 -3.45299,-1.41033c-1.66448,-1.12143 -2.78334,-4.35816 -3.54344,-6.13936c-1.19292,-2.80945 -1.58223,-5.49188 -2.28838,-8.42324l-0.13232,-0.28471c0,0 -0.21194,-0.49913 0.13772,-0.83843z" fill="#313746" stroke="none" stroke-width="0.5" stroke-linecap="butt"></path><path d="M311.06905,179.97359c0.508,-1.21922 1.64484,-0.94614 1.93319,-0.85398c2.84473,-0.63946 5.98623,-1.32195 8.87326,-1.15387c2.50968,0.1461 4.92142,0.85634 7.44952,0.5541c5.18378,-0.61968 11.3927,-5.36095 16.48488,-2.03525c0.66356,0.43336 1.1631,1.07686 1.74463,1.61528c1.68249,3.7738 3.90457,9.51029 -0.0386,12.83827c-0.85803,0.72418 -2.12263,0.77222 -3.08772,1.34605c-0.66884,0.39771 -0.91306,1.76282 -1.19374,2.2555c-0.60375,1.05972 -1.75671,2.42436 -2.77498,3.1042c-1.57236,1.0498 -3.87283,1.82519 -5.76095,1.58611c-0.42354,-0.05365 -0.76401,-0.45985 -1.19077,-0.47168c-1.28899,-0.03573 -3.75034,3.15235 -4.496,3.86916c-2.64982,1.75579 -6.12579,2.97191 -8.50779,5.03481c-2.55735,2.21473 -3.11919,4.92952 -6.55822,6.21121c-2.29008,0.85347 -8.45613,0.81641 -7.87076,-3.43859c0.12899,-0.9376 1.34265,-1.34218 2.09512,-1.91624c2.24817,-1.71506 4.00641,-2.81059 5.6227,-5.27821c0.67639,-1.21038 1.57696,-3.0664 2.79588,-3.73755c0.46952,-0.25853 1.05553,0.38597 1.58223,0.28669c0.22779,-0.04294 0.22227,-0.41239 0.27809,-0.63736c0.36598,-1.4751 0.73394,-2.96672 1.04488,-4.46169c0.64113,-3.0825 -1.27308,-5.60012 -2.89105,-8.06205c-0.71153,-1.08266 -1.2758,-2.65087 -2.4386,-3.40001c-0.58406,-0.37631 -1.8408,-0.33163 -2.40777,-0.36195c0,0 -1.54126,-0.09583 -1.44542,-1.63712c0.04404,-0.70827 0.39334,-1.07083 0.75799,-1.25583z" fill="#00e28c" stroke="none" stroke-width="0.5" stroke-linecap="butt"></path><path d="M310.63447,180.14701l0.3988,-0.6041c1.29675,-2.60875 4.05469,-5.35642 7.03075,-6.02255c2.03911,-0.45641 3.09742,0.42012 4.95431,0.12397c2.30065,-1.0033 4.65067,-2.34447 7.21443,-1.23399c0.96393,0.41753 1.10583,1.38069 2.19181,1.40629c1.64475,0.03876 3.1677,-1.10006 4.75194,-1.37048c1.47656,-0.252 2.83116,-0.15226 4.25063,0.33946c3.56666,1.23546 4.55525,4.9756 4.49191,8.39862c-0.01495,0.80798 0.30252,1.76714 -0.17658,2.41793c-2.48085,3.36983 -5.31848,0.64241 -6.77338,-1.69094c0.12235,0.84704 0.19214,2.30478 0.21275,2.4557c0.20812,1.5229 1.11744,2.98747 1.29363,4.42687c0.13037,1.06518 0.6989,2.47021 -0.07019,3.21861c-0.73049,0.71086 -2.05149,0.01202 -3.05257,-0.17976c-2.93785,-0.56285 -5.91703,-4.65661 -5.83358,-7.61664c0.01002,-0.35547 0.52086,-0.54866 0.57188,-0.9006c0.00482,-0.03315 -2.90161,-0.06123 -2.93767,-0.056c-0.27008,0.03911 -0.54155,0.06438 -0.8139,0.07792c-0.04059,0.02168 -0.08251,0.04174 -0.12567,0.06007c-0.07664,0.03255 -0.15445,0.05845 -0.23275,0.0779l-0.28923,0.07685l0.00963,0.03999l-1.3431,0.32354c0.57074,0.52575 1.58122,1.34157 1.7577,1.47238c2.20575,1.63492 3.43587,2.92059 4.74224,5.37222c0.4456,1.43585 1.252,3.08271 0.27283,4.62152c-1.32718,2.08571 -4.67578,1.93408 -6.54392,1.06275c-3.52421,-1.64372 -4.01804,-5.42121 -6.34396,-8.12614c-2.13622,-2.48431 -5.27076,-4.49807 -8.49349,-5.12632c-0.27827,0.04973 -0.60426,0.01311 -0.96821,-0.19223c-0.43546,-0.15679 -1.14998,-0.58126 -0.99939,-1.65871c0.09825,-0.70301 0.47452,-1.03768 0.85242,-1.19414z" fill="#14ffa5" stroke="none" stroke-width="0.5" stroke-linecap="butt"></path><path d="M327.96593,172.25938c2.11326,0.00708 4.82464,1.94862 4.82464,1.94862c0,0 3.03135,-1.68831 5.14951,-1.71632c2.11817,-0.02803 2.93219,0.19696 4.58093,1.01894c1.64875,0.82197 2.52563,1.79228 3.38743,2.95362c0.8618,1.16134 1.50831,2.80035 2.15681,4.3276c0.78972,1.85984 1.34493,2.77356 1.54908,5.52761c0.20413,2.75408 0.2065,2.717 -0.8493,3.91324c-1.05579,1.19626 -4.49732,2.14477 -4.49732,2.14477c0,0 -1.43226,2.949 -3.25826,4.66679c-0.87173,0.82008 -2.3396,1.49408 -3.57314,1.59274c-1.23354,0.09863 -3.61775,-0.41187 -3.61775,-0.41187l-5.07044,3.56377c0,0 -3.53868,0.35734 -5.796,0.19384c-2.25729,-0.16348 -2.39784,-0.2707 -3.66511,-0.87911c-1.26729,-0.60842 -2.94714,-2.5107 -2.94714,-2.5107c0,0 -0.41638,1.73507 -0.9856,2.70283c-0.56926,0.96777 -1.21189,2.00327 -2.70138,3.56533c-1.48949,1.56206 -2.18247,2.13721 -3.87517,3.05624c-1.69268,0.91902 -3.60898,1.69375 -6.06097,2.33846c-2.452,0.64468 -2.92375,0.86053 -5.10937,0.6832c-2.18563,-0.17735 -3.53198,-0.44086 -5.11854,-1.51315c-1.58656,-1.07227 -3.81103,-2.61455 -5.66126,-5.42244c-1.85024,-2.80787 -2.59091,-4.66645 -2.93434,-7.62205c-0.34344,-2.95559 -0.08941,-3.49368 0.65455,-5.67739c0.74396,-2.1837 1.36577,-3.15242 2.90432,-4.76876c1.53854,-1.61634 2.49588,-2.87248 4.64771,-4.00558c2.15179,-1.13311 3.69512,-1.48517 6.4765,-1.89359c2.78137,-0.40845 3.89848,-0.336 6.30334,0.22914c2.40487,0.56516 5.45995,2.5353 5.45995,2.5353c0,0 0.30708,-2.18154 1.02529,-3.34101c0.71822,-1.15947 3.71783,-4.31615 3.71783,-4.31615c0,0 2.00269,-1.50652 3.51323,-1.69363c1.51053,-0.18712 4.30513,0.7251 4.30513,0.7251c0,0 2.95162,-1.92258 5.06492,-1.9155z" fill="none" stroke="#000000" stroke-width="2" stroke-linecap="round"></path><path d="M329.21259,184.70154c0,0 0.04784,0.99505 1.1066,2.60611c1.05874,1.61107 1.80747,2.14086 2.78467,3.69676c0.97715,1.55586 1.94825,2.95054 2.02496,4.21514c0.07668,1.26462 -1.78496,3.36364 -1.78496,3.36364" fill="none" stroke="#000000" stroke-width="2" stroke-linecap="round"></path><path d="M341.92744,194.07664c0,0 -0.26896,-1.16871 -0.39931,-1.92852c-0.13136,-0.76547 -1.80148,-3.20337 -2.08774,-4.87159c-0.33844,-1.97245 0.57151,-3.47573 0.57151,-3.47573c0,0 1.57725,3.1952 3.23719,5.08743c1.65994,1.89223 2.64531,1.61823 2.64531,1.61823z" fill="#000000" stroke="#000000" stroke-width="0" stroke-linecap="butt"></path><path d="M311.3552,183.20052c0,0 1.18227,0.04837 1.85077,0.35494c0.66849,0.30657 1.62216,0.73522 2.45486,1.61956c0.83267,0.88432 1.74835,2.33043 2.67959,3.93998c0.93125,1.60957 1.17371,2.10894 1.52153,3.43239c0.3478,1.32345 0.62641,2.60827 0.15062,3.68075c-0.4758,1.07249 -2.35709,2.86355 -2.35709,2.86355" fill="none" stroke="#000000" stroke-width="2" stroke-linecap="round"></path><path d="M306.18506,181.03385c0,0 2.76505,1.6652 4.13942,3.16357c1.37437,1.49837 2.19065,2.73273 3.55997,5.07217c1.3693,2.33941 1.33975,2.6138 1.73583,3.97556c0.3961,1.36179 1.11877,5.00538 1.11877,5.00538" fill="none" stroke="#000000" stroke-width="2" stroke-linecap="round"></path><path d="M297.07522,180.65191c0,0 3.18162,0.6397 5.15847,1.61237c1.97687,0.97267 2.48103,1.45579 3.74871,2.77021c1.26768,1.31445 2.38721,2.67681 3.4449,4.68875c1.0577,2.01195 1.71195,3.65148 2.31392,6.23967c0.602,2.58819 0.24224,3.5735 -0.12904,5.15071c-0.3713,1.57719 -2.44643,6.16859 -2.44643,6.16859" fill="none" stroke="#000000" stroke-width="1.5" stroke-linecap="round"></path><path d="M304.8957,209.07903c0,0 -2.95893,-0.47145 -4.83947,-1.12453c-1.88052,-0.65308 -3.26493,-1.10399 -5.13911,-2.13208c-1.87417,-1.02807 -3.2331,-1.68598 -4.68737,-3.36193c-1.45425,-1.67594 -2.08702,-2.72041 -2.83714,-5.02724c-0.7501,-2.30684 -0.86887,-3.3964 -0.64702,-5.17303c0.22185,-1.77662 0.85373,-3.08007 1.74716,-4.99201c0.89343,-1.91195 3.07475,-4.83689 3.07475,-4.83689" fill="none" stroke="#000000" stroke-width="1.5" stroke-linecap="round"></path><path d="M288.85005,198.68435l0.43882,-1.86401l2.63783,-4.58729l3.65425,-5.35439l3.82425,-3.63705l5.72583,-2.31945" fill="none" stroke="#000000" stroke-width="1.5" stroke-linecap="round"></path><path d="M286.26937,202.35259c0,0 2.07638,-1.46753 3.60352,-2.31303c1.52712,-0.8455 1.47544,-0.69976 2.46376,-1.04617c0.98832,-0.34639 4.01197,-1.31712 6.59039,-2.1273c2.57837,-0.81018 5.20679,-1.75768 8.60627,-2.64777c3.39949,-0.8901 7.19655,-1.48991 7.19655,-1.48991" fill="none" stroke="#000000" stroke-width="1.5" stroke-linecap="round"></path><path d="M285.57017,189.11619c0,0 2.85803,-0.92612 4.84181,-0.71379c1.98379,0.21234 2.83124,0.73045 4.41466,1.70451c1.58344,0.97408 2.52837,1.79579 3.76038,3.32451c1.23202,1.5287 1.72616,2.27818 2.14946,4.00852c0.4233,1.73032 0.68479,3.00721 0.34396,5.06294c-0.34086,2.05575 -0.7573,2.7122 -1.82018,3.84047c-1.06288,1.12826 -4.59986,3.39083 -4.59986,3.39083" fill="none" stroke="#000000" stroke-width="1.5" stroke-linecap="round"></path><path d="M285.21622,200.20978c-0.36851,-1.06775 0.5517,-3.03471 1.50506,-3.64134c0.95337,-0.60663 1.60049,-0.72032 2.61041,-0.43735c1.00991,0.28296 2.1391,0.94715 3.1023,2.03807c0.96321,1.09095 1.63697,1.87359 1.63807,3.33089c0.00107,1.45731 -0.5213,2.33387 -1.63309,3.2659c-1.11179,0.932 -3.17318,1.26945 -4.19671,0.42474" fill="none" stroke="#000000" stroke-width="1.5" stroke-linecap="round"></path><path d="M330.04061,201.05496c0,0 -3.8823,2.34092 -6.29484,3.95095c-2.41253,1.61002 -2.36913,1.39313 -3.57757,2.63755c-1.20844,1.24442 -1.25546,2.2305 -2.33665,3.45277c-1.08118,1.22225 -1.36464,1.62325 -2.57544,2.10018c-1.21081,0.47694 -2.18769,0.89011 -4.05109,0.80908c-1.86339,-0.08108 -2.4858,-0.35767 -3.35567,-1.13125c-0.86988,-0.7736 -2.15209,-3.22448 -2.15209,-3.22448" fill="none" stroke="#000000" stroke-width="2" stroke-linecap="round"></path><path d="M349.69668,178.125c0.28073,0.41756 0.51475,0.92671 0.74593,1.63378c0.24182,0.73957 0.85989,2.28458 0.19995,3.03819c-0.0547,0.06249 -0.11422,0.11911 -0.17752,0.17104l0.0311,0.03134l-0.54886,0.54519c-0.07011,0.07293 -0.15578,0.13322 -0.25476,0.17524c-0.3925,0.16668 -0.84582,-0.01641 -1.01248,-0.40893c-0.05857,-0.13791 -0.07396,-0.28336 -0.05222,-0.42123l0.11036,-0.78955c-0.06834,-2.74577 -0.72086,-4.21456 -3.35586,-5.25483c0,0 -0.71594,-0.28914 -0.42677,-1.00508c0.28916,-0.71595 1.00508,-0.42678 1.00508,-0.42678c0.24993,0.10279 0.55496,0.23891 0.88022,0.39762c0.27654,0.01792 0.4872,0.1974 0.4872,0.1974l0.1523,0.13198c0.69114,0.37605 1.37358,0.81836 1.74598,1.23432c0.18951,0.21164 0.3441,0.46659 0.47039,0.75025z" fill="#000000" stroke="none" stroke-width="0.5" stroke-linecap="butt"></path></g></g></g></svg>