<svg version="1.1" xmlns="http://www.w3.org/2000/svg" xmlns:xlink="http://www.w3.org/1999/xlink" width="49.03747" height="47.52506" viewBox="0,0,49.03747,47.52506"><g transform="translate(-215.12402,-156.17506)"><g data-paper-data="{&quot;isPaintingLayer&quot;:true}" fill-rule="nonzero" stroke-linecap="butt" stroke-linejoin="miter" stroke-miterlimit="10" stroke-dasharray="" stroke-dashoffset="0" style="mix-blend-mode: normal"><path d="M251.12054,196.9574c0,0 -5.33403,5.17377 -10.11343,5.37011c-9.73983,0.40012 -23.71339,-23.453 -23.71339,-23.453c0,0 5.90038,-7.71819 7.34227,-9.25666c0.3577,-0.38166 1.06719,-0.38322 1.51556,-0.82669c0.39363,-0.38933 7.40188,9.28367 7.46247,8.68071c0.23674,-2.35585 0.78552,-17.47257 0.78552,-17.47257c0,0 -0.90051,-1.97927 6.80072,-2.19244c7.36258,-0.20378 7.21735,4.13464 7.21735,4.13464c0,0 -0.71603,14.54929 -0.01835,16.11979c0.29778,0.67032 4.70826,-7.62333 5.16031,-6.82781c0.41035,0.72215 9.03962,5.9971 9.46825,6.95887c0.80714,1.8111 -9.53082,16.24079 -11.90729,18.76507z" data-paper-data="{&quot;index&quot;:null}" fill="#87a3ad" stroke="none" stroke-width="0"></path><path d="M250.38983,195.97411c-1.96864,2.78603 -5.39542,4.7762 -9.31551,5.12482c-9.7484,0.86695 -22.758,-23.10834 -22.758,-23.10834c0,0 6.3081,-6.95031 7.54658,-8.27174c0.30723,-0.32783 -0.14762,-0.00376 0.2375,-0.38466c0.3381,-0.3344 7.89897,9.68465 7.95101,9.16676c0.20334,-2.02349 0.50546,-18.79614 0.50546,-18.79614c0,0 -0.5426,-0.37414 6.07214,-0.55723c6.32387,-0.17504 7.15122,4.1912 7.15122,4.1912c0,0 -0.89428,14.51387 -0.5479,15.41644c0.25576,0.57575 5.6294,-8.00431 6.01767,-7.32102c0.35246,0.62027 8.08312,6.47912 8.45128,7.30521c0.69326,1.55559 -9.34282,14.44867 -11.31147,17.2347z" data-paper-data="{&quot;index&quot;:null}" fill="none" stroke="#ffffff" stroke-width="2.5"></path><path d="M250.75421,196.82503c0,0 -5.33404,5.17377 -10.11344,5.37011c-9.73982,0.40012 -23.71338,-23.453 -23.71338,-23.453c0,0 5.90037,-7.71819 7.34226,-9.25666c0.3577,-0.38167 1.06719,-0.38322 1.51556,-0.82669c0.39363,-0.38933 7.40188,9.28367 7.46247,8.68071c0.23673,-2.35586 0.78551,-17.47258 0.78551,-17.47258c0,0 -0.9005,-1.97927 6.80073,-2.19244c7.36258,-0.20379 7.21735,4.13464 7.21735,4.13464c0,0 -0.71602,14.54929 -0.01834,16.11979c0.29778,0.67032 4.70826,-7.62333 5.16031,-6.82781c0.41035,0.72215 9.03963,5.9971 9.46825,6.95887c0.80715,1.8111 -9.53082,16.24079 -11.90729,18.76507z" data-paper-data="{&quot;index&quot;:null}" fill="#0586ff" stroke="#000000" stroke-width="3"></path></g></g></svg>