<svg version="1.1" xmlns="http://www.w3.org/2000/svg" xmlns:xlink="http://www.w3.org/1999/xlink" width="197.72309" height="133.71977" viewBox="0,0,197.72309,133.71977"><g transform="translate(-127.63656,-105.91705)"><g data-paper-data="{&quot;isPaintingLayer&quot;:true}" fill-rule="nonzero" stroke-linejoin="miter" stroke-miterlimit="10" stroke-dasharray="" stroke-dashoffset="0" style="mix-blend-mode: normal"><g stroke="#ff0000" stroke-width="0" stroke-linecap="round"><path d="M207.84289,134.13342l3.71234,5.35159c0,0 -4.06539,29.39459 -4.05703,30.01656c0.04066,3.02618 1.95502,37.78876 1.95502,37.78876l-2.16554,11.35181l-40.58983,2.59473l-6.65126,-7.64075c0,0 -1.50651,-13.63219 -1.55492,-20.82769c-0.05626,-8.35965 0.34999,-26.36339 0.34999,-26.36339l-4.51337,-11.8383l4.79024,-11.97149z" fill="#000000"></path><path d="M156.17944,154.56671l4.64043,-10.70314l44.7027,-6.48675l2.93894,3.72987l-3.76068,14.76827l0.04837,24.96305l1.85617,26.91999l-1.54681,8.75714l-36.96867,2.10819l-5.72319,-7.2976c0,0 -2.14202,-20.24895 -2.39335,-28.38752c-0.20176,-6.53367 1.00123,-16.69534 1.00123,-16.69534z" fill="#00e397"></path><path d="M156.17944,154.56671l4.64043,-10.70314c0,0 24.97033,-3.62341 33.17269,-4.81365c2.56923,-0.37283 -9.58038,5.85674 -20.62959,10.09482c-7.2903,2.7963 -14.8003,4.17619 -14.8003,4.17619c0,0 -1.26955,3.95756 -1.37113,3.71022c-0.4447,-1.08286 -1.01208,-2.46442 -1.01208,-2.46442z" fill="#00ffa9"></path><path d="M204.40514,155.81295l0.04837,24.96305l1.85618,26.92l-1.54681,8.75713l-36.72981,2.10819l-5.27838,-7.06442c0,0 2.38016,-20.48212 2.12884,-28.62069c-0.20177,-6.53367 1.00122,-16.69533 1.00122,-16.69533c0,0 11.6811,-3.14402 17.84902,-4.80412c1.21452,-0.32689 9.30504,-8.56224 10.31998,-8.83543c0.96046,-0.25852 10.35139,3.27165 10.35139,3.27165z" fill="#00e397"></path></g><path d="M218.24036,105.92869c18.10609,-0.36652 30.17966,7.91985 35.84698,24.85991c3.57259,10.67877 5.58574,23.58651 6.11255,36.3515c1.36473,33.06756 -4.84138,65.83825 -4.84138,65.83825c0,0 -2.58179,2.00669 -5.18189,2.42946c-2.286,0.3717 -6.64085,1.19449 -8.69048,1.20211c-0.17291,0.00065 -5.21981,-0.5872 -7.62893,-1.09612c-3.11778,-0.6586 -7.73743,-3.41153 -7.73743,-3.41153c0,0 -1.14386,-18.35447 -1.04887,-20.10268c0.0231,-0.42511 0.55733,0.09519 0.02735,0.12718c-0.79274,0.04789 -3.05854,0.14568 -5.69047,3.52084c-0.10225,0.13114 -1.99312,12.2301 -2.07524,12.76632c-0.46142,3.01226 -2.19477,7.45836 -2.60696,7.8726c-0.27736,0.27874 -3.58811,2.5172 -6.25241,2.96843c-2.83488,0.48012 -8.12062,0.46936 -11.87053,0.17867c-0.11459,-0.00888 -6.66445,-1.18288 -8.51952,-1.36615c-5.71335,-0.56439 -7.29543,-5.37613 -7.29543,-5.37613c0,0 0.65586,-26.30296 0.62035,-54.21974c-0.02598,-20.42731 -0.11038,-42.14438 6.81329,-57.01588c5.34939,-11.49008 15.31477,-15.22938 30.01906,-15.52702z" fill="#000000" stroke="#ff0000" stroke-width="0" stroke-linecap="round"></path><path d="M218.42876,108.02233c9.49268,-0.19216 17.71392,2.17056 23.40464,6.90434c12.00599,9.98705 15.64931,29.65882 16.57371,52.05688c1.36473,33.06754 -4.62127,64.60737 -4.62127,64.60737c0,0 -1.99476,1.09315 -4.59487,1.51593c-2.47887,0.40305 -5.92361,0.88423 -7.93813,0.80991c-2.01699,-0.07442 -4.62014,-0.29573 -7.28064,-0.85776c-3.11778,-0.6586 -5.75623,-2.41144 -5.75623,-2.41144c0,0 -1.07047,-17.58517 -0.97548,-19.33337c0.05767,-1.06098 2.82447,-2.131 2.82447,-2.131c0,0 -7.36251,-1.4567 -11.72506,4.64534c-1.93539,2.70711 -2.12341,7.95743 -2.70135,12.77131c-0.07399,0.61628 -0.15435,1.22536 -0.2456,1.82106c-0.46142,3.01226 -1.66279,5.65051 -2.07497,6.06474c-0.27736,0.27874 -1.9371,1.82482 -4.6014,2.27606c-2.92152,0.4948 -6.6891,0.93066 -10.56377,0.7335c-2.09108,-0.1064 -4.35737,-0.69916 -6.21242,-0.88241c-5.71335,-0.56439 -8.8119,-4.19653 -8.8119,-4.19653c0,0 0.55803,-26.40552 0.52252,-54.32229c-0.03349,-26.33445 -0.66796,-51.44332 12.6207,-63.23699c4.98326,-4.42264 12.95635,-6.64829 22.15709,-6.83453z" fill="#00ffa9" stroke="#ff0000" stroke-width="0" stroke-linecap="round"></path><path d="M253.36192,233.07207c0,0 -1.99476,0.87766 -4.59487,1.21709c-2.47887,0.3236 -5.9236,0.70992 -7.93812,0.65025c-2.01699,-0.05975 -4.62015,-0.23744 -7.28065,-0.68867c-3.11778,-0.52876 -5.75623,-1.93606 -5.75623,-1.93606c0,0 -1.07046,-14.11852 -0.97547,-15.52208c0.05767,-0.85182 2.2183,-1.7109 2.2183,-1.7109c0,0 -6.75632,-1.16953 -11.11888,3.72958c-1.93539,2.17344 -2.12341,6.38873 -2.70135,10.25364c-0.07399,0.49479 -0.15436,0.98379 -0.24561,1.46206c-0.46142,2.41843 -1.66278,4.5366 -2.07496,4.86917c-0.27736,0.22379 -1.93711,1.46509 -4.60141,1.82737c-2.92152,0.39726 -6.68908,0.7472 -10.56376,0.58891c-2.09108,-0.08543 -4.35736,-0.56133 -6.21243,-0.70846c-5.71335,-0.45313 -8.81191,-3.36925 -8.81191,-3.36925c0,0 0.55803,-21.20006 0.52253,-43.61346c-0.01842,-11.61823 -0.21828,-22.93932 1.81033,-32.35275c1.32262,-6.13736 -0.62316,9.14368 5.79486,27.07325c1.65215,4.61551 5.22885,9.17584 7.94337,13.86337c2.11246,3.64788 7.55353,7.36053 14.5693,8.96576c4.00328,0.91595 15.82982,1.93877 15.78548,1.94431c-0.79648,0.09937 6.12717,5.10051 5.60042,8.57215c-0.5094,3.35744 0.68635,6.51662 1.10616,7.15131c0.34892,0.5275 2.02316,1.58964 3.99359,2.09955c1.75654,0.45457 3.74846,0.41954 5.24665,-0.03087c1.19555,-0.35941 5.56688,-3.34233 8.28455,-6.3049c1.51243,-1.64873 1.67427,-3.77973 2.50105,-4.27774c0.80007,-0.48193 -0.64177,4.88701 -0.61381,4.9472c0.50597,1.0891 -1.8871,11.30022 -1.8871,11.30022z" fill="#00e397" stroke="#ff0000" stroke-width="0" stroke-linecap="round"></path><path d="M188.14681,236.04379c-2.97118,-1.08694 -5.12943,-2.85836 -5.12943,-2.85836c0,0 0.55803,-26.40551 0.52253,-54.32228c-0.00869,-6.83497 -0.05787,-13.58736 0.1064,-20.04583c0.10731,-4.21884 2.2707,29.1143 4.70417,53.7026c0.36714,3.70971 1.65529,12.6512 7.3138,17.00503c3.42562,2.63578 10.91917,2.71108 13.73255,1.43831c1.81772,-0.82234 2.55445,-11.88221 6.5786,-16.79487c4.64676,-5.67274 12.56075,-5.05389 13.46257,-4.75367c0.07536,0.02509 -4.85956,-0.06241 -8.03002,2.10161c-3.03293,2.07014 -4.30579,6.2245 -4.31266,6.59245c-0.04686,2.51251 -0.90989,8.23893 -2.02999,12.46306c-0.78789,2.97135 -2.36357,5.02618 -2.36745,5.09049c-0.06713,1.11251 -5.38598,2.40824 -10.81146,2.30829c-6.51027,-0.11991 -13.34534,-1.78262 -13.73961,-1.92688z" fill="#00e397" stroke="#ff0000" stroke-width="0" stroke-linecap="round"></path><path d="M227.60741,230.95519c0,0 -1.07047,-17.58517 -0.97548,-19.33338c0.05767,-1.06098 2.2183,-2.131 2.2183,-2.131c0,0 -0.5857,16.19813 6.73498,20.0619c1.67866,0.88598 7.92871,2.58403 12.13677,0.7457c3.55,-1.55086 5.24268,-6.5787 5.59311,-7.03433c1.28885,-1.67572 1.52983,-7.41644 2.15803,-7.43029c1.08746,-0.02399 -1.97758,16.03575 -1.97081,16.12846c0.04932,0.67604 -4.94435,1.93291 -9.82397,2.12783c-5.08351,0.20307 -10.06719,-0.67119 -10.31471,-0.72347z" fill="#00e397" stroke="#ff0000" stroke-width="0" stroke-linecap="round"></path><g stroke-linecap="butt"><path d="M216.0903,146.93508c1.02814,-2.31562 2.93715,-1.0685 2.93715,-1.0685c4.55233,2.97403 9.3212,6.38064 14.27867,8.2601c3.79539,1.43889 7.64538,2.45497 11.37242,4.26763l2.191,0.70532c0.26731,0.078 0.52676,0.21939 0.76328,0.42709c0.97002,0.85174 1.18714,2.49607 0.48496,3.67269c-0.53758,0.90079 -1.45813,1.26634 -2.29545,1.00602l-3.39285,-0.9552c-2.76475,-0.00281 -5.42171,-1.56316 -8.22652,-1.57562c-6.65019,-0.02955 -13.91297,-0.11102 -20.48087,1.15226c-2.80778,0.54005 -5.68312,2.05701 -8.43224,2.97803l-2.3779,0.04694c-0.45561,0.11253 -1.00939,0.07241 -1.54467,-0.41988c-0.35887,-0.26017 -0.69834,-0.67878 -0.85287,-1.35228c-0.21302,-0.6496 -0.15169,-1.23205 0.00419,-1.70263c0.17309,-0.75273 0.56724,-1.18685 0.96869,-1.4372c4.36131,-4.17762 9.20788,-9.40584 14.42103,-11.88718c-0.17687,-0.55445 -0.19734,-1.26331 0.18196,-2.11759z" fill="#3f7ce2" stroke="none" stroke-width="0.5"></path><path d="M221.78602,144.27453c0.61247,-0.20407 1.21266,-0.3625 1.80734,-0.4934c1.92067,-1.03904 3.78713,-1.84773 5.87794,-2.51945c1.97221,-0.38512 3.933,-0.60139 5.87651,-0.64704c1.7948,-0.67283 3.61228,-1.2196 5.51594,-1.23387c1.5692,-0.01175 3.11271,0.5154 4.67925,0.62671l1.99025,0.48082c0,0 1.9963,0.51196 1.70636,2.89162c1.61033,0.70772 3.19599,1.55191 4.75292,2.53381c3.09913,1.9545 6.38866,3.3839 9.10745,6.15335c3.64639,3.71433 6.98563,16.59329 3.16021,13.15408c-0.02842,-0.02238 -0.04354,-0.03563 -0.04354,-0.03563l0.0015,-0.00295c-0.07963,-0.07459 -0.15048,-0.14949 -0.21187,-0.2198c-0.50002,-0.19998 -1.00002,-0.4 -1.50003,-0.59998c-3.8318,0.06876 -7.80978,0.04753 -11.62495,-0.41581c-2.4581,-0.29854 -4.74171,-1.37035 -7.17616,-1.80742c-2.37195,-0.42586 -5.26837,-0.34226 -7.56048,-1.24852c-6.17841,-2.44289 -17.83857,-8.48081 -23.28586,-12.75292c0,0 3.43578,-0.18922 4.61314,-2.39781c0.5494,-1.03063 1.23892,-1.26933 1.81815,-1.2308c0.11544,-0.06987 0.22982,-0.12492 0.33733,-0.16828c0.09792,-0.04632 0.15866,-0.06668 0.15866,-0.06668z" fill="#98fdff" stroke="none" stroke-width="0.5"></path><path d="M200.51348,160.65079c0.56382,-0.94475 1.54889,-1.30072 2.41737,-0.96342l1.23575,-1.51756l1.30032,-1.4066c0,0 0.12102,-0.13022 0.32627,-0.27939c0.01736,-0.25139 0.0661,-0.52406 0.15445,-0.81918c0.73999,-2.47219 2.77807,-1.57457 2.77807,-1.57457c4.05195,1.78944 8.11693,2.3811 12.31839,3.17899c0.71285,0.0813 1.40103,0.18487 2.05533,0.30902c0,0 0.12711,0.02535 0.31427,0.10127c0.39344,0.14959 0.93525,0.4691 1.25022,1.13895c0.20364,0.41461 0.31739,0.96199 0.23579,1.68184c-0.0672,0.72202 -0.28869,1.21851 -0.57032,1.55943c-0.44137,0.55498 -1.0314,0.70262 -1.44309,0.72995c-0.19681,0.01759 -0.32515,0.00416 -0.32515,0.00416l-1.17283,-0.13065c-0.40618,-0.08107 -0.81099,-0.1597 -1.21455,-0.23691c-4.36343,-0.44671 -9.61526,0.22232 -13.39102,2.00191l-0.36005,-0.10585l0.00643,0.16213l-2.20155,0.12871c-0.288,0.01985 -0.58034,-0.02963 -0.85885,-0.1519c-0.71969,0.51241 -1.65099,0.49396 -2.37028,-0.13761c-0.97002,-0.85174 -1.18714,-2.49607 -0.48496,-3.67269z" fill="#00aeff" stroke="none" stroke-width="0.5"></path><path d="M259.93057,149.80797c0.07062,0.05285 0.1413,0.10563 0.21204,0.15838c0.42128,0.18676 0.8508,0.55641 1.10122,1.27203c0.20472,0.44236 0.32955,1.01105 0.18824,1.68662c-0.08159,0.68988 -0.37568,1.15799 -0.70394,1.47233c-0.46364,0.55457 -0.98601,0.69351 -1.43918,0.66579l-2.22644,0.39737c-8.71569,-1.94913 -17.1539,-5.14338 -23.73547,-12.48372c0,0 -1.5958,-1.78059 -0.12786,-3.71627c1.19483,-1.57557 2.47437,-0.689 2.90911,-0.30458c0.40221,-0.31869 0.87969,-0.46406 1.35263,-0.42051l2.17092,0.1578c1.58152,-0.00362 3.68568,-0.10938 5.21263,0.36127c2.75929,0.85048 4.98377,3.26743 7.37896,4.96954c1.11008,0.78885 2.19992,1.60108 3.28369,2.4221c0.82834,0.21368 1.6649,0.49377 2.52953,0.92964l0.98954,0.78574c0,0 0.72012,0.63232 0.90436,1.64647z" fill="#ffffff" stroke="none" stroke-width="0.5"></path><path d="M244.37556,139.48858c17.63833,6.73165 24.81,21.20679 23.90319,24.70273c-0.90679,3.49593 -13.59499,0.58445 -32.02596,-1.21834c-20.46128,-2.00138 -37.76324,4.11982 -36.85644,0.62386c0.90681,-3.49596 27.34086,-30.83992 44.97921,-24.10827z" fill="none" stroke="#13263b" stroke-width="3"></path></g><g><path d="M313.34731,178.74123c0,1.27806 -1.11467,2.4049 -2.04189,2.4049c-0.92721,0 -6.30714,-5.48284 -6.30714,-6.76091c0,-0.68607 -14.48185,-2.59907 -13.7986,-3.04707c0.13908,-0.09119 0.21319,-3.18912 1.63772,-3.15488c4.61401,0.11093 14.78211,3.79707 15.11028,3.79707c0.11041,0 -4.59669,-3.06772 -5.99912,-6.87686c-2.56214,-6.95902 -2.94315,-16.78628 -2.41981,-16.222c0.4755,0.51268 0.59185,-4.89475 8.2913,-3.91376c2.5587,0.326 11.40666,2.77872 14.13216,7.12553c3.43049,5.47117 1.19005,12.92852 2.03755,14.8448c1.81662,4.10757 -3.66836,8.59958 -7.21876,10.62528c-2.01304,1.14855 -3.42367,1.03756 -3.42367,1.17792z" fill="#516087" stroke="none" stroke-width="0" stroke-linecap="butt"></path><path d="M314.2548,151.69761c0,0.82698 -1.03608,1.49738 -2.31413,1.49738c-1.27807,0 -2.31414,-0.67039 -2.31414,-1.49738c0,-0.82698 1.03607,-1.49738 2.31414,-1.49738c1.27807,0 2.31413,0.6704 2.31413,1.49738z" fill="#9ec6c6" stroke="none" stroke-width="0" stroke-linecap="butt"></path><path d="M307.81156,171.61733c0,0.5961 -0.58463,1.29227 -1.05662,1.90921c-0.48044,0.62799 -0.85077,1.17388 -1.12138,1.44855c-0.94977,0.96395 -5.26353,-1.61038 -5.26353,-2.81326c0,-0.81465 0.60967,-2.90111 1.8922,-3.16719c0.17418,-0.03614 -3.99646,-0.77332 -7.34115,-0.91815c-1.88009,-0.08141 -3.87166,1.63832 -3.77392,-0.16828c0.05261,-0.97215 -1.25429,-2.38822 -1.47966,-4.18692c-0.32097,-2.56177 0.52522,-5.71303 1.82629,-7.86508c1.07912,-1.78494 2.22025,-5.26886 3.80559,-6.60726c3.79946,-3.20765 8.42842,-3.13247 8.42842,-3.13247c0,0 -2.26474,2.51494 -1.25326,8.67942c0.33621,2.04898 2.00334,8.56429 5.58492,12.66823c4.60509,5.27672 11.30351,8.22673 11.30351,8.22673c0,0 -2.50495,3.58905 -4.51174,2.8618c-1.61187,-0.58415 -2.91963,-2.47599 -4.22878,-4.00334c-1.44388,-1.68457 -2.8109,-2.9847 -2.8109,-2.93196z" fill="#393b47" stroke="none" stroke-width="0" stroke-linecap="butt"></path><path d="M293.05895,172.63976c0,0 1.25807,-1.79353 1.8237,-2.57463c0.42744,-0.59028 1.27316,-1.70199 1.27316,-1.70199l7.07853,1.32722c0,0 -0.3517,1.29803 -0.78661,1.84738c-0.49201,0.62147 -2.01531,1.69188 -2.01531,1.69188z" fill="#9ec6c6" stroke="none" stroke-width="0" stroke-linecap="butt"></path><path d="M291.43674,214.59479c0,1.18095 -1.3029,2.43324 -2.72818,2.43324c-1.42528,0 -7.74214,-4.79156 -7.74214,-5.97251c0,-1.18095 15.58475,-38.64266 17.01003,-38.64266c0.19565,0 9.47089,3.40436 9.35754,4.74051c-0.71237,8.39744 -15.89725,36.42257 -15.89725,37.44142z" fill="#2e2230" stroke="none" stroke-width="0" stroke-linecap="butt"></path><path d="M308.39574,180.82431c0,0.59692 6.94458,5.17425 6.95726,6.27055c0.0199,1.72079 0.8222,4.03304 0.18068,6.10712c-0.82859,2.67887 -2.8813,2.74954 -4.53418,5.04354c-1.23361,1.7121 -1.53572,4.16535 -2.64642,5.87338c-1.0736,1.65096 -2.96081,2.58631 -3.86527,2.58631c-1.08122,0 -3.91363,6.40913 -8.03871,7.51486c-2.53918,0.68062 -13.43532,-3.48758 -15.58337,-3.96083c-2.3329,-0.51396 -2.62145,-6.70611 -3.90191,-7.34234c-2.34904,-1.16718 3.79673,-2.49558 2.46969,-3.82182c-0.88818,-0.88765 -1.56392,-1.63491 -1.56392,-2.49152c0,-0.87566 -1.36508,-3.56437 -0.44089,-4.23937c0.64746,-0.47287 -8.49602,-3.94088 -7.45471,-4.23114c1.38562,-0.38624 -0.94272,-5.56609 1.87252,-5.38679c1.13495,0.07228 4.06524,-3.54354 5.47756,-3.22409c8.09266,1.83049 17.98411,10.81395 19.93774,10.81395c4.68309,0 11.13394,-14.03198 11.13394,-9.51177z" fill="#00e397" stroke="none" stroke-width="0" stroke-linecap="butt"></path><path d="M309.57552,189.59874c-0.70014,2.25027 -2.72678,4.5731 -6.03196,4.78963c-1.98478,0.13003 -3.65808,-0.59067 -5.90675,-1.41505c-1.7714,-0.64941 -4.17964,-1.3072 -5.46268,-2.04734c-0.81907,-0.47249 10.93134,6.89384 1.42874,10.5138c-1.27643,0.48625 -6.49216,-0.72314 -10.39774,-2.04632c-0.5383,-0.18237 -1.04458,-0.3687 -1.51464,-0.55242c-0.45792,-0.17898 -2.35617,-1.33116 -2.74149,-0.93388c-0.10147,0.10462 0.50714,1.27967 2.64023,2.61005c2.62115,1.63477 -4.00507,-0.96426 -2.7288,1.1693c4.43902,7.42076 12.45609,5.06785 12.7455,4.99809c0.71525,-0.1724 6.88745,-2.42631 -6.89105,-4.4872c-4.16408,-0.62284 -6.76711,-5.07608 -6.81458,-5.09613c-0.61268,-0.25873 -0.52355,-5.59928 0.25789,-6.98028c1.70792,-3.01831 5.60895,-3.2746 4.8555,-4.22593c-0.5236,-0.6611 -2.64059,1.83549 -6.46145,0.7539c-1.2924,-0.72921 -1.9752,-1.67826 -1.87241,-2.80998c0.15825,-1.74241 1.92197,-3.77034 2.8958,-6.24298c0.90079,-2.28719 -0.01217,-5.53637 1.26986,-7.21146c1.47985,-1.93356 4.03591,-2.77889 4.18554,-2.75875c4.41584,0.59423 6.67482,1.68012 7.19351,2.96253c0.36473,0.90175 -1.10022,2.19889 0.9173,2.19889c4.8867,0 21.97294,5.43616 18.43367,16.81152z" fill="#00ffa9" stroke="none" stroke-width="0" stroke-linecap="butt"></path><path d="M279.80118,199.8588c0,0 -1.55027,-1.3054 -2.00558,-2.59546c-0.45531,-1.29006 -0.70785,-2.0978 -0.70785,-3.42129c0,-1.32349 0.16548,-2.10067 0.70785,-3.30331c0.54237,-1.20264 1.00102,-1.68438 2.00558,-2.71344c1.00456,-1.02905 2.83141,-2.0449 2.83141,-2.0449c0,0 -0.86645,-1.85193 -1.06178,-3.14602c-0.19533,-1.29408 -0.48518,-1.68577 0.11798,-3.30331c0.60315,-1.61755 1.61211,-2.75162 2.47749,-3.65724c0.86537,-0.90562 1.04743,-1.20578 2.59546,-1.65166c2.39558,-0.68999 4.32929,-0.52229 6.37068,-0.35393c2.04139,0.16836 2.26338,0.22348 5.07295,1.29773c2.80957,1.07425 4.80958,2.0712 6.96055,3.30331c2.15098,1.23211 3.72794,2.45479 5.19092,3.65724c1.46298,1.20245 2.37412,1.88544 3.42129,3.42129c1.04717,1.53585 1.47017,2.78319 1.88761,4.36509c0.41744,1.58191 0.81759,2.66492 0.35393,4.12914c-0.46366,1.46422 -1.52958,2.06115 -2.59546,2.94939c-1.06588,0.88824 -2.50888,1.13411 -3.06736,1.76963c-0.55849,0.63552 0.10953,0.82009 -0.35393,2.12356c-0.46346,1.30346 -0.70108,2.01969 -1.53368,3.18534c-0.83261,1.16565 -1.77587,2.02956 -2.59546,2.59546c-0.81959,0.5659 -1.05518,-0.15242 -2.35951,0.82583c-1.30433,0.97825 -1.01041,1.33041 -2.83141,3.06736c-1.12876,1.07665 -2.21603,2.94473 -3.96135,3.73538c-1.07034,0.48489 -2.69487,0.31921 -3.82503,0.03984c-2.97302,-0.7349 -5.17957,-1.22138 -7.55043,-2.12356c-2.37086,-0.90218 -4.627,-2.00859 -5.7808,-2.94939c-1.1538,-0.9408 -1.32605,-1.78954 -1.88761,-3.30331c-0.56156,-1.51378 -1.12256,-2.86987 -0.82583,-4.01117c0.29673,-1.1413 2.94939,-1.88761 2.94939,-1.88761z" fill="none" stroke="#000000" stroke-width="2" stroke-linecap="round"></path><path d="M295.37388,192.78027c0,0 -4.72292,-2.06764 -7.78638,-3.46061c-3.74189,-1.70146 -5.19092,-3.73589 -5.19092,-3.73589" fill="none" stroke="#000000" stroke-width="2" stroke-linecap="round"></path><path d="M290.41898,203.28009c0,0 -4.2536,-0.92969 -6.14028,-1.5449c-1.71481,-0.55917 -4.71346,-1.99436 -4.71346,-1.99436" fill="none" stroke="#000000" stroke-width="2" stroke-linecap="round"></path><path d="M277.42107,190.82405c0,0 -1.19353,0.14951 -2.47749,-0.11798c-1.28395,-0.26748 -2.51024,-0.37119 -3.36685,-0.78953c-0.85661,-0.41834 -1.2385,-0.57741 -1.7061,-1.68796c-0.4676,-1.11055 -0.3284,-1.98834 0,-3.06736c0.3284,-1.07903 0.72031,-1.42817 1.65166,-2.35951c0.93135,-0.93134 1.55779,-1.45655 2.62268,-2.18709c1.16877,-0.80178 1.99246,-1.15318 2.6499,-2.01467c0.65744,-0.86148 0.88842,-1.04614 1.09808,-3.11273c0.20965,-2.06659 -0.17217,-3.16196 0.11798,-4.24712c0.26083,-0.9755 1.02461,-1.52375 2.00558,-2.24153c0.98097,-0.71778 1.73951,-1.093 2.83141,-1.29773c1.09191,-0.20473 1.84974,-0.00948 2.83141,0.23595c0.98167,0.24543 1.35453,0.43367 2.35951,1.06178c1.00498,0.62812 1.73197,1.02764 2.35951,1.88761c0.62754,0.85996 1.00734,2.56823 1.00734,2.56823" fill="none" stroke="#000000" stroke-width="2" stroke-linecap="round"></path><path d="M291.70331,214.32023c0,0 -0.48119,1.72872 -1.36126,2.26877c-0.88007,0.54004 -2.01714,0.33515 -2.63177,0.1815c-0.61463,-0.15366 -2.39191,-0.95658 -3.72077,-1.90575c-1.32884,-0.94917 -2.15215,-1.73175 -3.26702,-3.08551c-1.11487,-1.35377 -1.815,-3.08551 -1.815,-3.08551" fill="none" stroke="#000000" stroke-width="2" stroke-linecap="round"></path><path d="M291.85177,172.35638c0,0 2.81583,-0.08039 4.60104,0.11798c1.78523,0.19836 2.49437,0.22996 4.01117,0.70786c1.5168,0.47789 2.87516,0.9752 4.60104,2.00558c1.72589,1.03038 2.05363,1.50391 3.06736,2.83141c1.01373,1.32751 1.88761,3.65724 1.88761,3.65724" fill="none" stroke="#000000" stroke-width="2" stroke-linecap="round"></path><path d="M290.43602,170.23282c0,0 0.52006,-1.27445 1.29773,-1.53368c0.77769,-0.25923 3.51448,-0.88053 5.7808,-0.70785c2.26632,0.17267 4.15409,0.74576 6.60663,1.76963c2.45254,1.02388 3.52641,1.61403 5.42687,3.30332c1.90046,1.68929 2.14081,2.24771 3.06736,4.01116c0.92656,1.76346 0.82583,2.71344 0.82583,2.71344c0,0 -0.81711,0.95395 -1.27958,1.26927c-0.3904,0.26619 -1.31588,0.50035 -1.31588,0.50035" fill="none" stroke="#000000" stroke-width="2" stroke-linecap="round"></path><path d="M291.14387,168.81712c0,0 -0.96319,-1.75149 -1.29773,-3.06736c-0.33454,-1.31588 -0.49348,-2.3611 -0.4719,-3.89319c0.02158,-1.53209 0.02506,-2.80954 0.58988,-4.48307c0.56482,-1.67353 1.3163,-3.1821 2.59546,-4.95497c1.27916,-1.77287 2.18241,-3.05219 4.12914,-4.36509c1.94673,-1.3129 3.5727,-1.76021 6.01675,-2.47749c2.44405,-0.71728 2.92643,-0.80948 4.837,-0.70785c1.91057,0.10163 3.91422,0.42703 6.2527,1.29773c2.33848,0.8707 3.15673,1.41999 4.837,2.83141c1.68027,1.41143 2.84811,2.51723 4.01117,4.60104c1.16306,2.08381 1.37557,3.29364 1.65166,5.54485c0.27609,2.25121 0.11767,4.25064 -0.11798,6.96055c-0.23564,2.70991 -0.13234,2.58631 -0.66853,4.05048c-0.53618,1.46418 -1.20884,2.77148 -2.39883,4.32577c-1.19,1.55429 -2.05725,1.98526 -3.53927,3.06737c-1.48202,1.08211 -3.89319,2.35951 -3.89319,2.35951" fill="none" stroke="#000000" stroke-width="2" stroke-linecap="round"></path><path d="M295.31237,167.40141c0,0 -0.7559,-1.77288 -1.1011,-3.06737c-0.34519,-1.29449 -0.50433,-2.19794 -0.70785,-3.77522c-0.20352,-1.57727 -0.15679,-2.42521 0.07865,-3.69656c0.23543,-1.27135 0.44104,-1.76105 1.1011,-2.91007c0.66008,-1.14901 1.0082,-1.56376 1.76963,-2.47749c0.76144,-0.91372 1.91439,-2.29954 3.38197,-3.73589c1.46757,-1.43635 2.63478,-2.08424 2.63478,-2.08424" fill="none" stroke="#000000" stroke-width="1.5" stroke-linecap="round"></path><path d="M298.34049,167.51939c0,0 -0.21024,-1.27669 -0.33832,-2.58404c-0.08591,-0.87687 -0.17025,-1.64561 -0.21223,-2.29229c-0.10461,-1.61085 -0.1166,-2.65907 0.03932,-4.12914c0.15591,-1.47007 0.13751,-2.02076 0.86515,-3.73589c0.72764,-1.71514 0.59177,-1.83979 2.35951,-4.12914c1.76772,-2.28936 5.23024,-5.50553 5.23024,-5.50553" fill="none" stroke="#000000" stroke-width="1.5" stroke-linecap="round"></path><path d="M302.70547,168.81712c0,0 -0.35671,-1.62127 -0.27527,-3.65724c0.08144,-2.03597 0.17444,-3.30372 0.62919,-5.19092c0.45475,-1.8872 0.99048,-3.11299 1.73032,-4.6797c0.73984,-1.56671 0.77722,-1.62005 2.20221,-3.81454c1.42499,-2.1945 4.48307,-5.74148 4.48307,-5.74148" fill="none" stroke="#000000" stroke-width="1.5" stroke-linecap="round"></path><path d="M316.58736,147.69949c0,0 -0.29734,1.75905 -0.86039,3.60397c-0.34139,1.11858 -0.87992,2.21899 -1.22385,3.12064c-0.91118,2.38877 -1.39724,3.24219 -2.43816,5.34822c-1.04091,2.10603 -1.41823,3.07815 -2.47749,4.91565c-0.38872,0.67432 -1.01564,1.71007 -1.55402,2.55204c-0.9287,1.45239 -1.90659,2.63889 -1.90659,2.63889" fill="none" stroke="#000000" stroke-width="1.5" stroke-linecap="round"></path><path d="M322.01419,152.61511c0,0 -0.41724,3.30449 -0.90448,5.23024c-0.48724,1.92575 -0.8852,3.14211 -1.88761,4.95497c-1.00241,1.81286 -1.99417,3.28357 -3.65725,5.07295c-0.6838,0.73573 -1.60532,1.86143 -2.63874,2.74678c-1.47996,1.26791 -3.02408,2.20819 -3.02408,2.20819" fill="none" stroke="#000000" stroke-width="1.5" stroke-linecap="round"></path><path d="M324.60965,162.52507c0,0 -1.71114,4.4801 -3.38197,6.8819c-1.67082,2.4018 -2.5242,2.88958 -4.48307,4.36509c-1.95887,1.47551 -4.60105,2.47749 -4.60105,2.47749" fill="none" stroke="#000000" stroke-width="1.5" stroke-linecap="round"></path><path d="M294.60456,149.98035c0,0 1.3771,-0.17146 3.49994,-0.39325c2.12284,-0.22179 2.19654,-0.56204 5.42688,-0.58988c3.23034,-0.02784 5.94526,0.06026 8.25829,0.4719c2.31303,0.41164 3.8901,0.99885 5.66282,2.00558c1.77272,1.00673 2.27771,1.16518 3.89319,3.42129c1.61548,2.25611 2.94939,6.13473 2.94939,6.13473" fill="none" stroke="#000000" stroke-width="1.5" stroke-linecap="round"></path><path d="M290.90801,155.48588c0,0 4.52228,-1.01886 7.66841,-1.53368c3.14614,-0.51482 3.22321,-0.35393 5.3089,-0.35393c2.08569,0 3.20547,0.03743 5.19092,0.51122c1.98545,0.4738 3.28145,0.88262 5.19092,1.88761c1.90948,1.00499 2.48044,1.35701 3.77522,2.67412c1.29477,1.3171 1.98507,2.43511 3.06736,4.12914c1.08229,1.69404 2.67411,5.9381 2.67411,5.9381" fill="none" stroke="#000000" stroke-width="1.5" stroke-linecap="round"></path><path d="M290.43602,165.51379c0,0 0.57415,-0.6927 1.34004,-1.27273c0.67158,-0.50859 1.4906,-0.88859 2.19922,-1.20476c1.51677,-0.67672 1.99806,-0.86488 4.12914,-0.9438c2.13108,-0.07892 3.0674,0.09833 5.42687,0.58988c2.35947,0.49156 3.88674,0.71788 5.89878,1.76963c2.01204,1.05175 3.37967,2.03592 4.48307,3.65724c1.1034,1.62132 1.09066,2.53331 1.29773,4.837c0.20707,2.3037 -1.81896,4.00246 -0.35393,5.66282" fill="none" stroke="#000000" stroke-width="1.5" stroke-linecap="round"></path></g><g stroke="#000000" stroke-linecap="round"><path d="M235.17113,197.83425l-3.75,-2.25l-3.25,1.25c0,0 -8.4918,1.30489 -17,1.25c-8.5082,-0.05489 -21.75,-1.5 -21.75,-1.5c0,0 -1.16122,-5.10042 -0.75,-8.75c0.41122,-3.64958 2.75,-9 2.75,-9l9.75,8.75l8.25,5.5l3,-1.75l6.5,4l3.75,-1.5l5.75,3l2.5,-1.75l4.5,2.75l6.5,-4.5z" fill="#ffffff" stroke-width="2"></path><path d="M220.42114,195.33425l-6.5,1.75l-4,-4l-5.5,3.5l-2.5,-8l-6.75,8l-4,-16.25" fill="none" stroke-width="1"></path></g><g><g stroke-width="2"><path d="M148.18794,223.3853" fill="none" stroke="#000000" stroke-linecap="round"></path><path d="M144.54533,215.64043" fill="none" stroke="#000000" stroke-linecap="round"></path><path d="M130.20084,198.94802c0,0 1.26441,-6.03658 2.20369,-8.73812c0.64795,-1.86365 2.57838,-4.14908 2.57838,-4.14908l3.15988,-0.81903c0,0 -1.52803,6.70207 -2.43103,9.67203c-0.79074,2.60072 -0.13867,2.08663 -1.89223,3.83262c-1.75357,1.74601 -3.61867,0.20154 -3.61867,0.20154z" fill="#312e37" stroke="#000000" stroke-linecap="butt"></path><path d="M170.55033,188.57786l4.57974,0.59964c0,0 0.03927,9.19532 -0.92628,13.81186c-0.98986,4.73267 -4.94174,14.24446 -4.94174,14.24446l-4.40025,-0.42805c0,0 1.51124,-10.29549 2.48631,-15.13408c0.9176,-4.55337 3.20224,-13.09383 3.20224,-13.09383z" fill="#a09aa6" stroke="none" stroke-linecap="butt"></path><path d="M170.55033,188.57786c0,0 5.07861,6.79901 3.62981,13.35828c-0.7946,5.60641 -9.31836,14.86962 -9.31836,14.86962c0,0 1.51124,-10.29549 2.48631,-15.13408c0.9176,-4.55337 3.20225,-13.09383 3.20225,-13.09383z" fill="#695f72" stroke="none" stroke-linecap="butt"></path><path d="M170.55033,188.57786l4.57974,0.59964c0,0 0.03927,9.19532 -0.92628,13.81186c-0.98986,4.73268 -4.94174,14.24446 -4.94174,14.24446l-4.40025,-0.42805c0,0 1.51124,-10.29549 2.48631,-15.13408c0.9176,-4.55337 3.20224,-13.09383 3.20224,-13.09383z" fill="none" stroke="#000000" stroke-linecap="butt"></path><path d="M172.32893,187.90327c0,0 1.19548,8.18892 0.43878,12.75941c-0.80837,4.88265 -5.14423,15.66195 -5.14423,15.66195" fill="none" stroke="#000000" stroke-linecap="round"></path><path d="M172.41066,211.2456l2.1027,-15.85355l3.80969,1.20594l1.98113,2.25524l2.26034,-0.91261l1.69429,1.96366l2.4796,-0.82067l1.77875,2.51189l1.83168,-1.42166c0,0 18.97428,5.79844 21.13964,7.20849c4.14702,2.70049 14.447,25.49255 14.447,25.49255z" fill="#4a627c" stroke="none" stroke-linecap="butt"></path><path d="M190.14464,203.23685l-15.63126,-7.84481l3.80969,1.20594l1.98114,2.25524l2.26034,-0.91261l1.69429,1.96365l2.4796,-0.82067l1.77875,2.51189l1.83169,-1.42166c0,0 13.34768,2.95842 20.48423,7.2224c4.37131,2.6118 3.29473,3.93458 -1.22483,0.38326c-3.02108,-2.37386 -6.05966,-2.03366 -6.05966,-2.03366l0.50546,12.67108l-12.6755,-6.07294z" fill="#91b6c0" stroke="none" stroke-linecap="butt"></path><path d="M187.21233,210.49597l-1.13069,-8.63882" fill="none" stroke="#91b6c0" stroke-linecap="round"></path><path d="M176.49489,197.27201l3.00711,3.56207l2.90196,-1.11894l2.04462,2.41286l1.85663,-0.74421l1.58178,2.65741l3.35955,-1.59754c0,0 15.34584,3.6784 19.75528,6.27493c3.47269,2.04493 6.12412,9.53558 6.12412,9.53558" fill="none" stroke="#91b6c0" stroke-linecap="round"></path><path d="M172.41068,211.2456l2.1027,-15.85356l3.80969,1.20594l1.98114,2.25524l2.26034,-0.91261l1.69429,1.96365l2.4796,-0.82067l1.77875,2.51189l1.83169,-1.42166c0,0 18.97428,5.79844 21.13964,7.20848c4.14702,2.70049 14.447,25.49255 14.447,25.49255z" fill="none" stroke="#000000" stroke-linecap="butt"></path><path d="M174.47379,206.33287c0,0 14.34827,5.36758 21.96867,8.55353c11.41178,4.35806 27.77054,16.55617 27.77054,16.55617" fill="none" stroke="#000000" stroke-linecap="round"></path></g><g stroke-width="4" stroke-linecap="butt"><g><path d="M144.92997,212.39263c0,0 -4.50876,3.99492 -6.24717,2.12116c-0.17963,-0.19361 -5.21341,-7.3812 -0.13448,-10.00936c1.10039,-0.56946 4.82707,-2.29611 6.61033,-1.52515c3.48866,1.50811 5.25504,6.56315 5.40121,6.43603c1.93228,-1.67991 4.59887,-11.52747 5.74122,-10.21354c0.58599,0.67399 0.48303,4.14636 -0.1224,8.64488c-0.16829,1.25076 -0.56036,2.91129 -0.78087,4.06969c-0.06501,0.34078 -0.04327,1.33139 -0.10587,1.64488c-0.45165,2.26056 -0.85956,3.79114 -1.44414,4.2994c-1.93228,1.67991 -8.91789,-5.46791 -8.91789,-5.46791z" fill="#00ffa9" stroke="#000000"></path><path d="M148.61895,214.54955c0,0 -0.78464,-0.69073 -1.4617,-2.41252c-0.68659,-1.746 -0.56494,-4.57979 0.48574,-5.49332c0.9219,-0.80153 4.56205,-3.44974 6.37412,-2.73638c2.28981,0.90143 2.7282,5.36237 2.93921,5.60505c0.37799,0.43476 -4.48877,-1.53424 -6.5756,0.28014c-2.08686,1.81439 -1.76174,4.75702 -1.76174,4.75702z" fill="#00e397" stroke="none"></path></g><g><path d="M144.14315,203.17037c-0.36279,-0.4173 -3.40675,4.39911 -7.34205,1.53901c-2.10337,-1.52871 -1.41766,-6.68586 -2.07713,-8.92272c-0.92667,-3.14298 4.66973,-11.7897 5.57703,-11.92012c1.93595,-0.27811 5.844,1.40154 5.844,1.40154c0,0 0.63914,0.59491 1.99522,-1.70089c0.64498,-1.09199 1.19887,-0.81906 2.14935,-0.82436c2.36719,-0.01312 5.98854,1.95203 5.98854,1.95203c0,0 1.41504,-1.19278 3.23809,-2.30901c0.87172,-0.53371 1.56568,-1.52516 2.75133,-1.46879c3.07455,0.14647 4.94236,4.05635 6.94261,6.35696c1.73747,1.99841 1.20058,4.95242 0.4585,8.65715c-1.13063,5.64443 -3.52383,10.77947 -7.16359,13.944c-1.2945,1.1254 -3.62214,1.3028 -6.07857,0.37713c-1.15087,-0.43352 -2.19105,-0.61864 -2.81707,-1.26401c-1.37315,-1.41535 -0.8301,-3.21124 -0.8301,-3.21124c0,0 -3.0812,0.95385 -4.54127,1.12499c-1.54138,0.18082 -3.04983,-2.52969 -4.0949,-3.73164z" fill="#00ffa9" stroke="#000000"></path><path d="M166.40822,187.86713c-0.59646,-0.68604 -2.10346,-0.91826 -3.0046,-1.52756c-0.30067,-0.20331 -2.08385,0.81105 -3.32638,2.64307c-2.75187,4.05742 -5.47078,11.17269 -5.26048,10.98985c0.01048,-0.00911 -0.12234,-7.89154 -2.82375,-9.2011c-1.27289,-0.61706 -3.25286,-0.33087 -4.42923,-0.34257c-1.71408,-0.01703 -2.68879,5.37663 -2.68879,5.37663c0,0 -0.0497,-5.01736 -1.75178,-4.19798c-2.37148,1.14163 -7.00036,12.98886 -7.00036,12.98886c0,0 -1.18836,-3.69412 -1.74177,-6.83083c-0.49514,-2.80648 1.31487,-5.7712 2.11808,-7.10421c1.92035,-3.187 4.65664,-4.8114 4.34825,-5.13263c-0.29699,-0.30934 1.24244,-0.60927 2.79109,-0.17346c1.79416,0.5049 3.65069,1.76461 3.47471,1.43431c-0.54775,-1.02801 3.09975,-2.92711 3.06401,-3.26283c-0.16675,-1.56627 5.68883,3.58027 6.36994,1.66286c0.65727,-1.85031 3.631,-2.08868 4.60021,-2.95559c1.73881,-1.55527 5.31684,3.15387 5.79027,3.69843c1.25999,1.4492 3.59078,6.46178 3.59078,6.46178c0,0 -2.86026,-3.0778 -4.12024,-4.52702z" fill="#00e397" stroke="none"></path><path d="M153.4792,207.12519c-0.57968,0.50401 -0.8147,-0.30112 -1.31869,-0.88079c-0.50401,-0.57968 0.5157,-2.47571 1.09541,-2.97971c0.57968,-0.50401 3.03514,-8.16794 3.03514,-8.16794c0,0 -2.23215,11.52443 -2.81183,12.02841z" fill="#000000" stroke="none"></path><path d="M143.88763,203.30049c-0.35282,-0.40578 -1.41547,0.86204 -0.86475,0.38324c0.55069,-0.4788 1.86486,-10.46789 1.86486,-10.46789c0,0 0.17803,9.79753 -0.37268,10.27633c-0.55069,0.4788 -0.27463,0.21408 -0.62742,-0.19171z" fill="#000000" stroke="none"></path><path d="M144.78409,202.22378c-0.36279,-0.4173 -3.3793,4.00656 -7.31466,1.14653c-0.91149,-0.66245 -3.62047,-5.43373 -2.62143,-9.26297c1.30634,-5.00715 6.03613,-10.58877 6.5502,-10.66257c1.93602,-0.27818 5.99011,0.72161 5.99011,0.72161c0,0 0.50533,-0.16366 1.15194,-0.73188c0.65186,-0.57283 1.11819,-1.08055 1.57232,-1.12107c2.26815,-0.20202 6.76543,2.02341 6.76543,2.02341c0,0 0.73194,-0.86698 2.18447,-1.95142c1.02774,-0.76727 2.3774,-1.79366 3.89614,-1.72135c3.07455,0.14647 5.6207,4.13893 7.00644,6.85435c0.5237,1.02638 0.77176,4.03517 0.0297,7.73988c-1.13063,5.64443 -3.01277,10.51941 -6.6525,13.68394c-1.39314,1.21119 -3.82458,0.95353 -6.27934,0.05725c-0.13221,-0.0482 -2.05092,-0.77112 -2.49772,-1.23159c-1.37315,-1.41535 -1.22246,-3.23864 -1.22246,-3.23864c0,0 -3.29115,1.13629 -4.75113,1.30747c-1.54139,0.1807 -2.76238,-2.41109 -3.80743,-3.61293z" fill="none" stroke="#000000"></path><path d="M144.53318,202.43946c-0.36279,-0.4173 -3.3793,4.00657 -7.31466,1.14653c-0.91149,-0.66245 -3.62047,-5.43373 -2.62142,-9.26297c1.30634,-5.00715 5.89003,-9.90883 6.40415,-9.98269c1.93595,-0.27811 6.17266,0.93154 6.17266,0.93154c0,0 0.83392,-0.6336 1.48048,-1.20188c0.65186,-0.57283 1.11825,-1.08051 1.57233,-1.12095c2.26814,-0.20214 6.55549,2.20586 6.55549,2.20586c0,0 1.04691,-1.14075 2.49932,-2.22518c1.02779,-0.76734 2.16752,-1.61118 3.68633,-1.5388c3.07449,0.14641 5.36063,3.62772 6.74631,6.34321c0.52376,1.02631 0.77176,4.03517 0.0297,7.73988c-1.13063,5.64443 -3.01271,10.51934 -6.65251,13.68394c-1.39314,1.21119 -3.82458,0.95353 -6.27934,0.05725c-0.13216,-0.04826 -2.05091,-0.77112 -2.49765,-1.23165c-1.37315,-1.41522 -1.22246,-3.23864 -1.22246,-3.23864c0,0 -3.2912,1.13634 -4.7512,1.30753c-1.54139,0.1807 -2.76231,-2.41103 -3.80743,-3.61293z" fill="none" stroke="#000000"></path></g></g></g><g stroke="#000000" stroke-width="3.5" stroke-linecap="butt"><path d="M174.80613,139.4387c-0.17878,-2.99468 1.58971,-7.57118 8.73906,-13.9492c6.72202,-5.9968 13.90741,-7.24226 15.31455,-8.36941c0.82701,-0.66246 3.52311,0.18132 5.44358,1.53884c0.97905,0.69205 1.93955,1.371 2.60818,1.84363c1.65674,1.17109 4.62841,3.17502 2.72674,4.69829c-1.89348,1.51674 -8.12605,3.16059 -16.00267,8.92062c-7.08774,5.18315 -12.91907,12.19846 -14.49507,11.08443c-1.39804,-0.98823 -4.15558,-2.77251 -4.33437,-5.76719z" fill="#4f5357"></path><path d="M228.36542,121.31219c-0.23402,5.02104 -6.55992,8.65052 -14.12931,8.10666c-7.56939,-0.54387 -13.51587,-5.05511 -13.28187,-10.07615c0.234,-5.02105 6.55991,-8.65052 14.1293,-8.10666c7.56939,0.54385 13.51589,5.0551 13.28187,10.07615z" fill="#75756c"></path><g><path d="M228.02535,116.84366c-0.22669,3.53377 -6.35469,6.08816 -13.68727,5.7054c-7.33257,-0.38276 -13.09302,-3.55774 -12.86633,-7.09152c0.22669,-3.53377 6.35468,-6.08816 13.68725,-5.7054c7.33257,0.38277 13.09303,3.55776 12.86634,7.09152z" fill="#533023"></path><path d="M208.84734,119.95785l4.22686,-8.99766c0,0 2.17583,-0.13329 3.28357,0.13822c1.16504,0.28555 5.72593,1.64898 5.72593,1.64898l-6.0035,8.24647z" fill="#b08a80"></path></g><path d="M254.25786,139.7083c-1.01374,1.15665 -4.01658,-6.4237 -9.37114,-10.98453c-5.95052,-5.06844 1.21084,-14.2024 6.37346,-8.84148c5.49082,5.70171 5.46589,11.17748 5.57472,14.05582c0.10883,2.87834 -1.67778,4.74416 -2.57705,5.77019z" data-paper-data="{&quot;index&quot;:null}" fill="#4f5357"></path><path d="M243.72576,113.81219c6.9786,2.51944 10.91502,8.40804 8.79224,13.15257c-2.12278,4.74453 -9.50093,6.54833 -16.47953,4.02889c-6.9786,-2.51944 -10.91502,-8.40804 -8.79224,-13.15257c2.12278,-4.74453 9.50093,-6.54832 16.47953,-4.02888z" fill="#75756c"></path><g><path d="M255.42043,123.048c-1.38225,3.39419 -8.0753,4.20722 -14.94936,1.81598c-6.87407,-2.39126 -11.32605,-7.08126 -9.9438,-10.47545c1.38225,-3.39418 8.0753,-4.20723 14.94936,-1.81598c6.87407,2.39124 11.32605,7.08127 9.9438,10.47545z" fill="#533023"></path><path d="M236.08399,120.81915l7.00375,-7.63839c0,0 2.12122,0.4681 3.0892,1.03835c1.01805,0.59975 4.92248,3.18788 4.92248,3.18788l-8.45207,6.41494z" fill="#b08a80"></path></g></g></g></g></svg>