<svg version="1.1" xmlns="http://www.w3.org/2000/svg" xmlns:xlink="http://www.w3.org/1999/xlink" width="219.1397" height="138.2612" viewBox="0,0,219.1397,138.2612"><defs><linearGradient x1="333.92251" y1="216.45814" x2="381.12973" y2="235.85466" gradientUnits="userSpaceOnUse" id="color-1"><stop offset="0" stop-color="#465d84"></stop><stop offset="1" stop-color="#90bcbf"></stop></linearGradient></defs><g transform="translate(-162.70164,-106.46196)"><g data-paper-data="{&quot;isPaintingLayer&quot;:true}" fill-rule="nonzero" stroke-linejoin="miter" stroke-miterlimit="10" stroke-dasharray="" stroke-dashoffset="0" style="mix-blend-mode: normal"><path d="M205.52605,150.43274c-0.02524,-0.54704 0.15149,-0.98886 0.15149,-0.98886l0.82928,-1.87891c2.49733,-3.32496 4.92664,-7.22377 8.77257,-9.24879c4.82751,-2.54185 8.84375,-0.29494 13.75242,-0.54038c1.5006,-0.07503 3.18355,-0.96297 4.76638,-1.95508l-0.2332,-0.2332l1.67895,-1.67895c0.3798,-0.3798 0.90445,-0.61469 1.484,-0.61469c1.15908,0 2.09869,0.93961 2.09869,2.09869v2.2386h-0.39089l0.19277,0.89018c-0.60065,0.54156 -1.35802,0.94867 -1.80195,1.62467c-0.37761,0.57501 -0.35523,1.4411 -0.57453,2.09634c2.63718,1.9861 4.6391,4.46238 7.05101,7.11289c2.2513,2.474 4.67637,4.22429 6.67178,7.0222c2.67273,4.80879 6.40703,8.889 9.09085,13.68669c4.33937,7.75722 7.17602,16.44588 11.65205,24.14851c3.7053,6.37631 10.69304,10.8457 17.08925,14.04289c4.46673,2.55241 12.37767,5.08209 14.15248,10.42092c1.45117,4.36527 -2.15998,10.81475 -4.80035,14.24986c-0.94065,1.22377 -2.4192,1.98474 -3.28789,3.26059c-1.6665,2.44765 -2.06691,4.13249 -5.0786,5.49635c-2.7052,1.22506 -5.65583,1.80835 -8.57568,2.13835c-4.75023,0.00648 -9.56384,-0.22606 -14.3066,0.00165c-1.21476,0.05832 -2.42573,0.38026 -3.63773,0.27983c-1.47887,-0.12254 -3.46699,0.25004 -4.35103,-0.94184c-0.80541,-1.08584 0.30716,-2.69982 0.68767,-3.9971c1.21523,-4.14311 5.15918,-7.32702 5.69725,-11.6857c0.341,-2.76247 -0.6488,-5.33308 -1.26371,-7.91597c-0.07123,-0.29915 0.35262,-0.81454 0.06387,-0.92031c-0.37546,-0.13752 -0.70933,0.36932 -1.06397,0.55398c-4.00937,-0.01142 -7.33679,0.54321 -10.89278,2.27415c-0.44668,0.21742 -1.03204,0.24841 -1.35097,0.6293c-1.03576,1.23698 -1.11955,4.74196 -1.53433,6.19549c-0.86171,3.01966 -3.0877,7.19645 -5.25053,9.55192c-1.88694,2.05503 -5.766,4.70701 -8.42065,5.59029c-3.36689,1.12024 -7.53823,0.66735 -11.01719,0.66735c-6.72016,0 -13.24532,-1.09632 -19.94813,-1.40066c-5.22624,-0.23731 -10.45828,-0.00532 -15.68478,-0.28043c-3.09468,-0.16289 -9.05631,0.01758 -10.29473,-3.96367c-0.85215,-2.73946 2.76832,-7.48597 4.09044,-9.80746c2.01421,-3.52184 3.10374,-8.65088 7.02812,-10.6239c2.70551,-1.36022 4.86375,-0.33811 7.56708,-0.50492c0.81536,-0.0503 1.57668,-0.45703 2.38836,-0.54945c1.15802,-0.13189 2.05862,0.49372 2.93347,-0.50818c1.90754,-2.18454 0.36786,-5.60552 0.51585,-8.13795c0.27206,-4.65534 1.11697,-9.15672 1.11697,-13.89233c0.02019,-14.79253 1.01512,-29.30206 2.23721,-44.00295z" fill="#2e00e3" stroke="none" stroke-width="0.5" stroke-linecap="butt"></path><path d="M227.00133,137.02671c1.16415,1.74621 1.65654,1.51124 1.65654,1.51124c0,0 -10.34632,4.06103 -13.62586,4.26597c-0.78813,0.04924 -3.53208,1.59185 -3.73804,2.2131c-0.95652,2.88523 -5.2695,12.43115 -5.2695,12.43115c0,0 1.7296,-0.76223 -0.30644,-1.27124c-2.03604,-0.509 -1.52703,-2.54504 -1.52703,-2.54504c0.92657,-3.70631 1.74309,-7.80459 3.46492,-11.23088c0.49462,-0.98425 0.68759,-2.28693 1.61316,-2.88414c0.85901,-0.55426 4.2552,-0.26461 5.5021,-0.34255c2.79459,-0.1747 5.41479,-0.68413 7.97827,-1.79314l1.34151,-0.93651c0,0 1.74621,-1.16415 2.91036,0.58208z" fill="#4b00ff" stroke="none" stroke-width="0.5" stroke-linecap="butt"></path><path d="M301.66855,157.4878c0,14.51168 -4.14574,37.98938 -9.57512,50.68291c-1.94274,4.54201 -1.47334,7.66064 -4.97579,7.66064c-2.0233,0 -8.13717,-4.05421 -11.75176,-4.07467c-5.04866,-0.02856 -10.63818,-0.03197 -15.94928,-0.42463c-4.68949,-0.3467 -9.1003,-0.8119 -13.61329,-4.51553c-13.83228,-10.78432 -15.49016,-29.32029 -15.49016,-38.1357c0,-6.99373 -0.65005,-24.09346 7.20156,-34.7699c10.3535,-14.07846 28.99707,-17.97714 37.57044,-17.97714c13.29072,0 26.5834,21.84978 26.5834,41.55404z" fill="#3400ff" stroke="none" stroke-width="0" stroke-linecap="butt"></path><path d="M212.64089,214.83791l0.58806,-14.40767c0,0 0.98667,-10.68103 2.05824,-17.05399c1.07156,-6.37295 1.63729,-9.61207 3.5284,-16.17188c1.89111,-6.55979 3.56169,-11.46721 5.88069,-16.46591c2.31898,-4.99871 7.35085,-12.05541 7.35085,-12.05541l6.46875,-7.35087c0,0 6.12544,-6.17402 11.46733,-9.11506c5.34191,-2.94103 9.83602,-4.1962 14.70172,-5.29261c4.86569,-1.09644 8.22939,-1.35239 12.14067,-0.60228c3.91129,0.75011 5.93397,1.57544 10.44314,5.83805c2.58666,2.44521 6.91173,6.53697 9.89858,11.77624c2.21996,3.89405 3.45016,8.54726 4.00628,12.96527c1.30435,10.36225 1.11552,21.46518 0.85368,26.47729c-0.26182,5.01211 -1.04935,8.1051 -1.79263,11.52418c-0.74328,3.41907 -0.63096,2.95626 -2.61788,8.7642c-1.98694,5.80794 -5.27809,13.46746 -5.58666,14.70172c-0.30855,1.23424 -0.25591,1.35754 1.17614,2.94035c1.43205,1.5828 4.41052,3.23437 4.41052,3.23437c0,0 3.24528,2.12707 4.14489,4.41052c0.89961,2.28345 1.52776,2.08357 0.01421,6.1463c-1.51355,4.06272 -2.29961,5.43668 -5.04122,8.84945c-2.74159,3.41276 -6.34943,7.65132 -7.94621,7.80282c-11.20269,1.0629 -27.73169,1.50824 -29.10211,1.47017c-1.37042,-0.03807 -4.3458,-0.76404 -2.05824,-5.15651c2.28757,-4.39247 5.72629,-9.48056 6.48331,-10.90839c0.96828,-1.82628 -2.66087,-8.20383 -2.66087,-8.20383c0,0 -3.91353,0.56785 -5.65638,1.02919c-1.57184,0.41607 -4.34078,1.61711 -4.34078,1.61711c0,0 -2.28403,6.61737 -5.01314,10.31304c-2.72911,3.69567 -5.15376,7.03186 -7.95348,8.79917c-2.26845,1.43195 -3.42624,2.8863 -15.26066,3.23437c-11.83441,0.34807 -19.02963,-0.63351 -25.87503,-1.17614c-6.84537,-0.54262 -14.86827,-1.27896 -17.34802,-2.35228c-2.47975,-1.07333 -3.19983,-2.9964 -2.35228,-6.17472c0.84756,-3.17833 2.39677,-3.79284 4.11648,-7.35087c1.71971,-3.55801 4.41052,-9.11506 4.41052,-9.11506z" fill="none" stroke="#000000" stroke-width="3" stroke-linecap="round"></path><path d="M202.31518,214.9606c0,0 0.74706,-24.75753 1.11929,-32.73954c0.37223,-7.982 0.4772,-13.13204 1.39913,-21.26671c0.92194,-8.13469 1.35627,-13.99555 3.3579,-20.70705c0.40584,-1.36081 14.47968,-2.93894 16.78951,-3.07808c2.30983,-0.13915 6.43598,1.67895 6.43598,1.67895" fill="none" stroke="#000000" stroke-width="3" stroke-linecap="round"></path><g><g stroke-linecap="round"><path d="M238.93417,127.35931c13.50536,-6.19557 23.1756,-11.73558 36.88725,-9.42975c13.71165,2.30583 31.78703,7.6757 24.54467,19.76048c-7.24235,12.08478 -28.37949,-2.46331 -36.01995,-0.61253c-7.64047,1.85079 -6.96976,10.96031 -15.11119,12.9982c-12.3476,3.09073 -5.65168,-6.62482 -9.55756,-8.38199c-3.31558,-1.4916 -12.02538,5.69746 -12.39832,-1.49545c-0.16523,-3.18671 4.13312,-9.38828 11.65511,-12.83897z" fill="#fff3df" stroke="none" stroke-width="0"></path><path d="M239.95319,129.0302c4.03756,-1.85222 3.64117,16.24943 7.67102,15.35508c7.38438,-1.6388 5.34889,-9.88745 13.22545,-12.85223c2.20297,-0.82921 14.08659,1.00453 16.18748,1.35784c13.71165,2.30583 30.57132,-7.28562 23.32896,4.79915c-7.24235,12.08478 -28.37949,-2.46331 -36.01995,-0.61253c-7.64047,1.85079 -6.96976,10.96031 -15.11119,12.9982c-12.3476,3.09073 -5.65168,-6.62482 -9.55756,-8.38199c-3.31558,-1.4916 -12.02538,5.69746 -12.39832,-1.49545c-0.16523,-3.18672 1.97331,-6.35181 9.4953,-9.80251z" fill="#cfa7a7" stroke="none" stroke-width="0"></path><path d="M275.82137,117.92957c13.71164,2.30583 31.78701,7.6757 24.54467,19.76047c-7.24235,12.08478 -28.37948,-2.4633 -36.01994,-0.61251c-7.64045,1.85079 -6.96974,10.96032 -15.11118,12.9982c-12.3476,3.09073 -5.65168,-6.62481 -9.55756,-8.38197c-3.31559,-1.4916 -12.02538,5.69745 -12.39832,-1.49545c-0.16523,-3.18672 4.13314,-9.38829 11.6551,-12.83898c13.50536,-6.19557 23.17558,-11.73557 36.88724,-9.42974z" fill="none" stroke="#000000" stroke-width="4"></path></g><path d="M259.70796,129.34707c-10.0167,1.17398 -22.05105,-1.79342 -16.10715,-8.48395c0.44543,-0.50138 1.21376,-1.55433 2.04342,-2.64085c0.86677,-1.13511 1.80048,-2.3069 2.5029,-2.92474c7.5971,-6.68228 20.39573,-12.25107 31.8396,-1.48631c13.51475,12.71278 -10.26207,14.36188 -20.27876,15.53585z" fill="#ffd500" stroke="none" stroke-width="0" stroke-linecap="round"></path><path d="M259.70796,129.34707c-10.0167,1.17398 -22.05105,-1.79342 -16.10716,-8.48395c0.44543,-0.50139 1.21376,-1.55433 2.04343,-2.64085c0.86677,-1.13511 1.80048,-2.3069 2.5029,-2.92473c7.5971,-6.68228 3.0311,4.75767 10.05231,7.33089c14.75171,5.40639 23.09317,-5.88932 24.22281,-4.92855c9.02962,7.67971 -13.81139,10.60376 -22.71429,11.64721z" fill="#ff7e00" stroke="none" stroke-width="0" stroke-linecap="round"></path><path d="M259.81035,129.7926c-10.0167,1.17398 -22.05104,-1.79344 -16.10716,-8.48397c2.15923,-2.43046 5.55995,-6.6081 9.9279,-9.18117c7.65605,-4.51003 17.85279,-5.96533 26.45804,2.12926c13.51475,12.71277 -10.26207,14.36188 -20.27878,15.53585z" fill="none" stroke="#000000" stroke-width="4" stroke-linecap="round"></path><path d="M262.70115,115.08323c1.26405,-2.55367 4.87647,-3.34293 8.06856,-1.76286c3.19208,1.58007 4.75506,4.93112 3.491,7.48477c-0.57463,1.16089 -2.3271,-2.27639 -4.98508,-3.46083c-3.18893,-1.42103 -7.2639,-0.8683 -6.57448,-2.26109z" fill="#fff45c" stroke="none" stroke-width="0" stroke-linecap="butt"></path></g><g stroke="#000000" stroke-linecap="round"><path d="M245.69788,193.8077l5.54516,-3.05732l8.53101,5.77496l10.23722,-4.41614l4.69206,3.05732l11.09032,-6.11466l-4.64449,15.68537l-7.29892,6.05564l-6.82482,-3.73673l-6.39825,4.07644l-7.67792,-4.07644l-8.53101,3.73673c0,0 -8.66551,-5.07571 -11.51688,-9.5117c-2.85136,-4.43601 -6.82481,-19.02342 -6.82481,-19.02342l11.94341,8.15289z" data-paper-data="{&quot;index&quot;:null}" fill="#ffffff" stroke-width="2"></path><path d="M283.66054,190.85936l-9.71649,18.99132l-3.53327,-17.22469l-10.15816,17.66635l-8.39151,-18.54966l-6.62488,18.10801l-16.78304,-23.84957" fill="none" stroke-width="1"></path></g><g><path d="M314.29043,172.60479c0,2.0812 -73.05866,3.45803 -73.05866,2.32815c0,-13.64543 12.23327,-21.72989 19.28313,-21.72989c7.04986,0 53.77557,13.25824 53.77557,19.40171z" fill="#1c4ea5" stroke="none" stroke-width="0" stroke-linecap="butt"></path><path d="M305.32777,157.60083c5.43187,3.07382 15.55849,16.03873 8.28362,16.03873c-2.50751,0 -13.76883,2.55161 -25.27047,3.01692c-14.17766,0.57352 -17.39144,1.65519 -27.71355,-1.69257c-3.18074,-1.03162 -3.29259,-2.69018 -4.98813,-5.47067c-1.09459,-1.79492 -0.8899,-3.92924 -0.82792,-4.39043c1.62958,-12.12792 10.51457,-12.53697 17.78936,-12.53697c7.27487,0 28.08467,2.40792 32.72705,5.03497z" fill="#6fddfe" stroke="none" stroke-width="0" stroke-linecap="butt"></path><path d="M311.84603,162.77467c1.53663,1.66142 1.86903,2.70798 2.44433,5.1738c0.57532,2.4658 0.82275,3.94744 0.27161,6.46727c-0.55112,2.51981 -73.70739,1.07831 -73.87343,-1.29344c-0.16603,-2.37176 -0.72836,-2.43507 0.81477,-5.94986c1.54313,-3.51477 2.13853,-5.47138 5.43187,-8.27809c3.29336,-2.80669 6.2775,-3.84714 10.04896,-4.91509c3.77146,-1.06799 4.8739,-1.24098 14.39447,-1.81084c9.52057,-0.56984 14.79885,0.48613 20.09793,1.03473c5.2991,0.54864 9.38008,2.28985 12.7649,3.88034c3.38481,1.59049 6.06798,4.02976 7.60461,5.69116z" fill="none" stroke="#000000" stroke-width="2" stroke-linecap="round"></path><path d="M305.54942,164.3314c0.27159,3.7937 -13.90765,2.45758 -18.33256,2.45758c-4.42491,0 -12.90074,-2.02684 -12.90074,-5.82052c0,-5.08711 7.66102,-4.00965 12.08596,-4.00965c11.75796,0 18.85789,3.32966 19.14735,7.37266z" fill="#ffffff" stroke="none" stroke-width="0" stroke-linecap="butt"></path></g><g><path d="M196.94951,217.15907c0,0 -1.95554,1.60185 -3.05588,1.97145c-0.93894,0.31537 -3.13911,0.10938 -3.13911,0.10938l5.444,-25.76365l-14.08983,-0.94521l1.9522,-9.36219l-1.16148,-0.20632l1.19134,-4.98577c0,0 8.84553,4.63163 12.40198,6.63833c2.39158,1.34944 6.86552,4.2332 6.86552,4.2332z" fill="#373142" stroke="#000000" stroke-width="2.5" stroke-linecap="round"></path><path d="M185.006,184.18905c0,0 4.8227,2.86547 5.86813,4.19367c1.04893,1.33264 0.24508,3.60588 0.24508,3.60588l-7.65308,-0.41522z" fill="#45597c" stroke="#45597c" stroke-width="0.5" stroke-linecap="round"></path><path d="M185.33547,182.47143l-1.1402,-0.27245l0.52624,-2.70672c0,0 3.01185,1.54446 4.24674,2.48007c1.28077,0.97038 3.30528,3.24169 3.30528,3.24169l-7.04198,-1.80322z" fill="#45597c" stroke="#45597c" stroke-width="0.5" stroke-linecap="round"></path><path d="M181.27817,182.58669l2.56798,0.85468l-2.35063,9.08072l-2.42875,1.58919l-8.20943,-1.96164l-0.85918,-1.95298l1.60091,-8.71749z" fill="#3a4b69" stroke="#000000" stroke-width="2.5" stroke-linecap="round"></path><path d="M176.98572,185.41797c1.44834,0.34608 2.33276,1.83903 1.9754,3.33462c-0.35736,1.49556 -1.82119,2.42742 -3.26953,2.08133c-1.44834,-0.34608 -2.33275,-1.83902 -1.97539,-3.33461c0.35737,-1.49557 1.82118,-2.42743 3.26953,-2.08135z" fill="#000000" stroke="#000000" stroke-width="0.5" stroke-linecap="butt"></path><path d="M171.61867,187.45009c0,0 0.02899,1.80959 0.26107,2.52112c0.20519,0.62906 1.07434,1.47413 1.07434,1.47413l-1.31122,-0.31332l-0.53679,-1.03224z" fill="#758d97" stroke="#758d97" stroke-width="0.5" stroke-linecap="round"></path><path d="M174.80164,177.71136c2.61679,0.12488 8.92951,0.15817 8.92951,0.15817l-0.93239,4.65867l-13.70562,-1.40675l0.73664,-4.34386c0,0 3.19333,0.8489 4.97185,0.93377z" fill="#3a4b69" stroke="#000000" stroke-width="2.5" stroke-linecap="round"></path><path d="M164.07991,157.39867c2.15172,-9.00491 9.25249,-15.02492 15.85999,-13.44605c3.73458,0.89237 9.41588,10.12377 9.6961,18.53567c0.21556,6.47109 -4.13104,12.78734 -5.85734,13.71038c-2.64535,1.41445 -8.98877,0.99498 -11.63084,0.36365c-6.6075,-1.57887 -10.21963,-10.15872 -8.0679,-19.16364z" fill="#3a4b69" stroke="#000000" stroke-width="2.5" stroke-linecap="butt"></path><path d="M181.02529,168.00807l1.88581,4.97049c0,0 0.87521,0.53378 1.34633,0.3332c0.61051,-0.25993 1.88846,-1.71884 1.88846,-1.71884c0,0 -0.38515,1.02362 -1.22284,1.97849c-0.6482,0.73889 -1.63836,1.40121 -1.84981,1.51371c-1.41409,0.75239 -4.82387,0.75699 -4.82387,0.75699c0,0 2.02495,-0.31967 2.67243,-0.71739c0.64748,-0.39772 1.21238,-1.66891 1.21238,-1.66891l-1.71479,-4.92963z" fill="#9bb3c1" stroke="none" stroke-width="0" stroke-linecap="round"></path><path d="M172.15516,153.71499l0.06157,-2.27537l-1.22343,-1.43736l-2.03621,-0.30577c0,0 0.96187,-1.07038 1.43656,-1.51104c0.50446,-0.46829 1.5063,-1.22087 1.5063,-1.22087l-0.4682,1.45501l1.53471,2.65679l1.66085,1.12005z" fill="#9bb3c1" stroke="none" stroke-width="0" stroke-linecap="round"></path><path d="M178.40711,152.01486c4.03017,0.963 6.31838,5.84032 5.11086,10.89378c-1.20753,5.05345 -5.45351,8.36943 -9.4837,7.40642c-4.03017,-0.963 -6.31838,-5.84033 -5.11085,-10.89379c1.20753,-5.05345 5.45352,-8.36942 9.48368,-7.40641z" fill="#000000" stroke="#000000" stroke-width="0.5" stroke-linecap="butt"></path><path d="M186.45542,151.0904l2.02247,-1.01239l16.24082,23.53812l-3.35463,13.44288l-17.94623,-9.8436c0,0 2.37246,-2.24251 3.83644,-5.10506c1.35299,-2.6455 2.09991,-5.60638 2.34896,-8.00676c0.51853,-4.99771 -3.14782,-13.01317 -3.14782,-13.01317z" fill="#373142" stroke="#000000" stroke-width="2.5" stroke-linecap="round"></path><path d="M188.37205,151.36795l5.09014,7.94257c0,0 2.42269,7.84961 2.8355,10.45696c0.46074,2.91004 -0.20346,5.77625 -0.20346,5.77625l-6.7216,-5.45214c0,0 1.56367,-5.34897 1.35854,-8.28043c-0.17898,-2.55778 -2.98735,-10.08345 -2.98735,-10.08345z" fill="#465c83" stroke="none" stroke-width="0" stroke-linecap="round"></path><path d="M194.57797,189.76871c0,0 2.41059,-0.33027 2.61034,2.19063c0.19975,2.52091 -2.02505,5.19609 -2.02505,5.19609l-13.06496,5.49603l9.39207,-3.23989c0,0 4.17796,-0.50792 4.8698,1.75123c0.69185,2.25914 -2.66944,5.43384 -2.66944,5.43384l-8.76355,4.43467l8.57827,-4.47893c0,0 3.34372,-1.14351 4.49104,0.87727c1.14732,2.0208 -0.63134,5.92085 -0.63134,5.92085l-3.52369,3.27111l4.26482,-3.09401c0,0 2.01091,1.00225 1.13625,2.62186c-0.87463,1.61961 -3.94672,2.58243 -3.94672,2.58243c0,0 -4.49214,2.10615 -7.1408,2.01508c-2.64866,-0.09107 -4.63886,-0.98271 -6.26352,-2.47598c-1.62467,-1.49327 -1.85769,-5.34042 -1.85769,-5.34042c0,0 -2.42878,-0.83001 -2.93662,-2.46446c-0.50785,-1.63445 0.833,-4.30576 0.833,-4.30576c0,0 -4.00329,-1.40346 -4.70909,-4.06316c-0.70581,-2.6597 1.8234,-6.81117 1.8234,-6.81117c0,0 2.33598,-2.06061 7.08014,-3.40059c4.74415,-1.33999 12.45333,-2.11667 12.45333,-2.11667z" fill="#4b00ff" stroke="#000000" stroke-width="2.5" stroke-linecap="round"></path><path d="M204.48729,200.36271c0.16672,1.60091 -0.59123,5.54515 -2.13518,8.3536c-1.38077,2.51163 -3.5579,3.99633 -3.5579,3.99633l3.34881,-15.61093c0,0 2.02841,0.22836 2.34426,3.26099z" fill="#4e00e3" stroke="#000000" stroke-width="2.5" stroke-linecap="round"></path><path d="M175.81892,204.13596l4.39976,-1.62326l1.75528,-9.83315c0,0 8.7032,-2.54924 12.52753,-2.05848c2.84039,0.36448 1.16343,3.63514 0.88687,4.37234c-0.64893,1.72977 -2.77397,2.90329 -2.77397,2.90329l-11.12444,5.51417l-3.26284,3.08364c0,0 -0.595,-1.03369 -0.99636,-1.42679c-0.40137,-0.39309 -1.41184,-0.9317 -1.41184,-0.9317z" fill="#4e00e3" stroke="none" stroke-width="0" stroke-linecap="round"></path><path d="M192.69566,199.69912c0,0 3.28068,-0.48495 3.62725,1.60966c0.34656,2.09462 -2.65458,4.26911 -2.65458,4.26911l-8.3592,5.1348c0,0 -0.7067,-0.24253 -0.86445,-0.53247c-0.15175,-0.27893 -0.06475,-1.17544 -0.06475,-1.17544l10.34823,-5.9968c0,0 -0.50336,-1.20993 -0.84212,-1.7614c-0.33876,-0.55148 -1.19041,-1.54746 -1.19041,-1.54746z" fill="#4e00e3" stroke="none" stroke-width="0" stroke-linecap="round"></path><path d="M196.43387,208.51075c0,0 -1.43638,-1.43564 -1.24215,-1.44169c0.10934,-0.0034 1.48361,0.18953 1.91516,0.4538c0.44301,0.27133 0.65851,1.147 0.65851,1.147c0,0 -0.30456,2.29023 -0.71388,3.25098c-0.44149,1.03624 -1.87057,3.11274 -1.87057,3.11274l-4.09882,2.51778l6.74421,-3.13466c0,0 0.93756,0.5748 1.09165,0.93031c0.16694,0.38519 -0.12552,1.29894 -0.12552,1.29894c0,0 -7.19176,3.29321 -9.62593,3.69507c-2.43415,0.40184 -5.97226,-0.95618 -6.70131,-1.22658c-0.72903,-0.2704 -0.87097,-1.58201 -0.87097,-1.58201c0,0 1.76194,1.47203 5.51454,0.44341c3.75258,-1.02862 6.5197,-3.38787 7.83614,-4.63937c1.31644,-1.2515 1.48893,-4.82572 1.48893,-4.82572z" fill="#4e00e3" stroke="none" stroke-width="0" stroke-linecap="round"></path><path d="M194.61682,189.83192c0,0 2.41059,-0.33027 2.61034,2.19063c0.19975,2.52091 -2.02505,5.19609 -2.02505,5.19609l-13.06496,5.49603l9.39207,-3.23989c0,0 4.17796,-0.50792 4.8698,1.75123c0.69185,2.25914 -2.66944,5.43384 -2.66944,5.43384l-9.00892,4.53816l8.82364,-4.58243c0,0 3.34372,-1.14351 4.49104,0.87727c1.14732,2.0208 -0.63134,5.92085 -0.63134,5.92085l-3.52369,3.27111l4.26482,-3.09401c0,0 2.01091,1.00225 1.13625,2.62186c-0.87463,1.61961 -3.94672,2.58243 -3.94672,2.58243c0,0 -4.49214,2.10615 -7.1408,2.01508c-2.64866,-0.09107 -4.63886,-0.98271 -6.26352,-2.47598c-1.62467,-1.49327 -1.85769,-5.34042 -1.85769,-5.34042c0,0 -2.42878,-0.83001 -2.93662,-2.46446c-0.50785,-1.63445 0.833,-4.30576 0.833,-4.30576c0,0 -4.00329,-1.40346 -4.70909,-4.06316c-0.70581,-2.6597 1.8234,-6.81117 1.8234,-6.81117c0,0 2.33598,-2.06061 7.08014,-3.40059c4.74415,-1.33999 12.45333,-2.11667 12.45333,-2.11667z" fill="none" stroke="#000000" stroke-width="2.5" stroke-linecap="round"></path><path d="M191.37022,190.95563l0.47101,8.93691l-5.90645,1.97575l-4.12499,-9.39278z" fill="#9db8cd" stroke="#000000" stroke-width="2.5" stroke-linecap="round"></path><path d="M184.79839,196.51059c0,0 0.43882,-0.37292 0.51038,-0.72998c0.07366,-0.36753 -0.12465,-1.18803 -0.12465,-1.18803l5.15525,-1.63881l0.59221,6.33374l-4.40021,1.41728z" fill="#43577c" stroke="#43577c" stroke-width="0.5" stroke-linecap="round"></path></g><g data-paper-data="{&quot;index&quot;:null}"><g><g><path d="M311.9781,194.09665c0,0 -5.09723,-3.49194 -7.58743,-7.40406c-1.43067,-2.24758 -1.16952,-5.12925 -0.70793,-6.30311c0.47638,-1.21143 2.29692,-4.31051 5.16306,-4.68394c5.11944,-0.667 12.33165,2.06222 12.33165,2.06222c0,0 -0.9811,8.325 -2.62258,11.23861c-1.37902,2.44776 -6.57678,5.09026 -6.57678,5.09026z" fill="#465d84" stroke="#000000" stroke-width="2" stroke-linecap="butt"></path><path d="M305.42005,186.29939l10.52951,3.98058c0,0 -1.2369,1.42878 -1.79952,2.03818c-0.49241,0.53335 -2.20551,0.62301 -2.20551,0.62301c0,0 -2.84043,-2.24258 -3.83244,-3.25242c-1.15726,-1.17805 -2.69205,-3.38937 -2.69205,-3.38937z" fill="#90bcbf" stroke="none" stroke-width="0" stroke-linecap="butt"></path><path d="M304.16748,180.61345c0,0 1.60954,-1.88703 1.64727,-3.17598c0.03342,-1.14149 4.82942,-2.46737 4.82942,-2.46737l10.0786,3.05277c0,0 -0.73659,2.10804 -0.88294,3.53719c-0.14642,1.42995 -0.90827,3.97966 -0.90827,3.97966z" fill="#313243" stroke="none" stroke-width="0" stroke-linecap="butt"></path><g data-paper-data="{&quot;index&quot;:null}"><path d="M308.87343,189.99006c2.43289,0.97953 3.51842,3.97595 2.4246,6.69268c-0.76982,1.91201 11.07753,8.12809 3.89308,13.06028c-0.99687,0.68437 -3.81619,0.27308 -5.07806,-0.84067c-3.05112,-2.69293 -4.69087,-8.8689 -5.20066,-9.07415c-0.84615,-0.34068 -2.4409,-0.78042 -2.92608,-1.51243c-0.90983,-1.37266 -0.21192,-3.4084 0.50147,-5.18024c1.09382,-2.71673 3.95277,-4.12501 6.38566,-3.14547z" fill="#3400ff" stroke="#000000" stroke-width="3.5" stroke-linecap="butt"></path><path d="M307.6325,192.18232c1.35151,0.54416 12.42312,11.03632 7.89267,15.71301c-1.00256,1.03493 -2.30893,1.28306 -3.33934,0.8462c-1.43624,-0.60892 -2.4586,-2.24511 -2.4586,-2.24511c0,0 1.78074,0.40991 2.23181,-0.71042c0.10507,-0.26096 0.38084,-0.80581 -0.05043,-2.03686c-0.61048,-1.74263 -3.15897,-4.79785 -4.09524,-7.00204c-1.24184,-2.92357 -0.77194,-4.80275 -0.18087,-4.56476z" fill="#3400ff" stroke="none" stroke-width="0" stroke-linecap="butt"></path><path d="M332.37655,175.90452c3.80325,3.40989 3.47271,3.06837 3.89257,3.94793c0.59411,1.24463 0.88338,2.83824 0.88338,2.83824c0,0 2.57729,1.57403 3.76621,4.12797c1.03202,2.21693 0.74925,5.42157 0.16333,5.87875c-0.44247,0.34524 1.60818,4.99843 1.24137,5.985c-0.90172,2.42525 -6.08083,14.39857 -12.33832,14.3379c-0.83269,-0.00807 -3.39294,-0.14223 -4.57335,-1.13273c-1.41613,-1.18832 -1.39584,-3.26823 -1.39584,-3.26823c0,0 -2.1839,-0.10787 -3.20809,-0.39246c-1.00353,-0.27884 -2.8763,-1.29817 -2.8763,-1.29817c0,0 -2.55653,-1.60803 -3.04523,-2.77189c-0.48546,-1.15613 0.1227,-4.18823 0.1227,-4.18823c0,0 -5.13019,0.62333 -7.62917,-5.57761c-1.4932,-3.70522 2.64353,-10.01184 2.69704,-10.14477c2.23661,-5.5551 15.53849,-14.40362 22.29969,-8.3417z" fill="#3400ff" stroke="#000000" stroke-width="3.5" stroke-linecap="butt"></path><path d="M330.67498,200.47427c0,0 1.24842,-6.78006 0.05762,-8.58389c-3.6039,-5.45913 -7.79506,-1.44234 -7.79506,-1.44234c0,0 3.17873,-3.0657 1.50636,-7.56477c-1.60491,-4.31757 -5.50507,-5.39388 -5.50507,-5.39388c0,0 4.67607,-2.91188 8.79869,-2.37193c0.67621,0.08856 1.40988,0.19254 2.02663,0.47675c0.35515,0.16365 0.63203,0.48523 0.93813,0.64645c3.34332,1.76071 3.18917,2.34178 4.66244,4.10913c1.47328,1.76735 0.76947,2.66824 1.32278,3.28036c0.55332,0.61212 1.00685,-0.43369 3.01265,3.32844c0.18374,0.34463 1.15294,2.43261 0.93499,3.76654c-0.16067,0.98327 -0.71873,1.33741 -0.52241,2.44859c0.31082,1.7593 1.42484,3.23582 1.0812,5.2479c-0.61383,3.59415 -3.72291,7.06002 -5.37886,9.50494c-1.51921,2.24304 -3.61764,3.97939 -5.64235,4.00789c-1.049,0.01478 -2.91632,-0.25439 -3.66467,-0.68543c-0.69611,-0.40093 -0.31108,-0.96543 -0.31108,-0.96543c0,0 2.67903,-0.83966 3.87916,-2.41253c0.68525,-0.89807 1.66558,-2.76032 2.51846,-4.49604c0.9815,-1.99748 1.79423,-3.82741 1.79423,-3.82741c0,0 -1.25285,0.55862 -1.87176,0.71304c-0.61906,0.15446 -1.84212,0.21361 -1.84212,0.21361z" fill="#2e00e3" stroke="none" stroke-width="0" stroke-linecap="butt"></path><g fill="none" stroke="#000000" stroke-width="2" stroke-linecap="round"><path d="M331.11551,200.65162c0,0 -2.50101,3.66285 -3.81369,4.88232c-1.16964,1.08657 -3.8612,2.94861 -3.8612,2.94861"></path><path d="M323.23122,190.56629c0,0 -3.22212,4.16661 -4.79961,5.9329c-1.33289,1.49242 -4.05577,3.98236 -4.05577,3.98236"></path></g></g></g><g data-paper-data="{&quot;index&quot;:null}" stroke="#000000" stroke-width="2.5" stroke-linecap="butt"><path d="M324.80989,221.67782l20.14859,-24.94743l12.56004,6.05911l-18.05682,21.43787z" fill="#465d84"></path><path d="M324.71259,215.11016l17.58906,-22.11092l3.07833,4.00509l-20.31373,25.15193z" data-paper-data="{&quot;index&quot;:null}" fill="#313243"></path><path d="M342.48979,192.97516l13.39755,6.06891l1.26746,3.59408l-11.95161,-5.53867z" data-paper-data="{&quot;index&quot;:null}" fill="#90bcbf"></path></g></g><g stroke="#000000" stroke-width="2" stroke-linecap="round"><path d="M343.57539,206.49851l7.68391,3.06541l8.32687,9.62186l7.92932,9.20258l8.54739,9.01466l2.98165,3.14465l-28.07229,-4.83402" fill="#90bcbf"></path><path d="M343.1561,206.89606l13.30714,14.45452l12.77602,11.37508l9.79438,8.23042l-11.44662,0.10414l-10.98387,-1.9271l-7.43079,-4.89787l-3.77675,-3.98322l3.45205,-2.96665l-4.21455,0.90281l1.36444,-5.98779l-3.992,4.89611l-1.78116,-0.75614l3.98523,-8.27665l-5.34103,4.04483l-3.86685,-8.27707z" fill="url(#color-1)"></path></g></g></g></g></svg>