<svg version="1.1" xmlns="http://www.w3.org/2000/svg" xmlns:xlink="http://www.w3.org/1999/xlink" width="13.27833" height="24.67594" viewBox="0,0,13.27833,24.67594"><g transform="translate(-233.36083,-168.41203)"><g data-paper-data="{&quot;isPaintingLayer&quot;:true}" fill-rule="nonzero" stroke="none" stroke-width="0" stroke-linecap="butt" stroke-linejoin="miter" stroke-miterlimit="10" stroke-dasharray="" stroke-dashoffset="0" style="mix-blend-mode: normal"><path d="M234.3105,187.64959v-19.14398h11.82906v19.14398z" fill="#b548bd"></path><g><path d="M234.70227,168.50137l0.37097,-0.02299l0.04721,15.92678c0,0 1.98121,1.65955 6.23943,0.65864c2.82712,-0.91626 3.55918,-3.32607 3.55918,-3.32607l-0.00338,-13.24766l0.49876,-0.00747c0,0 0.26214,14.81695 -0.0991,15.92296c-0.31441,0.96263 -1.6617,2.79466 -2.11496,3.23093c-0.64005,0.61606 -2.74937,0.30958 -4.35732,0.21132c-0.40405,-0.02469 -4.00786,-0.31109 -4.41878,-1.09049c-0.43253,-0.82039 0.27802,-18.25597 0.27802,-18.25597z" fill="#ffffff"></path><path d="M234.71874,168.4585l0.02513,18.10844c0,0 2.24198,1.19766 5.16239,0.84698c2.94606,-0.35375 5.25471,-2.06572 5.41438,-4.23233c0.03873,-0.52554 -0.03029,-14.73223 -0.03029,-14.73223l1.33544,-0.03733c0,0 0.05051,16.38623 -0.04476,20.09492c-0.35671,2.53594 -3.90389,4.29312 -6.35139,4.50754c-3.79532,0.47593 -6.66372,-1.48231 -6.70936,-2.35995c-0.27865,-5.35901 -0.10734,-22.19777 -0.10734,-22.19777z" fill="#4f0099"></path></g></g></g></svg>