<svg version="1.1" xmlns="http://www.w3.org/2000/svg" xmlns:xlink="http://www.w3.org/1999/xlink" width="13.27833" height="22.67594" viewBox="0,0,13.27833,22.67594"><g transform="translate(-233.36084,-175.63521)"><g data-paper-data="{&quot;isPaintingLayer&quot;:true}" fill-rule="nonzero" stroke="none" stroke-width="0" stroke-linecap="butt" stroke-linejoin="miter" stroke-miterlimit="10" stroke-dasharray="" stroke-dashoffset="0" style="mix-blend-mode: normal"><path d="M234.3105,193.31358v-17.59235h11.82906v17.59235z" fill="#f74949"></path><g><path d="M234.70227,175.71731l0.37097,-0.02113l0.04721,14.63591c0,0 1.98121,1.52504 6.23943,0.60526c2.82712,-0.842 3.55918,-3.05649 3.55918,-3.05649l-0.00338,-12.17393l0.49876,-0.00686c0,0 0.26214,13.61603 -0.0991,14.63239c-0.31441,0.88461 -1.6617,2.56815 -2.11496,2.96906c-0.64005,0.56613 -2.74937,0.28449 -4.35732,0.1942c-0.40405,-0.02269 -4.00786,-0.28588 -4.41878,-1.00211c-0.43253,-0.7539 0.27802,-16.77631 0.27802,-16.77631z" fill="#ffffff"></path><path d="M234.71874,175.6779l0.02513,16.64074c0,0 2.24198,1.10059 5.16239,0.77834c2.94606,-0.32508 5.25471,-1.89829 5.41438,-3.8893c0.03873,-0.48295 -0.03029,-13.53817 -0.03029,-13.53817l1.33544,-0.03431c0,0 0.05051,15.05812 -0.04476,18.46621c-0.35671,2.3304 -3.90389,3.94516 -6.35139,4.1422c-3.79532,0.43735 -6.66372,-1.36217 -6.70936,-2.16868c-0.27865,-4.92466 -0.10734,-20.39863 -0.10734,-20.39863z" fill="#5e0043"></path></g></g></g></svg>