<svg version="1.1" xmlns="http://www.w3.org/2000/svg" xmlns:xlink="http://www.w3.org/1999/xlink" width="208.93004" height="133.3728" viewBox="0,0,208.93004,133.3728"><g transform="translate(-125.98933,-108.5079)"><g data-paper-data="{&quot;isPaintingLayer&quot;:true}" fill-rule="nonzero" stroke-linejoin="miter" stroke-miterlimit="10" stroke-dasharray="" stroke-dashoffset="0" style="mix-blend-mode: normal"><path d="M188.66237,207.49911c-3.10578,-1.34436 -6.3801,-3.024 -7.20946,-6.64348c-0.53042,-2.31481 0.10992,-5.07759 0.23907,-7.40203c0.40283,-7.25082 2.40116,-13.70687 5.0948,-20.43843c1.34446,-3.35988 3.45379,-6.61249 4.2982,-10.09358c0.57577,-4.56916 2.34856,-8.4528 4.2799,-12.58328c1.184,-2.5322 2.41136,-5.26947 5.05016,-6.72167c1.06709,-0.58724 5.11269,-1.30118 6.37118,-1.30138c5.28771,-0.00085 8.41705,2.22552 12.96329,4.05794c2.63335,-3.88168 5.89451,-7.29956 9.60654,-10.36726c0.92098,-1.09302 2.07126,-1.97356 3.173,-2.88409c1.12918,-0.9332 1.87491,-2.26453 2.96176,-3.24671c4.04192,-3.65268 10.46426,-7.11339 15.79167,-8.17471c3.54474,-0.70619 7.08118,-0.68258 10.61124,-1.32144l-0.59698,-0.06052c0,0 0.55329,0.53333 2.49849,0.81122c1.94521,0.27789 1.11654,0.29535 1.11654,0.29535l0.98716,-1.46475c0.36571,0.19822 0.70229,0.55931 0.88474,1.19785c0.42707,1.49473 -0.66627,2.14479 -1.14162,2.35114c-0.07634,1.34541 -0.12762,2.72003 0.08411,3.89673c0.6099,3.38935 1.8458,6.03938 1.39377,9.67868c-0.63219,5.08989 -3.07811,9.72214 -3.57624,14.83744c-0.33973,3.02338 -0.589,6.31062 -0.0262,9.32817c0.64879,3.47858 2.46345,6.88509 3.52891,10.26241c3.91806,12.41967 8.88596,27.58063 20.71806,34.71863c0.53708,0.93762 1.31092,1.77488 1.61127,2.81285c0.17371,0.6003 0.00307,4.13393 0.06203,5.06394c0.22647,3.57236 0.80034,6.739 -1.50118,9.85201c-1.72086,2.32762 -4.16805,5.35893 -6.37446,7.21171c-0.96497,0.8103 -2.27932,1.17284 -3.16105,2.073c-1.16786,1.19226 -3.88617,2.16773 -5.4728,2.68538c-4.4835,1.46273 -8.74597,1.19867 -13.38852,1.19109c-1.11985,-0.24813 -2.48564,-0.00147 -3.35954,-0.74439c-0.8571,-0.72866 -0.98146,-2.04761 -1.21828,-3.14737c-0.49638,-2.30514 0.15199,-5.36245 0.92071,-7.54023c0.50021,-1.41704 1.08169,-1.81092 0.99386,-3.32157c-0.1078,-1.85432 -2.07765,-3.35042 -2.65891,-5.03759c-0.36063,-1.04672 0.3327,-2.5917 -0.53621,-3.27774c-0.30784,-0.24306 -0.78583,-0.05126 -1.1688,-0.13598c-2.89027,-0.63938 -5.39767,-1.13175 -8.38145,-1.30437c-3.03502,-0.17558 -5.12479,0.20026 -7.61397,1.87614c-2.61073,1.69581 -5.61043,5.67863 -6.35017,8.78016c-0.52665,2.20812 -2.14361,4.5335 -3.14588,6.65789c-2.30145,4.87811 -5.38869,6.21235 -10.01188,7.66079c-4.81716,1.50923 -9.40504,2.66609 -14.43929,1.43241c-2.94541,-0.36308 -5.65999,-1.06176 -8.54554,-1.65394c-1.14257,-0.23447 -2.204,-1.01866 -3.17909,-1.65866c-2.89408,-1.89949 -3.73405,-2.53515 -3.35909,-5.46847c0.68888,-5.38897 5.02923,-13.62423 7.36161,-18.28094c0.35205,-0.7029 0.63833,-1.54878 0.91591,-2.43899c-2.40867,-0.42303 -4.73883,-1.01179 -7.10129,-2.01933z" fill="#2e00e3" stroke="none" stroke-width="0.5" stroke-linecap="butt"></path><path d="M202.37225,149.51864c-0.01046,-0.00469 -0.02093,-0.0094 -0.03139,-0.01413l-0.1173,0.14077l-0.53381,-0.44485c-0.9939,-0.48075 -1.95881,-1.0249 -2.87833,-1.63288c0,0 -1.10351,-0.73568 -0.89295,-1.90483c0.03047,-0.57062 0.29797,-1.01647 0.29797,-1.01647l1.9713,-2.25537c3.17491,-0.89786 6.04976,-1.06926 9.32075,-0.61122c2.1422,0.29998 4.83719,0.23259 5.54554,3.25334c0.27242,1.16169 -0.81619,2.2495 -1.36383,3.3096c-0.37317,0.72235 -0.78357,1.46014 -1.38363,2.00876c-2.59155,2.36937 -5.23798,1.8505 -8.10862,0.33831c-0.505,-0.26602 -1.21581,-0.42445 -1.59006,-0.82204c-0.01504,0.00169 -0.03008,0.00338 -0.04511,0.00507z" fill="#4b00ff" stroke="none" stroke-width="0.5" stroke-linecap="butt"></path><path d="M289.40426,203.48983c0,4.72431 -0.37819,25.82575 -15.20371,25.60702c-11.30752,-0.16681 -5.72621,-16.24363 -5.72621,-16.24363c0,0 -16.54003,1.1134 -29.36625,-10.52361c-9.11829,-8.27288 -11.15861,-21.46854 -10.84122,-25.55295c0.55079,-7.08815 10.1666,-30.58907 23.9249,-45.59028c6.43519,-7.01653 11.59339,-10.13461 15.74825,-10.75519c3.56414,-0.53235 6.46272,0.99134 7.96995,0.99134c2.87981,0 19.19657,6.04709 21.69691,23.76991c2.91389,20.65408 -8.20262,53.71344 -8.20262,58.2974z" fill="#3400ff" stroke="#000000" stroke-width="0" stroke-linecap="butt"></path><path d="M228.38719,135.19223c4.18407,-3.93049 8.56711,-7.08839 11.56654,-9.088c2.99942,-1.99961 4.52343,-2.99806 8.26181,-4.13091c3.73841,-1.13285 6.40191,-1.50006 10.46495,-1.92776c4.06305,-0.42768 5.91402,-0.55983 10.46495,-0.27538c4.55093,0.28443 8.17418,1.08662 11.29114,2.20314c3.11694,1.11652 4.51793,1.14936 7.71102,4.4063c3.19309,3.25694 4.35934,4.97567 6.60945,9.36338c2.25011,4.38772 3.0163,7.02606 3.85552,12.11733c0.83921,5.09127 0.37753,6.92712 -0.27538,13.2189c-0.65292,6.29179 -1.12779,8.08299 -2.75394,15.97283c-1.62615,7.88984 -4.12837,17.54795 -4.68168,20.10374c-0.55332,2.55579 -0.8533,3.07145 -1.10158,6.60945c-0.24829,3.538 0.04759,6.2804 0,9.088c-0.04758,2.80759 0.44165,4.45755 -0.27538,7.16023c-0.71703,2.70268 -1.38816,3.77863 -3.30472,6.33405c-1.91657,2.55544 -2.68404,3.1161 -5.78326,5.78327c-3.77162,3.24583 -7.78912,4.3718 -11.56654,5.23247c-3.77741,0.86068 -7.98741,0.57763 -9.91417,0.27538c-1.92677,-0.30224 -2.96077,-0.28454 -4.13091,-2.47854c-1.17014,-2.194 -0.90516,-3.09241 -0.27538,-5.78326c0.62977,-2.69085 2.23529,-4.51744 2.47854,-6.60945c0.24325,-2.09199 0.03369,-3.20095 -1.10158,-5.23247c-1.13527,-2.03154 -1.32714,-2.95724 -4.13091,-4.13091c-2.80377,-1.17367 -3.56583,-1.07739 -7.71103,-0.82618c-4.14519,0.25122 -10.46495,1.92776 -10.46495,1.92776c0,0 -0.61432,3.51268 -2.75393,7.98642c-2.13961,4.47373 -3.88524,8.28438 -6.33405,11.01575c-2.4488,2.73136 -5.15142,4.1139 -9.91417,5.50788c-4.76274,1.39398 -7.94038,1.63883 -12.66812,1.10158c-4.72774,-0.53724 -9.79995,-2.7817 -11.56654,-3.8555c-1.76659,-1.07379 -2.68389,-1.66049 -2.75393,-5.23247c-0.07004,-3.57197 0.27866,-2.9004 2.47854,-8.81259c2.19987,-5.91218 4.00376,-9.20444 6.33405,-14.87126c2.33028,-5.66683 2.59395,-6.23988 5.78326,-14.59587c3.18931,-8.35598 5.54754,-14.55432 7.98642,-21.48071c2.43888,-6.92639 4.04231,-13.67254 5.78327,-17.90059c1.74096,-4.22806 3.50416,-6.84689 5.78326,-10.18957c2.27911,-3.34268 2.42538,-4.05592 6.60945,-7.98642z" fill="none" stroke="#000000" stroke-width="3" stroke-linecap="round"></path><path d="M194.48725,208.72235c0,0 -5.12906,-0.97299 -7.43562,-2.20315c-2.30657,-1.23016 -3.68909,-2.10084 -4.95709,-4.4063c-1.268,-2.30546 -1.22817,-3.00171 -1.10158,-6.60945c0.12659,-3.60774 0.23713,-3.9417 1.65236,-9.088c1.41523,-5.14629 2.53053,-8.30618 4.4063,-12.9435c1.87577,-4.63732 3.54784,-6.52646 5.50788,-11.56654c1.96002,-5.04008 2.84515,-10.40628 4.13091,-13.21889c1.28578,-2.8126 0.92326,-4.41863 4.6817,-6.05866c3.75843,-1.64004 6.82878,-1.07024 10.46495,-0.55079c3.63618,0.51945 8.81259,3.30472 8.81259,3.30472" fill="none" stroke="#000000" stroke-width="3" stroke-linecap="round"></path><g><g stroke-linecap="round"><path d="M241.76977,121.95188c14.08244,-3.53809 24.28898,-7.01356 37.62793,-3.2691c13.33895,3.74446 30.66315,10.6694 22.13418,20.0453c-8.52896,9.37589 -27.8656,-5.77922 -35.64806,-5.18949c-7.78247,0.58973 -8.13327,8.45148 -16.43335,9.136c-12.5882,1.03816 -4.86527,-6.38643 -8.54227,-8.39219c-3.1213,-1.70262 -12.55939,3.30471 -12.12706,-2.88266c0.19153,-2.74122 5.14523,-7.47729 12.98864,-9.44787z" fill="#fff3df" stroke="none" stroke-width="0"></path><path d="M242.59387,123.50998c4.21008,-1.05774 1.7984,14.34042 5.89402,14.0992c7.5049,-0.44198 6.40642,-7.74581 14.54722,-9.25574c2.27687,-0.42231 13.85584,2.6824 15.89963,3.25613c13.33895,3.74446 31.12613,-2.2574 22.59715,7.11849c-8.52896,9.37589 -27.8656,-5.77922 -35.64806,-5.18949c-7.78247,0.58973 -8.13327,8.45148 -16.43335,9.136c-12.5882,1.03816 -4.86527,-6.38643 -8.54227,-8.39219c-3.1213,-1.70262 -12.55939,3.30471 -12.12706,-2.88266c0.19153,-2.74123 2.66501,-5.16553 10.50842,-7.13612z" fill="#cfa7a7" stroke="none" stroke-width="0"></path><path d="M279.39765,118.68278c13.33894,3.74446 30.66313,10.6694 22.13418,20.04529c-8.52896,9.37589 -27.86559,-5.7792 -35.64805,-5.18947c-7.78245,0.58973 -8.13326,8.4515 -16.43334,9.13601c-12.5882,1.03816 -4.86527,-6.38642 -8.54228,-8.39217c-3.12131,-1.70262 -12.55939,3.3047 -12.12706,-2.88266c0.19153,-2.74123 5.14526,-7.4773 12.98863,-9.44788c14.08244,-3.53809 24.28896,-7.01355 37.62792,-3.26909z" fill="none" stroke="#000000" stroke-width="4"></path></g><path d="M262.14681,126.33984c-10.06319,-0.29578 -21.6652,-4.38757 -15.02529,-9.32777c0.49759,-0.37021 1.37686,-1.16935 2.3207,-1.98919c0.98605,-0.85651 2.04256,-1.73564 2.80796,-2.17196c8.27826,-4.71897 21.59003,-7.81368 31.737,2.85656c11.98316,12.60115 -11.77717,10.92814 -21.84035,10.63235z" fill="#ffd500" stroke="none" stroke-width="0" stroke-linecap="round"></path><path d="M262.14681,126.33984c-10.06319,-0.29578 -21.6652,-4.38757 -15.0253,-9.32777c0.49759,-0.37022 1.37686,-1.16935 2.32071,-1.98919c0.98605,-0.85651 2.04256,-1.73564 2.80796,-2.17195c8.27826,-4.71897 2.47499,4.45331 9.15007,7.55918c14.02448,6.52549 23.55529,-2.03453 24.56827,-1.06817c8.0971,7.7244 -14.87748,7.26079 -23.82171,6.99791z" fill="#ff7e00" stroke="none" stroke-width="0" stroke-linecap="round"></path><path d="M262.19865,126.73335c-10.06319,-0.29578 -21.66519,-4.38759 -15.0253,-9.32779c2.41207,-1.79462 6.25,-4.91959 10.86808,-6.54976c8.09447,-2.85734 18.36756,-2.77835 25.9976,5.24517c11.98316,12.60114 -11.77717,10.92814 -21.84037,10.63235z" fill="none" stroke="#000000" stroke-width="4" stroke-linecap="round"></path><path d="M266.70543,114.55362c1.53817,-2.01576 5.20816,-2.22136 8.19714,-0.45923c2.98897,1.76213 4.16508,4.82471 2.6269,6.84044c-0.69925,0.91636 -2.05363,-2.24436 -4.55712,-3.59963c-3.00358,-1.62599 -7.10585,-1.68218 -6.26692,-2.78159z" fill="#fff45c" stroke="none" stroke-width="0" stroke-linecap="butt"></path></g><g><path d="M246.70899,158.07413c-0.21705,-0.10657 -0.4361,-0.32165 -0.4361,-0.75579c0,-0.86043 0.86043,-0.86043 0.86043,-0.86043h0.22705c0.07388,-0.00773 0.14197,-0.00722 0.20471,0h0.14186c2.69696,0 5.3042,0.28681 8.03067,0.28681c7.23254,0 14.46245,-0.1458 21.61587,0.58007c2.22249,0.22552 4.36123,-0.15846 6.57628,0.28455c5.07842,-0.01576 10.0999,-0.56897 15.11614,-0.57781c0.97329,-0.00171 4.29994,-0.40389 5.00016,0.35733c0.43358,0.47134 -0.42232,3.38598 -0.42232,4.08265c-1.16285,3.48856 -1.41729,6.91177 -3.89406,9.84917c-2.67876,3.17695 -8.17496,2.90759 -11.73154,4.05557c-3.5812,0.03986 -6.84249,0.69815 -10.54776,0.29373c-4.75993,-0.51954 -9.19568,-1.9769 -13.85083,-2.88061c-7.4417,-1.48961 -15.01933,-7.13248 -16.89055,-14.71522z" fill="#6fddfe" stroke="none" stroke-width="0.5" stroke-linecap="butt"></path><path d="M246.13059,158.36925c0,0 -0.47729,-0.71592 0.23864,-1.1932c0.71592,-0.47729 1.1932,0.23864 1.1932,0.23864c3.64629,5.54881 7.53978,10.65882 13.66703,13.73603c7.21234,2.38362 14.00895,3.27035 21.61726,3.38733c4.56476,-1.52158 9.72553,-1.29467 14.36056,-2.78317l0.77793,-0.51862c0.13849,-0.09527 0.30627,-0.15103 0.48707,-0.15103c0.4752,0 0.86043,0.38523 0.86043,0.86043c0,0.3034 -0.15703,0.57012 -0.39425,0.72332l-0.84932,0.56622l-0.03671,-0.05507l-0.06254,0.11209c-0.14112,0.04821 -0.28269,0.09476 -0.4247,0.13976c-0.64339,0.57741 -2.11224,0.70025 -2.91777,1.23727c-3.83866,2.5591 -7.69819,3.34974 -12.0178,3.53692c0.04386,0.10326 0.06813,0.21686 0.06813,0.33613c0,0.4752 -0.38523,0.86043 -0.86043,0.86043h-1.14724v-0.00009c-0.24378,-0.00021 -0.48687,-0.00093 -0.72896,-0.00336c-5.88136,1.24909 -12.85649,-0.61611 -18.30561,-2.01066c-2.9349,-0.01533 -5.76545,-1.37515 -8.29533,-2.65836c-1.1267,-0.57149 -2.25467,-0.27006 -3.1821,-1.40188c-0.35257,-0.43027 -0.50064,-0.93782 -0.57971,-1.46951c-0.24435,-0.14448 -0.36652,-0.38883 -0.36652,-0.38883l-0.12563,-0.35c-2.50403,-2.5202 -3.62897,-6.20975 -3.1691,-9.65636c0.01263,-0.26728 0.02603,-0.54104 0.03562,-0.82548l-0.25783,-0.04298l0.28058,-1.68349c0.02485,-0.16732 0.09788,-0.31893 0.20452,-0.44026c-0.02314,-0.03405 -0.04627,-0.06811 -0.0694,-0.10218z" fill="#1c4ea5" stroke="none" stroke-width="0.5" stroke-linecap="butt"></path><path d="M304.49528,157.03153c0,0 -0.48014,6.23003 -2.85587,11.17995c-1.66493,3.46896 -5.5642,6.59096 -7.18247,7.17588c-3.92741,1.41955 -8.75433,3.83045 -15.20092,4.30215c-6.44659,0.4717 -12.25165,-0.26138 -19.50307,-2.29448c-7.25141,-2.0331 -8.46292,-2.74817 -11.47239,-7.17025c-3.00947,-4.42208 -2.58129,-13.48006 -2.58129,-13.48006z" fill="none" stroke="#000000" stroke-width="2" stroke-linecap="round"></path><path d="M295.09876,159.30457c2.60727,0.15153 5.1574,0.82761 3.84532,3.29554c-0.44901,0.84456 -2.18671,1.28421 -2.96187,1.80098c-2.81218,0.96074 -5.82514,0.97652 -8.64927,0.05317c-1.25942,-0.41177 -2.9669,-1.4819 -1.95211,-3.23978c0.88716,-1.5368 2.9364,-1.74043 4.94694,-1.79506c0.20481,-0.09342 0.40063,-0.09342 0.40063,-0.09342h0.28681c0.4702,0 1.36426,-0.05127 2.39685,-0.05878c0.28126,-0.04371 0.541,-0.10287 0.77277,-0.18387c0,0 0.56756,-0.18919 0.91393,0.22121z" fill="#ffffff" stroke="none" stroke-width="0.5" stroke-linecap="butt"></path></g><path d="M262.0826,210.86036l-2.53112,-4.00303l-3.604,0.39562c0,0 -8.55237,-1.33499 -16.52085,-4.31792c-7.96847,-2.98293 -19.77101,-9.26764 -19.77101,-9.26764c0,0 1.15709,-6.55828 3.1519,-10.82523c1.99481,-4.26694 6.55001,-9.92736 6.55001,-9.92736l5.30277,13.91045l5.32605,9.47094l3.58951,-1.08522l4.3432,7.05936l4.18388,-0.52617l4.07938,5.59448l3.11981,-1.25662l3.0153,4.86403l8.08947,-3.20682z" fill="#67080a" stroke="#000000" stroke-width="2" stroke-linecap="round"></path><g data-paper-data="{&quot;index&quot;:null}" stroke-width="1.5"><g><g><g><path d="M167.92447,191.30796c-1.77619,1.1908 -3.54927,2.3841 -5.3721,3.4712c-2.32213,1.38486 -6.21333,3.72362 -9.11013,1.97616c-1.12373,-0.67788 -1.33264,-2.14766 -1.64924,-3.52423c-0.5068,-0.22941 -1.00172,-0.65684 -1.40192,-1.40005c-1.44909,-2.69117 1.24208,-4.14027 1.24208,-4.14027c0.18019,-0.09636 0.3607,-0.19129 0.54154,-0.28479c0.1018,-0.05849 0.20235,-0.10981 0.30154,-0.15448c5.52951,-2.80659 11.35641,-4.33573 17.27099,-6.15438c5.55673,-1.70861 10.77082,-4.28441 16.42778,-5.69143l0.25487,0.08357l-0.0095,-0.11404l3.01819,-0.25152c0.09528,-0.00895 0.19182,-0.01352 0.28944,-0.01352c1.68807,0 3.05652,1.36845 3.05652,3.05652c0,1.37495 -0.90786,2.53784 -2.15683,2.92195l-2.98695,0.99565l-0.21943,-0.65827l-0.30724,0.0256c-0.10718,0.02717 -0.21421,0.0548 -0.3211,0.08288c-2.98126,1.5357 -6.04463,2.61528 -9.29739,4.13017c0.37232,1.04179 -0.66945,1.56268 -0.66945,1.56268c-2.25487,1.1258 -4.38276,2.4726 -6.52846,3.76888l-0.71079,0.47564c0,0 -0.9456,0.63042 -1.66245,-0.16392z" fill="#465c83" stroke="none" stroke-linecap="butt"></path><path d="M151.9619,195.04661c-0.8315,-0.92291 -0.86264,-1.74072 -0.43259,-2.72228l-0.19873,-0.06625l0.49943,-1.49824c0.16462,-0.53528 0.663,-0.92436 1.25226,-0.92436c0.57235,0 1.05897,0.36707 1.23728,0.87863l0.75272,2.00724l-0.03954,0.01484l0.08212,0.12061c0.0697,0.48045 0.13045,0.963 0.17844,1.44678l0.47825,0.28695c0.39243,0.22627 0.65657,0.6501 0.65657,1.13562c0,0.56227 -0.35427,1.04182 -0.85177,1.22758l-0.29628,0.11851c-0.15085,0.34973 -0.47655,0.7273 -1.17983,0.7273c-0.76112,0 -1.08,-0.44223 -1.2136,-0.8128l-0.53096,-0.17065c0,0 -1.05862,-0.70575 -0.39374,-1.76946z" fill="#b3cbd5" stroke="none" stroke-linecap="butt"></path><path d="M198.01886,169.51423c0,0.38497 -0.09965,0.7467 -0.27456,1.06075c-0.07789,0.57206 -0.37736,1.07363 -0.80911,1.41542c0.16566,0.2429 0.31248,0.49357 0.43909,0.74598c1.27853,2.54884 -1.19738,4.83782 -0.45258,7.45442c0.18293,0.64271 0.85021,1.55855 1.54304,2.51695c0.21377,-0.06991 0.44206,-0.10771 0.67919,-0.10771c1.20576,0 2.18323,0.97746 2.18323,2.18322c0,0.86312 -0.50088,1.60927 -1.22782,1.96363c-0.22802,0.36934 -0.61846,0.64014 -1.06565,0.87654c-0.02448,0.34653 -0.24231,1.88791 -2.18012,1.88791c-1.03321,0 -1.57745,-0.4382 -1.86413,-0.89983c-0.31396,-0.165 -0.61241,-0.43638 -0.85205,-0.86589c-0.40337,-0.72297 -0.3068,-1.2966 -0.05453,-1.72089c-1.11945,-1.52799 -2.04272,-3.04074 -2.8994,-4.8003c-0.01225,-0.09195 -0.53089,-2.39146 -0.44371,-3.92818c-0.32521,0.17163 -0.64765,0.31922 -0.88081,0.4124c-4.29773,1.7175 -8.74319,2.91095 -13.21224,4.18497c-5.97197,1.70247 -11.41226,4.31825 -17.33312,5.93735c-0.05956,0.01629 -5.64226,1.7131 -5.84118,1.67658c-0.1843,-0.03384 -0.3652,-0.07641 -0.54325,-0.12638l-0.02057,0.09216l-2.50518,-0.44902c-1.02042,-0.16423 -1.79472,-0.9639 -1.79472,-1.92563c0,-0.8134 0.55389,-1.51086 1.34209,-1.80603l2.13981,-0.85226c5.37196,-3.00113 11.45894,-4.5119 17.0236,-7.28235c5.35296,-2.39989 11.43074,-4.2116 17.15559,-5.8362c1.43554,-0.40737 4.00167,-1.35136 6.11028,-1.54252c-0.00001,-0.00354 -0.00002,-0.00709 -0.00002,-0.01063c0,-1.20576 0.97747,-2.18322 2.18323,-2.18322c0.07664,0 0.15234,0.00395 0.22693,0.01165c0.31049,-0.16968 0.66673,-0.26613 1.0455,-0.26613c1.20576,0 2.18323,0.97746 2.18323,2.18322z" fill="#373142" stroke="none" stroke-linecap="butt"></path><path d="M190.237,182.78494c-0.84404,0 -1.52826,-0.58648 -1.52826,-1.30993c0,-0.72346 0.68423,-1.30993 1.52826,-1.30993c0.84404,0 1.52826,0.58648 1.52826,1.30993c0,0.72346 -0.68423,1.30993 -1.52826,1.30993z" fill="#465c83" stroke="none" stroke-linecap="butt"></path><path d="M149.8115,187.32815c0,0.38622 -0.16714,0.7334 -0.43304,0.97315c0.43401,0.28715 0.82951,0.62526 1.16393,1.00787c0,0 0.81831,1.02289 -0.20458,1.84119c-1.02289,0.81831 -1.8412,-0.20458 -1.8412,-0.20458c-0.41539,-0.61414 -1.22219,-0.99501 -1.96169,-1.04844l0.76622,0.1933c0,0 -0.72663,1.08995 -1.81656,0.36332c-1.08995,-0.72663 -0.36332,-1.81656 -0.36332,-1.81656l1.78416,-1.33361c0.09558,0.01761 0.19119,0.0375 0.28666,0.05961c-0.0003,-0.01172 -0.00046,-0.02347 -0.00046,-0.03526c0,-0.72346 0.58648,-1.30993 1.30993,-1.30993c0.72346,0 1.30993,0.58647 1.30993,1.30993z" fill="#373142" stroke="none" stroke-linecap="butt"></path><path d="M145.20567,192.44487c0.9114,-0.63554 2.41035,-0.39452 3.32495,0.23642c0.4209,0.29036 0.58859,0.93568 0.59077,1.72104c1.01964,1.87165 2.17253,4.09067 0.66405,6.01594c-0.59233,0.75599 -3.83212,1.66321 -4.52224,1.01649c-0.38136,-0.35738 -0.17632,-2.63234 0.32998,-4.49565c-0.57726,-1.62142 -1.30892,-3.85172 -0.38751,-4.49424z" fill="#373142" stroke="none" stroke-linecap="butt"></path><path d="M148.97939,191.64255c0,0.03505 -0.00136,0.06982 -0.00408,0.10417c1.66552,0.97599 1.68394,1.63062 2.21587,3.75839c0,0 0.31769,1.27083 -0.95312,1.58854c-1.27082,0.31769 -1.58853,-0.95312 -1.58853,-0.95312c-0.35771,-1.43082 0.05342,-1.92072 -1.35133,-2.33626l-0.43266,0.1129c0,0 -1.30993,0 -1.30993,-1.30993c0,-0.77197 0.45493,-1.089 0.8286,-1.2192c0.11848,-0.60163 0.64886,-1.05541 1.28523,-1.05541c0.72346,0 1.30993,0.58648 1.30993,1.30993z" fill="#373142" stroke="none" stroke-linecap="butt"></path><path d="M146.544,197.6151c-0.72346,0 -1.30993,-0.58648 -1.30993,-1.30993c0,-0.72346 0.58648,-1.30993 1.30993,-1.30993c0.72346,0 1.30993,0.58648 1.30993,1.30993c0,0.72346 -0.58648,1.30993 -1.30993,1.30993z" fill="#373142" stroke="none" stroke-linecap="butt"></path><path d="M142.84563,196.0536c0.01583,0.08142 0.02414,0.16553 0.02414,0.25157c0,0.72346 -0.58648,1.30993 -1.30994,1.30993c-0.72346,0 -1.30993,-0.58648 -1.30993,-1.30993c0,-0.42065 0.19827,-0.79499 0.50647,-1.03466c-0.01583,-0.08142 -0.02413,-0.16553 -0.02413,-0.25157c0,-0.72346 0.58648,-1.30993 1.30993,-1.30993c0.72346,0 1.30993,0.58648 1.30993,1.30993c0,0.42065 -0.19827,0.79499 -0.50647,1.03466z" fill="#373142" stroke="none" stroke-linecap="butt"></path><path d="M142.58434,199.57149l-0.50841,-1.14993c-1.0274,-1.75502 -0.63917,-11.23454 3.79188,-8.75334c0.81373,0.45566 0.70448,1.77893 0.69,2.71142c-0.01438,0.92594 -0.91447,1.648 -1.08207,2.55875c-0.34963,1.89991 0.55157,3.6837 0.56603,5.59467c0,0 0,1.30993 -1.30993,1.30993c-1.30993,0 -1.30993,-1.30993 -1.30993,-1.30993c0.00065,-0.06714 0.00014,-0.13485 -0.00146,-0.20311c-0.57284,-0.16612 -0.8361,-0.75847 -0.8361,-0.75847z" fill="#465c83" stroke="none" stroke-linecap="butt"></path><path d="M195.32668,189.10953l-2.54486,-5.85315l-8.65248,-2.03588l-9.41592,7.88903l-17.30494,7.88901l-4.07176,2.29036l-5.08968,2.29036h-5.08969l-2.79934,-5.34417l1.52692,-5.85314l8.39798,-5.59866l47.07962,-17.81391v14.25113l4.83521,3.81726l-2.29036,2.54485z" fill="none" stroke="#000000" stroke-linecap="round"></path><path d="M148.24705,201.83377l-4.8352,-0.25448l-3.30829,-4.58071l1.5269,-5.85315l2.54484,-2.29036l5.59867,3.05382l1.27242,3.05381v4.8352z" fill="none" stroke="#000000" stroke-linecap="round"></path></g><path d="M146.06166,197.77589c-0.72346,0 -1.30993,-0.58647 -1.30993,-1.30993c0,-0.72346 0.58648,-1.30993 1.30993,-1.30993c0.72346,0 1.30993,0.58648 1.30993,1.30993c0,0.72346 -0.58648,1.30993 -1.30993,1.30993z" fill="#000000" stroke="none" stroke-linecap="butt"></path></g><g><g><g><g><path d="M191.34444,192.78629c-1.00254,2.1102 -8.77266,-0.04734 -9.32672,-2.70328c-1.70751,-8.18521 2.42293,-8.77384 6.27787,-6.74093c2.16393,1.14113 4.24105,3.10832 5.15003,5.02159z" fill="#4b00ff" stroke="none" stroke-linecap="butt"></path><path d="M183.66064,182.76645c0.78567,0 1.51774,0.26467 2.1328,0.72092c0.71699,-0.84798 1.71849,-1.37454 2.82667,-1.37454c2.18017,0 3.94755,2.03806 3.94755,4.55212c0,1.21131 -0.41028,2.31208 -1.07934,3.12768c0.05729,0.30865 0.08744,0.62891 0.08744,0.9573c0,2.51406 -1.76738,4.5521 -3.94755,4.5521c-1.84567,0 -3.39553,-1.46064 -3.82764,-3.43419c-0.04644,0.00186 -0.0931,0.0028 -0.13993,0.0028c-2.18017,0 -3.94754,-2.03804 -3.94754,-4.5521c0,-2.51406 1.76737,-4.55211 3.94754,-4.55211z" fill="#4b00ff" stroke="none" stroke-linecap="butt"></path><path d="M183.28434,188.2652c11.90492,0 -2.03151,12.95988 -7.10247,7.79733c-4.936,-5.02517 2.80055,-12.62987 6.98709,-7.89324z" fill="#4e00e3" stroke="none" stroke-linecap="butt"></path><path d="M191.92955,192.01814l-3.97878,3.05875l-9.06279,2.29406l-3.5367,-0.50979l-0.44208,-5.6077l6.85235,-7.13706l6.41025,-2.29405l3.5367,2.03915l1.98939,5.6077c0,0 -0.36383,0.52444 -0.59571,0.85867c-0.32532,0.46893 -1.17263,1.69027 -1.17263,1.69027z" fill="#3400ff" stroke="#000000" stroke-linecap="round"></path></g><path d="M180.18907,196.98632l-3.54249,-8.16998l2.55059,-2.12418l4.53437,8.98696z" fill="#434d59" stroke="#000000" stroke-linecap="round"></path></g><g><path d="M194.45153,192.94984c0.34345,0 0.66639,0.10113 0.94768,0.27902c1.63539,0.08432 3.23416,0.88967 3.77757,2.46625c0.34289,0.34542 0.72602,0.59779 1.13541,0.48224c0.49929,-0.14091 1.6063,-0.55503 2.71132,-0.95121c0.71121,-1.23136 1.9055,-2.03921 3.25884,-2.03921c1.48172,0 2.77277,0.96834 3.44791,2.40068c1.11802,1.0572 1.17628,2.62695 0.28511,3.97861c0.26319,0.38674 0.42013,0.87419 0.42013,1.40393c0,1.25704 -0.88369,2.27605 -1.97378,2.27605c-0.32025,0 -0.62268,-0.08793 -0.89014,-0.24404c-0.70377,1.28526 -1.92465,2.13534 -3.31291,2.13534c-0.32019,0 -0.63147,-0.04522 -0.92956,-0.13057c-0.34461,0.33382 -0.73764,0.59993 -1.16468,0.78123c-0.13873,1.10048 -0.96034,1.94575 -1.95315,1.94575c-1.0901,0 -1.97378,-1.01902 -1.97378,-2.27605c0,-0.17289 0.01671,-0.34127 0.04838,-0.50312c-0.66663,-0.66895 -1.14373,-1.59541 -1.32219,-2.64995c-1.75628,-0.40474 -3.2581,-1.06714 -4.17992,-1.95136c-0.96391,-0.15016 -1.70702,-1.10274 -1.70702,-2.25543c0,-0.21965 0.02698,-0.43205 0.07733,-0.63299c-0.0743,-0.3704 -0.10168,-0.77477 -0.07363,-1.21268c0.07538,-1.17704 0.7822,-2.02151 1.75414,-2.51535c0.06526,-0.03316 0.13173,-0.06473 0.19926,-0.09473c0.35878,-0.427 0.86135,-0.69242 1.41769,-0.69242z" fill="#4e00e3" stroke="none" stroke-linecap="butt"></path><path d="M210.90249,195.58489c0,1.25704 -0.88369,2.27605 -1.97378,2.27605c-0.21952,0 -0.43064,-0.04131 -0.6279,-0.11759c-0.71352,1.28133 -1.8745,2.57689 -3.15819,3.58619c-1.4903,1.17174 -3.14598,1.95764 -4.45886,1.88747c-1.84384,-0.09856 -2.97625,-1.31902 -3.45864,-2.82855c-0.19715,-0.53925 -0.30602,-1.13109 -0.30602,-1.75192c0,-0.43439 0.0533,-0.85461 0.15285,-1.25254c-2.24576,-0.12447 -3.82418,-1.29423 -3.31929,-4.1761c0.43767,-2.49806 5.30023,-6.82433 9.30333,-8.31737c0.60909,-0.43054 1.32727,-0.67907 2.09632,-0.67907c0.51514,0 1.00749,0.11151 1.45948,0.31455c0.19072,0.06421 0.36936,0.14854 0.53429,0.25446c0.15449,0.0992 0.29136,0.21864 0.41413,0.35432c0.95979,0.83127 1.57965,2.14739 1.57965,3.62877c0,1.02243 -0.29525,1.96611 -0.79376,2.726c0.41653,0.36365 0.70165,0.95158 0.79513,1.83231c0.99014,0.12224 1.76125,1.08878 1.76125,2.26301z" fill="#4b00ff" stroke="none" stroke-linecap="butt"></path><path d="M208.19622,185.03203l0.38779,8.273l-6.34328,6.44335l3.43477,-5.32537l4.4597,-0.67077l0.19391,8.27301l-10.4706,5.58987l-3.10239,-4.47189l-5.81701,-3.13034v-4.24828l1.93902,-2.90674l4.8475,-4.91909l5.42919,-3.35392z" fill="#3400ff" stroke="#000000" stroke-linecap="round"></path></g></g><g><path d="M209.65717,180.3266c0,1.25704 -0.88369,2.27605 -1.97378,2.27605c-0.04308,0 -0.08583,-0.00159 -0.12823,-0.00473c-1.85407,1.75985 -4.0844,1.59106 -5.57214,0.36697c-1.75539,0.12447 -2.01332,-1.9574 -2.01332,-1.9574c-0.33899,-3.35523 -0.59615,-6.12491 2.68011,-6.72703c0.64138,-0.11789 -1.19011,-0.60778 -1.75149,-0.98442c-2.24016,-1.50297 -3.2668,-1.3102 -3.73122,-5.03819c-0.37287,-2.99319 2.84482,-8.43344 5.95742,-7.77823c1.15265,0.24263 2.42968,2.06184 3.36829,4.08715c0.90463,0.1072 1.79367,0.25769 2.53736,0.81235c1.16986,0.87252 1.90619,4.00604 1.64072,6.24604c0.0939,0.44145 0.07011,0.79814 0.07011,0.79814l-0.16165,2.40741c-0.10646,0.86222 -0.21293,1.72443 -0.31939,2.58666c0,0 -0.14016,1.13155 -0.91724,1.67632c0.19895,0.3553 0.31441,0.77859 0.31441,1.23296z" fill="#4b00ff" stroke="none" stroke-linecap="butt"></path><path d="M197.75058,178.94497c0.04232,0.00274 0.07979,-0.00015 0.11275,-0.00836zM197.89145,177.5559c-0.49373,-1.94012 -1.72578,-5.40752 0.50187,-7.06239c1.14558,-0.85102 2.75469,0.31856 4.0059,0.94117c0.72371,0.36014 1.13226,1.26489 1.69839,1.89732c0,0 1.39567,1.60942 0,3.21883c-0.75427,0.86979 -1.50852,0.79944 -2.04248,0.5511c0.41584,0.90322 0.66445,2.00435 0.36962,3.11426c-0.33095,1.24587 -1.70322,1.71281 -2.55483,2.56922l-3.29208,-1.97939c0,0 -0.88268,-2.03575 0.88271,-3.05363c0.14999,-0.0865 0.29365,-0.15093 0.43091,-0.19645z" fill="#4e00e3" stroke="none" stroke-linecap="butt"></path><path d="M208.15037,183.19881l-9.49579,-0.17952l-1.86803,-2.33361l0.62268,-3.41065v-4.3082l-0.62268,-7.35986l3.11337,-5.02623l5.29273,0.71803l3.89172,5.38524l1.86803,6.10329l-1.24535,8.79592z" fill="#3400ff" stroke="#000000" stroke-linecap="round"></path></g></g></g><g><path d="M131.0676,185.94377c-3.06538,-2.47852 -3.30482,-7.92578 -2.36104,-11.79178c-0.34147,-0.11864 -0.58659,-0.44327 -0.58659,-0.82514c0,-0.2788 0.13065,-0.52707 0.33406,-0.68696l0.72143,-0.57714l0.05211,0.06512l0.13738,-0.18061c0.07623,0.01112 0.15247,0.02226 0.22871,0.03339l-0.01622,-0.09738l0.37076,-0.06179l0.31969,-0.42205c0,0 0.61751,-0.61751 1.23503,0c0.61751,0.61751 0,1.23502 0,1.23502l0.05462,-0.16533c-0.03573,0.09425 -0.06999,0.18771 -0.10284,0.2804c-0.01597,0.09203 -0.04635,0.17913 -0.08874,0.25887c-0.1503,0.45404 -0.2664,0.89029 -0.35276,1.31369c-0.02214,0.36963 -0.08691,0.76747 -0.16544,1.13048c-0.18453,2.08433 0.31472,3.94609 0.88756,6.26104c0.30425,1.22957 -0.43408,2.04194 0.71445,2.86633c0,0 0.68194,0.54554 0.13639,1.22746c-0.26274,0.32843 -0.55711,0.37215 -0.79171,0.32921c-0.38978,0.07684 -0.72686,-0.19282 -0.72686,-0.19282z" fill="#9bb3c1" stroke="none" stroke-linecap="butt"></path><path d="M131.32317,186.61953c-0.48442,-0.72663 0.2422,-1.21104 0.2422,-1.21104l0.02777,-0.01692c0.0019,-0.16451 0.06071,-0.34922 0.22242,-0.54327c0.4796,-0.57553 1.04151,-0.24587 1.19154,-0.14055c1.08222,-0.43881 2.69891,-1.11192 3.41245,-1.06067c-0.15796,-0.81191 -0.80925,-1.82409 -1.01086,-3.04846c-0.18926,-1.14936 0.24947,-2.44924 0.01209,-3.57796c-0.00808,-0.03836 -0.01678,-0.07632 -0.02608,-0.11389c-0.35536,-0.62742 -0.71516,-1.2373 -1.05097,-1.82541c-1.13596,-1.26361 -2.55206,-2.06654 -1.41458,-3.55446l-0.25133,-0.20105l0.57714,-0.72144c0.15989,-0.20341 0.40817,-0.33406 0.68696,-0.33406c0.4823,0 0.8733,0.39099 0.8733,0.8733v0.76639c0.12339,0.36087 0.24678,0.72178 0.37017,1.08265c0.01022,0.02061 0.02053,0.04117 0.03095,0.06166c0.29812,0.35125 0.53723,0.75586 0.73256,1.19649c0.7807,1.11299 1.70992,2.12943 2.28342,3.37715c2.32328,5.05464 1.05015,12.2038 -4.72705,11.68922v0.16557h-0.8733c-0.4823,0 -0.87329,-0.39099 -0.87329,-0.8733c0,-0.2089 0.07335,-0.40068 0.19571,-0.55097l0.50482,-0.63102c0.04935,-0.16359 0.04554,-0.34551 0.00272,-0.52477c-0.19552,0.09957 -0.74654,0.30522 -1.13878,-0.28314zM134.91992,187.6529l-0.68337,-0.25627c-0.00224,-0.00079 -0.00448,-0.00156 -0.00672,-0.00236c-0.01907,0.09401 -0.04192,0.19197 -0.06842,0.29447c0.22645,-0.02949 0.48727,-0.0319 0.75851,-0.03584z" fill="#373142" stroke="none" stroke-linecap="butt"></path><path d="M174.98722,174.80655c-1.31514,0.74347 -2.62792,1.49228 -3.94189,2.23834c-9.00169,3.40057 -19.06361,6.27104 -27.59543,10.61072l-0.39044,0.27245c0,0 -1.08993,0.72663 -1.81656,-0.36331c-0.72663,-1.08993 0.3633,-1.81656 0.3633,-1.81656l0.67206,-0.43587c8.64222,-4.26047 18.58186,-7.26677 27.65364,-10.63893c8.10329,-4.66471 16.2506,-9.31627 25.11081,-12.27551c0,0 1.24272,-0.41424 1.65696,0.82847c0.15344,0.46029 0.07955,0.80691 -0.0743,1.06094c0.09052,0.17803 0.14154,0.37948 0.14154,0.59287c0,0.11985 -0.01609,0.23593 -0.04623,0.34621l-0.34704,1.38814l-0.19267,-0.04817l0.00462,0.46769c-5.74056,4.42882 -13.57723,5.51571 -20.32447,7.76578c0,0 -0.43358,0.14452 -0.87389,0.00674z" fill="#313b48" stroke="none" stroke-linecap="butt"></path><path d="M154.13377,163.06123c1.87748,-0.2377 4.20163,0.06897 6.40899,0.19757c-0.02679,-0.10438 -0.04103,-0.21379 -0.04103,-0.32653c0,-0.67995 0.51806,-1.2389 1.18098,-1.30367l1.57802,-0.17534c3.04116,-0.33545 7.52717,-2.1457 11.14149,-2.45259c0.42458,-0.12519 0.85009,-0.24905 1.2765,-0.37147c0.56999,-0.18643 1.15291,-0.35776 1.75248,-0.50936l0.67642,-0.1691c5.49821,-1.49192 11.12132,-2.71106 16.73669,-3.40909c4.26542,0.62494 2.75993,3.67752 3.15413,7.18347l0.16728,0.99179c0,0 0.21535,1.29212 -1.07677,1.50747c-0.33588,0.05597 -0.59901,0.01009 -0.8045,-0.08848c-2.79827,1.38714 -5.25648,3.35558 -7.99896,4.73141c-5.68707,2.85307 -12.58856,3.70763 -18.48528,6.23227c-6.78522,3.34306 -13.96323,6.53595 -21.16376,9.24637c-1.17174,0.44106 -6.44629,3.08752 -7.51322,2.46281c-1.74796,-1.02348 -1.49596,-2.9524 -1.51443,-4.49335c-0.4068,-3.50726 -6.86464,-10.441 -4.78906,-13.0129c0.98535,-1.22099 5.08987,-1.86791 6.61562,-2.31555c4.2523,-1.24757 8.3909,-2.8496 12.69842,-3.92574z" fill="#465c83" stroke="none" stroke-linecap="butt"></path><path d="M135.3571,169.61893c2.7895,-1.67656 6.50784,-1.36316 9.68514,-2.11791c2.93231,-0.69654 6.12206,-1.89103 9.35305,-2.88039c1.52993,-2.09871 6.99124,-1.65457 9.43274,-1.88917l-0.02173,-0.21724l1.33584,-0.13358c1.0785,-1.7168 3.3873,-1.80688 4.50162,-0.97162c0.38544,-0.28889 0.82358,-0.49844 1.30325,-0.6656c0.08468,-0.13109 0.17564,-0.25772 0.2733,-0.37957c1.718,-2.14341 4.80759,-1.51466 7.1894,-1.90957c3.47348,-0.57591 6.68295,-2.24408 10.09463,-3.01055c1.91583,-0.23815 3.81524,-0.12056 5.72767,-0.36327l1.39614,-0.17452c0.0598,-0.00836 0.12087,-0.01269 0.18297,-0.01269c0.72346,0 1.30993,0.58648 1.30993,1.30993c0,0.67436 -0.50959,1.22972 -1.1647,1.30197l-1.39939,0.17493c-0.11594,0.0143 -0.23181,0.02725 -0.34764,0.03901c-0.62833,0.82192 -2.11255,0.66833 -3.59948,1.0015c-4.97708,1.11518 -9.9099,2.08685 -14.77439,3.51475c-0.46339,0.13601 -1.80623,0.34778 -2.99931,0.63207c-1.12302,3.05311 0.22984,8.5044 -0.35466,11.47778c0,0 -0.25689,1.2845 -1.54139,1.02761c-1.2845,-0.25689 -1.0276,-1.5414 -1.0276,-1.5414c0.38813,-1.90293 0.0814,-4.45862 -0.00985,-6.93866c-0.04028,0.00373 -0.08106,0.00565 -0.1223,0.00565c-0.50188,0 -0.93782,-0.28224 -1.15779,-0.69665l-0.8727,-1.57085l0.38944,-0.21635c-0.21474,-0.44355 -0.30756,-0.9058 -0.19294,-1.37747c0.08982,-0.36966 -0.59879,0.54899 -0.67223,0.92226c-0.20815,1.0579 0.27405,2.14469 0.27455,3.22286c0.00107,2.4059 1.21913,7.47908 0.23049,9.58671c-1.38646,2.95569 -6.44561,3.11967 -9.0948,3.69747c-0.76222,0.16625 -1.61899,1.08307 -2.25404,0.62994c-0.81491,-0.58147 -0.5901,-1.91326 -0.88516,-2.86988c-0.00263,-3.25185 0.34072,-6.61094 -0.6468,-9.75699c-0.10921,-0.3479 -0.28473,-0.70792 -0.45159,-1.07831c-3.54952,0.92915 -7.01633,2.26692 -10.60378,3.02065c-2.29817,0.48284 -5.42871,0.11509 -7.3007,1.55504l-0.93847,0.24399c0,0 -1.30993,0 -1.30993,-1.30993c0,-0.9464 0.68375,-1.20906 1.06327,-1.28194z" fill="#9bb3c1" stroke="none" stroke-linecap="butt"></path><path d="M185.1863,171.25503l-0.17709,-14.69767" fill="none" stroke="#000000" stroke-linecap="round"></path><path d="M189.43622,170.54671l-0.17708,-15.05183" fill="none" stroke="#000000" stroke-linecap="round"></path><path d="M193.15492,169.13008l0.70832,-15.05184" fill="none" stroke="#000000" stroke-linecap="round"></path><path d="M183.06132,156.20321l-0.53124,-2.47912l9.73942,-1.94788l0.35416,2.12497z" fill="#373142" stroke="#000000" stroke-linecap="round"></path><path d="M133.65589,169.66131l-1.7708,-4.6041l7.61446,-1.06249l5.66657,-1.94788l5.13534,-0.70831l4.78116,1.7708z" fill="#373142" stroke="#000000" stroke-linecap="round"></path><path d="M172.29685,175.85428c-0.32433,-0.81083 0.4865,-1.13516 0.4865,-1.13516l0.97467,-0.36813c0.31756,-0.05292 0.63513,-0.10586 0.95269,-0.15878c0,0 0.86141,-0.14356 1.00498,0.71785c0.14356,0.86141 -0.71785,1.00499 -0.71785,1.00499c-0.31756,0.05292 -0.63513,0.10585 -0.95269,0.15878l-0.61314,0.26698c0,0 -0.81083,0.32434 -1.13517,-0.48649z" fill="#313b48" stroke="none" stroke-linecap="butt"></path><path d="M159.84954,163.93897c0,-0.8733 0.8733,-0.8733 0.8733,-0.8733l-0.07299,0.0922c3.28822,-1.64278 6.76483,-3.55123 10.55248,-3.58535c0,0 0.87329,0 0.87329,0.87329c0,0.8733 -0.87329,0.8733 -0.87329,0.8733c-3.4694,-0.04027 -6.77678,1.90251 -9.77138,3.40097l-0.70811,0.0922c0,0 -0.8733,0 -0.8733,-0.8733z" fill="#9bb3c1" stroke="none" stroke-linecap="butt"></path><path d="M136.59757,183.80637h0.2553v1.4555c0,0.4823 -0.39099,0.87329 -0.8733,0.87329c-0.36306,0 -0.67437,-0.22154 -0.80612,-0.53683l-0.08482,-0.19085c-3.67419,0.27784 -6.4878,-8.14882 -4.35986,-11.23627c0.57894,-0.83998 2.06565,-1.41557 3.04301,-0.88654c1.20424,0.65185 1.09912,2.65508 2.13078,3.6807c1.61611,2.03382 1.00305,3.28336 0.59604,5.00827c0.09038,0.57547 0.13898,1.16548 0.09897,1.83273z" fill="#000000" stroke="none" stroke-linecap="butt"></path><path d="M132.35965,185.82156h0.11643c1.58604,0.00805 3.311,0.50936 4.87291,1.12992l0.0094,-0.07523l0.55631,0.06954c-0.14639,-0.55517 0.0851,-0.88419 0.35118,-1.97645c0,0 0.2118,-0.84721 1.05902,-0.6354c0.84722,0.21181 0.6354,1.05901 0.6354,1.05901c-0.67131,2.62993 -0.45787,4.17827 -3.95303,5.0724l-0.06052,-0.01407l0.0025,0.02251l-1.03534,0.11504c-0.03573,0.00446 -0.07211,0.00674 -0.10905,0.00674c-0.4823,0 -0.87329,-0.39099 -0.87329,-0.87329c0,-0.33066 0.18375,-0.6184 0.45473,-0.76665l0.80035,-0.45735l0.05999,0.10498c0.09183,-0.07871 0.18507,-0.15287 0.28223,-0.22452c-1.07969,-0.27376 -2.36785,-0.81485 -3.05278,-0.81059h-0.11643c0,0 -0.87329,0 -0.87329,-0.8733c0,-0.8733 0.87329,-0.87329 0.87329,-0.87329z" fill="#373142" stroke="none" stroke-linecap="butt"></path><path d="M129.58377,170.71474l-0.12979,0.38969c2.34696,-0.99775 5.44979,-0.98355 2.87791,2.17683c0,0 -0.55907,0.67086 -1.22995,0.11181c-0.49497,-0.41247 -0.32044,-0.88581 -0.19488,-1.10567c-0.2099,0.14486 -0.46586,0.29296 -0.76507,0.42241l-1.52706,-0.54181c0,0 -0.72661,-0.48442 -0.2422,-1.21104c0.48441,-0.72662 1.21104,-0.24221 1.21104,-0.24221z" fill="#9bb3c1" stroke="none" stroke-linecap="butt"></path><path d="M128.6336,175.1092c-0.4823,0 -0.8733,-0.39099 -0.8733,-0.87329c0,-0.4823 0.391,-0.8733 0.8733,-0.8733c0.4823,0 0.87329,0.39099 0.87329,0.8733c0,0.4823 -0.39099,0.87329 -0.87329,0.87329z" fill="#9bb3c1" stroke="none" stroke-linecap="butt"></path><path d="M130.76346,185.68812c-0.39055,-0.7811 0.39055,-1.17164 0.39055,-1.17164l0.29077,-0.14539c-0.04815,-0.10829 -0.07489,-0.2282 -0.07489,-0.35434c0,-0.4823 0.39099,-0.8733 0.8733,-0.8733c0.4823,0 0.87329,0.39099 0.87329,0.8733c0,0.06372 -0.0068,0.12586 -0.01977,0.1857c0.05798,0.06368 0.11221,0.14231 0.16047,0.23883c0.39055,0.7811 -0.39056,1.17166 -0.39056,1.17166l-0.9315,0.46576c0,0 -0.78109,0.39055 -1.17164,-0.39056z" fill="#9bb3c1" stroke="none" stroke-linecap="butt"></path><path d="M142.25072,187.82953c0.0009,0.01626 0.00136,0.03263 0.00136,0.04912c0,0.4823 -0.39099,0.8733 -0.8733,0.8733c-0.4823,0 -0.87329,-0.39099 -0.87329,-0.8733c0,-0.30336 0.15469,-0.5706 0.38949,-0.72714c-0.0009,-0.01627 -0.00136,-0.03264 -0.00136,-0.04912c0,-0.4823 0.39099,-0.8733 0.8733,-0.8733c0.4823,0 0.8733,0.39099 0.8733,0.8733c0,0.30337 -0.15469,0.5706 -0.38949,0.72714z" fill="#313b48" stroke="none" stroke-linecap="butt"></path><path d="M198.29025,156.38029l0.70833,6.37489l-4.24993,6.19781l-9.0311,2.83329l-37.89519,14.52059l-11.68731,5.31241l-4.95825,-2.30204l-3.71869,-6.55198l-0.70832,-7.96861l1.41665,-4.42701l4.60409,-0.53124l23.72877,-6.72906l16.99971,-4.60408l16.99972,-3.36453l6.55198,-1.06248z" fill="none" stroke="#000000" stroke-linecap="round"></path><path d="M135.51869,190.50159l-2.7169,-0.97032l-5.04569,-7.37446l-0.38814,-6.40413l0.77626,-5.82194l4.07536,-1.35844l6.79227,6.79225l1.16438,12.80828z" fill="none" stroke="#000000" stroke-linecap="round"></path></g></g><g><path d="M303.22941,195.9309c1.08085,0.07321 1.96996,1.08042 1.91685,1.86457c-0.05311,0.78414 -4.99809,5.01987 -6.07894,4.94667c-0.58021,-0.0393 -3.02754,12.09837 -3.36728,11.49489c-0.06916,-0.12284 -2.68482,-0.36297 -2.57426,-1.56573c0.35811,-3.8957 4.05788,-12.28367 4.07668,-12.56121c0.00632,-0.09338 -2.85765,3.71168 -6.15936,4.67953c-6.03198,1.76818 -14.36467,1.52749 -13.85748,1.11723c0.4608,-0.37276 -4.10556,-0.78089 -2.83492,-7.23609c0.42226,-2.14521 3.00332,-9.4874 6.83551,-11.54336c4.82345,-2.58776 11.00177,-0.26588 12.6709,-0.87284c3.57782,-1.30103 7.0625,3.5949 8.57226,6.71349c0.85602,1.76821 0.68135,2.95482 0.80006,2.96286z" fill="#516087" stroke="none" stroke-width="0" stroke-linecap="butt"></path><path d="M280.41071,193.61441c0.69937,0.04737 1.20698,0.96197 1.13378,2.04282c-0.07321,1.08085 -0.6995,1.91866 -1.39888,1.87129c-0.69937,-0.04737 -1.20698,-0.96197 -1.13378,-2.04283c0.07321,-1.08085 0.69951,-1.91865 1.39888,-1.87128z" fill="#9ec6c6" stroke="none" stroke-width="0" stroke-linecap="butt"></path><path d="M296.88767,200.20445c0.50412,0.03414 1.05938,0.56844 1.55409,1.00294c0.50357,0.44228 0.94401,0.78673 1.1608,1.03132c0.76081,0.85843 -1.66338,4.3591 -2.68065,4.2902c-0.68895,-0.04666 -2.41854,-0.68176 -2.5701,-1.78164c-0.02058,-0.14937 -0.88291,3.33549 -1.19697,6.15578c-0.17654,1.58532 1.16375,3.36809 -0.35848,3.18195c-0.81913,-0.10017 -2.09155,0.92395 -3.62561,1.01152c-2.18486,0.12471 -4.80141,-0.77141 -6.54686,-1.99499c-1.44771,-1.01485 -4.32868,-2.17946 -5.36974,-3.59684c-2.49506,-3.39692 -2.16634,-7.30731 -2.16634,-7.30731c0,0 1.99715,2.05934 7.26837,1.55703c1.75207,-0.16696 7.35754,-1.20366 11.03338,-3.99751c4.72629,-3.59226 7.60477,-9.0881 7.60477,-9.0881c0,0 2.89176,2.32401 2.16178,3.97948c-0.58634,1.3297 -2.26117,2.3273 -3.62784,3.34695c-1.50734,1.12459 -2.68515,2.2062 -2.64056,2.20922z" fill="#393b47" stroke="none" stroke-width="0" stroke-linecap="butt"></path><path d="M296.9073,212.73925c0,0 -1.44471,-1.16668 -2.07289,-1.68977c-0.47471,-0.39529 -1.36644,-1.17419 -1.36644,-1.17419l1.52789,-5.91026c0,0 1.07759,0.37178 1.51726,0.77104c0.49739,0.45168 1.31538,1.80126 1.31538,1.80126z" fill="#9ec6c6" stroke="none" stroke-width="0" stroke-linecap="butt"></path><path d="M332.29558,216.51429c0.99872,0.06764 1.98316,1.24123 1.90152,2.44659c-0.08164,1.20536 -4.49568,6.27304 -5.4944,6.20539c-0.99872,-0.06764 -31.78724,-15.3934 -31.7056,-16.59876c0.01121,-0.16546 3.42155,-7.8145 4.54502,-7.6421c7.06087,1.08345 29.89182,15.53052 30.75346,15.58888z" fill="#2e2230" stroke="none" stroke-width="0" stroke-linecap="butt"></path><path d="M304.70744,200.23778c0.50481,0.03419 4.77363,-5.57662 5.70149,-5.52455c1.45641,0.08174 3.45782,-0.46432 5.17512,0.19702c2.21805,0.85418 2.16023,2.5942 4.00558,4.12343c1.37725,1.14133 3.43465,1.53735 4.8155,2.5745c1.33472,1.00251 2.01763,2.65209 1.96583,3.41698c-0.06193,0.91439 5.196,3.67685 5.89483,7.22876c0.43016,2.18637 -3.71901,11.16243 -4.24227,12.95192c-0.56828,1.94348 -5.82149,1.83282 -6.43289,2.87926c-1.12163,1.91972 -1.89302,-3.35382 -3.09063,-2.30752c-0.80155,0.70028 -1.47221,1.22895 -2.19665,1.17989c-0.74054,-0.05016 -3.09257,0.95028 -3.61047,0.13003c-0.36282,-0.57464 -3.81944,6.95931 -4.00527,6.06206c-0.24727,-1.19394 -4.76122,0.47843 -4.44832,-1.89214c0.12614,-0.95568 -2.7639,-3.64094 -2.41284,-4.81703c2.01158,-6.73908 10.17544,-14.58966 10.28734,-16.24184c0.26825,-3.96048 -11.22904,-10.21968 -7.40632,-9.96076z" fill="#2e00e3" stroke="none" stroke-width="0" stroke-linecap="butt"></path><path d="M312.19551,199.74266c1.86295,0.721 3.71126,2.56797 3.70506,5.37555c-0.00372,1.68597 -0.70906,3.05979 -1.53504,4.91426c-0.65067,1.46087 -1.34491,3.45982 -2.04434,4.50249c-0.4465,0.66562 6.45624,-8.84971 8.97332,-0.60605c0.3381,1.10733 -0.98343,5.44897 -2.32615,8.67611c-0.18506,0.44479 -0.37164,0.86228 -0.55394,1.24928c-0.17759,0.37701 -1.26072,1.91636 -0.94681,2.26498c0.08267,0.09181 1.11126,-0.35559 2.35855,-2.08333c1.53266,-2.12306 -1.04488,3.33184 0.83257,2.37471c6.52998,-3.329 4.99934,-10.24378 4.95693,-10.49252c-0.10483,-0.61476 -1.65741,-5.96366 -4.18952,5.57071c-0.76525,3.48587 -4.68044,5.43216 -4.70011,5.47116c-0.2539,0.50332 -4.76528,0.12204 -5.88842,-0.61793c-2.45474,-1.61727 -2.44804,-4.93103 -3.29573,-4.34834c-0.58908,0.40494 1.40101,2.33827 0.26746,5.5076c-0.69072,1.05121 -1.53244,1.57429 -2.48364,1.42254c-1.46449,-0.23364 -3.07847,-1.84137 -5.11379,-2.80657c-1.88267,-0.8928 -4.68278,-0.30684 -6.02596,-1.48699c-1.55044,-1.36226 -2.11892,-3.57232 -2.09332,-3.69772c0.75548,-3.70043 1.8032,-5.54863 2.91744,-5.91383c0.78349,-0.2568 1.79658,1.0564 1.91214,-0.64981c0.27991,-4.13266 5.85595,-18.27104 15.27331,-14.62632z" fill="#3400ff" stroke="none" stroke-width="0" stroke-linecap="butt"></path><path d="M319.16693,225.5104c0,0 -1.19277,1.23628 -2.30985,1.54745c-1.11708,0.31116 -1.81465,0.47847 -2.93392,0.40266c-1.11927,-0.07581 -1.76705,-0.26028 -2.75305,-0.78784c-0.986,-0.52757 -1.36714,-0.94304 -2.17986,-1.85154c-0.81272,-0.9085 -1.56718,-2.51165 -1.56718,-2.51165c0,0 -1.6158,0.62667 -2.72139,0.71774c-1.10559,0.09107 -1.45343,0.31375 -2.78684,-0.28899c-1.33341,-0.60273 -2.23469,-1.52097 -2.951,-2.30469c-0.71632,-0.78372 -0.95973,-0.95488 -1.24813,-2.28958c-0.4463,-2.06545 -0.19372,-3.69118 0.0656,-5.40793c0.25931,-1.71675 0.31864,-1.90133 1.38806,-4.21584c1.06942,-2.3145 2.0271,-3.9488 3.1923,-5.6973c1.1652,-1.7485 2.28954,-3.0121 3.39025,-4.18046c1.10071,-1.16836 1.7305,-1.89978 3.08934,-2.6974c1.35885,-0.79762 2.43794,-1.08389 3.79966,-1.34631c1.36173,-0.26242 2.30055,-0.53879 3.51227,-0.0628c1.21172,0.47599 1.65549,1.41162 2.34562,2.36391c0.69013,0.95229 0.8154,2.18671 1.32087,2.69542c0.50547,0.50871 0.69982,-0.04565 1.77561,0.42095c1.07579,0.4666 1.66788,0.70858 2.60598,1.47948c0.9381,0.77091 1.61467,1.6181 2.0463,2.34364c0.43164,0.72554 -0.18934,0.88362 0.56325,2.04273c0.75259,1.15911 1.06725,0.93071 2.43187,2.57021c0.84587,1.01626 2.36341,2.04277 2.93209,3.56407c0.34876,0.93296 0.11559,2.29732 -0.1854,3.23709c-0.7918,2.47217 -1.3296,4.31038 -2.22837,6.26373c-0.89877,1.95335 -1.96369,3.79798 -2.82541,4.71986c-0.86172,0.92188 -1.58936,1.01893 -2.90172,1.40713c-1.31236,0.3882 -2.49134,0.78496 -3.43953,0.46864c-0.94819,-0.31632 -1.4274,-2.60241 -1.4274,-2.60241z" fill="none" stroke="#000000" stroke-width="2" stroke-linecap="round"></path><path d="M314.07265,211.93511c0,0 -2.01912,3.87571 -3.37263,6.38669c-1.65325,3.06704 -3.45677,4.17595 -3.45677,4.17595" fill="none" stroke="#000000" stroke-width="2" stroke-linecap="round"></path><path d="M322.66849,216.72694c0,0 -1.02988,3.54401 -1.65823,5.10432c-0.57111,1.41818 -1.95661,3.87192 -1.95661,3.87192" fill="none" stroke="#000000" stroke-width="2" stroke-linecap="round"></path><path d="M311.38995,227.0057c0,0 0.05807,1.01793 -0.24168,2.08844c-0.29976,1.07051 -0.4577,2.10163 -0.86055,2.8021c-0.40286,0.70047 -0.55925,1.01433 -1.52522,1.34616c-0.96597,0.33183 -1.70034,0.16383 -2.59406,-0.1757c-0.89372,-0.33953 -1.16653,-0.69097 -1.90082,-1.53195c-0.73429,-0.84098 -1.14257,-1.40084 -1.69939,-2.34326c-0.61112,-1.03435 -0.86111,-1.75107 -1.55201,-2.35642c-0.69089,-0.60534 -0.83383,-0.81126 -2.56953,-1.10694c-1.7357,-0.29568 -2.68392,-0.03551 -3.58501,-0.34305c-0.81004,-0.27646 -1.22994,-0.95379 -1.78078,-1.82451c-0.55084,-0.87071 -0.8247,-1.5337 -0.9353,-2.46885c-0.1106,-0.93515 0.09794,-1.56486 0.36173,-2.381c0.26378,-0.81614 0.44434,-1.12069 1.0331,-1.93461c0.58876,-0.81392 0.96828,-1.40585 1.7315,-1.88731c0.76321,-0.48146 2.22964,-0.70479 2.22964,-0.70479" fill="none" stroke="#000000" stroke-width="2" stroke-linecap="round"></path><path d="M332.07866,216.27312c0,0 1.43441,0.50596 1.84071,1.28117c0.4063,0.77521 0.1679,1.72508 0.00275,2.23607c-0.16516,0.51099 -0.94599,1.96804 -1.82481,3.03748c-0.87883,1.06943 -1.58781,1.72087 -2.79654,2.58616c-1.20874,0.8653 -2.71336,1.35821 -2.71336,1.35821" fill="none" stroke="#000000" stroke-width="2" stroke-linecap="round"></path><path d="M296.59851,213.74387c0,0 0.09331,-2.38594 0.36332,-3.88433c0.27001,-1.4984 0.33735,-2.0963 0.82839,-3.35168c0.49104,-1.25538 0.98941,-2.37565 1.95966,-3.77621c0.97025,-1.40056 1.38949,-1.65061 2.57021,-2.43187c1.18073,-0.78127 3.20104,-1.38686 3.20104,-1.38686" fill="none" stroke="#000000" stroke-width="2" stroke-linecap="round"></path><path d="M294.72153,214.81953c0,0 -1.04801,-0.51281 -1.22269,-1.18533c-0.17468,-0.67253 -0.54334,-3.02262 -0.2675,-4.92934c0.27584,-1.90673 0.86863,-3.47038 1.875,-5.48583c1.00637,-2.01545 1.56697,-2.88983 3.10445,-4.40027c1.53748,-1.51045 2.02351,-1.68172 3.56793,-2.3643c1.54443,-0.68257 2.34205,-0.54297 2.34205,-0.54297c0,0 0.75995,0.74567 1.00013,1.15484c0.20275,0.34541 0.34778,1.14149 0.34778,1.14149" fill="none" stroke="#000000" stroke-width="2" stroke-linecap="round"></path><path d="M293.56482,214.13981c0,0 -1.5364,0.71424 -2.66839,0.92179c-1.13199,0.20755 -2.02504,0.28209 -3.31949,0.17608c-1.29445,-0.10601 -2.37458,-0.18212 -3.75753,-0.75565c-1.38294,-0.57353 -2.61569,-1.29546 -4.04173,-2.47879c-1.42604,-1.18333 -2.45622,-2.02049 -3.45503,-3.74203c-0.99881,-1.72154 -1.28396,-3.12224 -1.75056,-5.23025c-0.46661,-2.10801 -0.51695,-2.52124 -0.32157,-4.13117c0.19538,-1.60994 0.58534,-3.28579 1.45564,-5.21355c0.8703,-1.92776 1.3817,-2.5883 2.67158,-3.92844c1.28988,-1.34015 2.29195,-2.26444 4.12084,-3.12868c1.82889,-0.86424 2.86421,-0.97466 4.78386,-1.07919c1.91965,-0.10454 3.60149,0.14396 5.87976,0.49847c2.27826,0.35451 2.17966,0.26007 3.38719,0.79739c1.20754,0.53731 2.27459,1.18106 3.52088,2.27646c1.24629,1.09541 1.56108,1.85352 2.39133,3.16884c0.83024,1.31532 1.77243,3.42761 1.77243,3.42761" fill="none" stroke="#000000" stroke-width="2" stroke-linecap="round"></path><path d="M292.60633,210.53346c0,0 -1.54261,0.53772 -2.65713,0.7555c-1.11451,0.21778 -1.88768,0.30061 -3.23323,0.38238c-1.34555,0.08177 -2.05997,-0.00632 -3.12166,-0.27826c-1.06169,-0.27193 -1.46406,-0.47386 -2.39796,-1.09788c-0.9339,-0.62404 -1.26472,-0.9422 -1.99384,-1.63848c-0.72911,-0.69628 -1.83506,-1.75071 -2.96571,-3.07411c-1.13065,-1.32339 -1.61171,-2.34761 -1.61171,-2.34761" fill="none" stroke="#000000" stroke-width="1.5" stroke-linecap="round"></path><path d="M292.87956,207.97938c0,0 -1.09174,0.10466 -2.20469,0.1381c-0.74648,0.02243 -1.40143,0.04972 -1.95074,0.04819c-1.36828,-0.0038 -2.25545,-0.05371 -3.48975,-0.26977c-1.2343,-0.21606 -1.70107,-0.23204 -3.10988,-0.94565c-1.40881,-0.7136 -1.52201,-0.60585 -3.35685,-2.23195c-1.83485,-1.62609 -4.35641,-4.73855 -4.35641,-4.73855" fill="none" stroke="#000000" stroke-width="1.5" stroke-linecap="round"></path><path d="M294.22707,204.36222c0,0 -1.39154,0.2088 -3.10868,0.02331c-1.71714,-0.18549 -2.78395,-0.33677 -4.3539,-0.82945c-1.56996,-0.49268 -2.5759,-1.01595 -3.85849,-1.73137c-1.28258,-0.71542 -1.32555,-0.75009 -3.0998,-2.0809c-1.77425,-1.33081 -4.59876,-4.12019 -4.59876,-4.12019" fill="none" stroke="#000000" stroke-width="1.5" stroke-linecap="round"></path><path d="M277.16312,191.4128c0,0 1.47059,0.35221 2.99857,0.93406c0.92643,0.35278 1.82619,0.87125 2.56901,1.21376c1.96798,0.90741 2.66187,1.36736 4.38331,2.36829c1.72144,1.00093 2.52194,1.3757 4.01524,2.37677c0.548,0.36736 1.38802,0.95687 2.06923,1.46041c1.17509,0.86859 2.12249,1.76355 2.12249,1.76355" fill="none" stroke="#000000" stroke-width="1.5" stroke-linecap="round"></path><path d="M281.6311,187.10491c0,0 2.7707,0.54214 4.37139,1.06451c1.60069,0.52236 2.60657,0.92859 4.08228,1.88016c1.47571,0.95157 2.66267,1.87454 4.08068,3.38349c0.58304,0.62043 1.48225,1.46424 2.17179,2.38891c0.98749,1.32422 1.69424,2.68394 1.69424,2.68394" fill="none" stroke="#000000" stroke-width="1.5" stroke-linecap="round"></path><path d="M290.16059,185.47755c0,0 3.69079,1.70372 5.62628,3.25431c1.93549,1.55058 2.29912,2.30022 3.43475,4.04135c1.13563,1.74112 1.83165,4.033 1.83165,4.033" fill="none" stroke="#000000" stroke-width="1.5" stroke-linecap="round"></path><path d="M277.83287,210.13419c0,0 -0.06612,-1.17443 -0.13209,-2.98241c-0.06597,-1.80798 -0.34949,-1.8898 -0.18801,-4.62327c0.16149,-2.73348 0.39151,-5.02443 0.87212,-6.95697c0.48061,-1.93254 1.06755,-3.23263 2.02048,-4.67415c0.95293,-1.44152 1.11585,-1.85951 3.11637,-3.09649c2.00052,-1.23698 5.35705,-2.14289 5.35705,-2.14289" fill="none" stroke="#000000" stroke-width="1.5" stroke-linecap="round"></path><path d="M282.27714,213.57571c0,0 -0.60261,-3.88283 -0.85778,-6.57299c-0.25517,-2.69016 -0.11469,-2.74613 0.00478,-4.50999c0.11947,-1.76386 0.21527,-2.70871 0.72968,-4.36066c0.51442,-1.65194 0.93439,-2.72455 1.89368,-4.28182c0.95929,-1.55727 1.2897,-2.01997 2.47773,-3.03951c1.18803,-1.01954 2.17307,-1.53928 3.6677,-2.35754c1.49463,-0.81826 5.175,-1.92135 5.175,-1.92135" fill="none" stroke="#000000" stroke-width="1.5" stroke-linecap="round"></path><path d="M290.73067,214.54922c0,0 -0.55293,-0.52524 -0.99959,-1.20618c-0.39165,-0.59708 -0.6661,-1.31149 -0.89288,-1.92888c-0.48542,-1.32149 -0.61697,-1.7393 -0.56165,-3.54606c0.05532,-1.80676 0.25885,-2.58845 0.80971,-4.5557c0.55086,-1.96724 0.82974,-3.24588 1.83445,-4.88721c1.00471,-1.64133 1.91536,-2.74155 3.3497,-3.58183c1.43434,-0.84027 2.20487,-0.77726 4.16496,-0.82042c1.96009,-0.04316 3.28068,1.76755 4.76875,0.62368" fill="none" stroke="#000000" stroke-width="1.5" stroke-linecap="round"></path></g></g></g></svg>