<svg version="1.1" xmlns="http://www.w3.org/2000/svg" xmlns:xlink="http://www.w3.org/1999/xlink" width="219.43752" height="196.3198" viewBox="0,0,219.43752,196.3198"><g transform="translate(-153.3972,-98.19947)"><g data-paper-data="{&quot;isPaintingLayer&quot;:true}" fill-rule="nonzero" stroke-linejoin="miter" stroke-miterlimit="10" stroke-dasharray="" stroke-dashoffset="0" style="mix-blend-mode: normal"><path d="M247.85926,253.24894l-24.17618,-32.76559c0,0 14.76299,-29.8234 25.19122,-45.20382c13.16226,-19.41272 47.50722,-62.01776 47.50722,-62.01776c0,0 -8.9272,25.81234 -13.91322,46.5116c-1.45539,6.04198 -2.57498,11.64834 -3.03872,16.04993c-1.90361,18.06808 5.05004,50.40519 5.05004,50.40519z" fill="#3300ff" stroke="#000000" stroke-width="3" stroke-linecap="butt"></path><g><g><path d="M234.29889,102.55782c0.11284,-0.0002 0.21637,0.01055 0.31131,0.0303c0.54696,-0.9309 1.55924,-0.44216 1.55924,-0.44216c1.59618,0.77069 7.2083,2.58364 7.76086,4.60959c0.32525,1.1925 -1.17512,3.1994 -1.7522,4.08521c-1.9172,2.94277 -6.60584,6.66618 -2.46307,9.87192c0.77502,0.59973 1.56786,1.17316 2.3882,1.68795c1.2931,1.1322 5.16981,3.48985 5.58513,5.33313c0.91297,4.052 -5.05218,7.08355 -6.50473,10.19765c0.12318,0.39021 0.24724,0.78069 0.37208,1.17154c0.47681,0.28903 1.11374,0.46174 1.21467,0.50271c2.77922,1.12839 4.85678,3.61972 7.59318,4.9365c0.57832,0.27948 3.17436,1.4769 3.35016,1.87972c0.63352,1.45169 -0.4165,3.24085 -0.95755,4.39538c-1.32004,2.81678 -2.53997,5.53926 -3.58153,8.46707l-0.47059,0.66567c0,0 -0.10947,0.10603 -0.2881,0.20481c0.2691,0.81922 0.53108,1.27258 0.79497,2.09371c0.07195,0.12133 0.15376,0.59941 0.23612,0.69849c0.66649,0.80191 1.55275,-0.5271 2.76205,-0.36984c1.44954,0.18849 3.50777,1.2068 5.24946,1.77986c1.42089,0.4675 2.62781,0.39345 3.14891,1.34839c1.39689,2.55983 -3.55826,9.22598 -5.09415,11.19621c-0.59848,0.76773 -0.98713,2.21846 -1.91146,2.18141c-0.92165,-0.03693 -1.26537,-1.55607 -1.89806,-2.3341c-5.62162,-10.92378 -8.79758,-23.96936 -12.35266,-35.89219c-0.01852,-0.05764 -0.03702,-0.11528 -0.05554,-0.17289c-0.59541,-0.72574 -0.93556,-1.59544 -0.86554,-2.732c-1.90095,-6.08755 -3.58198,-12.12411 -4.78886,-18.46499l-0.02841,-0.64228c-0.10096,-0.20372 -0.14048,-0.36716 -0.14048,-0.36716c-1.13909,-4.71532 -0.89265,-8.47945 -0.38393,-13.19161l-0.05683,-1.2459c0,0 -0.04824,-1.48 1.26734,-1.4821z" fill="#fffae6" stroke="none" stroke-width="0.5" stroke-linecap="butt"></path><path d="M233.4075,101.15721l10.8443,5.43578l-7.89759,11.98831l12.351,8.88678l-8.10456,11.20249l14.90188,7.79448l-6.83368,14.89253l13.15935,4.58255l-6.27559,11.33981" fill="none" stroke="#000000" stroke-width="2" stroke-linecap="round"></path></g><g><path d="M254.11639,193.89562c0.03167,-0.10831 0.07007,-0.20486 0.11378,-0.29091c-0.64266,-0.76268 0.06141,-1.60885 0.06141,-1.60885c1.1102,-1.33429 4.24576,-6.25479 6.13615,-6.26705c1.11271,-0.00721 2.40756,1.94513 3.0031,2.72515c1.97849,2.59141 3.8433,8.04112 7.75673,4.8862c0.73213,-0.59022 1.44676,-1.20423 2.11893,-1.85962c1.33417,-0.95113 4.44644,-4.06758 6.14173,-3.99484c3.72665,0.15986 4.63898,6.65732 6.89524,8.84678c0.36883,-0.01843 0.73813,-0.03762 1.10797,-0.0575c0.38197,-0.38354 0.70954,-0.95043 0.77311,-1.03678c1.75021,-2.37781 4.4693,-3.73406 6.36871,-6.02262c0.40245,-0.48337 2.16007,-2.66779 2.55452,-2.73347c1.42158,-0.23672 2.65708,1.22793 3.49287,2.04208c2.03908,1.98637 4.02569,3.85254 6.23841,5.60011l0.43712,0.62159c0,0 0.0599,0.13213 0.09408,0.32875c0.7773,-0.04877 1.23935,-0.18423 2.0168,-0.22749c0.12418,-0.03801 0.55656,0.0057 0.66463,-0.04799c0.8746,-0.43441 -0.01315,-1.62434 0.46267,-2.74426c0.57037,-1.34241 2.0229,-3.05667 3.00493,-4.58106c0.80114,-1.2436 1.07828,-2.42039 2.04285,-2.6762c2.58571,-0.68578 6.89472,5.77178 8.14813,7.74879c0.48842,0.77038 1.62078,1.51403 1.32826,2.39129c-0.29167,0.87473 -1.68922,0.81618 -2.53383,1.22429c-10.93836,2.60087 -23.0032,2.31317 -34.21382,2.67617c-0.05458,0.00303 -0.10913,0.00606 -0.16369,0.00908c-0.78933,0.38569 -1.62989,0.48972 -2.58317,0.13203c-5.7481,0.26765 -11.39051,0.33734 -17.15967,-0.12559l-0.5579,-0.13691c-0.20289,0.04478 -0.35397,0.04091 -0.35397,0.04091c-4.35833,-0.11248 -7.5114,-1.31103 -11.40209,-3.0035l-1.0827,-0.26394c0,0 -1.28068,-0.33203 -0.91128,-1.59464z" fill="#fffae6" stroke="none" stroke-width="0.5" stroke-linecap="butt"></path><path d="M252.66581,194.39276l7.71347,-9.01393l8.03529,10.64069l11.09311,-9.57726l7.30413,10.6384l10.87768,-12.30363l10.82186,10.3624l7.63619,-11.45292l7.93773,8.91891" fill="none" stroke="#000000" stroke-width="2" stroke-linecap="round"></path></g><g><g><path d="M238.19269,188.05273l12.83335,-7.05835l-0.64167,-10.90836l3.67894,22.95811c-0.35856,0.77852 -0.6764,1.48818 -0.94823,2.12022c0,0 22.36229,2.46553 30.77443,2.71757c12.35122,0.37001 36.93228,-1.45877 36.93228,-1.45877l-0.00003,0.00005l-0.90518,17.12542l-0.35561,18.34889c0,0 0.05315,6.19094 -1.54101,10.64238c-1.59414,4.45142 -2.10945,5.06464 -4.5044,6.23862c-2.39497,1.17399 -5.56298,1.72679 -9.24592,2.20185c-3.68292,0.47509 -6.53371,0.91167 -10.66838,0.36698c-4.13464,-0.54469 -4.47893,-0.49045 -6.0454,-2.56884c-1.56646,-2.07839 -1.42245,-7.33955 -1.42245,-7.33955v-10.64238l-7.11224,0.36698l-1.42244,5.50467c0,0 -1.28399,9.25958 -3.55612,14.67913c-1.38108,3.29424 -1.91359,4.35352 -4.26735,5.87163c-2.35374,1.51812 -5.8957,2.88368 -9.95715,3.30281c-4.06146,0.41914 -6.27994,0.35084 -11.37959,-1.10095c-5.09964,-1.45178 -5.66609,-1.48588 -8.17908,-4.77071c-2.51297,-3.28485 -2.48928,-9.17444 -2.48928,-9.17444l-0.71123,-26.05547l-0.3961,-23.5874z" fill="#2d00e3" stroke="#000000" stroke-width="3" stroke-linecap="round"></path><path d="M319.38019,240.24106c0,2.19686 -5.29713,14.10405 -27.7996,9.49907c-7.64129,-1.56372 -4.6563,-20.79944 -4.6563,-20.79944c0,0 -2.45083,0.91813 -4.84137,1.16331c-1.70824,0.17518 -3.52491,-0.85525 -3.75711,1.13657c-0.76528,6.56487 -2.86087,12.88759 -4.87618,17.96783c-2.83744,7.15263 -8.97645,11.43666 -13.24334,11.43666c-2.44798,0 -15.83622,-1.60287 -19.94054,-6.18451c-4.7476,-5.29973 -0.34271,-13.69206 -4.77036,-13.84314c-3.72825,-0.12722 -8.63141,0.33325 -11.36695,-2.3236c-4.90713,-4.76593 -5.4576,-23.93574 -5.4576,-30.93396c0,-1.25022 -0.0084,-2.90095 -0.00163,-4.83104c0.00477,-1.35646 -1.81899,-1.96913 -3.27192,-2.90441c1.16971,-0.35267 2.35217,-0.65653 3.55438,-0.88501c11.56648,-2.19824 23.37821,-3.56772 35.01047,-5.67686c-0.05074,1.1432 -0.05405,1.79226 -0.05405,1.79226c0,0 -0.84082,0.19826 4.644,0.66096c9.56135,0.8066 18.90713,2.30943 28.52451,2.30943c6.65909,0 13.32924,-0.18236 19.96908,-0.57702c3.87038,8.29858 7.41531,15.49786 10.32723,20.42918c3.87541,6.563 2.00736,18.29924 2.00736,22.56376z" fill="#2d00e3" stroke="none" stroke-width="0" stroke-linecap="butt"></path><path d="M318.69649,234.18593c-0.71564,2.37883 -9.97551,11.01851 -15.74299,4.9779c-7.76767,-8.13545 7.5622,-14.35685 7.5622,-14.35685c0,0 -5.73088,0.80754 -10.80781,1.38229c-2.04327,0.2313 -4.21903,0.17886 -5.50499,0.40029c-22.19294,3.82139 -35.27331,-13.24215 -40.81512,-29.97332c1.62089,0.21141 3.23759,0.4089 4.84544,0.54454c9.56135,0.8066 19.22597,0.66441 28.84333,0.66441c8.66971,0 17.35811,-0.3091 25.97399,-0.9934c2.43735,-0.19359 4.93273,-0.21263 7.40208,-0.38207c0.20733,13.1687 0.23801,31.10766 -1.75609,37.73622z" fill="#3300ff" stroke="#000000" stroke-width="0" stroke-linecap="butt"></path><path d="M284.71104,231.77518c-1.24813,-0.56092 -3.91173,-2.6912 -3.91173,-2.6912c0,0 4.05961,-1.22472 6.3036,-1.56361c2.5713,-0.3883 9.69891,-0.51593 9.69891,-0.51593l-8.65323,5.3823c0,0 -2.18946,-0.0507 -3.43758,-0.61162z" fill="#000000" stroke="none" stroke-width="0" stroke-linecap="butt"></path><path d="M237.61977,187.47982l12.83335,-7.05835l-0.64167,-10.90836l3.67894,22.95811c-0.35856,0.77852 -0.6764,1.48818 -0.94823,2.12022c0,0 22.36229,2.46553 30.77443,2.71757c12.35122,0.37001 36.93228,-1.45877 36.93228,-1.45877l-0.00003,0.00005l-0.90518,17.12542l-0.35561,18.34889c0,0 0.05315,6.19094 -1.54101,10.64238c-1.59414,4.45142 -2.10945,5.06464 -4.5044,6.23862c-2.39497,1.17399 -5.56298,1.72679 -9.24592,2.20185c-3.68292,0.47509 -6.53371,0.91167 -10.66838,0.36698c-4.13464,-0.54469 -4.47893,-0.49045 -6.0454,-2.56884c-1.56646,-2.07839 -1.42245,-7.33955 -1.42245,-7.33955v-10.64238l-7.11224,0.36698l-1.42244,5.50467c0,0 -1.28399,9.25958 -3.55612,14.67913c-1.38108,3.29424 -1.91359,4.35352 -4.26735,5.87163c-2.35374,1.51812 -5.8957,2.88368 -9.95715,3.30281c-4.06146,0.41914 -6.27994,0.35084 -11.37959,-1.10095c-5.09964,-1.45178 -5.66609,-1.48588 -8.17908,-4.77071c-2.51297,-3.28485 -2.48928,-9.17444 -2.48928,-9.17444l-0.71123,-26.05547l-0.3961,-23.5874z" fill="none" stroke="#000000" stroke-width="3" stroke-linecap="round"></path></g><g><path d="M208.42581,191.28239c-0.01632,3.68358 1.89661,8.78335 0.47057,10.65531c-0.85999,1.12893 -12.31004,-3.08583 -13.42082,-3.1257c-2.9526,-0.10597 -1.7897,-7.64405 -1.76354,-13.54908c0.01057,-2.38895 2.2231,1.52022 5.09296,2.23748c4.22394,1.05568 9.63637,0.26594 9.6208,3.78202z" fill="#3300ff" stroke="none" stroke-width="0" stroke-linecap="butt"></path><path d="M228.03773,203.67139c-7.60537,-0.11938 -18.84591,3.65548 -22.53942,-2.65539c-0.86342,-1.47529 -13.05374,-10.67138 -11.6196,-16.5632c0.29313,-1.20423 -4.95143,-3.50829 -11.64818,-7.31017c-7.09837,-4.02992 -12.35599,-12.78184 -10.77278,-13.81869c3.59468,-2.35418 25.90598,3.71689 45.29243,-0.79095c13.76441,-3.20058 19.08203,-15.37896 23.6204,-7.14326c3.98213,7.22629 8.97117,13.24308 11.46415,16.05758c-0.9472,1.42444 -2.12544,4.24796 0.68203,7.10942c0.05126,0.05224 0.10253,0.10316 0.15381,0.15278c-7.82046,7.10263 -15.28155,14.45365 -21.12173,23.40933l-0.64784,0.99694c-0.93029,0.24217 -1.9358,0.57017 -2.86326,0.55561z" fill="#2d00e3" stroke="none" stroke-width="0" stroke-linecap="butt"></path><path d="M224.50814,104.25094c1.93274,-0.26927 5.23499,-0.80909 9.27322,-1.45191c0.60954,2.55418 1.02038,5.18956 1.63009,7.66279c2.09688,8.5054 3.84673,17.13208 5.2986,25.78303c1.61145,9.60175 6.73031,17.75335 7.52863,27.40825c0.17661,2.13579 2.66814,3.65729 2.75536,5.83022c-4.64519,2.0173 -14.95949,5.45527 -18.89335,6.00334c-5.93556,0.82695 -15.92108,2.63141 -26.29357,2.36033c-11.88382,-0.31055 -23.84727,-3.7173 -32.0251,-8.99232c-6.20242,-4.00079 -6.69058,-18.52165 -7.36957,-22.56734c-1.20475,-7.17857 5.95431,-18.72666 16.74654,-27.06295c10.30893,-7.96298 32.60717,-13.7556 41.3491,-14.97351z" fill="#3300ff" stroke="#000000" stroke-width="0" stroke-linecap="butt"></path><path d="M243.42411,187.55691l-3.21361,-3.16722l-17.00256,3.84824l-12.97806,0.6983l-12.0977,-2.72774l-12.22365,-5.64713l-6.17478,-4.28329l-8.61418,-7.98319l-3.93825,-10.46713l-1.03975,-12.70462l2.40593,-9.5113l8.14831,-12.14313l8.93061,-7.47919l14.62398,-6.06603l18.41956,-5.12391l15.23873,-2.81781c0,0 2.56922,20.33571 6.77056,33.65009c4.10491,13.0088 8.55017,27.5967 11.35527,35.5295" fill="none" stroke="#000000" stroke-width="3" stroke-linecap="round"></path><path d="M230.86806,203.16648l-5.35434,0.02567c-9.59163,-0.41395 -13.14509,0.48828 -22.96856,-1.40118c-3.76316,-0.72381 -5.60123,-1.7843 -8.2481,-3.24991c-2.64686,-1.46563 -0.99836,-6.30288 -0.99836,-6.30288l1.43074,-7.09874" fill="none" stroke="#000000" stroke-width="3" stroke-linecap="round"></path></g><path d="M236.70932,241.11134c0,0 -6.79869,0.55029 -11.02398,-0.29358c-2.10195,-0.41981 -2.83087,-0.93183 -3.20052,-2.34866c-0.36962,-1.41683 -2.4217,-12.46507 -3.1294,-20.55077c-0.46718,-5.3378 -0.76083,-10.25709 -0.85935,-15.78732l-2.70081,-2.62455" fill="none" stroke="#000000" stroke-width="3" stroke-linecap="round"></path></g></g><g><path d="M203.90086,160.0049c-0.10656,0.23099 -0.32719,0.46687 -0.7838,0.47792c-0.90495,0.02191 -0.92687,-0.88304 -0.92687,-0.88304l-0.00579,-0.23879c-0.01002,-0.07752 -0.01121,-0.14914 -0.00521,-0.2153l-0.00361,-0.1492c-0.06868,-2.83654 0.16657,-5.586 0.09713,-8.45356c-0.1842,-7.60683 -0.52166,-15.20719 0.0596,-22.74927c0.1806,-2.34324 -0.27772,-4.58289 0.13179,-6.92386c-0.14592,-5.34083 -0.85563,-10.60807 -0.99267,-15.88369c-0.02658,-1.02362 -0.5343,-4.51217 0.24848,-5.26802c0.4847,-0.46802 3.57196,0.35795 4.30466,0.3402c1.01803,0.31216 5.14988,-0.98022 7.80576,2.15642c1.1829,1.39704 1.28413,5.3509 2.0403,7.83772c3.71443,12.21565 3.78618,33.20785 2.52432,38.43892c-2.4635,10.21257 -11.34769,10.6558 -14.49412,11.51357z" fill="#6fddfe" stroke="none" stroke-width="0.5" stroke-linecap="butt"></path><path d="M204.22594,160.60572c0,0 -0.74083,0.52022 -1.26102,-0.2206c-0.52022,-0.74083 0.2206,-1.26102 0.2206,-1.26102c5.74309,-3.9763 14.49236,-46.6829 12.8088,-51.5199c0,0 2.88819,48.91405 2.33102,49.01074c-0.14574,0.26069 -0.39962,0.39539 -0.39962,0.39539l-0.36491,0.14104c-2.58685,2.69781 -6.43869,3.97492 -10.07537,3.57903c-0.28144,-0.00647 -0.5697,-0.0136 -0.8691,-0.01644l-0.03863,0.27227l-1.77776,-0.25223c-0.17662,-0.02186 -0.33792,-0.09483 -0.46825,-0.20389c-0.03523,0.0252 -0.07045,0.05039 -0.1057,0.07559z" fill="#1c4ea5" stroke="none" stroke-width="0.5" stroke-linecap="butt"></path><path d="M201.33263,99.25471c0,0 6.56466,0.34633 11.83125,2.71895c3.69088,1.66275 8.05066,52.79109 3.47638,56.06891c-4.57427,3.27783 -14.11191,3.05816 -14.11191,3.05816z" fill="none" stroke="#000000" stroke-width="2" stroke-linecap="round"></path><path d="M203.96262,109.07962c0.09296,-2.74605 0.73909,-5.44538 3.36815,-4.12824c0.89969,0.45073 1.40634,2.26717 1.96962,3.06928c1.08207,2.93324 1.1754,6.10173 0.27621,9.09551c-0.40101,1.33507 -1.48303,3.15818 -3.35774,2.13564c-1.63892,-0.89393 -1.90528,-3.04405 -2.01393,-5.15724c-0.10347,-0.21302 -0.10847,-0.41898 -0.10847,-0.41898l-0.0073,-0.30165c-0.01197,-0.49453 -0.08867,-1.43355 -0.12286,-2.51938c-0.05314,-0.2947 -0.12198,-0.56638 -0.21307,-0.80807c0,0 -0.21344,-0.59211 0.20938,-0.96685z" fill="#ffffff" stroke="none" stroke-width="0.5" stroke-linecap="butt"></path></g><g><g stroke-linecap="round"><path d="M172.88215,176.00218c-6.10955,-10.135 -11.35774,-17.29336 -10.75756,-28.35094c0.60018,-11.05758 3.23552,-25.84236 13.44649,-21.19003c10.21098,4.65232 0.58529,22.68003 2.73247,28.56151c2.14718,5.88149 9.29669,4.53703 11.63669,10.79828c3.54892,9.49604 -4.7382,5.06455 -5.77998,8.31268c-0.88434,2.75723 5.58315,9.0082 -0.07613,9.9458c-2.50725,0.4154 -7.7992,-2.43248 -11.20199,-8.0773z" fill="#fff3df" stroke="none" stroke-width="0"></path><path d="M174.11349,175.04647c-1.82651,-3.02995 12.53486,-4.33305 11.46711,-7.44246c-1.95654,-5.69775 -8.30283,-3.35008 -11.35274,-9.31891c-0.85302,-1.66941 -0.46319,-11.23808 -0.37122,-12.93232c0.60018,-11.05758 -8.49653,-23.54391 1.71444,-18.89158c10.21098,4.65232 0.58529,22.68003 2.73247,28.56151c2.14718,5.88149 9.29669,4.53703 11.63669,10.79828c3.54892,9.49604 -4.7382,5.06455 -5.77998,8.31268c-0.88434,2.75723 5.58315,9.0082 -0.07613,9.9458c-2.50727,0.4154 -5.20319,-0.99437 -8.60597,-6.6392z" fill="#cfa7a7" stroke="none" stroke-width="0"></path><path d="M162.12461,147.65127c0.60018,-11.05757 3.23553,-25.84235 13.44648,-21.19002c10.21098,4.65232 0.5853,22.68001 2.73248,28.56149c2.14718,5.88148 9.29671,4.53702 11.63669,10.79828c3.54892,9.49604 -4.73818,5.06455 -5.77997,8.31268c-0.88434,2.75724 5.58314,9.0082 -0.07613,9.9458c-2.50727,0.4154 -7.79921,-2.43248 -11.202,-8.07729c-6.10955,-10.135 -11.35772,-17.29335 -10.75755,-28.35094z" fill="none" stroke="#000000" stroke-width="4"></path></g><path d="M172.59984,159.38391c1.82378,7.82253 0.55021,17.61175 -5.27568,13.50523c-0.43659,-0.30774 -1.33854,-0.82177 -2.27252,-1.38132c-0.97576,-0.58459 -1.98653,-1.21888 -2.53824,-1.71961c-5.96702,-5.41563 -11.51741,-15.04728 -4.02013,-25.06564c8.854,-11.83128 12.28282,6.8388 14.1066,14.66133z" fill="#ffd500" stroke="none" stroke-width="0" stroke-linecap="round"></path><path d="M172.59984,159.38391c1.82378,7.82253 0.55021,17.61175 -5.27568,13.50525c-0.4366,-0.30773 -1.33854,-0.82177 -2.27252,-1.38133c-0.97576,-0.58459 -1.98653,-1.21888 -2.53823,-1.7196c-5.96702,-5.41563 3.49457,-2.8238 4.90394,-8.61034c2.96111,-12.15765 -6.72354,-17.7503 -6.06407,-18.73013c5.27135,-7.83212 9.6256,9.98345 11.24659,16.93617z" fill="#ff7e00" stroke="none" stroke-width="0" stroke-linecap="round"></path><path d="M172.94329,159.26309c1.82378,7.82253 0.5502,17.61175 -5.2757,13.50526c-2.11637,-1.49178 -5.72637,-3.81001 -8.15289,-7.03706c-4.25314,-5.6563 -6.31565,-13.59618 -0.67803,-21.12952c8.85399,-11.83128 12.28282,6.8388 14.1066,14.66134z" fill="none" stroke="#000000" stroke-width="4" stroke-linecap="round"></path><path d="M161.04383,158.28907c-2.13392,-0.77231 -3.0812,-3.56073 -2.11582,-6.22814c0.96538,-2.6674 3.47785,-4.20367 5.61177,-3.43136c0.97006,0.3511 -1.59372,2.04503 -2.2937,4.25438c-0.8398,2.6507 -0.03838,5.82633 -1.20225,5.40511z" fill="#fff45c" stroke="none" stroke-width="0" stroke-linecap="butt"></path></g><g data-paper-data="{&quot;index&quot;:null}"><g stroke-width="2"><path d="M222.57337,226.75936" fill="none" stroke="#000000" stroke-linecap="round"></path><path d="M220.00235,217.48473" fill="none" stroke="#000000" stroke-linecap="round"></path><path d="M219.9985,192.73519c0,0 -0.45832,2.68424 -3.23357,2.48075c-2.77523,-0.20349 -1.84232,-0.24308 -4.42305,-1.88121c-2.94713,-1.87072 -9.16302,-6.46583 -9.16302,-6.46583l3.29498,-1.61787c0,0 3.32147,0.53384 5.24014,1.6481c2.78131,1.61523 8.28457,5.83607 8.28457,5.83607z" fill="#312e37" stroke="#000000" stroke-linecap="butt"></path><path d="M177.98864,213.46965c0,0 8.2087,5.60818 12.32897,8.81845c4.37834,3.41136 13.21403,11.08309 13.21403,11.08309l-3.43856,3.59056c0,0 -10.34248,-5.21434 -14.65579,-8.52454c-4.20747,-3.22899 -10.91448,-11.09913 -10.91448,-11.09913l3.46583,-3.86846z" fill="#a09aa6" stroke="none" stroke-linecap="butt"></path><path d="M177.98864,213.46962c0,0 8.2087,5.60818 12.32897,8.81846c4.37834,3.41136 13.21403,11.08309 13.21403,11.08309c0,0 -14.05893,-1.65102 -18.84623,-5.84943c-6.04365,-4.53143 -6.69676,-14.05211 -6.69676,-14.05211z" fill="#695f72" stroke="none" stroke-linecap="butt"></path><path d="M177.98864,213.46965c0,0 8.2087,5.60818 12.32897,8.81845c4.37834,3.41136 13.21403,11.08309 13.21403,11.08309l-3.43856,3.59056c0,0 -10.34246,-5.21433 -14.65579,-8.52454c-4.20747,-3.22899 -10.91448,-11.09913 -10.91448,-11.09913l3.46583,-3.86846z" fill="none" stroke="#000000" stroke-linecap="butt"></path><path d="M200.82391,234.98531c0,0 -11.59903,-6.01376 -15.86752,-9.5849c-3.99561,-3.34283 -8.97894,-11.20228 -8.97894,-11.20228" fill="none" stroke="#000000" stroke-linecap="round"></path><path d="M163.23004,291.84335c0,0 -7.92404,-26.98627 -6.36722,-32.32903c0.8129,-2.78971 12.74283,-21.64317 12.74283,-21.64317l2.6041,-0.13037l-0.32447,-3.44591l2.71607,-1.11781l0.00538,-2.91649l2.59649,-0.87868l0.03625,-3.37541l2.36473,-3.821l13.41431,11.97782z" fill="#4a627c" stroke="none" stroke-linecap="butt"></path><path d="M177.6487,249.00408l-6.3574,14.47032l-8.85732,-11.17584c0,0 -2.84055,1.93728 -3.67666,6.17615c-1.25083,6.34141 -3.13853,6.00258 -1.32542,0.57103c2.96007,-8.86747 12.17373,-21.1746 12.17373,-21.1746l2.60411,-0.13037l-0.32447,-3.44591l2.71607,-1.11781l0.00539,-2.91648l2.59649,-0.87868l0.03625,-3.37541l2.36473,-3.82101l-7.5791,18.14797z" fill="#91b6c0" stroke="none" stroke-linecap="butt"></path><path d="M174.47846,236.17858l5.36836,8.19563" fill="none" stroke="#91b6c0" stroke-linecap="round"></path><path d="M160.02491,272.91778c0,0 -3.22989,-8.33127 -1.76755,-12.6207c1.85682,-5.44648 12.24664,-19.8323 12.24664,-19.8323l4.03593,-1.10037l-0.59911,-3.42562l2.12878,-0.72634l-0.02515,-3.55634l3.29488,-1.17307l-0.0468,-5.24188" fill="none" stroke="#91b6c0" stroke-linecap="round"></path><path d="M163.23001,291.84335c0,0 -7.92404,-26.98627 -6.36721,-32.32903c0.8129,-2.78971 12.74283,-21.64317 12.74283,-21.64317l2.60411,-0.13037l-0.32447,-3.44591l2.71607,-1.11781l0.00539,-2.91648l2.59649,-0.87868l0.03625,-3.37541l2.36473,-3.82101l13.41431,11.97783z" fill="none" stroke="#000000" stroke-linecap="butt"></path><path d="M163.64896,289.35931c0,0 5.00834,-22.39354 11.54517,-34.47513c4.16291,-8.30286 12.46383,-23.39788 12.46383,-23.39788" fill="none" stroke="#000000" stroke-linecap="round"></path></g><g stroke-width="4" stroke-linecap="butt"><g><path d="M217.29371,214.99714c0,0 -0.71738,11.21603 -3.59658,11.19991c-0.87108,-0.0049 -2.34091,-1.0111 -4.38312,-2.60772c-0.28319,-0.22144 -0.99079,-1.08211 -1.29603,-1.32507c-1.03718,-0.82619 -2.58876,-1.95481 -3.64912,-2.89804c-3.81386,-3.39233 -6.44703,-6.27793 -6.44138,-7.28223c0.01099,-1.95784 9.50353,4.485 12.38273,4.50112c0.21783,0.00125 -1.9814,-5.60427 -0.11194,-9.44763c0.95555,-1.96464 5.39918,-3.22403 6.75498,-3.54504c6.25762,-1.48186 7.2338,8.33732 7.22254,8.6341c-0.1089,2.87217 -6.88218,2.77058 -6.88218,2.77058z" fill="#3300ff" stroke="#000000"></path><path d="M215.72887,219.5406c0,0 -1.87981,-2.74767 -4.9894,-2.76515c-3.10956,-0.01749 -5.81636,5.22908 -5.81272,4.58125c0.00204,-0.36162 -2.89415,-4.48706 -1.60229,-6.93427c1.02233,-1.93663 6.06772,-2.34672 7.44143,-2.339c1.56563,0.00883 3.74663,2.33617 4.44102,4.32838c0.68476,1.96458 0.522,3.12877 0.522,3.12877z" fill="#2d00e3" stroke="none"></path></g><g><path d="M211.20435,206.55607c-0.01011,1.79104 0.69045,5.20819 -0.75651,6.18388c-1.37053,0.92434 -4.69724,2.36957 -4.69724,2.36957c0,0 1.77954,1.13337 1.64607,3.34688c-0.06076,1.00924 -0.81208,1.9296 -1.47571,3.14291c-1.41618,2.59001 -3.53111,4.14498 -5.45996,4.13421c-5.42353,-0.03049 -11.22851,-2.65511 -16.33023,-6.63963c-3.3485,-2.61526 -5.97174,-4.74074 -5.95501,-7.71852c0.01928,-3.4281 -1.25403,-8.13145 1.26045,-10.5101c0.96975,-0.91719 2.28829,-0.58043 3.42289,-0.76431c2.37285,-0.38449 4.45388,-0.40462 4.45388,-0.40462c0,0 1.6476,-4.33037 3.67585,-6.05442c0.8144,-0.69222 1.08667,-1.33098 2.43714,-0.87258c2.8393,0.9637 2.94825,-0.01213 2.94825,-0.01213c0,0 2.10136,-4.29707 3.95612,-5.47903c0.8693,-0.55387 11.98001,2.71729 13.49371,6.07676c1.07734,2.39091 5.44245,6.28604 4.76939,9.1315c-1.25929,5.32368 -7.38563,3.44779 -7.38911,4.06959z" fill="#3300ff" stroke="#000000"></path><path d="M180.99988,209.82719c-0.01212,2.15944 -0.19508,6.88072 -0.19508,6.88072c0,0 -1.68681,-5.98305 -1.67466,-8.14248c0.00455,-0.81142 -0.39624,-7.44998 2.2266,-7.39832c1.46197,0.0288 4.17256,-1.94779 6.08939,-0.85173c1.98635,1.13581 3.20713,-7.54527 4.21306,-6.0874c0.21562,0.31249 4.71815,-0.74179 5.00462,0.53637c0.09205,0.41067 0.7518,-2.02445 1.91167,-3.7702c1.00115,-1.50685 2.53376,-2.37955 2.50726,-1.89804c-0.0275,0.49999 3.49662,-0.12059 7.47039,1.18945c1.66209,0.54794 5.37884,1.74932 7.01385,4.50551c1.8274,3.08051 3.52194,7.1018 3.52194,7.1018c0,0 -12.63173,-6.70965 -15.49088,-5.94479c-2.0521,0.54895 1.58343,4.86396 1.58343,4.86396c0,0 -4.78493,-3.88498 -6.23413,-2.61397c-0.99457,0.8723 -2.8928,2.07964 -3.52593,3.53892c-1.34368,3.09697 4.32115,9.9161 4.33677,9.91618c0.31336,0.00176 -7.22094,-4.07275 -12.54185,-5.51551c-2.4025,-0.65144 -4.66669,-0.20931 -4.77405,0.18446c-0.32181,1.18016 -1.43668,2.48286 -1.44243,3.50511z" fill="#2d00e3" stroke="none"></path><path d="M206.14194,216.77216c-0.86377,-0.00484 -11.21505,-8.1961 -11.21505,-8.1961c0,0 7.71184,4.73551 8.57562,4.74038c0.86379,0.00484 3.1232,0.87421 3.11834,1.73799c-0.00485,0.86377 0.38492,1.72261 -0.47886,1.71774z" fill="#000000" stroke="none"></path><path d="M211.51756,206.47967c-0.00339,0.60465 0.42607,0.62803 -0.39451,0.6234c-0.82059,-0.00462 -7.85072,-8.48999 -7.85072,-8.48999c0,0 8.44301,7.5549 9.2636,7.55953c0.82061,0.0046 -1.01493,-0.29758 -1.01834,0.30708z" fill="#000000" stroke="none"></path><path d="M209.96382,206.21874c-0.01018,1.79093 0.84849,4.89612 -0.5984,5.87192c-1.37049,0.92425 -5.00997,2.3678 -5.00997,2.3678c0,0 1.46505,1.44436 1.33158,3.65787c-0.04347,0.72019 -1.14973,2.74313 -1.22714,2.88115c-1.4363,2.56374 -3.32084,4.56579 -5.39669,4.55416c-5.42352,-0.0305 -10.60205,-2.80799 -15.70377,-6.79251c-3.34849,-2.61525 -5.34249,-5.36284 -5.64828,-6.62198c-0.80881,-3.33138 -1.56419,-8.60239 0.95029,-10.98104c1.24211,-1.17496 3.14542,-1.28905 4.58426,-1.38813c2.03358,-0.13999 3.29328,0.06279 3.29328,0.06279c0,0 2.20376,-5.19441 4.28601,-6.68478c0.41696,-0.29834 1.1868,-0.20722 2.16259,-0.19657c0.96793,0.01057 1.51881,-0.2203 1.51881,-0.2203c0,0 2.72426,-3.82437 4.57912,-5.00632c0.49247,-0.31389 8.61733,0.97875 13.40175,4.29102c3.6589,2.53306 4.84634,8.58757 4.55465,9.82063c-1.25939,5.32367 -7.07457,3.76241 -7.07805,4.3842z" fill="none" stroke="#000000"></path><path d="M210.33591,206.21877c-0.0102,1.79103 0.84849,4.89611 -0.5984,5.87192c-1.37051,0.92425 -5.01007,2.36779 -5.01007,2.36779c0,0 1.46512,1.44447 1.33158,3.65787c-0.04336,0.7202 -1.14971,2.74313 -1.22704,2.88116c-1.4363,2.56374 -3.32084,4.56579 -5.39669,4.55416c-5.42362,-0.03052 -10.60205,-2.80799 -15.70377,-6.79251c-3.34849,-2.61525 -5.34259,-5.36285 -5.64828,-6.62198c-0.80891,-3.33139 -1.41132,-7.97592 1.10314,-10.35449c1.24212,-1.17507 2.83258,-1.29094 4.27153,-1.38999c2.03348,-0.13992 3.76244,0.06544 3.76244,0.06544c0,0 1.89092,-5.1962 3.97325,-6.68645c0.41685,-0.29836 1.18671,-0.20732 2.1625,-0.19667c0.96793,0.01066 2.14351,-0.06034 2.14351,-0.06034c0,0 2.72615,-4.13719 4.58091,-5.31915c0.49256,-0.31388 7.99442,0.50603 12.77883,3.81831c3.6589,2.53306 4.84634,8.58757 4.55466,9.82063c-1.25939,5.32367 -7.07458,3.76241 -7.07806,4.3842z" fill="none" stroke="#000000"></path></g></g></g><g data-paper-data="{&quot;index&quot;:null}"><path d="M368.44193,170.17837c0.1057,0.11436 0.14261,0.25056 0.14261,0.25056l0.12542,0.4663c1.09972,3.28459 0.88233,6.24459 0.40167,9.65008c-0.25067,1.30797 -1.16233,2.33114 -2.19759,0.82796c-0.54343,-0.78907 -0.54243,-2.14049 -0.55418,-3.04366c-0.03366,-2.58797 -0.63985,-6.20731 1.18453,-8.27177c0,0 0.35979,-0.40348 0.76326,-0.04369c0.06085,0.05426 0.10432,0.1095 0.1343,0.16421z" fill="#3c1a4a" stroke="none" stroke-width="2" stroke-linecap="butt"></path><path d="M366.80858,164.82352c-0.03285,-0.23416 -0.0743,-0.45883 -0.12545,-0.67102c0,0 -0.1172,-0.52774 0.41052,-0.64494c0.52773,-0.11719 0.64495,0.41052 0.64495,0.41052c0.01328,0.0636 0.02592,0.12801 0.03797,0.19315c0.12213,0.1592 0.1189,0.36243 0.1189,0.36243l-0.00656,0.41284c0.05471,0.50054 0.08156,1.02855 0.08627,1.56473c0.17336,1.42102 0.47254,2.8368 -0.24879,3.9432l0.19929,0.15447l-0.32731,0.4223c-0.11431,0.15327 -0.30659,0.241 -0.50925,0.2124c-0.27785,-0.03923 -0.47636,-0.28315 -0.46461,-0.55778l0.0179,-0.60512l0.01046,0.00031l-0.00874,-0.03017c0.12851,-0.92014 0.24349,-2.02818 0.26528,-3.11369c-0.06432,-0.61924 -0.12192,-1.24089 -0.10354,-1.87962z" fill="#aa4191" stroke="none" stroke-width="2" stroke-linecap="butt"></path><path d="M370.3631,158.03008c0.05212,0.07677 0.07428,0.14284 0.07428,0.14284l0.04803,0.14326c0.50547,1.75083 -1.12277,2.65161 -2.38043,3.56986c-0.48424,0.35356 -1.13139,0.96117 -1.84544,0.34233c-0.66289,-0.57449 -0.00851,-1.33139 0.30667,-1.71772c0.843,-1.03327 1.88866,-1.94683 2.90582,-2.79976c0,0 0.41426,-0.34733 0.76157,0.06691c0.07381,0.08801 0.11321,0.173 0.12953,0.25229z" fill="#aa4191" stroke="none" stroke-width="2" stroke-linecap="butt"></path><path d="M365.65125,161.00762c-0.42014,-0.34018 -0.07995,-0.76032 -0.07995,-0.76032l0.22309,-0.27298c0.88151,-1.2722 1.84966,-2.47687 3.23012,-2.80159l-0.04975,-0.22394l0.55145,-0.12248c0.06514,-0.01608 0.13441,-0.02021 0.20493,-0.01025c0.29562,0.04173 0.50144,0.3152 0.45973,0.61082c-0.01892,0.13411 -0.08555,0.24974 -0.18029,0.33214l-0.1479,0.13025c-0.02305,0.21561 -0.19302,0.36527 -0.19302,0.36527c-0.40964,0.35896 -0.79819,0.65081 -1.17133,0.94582c-0.47118,0.49546 -0.92666,0.98427 -1.45314,1.40003c-0.00382,0.00485 -0.00765,0.00972 -0.01147,0.01459l0.12385,0.12345l-0.47258,0.47416c-0.11616,0.1191 -0.28552,0.18315 -0.46288,0.15812c-0.16809,-0.02372 -0.30714,-0.12236 -0.38817,-0.25738c-0.05851,-0.02081 -0.1197,-0.0547 -0.18268,-0.10571z" fill="#c783c3" stroke="none" stroke-width="2" stroke-linecap="butt"></path><path d="M369.98136,188.21797c0.37622,-0.35666 0.74846,0.01434 0.74846,0.01434l0.31329,0.33039c0.11939,0.1881 0.23878,0.37622 0.35818,0.56433c0.87298,2.06046 0.5905,3.83383 0.6829,5.9795c0.04786,1.11134 0.38237,2.09821 0.16801,3.22207c-0.18064,0.94704 -0.88554,2.65125 -2.20561,2.17189c-0.73996,-0.26871 -0.93775,-1.33552 -1.1192,-1.96892c-0.75934,-2.6606 -0.08515,-5.35013 -0.39387,-8.05704c-0.05508,-0.48299 -0.51936,-2.4775 0.13626,-2.81701c0.34089,-0.17654 0.8632,0.16759 1.31156,0.56044z" fill="#1d2022" stroke="none" stroke-width="2" stroke-linecap="butt"></path><path d="M363.82332,138.62774l-0.03253,0.20065c-0.01984,1.11568 0.11759,2.23968 0.13939,3.34383c0.01357,0.68676 0.52341,1.21157 0.54764,1.9099c0.00472,0.13654 0.00714,0.27201 0.00755,0.40655c0.04714,0.06667 0.07933,0.14402 0.09252,0.22672l0.11349,0.61827l-0.1681,0.03086c0.49057,1.59942 0.16446,3.28047 0.18738,5.0305c0.02501,1.90835 0.05775,3.78121 0.16343,5.64765c0.26488,1.62729 0.4404,3.41584 0.52267,5.12551c0.05606,0.35872 0.11695,0.7182 0.18311,1.07859c0.23658,1.29332 0.32308,2.625 0.28301,3.93741l0.04619,0.58753c0.00421,0.04221 0.00348,0.08563 -0.00271,0.12953c-0.0089,0.06312 -0.02837,0.12213 -0.05636,0.17552c0.38038,1.26632 0.856,2.49791 1.0389,3.84429c0.43553,3.20585 0.27896,6.44785 0.68684,9.66504c0.17764,2.28669 -0.05602,4.39297 -0.11058,6.67543c-0.06234,2.60827 0.84744,5.27104 1.54446,7.75532c0.13284,2.23556 0.27256,4.49519 0.55897,6.71812c0.14051,1.09054 0.42127,2.65471 -0.57237,3.40444c-1.41229,1.06563 -3.81522,0.67049 -5.48089,0.83472c-4.7452,1.56716 -6.50687,-4.24869 -9.10832,-6.82027c0,0 -0.30626,-0.30524 -0.098,-0.64364c-1.93497,-3.12907 -1.18849,-7.65838 -1.9692,-11.15323c0,0 -0.01647,-0.07416 -0.00926,-0.17308c-0.98807,-2.32588 -1.27089,-5.02254 -1.72008,-7.47156c-0.44621,-3.20781 -1.16283,-6.35404 -1.83252,-9.51346c-0.22186,-0.66596 -0.3927,-1.35254 -0.53449,-2.04609c-0.08027,-0.28886 -0.15995,-0.57966 -0.24099,-0.87263l0.0105,-0.04653l-0.0171,0.00181l-0.057,-0.54211c-0.00596,-0.04681 -0.00584,-0.09516 0.00107,-0.14414c0.00057,-0.00403 0.00119,-0.00803 0.00182,-0.01202c-0.10973,-0.49522 -0.196,-1.0001 -0.20052,-1.41548c-0.03412,-0.22541 -0.06857,-0.44941 -0.10411,-0.67153l0.01066,-0.0306l-0.01269,0.0005l-0.02952,-0.74425c-0.00207,-0.03528 -0.00067,-0.07129 0.00447,-0.10763c0.00988,-0.06994 0.03272,-0.13488 0.06576,-0.19269c-0.58272,-1.39236 -1.1584,-2.78796 -1.6351,-4.21451c-0.91643,-2.74246 -1.15101,-5.71809 -1.65356,-8.55545c-0.33123,-2.17695 -0.76015,-4.34616 -0.83822,-6.55437c-0.03195,-0.90412 -0.13162,-2.37185 0.78593,-2.96199c0.21758,-0.13994 0.51869,0.06614 0.77535,0.03386c1.76255,-0.22163 3.30996,-0.29958 5.1282,-0.04514c4.55546,0.64298 9.095,0.02853 12.44362,-3.21935c0,0 0.38826,-0.37615 0.76441,0.01211c0.07218,0.0745 0.11619,0.14856 0.14022,0.21959c0.28872,0.16848 0.23664,0.53751 0.23664,0.53751z" fill="#485c7d" stroke="none" stroke-width="2" stroke-linecap="butt"></path><path d="M362.47186,133.58739c0.41562,-0.28035 0.72448,0.13004 0.72448,0.13004l0.39303,0.65032c0.27278,2.76692 -1.83047,4.05212 -3.94945,5.26736c-1.28832,0.6709 -2.41239,0.77085 -3.76363,1.10884c-1.92597,0.48175 -3.80822,1.19331 -5.82592,1.12684c-1.89426,-0.06239 -3.74798,-0.53265 -5.61259,-0.79273c-0.40637,-0.063 -0.75725,-0.2157 -1.05487,-0.43578c0.02638,1.17261 -0.2004,2.44875 -1.05311,3.11751c-0.37608,0.29495 -0.82242,0.4754 -1.27378,0.64546c0.30517,0.00666 0.63467,0.05976 0.99458,0.15895c0.32457,0.08945 0.60938,0.28428 0.90884,0.44026c0.69651,-0.05308 0.82856,0.66629 0.82856,0.66629l0.01536,0.1289c0.18613,0.55674 0.35093,1.12117 0.49109,1.69123c0.58318,2.3801 1.322,4.99107 1.56041,7.42542c0.27472,2.80532 -0.23966,5.48888 -0.36572,8.26614c-0.09875,2.17543 0.43231,4.35848 0.62025,6.51346c0.31962,2.92944 0.39404,5.87268 0.66733,8.80271c0.33337,3.57411 1.38407,6.95185 0.75478,10.56846c-0.51006,2.93123 -2.36345,5.84925 -5.72017,3.99117c-0.40264,-0.22289 -0.65997,-0.64159 -0.98996,-0.96238c0.02011,-2.78876 1.66767,-5.22532 1.06809,-8.01816c-0.38459,-1.79133 -1.54444,-2.8816 -2.44443,-4.39915c-1.23172,-2.07684 -1.94155,-4.41385 -2.69317,-6.68465c-0.25662,-1.98549 -0.73072,-4.22856 -1.43089,-6.10554c-0.51303,-1.37528 -1.40596,-2.56686 -1.87452,-3.96035c-1.07208,-3.1884 -1.44943,-6.52532 -2.6273,-9.68887c-0.05054,-0.27065 -0.42136,-2.23623 -0.42608,-2.36156c-0.01369,-0.3632 0.07409,-0.72406 0.14271,-1.08098c0.0734,-0.38181 0.09553,-0.79086 0.28267,-1.13164c0.24823,-0.45201 0.54688,-0.75926 0.88151,-0.96266c-0.50879,-0.09067 -0.98483,-0.23522 -1.37237,-0.4674c-2.10862,-1.26328 -1.57743,-6.14535 -0.33078,-7.8881c0.52303,-0.73114 1.47442,-0.72554 2.17859,-1.25759c0.84961,-0.7491 1.8182,-1.73307 3.04647,-1.7214c1.2244,0.01163 2.45333,0.91231 3.72156,0.62938c0.88972,-0.19848 1.24649,-1.51479 2.3352,-1.27685c0.39177,0.0856 0.66292,0.43914 0.87363,0.84063c0.11206,-0.70783 0.35553,-1.37192 0.71913,-1.881c0.67743,-0.94842 1.52184,-0.61478 2.44718,-0.69782c1.30625,-0.1172 2.69334,-0.60335 4.02202,-0.80114c2.21312,0.12034 4.55151,0.08772 6.7337,0.39493c2.03188,0.28607 4.17174,0.92875 6.11711,0.05921c0,0 0.12682,-0.05639 0.28051,-0.04776z" fill="#485c7d" stroke="none" stroke-width="2" stroke-linecap="butt"></path><path d="M351.03452,181.21537c-0.04699,-0.1112 -0.09213,-0.22277 -0.13522,-0.3348c0,0 -0.06678,-0.17378 -0.01998,-0.35657c-0.00025,-0.15306 0.06037,-0.33883 0.3094,-0.45845c0.48728,-0.23406 0.72134,0.25323 0.72134,0.25323l0.15582,0.39714c0.00705,0.07152 0.01411,0.14302 0.02116,0.21455c0.96184,2.23306 2.59407,4.28842 3.15193,6.65136c0.30428,1.28886 0.09612,2.48654 -0.08682,3.77184c-0.10829,3.84553 1.03418,6.35891 4.9581,7.422l0.51891,0.14059c0.26353,0.06732 0.43973,0.32363 0.40084,0.59919c-0.02087,0.14782 -0.09965,0.27318 -0.21019,0.35638l-0.21506,0.16187c-0.21497,0.4354 -0.35703,0.89571 -0.40368,1.35146c0.03105,0.04943 0.0612,0.09987 0.09038,0.15141c0.25056,0.44262 0.84799,1.53517 0.87973,2.23366c0.09749,0.0781 0.20293,0.15271 0.31658,0.22337l-0.03658,0.25655l0.12449,-0.01309l0.05827,0.55417l-0.26383,0.02774l-0.07581,0.53182c-0.1506,-0.10989 -0.28394,-0.22643 -0.40331,-0.34849l-0.22659,0.17054l-0.34479,-0.45812l0.20265,-0.15251c-0.91965,-0.46365 -1.42772,-1.85554 -1.45817,-2.9198c-0.09517,-0.12891 -0.20045,-0.25508 -0.3184,-0.37766c-0.91816,-0.95431 -2.48822,-1.35075 -3.52228,-2.16199c-0.90827,-0.71258 -1.50873,-2.31785 -1.86065,-3.35974c-0.68347,-2.04439 -0.74176,-4.16715 -1.31699,-6.21256c-0.81449,-2.89617 -1.45418,-5.18075 -0.99972,-8.21337c-0.00384,-0.0339 -0.00768,-0.06779 -0.01152,-0.10169z" fill="#373440" stroke="none" stroke-width="2" stroke-linecap="butt"></path><path d="M338.38693,213.10637c-3.41661,2.18117 -9.36389,0.51576 -9.57618,-3.8558c0.16789,-0.59039 0.18758,-1.12914 0.90302,-1.40156c0.79513,-0.30275 2.58212,0.76913 3.51354,0.84564c1.59158,0.13072 3.21704,-0.2635 4.83262,-0.57022c-0.01108,-0.02162 -0.02223,-0.04322 -0.03346,-0.06471c-1.91996,-3.34581 -1.38061,-5.97654 0.20974,-9.33057c0.75086,-1.58358 1.43162,-2.96621 3.38844,-2.90805c1.63581,0.39493 3.00887,1.70334 4.63807,1.95123c0.74168,0.11284 1.5785,-0.2748 2.3455,-0.27694c1.41834,-0.00392 2.77037,0.31424 4.13935,0.64899c0,0 0.00683,0.00167 0.0187,0.0054c0.32198,-0.04528 0.51317,0.26342 0.51317,0.26342l0.31226,0.51368c0.17295,0.39309 0.31661,0.80209 0.41108,1.22102c0.2601,0.77262 0.66812,1.5979 0.65418,2.42762c-0.04597,2.73442 -1.59969,5.39893 -3.04922,7.6142c-0.56163,0.85832 -1.13207,2.17543 -1.9984,2.78367c-0.61557,0.43216 -1.60791,0.75214 -2.31709,0.99188c-1.02118,0.32967 -4.08297,0.02862 -4.44541,-1.39388c-0.13155,-0.51631 1.03499,-1.21708 0.57761,-1.49037c-0.24043,-0.14364 -0.55534,0.09944 -0.83528,0.09099c-0.67635,-0.02044 -1.57707,-0.0313 -2.26898,-0.26499c-0.51258,0.8429 -1.08625,1.65856 -1.93331,2.19933z" fill="#2d00e3" stroke="none" stroke-width="2" stroke-linecap="butt"></path><path d="M354.28029,198.87123c0.19968,-0.04621 0.38717,0.04715 0.38717,0.04715l0.0917,0.05738c2.01671,0.54637 4.99782,2.92819 5.11804,5.26124c0.07864,1.52606 -1.18389,3.73173 -1.8423,5.04193c-0.9925,1.26038 -2.40788,1.34737 -3.87136,1.64812c-1.18291,0.24309 -2.21902,1.22759 -3.40801,1.55808c-0.64568,0.17949 -1.55222,0.3547 -2.16306,-0.04029c-0.94433,-0.61063 -1.24673,-1.77225 -2.28513,-2.38628c-1.71466,0.03915 -3.1699,1.27837 -4.95388,1.21125c-2.63896,-0.09929 -4.98658,-3.40708 -4.97233,-5.85024c0.28325,-2.01224 1.25339,-4.28427 3.24798,-5.16371c2.34018,-1.0318 5.31759,0.42911 6.32367,2.67899c0.14491,-0.06354 0.4563,-0.78365 0.49749,-0.85024c0.40344,-0.65215 0.94474,-1.3457 1.49226,-1.88159c1.97506,-1.93315 3.85762,-1.92771 6.33777,-1.33179z" fill="#3300ff" stroke="none" stroke-width="2" stroke-linecap="butt"></path><path d="M332.65851,193.24842l0.01616,0.02373c0.2514,0.2797 0.65535,0.30996 0.92357,0.67157c0.52397,1.55659 -1.24335,3.2944 -1.85027,4.57529c-0.73571,1.70594 -1.1417,3.05076 -2.42894,4.49486c-0.79656,0.93323 -1.70756,2.87959 -2.92115,3.31098l-0.04049,0.07916c-0.78184,1.11916 -0.92533,1.46119 -2.46751,1.50723c-1.91138,-0.07717 -2.73319,-1.52966 -4.0373,-2.74747c-1.25175,-1.02935 -1.7772,-2.29856 -2.27794,-3.79044c-0.44549,-1.65958 -1.12013,-3.08188 -1.03165,-4.85806c-0.09505,-1.74006 0.74707,-3.03591 2.01652,-4.12611c0.84244,-0.61032 2.42925,-1.94214 3.51077,-2.08206l0.04943,-0.05527c0.28068,-0.34664 0.61017,-0.6691 0.93138,-0.9738c1.26493,-1.26453 1.86888,-2.52402 3.858,-2.44265c1.54523,0.21724 2.5497,1.67682 3.59484,2.71827c0.95168,0.94871 1.66737,2.38253 2.09904,3.65029c0.03467,0.01677 0.05554,0.04453 0.05554,0.04453z" fill="#2d00e3" stroke="none" stroke-width="2" stroke-linecap="butt"></path><path d="M334.86382,206.75913c-2.61253,2.21143 -6.19296,0.163 -7.75356,-2.30907c-0.08648,-0.16248 -0.61192,-1.05313 -0.93009,-1.70593c-0.00245,0.06955 -0.00498,0.123 -0.00347,0.14607c0.04537,0.69234 0.25461,1.71103 -0.10961,2.35677c-0.56109,0.99483 -2.00311,0.7092 -2.91951,0.56943c-1.96482,-0.95853 -1.79326,-2.58787 -2.16592,-4.32416c-0.19961,-0.92999 -0.38011,-2.10029 -0.47087,-3.04853c-0.08203,-0.85716 0.10783,-1.45132 0.90522,-1.75502c1.03831,-0.02045 2.21122,-0.19596 2.84405,-1.12868c1.09607,-1.61549 0.83187,-4.36847 3.4697,-4.20703c2.76566,0.38834 6.18565,3.1337 6.60635,6.08572c0.82768,3.16618 1.63,5.72449 0.97026,8.99715c0,0 -0.07539,0.37386 -0.44254,0.32326z" fill="#3300ff" stroke="none" stroke-width="2" stroke-linecap="butt"></path><path d="M324.86071,201.37176c0.0013,0.00775 0.00267,0.01549 0.00414,0.02323l0.00959,-0.00527c-0.00459,-0.00598 -0.00915,-0.01196 -0.01371,-0.01795zM326.37727,201.50692c0.00678,0.01048 0.01277,0.02283 0.01767,0.03743c0.04294,0.12813 -0.0852,0.17109 -0.0852,0.17109l-0.14326,0.04803c-0.32873,0.1102 -1.14398,0.39245 -1.42654,0.04606c-0.11568,-0.14182 -0.19267,-0.58038 -0.19753,-0.92131c-0.36732,-0.65475 -0.14917,-2.48672 -0.14917,-2.48672c0,0 1.63805,2.091 1.97767,3.07122c0,0 0.00469,0.01396 0.00635,0.03419z" fill="#2d00e3" stroke="none" stroke-width="2" stroke-linecap="butt"></path><path d="M340.25247,179.47478c0.8333,1.69159 1.70091,3.82306 1.67263,5.66966c-0.01713,1.11763 -0.65672,2.35218 -1.06858,3.36727c-1.44912,2.80688 -4.59503,5.97099 -7.88993,3.5591c-0.94561,-0.69219 -1.54778,-2.05954 -2.04978,-3.06766c-1.54447,-2.8619 -4.26417,-8.83288 0.57561,-10.13621c2.34521,-1.20827 6.69733,-2.28772 8.74957,0.09246c0,0 0.22671,0.26702 0.01048,0.51539z" fill="#2d00e3" stroke="none" stroke-width="2" stroke-linecap="butt"></path><path d="M340.26468,180.04698c0.24629,0.0064 0.348,0.26185 0.348,0.26185l0.10366,0.26057c0.50742,1.35392 1.06625,2.68426 1.19799,4.14365c0.0373,3.5216 -3.16546,6.20752 -6.64319,5.41756c-3.12237,-0.46024 -5.07255,-5.93849 -2.58519,-8.02516c2.52029,-1.67842 4.52331,-3.4455 7.57871,-2.05846z" fill="#3300ff" stroke="none" stroke-width="2" stroke-linecap="butt"></path><path d="M336.71391,174.83087c0,0 0.10222,0.10845 0.11696,0.25583c0.09792,0.14621 0.05471,0.32993 0.05471,0.32993l-0.09751,0.4048c-0.18063,0.51438 -0.29577,0.90173 -0.61866,1.34477c-1.25601,1.3195 -4.75422,1.32175 -6.52763,1.64111c-0.58914,0.10609 -1.44739,0.20274 -1.92415,-0.25487c-0.74105,-0.71127 -0.43612,-2.02839 -0.15831,-2.88367c1.6515,-2.22274 7.13457,-2.94653 9.15458,-0.8379z" fill="#4e5a6a" stroke="none" stroke-width="2" stroke-linecap="butt"></path><path d="M330.13748,171.74891c0.18014,-1.93945 2.51409,-1.67658 3.20468,-0.28896c0.16625,0.13588 0.12969,0.36008 0.12159,0.40008c-0.00119,0.05512 -0.01173,0.11967 -0.04403,0.18057l-0.03645,0.14893c-0.45508,1.89332 -3.42498,1.48832 -3.24581,-0.44063z" fill="#2d00e3" stroke="none" stroke-width="2" stroke-linecap="butt"></path><path d="M340.24248,144.38247c0.00005,0.13921 -0.07739,0.25144 -0.07739,0.25144l-0.02227,0.02896c-1.67482,3.01002 -5.10235,3.72404 -8.33498,3.00617c-2.71346,-0.96094 -2.42286,-3.71561 -2.09169,-6.0579c0.14178,-1.00278 0.11791,-1.8279 0.75437,-2.31446l-0.09125,-0.17939l0.36318,-0.18472c0.07263,-0.03814 0.15747,-0.05465 0.24489,-0.04233c0.22172,0.03128 0.37608,0.2364 0.34479,0.45813c-0.00167,0.01187 -0.00383,0.02352 -0.00647,0.03497l-0.09136,0.4144c-0.19022,1.35727 -0.16602,2.8838 0.55437,4.09393c0.37558,0.56689 0.64056,0.6295 0.97026,0.84486c-0.14355,-0.20695 -0.40871,-0.6297 -0.45563,-0.74312c-0.22609,-0.54647 -0.49212,-1.94913 0.30113,-2.24757c0.0596,-0.02241 0.77453,0.3227 0.96047,0.37969c0.32223,0.09876 0.67544,0.12561 1.02689,0.12649l0.32322,-0.14688c0.06919,-0.03278 0.14843,-0.04634 0.2299,-0.03484c0.22172,0.03128 0.37608,0.2364 0.34479,0.45812c-0.0115,0.08149 -0.04647,0.15387 -0.09712,0.21129l-0.24126,0.28242c-0.91369,3.21856 3.31432,0.77494 4.72208,0.84298c0,0 0.40477,0.02314 0.38165,0.42791c-0.00185,0.03251 -0.00617,0.06224 -0.01253,0.08946z" fill="#373440" stroke="none" stroke-width="2" stroke-linecap="butt"></path><path d="M343.11362,144.39173c0.80293,0.11334 0.68959,0.91625 0.68959,0.91625l-0.03824,0.12243c0.03841,0.53495 0.16084,1.07837 0.39977,1.55854c0.32157,1.09177 0.24564,2.40085 0.67894,3.43987c0.58143,1.39419 1.41422,3.04085 1.54847,4.58621c0.071,0.81734 -0.29107,1.6435 -0.13574,2.48114c0.11901,0.64169 0.53894,1.20191 0.6605,1.84314c0.45792,2.41551 -0.3014,4.84116 0.27493,7.33021c0.85732,2.56322 1.69378,5.03214 2.213,7.70827c0.35056,1.80684 0.20293,3.70742 0.61517,5.51974c0.21031,0.92454 0.7251,1.78277 0.94248,2.70123c0.28429,1.20133 0.16517,2.46099 0.42528,3.66556c0.62831,2.97245 0.92268,5.9878 2.04996,8.81945c0.28087,0.70554 1.3669,2.59219 0.74791,3.31123c-0.3397,0.39462 -1.03512,0.13555 -1.5558,0.14022c-1.53407,0.01376 -3.23253,-0.37827 -4.75182,-0.59271c0,0 -0.20492,-0.02894 -0.3931,-0.16107c-2.66852,-0.63225 -5.17882,-1.2835 -7.92833,-0.68074c-0.99242,0.78282 -2.1117,2.84017 -3.67866,2.14266c-0.44891,-0.19983 -0.53346,-0.82915 -0.73926,-1.27537c-0.48706,-1.05605 -1.01353,-2.37091 -1.40767,-3.46498c-0.17077,-0.47403 -0.57349,-1.00382 -0.37122,-1.46528c0.19108,-0.43596 0.85326,-0.42244 1.28576,-0.62121c1.02614,-0.47159 2.25343,-0.49743 3.24813,-0.97343c0.96888,-0.46365 1.80658,-1.32888 2.63537,-2.14246l-0.15458,-0.12203l0.65526,-0.82999c0.17201,-0.22615 0.45797,-0.35507 0.7593,-0.31255c0.39923,0.05635 0.68927,0.39447 0.69745,0.78492l0.02861,0.72152c0.22789,0.43882 0.95932,1.34007 1.53288,1.18045c0.28605,-0.07961 0.42627,-2.54713 0.45583,-2.85154c0.2935,-3.02363 -0.48631,-5.86623 -0.60787,-8.86746c0,0 -0.00331,-0.08389 0.01916,-0.19874l-0.07495,-0.51108c-0.095,-2.46084 0.39921,-4.95012 0.12282,-7.41311c-0.09877,-0.88018 -0.48051,-1.6576 -0.63921,-2.5243c-0.25244,-1.37886 -0.14276,-2.77245 -0.28993,-4.16277c-0.44157,-4.21201 -0.92415,-8.38747 -1.26785,-12.59707c-0.15749,-1.92906 0.13137,-3.80961 -0.11528,-5.75333c0,0 -0.09086,-0.71708 0.57602,-0.88297c0.06852,-0.21958 0.28202,-0.65422 0.88691,-0.56886z" fill="#373440" stroke="none" stroke-width="2" stroke-linecap="butt"></path><path d="M344.09649,134.25504l-0.09618,-0.01358c-0.63662,-0.24969 0.74324,-1.25634 1.04988,-1.48899c1.43883,-1.06139 3.28051,-1.38831 4.85377,-2.14382c1.63384,-0.55029 2.78728,-0.79649 4.52192,-0.54982c1.63628,0.43706 3.28966,0.80745 4.92451,1.26679c1.24334,0.50306 3.46299,1.3997 3.24799,3.07289c-0.51587,1.93127 -1.85457,1.5632 -3.36044,2.06798c-0.39173,-0.0498 -0.73907,-0.13981 -0.80915,-0.31116c-0.09278,-0.22682 0.14215,-0.56717 -0.15056,-0.86029c-0.55433,-0.55514 -1.50502,-0.88858 -2.27517,-0.99728c-1.65792,-0.234 -3.33171,-0.39225 -4.98122,-0.62507c-1.5971,-0.22543 -2.82571,0.31627 -4.29231,0.79438c-0.75133,-0.2193 -2.84679,1.57317 -2.63305,-0.21201z" fill="#8dc0b9" stroke="none" stroke-width="2" stroke-linecap="butt"></path><path d="M337.61575,149.29248c0.43462,0.31974 0.724,0.8092 0.20369,1.269c-0.40792,0.36049 -1.3515,0.08697 -1.81892,0.02099c-1.45644,-0.23239 -2.83847,1.37207 -4.17822,0.14405c-0.66422,-1.84678 1.81802,-1.42505 2.89373,-1.76452c0.9699,0.13691 2.23911,-0.51488 2.89972,0.33049z" fill="#8dc0b9" stroke="none" stroke-width="2" stroke-linecap="butt"></path><path d="M366.50213,203.02786c-0.54903,-0.07747 -0.93851,-0.53402 -0.86996,-1.01969c0.06854,-0.48567 0.56918,-0.81656 1.1182,-0.73907c0.54902,0.07748 0.93851,0.53403 0.86997,1.01969c-0.06854,0.48567 -0.56919,0.81656 -1.1182,0.73907z" fill="#8dc0b9" stroke="none" stroke-width="2" stroke-linecap="butt"></path><path d="M346.88981,159.08015c0,0 1.09274,-1.63943 2.54112,-1.37958c1.85994,0.33372 4.09398,2.11985 6.33787,2.70299c2.09253,0.54381 4.24039,-0.07397 4.84821,-0.80051c1.72539,-2.06233 1.10434,-5.38074 1.00704,-8.80203c-0.13335,-4.68829 -0.11718,-9.48206 0.64478,-10.7c0.53206,-0.85047 1.04559,-1.2422 1.04559,-1.2422c0,0 1.30896,5.80817 1.69785,10.369c0.79832,9.3628 2.82542,42.67979 2.82542,42.67979c0,0 0.93566,8.19725 0.26487,8.82608c-0.22823,0.21398 -2.02223,-0.00171 -2.56627,-1.34088c-0.27592,-0.67919 0.47325,-2.93841 0.47325,-2.93841c0,0 -0.57297,-2.35497 -0.60276,-2.36408c-0.3086,-0.09442 0.67711,-2.71926 0.67711,-2.71926c0,0 -0.56856,-2.11234 -0.92807,-4.63795c-0.3401,-2.38909 -0.44146,-5.16529 -1.45985,-6.28234c-1.46551,-1.60753 -5.1812,-3.01282 -8.21356,-4.28939c-3.10728,-1.30813 -5.5145,-2.468 -5.5145,-2.468c0,0 4.17285,-0.3574 6.29351,-0.30054c2.15917,0.05791 6.54809,0.64486 6.54809,0.64486c0,0 -0.67829,-1.9029 -2.80495,-2.66404c-2.29492,-0.82135 -10.49831,-2.09724 -10.49831,-2.09724z" fill="#8dc0b9" stroke="none" stroke-width="2" stroke-linecap="butt"></path><path d="M369.29226,156.59676c0.00682,0.07082 -0.05649,0.11848 -0.05649,0.11848c-0.964,0.72418 -1.91537,1.43937 -2.85897,2.14956l-0.08708,0.12622c-0.02785,0.04223 -0.07838,0.06703 -0.1318,0.05948c-0.05342,-0.00754 -0.09512,-0.04534 -0.11017,-0.09364l-0.05394,-0.16095l0.02707,-0.00906c-0.55998,-1.29534 -0.00628,-3.38808 -0.30401,-4.74568c0.22021,-1.49524 -0.76863,-3.37751 -0.92933,-4.90007c-0.1071,-0.39354 -0.12321,-1.98559 0.26554,-2.25988c0.4362,-0.30778 1.89001,-0.24091 2.39948,-0.16386c0.55807,0.28227 0.6171,0.85395 0.73244,1.42083c0.25323,1.24462 0.84497,2.44258 0.98116,3.70639c0.21065,1.19162 0.93913,3.55729 0.2084,4.62083l0.01176,0.01862c0,0 -0.01303,0.0923 -0.09411,0.11277z" fill="#342a3c" stroke="none" stroke-width="2" stroke-linecap="butt"></path><path d="M368.1221,147.22465c-0.00437,0.00145 -0.00861,0.00272 -0.01277,0.0038c-0.00358,0.00667 -0.0062,0.01048 -0.0062,0.01048c-0.48569,0.70094 -3.12133,2.16719 -2.86696,0.25811c-0.26736,-1.45649 -0.35887,-3.2293 -0.82632,-4.63004c0.1329,-1.02382 -0.08896,-4.9279 1.42353,-4.72502c2.0736,0.29269 2.63099,1.69649 2.33934,3.7225c0.24806,1.56747 0.25463,3.48702 -0.01389,5.05596l0.04845,0.13314c0,0 0.04293,0.12812 -0.0852,0.17108z" fill="#4d5265" stroke="none" stroke-width="2" stroke-linecap="butt"></path><path d="M340.96373,211.09867c-0.77517,-0.12387 -1.90497,-0.81482 -1.90497,-0.81482c0,0 -1.78198,-0.87863 -2.37882,-3.00176c-0.59683,-2.12314 -0.36077,-3.98487 -0.05025,-5.6394c0.31052,-1.65452 1.21684,-3.38172 1.88518,-4.13784c0.66835,-0.75612 1.62534,-1.2561 2.65575,-1.28117c1.03044,-0.02507 1.24103,0.43713 2.5343,0.73986c1.29327,0.30273 1.09595,0.34278 3.34067,0.6353c2.24473,0.29251 3.6877,-0.30068 5.7369,0.35476c2.04921,0.65544 4.64932,2.96735 4.64932,2.96735c0,0 1.76985,1.11819 2.15378,2.53324c0.38393,1.41504 0.30827,2.79909 -0.37614,4.01872c-0.68442,1.21962 -1.43466,2.02578 -3.02106,3.03123c-1.58639,1.00544 -2.30688,0.48932 -3.73168,0.97465c-1.4248,0.48532 -2.16513,1.25597 -4.10634,1.69519c-1.94121,0.4392 -2.63881,0.66898 -3.69496,0.06992c-1.05615,-0.59907 -1.45004,-2.29743 -1.45004,-2.29743c0,0 -1.46648,0.27607 -2.24165,0.1522z" fill="none" stroke="#000000" stroke-width="2" stroke-linecap="round"></path><path d="M343.72596,209.83703c0,0 1.53164,-0.08005 2.18343,0.00353c0.43052,0.05522 1.10486,0.55158 1.10486,0.55158c0,0 -0.70032,0.50377 -1.17727,0.67071c-0.48021,0.16807 -1.6943,0.33435 -1.6943,0.33435l-0.79086,-0.5211z" fill="#000000" stroke="none" stroke-width="2" stroke-linecap="butt"></path><path d="M345.95073,213.59484l-5.01703,-0.3993c0,0 -1.88016,0.45082 -3.10807,0.53187c-1.22793,0.08104 -2.23355,0.16287 -3.62728,-0.08734c-1.39372,-0.25019 -2.47731,-0.48501 -3.98838,-1.27983c-1.51104,-0.79481 -3.13412,-2.46657 -3.13412,-2.46657l-2.29543,-1.14289c0,0 -2.56721,-1.15617 -3.83211,-2.26968c-1.26489,-1.11351 -2.58055,-2.2522 -3.64326,-4.31098c-1.0627,-2.0588 -1.45097,-3.63151 -1.29037,-5.5092c0.1606,-1.87769 0.83983,-2.37295 1.96094,-3.51999c1.12111,-1.14705 4.84532,-3.44376 4.84532,-3.44376c0,0 0.59651,-2.36339 1.70583,-3.0018c1.10931,-0.63841 2.97024,-0.14487 4.07375,0.61634c1.1035,0.76122 2.90037,3.34753 4.12256,5.54498c1.22219,2.19744 1.93869,3.66494 2.73232,6.77977c0.79364,3.11485 0.88614,3.09862 0.42678,5.1226c-0.45936,2.02398 -0.80924,2.32994 -1.84867,2.78312c-1.03943,0.45318 -1.8319,0.48279 -2.99076,0.03284c-1.15886,-0.44995 -2.24158,-1.17332 -3.32842,-2.38058c-1.08685,-1.20727 -2.04093,-3.41481 -2.04093,-3.41481" fill="none" stroke="#000000" stroke-width="2" stroke-linecap="round"></path><path d="M342.75325,212.92535l-0.38311,-0.50904l-2.2062,-1.13031c0,0 -0.74618,0.91922 -1.99345,1.4061c-1.24725,0.48687 -1.25383,0.46609 -3.11537,0.32957c-1.86154,-0.1365 -2.72089,-0.35699 -4.12777,-1.05409c-1.40688,-0.69708 -3.06223,-2.50843 -3.06223,-2.50843l-0.43776,-2.70051l-0.71157,1.17343l-2.84116,0.14494l-0.71478,-0.73782c0,0 1.73197,0.17516 2.39365,-0.11712c0.66168,-0.29229 0.97466,-0.68171 1.14409,-1.5787c0.16944,-0.89698 -0.25695,-2.20865 -0.25695,-2.20865" fill="none" stroke="#000000" stroke-width="2" stroke-linecap="round"></path><path d="M337.00308,208.86087l-3.51762,-0.54198l-3.65089,-0.24232l-1.27886,1.00236l0.09966,-1.3508l7.28238,0.29993" fill="none" stroke="#000000" stroke-width="2" stroke-linecap="round"></path><path d="M342.05763,185.70795c0,0 -0.22488,1.30343 -1.30173,2.89339c-1.07684,1.58997 -1.51004,2.23939 -3.22701,2.82019c-1.71697,0.58081 -3.13398,0.34703 -4.33029,-0.26376c-1.19632,-0.6108 -2.31179,-2.60931 -2.31179,-2.60931c0,0 -1.10597,-2.73604 -1.46686,-4.37604c-0.3609,-1.63998 -0.64348,-2.68618 0.02792,-4.06581c0.6714,-1.37962 1.93916,-1.43931 2.99232,-1.86069c1.05316,-0.42138 2.00649,-0.31021 2.9292,-0.48218c0.94569,-0.17624 1.64745,-0.262 2.6159,-0.12485c0.96846,0.13716 1.59981,0.93861 2.23392,1.75459c1.20984,1.55679 1.57375,2.26228 1.84182,4.18081c0.26806,1.91855 -0.18672,4.50243 -0.99019,6.31227c-0.80347,1.80986 -1.14732,2.11386 -3.19895,2.97303c-2.05163,0.85917 -5.36651,-0.65819 -5.36651,-0.65819" fill="none" stroke="#000000" stroke-width="2" stroke-linecap="round"></path><path d="M329.39718,187.14706c0,0 -1.1166,-3.36197 -1.69132,-5.59887c-0.5747,-2.2369 -0.66589,-1.98602 -0.74321,-3.87686c-0.07734,-1.89085 0.01081,-2.52851 0.5157,-3.30212c0.50489,-0.7736 1.81875,-1.28187 1.81875,-1.28187c0,0 0.33157,-1.74473 1.09394,-2.47605c0.76235,-0.7313 1.20476,-0.52414 2.06321,-0.55252c0.85845,-0.02837 3.92039,0.3548 3.92039,0.3548l1.94383,6.97454" fill="none" stroke="#000000" stroke-width="2" stroke-linecap="round"></path><path d="M332.96951,170.62781l1.04541,1.73574l-0.89476,1.06485c0,0 -0.71586,0.07527 -1.00918,0.10611c-0.22672,0.02384 -0.60295,0.0634 -0.60295,0.0634l-1.4404,-1.04703" fill="none" stroke="#000000" stroke-width="2" stroke-linecap="round"></path><path d="M334.30453,171.01475l1.75182,0.24726l1.84475,5.91831l-3.66603,0.25035c0,0 1.24391,-0.79825 1.42574,-1.42083c0.18226,-0.62413 -0.10011,-1.08764 -0.26525,-1.19561c-0.0461,-0.03014 -0.45702,0.2548 -1.05433,0.26895c-1.05947,0.02511 -2.6894,-0.16036 -3.79649,0.10722c-1.65457,0.39991 -1.86651,1.59961 -1.86651,1.59961c0,0 0.36911,0.51765 1.20055,0.61805c0.49836,0.06018 1.8845,-0.34434 2.84508,-0.35223c0.86874,-0.00716 1.34268,0.38484 1.34268,0.38484c0,0 -5.7579,3.67969 -5.9259,3.41949c-0.1608,-0.24905 -0.43928,-5.40726 -0.43606,-5.6519c0.00948,-0.71767 0.83161,-1.64775 1.22898,-1.83891c0.74938,-0.36047 4.13223,0.79587 4.13223,0.79587z" fill="#000000" stroke="none" stroke-width="0" stroke-linecap="butt"></path><path d="M337.02951,173.13079l-1.96772,-7.60894c0,0 -2.31481,-6.84557 -3.77609,-11.3738c-1.46128,-4.52823 -1.46796,-3.78814 -1.86691,-6.11286c-0.39895,-2.32472 -0.21883,-6.73817 -0.21883,-6.73817c0,0 0.614,-2.13471 1.81895,-2.94093c1.20495,-0.80623 2.61916,-1.24195 4.72656,-1.43867c2.1074,-0.19673 3.22245,0.37683 3.22245,0.37683c0,0 4.09122,-3.51846 7.05737,-5.24323c2.96616,-1.72474 2.91617,-1.38115 4.92268,-1.72293c2.00651,-0.34178 3.9722,-0.71703 6.34503,-0.19632c2.37282,0.52071 4.32839,1.35817 5.80897,3.32536c1.48058,1.96719 1.2183,6.01158 1.2183,6.01158l1.22944,16.70775l0.79589,18.67433l2.08139,16.75c0,0 1.18681,10.242 0.75342,12.89696c-0.19046,1.16674 -3.25117,0.40372 -5.54705,0.62092c-2.29589,0.21721 -3.38528,0.22413 -3.38528,0.22413" fill="none" stroke="#000000" stroke-width="2" stroke-linecap="round"></path><path d="M354.16367,198.16671l-1.74198,-9.76084c0,0 -3.16395,-15.41389 -4.82275,-23.29826c-1.65882,-7.88437 -4.06641,-18.67031 -4.32606,-20.18648c-0.25965,-1.51617 0.34262,-4.08519 0.34262,-4.08519c0,0 -1.42833,-2.64791 -1.61134,-3.50309c-0.18301,-0.85518 0.38945,-2.20678 0.38945,-2.20678" fill="none" stroke="#000000" stroke-width="2" stroke-linecap="round"></path><path d="M363.92439,135.43527c0.21627,1.54334 -1.44578,3.3126 -2.54624,3.94966c-1.10046,0.63704 -3.47522,1.31929 -5.80453,1.75445c-2.3293,0.43516 -3.53605,0.38177 -5.81099,0.34971c-2.27493,-0.03206 -4.90512,-0.34739 -5.9101,-0.95116" fill="none" stroke="#000000" stroke-width="2" stroke-linecap="round"></path><path d="M363.9136,137.92948c0,0 3.30045,-0.99362 3.63717,0.20139c0.33672,1.19501 2.70231,22.29704 2.70231,22.29704l-3.95914,3.18481" fill="none" stroke="#000000" stroke-width="2" stroke-linecap="round"></path><path d="M368.48716,162.44043l0.93825,25.4017c0,0 1.78082,0.2551 2.40931,3.92768c0.62849,3.6726 0.30622,6.77022 0.07853,7.73226c-0.22769,0.96203 -2.20403,1.24875 -2.20403,1.24875" fill="none" stroke="#000000" stroke-width="2" stroke-linecap="round"></path><path d="M342.74747,144.22304c0,0 -1.99683,0.10149 -3.19903,0.56236c-0.87592,0.3358 -1.59045,2.42724 -1.59045,2.42724l-7.48033,0.50404" fill="none" stroke="#000000" stroke-width="2" stroke-linecap="round"></path><path d="M352.92456,188.71082l15.05622,3.84089" fill="none" stroke="#000000" stroke-width="2" stroke-linecap="round"></path><path d="M353.59762,192.78338l14.73863,3.32813" fill="none" stroke="#000000" stroke-width="2" stroke-linecap="round"></path><path d="M368.80239,200.54485l-14.44355,-3.20847" fill="none" stroke="#000000" stroke-width="2" stroke-linecap="round"></path><path d="M352.30981,138.08552c-5.5476,0.93281 -5.96566,-1.66257 -5.82559,-2.65504c0.21562,-1.52775 3.3554,-2.34396 5.54385,-2.53218c2.40344,-0.20673 6.84211,0.22683 6.60013,2.14042c-0.3487,2.75761 -4.15229,2.68256 -6.3184,3.04678z" fill="#000000" stroke="none" stroke-width="2" stroke-linecap="butt"></path><path d="M367.27198,141.2112l-2.0736,0.87721" fill="none" stroke="#000000" stroke-width="2" stroke-linecap="round"></path><path d="M335.69975,142.21444c-0.11921,0.84465 -1.07697,1.32983 -1.96384,1.20466c-0.88689,-0.12518 -1.56406,-1.07511 -1.38997,-1.75602c0.2113,-0.82643 1.18674,-1.00239 2.0736,-0.87721c0.88687,0.12519 1.39942,0.58391 1.28021,1.42855z" fill="#000000" stroke="none" stroke-width="2" stroke-linecap="butt"></path><path d="M338.24825,137.97261l2.09609,-0.48406c0,0 -0.49599,0.74276 -0.61232,1.24219c-0.14227,0.61069 -0.40864,2.12335 -0.40864,2.12335z" fill="#000000" stroke="none" stroke-width="2" stroke-linecap="butt"></path><path d="M329.75155,144.57254c0,0 0.89059,1.03081 1.49681,1.40644c0.58859,0.3647 2.08915,0.81549 2.08915,0.81549l3.74544,0.0392l2.83668,-2.51738c0,0 1.38518,-0.77159 1.86994,-1.26559c0.44456,-0.45305 0.92846,-1.58616 0.92846,-1.58616l0.85448,2.52081l-0.05158,2.61228c0,0 -0.89574,-0.79631 -1.44734,-0.95057c-0.7373,-0.20619 -2.58326,-0.17658 -2.58326,-0.17658l-0.51444,1.38298c0,0 -0.0909,0.76673 -0.09979,1.24599c-0.01187,0.64049 0.03484,2.25548 0.03484,2.25548c0,0 -0.65894,-1.01012 -1.04822,-1.42839c-0.32268,-0.3467 -1.12543,-0.90701 -1.12543,-0.90701l-2.322,0.23392c0,0 -1.91109,0.27273 -2.46765,0.68945c-0.68135,0.51017 -1.32234,2.14823 -1.32234,2.14823z" fill="#000000" stroke="none" stroke-width="2" stroke-linecap="butt"></path></g></g></g></svg>