<svg version="1.1" xmlns="http://www.w3.org/2000/svg" xmlns:xlink="http://www.w3.org/1999/xlink" width="13.27833" height="24.3426" viewBox="0,0,13.27833,24.3426"><g transform="translate(-233.36084,-168.74536)"><g data-paper-data="{&quot;isPaintingLayer&quot;:true}" fill-rule="nonzero" stroke="none" stroke-width="0" stroke-linecap="butt" stroke-linejoin="miter" stroke-miterlimit="10" stroke-dasharray="" stroke-dashoffset="0" style="mix-blend-mode: normal"><path d="M234.31051,187.72307v-18.88537h11.82906v18.88537z" fill="#00ff0d"></path><g><path d="M234.70228,168.83351l0.37097,-0.02268l0.04721,15.71164c0,0 1.98121,1.63713 6.23943,0.64975c2.82712,-0.90389 3.55918,-3.28114 3.55918,-3.28114l-0.00338,-13.06871l0.49876,-0.00737c0,0 0.26214,14.61679 -0.0991,15.70786c-0.31441,0.94963 -1.6617,2.75691 -2.11496,3.18728c-0.64005,0.60774 -2.74937,0.3054 -4.35732,0.20847c-0.40405,-0.02436 -4.00786,-0.30689 -4.41878,-1.07576c-0.43253,-0.80931 0.27802,-18.00936 0.27802,-18.00936z" fill="#ffffff"></path><path d="M234.71875,168.7912l0.02513,17.86383c0,0 2.24198,1.18148 5.16239,0.83554c2.94606,-0.34897 5.25471,-2.03781 5.41438,-4.17516c0.03873,-0.51844 -0.03029,-14.53322 -0.03029,-14.53322l1.33544,-0.03683c0,0 0.05051,16.16488 -0.04476,19.82347c-0.35671,2.50168 -3.90389,4.23513 -6.35139,4.44665c-3.79532,0.4695 -6.66372,-1.46229 -6.70936,-2.32807c-0.27865,-5.28662 -0.10734,-21.89792 -0.10734,-21.89792z" fill="#004e5b"></path></g></g></g></svg>