<svg version="1.1" xmlns="http://www.w3.org/2000/svg" xmlns:xlink="http://www.w3.org/1999/xlink" width="211.52752" height="148.27385" viewBox="0,0,211.52752,148.27385"><g transform="translate(-113.83209,-91.36296)"><g data-paper-data="{&quot;isPaintingLayer&quot;:true}" fill-rule="nonzero" stroke-linejoin="miter" stroke-miterlimit="10" stroke-dasharray="" stroke-dashoffset="0" style="mix-blend-mode: normal"><g stroke="#ff0000" stroke-width="0" stroke-linecap="round"><path d="M207.84282,134.13342l3.71234,5.35159c0,0 -4.06539,29.39459 -4.05703,30.01656c0.04066,3.02618 1.95502,37.78876 1.95502,37.78876l-2.16554,11.35181l-40.58983,2.59473l-6.65126,-7.64075c0,0 -1.50651,-13.63219 -1.55492,-20.82769c-0.05626,-8.35965 0.34999,-26.36339 0.34999,-26.36339l-4.51337,-11.8383l4.79024,-11.97149z" fill="#000000"></path><path d="M156.17941,154.56671l4.64043,-10.70314l44.7027,-6.48675l2.93894,3.72987l-3.76068,14.76827l0.04837,24.96305l1.85617,26.91999l-1.54681,8.75714l-36.96867,2.10819l-5.72319,-7.2976c0,0 -2.14202,-20.24895 -2.39335,-28.38752c-0.20176,-6.53367 1.00123,-16.69534 1.00123,-16.69534z" fill="#2d00e3"></path><path d="M156.17941,154.56671l4.64043,-10.70314c0,0 24.97033,-3.62341 33.17269,-4.81365c2.56923,-0.37283 -9.58038,5.85674 -20.62959,10.09482c-7.2903,2.7963 -14.8003,4.17619 -14.8003,4.17619c0,0 -1.26955,3.95756 -1.37113,3.71022c-0.4447,-1.08286 -1.01208,-2.46442 -1.01208,-2.46442z" fill="#3300ff"></path><path d="M204.40507,155.81295l0.04837,24.96305l1.85618,26.92l-1.54681,8.75713l-36.72981,2.10819l-5.27838,-7.06442c0,0 2.38016,-20.48212 2.12884,-28.62069c-0.20177,-6.53367 1.00122,-16.69533 1.00122,-16.69533c0,0 11.6811,-3.14402 17.84902,-4.80412c1.21452,-0.32689 9.30504,-8.56224 10.31998,-8.83543c0.96046,-0.25852 10.35139,3.27165 10.35139,3.27165z" fill="#2d00e3"></path></g><path d="M218.24029,105.92869c18.10609,-0.36652 30.17966,7.91985 35.84698,24.85991c3.57259,10.67877 5.58574,23.58651 6.11255,36.3515c1.36473,33.06756 -4.84138,65.83825 -4.84138,65.83825c0,0 -2.58179,2.00669 -5.18189,2.42946c-2.286,0.3717 -6.64085,1.19449 -8.69048,1.20211c-0.17291,0.00065 -5.21981,-0.5872 -7.62893,-1.09612c-3.11778,-0.6586 -7.73743,-3.41153 -7.73743,-3.41153c0,0 -1.14386,-18.35447 -1.04887,-20.10268c0.0231,-0.42511 0.55733,0.09519 0.02735,0.12718c-0.79274,0.04789 -3.05854,0.14568 -5.69047,3.52084c-0.10225,0.13114 -1.99312,12.2301 -2.07524,12.76632c-0.46142,3.01226 -2.19477,7.45836 -2.60696,7.8726c-0.27736,0.27874 -3.58811,2.5172 -6.25241,2.96843c-2.83488,0.48012 -8.12062,0.46936 -11.87053,0.17867c-0.11459,-0.00888 -6.66445,-1.18288 -8.51952,-1.36615c-5.71335,-0.56439 -7.29543,-5.37613 -7.29543,-5.37613c0,0 0.65586,-26.30296 0.62035,-54.21974c-0.02598,-20.42731 -0.11038,-42.14438 6.81329,-57.01588c5.34939,-11.49008 15.31477,-15.22938 30.01906,-15.52702z" fill="#000000" stroke="#ff0000" stroke-width="0" stroke-linecap="round"></path><path d="M218.4287,108.02233c9.49268,-0.19216 17.71392,2.17056 23.40464,6.90434c12.00599,9.98705 15.64931,29.65882 16.57371,52.05688c1.36473,33.06754 -4.62127,64.60737 -4.62127,64.60737c0,0 -1.99476,1.09315 -4.59487,1.51593c-2.47887,0.40305 -5.92361,0.88423 -7.93813,0.80991c-2.01699,-0.07442 -4.62014,-0.29573 -7.28064,-0.85776c-3.11778,-0.6586 -5.75623,-2.41144 -5.75623,-2.41144c0,0 -1.07047,-17.58517 -0.97548,-19.33337c0.05767,-1.06098 2.82447,-2.131 2.82447,-2.131c0,0 -7.36251,-1.4567 -11.72506,4.64534c-1.93539,2.70711 -2.12341,7.95743 -2.70135,12.77131c-0.07399,0.61628 -0.15435,1.22536 -0.2456,1.82106c-0.46142,3.01226 -1.66279,5.65051 -2.07497,6.06474c-0.27736,0.27874 -1.9371,1.82482 -4.6014,2.27606c-2.92152,0.4948 -6.6891,0.93066 -10.56377,0.7335c-2.09108,-0.1064 -4.35737,-0.69916 -6.21242,-0.88241c-5.71335,-0.56439 -8.8119,-4.19653 -8.8119,-4.19653c0,0 0.55803,-26.40552 0.52252,-54.32229c-0.03349,-26.33445 -0.66796,-51.44332 12.6207,-63.23699c4.98326,-4.42264 12.95635,-6.64829 22.15709,-6.83453z" fill="#3300ff" stroke="#ff0000" stroke-width="0" stroke-linecap="round"></path><path d="M253.36185,233.07207c0,0 -1.99476,0.87766 -4.59487,1.21709c-2.47887,0.3236 -5.9236,0.70992 -7.93812,0.65025c-2.01699,-0.05975 -4.62015,-0.23744 -7.28065,-0.68867c-3.11778,-0.52876 -5.75623,-1.93606 -5.75623,-1.93606c0,0 -1.07046,-14.11852 -0.97547,-15.52208c0.05767,-0.85182 2.2183,-1.7109 2.2183,-1.7109c0,0 -6.75632,-1.16953 -11.11888,3.72958c-1.93539,2.17344 -2.12341,6.38873 -2.70135,10.25364c-0.07399,0.49479 -0.15436,0.98379 -0.24561,1.46206c-0.46142,2.41843 -1.66278,4.5366 -2.07496,4.86917c-0.27736,0.22379 -1.93711,1.46509 -4.60141,1.82737c-2.92152,0.39726 -6.68908,0.7472 -10.56376,0.58891c-2.09108,-0.08543 -4.35736,-0.56133 -6.21243,-0.70846c-5.71335,-0.45313 -8.81191,-3.36925 -8.81191,-3.36925c0,0 0.55803,-21.20006 0.52253,-43.61346c-0.01842,-11.61823 -0.21828,-22.93932 1.81033,-32.35275c1.32262,-6.13736 -0.62316,9.14368 5.79486,27.07325c1.65215,4.61551 5.22885,9.17584 7.94337,13.86337c2.11246,3.64788 7.55353,7.36053 14.5693,8.96576c4.00328,0.91595 15.82982,1.93877 15.78548,1.94431c-0.79648,0.09937 6.12717,5.10051 5.60042,8.57215c-0.5094,3.35744 0.68635,6.51662 1.10616,7.15131c0.34892,0.5275 2.02316,1.58964 3.99359,2.09955c1.75654,0.45457 3.74846,0.41954 5.24665,-0.03087c1.19555,-0.35941 5.56688,-3.34233 8.28455,-6.3049c1.51243,-1.64873 1.67427,-3.77973 2.50105,-4.27774c0.80007,-0.48193 -0.64177,4.88701 -0.61381,4.9472c0.50597,1.0891 -1.8871,11.30022 -1.8871,11.30022z" fill="#2d00e3" stroke="#ff0000" stroke-width="0" stroke-linecap="round"></path><path d="M187.88125,236.04379c-2.97118,-1.08694 -5.12943,-2.85836 -5.12943,-2.85836c0,0 0.55803,-26.40551 0.52253,-54.32228c-0.00869,-6.83497 -0.05787,-13.58736 0.1064,-20.04583c0.10731,-4.21884 2.2707,29.1143 4.70417,53.7026c0.36714,3.70971 1.65529,12.6512 7.3138,17.00503c3.42562,2.63578 10.91917,2.71108 13.73255,1.43831c1.81772,-0.82234 2.55445,-11.88221 6.5786,-16.79487c4.64676,-5.67274 12.56075,-5.05389 13.46257,-4.75367c0.07536,0.02509 -4.85956,-0.06241 -8.03002,2.10161c-3.03293,2.07014 -4.30579,6.2245 -4.31266,6.59245c-0.04686,2.51251 -0.90989,8.23893 -2.02999,12.46306c-0.78789,2.97135 -2.36357,5.02618 -2.36745,5.09049c-0.06713,1.11251 -5.38598,2.40824 -10.81146,2.30829c-6.51027,-0.11991 -13.34534,-1.78262 -13.73961,-1.92688z" fill="#2d00e3" stroke="#ff0000" stroke-width="0" stroke-linecap="round"></path><path d="M227.60734,230.95519c0,0 -1.07047,-17.58517 -0.97548,-19.33338c0.05767,-1.06098 2.2183,-2.131 2.2183,-2.131c0,0 -0.5857,16.19813 6.73498,20.0619c1.67866,0.88598 7.92871,2.58403 12.13677,0.7457c3.55,-1.55086 5.24268,-6.5787 5.59311,-7.03433c1.28885,-1.67572 1.52983,-7.41644 2.15803,-7.43029c1.08746,-0.02399 -1.97758,16.03575 -1.97081,16.12846c0.04932,0.67604 -4.94435,1.93291 -9.82397,2.12783c-5.08351,0.20307 -10.06719,-0.67119 -10.31471,-0.72347z" fill="#2d00e3" stroke="#ff0000" stroke-width="0" stroke-linecap="round"></path><g stroke-linecap="butt"><path d="M216.09023,146.93508c1.02814,-2.31562 2.93715,-1.0685 2.93715,-1.0685c4.55233,2.97403 9.3212,6.38064 14.27867,8.2601c3.79539,1.43889 7.64538,2.45497 11.37242,4.26763l2.191,0.70532c0.26731,0.078 0.52676,0.21939 0.76328,0.42709c0.97002,0.85174 1.18714,2.49607 0.48496,3.67269c-0.53758,0.90079 -1.45813,1.26634 -2.29545,1.00602l-3.39285,-0.9552c-2.76475,-0.00281 -5.42171,-1.56316 -8.22652,-1.57562c-6.65019,-0.02955 -13.91297,-0.11102 -20.48087,1.15226c-2.80778,0.54005 -5.68312,2.05701 -8.43224,2.97803l-2.3779,0.04694c-0.45561,0.11253 -1.00939,0.07241 -1.54467,-0.41988c-0.35887,-0.26017 -0.69834,-0.67878 -0.85287,-1.35228c-0.21302,-0.6496 -0.15169,-1.23205 0.00419,-1.70263c0.17309,-0.75273 0.56724,-1.18685 0.96869,-1.4372c4.36131,-4.17762 9.20788,-9.40584 14.42103,-11.88718c-0.17687,-0.55445 -0.19734,-1.26331 0.18196,-2.11759z" fill="#3f7ce2" stroke="none" stroke-width="0.5"></path><path d="M221.78595,144.27453c0.61247,-0.20407 1.21266,-0.3625 1.80734,-0.4934c1.92067,-1.03904 3.78713,-1.84773 5.87794,-2.51945c1.97221,-0.38512 3.933,-0.60139 5.87651,-0.64704c1.7948,-0.67283 3.61228,-1.2196 5.51594,-1.23387c1.5692,-0.01175 3.11271,0.5154 4.67925,0.62671l1.99025,0.48082c0,0 1.9963,0.51196 1.70636,2.89162c1.61033,0.70772 3.19599,1.55191 4.75292,2.53381c3.09913,1.9545 6.38866,3.3839 9.10745,6.15335c3.64639,3.71433 6.98563,16.59329 3.16021,13.15408c-0.02842,-0.02238 -0.04354,-0.03563 -0.04354,-0.03563l0.0015,-0.00295c-0.07963,-0.07459 -0.15048,-0.14949 -0.21187,-0.2198c-0.50002,-0.19998 -1.00002,-0.4 -1.50003,-0.59998c-3.8318,0.06876 -7.80978,0.04753 -11.62495,-0.41581c-2.4581,-0.29854 -4.74171,-1.37035 -7.17616,-1.80742c-2.37195,-0.42586 -5.26837,-0.34226 -7.56048,-1.24852c-6.17841,-2.44289 -17.83857,-8.48081 -23.28586,-12.75292c0,0 3.43578,-0.18922 4.61314,-2.39781c0.5494,-1.03063 1.23892,-1.26933 1.81815,-1.2308c0.11544,-0.06987 0.22982,-0.12492 0.33733,-0.16828c0.09792,-0.04632 0.15866,-0.06668 0.15866,-0.06668z" fill="#98fdff" stroke="none" stroke-width="0.5"></path><path d="M200.51341,160.65079c0.56382,-0.94475 1.54889,-1.30072 2.41737,-0.96342l1.23575,-1.51756l1.30032,-1.4066c0,0 0.12102,-0.13022 0.32627,-0.27939c0.01736,-0.25139 0.0661,-0.52406 0.15445,-0.81918c0.73999,-2.47219 2.77807,-1.57457 2.77807,-1.57457c4.05195,1.78944 8.11693,2.3811 12.31839,3.17899c0.71285,0.0813 1.40103,0.18487 2.05533,0.30902c0,0 0.12711,0.02535 0.31427,0.10127c0.39344,0.14959 0.93525,0.4691 1.25022,1.13895c0.20364,0.41461 0.31739,0.96199 0.23579,1.68184c-0.0672,0.72202 -0.28869,1.21851 -0.57032,1.55943c-0.44137,0.55498 -1.0314,0.70262 -1.44309,0.72995c-0.19681,0.01759 -0.32515,0.00416 -0.32515,0.00416l-1.17283,-0.13065c-0.40618,-0.08107 -0.81099,-0.1597 -1.21455,-0.23691c-4.36343,-0.44671 -9.61526,0.22232 -13.39102,2.00191l-0.36005,-0.10585l0.00643,0.16213l-2.20155,0.12871c-0.288,0.01985 -0.58034,-0.02963 -0.85885,-0.1519c-0.71969,0.51241 -1.65099,0.49396 -2.37028,-0.13761c-0.97002,-0.85174 -1.18714,-2.49607 -0.48496,-3.67269z" fill="#00aeff" stroke="none" stroke-width="0.5"></path><path d="M259.93057,149.80797c0.07062,0.05285 0.1413,0.10563 0.21204,0.15838c0.42128,0.18676 0.8508,0.55641 1.10122,1.27203c0.20472,0.44236 0.32955,1.01105 0.18824,1.68662c-0.08159,0.68988 -0.37568,1.15799 -0.70394,1.47233c-0.46364,0.55457 -0.98601,0.69351 -1.43918,0.66579l-2.22644,0.39737c-8.71569,-1.94913 -17.1539,-5.14338 -23.73547,-12.48372c0,0 -1.5958,-1.78059 -0.12786,-3.71627c1.19483,-1.57557 2.47437,-0.689 2.90911,-0.30458c0.40221,-0.31869 0.87969,-0.46406 1.35263,-0.42051l2.17092,0.1578c1.58152,-0.00362 3.68568,-0.10938 5.21263,0.36127c2.75929,0.85048 4.98377,3.26743 7.37896,4.96954c1.11008,0.78885 2.19992,1.60108 3.28369,2.4221c0.82834,0.21368 1.6649,0.49377 2.52953,0.92964l0.98954,0.78574c0,0 0.72012,0.63232 0.90436,1.64647z" fill="#ffffff" stroke="none" stroke-width="0.5"></path><path d="M244.37549,139.48858c17.63833,6.73165 24.81,21.20679 23.90319,24.70273c-0.90679,3.49593 -13.59499,0.58445 -32.02596,-1.21834c-20.46128,-2.00138 -37.76324,4.11982 -36.85644,0.62386c0.90681,-3.49596 27.34086,-30.83992 44.97921,-24.10827z" fill="none" stroke="#13263b" stroke-width="3"></path></g><g stroke="#33ff00" stroke-width="0" stroke-linecap="round"><g><path d="M147.69866,134.08659c0,0 0.31759,-2.67258 1.47432,-2.69055c0.68236,-0.0106 3.88921,0.63897 6.32795,1.36246c1.69538,0.50297 2.97121,1.16075 2.97121,1.16075l1.66418,1.20359l-0.82429,1.63741c0,0 -0.40242,0.60868 -6.0264,-0.63078c-6.50929,-1.43459 -5.58695,-2.04287 -5.58695,-2.04287z" fill="#000000"></path><path d="M150.33863,132.83314l3.94318,0.98154c0,0 -0.38382,0.48014 -0.49089,0.74387c-0.10688,0.26324 -0.15097,0.83698 -0.15097,0.83698l-4.19803,-1.00856c0,0 -0.14448,-0.79102 0.01625,-1.06953c0.13283,-0.23018 0.88047,-0.48433 0.88047,-0.48433z" fill="#5c5c85"></path><path d="M156.49999,134.35275l2.22619,1.17307l-0.20313,0.93679l-2.48951,-0.5245c0,0 0.43658,-0.60851 0.51593,-0.8782c0.07599,-0.25825 -0.04947,-0.70714 -0.04947,-0.70714z" fill="#d8c6f9"></path></g><g><path d="M163.96433,141.44547c0,0 -9.38958,20.97035 -13.05362,30.05322c-3.03979,7.53539 -7.40973,20.67367 -7.40973,20.67367c0,0 -2.06776,5.4959 -4.20891,9.90567c-1.58541,3.2652 -3.28089,5.86503 -3.84207,5.56251c-1.10873,-0.59768 -2.37291,-1.34657 -3.70309,-2.17472c-0.40571,-0.25257 2.90918,-9.70444 7.22419,-20.42955c8.1777,-20.3261 21.75006,-47.41813 22.25764,-47.10912c0.33448,0.20363 0.83233,0.50674 0.83233,0.50674z" fill="#000000"></path><path d="M162.56875,141.93739c0,0 -10.33809,21.69987 -14.00214,30.78271c-3.03979,7.53539 -12.28244,33.74748 -12.84361,33.44497c-1.10873,-0.59768 -1.34768,-0.39062 -2.67786,-1.21876c-0.40571,-0.25257 3.25188,-8.94186 7.56689,-19.66699c8.1777,-20.3261 20.98123,-45.4252 20.98123,-45.4252z" fill="#251d47"></path></g><g><path d="M117.66836,197.30957l-3.83626,-0.01398l3.15325,-9.25228c0,0 1.63483,-1.36972 2.18477,-2.15917c0.53029,-0.7612 1.05813,-2.49583 1.05813,-2.49583l12.85171,-32.64704l-0.81988,-2.11504c0,0 2.2709,-5.71861 3.36033,-8.34097c1.0782,-2.59536 3.14289,-7.31305 3.14289,-7.31305l5.66453,0.38463c0,0 -11.56649,22.98599 -16.15959,33.83139c-4.22004,9.96452 -10.37473,28.8225 -10.37473,28.8225z" fill="#000000"></path><path d="M139.73342,135.27234l3.04854,0.28945l-6.5614,13.21438l-0.63841,-3.62619z" fill="#5c5c85"></path><path d="M140.95046,135.38788c0.54833,0.05208 1.83145,0.17389 1.83145,0.17389c0,0 -0.29342,0.59094 -0.5948,1.19793c-0.50335,1.01374 -1.68589,0.13953 -1.92447,-0.50488c-0.21385,-0.57762 0.47655,-0.88701 0.68783,-0.86695z" fill="#d8c6f9"></path></g><g><path d="M131.94859,205.59109c-1.23549,-0.76553 -2.5325,-1.60332 -3.8183,-2.45479c-0.33497,-0.22182 2.91084,-11.61061 8.57566,-25.94892c5.42033,-13.7195 18.66423,-41.52646 18.93737,-41.45106c1.95064,0.53855 3.66866,1.02391 3.66866,1.02391l2.74909,1.67364c0,0 -10.11774,18.45878 -17.73902,35.88575c-7.12608,16.29465 -11.76646,31.64759 -12.37347,31.27146z" fill="#000000"></path><path d="M131.66259,204.15677c-1.0429,-0.65544 -2.07798,-1.26081 -3.14717,-1.96885c-0.33497,-0.22182 3.23196,-10.79488 8.89677,-25.13319c5.42032,-13.7195 18.42478,-39.59784 18.6979,-39.52244c1.95064,0.53855 3.7615,2.27774 3.7615,2.27774c0,0 -8.84613,16.9335 -16.46741,34.36047c-7.12608,16.29465 -11.53035,30.11905 -11.7416,29.98628z" fill="#251d47"></path><path d="M139.30651,172.46936c6.07014,-14.19042 16.55855,-35.00473 16.80355,-34.93709c1.95064,0.53855 3.7615,2.27774 3.7615,2.27774c0,0 -8.84613,16.93351 -16.46741,34.36047c-2.8094,6.42403 -4.97229,7.05038 -5.52147,6.226c-0.84383,-1.26666 1.00155,-6.93991 1.42383,-7.92711z" fill="#5c5c85"></path></g><g><path d="M128.13029,203.13631c-0.77441,-0.51283 -0.43312,1.44301 -1.18349,0.93307c-4.29851,-2.9212 -9.05336,-8.05864 -9.05336,-8.05864c0,0 -1.26243,-1.16537 -0.96702,-2.76248c0.10516,-0.56854 0.35585,-1.44737 0.67471,-2.45102c0.11392,-0.35853 0.23651,-0.73301 0.3643,-1.11495c0.4215,-1.25992 0.89935,-2.60122 1.30695,-3.72044c0.10895,-0.29918 0.21288,-0.58247 0.30936,-0.84411c0.38126,-1.0338 0.64645,-1.72944 0.64645,-1.72944c0,0 0.29212,-0.73334 0.72861,-1.82911c0.11132,-0.27945 0.23204,-0.58248 0.35969,-0.90293c0.45411,-1.14001 0.99603,-2.50048 1.51542,-3.80432c0.16642,-0.41777 0.33052,-0.82974 0.48866,-1.22677c2.44944,-6.14913 10.41795,-26.15342 10.41795,-26.15342c0,0 4.78529,-8.89666 6.75865,-11.87166c1.31699,-1.98546 3.93059,-4.24322 3.93059,-4.24322l2.97888,0.51858c0,0 2.18453,0.27695 3.44716,0.5829c1.20822,0.29278 3.67571,0.96821 5.63526,1.51217c0.87332,0.24243 -9.63176,17.96897 -17.61492,36.40041c-0.60868,1.40531 -3.79828,9.15726 -6.41651,17.27195c-2.04853,6.349 -4.06289,13.6686 -4.32735,13.49345z" fill="#000000"></path><g><path d="M126.196,201.01011c-1.01761,-0.17901 -7.76799,-5.66122 -7.76799,-5.66122c0,0 9.32886,-28.06626 14.47355,-38.25237c5.14468,-10.18611 11.88715,-22.33618 11.88715,-22.33618c0,0 7.55016,1.80771 9.50971,2.35167c0.87332,0.24243 -7.83217,16.847 -15.81532,35.27845c-9.50705,21.94977 -11.26947,28.7987 -12.28706,28.6197z" fill="#5c5c85"></path><path d="M134.17191,158.13163c-1.0176,-0.179 -15.74397,37.21723 -15.74397,37.21723c0,0 9.32888,-28.06627 14.47355,-38.25238c5.14468,-10.18611 11.88714,-22.33617 11.88714,-22.33617c0,0 7.55017,1.80771 9.50972,2.35167c0.36824,0.10222 -8.29462,-2.4201 -10.05521,0.86013c-5.46761,10.18702 3.63382,13.83937 3.60691,13.89636c-1.72954,3.66287 -3.67696,7.81304 -5.67863,12.21962c-0.26817,0.59038 -4.76208,-10.78322 -6.09998,-10.02276c-2.95306,1.6785 1.55529,8.97487 3.59133,12.04669c0.54341,0.81984 1.14088,1.00978 1.09848,1.10461c-0.26595,0.59486 -0.53218,1.19321 -0.79832,1.79457c-0.49444,1.11722 -4.77339,-10.70056 -5.79099,-10.87955z" fill="#d8c6f9"></path><path d="M126.196,201.01011c-1.01761,-0.17901 -7.76799,-5.66122 -7.76799,-5.66122l7.02559,-15.91289l6.41405,3.61025c0,0 6.77563,-11.02573 6.61542,-10.65581c-9.50705,21.94977 -11.26947,28.79871 -12.28706,28.6197z" fill="#251d47"></path></g><g fill="#000000"><path d="M122.832,176.85193c0.16642,-0.41777 0.33052,-0.82973 0.48868,-1.22677c0.00097,-0.00243 2.79879,1.49428 5.7966,2.82229c2.86872,1.27082 5.94312,2.37541 5.94301,2.37572c-0.13196,0.34981 -0.26102,0.69533 -0.3872,1.03653c-0.01681,0.04548 -3.089,-1.31306 -6.11169,-2.59705c-2.89176,-1.22836 -5.74044,-2.383 -5.7294,-2.41073z"></path><path d="M119.27246,185.96187c0.10896,-0.29918 0.21288,-0.58248 0.30938,-0.84412c0.14576,-0.39524 5.57429,1.80708 9.19064,3.25536c1.55611,0.62319 3.34594,0.9756 3.29574,1.1378c-0.21455,0.69314 -0.41449,1.35888 -0.60108,1.99747c-0.06264,0.21441 -3.18834,-1.89447 -6.01703,-3.34075c-2.96007,-1.51344 -6.28563,-1.90917 -6.17764,-2.20575z"></path><path d="M120.9569,181.55918c0.11132,-0.27945 0.23203,-0.58249 0.35968,-0.90293c0.09926,-0.24921 2.60779,1.33465 5.41058,2.27599c3.30335,1.10945 6.96711,1.64779 6.87282,1.91922c-0.09927,0.28582 -0.19639,0.56811 -0.2914,0.84693c-0.11851,0.34778 -12.45768,-3.87308 -12.35169,-4.1392z"></path><path d="M117.60122,190.79726c0.11392,-0.35853 0.23651,-0.733 0.3643,-1.11495c0.19744,-0.59018 12.89436,3.97199 12.77959,4.39855c-0.14506,0.53918 -0.2795,1.05362 -0.40444,1.5435c-0.00429,0.01683 -2.27676,-1.6167 -5.14131,-2.67434c-3.46557,-1.27953 -7.63517,-2.0362 -7.59813,-2.15277z"></path></g></g></g><g stroke="#33ff00" stroke-width="0" stroke-linecap="round"><g><path d="M146.76341,191.47516c0,0 6.97181,2.61103 10.24595,4.0886c3.42835,1.54717 9.88281,4.99518 9.88281,4.99518c0,0 0.93035,3.855 -1.19111,9.76875c-2.42261,6.75325 -6.00568,7.29136 -6.00568,7.29136c0,0 -14.37064,-6.547 -21.0918,-10.06715c-1.10518,-0.57882 2.30793,-7.26964 4.6648,-11.20267c2.28285,-3.80953 3.49504,-4.87404 3.49504,-4.87404z" fill="#000000"></path><path d="M147.28374,193.33656c0,0 6.2503,2.30577 9.18978,3.60293c3.07794,1.35824 8.8816,4.37167 8.8816,4.37167c0,0 0.89242,3.29717 -0.8978,8.31454c-2.04438,5.72964 -5.22534,6.14738 -5.22534,6.14738c0,0 -12.9028,-5.746 -18.9451,-8.82398c-0.99354,-0.50612 1.93368,-6.17119 3.96646,-9.49726c1.96895,-3.22162 3.03043,-4.11528 3.03043,-4.11528z" fill="#251d47"></path><path d="M147.28374,193.33656c0,0 6.2503,2.30577 9.18978,3.60293c3.07794,1.35824 8.8816,4.37167 8.8816,4.37167c0,0 0.33958,1.25459 0.1796,3.3936c-0.02289,0.30595 -4.33282,-4.92617 -11.72433,-7.4723c-3.4354,-1.18339 -9.57401,0.24707 -9.55708,0.21938c1.96895,-3.22162 3.03042,-4.11529 3.03042,-4.11529z" fill="#5c5c85"></path></g><g><path d="M167.07814,202.1602c0.07867,1.66025 -0.06962,4.52291 -1.37707,8.16748c-2.42261,6.75325 -6.00567,7.29136 -6.00567,7.29136c0,0 -1.28648,-1.17105 -1.21353,-2.78301c0.13106,-2.89643 1.77372,-7.25849 2.71484,-9.10751c2.92072,-5.73836 5.83247,-4.60202 5.88146,-3.56832z" fill="#000000"></path><path d="M165.93729,203.24363c0.71702,0.34197 0.52439,3.31794 -0.42795,5.97266c-1.76463,4.9191 -3.8069,6.44309 -4.50477,6.13601c-0.52551,-0.23125 -0.93706,-0.85299 -0.88394,-2.02714c0.09547,-2.10977 0.98576,-4.50984 1.67126,-5.85666c2.12745,-4.17984 3.48026,-4.54206 4.14539,-4.22483z" fill="#251d47"></path><path d="M165.93729,203.24363c0.43628,0.20807 -1.02558,2.83412 -2.04145,3.41495c-0.65367,0.37373 -1.03884,-1.08473 -0.89337,-1.30507c1.44223,-2.18476 2.40595,-2.36213 2.93482,-2.10988z" fill="#5c5c85"></path></g></g><g stroke="#33ff00" stroke-width="0" stroke-linecap="round"><path d="M153.73228,191.26874c1.38797,0.61271 2.38418,2.506 2.38418,2.506c0,0 9.01642,-0.33347 10.79484,1.1743c1.77843,1.50777 2.15582,4.47439 -0.19251,6.30718c-0.81375,0.93284 -4.42492,-0.37751 -4.42492,-0.37751c0,0 -2.16305,2.83044 -3.63612,6.58651c-1.47307,3.75607 -1.39547,6.32752 -2.49562,7.90864c-1.4635,2.10332 -2.56684,4.60621 -7.44397,5.05012c-4.87713,0.44392 -13.59187,-0.32074 -16.80905,-3.03894c-1.8398,-1.55445 -2.55733,-2.94281 -3.58244,-4.26733c-0.76747,-0.99161 -1.82716,-1.8887 -3.00498,-3.11375c-2.66613,-2.77306 -7.64361,-6.06927 -8.29882,-7.41047c-1.33131,-2.72514 1.31329,-6.15141 2.70546,-7.24498c2.16755,-1.70261 8.63917,2.15019 8.63917,2.15019c0,0 0.49713,-1.74845 0.81834,-2.37611c1.19266,-2.3305 4.3608,-7.89045 7.73208,-8.53233c2.64183,-0.503 15.42644,4.06582 16.81439,4.67853z" fill="#000000"></path><path d="M152.76889,192.7795c0.77036,0.34006 1.91014,1.51955 1.334,2.79261c-0.03322,0.07341 -0.42922,0.50966 -0.89713,0.76705c-0.37766,0.20774 -0.83788,0.22467 -0.91522,0.41636c-0.30276,0.75028 -0.49098,1.07481 -0.06501,1.1052c0.42595,0.03039 1.90014,-1.18044 1.90014,-1.18044c0,0 8.6864,-2.22457 10.30552,-0.85185c1.61913,1.37271 2.73023,1.49878 1.39873,3.36704c-0.50117,0.70321 -2.32355,-1.40061 -3.09329,-0.89755c-2.05363,2.29562 -4.41098,5.4139 -5.7521,8.83354c-1.34112,3.41962 -2.32813,8.53446 -2.32813,8.53446c0,0 -3.55493,2.53826 -6.70411,2.82082c-6.38192,0.57262 -10.7904,-0.24731 -14.90309,-3.83954c-4.1127,-3.59223 -3.7224,-3.17824 -6.22707,-5.78332c-2.42734,-2.52466 -6.58588,-5.09863 -7.1824,-6.31971c-1.21204,-2.48105 -0.3693,-3.87002 1.58906,-5.43733c0.269,-0.21527 0.84202,-0.3317 1.28907,-0.1803c0.61201,0.20727 1.17538,0.79189 2.11615,1.1705c1.10826,0.446 2.72544,0.56491 3.46036,1.042c0.59891,0.3888 0.23949,5.3356 0.77339,5.20449c0.83299,-0.20455 1.00207,-3.75627 1.12387,-5.84623c0.04172,-0.71601 -0.11139,-1.13458 0.01162,-1.35904c1.46999,-2.682 4.80836,-8.18089 7.74214,-8.73947c2.4052,-0.45795 13.75985,3.82293 15.02349,4.38074z" fill="#3300ff"></path><path d="M138.44475,202.40003c0.14939,0.06595 0.84563,0.80284 1.37667,2.24204c0.49145,1.33187 0.76827,3.38937 2.32684,4.8207c1.43719,1.31988 4.03044,2.05618 7.37509,2.36822c1.23109,0.11485 4.30546,0.66689 4.72756,-0.27844c0.19816,-0.44379 -0.21817,-0.84124 -0.36207,-1.39159c-0.07745,-0.29622 0.07107,-0.66 0.10525,-1.04672c0.1093,-1.23669 0.94696,-2.54566 1.76974,-3.76282c1.53383,-2.26906 6.01382,-5.94442 5.95374,-5.8721c-1.77356,2.13508 -3.60981,4.7879 -4.73311,7.65211c-1.34112,3.41962 -2.32812,8.53446 -2.32812,8.53446c0,0 -3.55493,2.53826 -6.70411,2.82081c-6.38193,0.57262 -10.7904,-0.2473 -14.90309,-3.83954c-4.1127,-3.59223 -3.7224,-3.17824 -6.22707,-5.78333c-2.42734,-2.52466 -6.58587,-5.09861 -7.1824,-6.3197c-1.21204,-2.48105 -0.36931,-3.87002 1.58906,-5.43732c0.26899,-0.21527 -1.2513,2.1991 0.29986,3.76298c1.52843,1.54093 4.3125,1.03893 5.25327,1.41754c1.10826,0.44599 0.83183,4.25252 1.56675,4.72961c0.59891,0.3888 -0.01481,-2.54235 0.51909,-2.67345c0.83299,-0.20455 1.00207,-3.75627 1.12386,-5.84623c0.04172,-0.71601 -0.11138,-1.13458 0.01162,-1.35903c0.19693,-0.35933 0.42743,-0.7692 0.68597,-1.211c0.41755,-0.71349 1.08282,0.77093 1.23498,1.83654c0.16215,1.13559 -0.18467,1.93383 0.44187,3.73392c1.13878,3.27171 3.87869,6.45696 5.10817,6.22288c2.40519,-0.45793 0.97052,-5.32055 0.97052,-5.32055z" fill="#2d00e3"></path><path d="M128.18398,210.62113c0,0 0.69106,-0.97303 0.7602,-1.65109c0.03969,-0.38929 -0.20224,-1.07149 -0.28872,-1.66581c-0.08754,-0.60152 -0.01985,-1.11286 -0.01985,-1.11286c0,0 0.9007,1.75231 0.98109,2.62254c0.07693,0.83275 -0.5087,2.49133 -0.5087,2.49133z" fill="#000000"></path></g><g stroke="#33ff00" stroke-width="0" stroke-linecap="round"><path d="M135.8106,199.99212c-1.93446,-1.65931 -3.80755,-3.76467 -5.08051,-4.93086c-0.64694,-0.59266 -1.15634,-0.83155 -1.12315,-0.89323c0.91889,-1.70808 2.23664,-3.83711 3.76187,-5.34982c0.18671,-0.18518 1.72366,-1.57972 2.87223,-3.22777c2.86463,-4.11031 7.32499,-10.90444 11.78782,-12.55609c3.84761,-1.42397 16.05407,2.38737 16.16712,9.00169c0.15374,8.99628 -11.91897,4.61267 -11.91897,4.61267c0,0 -1.8165,3.50664 -1.59161,3.57838c0.43209,0.13785 -0.97507,0.85595 -2.90468,1.98729c-0.34415,0.20179 -0.57357,0.5006 -0.94348,0.72773c-0.38624,0.23713 -0.9138,0.40365 -1.31147,0.6663c-1.19332,0.78816 -2.39988,1.68632 -3.38986,2.66535c-2.80228,2.77124 -3.18825,6.33463 -3.02368,6.40144c0,0 -1.21913,-0.89684 -3.30158,-2.68309z" fill="#000000"></path><path d="M139.6145,203.85898c0.79882,0.32421 -9.14365,-7.53814 -8.58701,-8.48937c1.37072,-2.34241 3.2429,-5.03979 5.1174,-6.16343c0.37724,-0.22613 6.00843,-10.67912 10.86927,-14.46516c1.41564,-1.10262 5.54113,-0.67457 6.46772,-0.45455c3.01601,0.71622 11.89065,4.46667 9.68516,9.43245c-2.50338,5.63651 -11.14977,0.68097 -11.69217,1.78173c-1.64026,3.3288 -2.94149,6.41881 -3.16966,6.61378c-0.30712,0.26245 -1.13473,-0.23624 -1.59785,0.04439c-0.73557,0.44572 -1.19999,1.70306 -2.11103,2.35317c-0.14875,0.10613 0.31841,-0.51745 -0.25752,-0.52202c-0.78116,-0.00621 -2.65232,0.5969 -2.852,0.7669c-0.37986,0.32342 1.30779,1.24526 0.97942,1.57232c-0.38756,0.386 -0.72209,0.75617 -0.96304,1.06694c-0.38329,0.49436 -1.75755,-0.64567 -2.0198,-0.17924c-1.55658,2.76856 -0.10254,6.54728 0.13111,6.64213z" fill="#2d00e3"></path><path d="M131.02748,195.36958c1.37072,-2.34241 3.24289,-5.03978 5.11741,-6.16341c0.37724,-0.22613 6.00845,-10.67912 10.86927,-14.46516c0.9281,-0.72289 3.02096,-0.78785 4.61351,-0.68487c0.83658,0.05411 4.28644,4.80903 3.74215,7.49325c-0.54427,2.68422 -3.35255,2.8505 -3.89496,3.95125c-1.64026,3.3288 -2.5544,6.32319 -2.78258,6.51816c-0.30712,0.26245 -0.90711,0.63662 -1.37023,0.91725c-0.73557,0.44572 -1.81467,0.92582 -2.72573,1.57592c-0.14875,0.10613 -1.80175,1.49014 -2.13012,1.81722c-0.38756,0.386 -0.72209,0.75616 -0.96304,1.06694c-0.38329,0.49436 -1.94464,6.50331 -1.711,6.59814c0,0 -9.32136,-7.6734 -8.76471,-8.62466z" fill="#3300ff"></path></g><g stroke="#33ff00" stroke-width="0" stroke-linecap="round"><path d="M150.20762,167.44977c0,0 1.19934,1.11333 2.41087,1.41207c2.44353,0.60255 10.44321,1.58115 10.82064,2.38826c0.18035,0.38567 -3.26643,7.13455 -6.51624,13.30147c-2.8856,5.47574 -4.39924,7.69509 -4.39924,7.69509l-4.25015,-0.53907c0,0 3.43724,-6.68994 4.32305,-8.7684c1.51329,-3.55081 4.0969,-7.97273 4.0969,-7.97273c0,0 -5.19099,-0.96367 -6.87931,-1.10692c-0.91201,-0.07738 -2.44833,0.31552 -2.44833,0.31552c0,0 0.96875,-3.27363 1.49144,-4.51061c0.37348,-0.88385 1.35039,-2.21468 1.35039,-2.21468z" fill="#000000"></path><path d="M162.20183,171.9738c0.07752,0.16576 -10.1678,18.25015 -10.1678,18.25015l-1.61141,-0.03651c0,0 9.79416,-15.72234 8.43531,-17.13897c-1.30827,-1.36391 -10.96735,-0.58725 -10.88624,-0.84212c0.29582,-0.92967 0.63989,-1.96064 0.88551,-2.54189c0.18274,-0.43246 0.50996,-0.97192 0.79649,-1.41016c0.01368,-0.02093 0.77359,1.38332 2.40876,1.83988c3.67059,1.02485 10.04071,1.6686 10.13937,1.87961z" fill="#251d47"></path><path d="M162.20183,171.9738c0.07752,0.16576 -1.98506,2.49129 -3.34389,1.07469c-1.30827,-1.36391 -11.02301,-0.59559 -10.94193,-0.85045c0.29582,-0.92967 0.6399,-1.96064 0.88552,-2.5419c0.18274,-0.43246 0.50997,-0.97193 0.7965,-1.41018c0.01368,-0.02093 0.82929,1.39167 2.46445,1.84823c3.67059,1.02485 10.04071,1.66859 10.13937,1.87961z" fill="#5c5c85"></path></g><path d="M149.84429,191.62499c0,0 -2.92462,0.4455 -4.54382,1.59495c-2.17718,1.54556 -2.67903,2.77803 -3.23674,2.95917c-1.14905,0.3732 -1.03437,-1.34966 -0.43101,-1.82516c0.95267,-0.75079 2.1383,-0.58404 3.27664,-1.34179c1.9749,-1.31461 4.81282,-3.8095 4.81282,-3.8095z" fill="#000000" stroke="#2dff00" stroke-width="0" stroke-linecap="round"></path><g fill="#67080a" stroke="#000000" stroke-width="2" stroke-linecap="round"><path d="M189.82823,165.39318l7.00316,9.43902l-3.65382,8.22109l-3.64875,-4.87273z"></path><path d="M202.31211,182.44433l-4.87176,8.52557l-2.74036,-4.56727l8.83006,-10.96145z"></path><path d="M213.88257,187.01162h12.78837l4.56727,7.91661l11.26594,-4.26279l4.56727,2.43588l5.78521,-0.60897l-11.87491,11.87491l-20.096,2.13139l-8.83006,-9.13454l-7.91661,0.30448l-2.74036,-8.83006l7.91661,-10.65697z"></path></g><g><path d="M313.34731,178.74123c0,1.27806 -1.11467,2.4049 -2.04189,2.4049c-0.92721,0 -6.30714,-5.48284 -6.30714,-6.76091c0,-0.68607 -14.48185,-2.59907 -13.7986,-3.04707c0.13908,-0.09119 0.21319,-3.18912 1.63772,-3.15488c4.61401,0.11093 14.78211,3.79707 15.11028,3.79707c0.11041,0 -4.59669,-3.06772 -5.99912,-6.87686c-2.56214,-6.95902 -2.94315,-16.78628 -2.41981,-16.222c0.4755,0.51268 0.59185,-4.89475 8.2913,-3.91376c2.5587,0.326 11.40666,2.77872 14.13216,7.12553c3.43049,5.47117 1.19005,12.92852 2.03755,14.8448c1.81662,4.10757 -3.66836,8.59958 -7.21876,10.62528c-2.01304,1.14855 -3.42367,1.03756 -3.42367,1.17792z" fill="#516087" stroke="none" stroke-width="0" stroke-linecap="butt"></path><path d="M314.25478,151.69761c0,0.82698 -1.03608,1.49738 -2.31413,1.49738c-1.27807,0 -2.31414,-0.67039 -2.31414,-1.49738c0,-0.82698 1.03607,-1.49738 2.31414,-1.49738c1.27807,0 2.31413,0.6704 2.31413,1.49738z" fill="#9ec6c6" stroke="none" stroke-width="0" stroke-linecap="butt"></path><path d="M307.81153,171.61733c0,0.5961 -0.58463,1.29227 -1.05662,1.90921c-0.48044,0.62799 -0.85077,1.17388 -1.12138,1.44855c-0.94977,0.96395 -5.26353,-1.61038 -5.26353,-2.81326c0,-0.81465 0.60967,-2.90111 1.8922,-3.16719c0.17418,-0.03614 -3.99646,-0.77332 -7.34115,-0.91815c-1.88009,-0.08141 -3.87166,1.63832 -3.77392,-0.16828c0.05261,-0.97215 -1.25429,-2.38822 -1.47966,-4.18692c-0.32097,-2.56177 0.52522,-5.71303 1.82629,-7.86508c1.07912,-1.78494 2.22025,-5.26886 3.80559,-6.60726c3.79946,-3.20765 8.42842,-3.13247 8.42842,-3.13247c0,0 -2.26474,2.51494 -1.25326,8.67942c0.33621,2.04898 2.00334,8.56429 5.58492,12.66823c4.60509,5.27672 11.30351,8.22673 11.30351,8.22673c0,0 -2.50495,3.58905 -4.51174,2.8618c-1.61187,-0.58415 -2.91963,-2.47599 -4.22878,-4.00334c-1.44388,-1.68457 -2.8109,-2.9847 -2.8109,-2.93196z" fill="#393b47" stroke="none" stroke-width="0" stroke-linecap="butt"></path><path d="M293.0589,172.63976c0,0 1.25807,-1.79353 1.8237,-2.57463c0.42744,-0.59028 1.27316,-1.70199 1.27316,-1.70199l7.07853,1.32722c0,0 -0.3517,1.29803 -0.78661,1.84738c-0.49201,0.62147 -2.01531,1.69188 -2.01531,1.69188z" fill="#9ec6c6" stroke="none" stroke-width="0" stroke-linecap="butt"></path><path d="M291.43674,214.59479c0,1.18095 -1.3029,2.43324 -2.72818,2.43324c-1.42528,0 -7.74214,-4.79156 -7.74214,-5.97251c0,-1.18095 15.58475,-38.64266 17.01003,-38.64266c0.19565,0 9.47089,3.40436 9.35754,4.74051c-0.71237,8.39744 -15.89725,36.42257 -15.89725,37.44142z" fill="#2e2230" stroke="none" stroke-width="0" stroke-linecap="butt"></path><path d="M308.39572,180.82431c0,0.59692 6.94458,5.17425 6.95726,6.27055c0.0199,1.72079 0.8222,4.03304 0.18068,6.10712c-0.82859,2.67887 -2.8813,2.74954 -4.53418,5.04354c-1.23361,1.7121 -1.53572,4.16535 -2.64642,5.87338c-1.0736,1.65096 -2.96081,2.58631 -3.86527,2.58631c-1.08122,0 -3.91363,6.40913 -8.03871,7.51486c-2.53918,0.68062 -13.43532,-3.48758 -15.58337,-3.96083c-2.3329,-0.51396 -2.62145,-6.70611 -3.90191,-7.34234c-2.34904,-1.16718 3.79673,-2.49558 2.46969,-3.82182c-0.88818,-0.88765 -1.56392,-1.63491 -1.56392,-2.49152c0,-0.87566 -1.36508,-3.56437 -0.44089,-4.23937c0.64746,-0.47287 -8.49602,-3.94088 -7.45471,-4.23114c1.38562,-0.38624 -0.94272,-5.56609 1.87252,-5.38679c1.13495,0.07228 4.06524,-3.54354 5.47756,-3.22409c8.09266,1.83049 17.98411,10.81395 19.93774,10.81395c4.68309,0 11.13394,-14.03198 11.13394,-9.51177z" fill="#2d00e3" stroke="none" stroke-width="0" stroke-linecap="butt"></path><path d="M309.57547,189.59874c-0.70014,2.25027 -2.72678,4.5731 -6.03196,4.78963c-1.98478,0.13003 -3.65808,-0.59067 -5.90675,-1.41505c-1.7714,-0.64941 -4.17964,-1.3072 -5.46268,-2.04734c-0.81907,-0.47249 10.93134,6.89384 1.42874,10.5138c-1.27643,0.48625 -6.49216,-0.72314 -10.39774,-2.04632c-0.5383,-0.18237 -1.04458,-0.3687 -1.51464,-0.55242c-0.45792,-0.17898 -2.35617,-1.33116 -2.74149,-0.93388c-0.10147,0.10462 0.50714,1.27967 2.64023,2.61005c2.62115,1.63477 -4.00507,-0.96426 -2.7288,1.1693c4.43902,7.42076 12.45609,5.06785 12.7455,4.99809c0.71525,-0.1724 6.88745,-2.42631 -6.89105,-4.4872c-4.16408,-0.62284 -6.76711,-5.07608 -6.81458,-5.09613c-0.61268,-0.25873 -0.52355,-5.59928 0.25789,-6.98028c1.70792,-3.01831 5.60895,-3.2746 4.8555,-4.22593c-0.5236,-0.6611 -2.64059,1.83549 -6.46145,0.7539c-1.2924,-0.72921 -1.9752,-1.67826 -1.87241,-2.80998c0.15825,-1.74241 1.92197,-3.77034 2.8958,-6.24298c0.90079,-2.28719 -0.01217,-5.53637 1.26986,-7.21146c1.47985,-1.93356 4.03591,-2.77889 4.18554,-2.75875c4.41584,0.59423 6.67482,1.68012 7.19351,2.96253c0.36473,0.90175 -1.10022,2.19889 0.9173,2.19889c4.8867,0 21.97294,5.43616 18.43367,16.81152z" fill="#3300ff" stroke="none" stroke-width="0" stroke-linecap="butt"></path><path d="M279.80114,199.8588c0,0 -1.55027,-1.3054 -2.00558,-2.59546c-0.45531,-1.29006 -0.70785,-2.0978 -0.70785,-3.42129c0,-1.32349 0.16548,-2.10067 0.70785,-3.30331c0.54237,-1.20264 1.00102,-1.68438 2.00558,-2.71344c1.00456,-1.02905 2.83141,-2.0449 2.83141,-2.0449c0,0 -0.86645,-1.85193 -1.06178,-3.14602c-0.19533,-1.29408 -0.48518,-1.68577 0.11798,-3.30331c0.60315,-1.61755 1.61211,-2.75162 2.47749,-3.65724c0.86537,-0.90562 1.04743,-1.20578 2.59546,-1.65166c2.39558,-0.68999 4.32929,-0.52229 6.37068,-0.35393c2.04139,0.16836 2.26338,0.22348 5.07295,1.29773c2.80957,1.07425 4.80958,2.0712 6.96055,3.30331c2.15098,1.23211 3.72794,2.45479 5.19092,3.65724c1.46298,1.20245 2.37412,1.88544 3.42129,3.42129c1.04717,1.53585 1.47017,2.78319 1.88761,4.36509c0.41744,1.58191 0.81759,2.66492 0.35393,4.12914c-0.46366,1.46422 -1.52958,2.06115 -2.59546,2.94939c-1.06588,0.88824 -2.50888,1.13411 -3.06736,1.76963c-0.55849,0.63552 0.10953,0.82009 -0.35393,2.12356c-0.46346,1.30346 -0.70108,2.01969 -1.53368,3.18534c-0.83261,1.16565 -1.77587,2.02956 -2.59546,2.59546c-0.81959,0.5659 -1.05518,-0.15242 -2.35951,0.82583c-1.30433,0.97825 -1.01041,1.33041 -2.83141,3.06736c-1.12876,1.07665 -2.21603,2.94473 -3.96135,3.73538c-1.07034,0.48489 -2.69487,0.31921 -3.82503,0.03984c-2.97302,-0.7349 -5.17957,-1.22138 -7.55043,-2.12356c-2.37086,-0.90218 -4.627,-2.00859 -5.7808,-2.94939c-1.1538,-0.9408 -1.32605,-1.78954 -1.88761,-3.30331c-0.56156,-1.51378 -1.12256,-2.86987 -0.82583,-4.01117c0.29673,-1.1413 2.94939,-1.88761 2.94939,-1.88761z" fill="none" stroke="#000000" stroke-width="2" stroke-linecap="round"></path><path d="M295.37388,192.78027c0,0 -4.72292,-2.06764 -7.78638,-3.46061c-3.74189,-1.70146 -5.19092,-3.73589 -5.19092,-3.73589" fill="none" stroke="#000000" stroke-width="2" stroke-linecap="round"></path><path d="M290.41892,203.28009c0,0 -4.2536,-0.92969 -6.14028,-1.5449c-1.71481,-0.55917 -4.71346,-1.99436 -4.71346,-1.99436" fill="none" stroke="#000000" stroke-width="2" stroke-linecap="round"></path><path d="M277.42104,190.82405c0,0 -1.19353,0.14951 -2.47749,-0.11798c-1.28395,-0.26748 -2.51024,-0.37119 -3.36685,-0.78953c-0.85661,-0.41834 -1.2385,-0.57741 -1.7061,-1.68796c-0.4676,-1.11055 -0.3284,-1.98834 0,-3.06736c0.3284,-1.07903 0.72031,-1.42817 1.65166,-2.35951c0.93135,-0.93134 1.55779,-1.45655 2.62268,-2.18709c1.16877,-0.80178 1.99246,-1.15318 2.6499,-2.01467c0.65744,-0.86148 0.88842,-1.04614 1.09808,-3.11273c0.20965,-2.06659 -0.17217,-3.16196 0.11798,-4.24712c0.26083,-0.9755 1.02461,-1.52375 2.00558,-2.24153c0.98097,-0.71778 1.73951,-1.093 2.83141,-1.29773c1.09191,-0.20473 1.84974,-0.00948 2.83141,0.23595c0.98167,0.24543 1.35453,0.43367 2.35951,1.06178c1.00498,0.62812 1.73197,1.02764 2.35951,1.88761c0.62754,0.85996 1.00734,2.56823 1.00734,2.56823" fill="none" stroke="#000000" stroke-width="2" stroke-linecap="round"></path><path d="M291.70331,214.32023c0,0 -0.48119,1.72872 -1.36126,2.26877c-0.88007,0.54004 -2.01714,0.33515 -2.63177,0.1815c-0.61463,-0.15366 -2.39191,-0.95658 -3.72077,-1.90575c-1.32884,-0.94917 -2.15215,-1.73175 -3.26702,-3.08551c-1.11487,-1.35377 -1.815,-3.08551 -1.815,-3.08551" fill="none" stroke="#000000" stroke-width="2" stroke-linecap="round"></path><path d="M291.85177,172.35638c0,0 2.81583,-0.08039 4.60104,0.11798c1.78523,0.19836 2.49437,0.22996 4.01117,0.70786c1.5168,0.47789 2.87516,0.9752 4.60104,2.00558c1.72589,1.03038 2.05363,1.50391 3.06736,2.83141c1.01373,1.32751 1.88761,3.65724 1.88761,3.65724" fill="none" stroke="#000000" stroke-width="2" stroke-linecap="round"></path><path d="M290.43602,170.23282c0,0 0.52006,-1.27445 1.29773,-1.53368c0.77769,-0.25923 3.51448,-0.88053 5.7808,-0.70785c2.26632,0.17267 4.15409,0.74576 6.60663,1.76963c2.45254,1.02388 3.52641,1.61403 5.42687,3.30332c1.90046,1.68929 2.14081,2.24771 3.06736,4.01116c0.92656,1.76346 0.82583,2.71344 0.82583,2.71344c0,0 -0.81711,0.95395 -1.27958,1.26927c-0.3904,0.26619 -1.31588,0.50035 -1.31588,0.50035" fill="none" stroke="#000000" stroke-width="2" stroke-linecap="round"></path><path d="M291.14387,168.81712c0,0 -0.96319,-1.75149 -1.29773,-3.06736c-0.33454,-1.31588 -0.49348,-2.3611 -0.4719,-3.89319c0.02158,-1.53209 0.02506,-2.80954 0.58988,-4.48307c0.56482,-1.67353 1.3163,-3.1821 2.59546,-4.95497c1.27916,-1.77287 2.18241,-3.05219 4.12914,-4.36509c1.94673,-1.3129 3.5727,-1.76021 6.01675,-2.47749c2.44405,-0.71728 2.92643,-0.80948 4.837,-0.70785c1.91057,0.10163 3.91422,0.42703 6.2527,1.29773c2.33848,0.8707 3.15673,1.41999 4.837,2.83141c1.68027,1.41143 2.84811,2.51723 4.01117,4.60104c1.16306,2.08381 1.37557,3.29364 1.65166,5.54485c0.27609,2.25121 0.11767,4.25064 -0.11798,6.96055c-0.23564,2.70991 -0.13234,2.58631 -0.66853,4.05048c-0.53618,1.46418 -1.20884,2.77148 -2.39883,4.32577c-1.19,1.55429 -2.05725,1.98526 -3.53927,3.06737c-1.48202,1.08211 -3.89319,2.35951 -3.89319,2.35951" fill="none" stroke="#000000" stroke-width="2" stroke-linecap="round"></path><path d="M295.31234,167.40141c0,0 -0.7559,-1.77288 -1.1011,-3.06737c-0.34519,-1.29449 -0.50433,-2.19794 -0.70785,-3.77522c-0.20352,-1.57727 -0.15679,-2.42521 0.07865,-3.69656c0.23543,-1.27135 0.44104,-1.76105 1.1011,-2.91007c0.66008,-1.14901 1.0082,-1.56376 1.76963,-2.47749c0.76144,-0.91372 1.91439,-2.29954 3.38197,-3.73589c1.46757,-1.43635 2.63478,-2.08424 2.63478,-2.08424" fill="none" stroke="#000000" stroke-width="1.5" stroke-linecap="round"></path><path d="M298.34045,167.51939c0,0 -0.21024,-1.27669 -0.33832,-2.58404c-0.08591,-0.87687 -0.17025,-1.64561 -0.21223,-2.29229c-0.10461,-1.61085 -0.1166,-2.65907 0.03932,-4.12914c0.15591,-1.47007 0.13751,-2.02076 0.86515,-3.73589c0.72764,-1.71514 0.59177,-1.83979 2.35951,-4.12914c1.76772,-2.28936 5.23024,-5.50553 5.23024,-5.50553" fill="none" stroke="#000000" stroke-width="1.5" stroke-linecap="round"></path><path d="M302.70547,168.81712c0,0 -0.35671,-1.62127 -0.27527,-3.65724c0.08144,-2.03597 0.17444,-3.30372 0.62919,-5.19092c0.45475,-1.8872 0.99048,-3.11299 1.73032,-4.6797c0.73984,-1.56671 0.77722,-1.62005 2.20221,-3.81454c1.42499,-2.1945 4.48307,-5.74148 4.48307,-5.74148" fill="none" stroke="#000000" stroke-width="1.5" stroke-linecap="round"></path><path d="M316.58731,147.69949c0,0 -0.29734,1.75905 -0.86039,3.60397c-0.34139,1.11858 -0.87992,2.21899 -1.22385,3.12064c-0.91118,2.38877 -1.39724,3.24219 -2.43816,5.34822c-1.04091,2.10603 -1.41823,3.07815 -2.47749,4.91565c-0.38872,0.67432 -1.01564,1.71007 -1.55402,2.55204c-0.9287,1.45239 -1.90659,2.63889 -1.90659,2.63889" fill="none" stroke="#000000" stroke-width="1.5" stroke-linecap="round"></path><path d="M322.01414,152.61511c0,0 -0.41724,3.30449 -0.90448,5.23024c-0.48724,1.92575 -0.8852,3.14211 -1.88761,4.95497c-1.00241,1.81286 -1.99417,3.28357 -3.65725,5.07295c-0.6838,0.73573 -1.60532,1.86143 -2.63874,2.74678c-1.47996,1.26791 -3.02408,2.20819 -3.02408,2.20819" fill="none" stroke="#000000" stroke-width="1.5" stroke-linecap="round"></path><path d="M324.60962,162.52507c0,0 -1.71114,4.4801 -3.38197,6.8819c-1.67082,2.4018 -2.5242,2.88958 -4.48307,4.36509c-1.95887,1.47551 -4.60105,2.47749 -4.60105,2.47749" fill="none" stroke="#000000" stroke-width="1.5" stroke-linecap="round"></path><path d="M294.60453,149.98035c0,0 1.3771,-0.17146 3.49994,-0.39325c2.12284,-0.22179 2.19654,-0.56204 5.42688,-0.58988c3.23034,-0.02784 5.94526,0.06026 8.25829,0.4719c2.31303,0.41164 3.8901,0.99885 5.66282,2.00558c1.77272,1.00673 2.27771,1.16518 3.89319,3.42129c1.61548,2.25611 2.94939,6.13473 2.94939,6.13473" fill="none" stroke="#000000" stroke-width="1.5" stroke-linecap="round"></path><path d="M290.90797,155.48588c0,0 4.52228,-1.01886 7.66841,-1.53368c3.14614,-0.51482 3.22321,-0.35393 5.3089,-0.35393c2.08569,0 3.20547,0.03743 5.19092,0.51122c1.98545,0.4738 3.28145,0.88262 5.19092,1.88761c1.90948,1.00499 2.48044,1.35701 3.77522,2.67412c1.29477,1.3171 1.98507,2.43511 3.06736,4.12914c1.08229,1.69404 2.67411,5.9381 2.67411,5.9381" fill="none" stroke="#000000" stroke-width="1.5" stroke-linecap="round"></path><path d="M290.43602,165.51379c0,0 0.57415,-0.6927 1.34004,-1.27273c0.67158,-0.50859 1.4906,-0.88859 2.19922,-1.20476c1.51677,-0.67672 1.99806,-0.86488 4.12914,-0.9438c2.13108,-0.07892 3.0674,0.09833 5.42687,0.58988c2.35947,0.49156 3.88674,0.71788 5.89878,1.76963c2.01204,1.05175 3.37967,2.03592 4.48307,3.65724c1.1034,1.62132 1.09066,2.53331 1.29773,4.837c0.20707,2.3037 -1.81896,4.00246 -0.35393,5.66282" fill="none" stroke="#000000" stroke-width="1.5" stroke-linecap="round"></path></g><g><g stroke-linecap="round"><path d="M195.5,110.00482c11.89343,-5.4561 20.40948,-10.33489 32.48458,-8.30427c12.0751,2.03062 27.99309,6.75957 21.61514,17.40197c-6.37794,10.64241 -24.99227,-2.16931 -31.7208,-0.53942c-6.72854,1.62989 -6.13788,9.65214 -13.3076,11.4468c-10.87385,2.72184 -4.97712,-5.83412 -8.41682,-7.38156c-2.91985,-1.31357 -10.59009,5.01744 -10.91852,-1.31696c-0.14551,-2.80636 3.63981,-8.26774 10.26402,-11.30657z" fill="#fff3df" stroke="none" stroke-width="0"></path><path d="M196.3974,111.47628c3.55565,-1.63115 3.20658,14.30998 6.75545,13.52238c6.50302,-1.4432 4.71047,-8.70733 11.64693,-11.31825c1.94004,-0.73024 12.40528,0.88463 14.25543,1.19577c12.0751,2.03062 26.92248,-6.41604 20.54453,4.22635c-6.37794,10.64241 -24.99227,-2.16931 -31.7208,-0.53942c-6.72854,1.62989 -6.13788,9.65214 -13.3076,11.4468c-10.87385,2.72184 -4.97712,-5.83412 -8.41682,-7.38156c-2.91985,-1.31357 -10.59009,5.01744 -10.91852,-1.31696c-0.14551,-2.80637 1.73778,-5.5937 8.36199,-8.63253z" fill="#cfa7a7" stroke="none" stroke-width="0"></path><path d="M227.98454,101.70056c12.07509,2.03062 27.99308,6.75957 21.61514,17.40196c-6.37794,10.64241 -24.99225,-2.16929 -31.72078,-0.53941c-6.72853,1.62989 -6.13787,9.65216 -13.30759,11.4468c-10.87385,2.72184 -4.97712,-5.8341 -8.41682,-7.38154c-2.91986,-1.31357 -10.59009,5.01743 -10.91852,-1.31696c-0.14551,-2.80637 3.63983,-8.26775 10.26401,-11.30659c11.89343,-5.4561 20.40947,-10.33487 32.48457,-8.30426z" fill="none" stroke="#000000" stroke-width="4"></path></g><path d="M213.79434,111.75535c-8.82116,1.03386 -19.41915,-1.57937 -14.18468,-7.47135c0.39227,-0.44154 1.0689,-1.36881 1.79953,-2.32565c0.76332,-0.99963 1.58558,-2.03156 2.20417,-2.57566c6.69035,-5.88472 17.9614,-10.78885 28.03939,-1.30891c11.9017,11.19545 -9.03725,12.64772 -17.8584,13.68157z" fill="#ffd500" stroke="none" stroke-width="0" stroke-linecap="round"></path><path d="M213.79434,111.75535c-8.82116,1.03386 -19.41915,-1.57937 -14.1847,-7.47135c0.39227,-0.44155 1.0689,-1.36881 1.79954,-2.32565c0.76332,-0.99963 1.58558,-2.03156 2.20417,-2.57565c6.69035,-5.88472 2.66932,4.18982 8.85252,6.45591c12.99103,4.76111 20.33689,-5.1864 21.3317,-4.3403c7.95189,6.7631 -12.16293,9.33815 -20.00323,10.25706z" fill="#ff7e00" stroke="none" stroke-width="0" stroke-linecap="round"></path><path d="M213.88451,112.14769c-8.82116,1.03386 -19.41914,-1.57938 -14.1847,-7.47137c1.90152,-2.14037 4.89634,-5.81939 8.74296,-8.08536c6.74226,-3.97173 15.72197,-5.25334 23.30015,1.87513c11.9017,11.19544 -9.03725,12.64772 -17.85841,13.68157z" fill="none" stroke="#000000" stroke-width="4" stroke-linecap="round"></path><path d="M216.43028,99.19395c1.11318,-2.24888 4.29444,-2.94394 7.10554,-1.55245c2.81109,1.39148 4.18752,4.34256 3.07433,6.59143c-0.50605,1.02233 -2.04935,-2.00469 -4.39008,-3.04776c-2.80832,-1.25143 -6.39692,-0.76466 -5.78979,-1.99122z" fill="#fff45c" stroke="none" stroke-width="0" stroke-linecap="butt"></path></g></g></g></svg>