<svg version="1.1" xmlns="http://www.w3.org/2000/svg" xmlns:xlink="http://www.w3.org/1999/xlink" width="47.51322" height="48.97844" viewBox="0,0,47.51322,48.97844"><g transform="translate(-216.28286,-155.14418)"><g data-paper-data="{&quot;isPaintingLayer&quot;:true}" fill-rule="nonzero" stroke-linecap="butt" stroke-linejoin="miter" stroke-miterlimit="10" stroke-dasharray="" stroke-dashoffset="0" style="mix-blend-mode: normal"><path d="M217.68422,181.93724c-0.78203,-9.71662 22.50434,-24.61549 22.50434,-24.61549c0,0 7.9438,5.59294 9.53767,6.97335c0.39541,0.34244 0.42481,1.05133 0.88553,1.48195c0.40448,0.37805 -8.98604,7.7605 -8.38117,7.79738c2.36333,0.1441 17.48994,0.09923 17.48994,0.09923c0,0 1.94242,-0.97748 2.45764,6.70945c0.49256,7.34891 -3.84822,7.37405 -3.84822,7.37405c0,0 -14.56618,-0.14451 -16.10809,0.61426c-0.65812,0.32386 7.80223,4.40547 7.02506,4.88839c-0.70549,0.43838 -5.63773,9.26801 -6.58194,9.73405c-1.77803,0.87759 -16.6023,-8.88614 -19.2179,-11.16172c0,0 -5.37911,-5.12688 -5.76286,-9.8949z" data-paper-data="{&quot;index&quot;:null}" fill="#87a3ad" stroke="none" stroke-width="0"></path><path d="M224.40096,191.06342c-2.86114,-1.85779 -4.98425,-5.20383 -5.48644,-9.10722c-1.24884,-9.70687 22.19744,-23.64731 22.19744,-23.64731c0,0 7.19251,6.03048 8.56152,7.21615c0.33963,0.29413 -0.00204,-0.14765 0.39368,0.22222c0.34741,0.32471 -9.36721,8.27294 -8.84768,8.30462c2.02991,0.12378 18.8015,-0.23255 18.8015,-0.23255c0,0 0.35257,-0.55686 0.7951,6.0456c0.42307,6.31213 -3.90734,7.31018 -3.90734,7.31018c0,0 -14.53779,-0.32403 -15.42607,0.05751c-0.56527,0.27816 8.21906,5.31095 7.55154,5.72574c-0.60596,0.37653 -6.15693,8.33116 -6.96793,8.73145c-1.52718,0.75377 -14.80418,-8.76861 -17.66532,-10.62641z" data-paper-data="{&quot;index&quot;:null}" fill="none" stroke="#ffffff" stroke-width="2.5"></path><path d="M217.80213,181.566c-0.78203,-9.71662 22.50434,-24.61549 22.50434,-24.61549c0,0 7.9438,5.59294 9.53767,6.97335c0.39541,0.34244 0.42481,1.05133 0.88553,1.48195c0.40448,0.37805 -8.98604,7.7605 -8.38117,7.79738c2.36333,0.1441 17.48994,0.09923 17.48994,0.09923c0,0 1.94242,-0.97748 2.45764,6.70945c0.49256,7.34891 -3.84822,7.37405 -3.84822,7.37405c0,0 -14.56618,-0.14451 -16.10809,0.61426c-0.65812,0.32386 7.80223,4.40547 7.02506,4.88839c-0.70549,0.43838 -5.63773,9.26801 -6.58194,9.73405c-1.77803,0.87759 -16.6023,-8.88614 -19.2179,-11.16172c0,0 -5.37911,-5.12688 -5.76286,-9.8949z" data-paper-data="{&quot;index&quot;:null}" fill="#d100ff" stroke="#000000" stroke-width="3"></path></g></g></svg>