<svg version="1.1" xmlns="http://www.w3.org/2000/svg" xmlns:xlink="http://www.w3.org/1999/xlink" width="90.36437" height="51.82452" viewBox="0,0,90.36437,51.82452"><g transform="translate(-193.09439,-151.82224)"><g data-paper-data="{&quot;isPaintingLayer&quot;:true}" fill-rule="nonzero" stroke-linejoin="miter" stroke-miterlimit="10" stroke-dasharray="" stroke-dashoffset="0" style="mix-blend-mode: normal"><g stroke-width="2"><path d="M205.16944,171.68285c0.53458,1.77673 0.38313,3.30815 0.47666,5.13702c0.05629,1.10073 0.42547,2.16479 0.56029,3.25867c0.34151,2.77089 -0.14852,6.62182 -1.15014,9.18042c-0.72198,1.84425 -1.99321,3.55473 -2.76571,5.4136c0,0 -0.5005,1.20198 -1.70247,0.70147c-0.11815,-0.0492 -0.21984,-0.10517 -0.30718,-0.16611l-0.17625,-0.02029c-1.1729,-0.25616 -4.74715,-0.35338 -5.51159,-1.02311c-0.58254,-0.51036 -0.39947,-1.49655 -0.59919,-2.24485c-0.59285,-4.21533 0.36081,-8.48683 0.53956,-12.66567c0.06635,-1.55122 -0.2388,-3.07593 -0.06931,-4.67539c0.20513,-1.93584 0.4785,-3.72034 2.31349,-4.84876c1.93049,-1.18714 4.5891,-0.54023 6.69956,-0.30133c0.38806,-0.03135 0.6707,0.11193 0.87002,0.29461c0.21929,0.15997 0.41622,0.4101 0.46107,0.79932z" fill="#3300ff" stroke="none" stroke-linecap="butt"/><path d="M201.32454,181.79122c0.34531,-5.15968 1.6313,-13.1498 1.6313,-13.1498c0,0 1.78963,-3.05046 4.3594,-4.76861c2.56976,-1.71817 3.65014,-2.57238 7.2586,-2.9992c3.60846,-0.42682 9.25171,1.0463 9.25171,1.0463c0,0 4.53513,1.87156 6.75813,6.20612c2.223,4.33456 1.58538,5.04009 2.24773,11.35409c0.66233,6.31399 0.64839,16.25467 0.64839,16.25467c0,0 -4.02017,1.77736 -9.6857,2.47245c-5.66553,0.6951 -11.13277,0.39604 -14.48164,-0.05207c-3.34887,-0.44812 -8.13274,-2.97395 -8.13274,-2.97395c0,0 -0.20047,-8.23031 0.14484,-13.38998z" fill="#3300ff" stroke="#000000" stroke-linecap="round"/><path d="M200.43645,195.06113c0,0 -4.13203,-0.56513 -5.03613,-1.03805c-0.90409,-0.47292 -1.29265,-2.27247 -1.29265,-2.27247c0,0 -0.06132,-6.86543 -0.01339,-10.08519c0.04246,-2.85171 0.28656,-8.26361 0.28656,-8.26361c0,0 0.53536,-2.60156 2.61729,-3.7043c2.08193,-1.10274 5.62474,-0.66128 5.62474,-0.66128" fill="none" stroke="#000000" stroke-linecap="round"/><path d="M233.42378,187.84672l-4.04176,3.22045l-2.95807,-2.49466l-3.20201,2.71306l-3.71046,-3.26981l-4.10437,2.86603l-3.11897,-4.38799l-3.70639,3.06106l-3.88682,-10.73021l-1.45523,1.72555" fill="none" stroke="#000000" stroke-linecap="round"/><path d="M221.99492,181.022c0,0 -6.08837,-0.11453 -9.63009,-2.19117c-3.54172,-2.07664 -3.87316,-3.09871 -4.07248,-5.84313c-0.19933,-2.74441 26.97687,-1.70203 26.84186,0.54779c-0.13501,2.24981 -1.09545,3.73236 -3.6763,5.29533c-2.58085,1.56296 -9.46299,2.19117 -9.46299,2.19117z" fill="#ffffff" stroke="#000000" stroke-linecap="round"/></g><g stroke-width="2" stroke-linecap="round"><path d="M203.40772,161.39662c6.12785,-2.81114 10.51558,-5.32485 16.73704,-4.27861c6.22146,1.04624 14.42287,3.48273 11.13677,8.96602c-3.28611,5.48329 -12.87676,-1.11769 -16.34351,-0.27792c-3.46675,0.83976 -3.16243,4.97308 -6.85648,5.89773c-5.60254,1.40238 -2.56435,-3.00591 -4.3366,-3.80321c-1.50439,-0.67679 -5.45633,2.58514 -5.62555,-0.67853c-0.07497,-1.44593 1.87534,-4.25978 5.28833,-5.82548z" fill="#fff3df" stroke="none"/><path d="M203.87008,162.15476c1.83198,-0.84041 1.65213,7.37294 3.48061,6.96714c3.35055,-0.74358 2.42698,-4.48628 6.00085,-5.83151c0.99957,-0.37624 6.39157,0.45579 7.34482,0.6161c6.22146,1.04624 13.87127,-3.30574 10.58516,2.17754c-3.28611,5.48329 -12.87678,-1.11769 -16.34351,-0.27792c-3.46675,0.83977 -3.16242,4.97307 -6.85647,5.89773c-5.60254,1.40238 -2.56436,-3.00591 -4.3366,-3.8032c-1.50439,-0.67679 -5.45632,2.58514 -5.62554,-0.67854c-0.07497,-1.44593 0.89535,-2.88204 4.30834,-4.44774z" fill="#cfa7a7" stroke="none"/><path d="M220.14473,157.11802c6.22144,1.04624 14.42288,3.48273 11.13677,8.96601c-3.28611,5.48329 -12.87675,-1.11768 -16.3435,-0.27792c-3.46675,0.83977 -3.16241,4.97308 -6.85647,5.89774c-5.60254,1.40238 -2.56435,-3.0059 -4.3366,-3.80319c-1.5044,-0.67679 -5.45633,2.58512 -5.62555,-0.67854c-0.07497,-1.44593 1.87535,-4.25979 5.28832,-5.82549c6.12785,-2.81114 10.51557,-5.32483 16.73703,-4.2786z" fill="none" stroke="#000000"/></g><path d="M212.83351,162.29855c-4.54493,0.53268 -10.00533,-0.81374 -7.30838,-3.84947c0.20211,-0.22749 0.55073,-0.70525 0.92717,-1.19825c0.39329,-0.51504 0.81693,-1.04671 1.13565,-1.32706c3.44707,-3.03199 9.25425,-5.55875 14.44674,-0.67439c6.13211,5.76823 -4.65626,6.51648 -9.20118,7.04915z" fill="#ffd500" stroke="none" stroke-width="2" stroke-linecap="round"/><path d="M212.83351,162.29855c-4.54493,0.53268 -10.00533,-0.81374 -7.30839,-3.84947c0.20211,-0.2275 0.55073,-0.70525 0.92718,-1.19825c0.39329,-0.51504 0.81693,-1.04672 1.13565,-1.32706c3.44707,-3.03199 1.37531,2.15872 4.56108,3.32628c6.69337,2.45307 10.47818,-2.67219 10.99074,-2.23625c4.09706,3.48455 -6.2667,4.8113 -10.30626,5.28474z" fill="#ff7e00" stroke="none" stroke-width="2" stroke-linecap="round"/><path d="M212.87997,162.50069c-4.54493,0.53268 -10.00532,-0.81374 -7.30839,-3.84947c0.97972,-1.10278 2.52274,-2.99833 4.50464,-4.16582c3.47382,-2.04635 8.10043,-2.70668 12.00494,0.96612c6.13211,5.76823 -4.65626,6.51648 -9.20119,7.04915z" fill="none" stroke="#000000" stroke-width="2" stroke-linecap="round"/><path d="M214.19163,155.82653c0.57355,-1.15869 2.21263,-1.5168 3.66099,-0.79987c1.44836,0.71693 2.15754,2.23741 1.58399,3.3961c-0.26073,0.52673 -1.05589,-1.03287 -2.2619,-1.5703c-1.44693,-0.64477 -3.29588,-0.39397 -2.98307,-1.02593z" fill="#fff45c" stroke="none" stroke-width="2" stroke-linecap="butt"/><g stroke-width="1.5"><path d="M250.87509,185.49024l5.7094,-1.90314l6.79691,0.27188l5.43752,2.99064l4.35002,4.6219h-4.89377l-4.62191,-1.35939l-5.16565,-1.90313l-4.6219,-0.54374z" fill="#00ffa9" stroke="#000000" stroke-linecap="round"/><g><path d="M280.15241,168.85852c0.03338,-0.02465 0.07273,-0.04784 0.11891,-0.06893c0.46729,-0.21343 0.70091,0.21343 0.70091,0.21343c1.50251,2.77873 1.23062,6.00517 1.23062,9.04207c0,3.1831 -0.20421,6.3024 -0.5242,9.46454c-0.14247,1.40784 0.11222,2.94169 -0.26335,4.31397c0.01113,1.53145 0.00391,3.06314 0.00391,4.59463c0,0.37625 0.14477,1.54991 -0.11066,1.84466c-0.35808,0.41321 -1.42436,0.37004 -1.92757,0.41982c-1.313,0.12989 -2.49573,0.36025 -3.83908,0.36025c-1.97219,-0.20438 -1.59978,-2.86738 -1.48162,-4.2624c0.35204,-4.15631 0.84025,-8.39474 0.82858,-12.55977c0,-1.77272 0.22194,-3.68211 0.00255,-5.44105c-0.3274,-2.6248 -0.72287,-6.37447 1.92198,-8.13536c1.09375,-0.03894 2.09738,0.21942 3.16916,0.21414h0.16987z" fill="#00ffa9" stroke="none" stroke-linecap="butt"/><path d="M260.58739,202.82099c-12.69494,0.43047 -16.02111,-1.11353 -16.02111,-1.11353l0.34829,-9.06725l2.43799,2.06797l4.00528,-2.22705l3.83113,1.74981l4.876,-2.22705l3.83113,1.27261l2.96042,-2.86335l5.39842,2.46566c0,0 0.81235,-5.66003 0.82679,-8.6292c0.01457,-2.99589 -0.73973,-9.26672 -0.73973,-9.26672l-4.61478,2.26681l-1.74143,-1.94866l-2.43799,2.22705l-3.13457,-1.59076l-5.05013,2.70429l-3.13457,-2.38613l-4.70184,2.38613l-3.13457,-2.22705c0,0 -0.32335,-6.44405 1.91557,-9.70356c2.23891,-3.25952 4.13743,-5.02367 8.35885,-6.68115c4.22142,-1.65747 6.42956,-1.32404 10.62272,-0.95444c4.19315,0.3696 7.56009,3.0497 9.57784,6.04484c2.01775,2.99514 2.34213,5.01968 2.438,10.33986c0.09587,5.32018 -1.21901,25.13383 -1.21901,25.13383c0,0 -6.4793,1.92121 -15.49868,2.22705z" fill="#00ffa9" stroke="#000000" stroke-linecap="round"/><path d="M276.78267,168.779l4.5277,0.31815l1.39314,3.34056l-0.87071,24.97475l-1.91556,1.43168l-3.30873,0.15908" fill="none" stroke="#000000" stroke-linecap="round"/><g stroke="#000000" stroke-linecap="round"><path d="M248.51641,163.44574c2.30651,-0.84786 8.45707,-1.18862 8.45707,-1.18862c0,0 5.44116,0.06213 8.6064,1.18862c3.16524,1.12649 3.46144,1.68093 3.63958,3.16968c0.17814,1.48875 -1.57033,2.3244 -3.38242,2.97157c-1.8121,0.64716 -4.50221,1.18862 -8.26618,1.18862c-3.76397,0 -6.09816,-0.15472 -9.48862,-1.18862c-3.39046,-1.03391 -2.97199,-2.0483 -2.85132,-3.26874c0.12066,-1.22044 0.97899,-2.02465 3.2855,-2.8725z" fill="#ffffff"/><path d="M266.66063,163.96698l-19.32984,5.24947" fill="none"/><path d="M265.87698,169.33575l-17.37074,-5.60739" fill="none"/></g></g></g><g stroke="#000000" stroke-width="1.5" stroke-linecap="butt"><path d="M280.93577,167.11915c-0.08173,1.36888 -1.34222,2.18448 -1.98126,2.6362c-0.72039,0.50922 -3.38592,-2.69749 -6.62575,-5.06674c-3.60043,-2.63293 -6.44937,-3.38434 -7.31489,-4.07765c-0.86926,-0.6963 0.4891,-1.6123 1.24641,-2.14761c0.30564,-0.21604 0.74469,-0.52638 1.19221,-0.84273c0.87785,-0.62053 2.11025,-1.00622 2.48828,-0.70341c0.6432,0.51523 3.92768,1.08453 7.00034,3.8257c3.26801,2.91542 4.0764,5.00737 3.99467,6.37624z" fill="#4f5357"/><path d="M256.4536,158.83345c-0.10697,-2.29515 2.6112,-4.35726 6.0712,-4.60585c3.46,-0.24861 6.3516,1.41044 6.45856,3.70558c0.10696,2.29514 -2.61119,4.35725 -6.07119,4.60586c-3.46,0.2486 -6.3516,-1.41045 -6.45857,-3.70559z" fill="#75756c"/><g><path d="M262.4903,153.54929c3.35176,-0.17496 6.15289,0.99266 6.2565,2.60796c0.10362,1.61531 -2.52951,3.06661 -5.88125,3.24157c-3.35176,0.17496 -6.1529,-0.99266 -6.25652,-2.60796c-0.10361,-1.6153 2.52952,-3.06661 5.88127,-3.24157z" fill="#533023"/><path d="M262.06922,158.68793l-2.74422,-3.76949c0,0 2.08481,-0.62324 2.61735,-0.75376c0.50635,-0.12411 1.50093,-0.06318 1.50093,-0.06318l1.93212,4.11287z" fill="#b08a80"/></g><path d="M244.61806,167.24239c-0.41106,-0.46901 -1.22772,-1.32188 -1.17798,-2.63758c0.04974,-1.3157 0.03835,-3.8187 2.54822,-6.42497c2.35986,-2.45051 5.63334,1.72467 2.91333,4.04148c-2.4476,2.08478 -3.82021,5.54979 -4.28359,5.02108z" fill="#4f5357"/><path d="M249.43232,155.40517c3.18995,-1.15165 6.56253,-0.32713 7.53286,1.84162c0.97033,2.16874 -0.82903,4.86046 -4.01897,6.0121c-3.18995,1.15165 -6.56253,0.32712 -7.53287,-1.84162c-0.97033,-2.16874 0.82904,-4.86046 4.01898,-6.01211z" fill="#75756c"/><g><path d="M248.63198,154.83852c3.14217,-1.09305 6.2016,-0.72141 6.83342,0.83009c0.63183,1.5515 -1.40319,3.69532 -4.54536,4.78837c-3.14217,1.09305 -6.2016,0.72141 -6.83342,-0.83009c-0.63183,-1.55149 1.40319,-3.69533 4.54536,-4.78837z" fill="#533023"/><path d="M249.92526,159.98066l-3.86348,-2.9323c0,0 1.78473,-1.18305 2.25009,-1.4572c0.44247,-0.26066 1.41209,-0.47463 1.41209,-0.47463l3.20145,3.49154z" fill="#b08a80"/></g></g></g></g></svg>