<svg version="1.1" xmlns="http://www.w3.org/2000/svg" xmlns:xlink="http://www.w3.org/1999/xlink" width="198.4783" height="134.8342" viewBox="0,0,198.4783,134.8342"><g transform="translate(-117.66675,-104.80261)"><g data-paper-data="{&quot;isPaintingLayer&quot;:true}" fill-rule="nonzero" stroke-linejoin="miter" stroke-miterlimit="10" stroke-dasharray="" stroke-dashoffset="0" style="mix-blend-mode: normal"><path d="M253.70633,231.27658c0,0 1.73878,-11.01251 1.2315,-19.82491c-0.3293,-5.72052 -2.76243,-10.42059 -3.29456,-10.89688c-2.57511,-2.30494 -7.125,-2.43865 -7.89286,-3.10927c-0.09659,-0.08436 7.57917,-1.21242 11.82157,-3.70928c2.31693,-1.36363 2.38473,-5.09589 2.43835,-4.75239c0.3726,2.3869 -0.27893,11.29217 -1.11451,18.95441c-1.21584,11.14944 -3.18952,23.33832 -3.18952,23.33832z" fill="#e2e2e2" stroke="#ff0000" stroke-width="0" stroke-linecap="round"></path><path d="M227.60724,230.18442c0,0 -1.07047,-19.14638 -0.97548,-21.0498c0.05767,-1.15517 2.2183,-2.32019 2.2183,-2.32019c0,0 -0.5857,17.6362 6.73498,21.84299c1.67866,0.96464 7.92871,2.81344 12.13677,0.8119c3.55,-1.68855 5.24268,-7.16276 5.59311,-7.65884c1.28885,-1.82449 1.52983,-8.07487 2.15803,-8.08995c1.08746,-0.02612 -1.97758,17.4594 -1.97081,17.56034c0.04932,0.73606 -4.94435,2.10451 -9.82397,2.31674c-5.08351,0.2211 -10.06719,-0.73078 -10.31471,-0.7877z" fill="#e2e2e2" stroke="#ff0000" stroke-width="0" stroke-linecap="round"></path><g stroke="#ff0000" stroke-width="0" stroke-linecap="round"><path d="M207.84274,142.86931l3.71234,4.90847c0,0 -4.06539,26.96065 -4.05703,27.53112c0.04066,2.7756 1.95502,34.65976 1.95502,34.65976l-2.16554,10.41185l-40.58983,2.37988l-6.65126,-7.00808c0,0 -1.50651,-12.50342 -1.55492,-19.10311c-0.05626,-7.66745 0.34999,-24.18044 0.34999,-24.18044l-4.51337,-10.85807l4.79024,-10.98023z" fill="#000000"></path><path d="M156.17935,161.61067l4.64043,-9.8169l44.7027,-5.94964l2.93894,3.42103l-3.76068,13.54542l0.04837,22.89605l1.85617,24.69096l-1.54681,8.03203l-36.96867,1.93363l-5.72319,-6.69334c0,0 -2.14202,-18.57229 -2.39335,-26.03698c-0.20176,-5.99267 1.00123,-15.31293 1.00123,-15.31293z" fill="#2d00e3"></path><path d="M156.17935,161.61067l4.64043,-9.8169c0,0 24.97033,-3.32338 33.17269,-4.41507c2.56923,-0.34196 -9.58038,5.37179 -20.62959,9.25895c-7.2903,2.56476 -14.8003,3.83039 -14.8003,3.83039c0,0 -1.26955,3.62986 -1.37113,3.403c-0.4447,-0.9932 -1.01208,-2.26036 -1.01208,-2.26036z" fill="#3300ff"></path><path d="M204.40497,162.75373l0.04837,22.89605l1.85618,24.69097l-1.54681,8.03202l-36.72981,1.93363l-5.27838,-6.47947c0,0 2.38016,-18.78616 2.12884,-26.25083c-0.20177,-5.99267 1.00122,-15.31292 1.00122,-15.31292c0,0 11.6811,-2.88369 17.84902,-4.40633c1.21452,-0.29983 9.30504,-7.85327 10.31998,-8.10383c0.96046,-0.23711 10.35139,3.00075 10.35139,3.00075z" fill="#2d00e3"></path></g><path d="M218.24019,117c18.10609,-0.33617 30.17966,7.26407 35.84698,22.80146c3.57259,9.79454 5.58574,21.63349 6.11255,33.34151c1.36473,30.32949 -4.84138,60.3867 -4.84138,60.3867c0,0 -2.58179,1.84053 -5.18189,2.2283c-2.286,0.34092 -6.64085,1.09558 -8.69048,1.10257c-0.17291,0.0006 -5.21981,-0.53858 -7.62893,-1.00536c-3.11778,-0.60407 -7.73743,-3.12904 -7.73743,-3.12904c0,0 -1.14386,-16.83468 -1.04887,-18.43813c0.0231,-0.38991 0.55733,0.08731 0.02735,0.11665c-0.79274,0.04392 -3.05854,0.13362 -5.69047,3.22931c-0.10225,0.12028 -1.99312,11.21742 -2.07524,11.70924c-0.46142,2.76283 -2.19477,6.84079 -2.60696,7.22073c-0.27736,0.25566 -3.58811,2.30877 -6.25241,2.72264c-2.83488,0.44037 -8.12062,0.43049 -11.87053,0.16387c-0.11459,-0.00814 -6.66445,-1.08494 -8.51952,-1.25303c-5.71335,-0.51766 -7.29543,-4.93098 -7.29543,-4.93098c0,0 0.65586,-24.12502 0.62035,-49.73023c-0.02598,-18.73589 -0.11038,-38.65474 6.81329,-52.29484c5.34939,-10.53867 15.31477,-13.96835 30.01906,-14.24135z" fill="#000000" stroke="#ff0000" stroke-width="0" stroke-linecap="round"></path><path d="M218.15147,118.92028c9.49268,-0.17625 17.71392,1.99083 23.40464,6.33265c12.00599,9.1601 15.64931,27.203 16.57371,47.74645c1.36473,30.32948 -4.62127,59.25774 -4.62127,59.25774c0,0 -1.99476,1.00264 -4.59487,1.3904c-2.47887,0.36967 -5.92361,0.81101 -7.93813,0.74285c-2.01699,-0.06826 -4.62014,-0.27125 -7.28064,-0.78673c-3.11778,-0.60407 -5.75623,-2.21177 -5.75623,-2.21177c0,0 -1.07047,-16.12908 -0.97548,-17.73252c0.05767,-0.97313 2.82447,-1.95455 2.82447,-1.95455c0,0 -7.36251,-1.33609 -11.72506,4.2607c-1.93539,2.48295 -2.12341,7.29854 -2.70135,11.71381c-0.07399,0.56525 -0.15435,1.12389 -0.2456,1.67028c-0.46142,2.76283 -1.66279,5.18264 -2.07497,5.56257c-0.27736,0.25566 -1.9371,1.67372 -4.6014,2.08759c-2.92152,0.45383 -6.6891,0.8536 -10.56377,0.67277c-2.09108,-0.09759 -4.35737,-0.64127 -6.21242,-0.80934c-5.71335,-0.51766 -8.8119,-3.84904 -8.8119,-3.84904c0,0 0.55803,-24.21908 0.52252,-49.82429c-0.03349,-24.1539 -0.66796,-47.18371 12.6207,-58.00083c4.98326,-4.05643 12.95635,-6.0978 22.15709,-6.26862z" fill="#3300ff" stroke="#ff0000" stroke-width="0" stroke-linecap="round"></path><path d="M253.36177,233.61563c0,0 -1.99476,0.80499 -4.59487,1.11632c-2.47887,0.2968 -5.9236,0.65113 -7.93812,0.59641c-2.01699,-0.0548 -4.62015,-0.21778 -7.28065,-0.63164c-3.11778,-0.48498 -5.75623,-1.77575 -5.75623,-1.77575c0,0 -1.07046,-12.94948 -0.97547,-14.23682c0.05767,-0.78129 2.2183,-1.56924 2.2183,-1.56924c0,0 -6.75632,-1.07269 -11.11888,3.42076c-1.93539,1.99348 -2.12341,5.85973 -2.70135,9.40462c-0.07399,0.45383 -0.15436,0.90233 -0.24561,1.341c-0.46142,2.21818 -1.66278,4.16096 -2.07496,4.46599c-0.27736,0.20526 -1.93711,1.34377 -4.60141,1.67606c-2.92152,0.36437 -6.68908,0.68533 -10.56376,0.54014c-2.09108,-0.07836 -4.35736,-0.51485 -6.21243,-0.64979c-5.71335,-0.41561 -8.81191,-3.09027 -8.81191,-3.09027c0,0 0.55803,-19.44465 0.52253,-40.00217c-0.01842,-10.65622 -0.21828,-21.0399 1.81033,-29.67387c1.32262,-5.62918 -0.62316,8.38657 5.79486,24.83152c1.65215,4.23334 5.22885,8.41606 7.94337,12.71546c2.11246,3.34583 7.55353,6.75107 14.5693,8.22338c4.00328,0.8401 17.57982,1.40563 17.53548,1.4107c-0.79648,0.09114 4.37717,5.05078 3.85042,8.23497c-0.5094,3.07944 0.68635,5.97703 1.10616,6.55917c0.34892,0.48382 2.02316,1.45802 3.99359,1.9257c1.75654,0.41693 3.74846,0.3848 5.24665,-0.02832c1.19555,-0.32965 5.56688,-3.06558 8.28455,-5.78284c1.51243,-1.51221 1.67427,-3.46676 2.50105,-3.92354c0.80007,-0.44202 -0.64177,4.48235 -0.61381,4.53756c0.50597,0.99892 -1.8871,10.36454 -1.8871,10.36454z" fill="#2d00e3" stroke="#ff0000" stroke-width="0" stroke-linecap="round"></path><path d="M187.88121,236.34128c-2.97118,-0.99694 -5.12943,-2.62168 -5.12943,-2.62168c0,0 0.55803,-24.21907 0.52253,-49.82428c-0.00869,-6.26902 -0.05787,-12.4623 0.1064,-18.38599c0.10731,-3.86951 2.2707,26.70357 4.70417,49.2559c0.36714,3.40254 1.65529,11.60365 7.3138,15.59698c3.42562,2.41753 10.91917,2.4866 13.73255,1.31922c1.81772,-0.75425 2.55445,-10.89834 6.5786,-15.40422c4.64676,-5.20303 12.56075,-4.63542 13.46257,-4.36005c0.07536,0.02302 -4.85956,-0.05724 -8.03002,1.92759c-3.03293,1.89872 -4.30579,5.70909 -4.31266,6.04658c-0.04686,2.30447 -0.90989,7.55673 -2.02999,11.43109c-0.78789,2.72531 -2.36357,4.61 -2.36745,4.66898c-0.06713,1.02039 -5.38598,2.20883 -10.81146,2.11715c-6.51027,-0.10998 -13.34534,-1.63501 -13.73961,-1.76733z" fill="#2d00e3" stroke="#ff0000" stroke-width="0" stroke-linecap="round"></path><g stroke-linecap="butt"><path d="M216.09015,154.611c1.02814,-2.12388 2.93715,-0.98002 2.93715,-0.98002c4.55233,2.72777 9.3212,5.85231 14.27867,7.57614c3.79539,1.31974 7.64538,2.25169 11.37242,3.91426l2.191,0.64692c0.26731,0.07154 0.52676,0.20123 0.76328,0.39172c0.97002,0.78121 1.18714,2.28939 0.48496,3.36859c-0.53758,0.8262 -1.45813,1.16149 -2.29545,0.92272l-3.39285,-0.87611c-2.76475,-0.00258 -5.42171,-1.43373 -8.22652,-1.44516c-6.65019,-0.0271 -13.91297,-0.10182 -20.48087,1.05685c-2.80778,0.49533 -5.68312,1.88668 -8.43224,2.73144l-2.3779,0.04305c-0.45561,0.10322 -1.00939,0.06642 -1.54467,-0.38511c-0.35887,-0.23863 -0.69834,-0.62258 -0.85287,-1.24031c-0.21302,-0.59581 -0.15169,-1.13003 0.00419,-1.56165c0.17309,-0.69041 0.56724,-1.08857 0.96869,-1.3182c4.36131,-3.8317 9.20788,-8.62701 14.42103,-10.9029c-0.17687,-0.50854 -0.19734,-1.1587 0.18196,-1.94225z" fill="#3f7ce2" stroke="none" stroke-width="0.5"></path><path d="M221.78585,152.17074c0.61247,-0.18717 1.21266,-0.33248 1.80734,-0.45254c1.92067,-0.95301 3.78713,-1.69473 5.87794,-2.31084c1.97221,-0.35323 3.933,-0.5516 5.87651,-0.59346c1.7948,-0.61712 3.61228,-1.11861 5.51594,-1.1317c1.5692,-0.01078 3.11271,0.47273 4.67925,0.57482l1.99025,0.44101c0,0 1.9963,0.46957 1.70636,2.65219c1.61033,0.64912 3.19599,1.42341 4.75292,2.324c3.09913,1.79267 6.38866,3.10371 9.10745,5.64384c3.64639,3.40677 6.98563,15.21933 3.16021,12.06489c-0.02842,-0.02052 -0.04354,-0.03269 -0.04354,-0.03269l0.0015,-0.00271c-0.07963,-0.06842 -0.15048,-0.13711 -0.21187,-0.2016c-0.50002,-0.18342 -1.00002,-0.36688 -1.50003,-0.5503c-3.8318,0.06306 -7.80978,0.04359 -11.62495,-0.38138c-2.4581,-0.27382 -4.74171,-1.25688 -7.17616,-1.65777c-2.37195,-0.3906 -5.26837,-0.31392 -7.56048,-1.14514c-6.17841,-2.24061 -17.83857,-7.77858 -23.28586,-11.69695c0,0 3.43578,-0.17355 4.61314,-2.19927c0.5494,-0.94529 1.23892,-1.16422 1.81815,-1.12889c0.11544,-0.06409 0.22982,-0.11457 0.33733,-0.15435c0.09792,-0.04248 0.15866,-0.06116 0.15866,-0.06116z" fill="#98fdff" stroke="none" stroke-width="0.5"></path><path d="M200.51331,167.19099c0.56382,-0.86653 1.54889,-1.19302 2.41737,-0.88364l1.23575,-1.39191l1.30032,-1.29013c0,0 0.12102,-0.11944 0.32627,-0.25626c0.01736,-0.23057 0.0661,-0.48066 0.15445,-0.75135c0.73999,-2.26748 2.77807,-1.44419 2.77807,-1.44419c4.05195,1.64127 8.11693,2.18394 12.31839,2.91576c0.71285,0.07457 1.40103,0.16957 2.05533,0.28343c0,0 0.12711,0.02326 0.31427,0.09288c0.39344,0.13721 0.93525,0.43025 1.25022,1.04464c0.20364,0.38028 0.31739,0.88234 0.23579,1.54258c-0.0672,0.66224 -0.28869,1.11761 -0.57032,1.43031c-0.44137,0.50903 -1.0314,0.64444 -1.44309,0.66951c-0.19681,0.01614 -0.32515,0.00381 -0.32515,0.00381l-1.17283,-0.11983c-0.40618,-0.07435 -0.81099,-0.14647 -1.21455,-0.2173c-4.36343,-0.40972 -9.61526,0.20391 -13.39102,1.83615l-0.36005,-0.09709l0.00643,0.14871l-2.20155,0.11806c-0.288,0.0182 -0.58034,-0.02718 -0.85885,-0.13932c-0.71969,0.46998 -1.65099,0.45306 -2.37028,-0.12621c-0.97002,-0.78121 -1.18714,-2.28939 -0.48496,-3.36859z" fill="#00aeff" stroke="none" stroke-width="0.5"></path><path d="M259.93054,157.24597c0.07062,0.04847 0.1413,0.09688 0.21204,0.14527c0.42128,0.1713 0.8508,0.51033 1.10122,1.1667c0.20472,0.40573 0.32955,0.92734 0.18824,1.54696c-0.08159,0.63276 -0.37568,1.0621 -0.70394,1.35041c-0.46364,0.50865 -0.98601,0.63609 -1.43918,0.61066l-2.22644,0.36447c-8.71569,-1.78773 -17.1539,-4.7175 -23.73547,-11.45005c0,0 -1.5958,-1.63315 -0.12786,-3.40856c1.19483,-1.4451 2.47437,-0.63195 2.90911,-0.27936c0.40221,-0.2923 0.87969,-0.42564 1.35263,-0.38569l2.17092,0.14473c1.58152,-0.00332 3.68568,-0.10032 5.21263,0.33136c2.75929,0.78006 4.98377,2.99688 7.37896,4.55805c1.11008,0.72353 2.19992,1.4685 3.28369,2.22155c0.82834,0.19599 1.6649,0.45289 2.52953,0.85267l0.98954,0.72067c0,0 0.72012,0.57996 0.90436,1.51014z" fill="#ffffff" stroke="none" stroke-width="0.5"></path><path d="M244.37539,147.78105c17.63833,6.17425 24.81,19.45083 23.90319,22.65729c-0.90679,3.20646 -13.59499,0.53606 -32.02596,-1.11746c-20.46128,-1.83566 -37.76324,3.77869 -36.85644,0.57221c0.90681,-3.20649 27.34086,-28.28631 44.97921,-22.11205z" fill="none" stroke="#13263b" stroke-width="3"></path></g><g fill="#67080a" stroke="#000000" stroke-width="2" stroke-linecap="round"><path d="M189.82822,171.39317l7.00315,8.06124l-3.65381,7.02109l-3.64875,-4.16147z"></path><path d="M202.31209,185.95543l-4.87176,7.28113l-2.74036,-3.90061l8.83006,-9.36146z"></path><path d="M213.88253,189.85605h12.78837l4.56727,6.76105l11.26594,-3.64057l4.56727,2.08032l5.78521,-0.52008l-11.87491,10.14157l-20.096,1.82028l-8.83006,-7.80121l-7.91661,0.26004l-2.74037,-7.54117l7.91661,-9.10142z"></path></g><g><path d="M304.12279,193.86877c-0.15184,1.06057 -1.21068,1.86322 -1.98012,1.75308c-0.76943,-0.11016 -4.58248,-5.29911 -4.43064,-6.35969c0.0815,-0.56932 -11.70868,-3.87723 -11.08848,-4.16782c0.12625,-0.05915 0.55579,-2.6211 1.73383,-2.42344c3.81565,0.6402 11.81551,4.90703 12.08784,4.94603c0.09162,0.01312 -3.45001,-3.09177 -4.16127,-6.41931c-1.2994,-6.07917 -0.4481,-14.27938 -0.08085,-13.74895c0.33367,0.48193 1.07264,-3.99149 7.34531,-2.26274c2.08455,0.57449 9.13545,3.66098 10.88075,7.59187c2.19674,4.94768 -0.54838,10.86983 -0.07275,12.5607c1.0195,3.62439 -4.06574,6.70037 -7.25262,7.95956c-1.80693,0.71395 -2.96432,0.45427 -2.98099,0.57074z" fill="#516087" stroke="none" stroke-width="0" stroke-linecap="butt"></path><path d="M308.08862,171.53501c-0.09825,0.68625 -1.03765,1.11949 -2.09822,0.96765c-1.06058,-0.15184 -1.84069,-0.83123 -1.74245,-1.51749c0.09825,-0.68625 1.03764,-1.11948 2.09823,-0.96765c1.06058,0.15184 1.84068,0.83123 1.74244,1.51748z" fill="#9ec6c6" stroke="none" stroke-width="0" stroke-linecap="butt"></path><path d="M300.37535,187.29949c-0.07082,0.49466 -0.63867,1.00291 -1.10364,1.45879c-0.47329,0.46405 -0.84545,0.87305 -1.10264,1.06883c-0.90266,0.68708 -4.17651,-1.96165 -4.03361,-2.95983c0.09678,-0.67602 0.85058,-2.33499 1.94647,-2.40342c0.14884,-0.00929 -3.2245,-1.11651 -5.98281,-1.63404c-1.55047,-0.29091 -3.40745,0.89957 -3.11172,-0.58799c0.15915,-0.80046 -0.75713,-2.13082 -0.73045,-3.65021c0.03799,-2.16396 1.11455,-4.67843 2.44988,-6.3097c1.10753,-1.353 2.46837,-4.10847 3.94293,-5.03079c3.53397,-2.21042 7.36628,-1.59811 7.36628,-1.59811c0,0 -2.17811,1.81792 -2.07111,7.05354c0.03558,1.74024 0.64498,7.34488 3.12953,11.17594c3.19456,4.92586 8.40262,8.16963 8.40262,8.16963c0,0 -2.50505,2.6807 -4.08395,1.8388c-1.26818,-0.67624 -2.12864,-2.40151 -3.03357,-3.82447c-0.99804,-1.56943 -1.97798,-2.81072 -1.98425,-2.76696z" fill="#393b47" stroke="none" stroke-width="0" stroke-linecap="butt"></path><path d="M288.01174,186.39531c0,0 1.25706,-1.33886 1.81923,-1.91984c0.42483,-0.43905 1.2587,-1.26111 1.2587,-1.26111l5.71629,1.94229c0,0 -0.44605,1.03536 -0.87222,1.43955c-0.48211,0.45726 -1.87335,1.16456 -1.87335,1.16456z" fill="#9ec6c6" stroke="none" stroke-width="0" stroke-linecap="butt"></path><path d="M281.68134,221.01807c-0.14029,0.97999 -1.37025,1.86438 -2.55299,1.69506c-1.18274,-0.16933 -5.85541,-4.89594 -5.7151,-5.87593c0.14029,-0.97999 17.52342,-30.21529 18.70615,-30.04596c0.16236,0.02324 7.45478,3.95018 7.20198,5.04549c-1.58876,6.88381 -17.51901,28.33588 -17.64004,29.18134z" fill="#2e2230" stroke="none" stroke-width="0" stroke-linecap="butt"></path><path d="M299.76632,195.00911c-0.07092,0.49534 5.14811,5.11876 5.02838,6.03c-0.18792,1.43032 0.20316,3.44441 -0.57559,5.08932c-1.00584,2.12457 -2.71763,1.93935 -4.36177,3.64661c-1.22709,1.2742 -1.76922,3.27408 -2.89383,4.55949c-1.08703,1.24247 -2.76421,1.79445 -3.51476,1.68699c-0.89723,-0.12845 -4.00905,4.85354 -7.56352,5.28104c-2.18794,0.26314 -10.73468,-4.49021 -12.46097,-5.13812c-1.87485,-0.70365 -1.37867,-5.87635 -2.36564,-6.55643c-1.81064,-1.24763 3.44711,-1.61986 2.50345,-2.87806c-0.63158,-0.84211 -1.10355,-1.54249 -1.00179,-2.25333c0.10402,-0.72664 -0.70933,-3.11999 0.13777,-3.57033c0.59346,-0.31548 -6.58206,-4.27959 -5.68346,-4.39674c1.19572,-0.1559 -0.12105,-4.73089 2.19382,-4.24765c0.93323,0.19481 3.79443,-2.45759 4.92846,-2.02471c6.49805,2.48041 13.63902,11.11023 15.2602,11.34233c3.88616,0.55636 10.90626,-10.32141 10.36926,-6.57042z" fill="#2d00e3" stroke="none" stroke-width="0" stroke-linecap="butt"></path><path d="M299.70292,202.43053c-0.84832,1.78416 -2.80604,3.47095 -5.57449,3.25798c-1.66248,-0.12789 -2.96541,-0.92474 -4.73348,-1.87597c-1.39281,-0.74934 -3.31309,-1.58129 -4.28986,-2.34791c-0.62355,-0.48939 8.25215,7.01935 -0.06343,8.89438c-1.11698,0.25187 -5.30147,-1.37136 -8.38524,-2.93335c-0.42503,-0.21529 -0.82303,-0.43005 -1.19127,-0.63835c-0.35873,-0.20292 -1.79708,-1.38455 -2.16402,-1.10065c-0.09663,0.07476 0.26882,1.12215 1.88086,2.47955c1.9809,1.66797 -3.20897,-1.27597 -2.40335,0.64614c2.80203,6.68531 9.73435,5.68523 9.9828,5.66172c0.61402,-0.0581 6.00364,-1.19519 -5.1853,-4.54226c-3.38148,-1.01155 -5.0125,-5.01621 -5.0495,-5.03849c-0.47768,-0.28748 0.23074,-4.70864 1.04326,-5.76179c1.77586,-2.30178 5.04348,-2.05101 4.53127,-2.92996c-0.35596,-0.61081 -2.40929,1.20943 -5.45146,-0.14201c-0.98584,-0.75866 -1.43969,-1.62733 -1.21995,-2.55424c0.33832,-1.4271 2.04282,-2.9004 3.14468,-4.83658c1.01921,-1.79096 0.64762,-4.59568 1.91049,-5.83341c1.45773,-1.42871 3.67925,-1.82653 3.80103,-1.79204c3.5938,1.01772 5.33936,2.18718 5.61743,3.31298c0.19554,0.79162 -1.17422,1.69399 0.49997,1.93368c4.05513,0.58055 17.58794,7.12148 13.29957,16.1406z" fill="#3300ff" stroke="none" stroke-width="0" stroke-linecap="butt"></path><path d="M273.77644,207.40741c0,0 -1.13138,-1.26743 -1.35595,-2.39205c-0.22457,-1.12463 -0.33818,-1.82491 -0.18095,-2.92318c0.15723,-1.09827 0.38689,-1.72353 0.97983,-2.65709c0.59295,-0.93355 1.03078,-1.27882 1.98664,-2.01342c0.95586,-0.73459 2.59252,-1.36054 2.59252,-1.36054c0,0 -0.499,-1.63972 -0.50735,-2.7368c-0.00836,-1.09707 -0.20235,-1.45654 0.49034,-2.72716c0.69268,-1.27064 1.66467,-2.09185 2.49037,-2.74056c0.8257,-0.6487 1.01244,-0.87615 2.35,-1.06226c2.06989,-0.28797 3.65462,0.08091 5.32861,0.46314c1.67399,0.38223 1.85168,0.45434 4.05551,1.67957c2.20384,1.22522 3.74506,2.29012 5.38363,3.56809c1.63857,1.27798 2.80192,2.47993 3.87309,3.65156c1.07117,1.17163 1.74613,1.84664 2.43263,3.24553c0.68651,1.39889 0.88934,2.48422 1.04781,3.84652c0.15848,1.3623 0.36187,2.30855 -0.19684,3.46853c-0.55871,1.15998 -1.51415,1.52868 -2.50417,2.13915c-0.99002,0.61045 -2.21668,0.64305 -2.75562,1.10408c-0.53895,0.46102 -0.00653,0.69355 -0.54598,1.72015c-0.53944,1.02659 -0.82172,1.5927 -1.65112,2.46108c-0.8294,0.86837 -1.71477,1.47321 -2.46213,1.84544c-0.74735,0.37223 -0.85751,-0.25184 -2.0561,0.40498c-1.19859,0.65683 -0.99652,0.98397 -2.71399,2.20901c-1.06458,0.75933 -2.18877,2.18035 -3.73101,2.62912c-0.94581,0.27522 -2.2742,-0.05526 -3.17885,-0.42136c-2.37979,-0.96304 -4.15306,-1.62886 -6.01328,-2.65918c-1.86023,-1.03032 -3.601,-2.21648 -4.44668,-3.13425c-0.84569,-0.91778 -0.8878,-1.64254 -1.17395,-2.96543c-0.28617,-1.32289 -0.59058,-2.51486 -0.20876,-3.42669c0.38182,-0.91183 2.67173,-1.21601 2.67173,-1.21601z" fill="none" stroke="#000000" stroke-width="2" stroke-linecap="round"></path><path d="M287.54009,203.3835c0,0 -3.67357,-2.27687 -6.05023,-3.79674c-2.90299,-1.85645 -3.86375,-3.71683 -3.86375,-3.71683" fill="none" stroke="#000000" stroke-width="2" stroke-linecap="round"></path><path d="M282.18092,211.5079c0,0 -3.41931,-1.27682 -4.91184,-2.01147c-1.35657,-0.66773 -3.67443,-2.21494 -3.67443,-2.21494" fill="none" stroke="#000000" stroke-width="2" stroke-linecap="round"></path><path d="M272.87471,199.62738c0,0 -1.00819,-0.01773 -2.04187,-0.39223c-1.03368,-0.37449 -2.03897,-0.60624 -2.70011,-1.05516c-0.66114,-0.44891 -0.95914,-0.62629 -1.21524,-1.60341c-0.25609,-0.97712 -0.03629,-1.689 0.36441,-2.54538c0.4007,-0.85639 0.7674,-1.09955 1.6509,-1.76177c0.88351,-0.66221 1.46575,-1.02363 2.4362,-1.50333c1.06513,-0.52648 1.7904,-0.72023 2.4383,-1.35701c0.64791,-0.63678 0.86151,-0.76257 1.28101,-2.45258c0.41949,-1.69001 0.23277,-2.64434 0.60246,-3.51037c0.33233,-0.77851 1.03128,-1.14273 1.93058,-1.62182c0.89931,-0.4791 1.57334,-0.70035 2.50375,-0.74052c0.93043,-0.04016 1.53609,0.21189 2.32156,0.53217c0.78546,0.32028 1.07251,0.52079 1.83185,1.16141c0.75934,0.64063 1.31515,1.05853 1.73374,1.8467c0.41858,0.78817 0.53082,2.25085 0.53082,2.25085" fill="none" stroke="#000000" stroke-width="2" stroke-linecap="round"></path><path d="M281.93518,220.8219c0,0 -0.60468,1.37737 -1.39914,1.72096c-0.79446,0.34359 -1.7137,0.03848 -2.20548,-0.16204c-0.49178,-0.20053 -1.87123,-1.07796 -2.86119,-2.02348c-0.98995,-0.94552 -1.58019,-1.69273 -2.3445,-2.94857c-0.76432,-1.25584 -1.13957,-2.77607 -1.13957,-2.77607" fill="none" stroke="#000000" stroke-width="2" stroke-linecap="round"></path><path d="M287.0437,186.01676c0,0 2.3462,0.26781 3.80405,0.64451c1.45788,0.3767 2.04259,0.48716 3.24449,1.06393c1.20191,0.57676 2.27003,1.15082 3.57981,2.2109c1.30978,1.06007 1.5255,1.49196 2.20901,2.71398c0.68352,1.22204 1.13191,3.25913 1.13191,3.25913" fill="none" stroke="#000000" stroke-width="2" stroke-linecap="round"></path><path d="M286.12115,184.08638c0,0 0.58297,-0.99579 1.25909,-1.11852c0.67614,-0.12273 3.02102,-0.31317 4.88116,0.09937c1.86014,0.41252 3.35859,1.11236 5.27213,2.25335c1.91355,1.141 2.73457,1.75831 4.11093,3.3859c1.37636,1.62759 1.50948,2.11954 2.06886,3.69298c0.55939,1.57345 0.36294,2.3498 0.36294,2.3498c0,0 -0.79139,0.69454 -1.21262,0.90127c-0.35559,0.17452 -1.1514,0.25888 -1.1514,0.25888" fill="none" stroke="#000000" stroke-width="2" stroke-linecap="round"></path><path d="M286.87674,182.99568c0,0 -0.59121,-1.56787 -0.71249,-2.69956c-0.12128,-1.1317 -0.12901,-2.01794 0.07092,-3.28674c0.19992,-1.26881 0.35457,-2.32845 1.02209,-3.6501c0.66752,-1.32165 1.47034,-2.48423 2.74244,-3.80343c1.2721,-1.31922 2.17362,-2.27352 3.94505,-3.13173c1.77142,-0.85821 3.17383,-1.03623 5.2872,-1.3411c2.11336,-0.30486 2.5246,-0.32407 4.09797,-0.01275c1.57337,0.31131 3.1974,0.81937 5.03449,1.81971c1.8371,1.00034 2.45085,1.55336 3.67751,2.92422c1.22666,1.37086 2.06439,2.42722 2.78198,4.2946c0.71759,1.86738 0.7502,2.89658 0.71186,4.79749c-0.03833,1.90092 -0.40733,3.54127 -0.92482,5.76205c-0.51748,2.22077 -0.41708,2.13047 -1.03596,3.28178c-0.61889,1.15131 -1.33239,2.15624 -2.50452,3.30467c-1.17214,1.14842 -1.94301,1.40302 -3.30139,2.12492c-1.35838,0.7219 -3.51099,1.49548 -3.51099,1.49548" fill="none" stroke="#000000" stroke-width="2" stroke-linecap="round"></path><path d="M290.50403,182.31609c0,0 -0.41665,-1.56098 -0.54932,-2.6762c-0.13267,-1.11521 -0.15739,-1.88383 -0.1389,-3.21688c0.01849,-1.33304 0.15801,-2.03113 0.50442,-3.05816c0.3464,-1.02703 0.5752,-1.40897 1.25944,-2.28405c0.68426,-0.87507 1.02241,-1.17788 1.76281,-1.84566c0.74042,-0.66777 1.8618,-1.68079 3.25028,-2.69836c1.38848,-1.01757 2.43403,-1.41655 2.43403,-1.41655" fill="none" stroke="#000000" stroke-width="1.5" stroke-linecap="round"></path><path d="M293.00282,182.77374c0,0 -0.02279,-1.08441 0.02623,-2.1845c0.03288,-0.73786 0.05422,-1.3858 0.09621,-1.92742c0.10456,-1.34915 0.21914,-2.22042 0.52317,-3.4218c0.30402,-1.20139 0.35418,-1.66056 1.16175,-2.99737c0.80758,-1.33682 0.70963,-1.45641 2.44853,-3.14617c1.73888,-1.68977 4.99426,-3.94729 4.99426,-3.94729" fill="none" stroke="#000000" stroke-width="1.5" stroke-linecap="round"></path><path d="M296.47086,184.3692c0,0 -0.1034,-1.38775 0.20606,-3.06758c0.30946,-1.67983 0.53725,-2.7208 1.13881,-4.23283c0.60156,-1.51203 1.19174,-2.46557 1.99181,-3.67778c0.80007,-1.2122 0.83742,-1.25203 2.28062,-2.90379c1.4432,-1.65177 4.40226,-4.23186 4.40226,-4.23186" fill="none" stroke="#000000" stroke-width="1.5" stroke-linecap="round"></path><path d="M310.49918,168.49437c0,0 -0.45572,1.42438 -1.14213,2.88847c-0.41618,0.88767 -0.9938,1.73685 -1.38632,2.4442c-1.03991,1.87402 -1.54464,2.52447 -2.65862,4.14845c-1.11397,1.62398 -1.54257,2.38585 -2.63988,3.78482c-0.40268,0.51339 -1.04596,1.2984 -1.59275,1.93313c-0.94321,1.09491 -1.89565,1.96332 -1.89565,1.96332" fill="none" stroke="#000000" stroke-width="1.5" stroke-linecap="round"></path><path d="M314.41855,173.2182c0,0 -0.73881,2.69259 -1.37192,4.23275c-0.63311,1.54016 -1.10785,2.50225 -2.15505,3.88753c-1.0472,1.38527 -2.04491,2.48789 -3.63755,3.77519c-0.65484,0.52929 -1.55327,1.35396 -2.51602,1.96588c-1.37874,0.87632 -2.7718,1.47316 -2.7718,1.47316" fill="none" stroke="#000000" stroke-width="1.5" stroke-linecap="round"></path><path d="M315.39505,181.75011c0,0 -1.95218,3.51443 -3.62402,5.30902c-1.67183,1.79459 -2.43793,2.09798 -4.23876,3.08968c-1.80082,0.99171 -4.11241,1.50929 -4.11241,1.50929" fill="none" stroke="#000000" stroke-width="1.5" stroke-linecap="round"></path><path d="M291.98629,167.77552c0,0 1.16313,0.02132 2.95106,0.08946c1.78794,0.06815 1.88952,-0.20544 4.57345,0.15522c2.68393,0.36066 4.92639,0.7563 6.7969,1.37269c1.87051,0.61638 3.10946,1.29102 4.4609,2.33703c1.35145,1.04601 1.75169,1.23749 2.82423,3.30159c1.07254,2.0641 1.71868,5.44116 1.71868,5.44116" fill="none" stroke="#000000" stroke-width="1.5" stroke-linecap="round"></path><path d="M288.26472,171.90502c0,0 3.87375,-0.30823 6.54566,-0.36168c2.67192,-0.05345 2.71675,0.08922 4.44752,0.337c1.73077,0.24778 2.65554,0.41188 4.24684,1.04091c1.59129,0.62904 2.61819,1.12226 4.08333,2.18308c1.46515,1.06081 1.89712,1.42076 2.8151,2.66755c0.91797,1.24678 1.35797,2.25654 2.05483,3.79088c0.69687,1.53434 1.51361,5.24528 1.51361,5.24528" fill="none" stroke="#000000" stroke-width="1.5" stroke-linecap="round"></path><path d="M286.68177,180.1704c0,0 0.55874,-0.50661 1.26321,-0.89695c0.61772,-0.34226 1.3425,-0.56029 1.9681,-0.73847c1.33905,-0.38137 1.76079,-0.48033 3.5386,-0.29265c1.7778,0.18769 2.53373,0.44601 4.43329,1.13421c1.89956,0.68821 3.14004,1.05746 4.68474,2.16927c1.54471,1.1118 2.56267,2.09097 3.2857,3.56748c0.72302,1.4765 0.60411,2.23178 0.50225,4.16805c-0.10185,1.93628 -1.98491,3.10526 -0.96645,4.65713" fill="none" stroke="#000000" stroke-width="1.5" stroke-linecap="round"></path></g><g stroke-width="0" stroke-linecap="round"><g stroke="#33ff00"><g><path d="M134.12052,143.68518c0,0 -0.3811,-2.66426 0.73202,-2.9794c0.65664,-0.1859 3.92262,-0.38374 6.46542,-0.31241c1.76772,0.04959 3.16988,0.35677 3.16988,0.35677l1.91793,0.73463l-0.375,1.79442c0,0 -0.23217,0.69175 -5.98568,0.94182c-6.65922,0.2894 -5.92455,-0.53581 -5.92455,-0.53581z" fill="#000000"></path><path d="M136.34886,141.79438l4.06296,-0.0666c0,0 -0.24728,0.56277 -0.28285,0.84517c-0.03551,0.28188 0.06958,0.84764 0.06958,0.84764l-4.31618,0.1061c0,0 -0.34324,-0.72718 -0.25962,-1.03767c0.0691,-0.25662 0.72612,-0.69466 0.72612,-0.69466z" fill="#5c5c85"></path><path d="M142.69379,141.6767l2.45313,0.56046l0.04487,0.95751l-2.54063,0.13403c0,0 0.26522,-0.70039 0.27247,-0.98142c0.00695,-0.2691 -0.22984,-0.67058 -0.22984,-0.67058z" fill="#d8c6f9"></path></g><g><path d="M151.73239,146.6089c0,0 -3.67489,22.68072 -4.8773,32.4007c-0.99756,8.06395 -1.83812,21.88437 -1.83812,21.88437c0,0 -0.58331,5.84297 -1.51712,10.65531c-0.69144,3.56329 -1.66053,6.51195 -2.28067,6.36408c-1.22522,-0.29213 -2.63957,-0.69035 -4.13812,-1.14817c-0.45705,-0.13961 0.31299,-10.12628 1.72168,-21.60073c2.66969,-21.74621 8.81052,-51.41905 9.38054,-51.25112c0.37562,0.11066 0.93473,0.2754 0.93473,0.2754z" fill="#000000"></path><path d="M150.51044,147.44349c0,0 -4.40363,23.62983 -5.60606,33.34977c-0.99756,8.06395 -3.18111,35.77193 -3.80125,35.62408c-1.22522,-0.29213 -1.40282,-0.03053 -2.90135,-0.48835c-0.45705,-0.13961 0.84044,-9.47761 2.24913,-20.95209c2.66969,-21.74621 8.58063,-49.29538 8.58063,-49.29538z" fill="#251d47"></path></g><g><path d="M121.37732,212.50797l-3.71057,0.97403l0.66523,-9.75218c0,0 1.22714,-1.7444 1.55532,-2.64881c0.31646,-0.87206 0.37999,-2.68411 0.37999,-2.68411l4.01448,-34.85512l-1.33671,-1.8327c0,0 0.72226,-6.11047 1.09992,-8.9249c0.37376,-2.78545 1.15441,-7.87564 1.15441,-7.87564l5.57265,-1.08651c0,0 -5.25956,25.18882 -6.90601,36.85108c-1.51272,10.71504 -2.60551,30.52184 -2.60551,30.52184z" fill="#000000"></path><path d="M126.72894,146.88142l3.02031,-0.50507l-2.93859,14.4581l-1.55036,-3.33964z" fill="#5c5c85"></path><path d="M127.93474,146.67976c0.54325,-0.09083 1.81449,-0.30343 1.81449,-0.30343c0,0 -0.13141,0.64656 -0.26638,1.31068c-0.22543,1.10915 -1.59315,0.56881 -1.98957,0.00753c-0.35534,-0.50311 0.23216,-0.9798 0.44148,-1.0148z" fill="#d8c6f9"></path></g><g><path d="M137.3082,216.83432c-1.39092,-0.42169 -2.85989,-0.89736 -4.32154,-1.38914c-0.38078,-0.12812 -0.1761,-11.96864 1.60679,-27.28198c1.70594,-14.65246 7.34535,-44.93157 7.62869,-44.92903c2.02354,0.01826 3.8086,0.04501 3.8086,0.04501l3.08728,0.90955c0,0 -5.02505,20.44124 -7.90336,39.24279c-2.6913,17.57992 -3.22309,33.60998 -3.90646,33.40279z" fill="#000000"></path><path d="M136.66256,215.52197c-1.17648,-0.36488 -2.33251,-0.68339 -3.54793,-1.09235c-0.38078,-0.12812 0.34419,-11.26306 2.12707,-26.5764c1.70593,-14.65245 7.61044,-43.00631 7.89376,-43.00375c2.02354,0.01826 4.22108,1.23268 4.22108,1.23268c0,0 -4.18893,18.64001 -7.06725,37.44157c-2.6913,17.57992 -3.38841,32.07218 -3.62672,31.99827z" fill="#251d47"></path><path d="M135.89184,182.93473c2.21263,-15.27478 6.98948,-38.08759 7.24363,-38.08529c2.02354,0.01826 4.22108,1.23268 4.22108,1.23268c0,0 -4.18893,18.64004 -7.06725,37.44157c-1.06102,6.93073 -2.98979,8.09276 -3.73267,7.43753c-1.14145,-1.00675 -0.8187,-6.96386 -0.66477,-8.02648z" fill="#5c5c85"></path></g><g><path d="M132.98669,215.44518c-0.88033,-0.2962 -0.04706,1.50587 -0.9034,1.20628c-4.90563,-1.71621 -10.82273,-5.4565 -10.82273,-5.4565c0,0 -1.51988,-0.80111 -1.64556,-2.42045c-0.04474,-0.57645 -0.02873,-1.49019 0.02102,-2.5421c0.01778,-0.37578 0.03985,-0.76919 0.06502,-1.17115c0.08297,-1.32597 0.19942,-2.74506 0.30517,-3.93149c0.02826,-0.31714 0.05577,-0.61764 0.08164,-0.8953c0.10228,-1.0971 0.17946,-1.83757 0.17946,-1.83757c0,0 0.09349,-0.78382 0.2332,-1.95502c0.03563,-0.29869 0.07427,-0.62258 0.11514,-0.96509c0.14534,-1.21849 0.31878,-2.67262 0.48503,-4.06622c0.05327,-0.44653 0.10578,-0.88686 0.15639,-1.31121c0.78396,-6.57243 3.33435,-27.95384 3.33435,-27.95384c0,0 2.33381,-9.82868 3.47483,-13.21141c0.76151,-2.25757 2.70582,-5.11204 2.70582,-5.11204l3.01198,-0.26573c0,0 2.1822,-0.29473 3.48103,-0.32412c1.24288,-0.02811 3.80108,-0.01063 5.83462,0.01057c0.90629,0.00945 -4.68153,19.84283 -7.65096,39.70816c-0.22641,1.51464 -1.31298,9.82642 -1.75406,18.34162c-0.34512,6.66236 -0.40735,14.25383 -0.70799,14.15267z" fill="#000000"></path><g><path d="M130.57018,213.88859c-1.02939,0.08899 -8.96353,-3.47077 -8.96353,-3.47077c0,0 1.78956,-29.52186 4.13873,-40.68904c2.34915,-11.16718 5.73668,-24.64346 5.73668,-24.64346c0,0 7.76106,-0.1968 9.79459,-0.1756c0.90629,0.00945 -3.23141,18.29541 -6.20083,38.16075c-3.53627,23.65737 -3.47622,30.72918 -4.50559,30.81816z" fill="#5c5c85"></path><path d="M127.23942,170.40196c-1.02938,0.08899 -5.6328,40.01583 -5.6328,40.01583c0,0 1.78957,-29.52187 4.13872,-40.68905c2.34915,-11.16718 5.73668,-24.64344 5.73668,-24.64344c0,0 7.76107,-0.1968 9.79461,-0.17561c0.38215,0.00398 -8.63807,-0.20331 -9.49492,3.41959c-2.66096,11.2512 7.07393,12.43753 7.0626,12.49953c-0.72835,3.98465 -1.54178,8.49626 -2.34163,13.26961c-0.10715,0.63951 -7.37745,-9.19394 -8.4745,-8.1147c-2.42146,2.38212 3.81321,8.27204 6.5714,10.71621c0.73614,0.65232 1.36237,0.68206 1.34581,0.78461c-0.10386,0.64328 -0.20708,1.29 -0.30945,1.9396c-0.19018,1.20685 -7.36709,-9.11115 -8.39647,-9.02216z" fill="#d8c6f9"></path><path d="M130.57018,213.88859c-1.02939,0.08899 -8.96353,-3.47077 -8.96353,-3.47077l2.69247,-17.18515l7.12725,1.83745c0,0 3.70901,-12.39836 3.64942,-11.99966c-3.53627,23.65737 -3.47622,30.72919 -4.5056,30.81816z" fill="#251d47"></path></g><g fill="#000000"><path d="M121.10066,191.41054c0.05327,-0.44653 0.10579,-0.88686 0.15641,-1.31123c0.00031,-0.00259 3.08913,0.72345 6.32777,1.235c3.09918,0.48951 6.35431,0.76546 6.35428,0.76579c-0.03747,0.37199 -0.07322,0.73909 -0.10732,1.10128c-0.00454,0.04827 -3.32292,-0.47363 -6.57426,-0.93624c-3.11051,-0.44256 -6.16042,-0.82497 -6.15689,-0.85461z"></path><path d="M120.00621,201.12977c0.02827,-0.31714 0.05576,-0.61765 0.08165,-0.89531c0.03911,-0.41944 5.85161,0.31123 9.71891,0.77976c1.66409,0.20161 3.48432,0.0814 3.47756,0.25106c-0.02889,0.72501 -0.05071,1.41978 -0.06662,2.08489c-0.00534,0.2233 -3.56857,-1.00987 -6.67424,-1.67924c-3.2499,-0.70045 -6.56526,-0.22676 -6.53726,-0.54114z"></path><path d="M120.50052,196.44184c0.03563,-0.29869 0.07426,-0.62259 0.11513,-0.96509c0.03177,-0.26637 2.86348,0.61836 5.81413,0.80648c3.47763,0.2217 7.15649,-0.20124 7.13525,0.08531c-0.02234,0.30175 -0.04353,0.59952 -0.06356,0.8934c-0.02499,0.36656 -13.03486,-0.53565 -13.00094,-0.82009z"></path><path d="M119.63602,206.23242c0.01778,-0.37578 0.03985,-0.76918 0.06501,-1.17115c0.03886,-0.62111 13.48228,0.51882 13.48119,0.96055c-0.00137,0.55835 0.00115,1.09006 0.00652,1.59559c0.00018,0.01737 -2.6162,-0.97613 -5.65648,-1.26072c-3.67816,-0.34429 -7.90202,-0.0021 -7.89623,-0.12428z"></path></g></g></g><g stroke="#33ff00"><g><path d="M147.98997,199.38044c0,0 7.40899,0.72833 10.95315,1.31327c3.71109,0.61248 10.83562,2.28277 10.83562,2.28277c0,0 1.89136,3.48558 1.36374,9.74615c-0.60252,7.14929 -3.92632,8.59164 -3.92632,8.59164c0,0 -15.57169,-2.62702 -22.9725,-4.29835c-1.21693,-0.27482 0.35878,-7.61876 1.62376,-12.02595c1.22526,-4.2688 2.12256,-5.60948 2.12256,-5.60948z" fill="#000000"></path><path d="M148.97194,201.04516c0,0 6.63321,0.61909 9.80755,1.11584c3.32385,0.52013 9.70765,1.93802 9.70765,1.93802c0,0 1.71112,2.95632 1.27282,8.26544c-0.50054,6.06281 -3.46677,7.28533 -3.46677,7.28533c0,0 -13.94712,-2.23087 -20.57812,-3.64969c-1.09034,-0.23331 0.2799,-6.46099 1.38797,-10.19825c1.07328,-3.6199 1.86893,-4.75669 1.86893,-4.75669z" fill="#251d47"></path><path d="M148.97194,201.04516c0,0 6.63321,0.61909 9.80755,1.11584c3.32385,0.52013 9.70765,1.93802 9.70765,1.93802c0,0 0.6511,1.12489 1.04714,3.23299c0.05664,0.30153 -5.45492,-3.64478 -13.25275,-4.20236c-3.62425,-0.25916 -9.18775,2.70332 -9.17852,2.6722c1.07328,-3.6199 1.86892,-4.7567 1.86892,-4.7567z" fill="#5c5c85"></path></g><g><path d="M170.37064,204.47589c0.5034,1.58405 1.09703,4.3884 0.77184,8.24671c-0.60252,7.14929 -3.92631,8.59163 -3.92631,8.59163c0,0 -1.54458,-0.80041 -1.88904,-2.37683c-0.61896,-2.83255 -0.15456,-7.47047 0.27887,-9.49944c1.3451,-6.29683 4.45124,-5.94834 4.76468,-4.96209z" fill="#000000"></path><path d="M169.54712,205.8165c0.78089,0.14587 1.36083,3.07113 1.12397,5.88154c-0.43887,5.20758 -2.02001,7.20594 -2.77341,7.08886c-0.56733,-0.08818 -1.12506,-0.58302 -1.37598,-1.73128c-0.45085,-2.06324 -0.2084,-4.61161 0.10729,-6.0895c0.97976,-4.58663 2.19374,-5.28489 2.91811,-5.14958z" fill="#251d47"></path><path d="M169.54712,205.8165c0.47514,0.08875 -0.26145,3.00261 -1.09357,3.82538c-0.53544,0.5294 -1.28306,-0.78075 -1.19921,-1.03111c0.83122,-2.4824 1.7168,-2.90187 2.29278,-2.79427z" fill="#5c5c85"></path></g></g><g stroke="#33ff00"><path d="M154.67086,197.38703c1.49892,0.23476 2.94893,1.8078 2.94893,1.8078c0,0 8.62671,-2.64327 10.73333,-1.64412c2.10663,0.99915 3.23498,3.76864 1.43759,6.14418c-0.5462,1.11087 -4.37298,0.77429 -4.37298,0.77429c0,0 -1.36153,3.29187 -1.81806,7.30056c-0.45652,4.00869 0.28041,6.4735 -0.37565,8.28453c-0.87273,2.40918 -1.2946,5.11174 -5.89309,6.79618c-4.59849,1.68445 -13.21637,3.18894 -17.02485,1.39052c-2.17794,-1.02845 -3.2287,-2.18532 -4.56022,-3.20131c-0.99686,-0.76063 -2.25178,-1.35469 -3.70526,-2.23526c-3.29013,-1.99328 -8.94838,-3.89709 -9.92676,-5.02442c-1.98796,-2.29059 -0.31449,-6.28217 0.74925,-7.69726c1.65621,-2.2032 8.90153,-0.1462 8.90153,-0.1462c0,0 0.03028,-1.8175 0.17909,-2.50669c0.55253,-2.55897 2.18265,-8.7471 5.27508,-10.23519c2.42331,-1.16612 15.95319,-0.04233 17.45209,0.19244z" fill="#000000"></path><path d="M154.12883,199.09486c0.83194,0.1303 2.23693,0.97662 2.00793,2.35509c-0.0132,0.07949 -0.28356,0.60297 -0.66945,0.97214c-0.31146,0.29796 -0.7518,0.43279 -0.77719,0.63793c-0.09942,0.80294 -0.19775,1.16497 0.22169,1.08468c0.41942,-0.08028 1.53223,-1.62979 1.53223,-1.62979c0,0 7.82101,-4.38568 9.73892,-3.47602c1.91793,0.90965 3.02403,0.74544 2.21834,2.8935c-0.30326,0.80852 -2.60579,-0.75527 -3.22009,-0.07101c-1.39347,2.74691 -2.86867,6.36693 -3.28429,10.01656c-0.41564,3.64961 -0.0527,8.84616 -0.0527,8.84616c0,0 -2.78172,3.36784 -5.75203,4.45156c-6.01944,2.19618 -10.49041,2.53872 -15.38923,0.12626c-4.89883,-2.41246 -4.41511,-2.1129 -7.50597,-3.98542c-2.99544,-1.81472 -7.67643,-3.23144 -8.56718,-4.25781c-1.80988,-2.08543 -1.35308,-3.64453 0.13581,-5.66315c0.20452,-0.27726 0.72826,-0.53728 1.19921,-0.50606c0.64474,0.04274 1.33962,0.46263 2.34615,0.58631c1.18572,0.14568 2.77901,-0.15573 3.61197,0.1161c0.67881,0.22153 1.60493,5.09414 2.08709,4.83c0.75226,-0.41209 0.00134,-3.88764 -0.41897,-5.93851c-0.144,-0.70262 -0.3997,-1.06767 -0.33862,-1.31623c0.73004,-2.97002 2.54036,-9.14296 5.23148,-10.43794c2.20626,-1.06167 14.28024,0.15198 15.64489,0.36571z" fill="#3300ff"></path><path d="M142.76401,212.07853c0.16133,0.02527 1.0238,0.55809 1.90742,1.8121c0.81774,1.16048 1.61488,3.07737 3.48938,4.05925c1.72852,0.90543 4.42391,0.94936 7.73617,0.38989c1.21916,-0.20593 4.33203,-0.46391 4.49656,-1.48604c0.07724,-0.47984 -0.42737,-0.75673 -0.7081,-1.25149c-0.15109,-0.2663 -0.10123,-0.65604 -0.16775,-1.03853c-0.21274,-1.22315 0.25973,-2.70363 0.74146,-4.09158c0.89803,-2.58744 4.28092,-7.29218 4.24148,-7.20684c-1.16417,2.51968 -2.25564,5.55579 -2.60376,8.61263c-0.41564,3.64961 -0.0527,8.84615 -0.0527,8.84615c0,0 -2.78172,3.36784 -5.75203,4.45155c-6.01945,2.19618 -10.49041,2.53873 -15.38923,0.12626c-4.89883,-2.41246 -4.41511,-2.1129 -7.50597,-3.98543c-2.99544,-1.81472 -7.67642,-3.23143 -8.56718,-4.25781c-1.80988,-2.08543 -1.3531,-3.64452 0.13582,-5.66314c0.20451,-0.27726 -0.64303,2.4471 1.25843,3.55897c1.87359,1.09554 4.4346,-0.10623 5.44114,0.01744c1.18572,0.14567 1.89849,3.89507 2.73145,4.1669c0.67881,0.22153 -0.66877,-2.45286 -0.18661,-2.71698c0.75226,-0.41209 0.00134,-3.88764 -0.41897,-5.93851c-0.144,-0.70262 -0.39969,-1.06767 -0.33861,-1.31622c0.0978,-0.39792 0.21502,-0.85331 0.35111,-1.34678c0.2198,-0.79693 1.24478,0.4662 1.66613,1.45674c0.44901,1.05558 0.31936,1.91619 1.38817,3.49433c1.94262,2.8683 5.41015,5.24089 6.53794,4.6982c2.20624,-1.06165 -0.43182,-5.39107 -0.43182,-5.39107z" fill="#2d00e3"></path><path d="M134.96531,222.66394c0,0 0.41729,-1.11814 0.30955,-1.79114c-0.06186,-0.38639 -0.47125,-0.98332 -0.70781,-1.53534c-0.23943,-0.55871 -0.30566,-1.07024 -0.30566,-1.07024c0,0 1.32143,1.46139 1.62314,2.2816c0.28871,0.78488 0.14977,2.53832 0.14977,2.53832z" fill="#000000"></path></g><g stroke="#33ff00"><path d="M139.59876,210.42987c-2.29641,-1.10541 -4.64834,-2.65764 -6.17861,-3.45684c-0.77771,-0.40615 -1.33143,-0.50585 -1.31523,-0.574c0.44822,-1.88706 1.1735,-4.28356 2.25792,-6.13791c0.13274,-0.227 1.25891,-1.97019 1.94453,-3.85837c1.71,-4.70921 4.27108,-12.42257 8.15832,-15.1674c3.35138,-2.36645 16.12759,-1.82578 17.93951,4.53652c2.46441,8.65352 -10.32987,7.52544 -10.32987,7.52544c0,0 -0.85259,3.85606 -0.61682,3.8675c0.45301,0.02198 -0.72187,1.07811 -2.29522,2.66805c-0.28061,0.28358 -0.42538,0.63138 -0.72435,0.94608c-0.31218,0.32857 -0.77909,0.62528 -1.09575,0.98145c-0.95021,1.06879 -1.8849,2.24728 -2.58949,3.44815c-1.99446,3.39922 -1.45012,6.94187 -1.2739,6.96407c0,0 -1.40891,-0.55278 -3.881,-1.74276z" fill="#000000"></path><path d="M144.26986,213.18721c0.85536,0.10765 -10.77598,-4.93031 -10.48298,-5.99277c0.72154,-2.61632 1.83624,-5.70475 3.35833,-7.27306c0.30632,-0.31562 3.05688,-11.86592 6.7793,-16.77566c1.08409,-1.42988 5.18074,-2.07825 6.13274,-2.10418c3.09874,-0.08431 12.63974,1.25521 11.78689,6.62137c-0.96805,6.09098 -10.5987,3.52823 -10.83947,4.73152c-0.72807,3.63886 -1.19,6.9597 -1.3603,7.20683c-0.22921,0.33267 -1.15731,0.06382 -1.53258,0.45422c-0.59605,0.62005 -0.72113,1.95457 -1.43412,2.81729c-0.11642,0.14085 0.17448,-0.58198 -0.38322,-0.43814c-0.75644,0.19509 -2.40928,1.25955 -2.55846,1.47523c-0.2838,0.41031 1.58427,0.86664 1.35116,1.26721c-0.27513,0.47275 -0.5031,0.91657 -0.65592,1.27889c-0.24311,0.57637 -1.86453,-0.17148 -1.99788,0.34674c-0.79143,3.07596 1.58634,6.35303 1.83653,6.38454z" fill="#2d00e3"></path><path d="M133.78687,207.1944c0.72154,-2.61632 1.83624,-5.70473 3.35834,-7.27303c0.30632,-0.31562 3.0569,-11.86593 6.7793,-16.77566c0.71073,-0.93744 2.71634,-1.53897 4.28173,-1.84941c0.82232,-0.16307 5.37993,3.54353 5.54497,6.27741c0.16505,2.73387 -2.50578,3.61746 -2.74654,4.82074c-0.72807,3.63886 -0.84058,6.76765 -1.01088,7.01479c-0.22921,0.33267 -0.71266,0.84868 -1.08793,1.23907c-0.59605,0.62005 -1.51518,1.36176 -2.22819,2.22448c-0.11642,0.14085 -1.35743,1.90373 -1.59054,2.30432c-0.27513,0.47275 -0.50309,0.91656 -0.65592,1.27889c-0.24311,0.57637 -0.20501,6.78473 0.04517,6.81623c0,0 -10.98252,-5.01526 -10.68951,-6.07776z" fill="#3300ff"></path></g><g stroke="#33ff00"><path d="M145.1334,175.27813c0,0 1.44551,0.76708 2.69312,0.74387c2.51629,-0.04678 10.49828,-1.16046 11.07076,-0.47772c0.27355,0.32625 -1.31975,7.73496 -2.87252,14.53063c-1.37876,6.03402 -2.27008,8.56822 -2.27008,8.56822l-4.24569,0.57319c0,0 1.59925,-7.34931 1.92016,-9.58575c0.54823,-3.8207 1.90646,-8.75868 1.90646,-8.75868c0,0 -5.26412,0.40508 -6.93241,0.70128c-0.90119,0.16 -2.2846,0.93515 -2.2846,0.93515c0,0 0.09339,-3.41268 0.28004,-4.74253c0.13337,-0.95021 0.73478,-2.48766 0.73478,-2.48766z" fill="#000000"></path><path d="M157.888,176.56209c0.11758,0.14022 -5.12712,20.25252 -5.12712,20.25252l-1.5665,0.37953c0,0 5.41679,-17.71372 3.73906,-18.73281c-1.61529,-0.98117 -10.74891,2.25579 -10.73614,1.98863c0.04653,-0.97449 0.11361,-2.05928 0.20132,-2.68417c0.06526,-0.46493 0.24258,-1.07044 0.40664,-1.56768c0.00783,-0.02374 1.10362,1.13756 2.80121,1.1578c3.81071,0.04542 10.13186,-0.97234 10.28152,-0.79384z" fill="#251d47"></path><path d="M157.888,176.56209c0.11758,0.14022 -1.27684,2.91833 -2.95455,1.89926c-1.61529,-0.98117 -10.80483,2.26206 -10.7921,1.99491c0.04653,-0.97449 0.11362,-2.05929 0.20133,-2.68419c0.06526,-0.46493 0.24258,-1.07046 0.40664,-1.56769c0.00783,-0.02374 1.15959,1.13128 2.85717,1.15153c3.81071,0.04542 10.13186,-0.97235 10.28152,-0.79384z" fill="#5c5c85"></path></g><path d="M151.00561,198.73212c0,0 -2.71138,1.18335 -3.98011,2.71088c-1.70595,2.05393 -1.87361,3.37405 -2.36589,3.69265c-1.01425,0.65642 -1.34694,-1.0379 -0.88632,-1.6527c0.7273,-0.97073 1.91588,-1.1148 2.8208,-2.14005c1.56993,-1.77869 3.66997,-4.92005 3.66997,-4.92005z" fill="#000000" stroke="#2dff00"></path></g><g><g stroke-linecap="round"><path d="M197.00149,121.46117c11.89343,-4.80587 20.40947,-9.10323 32.48458,-7.31461c12.07511,1.78862 27.99309,5.954 21.61514,15.3281c-6.37794,9.3741 -24.99226,-1.91077 -31.72079,-0.47513c-6.72854,1.43564 -6.13789,8.50185 -13.3076,10.08263c-10.87385,2.39746 -4.97712,-5.13884 -8.41682,-6.50186c-2.91985,-1.15703 -10.59009,4.41949 -10.91852,-1.16001c-0.14551,-2.47191 3.63981,-7.28243 10.26402,-9.95912z" fill="#fff3df" stroke="none" stroke-width="0"></path><path d="M197.89889,122.75727c3.55566,-1.43675 3.20658,12.60459 6.75544,11.91085c6.50302,-1.27121 4.71047,-7.66964 11.64693,-9.9694c1.94004,-0.64321 12.40529,0.7792 14.25543,1.05326c12.07511,1.78862 26.92249,-5.65141 20.54453,3.72268c-6.37794,9.3741 -24.99227,-1.91077 -31.7208,-0.47513c-6.72854,1.43564 -6.13789,8.50185 -13.3076,10.08263c-10.87385,2.39746 -4.97713,-5.13884 -8.41682,-6.50186c-2.91985,-1.15703 -10.59009,4.41949 -10.91852,-1.16001c-0.14551,-2.47193 1.73779,-4.92707 8.36199,-7.60375z" fill="#cfa7a7" stroke="none" stroke-width="0"></path><path d="M229.48603,114.14658c12.07509,1.78862 27.99308,5.95399 21.61514,15.32808c-6.37794,9.3741 -24.99225,-1.91077 -31.72078,-0.47512c-6.72853,1.43564 -6.13787,8.50186 -13.30759,10.08263c-10.87385,2.39746 -4.97713,-5.13883 -8.41682,-6.50185c-2.91986,-1.15703 -10.59009,4.41948 -10.91853,-1.16001c-0.14551,-2.47193 3.63983,-7.28245 10.26401,-9.95913c11.89343,-4.80587 20.40946,-9.10322 32.48457,-7.3146z" fill="none" stroke="#000000" stroke-width="4"></path></g><path d="M215.29584,123.00308c-8.82116,0.91065 -19.41915,-1.39114 -14.18469,-6.58095c0.39227,-0.38892 1.0689,-1.20569 1.79953,-2.0485c0.76332,-0.8805 1.58558,-1.78945 2.20417,-2.26871c6.69035,-5.18341 17.9614,-9.50309 28.03939,-1.15293c11.90169,9.86123 -9.03725,11.14043 -17.8584,12.05108z" fill="#ffd500" stroke="none" stroke-width="0" stroke-linecap="round"></path><path d="M215.29584,123.00308c-8.82116,0.91065 -19.41915,-1.39114 -14.18469,-6.58095c0.39227,-0.38893 1.06889,-1.20569 1.79954,-2.0485c0.76332,-0.8805 1.58558,-1.78945 2.20417,-2.2687c6.69035,-5.18341 2.66933,3.6905 8.85252,5.68653c12.99103,4.19371 20.33688,-4.56831 21.3317,-3.82305c7.95189,5.95711 -12.16293,8.22528 -20.00323,9.03468z" fill="#ff7e00" stroke="none" stroke-width="0" stroke-linecap="round"></path><path d="M215.386,123.34867c-8.82116,0.91065 -19.41914,-1.39116 -14.1847,-6.58097c1.90151,-1.8853 4.89633,-5.12586 8.74295,-7.12178c6.74227,-3.4984 15.72197,-4.62727 23.30015,1.65166c11.90169,9.86122 -9.03725,11.14043 -17.85841,12.05108z" fill="none" stroke="#000000" stroke-width="4" stroke-linecap="round"></path><path d="M217.93178,111.93868c1.11318,-1.98087 4.29444,-2.59309 7.10554,-1.36744c2.81109,1.22565 4.18752,3.82504 3.07433,5.8059c-0.50605,0.90049 -2.04935,-1.76578 -4.39008,-2.68454c-2.80832,-1.10229 -6.39692,-0.67354 -5.78978,-1.75392z" fill="#fff45c" stroke="none" stroke-width="0" stroke-linecap="butt"></path></g></g></g></svg>