<svg version="1.1" xmlns="http://www.w3.org/2000/svg" xmlns:xlink="http://www.w3.org/1999/xlink" width="208.04425" height="181.20782" viewBox="0,0,208.04425,181.20782"><g transform="translate(-149.66013,-98.31146)"><g data-paper-data="{&quot;isPaintingLayer&quot;:true}" fill-rule="nonzero" stroke-linejoin="miter" stroke-miterlimit="10" stroke-dasharray="" stroke-dashoffset="0" style="mix-blend-mode: normal"><path d="M232.76399,222.60515l-5.30419,-20.05345c0,0 12.58634,-11.35576 20.41043,-16.68413c9.87537,-6.7253 34.13372,-20.46154 34.13372,-20.46154c0,0 -9.06999,10.55072 -15.31424,19.41905c-1.82266,2.58861 -3.40456,5.03389 -4.44985,7.03159c-4.2908,8.20035 -7.06319,24.82027 -7.06319,24.82027z" fill="#3300ff" stroke="#000000" stroke-width="3" stroke-linecap="butt"></path><path d="M194.66568,176.65033c-2.42625,2.45109 -4.49176,7.11364 -6.67225,7.42965c-1.31498,0.19059 -6.20357,-10.13405 -6.91977,-10.88904c-1.90377,-2.00686 3.81618,-6.28214 7.70561,-10.21139c1.57351,-1.58963 0.48891,2.47368 1.93657,4.83482c2.13071,3.47519 6.26574,6.49635 3.94981,8.83598z" fill="#3300ff" stroke="none" stroke-width="0" stroke-linecap="butt"></path><path d="M289.16817,187.75996c0.61548,-0.68928 1.15035,-1.88962 2.05752,-1.84348c0.61081,0.03106 3.26271,4.58823 3.68171,5.33779c1.08569,1.31489 2.36457,2.80928 3.33611,4.31931c0.34803,0.54091 1.46937,0.52469 1.3905,1.28568c-0.32749,3.16005 -3.27952,2.78581 -5.56486,2.78681c-3.71074,0.00162 -7.63025,-0.08708 -11.31314,0.46626c-3.43776,0.5165 -6.66821,1.52818 -10.19936,1.13551c-5.69513,0.00821 -11.01422,-1.01436 -16.54648,-2.44151c-1.23404,-0.31835 -4.25694,-1.10327 -4.76325,-2.1775c-0.35542,-0.75413 0.73541,-1.49703 1.15028,-2.21808c1.39923,-2.43186 3.07356,-5.23082 5.13871,-7.07473c0,0 0.92296,-0.8164 1.71408,0.13607c0.39368,0.47396 0.36291,0.91422 0.23261,1.23696l0.1444,0.45396c1.28703,1.87268 2.95421,3.43323 4.31905,5.24774c0.35077,0.46635 1.64526,2.10985 2.35693,2.08603c0.11206,-0.00375 1.72325,-0.95113 1.85341,-1.0265c1.57563,-1.65513 3.20728,-3.40098 4.58922,-5.21701c0.92495,-1.2155 0.74854,-2.7497 2.93962,-3.05798c0.78394,-0.1103 1.38048,0.8132 1.99404,1.32871c1.67677,1.40882 3.30972,3.6485 4.61311,5.41771c0.05694,0.0773 0.35174,0.69071 0.71466,1.11021l0.57123,-0.88424l0.22447,0.15443c0.43269,-0.79646 0.92913,-1.44803 1.71171,-2.65941l0.1183,-0.05274l-0.03777,-0.03899l0.93241,-0.9622c0.21998,-0.22701 0.52388,-0.36744 0.85957,-0.36744c0.09543,0 0.18831,0.01135 0.27741,0.03282c0.39917,-0.88911 0.83711,-1.76746 1.50386,-2.5142z" fill="#fffae6" stroke="none" stroke-width="0.5" stroke-linecap="butt"></path><path d="M270.09704,135.18105c0.074,0.0754 0.13533,0.15094 0.18564,0.22599c0.91699,-0.17627 1.28633,0.78592 1.28633,0.78592c0.58238,1.51718 3.1684,6.3291 2.31392,7.87911c-0.50295,0.91236 -2.69013,1.0774 -3.59975,1.20722c-3.02192,0.4313 -8.32702,-0.5374 -7.53919,4.10257c0.14739,0.86804 0.32222,1.73268 0.55026,2.58155c0.16691,1.52495 1.28971,5.4928 0.45502,6.84457c-1.83485,2.97149 -7.56036,0.74548 -10.38092,1.58753c-0.15361,0.30976 -0.30682,0.62024 -0.45972,0.93148c0.13866,0.48747 0.45199,1.01432 0.49348,1.10575c1.14222,2.51728 1.00679,5.35896 2.00786,7.95733c0.21087,0.54984 1.19169,2.98475 1.06498,3.33705c-0.45672,1.26965 -2.21831,1.60924 -3.26568,1.91972c-2.55531,0.7575 -4.98845,1.52709 -7.42808,2.53565l-0.70774,0.07286c0,0 -0.13534,-0.01149 -0.3116,-0.07348c-0.31563,0.65733 -0.41627,1.09677 -0.73646,1.75172c-0.02573,0.11884 -0.25917,0.45208 -0.26473,0.56494c-0.04506,0.9132 1.33307,0.73207 2.03041,1.63298c0.8359,1.07988 1.57214,3.05052 2.36845,4.54996c0.64963,1.22324 1.4843,1.98781 1.25219,2.89284c-0.6222,2.42609 -7.86846,2.99333 -10.05687,3.11324c-0.85275,0.04672 -1.97814,0.63176 -2.56108,-0.00841c-0.58126,-0.63831 0.1057,-1.75332 0.15853,-2.62997c2.8774,-10.12584 8.62985,-19.85101 13.46004,-29.17585c0.02247,-0.04598 0.04497,-0.09193 0.06744,-0.13788c0.04587,-0.82124 0.34528,-1.55554 1.07345,-2.17079c2.41002,-4.81849 4.93343,-9.4601 7.94995,-13.96168l0.367,-0.39318c0.0562,-0.18624 0.12846,-0.3079 0.12846,-0.3079c2.08501,-3.50923 4.50615,-5.53712 7.66813,-7.94174l0.71077,-0.76384c0,0 0.85693,-0.89446 1.71953,-0.01526z" fill="#fffae6" stroke="none" stroke-width="0.5" stroke-linecap="butt"></path><path d="M297.71334,236.52601c0,2.05685 -4.95952,13.20513 -26.02778,8.89365c-7.15427,-1.46406 -4.35953,-19.47379 -4.35953,-19.47379c0,0 -2.29463,0.85961 -4.5328,1.08917c-1.59938,0.16402 -3.30026,-0.80074 -3.51766,1.06413c-0.71651,6.14647 -2.67853,12.06619 -4.56541,16.82264c-2.65659,6.69674 -8.40433,10.70774 -12.39927,10.70774c-2.29196,0 -14.82689,-1.50071 -18.66964,-5.79033c-4.44501,-4.96196 -0.32087,-12.81938 -4.46633,-12.96085c-3.49064,-0.11912 -8.08128,0.312 -10.64248,-2.17551c-4.59438,-4.46218 -5.10976,-22.4102 -5.10976,-28.96238c0,-1.17054 -0.00787,-2.71606 -0.00152,-4.52314c0.00555,-1.57945 -2.6368,-2.08182 -3.96612,-3.42764c-5.00449,-5.06666 -14.99188,-9.91437 -13.32223,-16.55384c0.39031,-1.55209 -1.7267,-15.69125 3.09504,-18.68843c0.98553,-0.61261 -1.00871,-5.59131 -2.99131,-12.52327c-2.1015,-7.34769 0.12347,-16.64417 1.8614,-16.29899c3.94601,0.78373 14.87611,19.47074 30.78814,29.16989c11.29757,6.88641 22.83684,2.23423 20.46969,10.71409c-2.8906,10.35503 -2.94173,20.42327 -2.94173,20.42327c0,0 -0.78723,0.18563 4.348,0.61884c8.95196,0.7552 17.70209,2.16224 26.7065,2.16224c6.23468,0 12.4797,-0.17075 18.69635,-0.54024c3.6237,7.76967 6.9427,14.51011 9.66902,19.12713c3.62841,6.1447 1.87942,17.13293 1.87942,21.12564z" fill="#2d00e3" stroke="none" stroke-width="0" stroke-linecap="butt"></path><path d="M262.48071,129.03134c1.46822,1.08735 4.02912,2.89189 7.14943,5.11018c-1.26743,2.10667 -2.72089,4.13729 -3.93513,6.19c-4.17566,7.0592 -8.66277,13.97193 -13.36495,20.70546c-5.21897,7.4736 -7.14301,16.27789 -12.94025,23.25385c-1.28243,1.54318 -0.61494,4.19374 -1.98145,5.70312c-4.42721,-1.6977 -13.57467,-6.16319 -16.5631,-8.37638c-4.50903,-3.33932 -12.36569,-8.68094 -19.12003,-15.6634c-7.73849,-7.99982 -13.49998,-18.12111 -15.50647,-27.00871c-1.52181,-6.74072 7.67335,-16.76532 9.87235,-19.91431c3.90188,-5.58751 16.25852,-8.611 28.93727,-7.10573c12.11095,1.43786 30.81144,12.18766 37.45235,17.10585z" fill="#3300ff" stroke="#000000" stroke-width="0" stroke-linecap="butt"></path><path d="M297.26725,230.85679c-0.67003,2.22721 -9.33972,10.31625 -14.73961,4.66064c-7.27259,-7.61694 7.08022,-13.44181 7.08022,-13.44181c0,0 -5.36562,0.75608 -10.11897,1.29418c-1.91304,0.21656 -3.95012,0.16746 -5.15413,0.37477c-20.77848,3.57783 -33.02517,-12.39815 -38.21376,-28.06297c1.51758,0.19793 3.03123,0.38284 4.53661,0.50983c8.95196,0.7552 18.00059,0.62206 27.00499,0.62206c8.11715,0 16.25179,-0.2894 24.31854,-0.93009c2.282,-0.18124 4.61835,-0.19908 6.9303,-0.35772c0.19411,12.3294 0.22284,29.125 -1.64416,35.3311z" fill="#3300ff" stroke="#000000" stroke-width="0" stroke-linecap="butt"></path><path d="M220.42741,192.88523l-13.88634,-8.57683l-9.13129,-8.0431l-6.29646,-9.75551l-4.46636,-11.78917l-1.3181,-6.91141l-0.52235,-10.98364l4.23137,-9.57764l7.63562,-9.17243l7.84452,-4.77893l13.40794,-2.77253l10.87257,0.85742l13.75093,5.53501l15.66981,8.65343l12.03189,8.10892c0,0 -11.61721,15.27527 -17.5397,26.9283c-6.55082,12.88926 -14.1371,27.41705 -16.84578,33.71518c0,0 20.93703,2.30839 28.81302,2.54436c11.56402,0.34643 34.57839,-1.3658 34.57839,-1.3658l-0.00002,0.00004l-0.84749,16.03393l-0.33295,17.17942c0,0 0.04975,5.79636 -1.44279,9.96408c-1.49255,4.16771 -1.975,4.74185 -4.2173,5.841c-2.24234,1.09917 -5.20843,1.61674 -8.65663,2.06152c-3.44818,0.44481 -6.11727,0.85357 -9.98842,0.34359c-3.87112,-0.50998 -4.19348,-0.45919 -5.66009,-2.40512c-1.46662,-1.94592 -1.33179,-6.87177 -1.33179,-6.87177v-9.96408l-6.65894,0.34359l-1.33178,5.15382c0,0 -1.20216,8.66942 -3.32947,13.74355c-1.29305,3.08428 -1.79163,4.07606 -3.99537,5.49741c-2.20372,1.42135 -5.51994,2.69989 -9.32253,3.0923c-3.8026,0.39242 -5.87968,0.32847 -10.6543,-1.03077c-4.77462,-1.35924 -5.30497,-1.39117 -7.65777,-4.46665c-2.3528,-3.07549 -2.33063,-8.5897 -2.33063,-8.5897l-0.6659,-24.39483z" fill="none" stroke="#000000" stroke-width="3" stroke-linecap="round"></path><path d="M265.44782,228.5997c-1.16858,-0.52516 -3.66242,-2.51967 -3.66242,-2.51967c0,0 3.80087,-1.14666 5.90184,-1.46396c2.40743,-0.36355 9.08076,-0.48305 9.08076,-0.48305l-8.10172,5.03927c0,0 -2.04991,-0.04747 -3.21849,-0.57264z" fill="#000000" stroke="none" stroke-width="0" stroke-linecap="butt"></path><path d="M220.50553,237.34081c0,0 -6.36537,0.51521 -10.32136,-0.27487c-1.96798,-0.39305 -2.65044,-0.87245 -2.99654,-2.19897c-0.34607,-1.32653 -2.26735,-11.67061 -2.92994,-19.24097c-0.43741,-4.99759 -0.71234,-9.60335 -0.80458,-14.78112l-5.17665,-5.03049c-6.13878,-6.56592 -9.10521,-8.29297 -14.43143,-15.99705c-2.04037,-2.95124 -2.5734,-4.86522 -3.38133,-7.58028c-0.80791,-2.71505 3.46561,-4.86692 3.46561,-4.86692l5.61087,-3.80603" fill="none" stroke="#000000" stroke-width="3" stroke-linecap="round"></path><path d="M270.35425,133.76857l3.83672,10.42394l-12.36789,1.69855l2.75141,13.44265l-12.03164,1.10224l5.07731,14.51346l-13.41485,4.1024l5.86469,11.47618l-10.91659,2.40624" fill="none" stroke="#000000" stroke-width="2" stroke-linecap="round"></path><path d="M251.54379,196.23173l6.56691,-9.54912l8.05938,11.08931l9.25338,-10.78126l7.76089,9.24108l8.05938,-10.47323l6.8654,10.47325" fill="none" stroke="#000000" stroke-width="2" stroke-linecap="round"></path><g><path d="M206.47539,153.78313c-0.26391,0.09729 -0.62085,0.10921 -0.98649,-0.23916c-0.72468,-0.69042 -0.03427,-1.41511 -0.03427,-1.41511l0.18218,-0.19123c0.05277,-0.06844 0.10785,-0.12537 0.16426,-0.17241l0.11383,-0.11947c2.16409,-2.27149 4.49774,-4.23727 6.6855,-6.53361c5.80351,-6.09154 11.48211,-12.29785 17.83348,-17.74029c1.9733,-1.6909 3.36607,-3.80035 5.51658,-5.31048c4.06173,-4.2899 7.62511,-8.96308 11.64278,-13.19505c0.77955,-0.82112 3.11017,-3.94567 4.31316,-3.92461c0.74489,0.01304 2.51293,3.07266 3.09968,3.63167c0.55189,1.04004 4.79292,3.26012 4.41703,7.78909c-0.16742,2.01717 -3.17967,5.18771 -4.53281,7.72329c-6.64681,12.45518 -23.0038,28.92437 -28.08041,32.02776c-9.91099,6.05874 -17.20378,-0.54097 -20.33452,-2.3304z" fill="#6fddfe" stroke="none" stroke-width="0.5" stroke-linecap="butt"></path><path d="M206.2598,154.50706c0,0 -0.98597,-0.17248 -0.81347,-1.15843c0.17248,-0.98597 1.15843,-0.81347 1.15843,-0.81347c7.59927,1.3814 47.83087,-25.16869 50.29643,-30.26689c0,0 -35.98606,40.50242 -36.49728,40.14237c-0.31777,0.08987 -0.62158,-0.0033 -0.62158,-0.0033l-0.39559,-0.17503c-4.13189,0.08675 -8.14205,-1.92634 -10.67591,-5.07928c-0.21499,-0.22511 -0.43479,-0.45606 -0.66667,-0.69238l-0.24308,0.18268l-1.19276,-1.58717c-0.12099,-0.15519 -0.19007,-0.33835 -0.2067,-0.52553c-0.04725,-0.00783 -0.09448,-0.01569 -0.14174,-0.02354z" fill="#1c4ea5" stroke="none" stroke-width="0.5" stroke-linecap="butt"></path><path d="M251.96589,104.27661c0,0 4.8619,5.40348 7.1246,11.3763c1.58573,4.18582 -34.98102,47.57009 -41.12032,46.55644c-6.1393,-1.01364 -13.4247,-8.64255 -13.4247,-8.64255z" fill="none" stroke="#000000" stroke-width="2" stroke-linecap="round"></path><path d="M246.34042,114.01467c2.21973,-2.07436 4.83543,-3.67969 5.86118,-0.59429c0.35103,1.05585 -0.67304,2.87219 -0.85979,3.93975c-1.44737,3.13944 -3.85173,5.68974 -6.89552,7.32743c-1.35738,0.73031 -3.6288,1.30974 -4.29508,-0.95551c-0.58248,-1.98035 0.89036,-3.86971 2.45764,-5.6069c0.08565,-0.24745 0.24278,-0.41238 0.24278,-0.41238l0.23014,-0.24156c0.3773,-0.39602 1.05152,-1.19017 1.87376,-2.06588c0.18887,-0.27196 0.34746,-0.5382 0.46521,-0.79839c0,0 0.29607,-0.62984 0.91966,-0.59224z" fill="#ffffff" stroke="none" stroke-width="0.5" stroke-linecap="butt"></path></g><g><g stroke-linecap="round"><path d="M180.76225,142.35572c3.14736,-12.70106 4.64086,-22.40132 13.75567,-30.57761c9.11481,-8.17629 22.73501,-17.67552 27.08112,-6.05441c4.34612,11.62111 -17.27513,18.19036 -20.19485,24.4677c-2.91973,6.27734 3.72142,10.81612 0.65553,17.54114c-4.64985,10.19941 -7.66444,0.25516 -11.01857,1.98023c-2.84722,1.46435 -2.67793,11.40848 -7.83581,7.71677c-2.28512,-1.63555 -4.19606,-7.9998 -2.44308,-15.07382z" fill="#fff3df" stroke="none" stroke-width="0"></path><path d="M182.47224,142.57123c0.94093,-3.7971 13.18844,6.41271 14.78475,3.14674c2.92513,-5.98462 -3.8724,-9.11102 -1.59018,-16.16246c0.63831,-1.9722 8.42452,-9.14882 9.8211,-10.40159c9.11481,-8.17629 11.76504,-25.05133 16.11114,-13.43022c4.34612,11.62111 -17.27513,18.19036 -20.19485,24.4677c-2.91973,6.27734 3.72142,10.81612 0.65553,17.54114c-4.64985,10.19941 -7.66444,0.25516 -11.01857,1.98023c-2.84722,1.46435 -2.67793,11.40848 -7.83581,7.71677c-2.28513,-1.63556 -3.29073,-4.84566 -1.53775,-11.91968z" fill="#cfa7a7" stroke="none" stroke-width="0"></path><path d="M194.5179,111.77815c9.1148,-8.17628 22.73501,-17.67551 27.08111,-6.05441c4.34612,11.62111 -17.2751,18.19036 -20.19483,24.46769c-2.91972,6.27733 3.72144,10.81612 0.65553,17.54114c-4.64985,10.19941 -7.66442,0.25517 -11.01856,1.98024c-2.84723,1.46436 -2.67794,11.40847 -7.83581,7.71677c-2.28513,-1.63556 -4.19606,-7.99982 -2.4431,-15.07382c3.14736,-12.70106 4.64087,-22.4013 13.75567,-30.5776z" fill="none" stroke="#000000" stroke-width="4"></path></g><path d="M193.53478,129.14173c-4.69022,7.54212 -13.33984,14.20022 -14.68416,6.43441c-0.10074,-0.58197 -0.40404,-1.68906 -0.6968,-2.85682c-0.30584,-1.21999 -0.6002,-2.5062 -0.64006,-3.32907c-0.43112,-8.89971 2.75988,-20.77003 16.45476,-22.74118c16.17312,-2.32784 4.25649,14.95055 -0.43373,22.49266z" fill="#ffd500" stroke="none" stroke-width="0" stroke-linecap="round"></path><path d="M193.53478,129.14173c-4.69022,7.54212 -13.33984,14.20022 -14.68417,6.43442c-0.10075,-0.58197 -0.40404,-1.68906 -0.69679,-2.85683c-0.30584,-1.21999 -0.6002,-2.5062 -0.64006,-3.32906c-0.43112,-8.89971 4.94012,0.52445 10.56636,-2.89792c11.82084,-7.19046 8.62145,-19.13527 9.90316,-19.38574c10.24516,-2.00219 -0.2798,15.33165 -4.44848,22.03514z" fill="#ff7e00" stroke="none" stroke-width="0" stroke-linecap="round"></path><path d="M193.89778,129.31579c-4.69022,7.54212 -13.33984,14.20021 -14.68419,6.43441c-0.48835,-2.82108 -1.49833,-7.45617 -0.87242,-11.8765c1.09709,-7.74785 5.69241,-15.56838 15.99032,-17.05059c16.17311,-2.32784 4.25649,14.95055 -0.43374,22.49267z" fill="none" stroke="#000000" stroke-width="4" stroke-linecap="round"></path><path d="M185.35555,119.25046c-1.0646,-2.27228 0.37492,-5.19311 3.21528,-6.52386c2.84035,-1.33075 6.00592,-0.56749 7.07051,1.70479c0.48396,1.03297 -2.84501,0.35286 -5.11972,1.53299c-2.72911,1.41588 -4.58542,4.5254 -5.16607,3.28608z" fill="#fff45c" stroke="none" stroke-width="0" stroke-linecap="butt"></path></g><g data-paper-data="{&quot;index&quot;:null}"><g stroke-width="2"><path d="M216.57337,211.75936" fill="none" stroke="#000000" stroke-linecap="round"></path><path d="M214.00235,202.48473" fill="none" stroke="#000000" stroke-linecap="round"></path><path d="M213.9985,177.73519c0,0 -0.45832,2.68423 -3.23357,2.48074c-2.77522,-0.20349 -1.84232,-0.24308 -4.42305,-1.88121c-2.94713,-1.87072 -9.16301,-6.46583 -9.16301,-6.46583l3.29497,-1.61787c0,0 3.32148,0.53383 5.24015,1.6481c2.78131,1.61522 8.28456,5.83608 8.28456,5.83608z" fill="#312e37" stroke="#000000" stroke-linecap="butt"></path><path d="M171.98864,198.46964c0,0 8.2087,5.60818 12.32897,8.81845c4.37835,3.41136 13.21403,11.08309 13.21403,11.08309l-3.43856,3.59056c0,0 -10.34247,-5.21434 -14.65579,-8.52454c-4.20747,-3.229 -10.91447,-11.09913 -10.91447,-11.09913l3.46583,-3.86846z" fill="#a09aa6" stroke="none" stroke-linecap="butt"></path><path d="M171.98864,198.46962c0,0 8.2087,5.60818 12.32897,8.81845c4.37835,3.41136 13.21403,11.08309 13.21403,11.08309c0,0 -14.05893,-1.65102 -18.84623,-5.84944c-6.04365,-4.53143 -6.69676,-14.05211 -6.69676,-14.05211z" fill="#695f72" stroke="none" stroke-linecap="butt"></path><path d="M171.98864,198.46964c0,0 8.2087,5.60818 12.32897,8.81845c4.37835,3.41136 13.21403,11.08309 13.21403,11.08309l-3.43856,3.59056c0,0 -10.34245,-5.21433 -14.65579,-8.52454c-4.20747,-3.229 -10.91447,-11.09913 -10.91447,-11.09913l3.46583,-3.86846z" fill="none" stroke="#000000" stroke-linecap="butt"></path><path d="M194.8239,219.9853c0,0 -11.59903,-6.01375 -15.86753,-9.58489c-3.99561,-3.34282 -8.97893,-11.20228 -8.97893,-11.20228" fill="none" stroke="#000000" stroke-linecap="round"></path><path d="M157.23004,276.84335c0,0 -7.92404,-26.98627 -6.36722,-32.32903c0.8129,-2.78971 12.74283,-21.64317 12.74283,-21.64317l2.6041,-0.13037l-0.32447,-3.44591l2.71607,-1.11781l0.00539,-2.91649l2.59649,-0.87868l0.03625,-3.37541l2.36473,-3.821l13.41431,11.97783z" fill="#4a627c" stroke="none" stroke-linecap="butt"></path><path d="M171.6487,234.00408l-6.3574,14.47032l-8.85732,-11.17584c0,0 -2.84055,1.93728 -3.67666,6.17616c-1.25083,6.3414 -3.13854,6.00257 -1.32542,0.57102c2.96007,-8.86747 12.17373,-21.1746 12.17373,-21.1746l2.60411,-0.13037l-0.32447,-3.44591l2.71607,-1.11781l0.00539,-2.91648l2.59649,-0.87868l0.03625,-3.37541l2.36473,-3.821l-7.5791,18.14796z" fill="#91b6c0" stroke="none" stroke-linecap="butt"></path><path d="M168.47846,221.17858l5.36836,8.19563" fill="none" stroke="#91b6c0" stroke-linecap="round"></path><path d="M154.02491,257.91778c0,0 -3.22989,-8.33127 -1.76755,-12.6207c1.85682,-5.44648 12.24664,-19.8323 12.24664,-19.8323l4.03592,-1.10037l-0.59911,-3.42562l2.12878,-0.72635l-0.02515,-3.55635l3.29488,-1.17307l-0.0468,-5.24188" fill="none" stroke="#91b6c0" stroke-linecap="round"></path><path d="M157.23001,276.84335c0,0 -7.92404,-26.98627 -6.36722,-32.32903c0.8129,-2.78971 12.74283,-21.64317 12.74283,-21.64317l2.60411,-0.13037l-0.32447,-3.44591l2.71607,-1.11781l0.00539,-2.91648l2.59649,-0.87868l0.03625,-3.37541l2.36473,-3.821l13.41431,11.97783z" fill="none" stroke="#000000" stroke-linecap="butt"></path><path d="M157.64896,274.35931c0,0 5.00834,-22.39354 11.54517,-34.47513c4.16291,-8.30286 12.46383,-23.39788 12.46383,-23.39788" fill="none" stroke="#000000" stroke-linecap="round"></path></g><g stroke-width="4" stroke-linecap="butt"><g><path d="M211.29371,199.99714c0,0 -0.71739,11.21603 -3.59659,11.19991c-0.87108,-0.0049 -2.3409,-1.0111 -4.38312,-2.60772c-0.28319,-0.22144 -0.9908,-1.08211 -1.29604,-1.32507c-1.03719,-0.82618 -2.58875,-1.95481 -3.64912,-2.89804c-3.81386,-3.39233 -6.44704,-6.27794 -6.44139,-7.28223c0.01099,-1.95784 9.50354,4.485 12.38274,4.50112c0.21783,0.00125 -1.9814,-5.60428 -0.11194,-9.44763c0.95554,-1.96464 5.39918,-3.22402 6.75497,-3.54504c6.25762,-1.48186 7.2338,8.33732 7.22254,8.6341c-0.10891,2.87218 -6.88219,2.77057 -6.88219,2.77057z" fill="#3300ff" stroke="#000000"></path><path d="M209.72887,204.54059c0,0 -1.87982,-2.74767 -4.9894,-2.76515c-3.10956,-0.0175 -5.81636,5.22909 -5.81272,4.58126c0.00204,-0.36162 -2.89415,-4.48707 -1.60228,-6.93428c1.02233,-1.93663 6.06772,-2.34671 7.44142,-2.33899c1.56563,0.00883 3.74664,2.33617 4.44102,4.32838c0.68477,1.96458 0.52199,3.12877 0.52199,3.12877z" fill="#2d00e3" stroke="none"></path></g><g><path d="M205.20435,191.55606c-0.01011,1.79104 0.69045,5.20818 -0.75651,6.18388c-1.37053,0.92434 -4.69724,2.36957 -4.69724,2.36957c0,0 1.77954,1.13338 1.64608,3.34689c-0.06076,1.00924 -0.81208,1.9296 -1.4757,3.14291c-1.41618,2.59001 -3.53111,4.14498 -5.45997,4.13421c-5.42353,-0.03049 -11.22851,-2.65511 -16.33023,-6.63963c-3.34851,-2.61526 -5.97174,-4.74074 -5.95501,-7.71852c0.01928,-3.4281 -1.25402,-8.13145 1.26045,-10.5101c0.96975,-0.91719 2.28829,-0.58043 3.42288,-0.76431c2.37284,-0.38449 4.45388,-0.40462 4.45388,-0.40462c0,0 1.6476,-4.33037 3.67585,-6.05441c0.81441,-0.69222 1.08667,-1.33099 2.43715,-0.87258c2.8393,0.96369 2.94825,-0.01213 2.94825,-0.01213c0,0 2.10136,-4.29707 3.95611,-5.47904c0.86931,-0.55387 11.98001,2.71729 13.49371,6.07676c1.07733,2.39091 5.44245,6.28604 4.76939,9.1315c-1.25929,5.32368 -7.38563,3.4478 -7.38911,4.06959z" fill="#3300ff" stroke="#000000"></path><path d="M174.99988,194.82719c-0.01212,2.15944 -0.19508,6.88072 -0.19508,6.88072c0,0 -1.68681,-5.98305 -1.67466,-8.14248c0.00455,-0.81142 -0.39624,-7.44998 2.2266,-7.39833c1.46198,0.0288 4.17257,-1.94778 6.0894,-0.85173c1.98635,1.13581 3.20713,-7.54527 4.21306,-6.0874c0.21563,0.31249 4.71815,-0.7418 5.00462,0.53636c0.09205,0.41067 0.75181,-2.02445 1.91167,-3.7702c1.00115,-1.50685 2.53377,-2.37955 2.50726,-1.89805c-0.02751,0.49998 3.49662,-0.12059 7.47039,1.18945c1.6621,0.54795 5.37884,1.74932 7.01384,4.50551c1.8274,3.08051 3.52194,7.10179 3.52194,7.10179c0,0 -12.63174,-6.70965 -15.49088,-5.94479c-2.0521,0.54895 1.58343,4.86396 1.58343,4.86396c0,0 -4.78493,-3.88497 -6.23413,-2.61397c-0.99457,0.8723 -2.89279,2.07964 -3.52592,3.53892c-1.34368,3.09697 4.32115,9.9161 4.33677,9.91619c0.31336,0.00176 -7.22094,-4.07275 -12.54185,-5.51552c-2.40251,-0.65144 -4.66668,-0.20931 -4.77405,0.18447c-0.32182,1.18016 -1.43668,2.48287 -1.44243,3.50511z" fill="#2d00e3" stroke="none"></path><path d="M200.14193,201.77216c-0.86376,-0.00485 -11.21505,-8.1961 -11.21505,-8.1961c0,0 7.71184,4.73551 8.57562,4.74037c0.86379,0.00485 3.12321,0.87421 3.11834,1.73799c-0.00486,0.86376 0.38492,1.72261 -0.47886,1.71775z" fill="#000000" stroke="none"></path><path d="M205.51756,191.47967c-0.00339,0.60465 0.42607,0.62803 -0.39451,0.6234c-0.82059,-0.00461 -7.85072,-8.49 -7.85072,-8.49c0,0 8.44301,7.55491 9.2636,7.55953c0.82061,0.0046 -1.01493,-0.29758 -1.01834,0.30708z" fill="#000000" stroke="none"></path><path d="M203.96382,191.21874c-0.01018,1.79094 0.84849,4.89612 -0.5984,5.87192c-1.37049,0.92424 -5.00997,2.3678 -5.00997,2.3678c0,0 1.46504,1.44436 1.33158,3.65787c-0.04347,0.72019 -1.14973,2.74313 -1.22714,2.88115c-1.4363,2.56374 -3.32084,4.56579 -5.3967,4.55416c-5.42351,-0.0305 -10.60205,-2.80798 -15.70377,-6.79251c-3.34849,-2.61525 -5.34249,-5.36285 -5.64828,-6.62198c-0.80881,-3.33138 -1.56418,-8.60239 0.95029,-10.98105c1.24211,-1.17496 3.14542,-1.28905 4.58426,-1.38813c2.03358,-0.13999 3.29328,0.06279 3.29328,0.06279c0,0 2.20375,-5.19441 4.28601,-6.68477c0.41696,-0.29834 1.1868,-0.20722 2.16258,-0.19657c0.96792,0.01057 1.51881,-0.2203 1.51881,-0.2203c0,0 2.72427,-3.82437 4.57913,-5.00632c0.49247,-0.31389 8.61734,0.97874 13.40175,4.29102c3.6589,2.53306 4.84633,8.58757 4.55465,9.82063c-1.25939,5.32367 -7.07458,3.7624 -7.07806,4.3842z" fill="none" stroke="#000000"></path><path d="M204.33591,191.21877c-0.01019,1.79103 0.84849,4.89612 -0.5984,5.87192c-1.37051,0.92424 -5.01007,2.36779 -5.01007,2.36779c0,0 1.46513,1.44447 1.33158,3.65787c-0.04337,0.7202 -1.14971,2.74313 -1.22704,2.88116c-1.4363,2.56374 -3.32084,4.56579 -5.3967,4.55416c-5.42362,-0.03052 -10.60205,-2.80798 -15.70377,-6.79251c-3.34849,-2.61525 -5.3426,-5.36286 -5.64828,-6.62198c-0.80891,-3.33139 -1.41132,-7.97592 1.10314,-10.35448c1.24212,-1.17507 2.83259,-1.29094 4.27153,-1.39c2.03347,-0.13992 3.76244,0.06544 3.76244,0.06544c0,0 1.89091,-5.1962 3.97325,-6.68646c0.41685,-0.29837 1.18671,-0.20733 2.1625,-0.19668c0.96792,0.01066 2.14351,-0.06033 2.14351,-0.06033c0,0 2.72616,-4.13719 4.58091,-5.31916c0.49256,-0.31388 7.99442,0.50603 12.77883,3.81831c3.6589,2.53306 4.84633,8.58757 4.55465,9.82063c-1.25939,5.32367 -7.07458,3.7624 -7.07806,4.3842z" fill="none" stroke="#000000"></path></g></g></g><g data-paper-data="{&quot;index&quot;:null}"><path d="M353.31159,167.2766c0.1057,0.11436 0.1426,0.25055 0.1426,0.25055l0.12542,0.4663c1.09972,3.28459 0.88233,6.24459 0.40166,9.65008c-0.25066,1.30797 -1.16233,2.33114 -2.19759,0.82795c-0.54344,-0.78907 -0.54244,-2.14049 -0.55419,-3.04366c-0.03366,-2.58797 -0.63984,-6.20732 1.18454,-8.27177c0,0 0.35979,-0.40347 0.76326,-0.04369c0.06085,0.05425 0.10433,0.10951 0.13431,0.16421z" fill="#3c1a4a" stroke="none" stroke-width="2" stroke-linecap="butt"></path><path d="M351.67823,161.92176c-0.03286,-0.23416 -0.07429,-0.45884 -0.12545,-0.67103c0,0 -0.1172,-0.52773 0.41052,-0.64493c0.52773,-0.11719 0.64494,0.41052 0.64494,0.41052c0.01328,0.0636 0.02592,0.12801 0.03797,0.19315c0.12213,0.1592 0.1189,0.36242 0.1189,0.36242l-0.00656,0.41284c0.05472,0.50054 0.08156,1.02854 0.08627,1.56473c0.17335,1.42101 0.47254,2.8368 -0.24879,3.94319l0.19928,0.15447l-0.32732,0.42231c-0.11431,0.15327 -0.30659,0.241 -0.50925,0.2124c-0.27785,-0.03923 -0.47636,-0.28315 -0.46461,-0.55778l0.0179,-0.60512l0.01046,0.00031l-0.00874,-0.03017c0.1285,-0.92015 0.2435,-2.02818 0.26528,-3.11369c-0.06432,-0.61924 -0.12192,-1.24089 -0.10354,-1.87962z" fill="#aa4191" stroke="none" stroke-width="2" stroke-linecap="butt"></path><path d="M355.23276,155.12832c0.05211,0.07677 0.07427,0.14284 0.07427,0.14284l0.04803,0.14326c0.50548,1.75083 -1.12277,2.65161 -2.38043,3.56985c-0.48424,0.35355 -1.13138,0.96118 -1.84544,0.34233c-0.66289,-0.57449 -0.00852,-1.33139 0.30666,-1.71771c0.843,-1.03326 1.88866,-1.94684 2.90583,-2.79977c0,0 0.41425,-0.34733 0.76156,0.06691c0.07381,0.08801 0.11322,0.173 0.12954,0.25229z" fill="#aa4191" stroke="none" stroke-width="2" stroke-linecap="butt"></path><path d="M350.52091,158.10586c-0.42013,-0.34018 -0.07994,-0.76031 -0.07994,-0.76031l0.22309,-0.27299c0.88151,-1.2722 1.84966,-2.47687 3.23013,-2.80159l-0.04974,-0.22394l0.55145,-0.12248c0.06514,-0.01608 0.13441,-0.02021 0.20493,-0.01025c0.29562,0.04173 0.50144,0.3152 0.45973,0.61083c-0.01892,0.13411 -0.08555,0.24974 -0.18029,0.33215l-0.14791,0.13025c-0.02306,0.2156 -0.19302,0.36526 -0.19302,0.36526c-0.40964,0.35895 -0.79819,0.65081 -1.17134,0.94582c-0.47117,0.49546 -0.92666,0.98427 -1.45314,1.40003c-0.00382,0.00485 -0.00765,0.00972 -0.01147,0.0146l0.12385,0.12344l-0.47258,0.47416c-0.11616,0.1191 -0.28553,0.18315 -0.46289,0.15812c-0.1681,-0.02371 -0.30714,-0.12236 -0.38817,-0.25738c-0.05851,-0.02082 -0.11969,-0.0547 -0.18267,-0.10571z" fill="#c783c3" stroke="none" stroke-width="2" stroke-linecap="butt"></path><path d="M354.85102,185.3162c0.37623,-0.35666 0.74846,0.01434 0.74846,0.01434l0.31329,0.33039c0.1194,0.1881 0.23878,0.37622 0.35819,0.56433c0.87298,2.06046 0.5905,3.83383 0.6829,5.9795c0.04786,1.11134 0.38237,2.09821 0.16801,3.22207c-0.18064,0.94704 -0.88554,2.65125 -2.20561,2.17189c-0.73997,-0.26871 -0.93775,-1.33552 -1.1192,-1.96891c-0.75933,-2.6606 -0.08515,-5.35013 -0.39387,-8.05704c-0.05508,-0.48299 -0.51936,-2.4775 0.13626,-2.81702c0.34089,-0.17654 0.8632,0.16759 1.31156,0.56044z" fill="#1d2022" stroke="none" stroke-width="2" stroke-linecap="butt"></path><path d="M348.69298,135.72597l-0.03253,0.20066c-0.01984,1.11568 0.11758,2.23968 0.13939,3.34383c0.01356,0.68675 0.52341,1.21157 0.54764,1.9099c0.00472,0.13654 0.00714,0.27201 0.00755,0.40655c0.04713,0.06667 0.07933,0.14402 0.09252,0.22672l0.11349,0.61827l-0.16811,0.03086c0.49057,1.59943 0.16446,3.28047 0.18739,5.0305c0.02501,1.90835 0.05774,3.78121 0.16342,5.64765c0.26488,1.62729 0.4404,3.41585 0.52267,5.1255c0.05605,0.35872 0.11695,0.71819 0.18311,1.07859c0.23658,1.29332 0.32308,2.62501 0.28302,3.93741l0.04619,0.58753c0.00421,0.04222 0.00348,0.08563 -0.00271,0.12954c-0.0089,0.06312 -0.02837,0.12213 -0.05636,0.17552c0.38038,1.26633 0.856,2.49791 1.0389,3.84429c0.43553,3.20585 0.27895,6.44785 0.68683,9.66504c0.17763,2.28668 -0.05601,4.39297 -0.11057,6.67544c-0.06234,2.60827 0.84744,5.27104 1.54446,7.75532c0.13284,2.23556 0.27256,4.49519 0.55897,6.71812c0.14051,1.09055 0.42126,2.6547 -0.57237,3.40443c-1.41229,1.06563 -3.81522,0.67049 -5.48088,0.83472c-4.7452,1.56716 -6.50687,-4.2487 -9.10833,-6.82027c0,0 -0.30626,-0.30524 -0.098,-0.64364c-1.93497,-3.12907 -1.18849,-7.65839 -1.9692,-11.15323c0,0 -0.01647,-0.07416 -0.00926,-0.17308c-0.98807,-2.32588 -1.27088,-5.02254 -1.72007,-7.47156c-0.44621,-3.20781 -1.16283,-6.35404 -1.83252,-9.51346c-0.22186,-0.66596 -0.3927,-1.35254 -0.53449,-2.04609c-0.08027,-0.28886 -0.15994,-0.57966 -0.24099,-0.87263l0.0105,-0.04653l-0.0171,0.00181l-0.057,-0.54211c-0.00596,-0.0468 -0.00584,-0.09515 0.00108,-0.14414c0.00057,-0.00403 0.00119,-0.00802 0.00182,-0.01202c-0.10973,-0.49522 -0.196,-1.0001 -0.20052,-1.41548c-0.03412,-0.22541 -0.06858,-0.44941 -0.10411,-0.67153l0.01067,-0.0306l-0.0127,0.0005l-0.02952,-0.74425c-0.00206,-0.03528 -0.00067,-0.0713 0.00447,-0.10763c0.00988,-0.06995 0.03272,-0.13488 0.06577,-0.19269c-0.58272,-1.39236 -1.1584,-2.78797 -1.6351,-4.21451c-0.91642,-2.74246 -1.15101,-5.71808 -1.65356,-8.55544c-0.33122,-2.17696 -0.76015,-4.34617 -0.83821,-6.55437c-0.03196,-0.90412 -0.13162,-2.37185 0.78592,-2.96199c0.21758,-0.13994 0.51869,0.06614 0.77535,0.03387c1.76255,-0.22163 3.30996,-0.29959 5.1282,-0.04515c4.55546,0.64298 9.09499,0.02853 12.44361,-3.21935c0,0 0.38827,-0.37615 0.7644,0.01212c0.07217,0.0745 0.11619,0.14856 0.14022,0.21959c0.28872,0.16848 0.23664,0.53751 0.23664,0.53751z" fill="#485c7d" stroke="none" stroke-width="2" stroke-linecap="butt"></path><path d="M347.34152,130.68563c0.41562,-0.28035 0.72448,0.13004 0.72448,0.13004l0.39303,0.65032c0.27278,2.76692 -1.83047,4.05211 -3.94945,5.26735c-1.28832,0.6709 -2.41239,0.77085 -3.76363,1.10884c-1.92596,0.48175 -3.80823,1.19332 -5.82592,1.12685c-1.89426,-0.06239 -3.74798,-0.53265 -5.61259,-0.79274c-0.40637,-0.063 -0.75725,-0.2157 -1.05487,-0.43578c0.02638,1.17261 -0.2004,2.44875 -1.05311,3.11751c-0.37607,0.29494 -0.82242,0.4754 -1.27378,0.64546c0.30517,0.00666 0.63467,0.05975 0.99458,0.15895c0.32457,0.08945 0.60938,0.28428 0.90884,0.44026c0.69651,-0.05308 0.82856,0.6663 0.82856,0.6663l0.01536,0.1289c0.18613,0.55674 0.35093,1.12117 0.49109,1.69123c0.58318,2.38009 1.322,4.99108 1.5604,7.42542c0.27472,2.80532 -0.23966,5.48888 -0.36572,8.26614c-0.09874,2.17543 0.43231,4.35848 0.62025,6.51346c0.31962,2.92944 0.39404,5.87268 0.66733,8.80271c0.33336,3.57411 1.38407,6.95186 0.75478,10.56846c-0.51006,2.93123 -2.36346,5.84925 -5.72018,3.99117c-0.40264,-0.22289 -0.65998,-0.6416 -0.98996,-0.96238c0.02012,-2.78876 1.66767,-5.22532 1.06809,-8.01815c-0.38459,-1.79132 -1.54444,-2.8816 -2.44443,-4.39915c-1.23171,-2.07684 -1.94155,-4.41385 -2.69318,-6.68466c-0.25662,-1.98548 -0.73073,-4.22856 -1.43089,-6.10553c-0.51303,-1.37528 -1.40596,-2.56686 -1.87452,-3.96035c-1.07208,-3.18839 -1.44942,-6.52532 -2.6273,-9.68888c-0.05053,-0.27065 -0.42136,-2.23624 -0.42608,-2.36157c-0.0137,-0.3632 0.07408,-0.72405 0.1427,-1.08098c0.07339,-0.38181 0.09553,-0.79086 0.28267,-1.13164c0.24823,-0.45201 0.54688,-0.75927 0.88151,-0.96266c-0.50879,-0.09067 -0.98484,-0.23522 -1.37237,-0.4674c-2.10862,-1.26329 -1.57742,-6.14535 -0.33078,-7.8881c0.52302,-0.73114 1.47442,-0.72555 2.17859,-1.25759c0.84962,-0.7491 1.8182,-1.73308 3.04647,-1.7214c1.22439,0.01163 2.45333,0.91231 3.72156,0.62938c0.88971,-0.19847 1.24648,-1.5148 2.3352,-1.27685c0.39177,0.08561 0.66292,0.43914 0.87363,0.84063c0.11206,-0.70782 0.35553,-1.37193 0.71914,-1.881c0.67743,-0.94841 1.52184,-0.61478 2.44718,-0.69782c1.30625,-0.1172 2.69334,-0.60335 4.02202,-0.80114c2.21313,0.12034 4.55151,0.08771 6.7337,0.39493c2.03188,0.28607 4.17175,0.92875 6.11711,0.05921c0,0 0.12681,-0.05638 0.2805,-0.04776z" fill="#485c7d" stroke="none" stroke-width="2" stroke-linecap="butt"></path><path d="M335.90418,178.3136c-0.04699,-0.1112 -0.09214,-0.22277 -0.13522,-0.3348c0,0 -0.06679,-0.17378 -0.01998,-0.35657c-0.00025,-0.15306 0.06038,-0.33883 0.30941,-0.45844c0.48728,-0.23406 0.72134,0.25322 0.72134,0.25322l0.15582,0.39714c0.00706,0.07152 0.0141,0.14302 0.02116,0.21455c0.96183,2.23305 2.59407,4.28842 3.15194,6.65136c0.30428,1.28885 0.09612,2.48654 -0.08681,3.77184c-0.10829,3.84553 1.03417,6.35891 4.9581,7.422l0.51891,0.14059c0.26353,0.06731 0.43973,0.32363 0.40084,0.59919c-0.02087,0.14782 -0.09965,0.27318 -0.21019,0.35638l-0.21507,0.16186c-0.21497,0.4354 -0.35703,0.89572 -0.40367,1.35146c0.03106,0.04943 0.0612,0.09987 0.09038,0.15142c0.25055,0.44262 0.84799,1.53516 0.87973,2.23366c0.09749,0.0781 0.20293,0.15271 0.31657,0.22337l-0.03658,0.25655l0.12449,-0.01309l0.05827,0.55417l-0.26383,0.02774l-0.07581,0.53182c-0.15059,-0.10989 -0.28394,-0.22642 -0.40331,-0.34849l-0.22659,0.17053l-0.34479,-0.45812l0.20265,-0.15251c-0.91965,-0.46364 -1.42772,-1.85553 -1.45817,-2.9198c-0.09517,-0.12891 -0.20045,-0.25509 -0.31839,-0.37766c-0.91816,-0.95431 -2.48822,-1.35075 -3.52228,-2.16199c-0.90827,-0.71259 -1.50873,-2.31785 -1.86065,-3.35974c-0.68347,-2.04439 -0.74177,-4.16715 -1.31699,-6.21256c-0.81449,-2.89617 -1.45418,-5.18076 -0.99972,-8.21338c-0.00384,-0.0339 -0.00768,-0.06779 -0.01152,-0.10168z" fill="#373440" stroke="none" stroke-width="2" stroke-linecap="butt"></path><path d="M323.25658,210.20461c-3.4166,2.18117 -9.3639,0.51576 -9.57618,-3.8558c0.16789,-0.59039 0.18759,-1.12914 0.90303,-1.40156c0.79513,-0.30276 2.58212,0.76912 3.51354,0.84563c1.59158,0.13072 3.21705,-0.2635 4.83262,-0.57022c-0.01107,-0.02162 -0.02223,-0.04321 -0.03346,-0.0647c-1.91996,-3.34581 -1.38062,-5.97654 0.20973,-9.33057c0.75086,-1.58358 1.43162,-2.96621 3.38843,-2.90806c1.63581,0.39493 3.00887,1.70335 4.63807,1.95124c0.74168,0.11284 1.5785,-0.2748 2.3455,-0.27694c1.41834,-0.00392 2.77037,0.31424 4.13935,0.64899c0,0 0.00683,0.00167 0.0187,0.0054c0.32198,-0.04528 0.51317,0.26342 0.51317,0.26342l0.31226,0.51369c0.17295,0.39308 0.31661,0.80209 0.41108,1.22103c0.2601,0.77261 0.66812,1.5979 0.65418,2.42762c-0.04597,2.73442 -1.5997,5.39893 -3.04922,7.61421c-0.56163,0.85832 -1.13206,2.17543 -1.9984,2.78367c-0.61557,0.43216 -1.60791,0.75215 -2.31709,0.99188c-1.02118,0.32966 -4.08297,0.02862 -4.44541,-1.39389c-0.13155,-0.51631 1.03499,-1.21708 0.57761,-1.49037c-0.24044,-0.14365 -0.55534,0.09943 -0.83528,0.09098c-0.67635,-0.02044 -1.57707,-0.0313 -2.26898,-0.265c-0.51258,0.8429 -1.08626,1.65856 -1.93332,2.19933z" fill="#2d00e3" stroke="none" stroke-width="2" stroke-linecap="butt"></path><path d="M339.14994,195.96947c0.19968,-0.04621 0.38717,0.04714 0.38717,0.04714l0.0917,0.05738c2.01672,0.54637 4.99782,2.92819 5.11804,5.26124c0.07864,1.52605 -1.18389,3.73173 -1.8423,5.04193c-0.99251,1.26038 -2.40788,1.34737 -3.87136,1.64812c-1.1829,0.24309 -2.21902,1.22759 -3.40801,1.55808c-0.64568,0.17949 -1.55223,0.35471 -2.16306,-0.04028c-0.94433,-0.61063 -1.24673,-1.77225 -2.28513,-2.38628c-1.71466,0.03915 -3.1699,1.27836 -4.95389,1.21125c-2.63897,-0.09929 -4.98658,-3.40708 -4.97232,-5.85024c0.28325,-2.01224 1.25339,-4.28427 3.24798,-5.16372c2.34018,-1.0318 5.31759,0.42911 6.32367,2.67899c0.14491,-0.06354 0.45629,-0.78365 0.49749,-0.85024c0.40344,-0.65215 0.94475,-1.3457 1.49227,-1.88158c1.97506,-1.93315 3.85762,-1.92771 6.33777,-1.3318z" fill="#3300ff" stroke="none" stroke-width="2" stroke-linecap="butt"></path><path d="M317.52817,190.34665l0.01615,0.02373c0.2514,0.2797 0.65535,0.30997 0.92357,0.67158c0.52397,1.55659 -1.24335,3.2944 -1.85027,4.57529c-0.73571,1.70594 -1.1417,3.05076 -2.42894,4.49486c-0.79656,0.93324 -1.70756,2.87959 -2.92116,3.31098l-0.04048,0.07915c-0.78184,1.11916 -0.92534,1.46119 -2.46751,1.50722c-1.91138,-0.07717 -2.73319,-1.52965 -4.0373,-2.74746c-1.25175,-1.02935 -1.7772,-2.29856 -2.27794,-3.79044c-0.44548,-1.65958 -1.12013,-3.08188 -1.03165,-4.85806c-0.09504,-1.74006 0.74707,-3.03591 2.01652,-4.12611c0.84244,-0.61032 2.42926,-1.94214 3.51077,-2.08207l0.04943,-0.05528c0.28068,-0.34664 0.61018,-0.6691 0.93138,-0.9738c1.26493,-1.26454 1.86888,-2.52403 3.85799,-2.44265c1.54523,0.21724 2.5497,1.67682 3.59484,2.71827c0.95167,0.94871 1.66736,2.38253 2.09904,3.65029c0.03467,0.01677 0.05555,0.04453 0.05555,0.04453z" fill="#2d00e3" stroke="none" stroke-width="2" stroke-linecap="butt"></path><path d="M319.73348,203.85736c-2.61253,2.21144 -6.19296,0.16301 -7.75356,-2.30907c-0.08647,-0.16248 -0.61192,-1.05313 -0.9301,-1.70593c-0.00245,0.06955 -0.00498,0.12299 -0.00347,0.14607c0.04537,0.69234 0.25461,1.71103 -0.10961,2.35677c-0.56109,0.99483 -2.00311,0.70921 -2.91951,0.56943c-1.96482,-0.95853 -1.79327,-2.58787 -2.16593,-4.32416c-0.19961,-0.92999 -0.38011,-2.10029 -0.47087,-3.04853c-0.08203,-0.85716 0.10783,-1.45132 0.90522,-1.75502c1.03831,-0.02046 2.21123,-0.19596 2.84406,-1.12868c1.09607,-1.61549 0.83187,-4.36847 3.4697,-4.20703c2.76566,0.38834 6.18564,3.1337 6.60635,6.08573c0.82768,3.16618 1.63,5.72449 0.97026,8.99715c0,0 -0.07539,0.37386 -0.44254,0.32326z" fill="#3300ff" stroke="none" stroke-width="2" stroke-linecap="butt"></path><path d="M309.73037,198.47c0.00129,0.00775 0.00267,0.01548 0.00414,0.02323l0.00959,-0.00527c-0.00459,-0.00598 -0.00915,-0.01196 -0.01372,-0.01795zM311.24693,198.60516c0.00678,0.01048 0.01277,0.02284 0.01767,0.03743c0.04294,0.12813 -0.0852,0.17108 -0.0852,0.17108l-0.14326,0.04803c-0.32873,0.1102 -1.14398,0.39245 -1.42653,0.04606c-0.11568,-0.14181 -0.19267,-0.58037 -0.19753,-0.92131c-0.36733,-0.65475 -0.14917,-2.48673 -0.14917,-2.48673c0,0 1.63805,2.091 1.97767,3.07123c0,0 0.00469,0.01396 0.00634,0.03419z" fill="#2d00e3" stroke="none" stroke-width="2" stroke-linecap="butt"></path><path d="M325.12213,176.57302c0.8333,1.69158 1.70091,3.82306 1.67263,5.66966c-0.01713,1.11763 -0.65673,2.35219 -1.06858,3.36727c-1.44912,2.80689 -4.59503,5.97098 -7.88992,3.5591c-0.9456,-0.6922 -1.54778,-2.05954 -2.04978,-3.06766c-1.54447,-2.8619 -4.26417,-8.83287 0.57561,-10.13621c2.34521,-1.20827 6.69733,-2.28773 8.74957,0.09245c0,0 0.22671,0.26703 0.01048,0.5154z" fill="#2d00e3" stroke="none" stroke-width="2" stroke-linecap="butt"></path><path d="M325.13434,177.14522c0.24629,0.0064 0.348,0.26186 0.348,0.26186l0.10366,0.26056c0.50742,1.35392 1.06625,2.68425 1.19799,4.14365c0.0373,3.5216 -3.16547,6.20752 -6.6432,5.41756c-3.12237,-0.46024 -5.07255,-5.93849 -2.58518,-8.02515c2.52029,-1.67842 4.5233,-3.4455 7.57871,-2.05846z" fill="#3300ff" stroke="none" stroke-width="2" stroke-linecap="butt"></path><path d="M321.58357,171.9291c0,0 0.10222,0.10845 0.11696,0.25583c0.09792,0.1462 0.05472,0.32993 0.05472,0.32993l-0.09751,0.4048c-0.18063,0.51438 -0.29577,0.90173 -0.61866,1.34477c-1.25601,1.3195 -4.75422,1.32175 -6.52763,1.6411c-0.58914,0.10608 -1.44739,0.20274 -1.92415,-0.25487c-0.74105,-0.71127 -0.43611,-2.02839 -0.15831,-2.88367c1.65151,-2.22274 7.13456,-2.94653 9.15458,-0.8379z" fill="#4e5a6a" stroke="none" stroke-width="2" stroke-linecap="butt"></path><path d="M315.00714,168.84715c0.18015,-1.93945 2.51408,-1.67658 3.20468,-0.28896c0.16624,0.13588 0.12969,0.36008 0.12159,0.40008c-0.00119,0.05512 -0.01172,0.11967 -0.04403,0.18057l-0.03646,0.14893c-0.45507,1.89332 -3.42499,1.48832 -3.24581,-0.44063z" fill="#2d00e3" stroke="none" stroke-width="2" stroke-linecap="butt"></path><path d="M325.11214,141.48071c0.00004,0.1392 -0.07739,0.25144 -0.07739,0.25144l-0.02228,0.02896c-1.67483,3.01001 -5.10235,3.72404 -8.33498,3.00617c-2.71346,-0.96093 -2.42286,-3.71561 -2.09169,-6.0579c0.14178,-1.00278 0.11791,-1.8279 0.75436,-2.31446l-0.09125,-0.17939l0.36318,-0.18471c0.07262,-0.03813 0.15747,-0.05465 0.24489,-0.04233c0.22172,0.03129 0.37608,0.2364 0.34479,0.45812c-0.00167,0.01186 -0.00383,0.02352 -0.00647,0.03497l-0.09136,0.41439c-0.19022,1.35727 -0.16601,2.8838 0.55438,4.09393c0.37558,0.56689 0.64055,0.6295 0.97026,0.84486c-0.14355,-0.20696 -0.40871,-0.6297 -0.45563,-0.74313c-0.22608,-0.54646 -0.49211,-1.94913 0.30113,-2.24756c0.0596,-0.02241 0.77453,0.3227 0.96047,0.37969c0.32224,0.09876 0.67544,0.12561 1.02689,0.12648l0.32322,-0.14688c0.06919,-0.03278 0.14843,-0.04634 0.2299,-0.03484c0.22172,0.03129 0.37608,0.2364 0.34479,0.45812c-0.0115,0.08149 -0.04647,0.15386 -0.09712,0.21129l-0.24126,0.28242c-0.91369,3.21856 3.31433,0.77494 4.72208,0.84298c0,0 0.40477,0.02314 0.38165,0.42791c-0.00185,0.03252 -0.00618,0.06224 -0.01253,0.08946z" fill="#373440" stroke="none" stroke-width="2" stroke-linecap="butt"></path><path d="M327.98328,141.48997c0.80292,0.11334 0.6896,0.91625 0.6896,0.91625l-0.03824,0.12244c0.03841,0.53495 0.16084,1.07838 0.39978,1.55854c0.32158,1.09176 0.24564,2.40084 0.67894,3.43987c0.58143,1.39419 1.41422,3.04085 1.54847,4.58621c0.071,0.81734 -0.29107,1.64351 -0.13574,2.48114c0.11901,0.64169 0.53894,1.20191 0.66049,1.84313c0.45793,2.41552 -0.3014,4.84116 0.27494,7.33021c0.85732,2.56321 1.69378,5.03215 2.21299,7.70827c0.35056,1.80684 0.20293,3.70742 0.61517,5.51974c0.21031,0.92455 0.72511,1.78277 0.94248,2.70123c0.28429,1.20133 0.16517,2.46099 0.42528,3.66557c0.62831,2.97245 0.92268,5.9878 2.04996,8.81945c0.28088,0.70554 1.3669,2.5922 0.74791,3.31123c-0.33971,0.39462 -1.03512,0.13555 -1.5558,0.14021c-1.53408,0.01376 -3.23253,-0.37827 -4.75182,-0.59271c0,0 -0.20491,-0.02894 -0.39309,-0.16107c-2.66852,-0.63226 -5.17883,-1.2835 -7.92833,-0.68074c-0.99242,0.78282 -2.11169,2.84016 -3.67866,2.14265c-0.44891,-0.19982 -0.53346,-0.82915 -0.73926,-1.27537c-0.48706,-1.05606 -1.01353,-2.37091 -1.40767,-3.46498c-0.17077,-0.47404 -0.57349,-1.00381 -0.37122,-1.46528c0.19109,-0.43596 0.85326,-0.42244 1.28576,-0.62121c1.02614,-0.47159 2.25343,-0.49743 3.24813,-0.97343c0.96888,-0.46364 1.80658,-1.32889 2.63537,-2.14247l-0.15458,-0.12203l0.65526,-0.82999c0.172,-0.22615 0.45797,-0.35507 0.7593,-0.31255c0.39923,0.05635 0.68927,0.39447 0.69745,0.78491l0.02861,0.72152c0.22789,0.43882 0.95932,1.34007 1.53288,1.18046c0.28604,-0.07962 0.42627,-2.54714 0.45583,-2.85154c0.2935,-3.02363 -0.48631,-5.86624 -0.60786,-8.86746c0,0 -0.00331,-0.08388 0.01916,-0.19874l-0.07495,-0.51108c-0.095,-2.46084 0.39921,-4.95012 0.12282,-7.41311c-0.09876,-0.88018 -0.48051,-1.6576 -0.6392,-2.5243c-0.25244,-1.37886 -0.14276,-2.77245 -0.28993,-4.16277c-0.44157,-4.21201 -0.92415,-8.38748 -1.26785,-12.59707c-0.1575,-1.92906 0.13137,-3.80961 -0.11528,-5.75333c0,0 -0.09086,-0.71707 0.57602,-0.88297c0.06852,-0.21959 0.28203,-0.65423 0.88692,-0.56886z" fill="#373440" stroke="none" stroke-width="2" stroke-linecap="butt"></path><path d="M328.96615,131.35327l-0.09617,-0.01357c-0.63663,-0.24969 0.74324,-1.25634 1.04988,-1.489c1.43882,-1.06139 3.28051,-1.38831 4.85377,-2.14383c1.63384,-0.55028 2.78728,-0.79649 4.52192,-0.54981c1.63628,0.43705 3.28966,0.80744 4.92451,1.26679c1.24334,0.50306 3.46299,1.3997 3.24799,3.07289c-0.51587,1.93127 -1.85457,1.5632 -3.36044,2.06799c-0.39173,-0.0498 -0.73908,-0.13982 -0.80916,-0.31116c-0.09277,-0.22682 0.14214,-0.56717 -0.15056,-0.86028c-0.55433,-0.55513 -1.50502,-0.88858 -2.27516,-0.99728c-1.65793,-0.23401 -3.33171,-0.39225 -4.98122,-0.62507c-1.5971,-0.22542 -2.82572,0.31627 -4.29232,0.79437c-0.75133,-0.2193 -2.84679,1.57318 -2.63305,-0.212z" fill="#8dc0b9" stroke="none" stroke-width="2" stroke-linecap="butt"></path><path d="M322.48541,146.39072c0.43462,0.31973 0.724,0.80921 0.2037,1.269c-0.40792,0.36049 -1.3515,0.08697 -1.81892,0.02099c-1.45645,-0.23239 -2.83847,1.37207 -4.17822,0.14404c-0.66421,-1.84678 1.81801,-1.42504 2.89373,-1.76452c0.9699,0.13691 2.23911,-0.51488 2.89971,0.33049z" fill="#8dc0b9" stroke="none" stroke-width="2" stroke-linecap="butt"></path><path d="M351.37179,200.1261c-0.54903,-0.07748 -0.93852,-0.53402 -0.86996,-1.01969c0.06854,-0.48567 0.56918,-0.81656 1.1182,-0.73908c0.54902,0.07749 0.93852,0.53403 0.86997,1.01969c-0.06854,0.48567 -0.56919,0.81656 -1.1182,0.73908z" fill="#8dc0b9" stroke="none" stroke-width="2" stroke-linecap="butt"></path><path d="M331.75946,156.17839c0,0 1.09274,-1.63942 2.54112,-1.37958c1.85994,0.33371 4.09398,2.11985 6.33787,2.70299c2.09252,0.54381 4.2404,-0.07397 4.84822,-0.80051c1.72538,-2.06233 1.10434,-5.38075 1.00704,-8.80204c-0.13335,-4.68829 -0.11718,-9.48205 0.64478,-10.69999c0.53207,-0.85047 1.04559,-1.24221 1.04559,-1.24221c0,0 1.30896,5.80817 1.69785,10.369c0.79832,9.3628 2.82542,42.67979 2.82542,42.67979c0,0 0.93566,8.19726 0.26488,8.82608c-0.22823,0.21398 -2.02224,-0.0017 -2.56628,-1.34087c-0.27593,-0.67919 0.47326,-2.93842 0.47326,-2.93842c0,0 -0.57298,-2.35497 -0.60276,-2.36408c-0.3086,-0.09442 0.67711,-2.71926 0.67711,-2.71926c0,0 -0.56855,-2.11234 -0.92807,-4.63795c-0.3401,-2.38909 -0.44147,-5.1653 -1.45985,-6.28234c-1.46551,-1.60752 -5.18121,-3.01282 -8.21356,-4.28939c-3.10729,-1.30814 -5.51451,-2.46799 -5.51451,-2.46799c0,0 4.17286,-0.35741 6.29352,-0.30054c2.15917,0.05791 6.5481,0.64487 6.5481,0.64487c0,0 -0.67829,-1.9029 -2.80496,-2.66404c-2.29493,-0.82135 -10.49831,-2.09724 -10.49831,-2.09724z" fill="#8dc0b9" stroke="none" stroke-width="2" stroke-linecap="butt"></path><path d="M354.16192,153.695c0.00683,0.07081 -0.05649,0.11847 -0.05649,0.11847c-0.96401,0.72417 -1.91536,1.43937 -2.85897,2.14957l-0.08708,0.12622c-0.02785,0.04223 -0.07839,0.06703 -0.13181,0.05948c-0.05342,-0.00754 -0.09511,-0.04534 -0.11017,-0.09364l-0.05395,-0.16095l0.02707,-0.00906c-0.55997,-1.29534 -0.00628,-3.38808 -0.30401,-4.74568c0.22021,-1.49524 -0.76863,-3.3775 -0.92933,-4.90007c-0.10709,-0.39353 -0.1232,-1.98559 0.26554,-2.25989c0.4362,-0.30778 1.89001,-0.24091 2.39948,-0.16386c0.55807,0.28227 0.6171,0.85395 0.73244,1.42083c0.25323,1.24462 0.84497,2.44258 0.98116,3.70639c0.21065,1.19162 0.93913,3.55729 0.2084,4.62083l0.01176,0.01862c0,0 -0.01303,0.0923 -0.09411,0.11277z" fill="#342a3c" stroke="none" stroke-width="2" stroke-linecap="butt"></path><path d="M352.99176,144.32289c-0.00437,0.00145 -0.00861,0.00272 -0.01277,0.0038c-0.00358,0.00667 -0.0062,0.01048 -0.0062,0.01048c-0.48569,0.70094 -3.12132,2.16719 -2.86696,0.2581c-0.26736,-1.45649 -0.35887,-3.22929 -0.82632,-4.63004c0.1329,-1.02381 -0.08896,-4.9279 1.42353,-4.72503c2.0736,0.29268 2.631,1.69649 2.33935,3.7225c0.24805,1.56747 0.25463,3.48701 -0.01389,5.05595l0.04845,0.13315c0,0 0.04293,0.12812 -0.0852,0.17108z" fill="#4d5265" stroke="none" stroke-width="2" stroke-linecap="butt"></path><path d="M325.83338,208.19691c-0.77517,-0.12387 -1.90497,-0.81482 -1.90497,-0.81482c0,0 -1.78199,-0.87863 -2.37882,-3.00176c-0.59683,-2.12314 -0.36076,-3.98487 -0.05025,-5.6394c0.31052,-1.65451 1.21684,-3.38172 1.88518,-4.13784c0.66835,-0.75612 1.62533,-1.2561 2.65576,-1.28117c1.03044,-0.02508 1.24103,0.43713 2.5343,0.73986c1.29328,0.30272 1.09595,0.34278 3.34067,0.6353c2.24473,0.29251 3.6877,-0.30068 5.7369,0.35476c2.04921,0.65543 4.64933,2.96736 4.64933,2.96736c0,0 1.76985,1.11819 2.15378,2.53324c0.38393,1.41504 0.30828,2.79908 -0.37614,4.01872c-0.68442,1.21962 -1.43466,2.02578 -3.02106,3.03123c-1.58639,1.00543 -2.30688,0.48932 -3.73167,0.97465c-1.4248,0.48532 -2.16513,1.25597 -4.10634,1.69518c-1.94122,0.43921 -2.63881,0.66899 -3.69497,0.06993c-1.05615,-0.59907 -1.45004,-2.29743 -1.45004,-2.29743c0,0 -1.46648,0.27607 -2.24165,0.1522z" fill="none" stroke="#000000" stroke-width="2" stroke-linecap="round"></path><path d="M328.59562,206.93527c0,0 1.53164,-0.08005 2.18343,0.00353c0.43053,0.05522 1.10486,0.55158 1.10486,0.55158c0,0 -0.70032,0.50378 -1.17727,0.67071c-0.4802,0.16808 -1.69429,0.33435 -1.69429,0.33435l-0.79086,-0.52109z" fill="#000000" stroke="none" stroke-width="2" stroke-linecap="butt"></path><path d="M330.82039,210.69308l-5.01703,-0.3993c0,0 -1.88016,0.45082 -3.10808,0.53187c-1.22793,0.08104 -2.23355,0.16286 -3.62728,-0.08734c-1.39372,-0.25019 -2.47731,-0.48501 -3.98837,-1.27982c-1.51104,-0.79481 -3.13412,-2.46657 -3.13412,-2.46657l-2.29543,-1.14289c0,0 -2.56721,-1.15617 -3.83211,-2.26967c-1.26489,-1.1135 -2.58055,-2.2522 -3.64327,-4.31098c-1.0627,-2.0588 -1.45097,-3.63151 -1.29037,-5.50919c0.1606,-1.87769 0.83983,-2.37295 1.96094,-3.51999c1.12111,-1.14705 4.84532,-3.44376 4.84532,-3.44376c0,0 0.5965,-2.36339 1.70583,-3.0018c1.10931,-0.6384 2.97024,-0.14487 4.07375,0.61635c1.1035,0.76122 2.90037,3.34754 4.12256,5.54498c1.22219,2.19744 1.93869,3.66493 2.73232,6.77977c0.79364,3.11485 0.88614,3.09863 0.42678,5.12261c-0.45936,2.02398 -0.80923,2.32993 -1.84866,2.78312c-1.03943,0.45319 -1.83191,0.48278 -2.99076,0.03283c-1.15886,-0.44995 -2.24158,-1.17331 -3.32842,-2.38058c-1.08685,-1.20726 -2.04094,-3.41482 -2.04094,-3.41482" fill="none" stroke="#000000" stroke-width="2" stroke-linecap="round"></path><path d="M327.62291,210.02358l-0.38311,-0.50904l-2.2062,-1.1303c0,0 -0.74619,0.91921 -1.99345,1.4061c-1.24725,0.48688 -1.25383,0.46609 -3.11537,0.32957c-1.86155,-0.1365 -2.72089,-0.35699 -4.12776,-1.05409c-1.40688,-0.69708 -3.06223,-2.50843 -3.06223,-2.50843l-0.43776,-2.70052l-0.71157,1.17343l-2.84116,0.14494l-0.71478,-0.73783c0,0 1.73197,0.17516 2.39365,-0.11711c0.66168,-0.29229 0.97466,-0.68172 1.1441,-1.57871c0.16944,-0.89698 -0.25695,-2.20865 -0.25695,-2.20865" fill="none" stroke="#000000" stroke-width="2" stroke-linecap="round"></path><path d="M321.87274,205.95911l-3.51762,-0.54198l-3.65088,-0.24232l-1.27887,1.00236l0.09966,-1.3508l7.28238,0.29994" fill="none" stroke="#000000" stroke-width="2" stroke-linecap="round"></path><path d="M326.92729,182.80619c0,0 -0.22488,1.30343 -1.30173,2.89338c-1.07684,1.58997 -1.51004,2.23939 -3.22701,2.82019c-1.71698,0.58081 -3.13398,0.34704 -4.3303,-0.26376c-1.19631,-0.6108 -2.31179,-2.60931 -2.31179,-2.60931c0,0 -1.10596,-2.73604 -1.46686,-4.37604c-0.3609,-1.63998 -0.64348,-2.68618 0.02792,-4.06581c0.6714,-1.37962 1.93916,-1.43932 2.99232,-1.86069c1.05316,-0.42138 2.00649,-0.31021 2.9292,-0.48218c0.94569,-0.17624 1.64745,-0.262 2.6159,-0.12485c0.96846,0.13716 1.5998,0.93861 2.23391,1.7546c1.20984,1.55679 1.57376,2.26228 1.84183,4.18081c0.26806,1.91856 -0.18672,4.50243 -0.99019,6.31227c-0.80347,1.80986 -1.14731,2.11386 -3.19895,2.97303c-2.05162,0.85917 -5.36651,-0.65819 -5.36651,-0.65819" fill="none" stroke="#000000" stroke-width="2" stroke-linecap="round"></path><path d="M314.26684,184.2453c0,0 -1.1166,-3.36198 -1.69132,-5.59887c-0.5747,-2.2369 -0.66589,-1.98601 -0.74321,-3.87686c-0.07733,-1.89085 0.01081,-2.52851 0.5157,-3.30213c0.50488,-0.7736 1.81875,-1.28186 1.81875,-1.28186c0,0 0.33157,-1.74473 1.09394,-2.47605c0.76235,-0.73131 1.20476,-0.52414 2.06321,-0.55252c0.85845,-0.02837 3.92039,0.35481 3.92039,0.35481l1.94383,6.97454" fill="none" stroke="#000000" stroke-width="2" stroke-linecap="round"></path><path d="M317.83916,167.72605l1.04541,1.73574l-0.89476,1.06486c0,0 -0.71586,0.07527 -1.00918,0.10611c-0.22672,0.02384 -0.60295,0.0634 -0.60295,0.0634l-1.4404,-1.04704" fill="none" stroke="#000000" stroke-width="2" stroke-linecap="round"></path><path d="M319.17419,168.11299l1.75182,0.24726l1.84475,5.91831l-3.66603,0.25035c0,0 1.24391,-0.79825 1.42573,-1.42083c0.18226,-0.62414 -0.1001,-1.08764 -0.26525,-1.19561c-0.0461,-0.03013 -0.45702,0.25479 -1.05433,0.26895c-1.05947,0.02511 -2.6894,-0.16036 -3.79649,0.10721c-1.65457,0.39991 -1.86652,1.59961 -1.86652,1.59961c0,0 0.36912,0.51766 1.20055,0.61806c0.49835,0.06018 1.8845,-0.34434 2.84508,-0.35223c0.86873,-0.00715 1.34268,0.38484 1.34268,0.38484c0,0 -5.7579,3.67969 -5.9259,3.41949c-0.1608,-0.24905 -0.43928,-5.40726 -0.43606,-5.6519c0.00948,-0.71767 0.83161,-1.64775 1.22898,-1.83891c0.74938,-0.36047 4.13223,0.79587 4.13223,0.79587z" fill="#000000" stroke="none" stroke-width="0" stroke-linecap="butt"></path><path d="M321.89917,170.22903l-1.96772,-7.60894c0,0 -2.31481,-6.84558 -3.77609,-11.37381c-1.46128,-4.52823 -1.46797,-3.78813 -1.86691,-6.11286c-0.39894,-2.32472 -0.21883,-6.73816 -0.21883,-6.73816c0,0 0.614,-2.13471 1.81895,-2.94093c1.20495,-0.80623 2.61916,-1.24195 4.72656,-1.43867c2.1074,-0.19673 3.22246,0.37683 3.22246,0.37683c0,0 4.09122,-3.51846 7.05737,-5.24323c2.96616,-1.72475 2.91616,-1.38114 4.92268,-1.72292c2.00651,-0.34178 3.9722,-0.71703 6.34503,-0.19632c2.37282,0.52071 4.32839,1.35818 5.80897,3.32537c1.48058,1.96719 1.2183,6.01158 1.2183,6.01158l1.22944,16.70775l0.79589,18.67434l2.08139,16.75c0,0 1.18681,10.242 0.75342,12.89697c-0.19046,1.16674 -3.25116,0.40372 -5.54705,0.62092c-2.29589,0.21721 -3.38527,0.22413 -3.38527,0.22413" fill="none" stroke="#000000" stroke-width="2" stroke-linecap="round"></path><path d="M339.03333,195.26495l-1.74199,-9.76084c0,0 -3.16394,-15.41389 -4.82275,-23.29826c-1.65882,-7.88437 -4.06641,-18.67031 -4.32606,-20.18648c-0.25965,-1.51617 0.34263,-4.0852 0.34263,-4.0852c0,0 -1.42833,-2.64791 -1.61134,-3.50309c-0.18301,-0.85518 0.38945,-2.20678 0.38945,-2.20678" fill="none" stroke="#000000" stroke-width="2" stroke-linecap="round"></path><path d="M348.79405,132.53351c0.21627,1.54334 -1.44578,3.31261 -2.54625,3.94966c-1.10046,0.63704 -3.47522,1.3193 -5.80453,1.75445c-2.32931,0.43516 -3.53604,0.38177 -5.81099,0.3497c-2.27493,-0.03207 -4.90512,-0.34739 -5.9101,-0.95116" fill="none" stroke="#000000" stroke-width="2" stroke-linecap="round"></path><path d="M348.78326,135.02772c0,0 3.30045,-0.99361 3.63717,0.20139c0.33672,1.19501 2.70231,22.29704 2.70231,22.29704l-3.95914,3.1848" fill="none" stroke="#000000" stroke-width="2" stroke-linecap="round"></path><path d="M353.35681,159.53867l0.93825,25.4017c0,0 1.78082,0.2551 2.40932,3.92768c0.62849,3.6726 0.30622,6.77022 0.07853,7.73226c-0.22769,0.96203 -2.20403,1.24875 -2.20403,1.24875" fill="none" stroke="#000000" stroke-width="2" stroke-linecap="round"></path><path d="M327.61713,141.32128c0,0 -1.99683,0.1015 -3.19904,0.56237c-0.87592,0.3358 -1.59045,2.42725 -1.59045,2.42725l-7.48034,0.50404" fill="none" stroke="#000000" stroke-width="2" stroke-linecap="round"></path><path d="M337.79422,185.80906l15.05622,3.84089" fill="none" stroke="#000000" stroke-width="2" stroke-linecap="round"></path><path d="M338.46727,189.88162l14.73863,3.32812" fill="none" stroke="#000000" stroke-width="2" stroke-linecap="round"></path><path d="M353.67205,197.64309l-14.44354,-3.20847" fill="none" stroke="#000000" stroke-width="2" stroke-linecap="round"></path><path d="M337.17947,135.18376c-5.5476,0.93281 -5.96566,-1.66258 -5.82559,-2.65504c0.21562,-1.52774 3.35539,-2.34396 5.54385,-2.53218c2.40343,-0.20673 6.84211,0.22683 6.60014,2.14042c-0.34869,2.75761 -4.15229,2.68255 -6.3184,3.04678z" fill="#000000" stroke="none" stroke-width="2" stroke-linecap="butt"></path><path d="M352.14164,138.30943l-2.0736,0.8772" fill="none" stroke="#000000" stroke-width="2" stroke-linecap="round"></path><path d="M320.56941,139.31267c-0.11921,0.84466 -1.07696,1.32983 -1.96383,1.20466c-0.88689,-0.12518 -1.56407,-1.07511 -1.38998,-1.75602c0.2113,-0.82643 1.18674,-1.00238 2.0736,-0.8772c0.88687,0.12519 1.39942,0.58392 1.28021,1.42855z" fill="#000000" stroke="none" stroke-width="2" stroke-linecap="butt"></path><path d="M323.11791,135.07085l2.09609,-0.48407c0,0 -0.49598,0.74275 -0.61232,1.24218c-0.14226,0.61069 -0.40864,2.12335 -0.40864,2.12335z" fill="#000000" stroke="none" stroke-width="2" stroke-linecap="butt"></path><path d="M314.62121,141.67077c0,0 0.89059,1.03082 1.49681,1.40644c0.58859,0.3647 2.08915,0.8155 2.08915,0.8155l3.74544,0.0392l2.83668,-2.51739c0,0 1.38518,-0.77159 1.86994,-1.26559c0.44456,-0.45304 0.92845,-1.58616 0.92845,-1.58616l0.85449,2.52081l-0.05159,2.61228c0,0 -0.89574,-0.79632 -1.44734,-0.95058c-0.7373,-0.20619 -2.58326,-0.17658 -2.58326,-0.17658l-0.51444,1.38299c0,0 -0.0909,0.76673 -0.09979,1.24599c-0.01187,0.64049 0.03484,2.25549 0.03484,2.25549c0,0 -0.65893,-1.01012 -1.04822,-1.42839c-0.32269,-0.3467 -1.12543,-0.90701 -1.12543,-0.90701l-2.322,0.23392c0,0 -1.91109,0.27273 -2.46765,0.68945c-0.68135,0.51016 -1.32234,2.14824 -1.32234,2.14824z" fill="#000000" stroke="none" stroke-width="2" stroke-linecap="butt"></path></g></g></g></svg>