<svg version="1.1" xmlns="http://www.w3.org/2000/svg" xmlns:xlink="http://www.w3.org/1999/xlink" width="97.51607" height="46.77201" viewBox="0,0,97.51607,46.77201"><g transform="translate(-187.58443,-154.50987)"><g data-paper-data="{&quot;isPaintingLayer&quot;:true}" fill-rule="nonzero" stroke-linejoin="miter" stroke-miterlimit="10" stroke-dasharray="" stroke-dashoffset="0" style="mix-blend-mode: normal"><g><g stroke-width="1.5"><path d="M198.00653,171.17991l0.40204,0.60646c1.57306,6.33439 1.59376,14.36093 0.41345,20.72626c-0.48127,0.8602 -0.67783,1.96026 -1.44383,2.58061c-1.51394,1.2261 -6.24163,1.08755 -7.64301,-0.3478c-1.75271,-1.79519 -0.94498,-6.19562 -0.94346,-8.39805c0.00298,-4.31474 -0.17688,-7.60508 1.2123,-11.76771c0.44363,-1.3293 0.61828,-3.76693 1.7361,-4.65149c0.48822,-0.38636 3.70611,-0.31827 4.58301,-0.31827c0,0 1.6078,0 1.6834,1.57z" fill="#3300ff" stroke="none" stroke-linecap="butt"/><path d="M194.62937,197.1504c0,0 -0.60882,-3.56791 -0.44964,-8.76795c0.15919,-5.20005 0.19947,-9.78774 1.1241,-13.26433c0.92462,-3.47659 1.26788,-5.44729 4.49638,-7.86867c3.22851,-2.42138 6.73607,-2.68296 9.89205,-2.92265c3.15598,-0.2397 4.54823,-0.23742 7.86868,1.57373c3.32045,1.81115 4.73406,2.20503 6.96939,6.51975c2.23534,4.31472 2.0647,6.5882 2.69783,12.14024c0.63313,5.55205 0.22482,13.48915 0.22482,13.48915c0,0 -9.22244,2.65768 -15.96215,2.47302c-6.73972,-0.18465 -16.86145,-3.37229 -16.86145,-3.37229z" fill="#3300ff" stroke="#000000" stroke-linecap="round"/><path d="M194.17973,196.36353c0,0 -3.77311,0.44089 -4.7212,-1.23651c-0.9481,-1.6774 -1.1241,-6.12794 -1.1241,-10.11687c0,-3.98892 1.34681,-15.18732 3.82193,-15.73735c2.47511,-0.55002 4.38398,0.78688 4.38398,0.78688" fill="none" stroke="#000000" stroke-linecap="round"/><path d="" fill="#000000" stroke="none" stroke-linecap="butt"/></g><path d="M211.17123,172.83442c0.33691,0.09097 1.10142,0.21821 1.44895,0.19677c0.32625,-0.02013 0.24004,-0.37771 0.77759,-0.37771c0.44685,0 0.41048,1.31083 -0.894,1.3306c-1.36265,0.02066 -6.1991,-1.94471 -6.00297,-2.55461c0.24387,-0.75837 3.18019,1.00255 4.67042,1.40495z" fill="#000000" stroke="none" stroke-width="1.5" stroke-linecap="butt"/><g stroke="none" stroke-width="0" stroke-linecap="round"><path d="M200.63165,176.74578l32.94479,-2.60139c0,0 0.63124,3.31403 -1.7896,5.34552c-2.06146,1.72991 -7.23003,2.22607 -7.25912,2.22521c-1.57715,-0.0458 -17.61404,-1.0738 -20.18472,-1.69437c-2.3801,-0.57457 -3.71133,-3.27499 -3.71133,-3.27499z" fill="#000000"/><path d="M203.69444,177.67527l27.80936,-1.74521c0,0 -0.34945,1.956 -2.3999,3.09696c-1.74605,0.97158 -5.23969,1.15551 -5.26433,1.15503c-1.13145,-0.02179 -10.67023,-0.66034 -15.0017,-0.99938c-0.78246,-0.06124 -2.07728,-0.11993 -2.41043,-0.17325c-2.01593,-0.3227 -2.733,-1.33415 -2.733,-1.33415z" fill="#ffffff"/></g><g fill="#000000" stroke="none" stroke-width="0" stroke-linecap="round"><path d="M230.42256,190.23597l-2.42997,-1.82963l-3.28761,2.08692l-3.34479,-2.17268l-3.83079,1.77245l-3.85936,-2.77303l-3.14467,1.14352l-3.34479,-1.91539l-1.05775,0.65752l-5.91769,-0.62893l-0.91482,-2.22985l1.51516,-1.91539l3.85936,3.45913l2.57291,-0.62893l3.23043,2.00115l3.45913,-1.1721l3.71642,2.85878l3.7736,-1.8868l3.34479,2.00115l3.20185,-1.85821l2.68726,1.68668z"/></g></g><g stroke-width="1.5" stroke-linecap="round"><path d="M196.20818,165.49658c5.92359,-2.71744 10.16505,-5.14735 16.17913,-4.13599c6.01408,1.01136 13.94211,3.36664 10.76554,8.66715c-3.17657,5.30051 -12.44753,-1.08043 -15.79872,-0.26866c-3.35119,0.81177 -3.05701,4.8073 -6.62793,5.70114c-5.41578,1.35563 -2.47887,-2.90572 -4.19204,-3.67643c-1.45425,-0.65423 -5.27445,2.49897 -5.43803,-0.65592c-0.07247,-1.39773 1.81283,-4.11779 5.11205,-5.6313z" fill="#fff3df" stroke="none"/><path d="M196.65514,166.22944c1.77091,-0.8124 1.59706,7.12717 3.36459,6.7349c3.23886,-0.71879 2.34608,-4.33673 5.80082,-5.63712c0.96625,-0.3637 6.17851,0.44059 7.09999,0.59556c6.01408,1.01136 13.40889,-3.19555 10.23232,2.10495c-3.17657,5.30051 -12.44755,-1.08043 -15.79872,-0.26866c-3.35119,0.81178 -3.057,4.8073 -6.62792,5.70114c-5.41578,1.35563 -2.47888,-2.90572 -4.19205,-3.67642c-1.45425,-0.65423 -5.27444,2.49897 -5.43802,-0.65592c-0.07247,-1.39773 0.86551,-2.78597 4.16473,-4.29948z" fill="#cfa7a7" stroke="none"/><path d="M212.38729,161.3606c6.01406,1.01136 13.94211,3.36664 10.76554,8.66714c-3.17657,5.30051 -12.44752,-1.08043 -15.79871,-0.26865c-3.35119,0.81178 -3.057,4.80731 -6.62792,5.70114c-5.41578,1.35563 -2.47887,-2.9057 -4.19204,-3.67642c-1.45425,-0.65423 -5.27445,2.49895 -5.43803,-0.65592c-0.07247,-1.39773 1.81284,-4.1178 5.11204,-5.63131c5.92359,-2.71744 10.16505,-5.14733 16.17913,-4.13598z" fill="none" stroke="#000000"/></g><path d="M205.31978,166.36844c-4.39343,0.51492 -9.67181,-0.78662 -7.06477,-3.72115c0.19538,-0.21991 0.53237,-0.68174 0.89627,-1.1583c0.38018,-0.49787 0.7897,-1.01182 1.0978,-1.28282c3.33217,-2.93092 8.94577,-5.37345 13.96517,-0.65191c5.92771,5.57596 -4.50105,6.29926 -8.89447,6.81418z" fill="#ffd500" stroke="none" stroke-width="1.5" stroke-linecap="round"/><path d="M205.31978,166.36844c-4.39343,0.51492 -9.67182,-0.78662 -7.06477,-3.72115c0.19538,-0.21991 0.53237,-0.68174 0.89627,-1.1583c0.38018,-0.49787 0.7897,-1.01183 1.0978,-1.28282c3.33217,-2.93092 1.32947,2.08677 4.40904,3.2154c6.47026,2.3713 10.12891,-2.58311 10.62437,-2.16171c3.96049,3.3684 -6.05781,4.65092 -9.96272,5.10858z" fill="#ff7e00" stroke="none" stroke-width="1.5" stroke-linecap="round"/><path d="M205.36469,166.56384c-4.39343,0.51492 -9.67181,-0.78662 -7.06477,-3.72115c0.94707,-1.06602 2.43865,-2.89838 4.35448,-4.02696c3.35802,-1.97814 7.83041,-2.61646 11.60477,0.93392c5.92771,5.57595 -4.50105,6.29926 -8.89448,6.81418z" fill="none" stroke="#000000" stroke-width="1.5" stroke-linecap="round"/><path d="M206.73527,160.00978c0.55443,-1.12007 2.13888,-1.46624 3.53896,-0.7732c1.40008,0.69303 2.08562,2.16283 1.53119,3.2829c-0.25204,0.50918 -1.02069,-0.99844 -2.1865,-1.51796c-1.3987,-0.62328 -3.18602,-0.38084 -2.88363,-0.99174z" fill="#fff45c" stroke="none" stroke-width="1.5" stroke-linecap="butt"/><g stroke="none" stroke-width="0" stroke-linecap="round"><path d="M260.87435,193.9225l-0.23132,-21.86078l15.26784,-1.21448c0,0 8.46741,1.88626 9.07974,4.68444c0.73845,3.37453 -2.4868,18.79563 -2.4868,18.79563l-5.20495,1.56149z" fill="#000000"/><path d="M263.1439,191.92588l-0.18756,-17.72537l12.37963,-0.98475c0,0 6.86563,1.52943 7.36212,3.7983c0.59876,2.73617 -2.01637,15.24006 -2.01637,15.24006l-4.22032,1.2661z" fill="#00ffa9"/></g><g stroke="none" stroke-width="0" stroke-linecap="round"><path d="M258.26779,154.51876c14.61614,-0.40057 19.19658,12.81807 20.41127,24.42825c0.19286,1.84335 0.51229,3.73677 0.56215,5.43808c0.05551,1.89398 -0.17245,3.57158 -0.22424,5.12991c-0.12846,3.86516 -0.47367,6.43925 -0.47367,6.43925c0,0 -7.54595,4.07225 -18.85229,4.36445c-12.82289,0.33141 -18.84108,-3.27584 -18.84108,-3.27584c0,0 -1.11501,-6.48368 -1.40135,-13.74219c-0.48652,-12.33318 1.80464,-28.31562 18.81922,-28.78192z" fill="#000000"/><path d="M258.37609,157.10333c13.14344,-0.36562 17.13959,11.86925 18.15066,22.42432c0.17482,1.82511 0.53221,3.53959 0.56039,5.19041c0.02394,1.40221 -0.26533,2.77531 -0.3047,3.95328c-0.11532,3.45137 -0.41849,5.74603 -0.41849,5.74603c0,0 -6.69456,3.66719 -16.72523,3.93034c-11.37612,0.29844 -16.71529,-2.95001 -16.71529,-2.95001c0,0 -0.98921,-5.83877 -1.24323,-12.3753c-0.43162,-11.10644 1.60103,-25.49916 16.69589,-25.91908z" fill="#00ffa9"/></g><g stroke="#ff0000" stroke-width="0" stroke-linecap="round"><path d="M273.15303,176.82194c0,0 -1.46527,2.97232 -4.08503,3.60475c-2.82952,0.68305 -20.4812,1.81456 -22.21715,1.86497c-0.03203,0.00094 -5.72102,-0.54517 -7.99005,-2.44927c-2.66461,-2.23605 -1.96981,-5.88377 -1.96981,-5.88377l36.26205,2.86333z" fill="#000000"/><path d="M269.7818,177.84501c0,0 -0.78927,1.11329 -3.00819,1.46848c-0.36669,0.0587 -1.79189,0.1233 -2.65313,0.19071c-4.7676,0.37318 -15.26686,1.07604 -16.51223,1.10002c-0.02712,0.00053 -3.87253,-0.20192 -5.7944,-1.27133c-2.2569,-1.25584 -2.64154,-3.4088 -2.64154,-3.4088l30.60952,1.92094z" fill="#ffffff"/></g><path d="M274.38056,180.8756l-1.66302,-1.91633l-3.08847,13.23166l-4.11799,-3.2851l-2.85089,5.56642l-4.51394,-3.01134l-3.56362,4.28888l-3.56364,-2.92009l-2.8509,3.2851l-4.4802,-3.44167" fill="none" stroke="#000000" stroke-width="1.5" stroke-linecap="round"/><g stroke="#000000" stroke-width="1.5" stroke-linecap="butt"><path d="M280.24607,172.25589c-0.08915,1.49331 -1.46422,2.38305 -2.16136,2.87583c-0.78587,0.55552 -3.69371,-2.9427 -7.22804,-5.52731c-3.9277,-2.87226 -7.03561,-3.69197 -7.97981,-4.44831c-0.94828,-0.75959 0.53356,-1.75886 1.3597,-2.34283c0.33342,-0.23568 0.81238,-0.57424 1.30058,-0.91933c0.95765,-0.67693 2.30207,-1.09769 2.71447,-0.76735c0.70168,0.56206 4.28471,1.18312 7.63668,4.17345c3.56507,3.18043 4.44693,5.46253 4.35778,6.95584z" fill="#4f5357"/><path d="M253.53848,163.21701c-0.11669,-2.50378 2.84855,-4.75333 6.62307,-5.02452c3.7745,-0.2712 6.92896,1.53865 7.04564,4.04243c0.11668,2.50376 -2.84855,4.75332 -6.62307,5.02452c-3.77452,0.2712 -6.92896,-1.53866 -7.04566,-4.04243z" fill="#75756c"/><g><path d="M253.70804,160.98876c-0.11304,-1.76213 2.75945,-3.34536 6.41587,-3.53622c3.65643,-0.19087 6.71218,1.08288 6.82522,2.84502c0.11304,1.76214 -2.75944,3.34536 -6.41586,3.53622c-3.65643,0.19087 -6.7122,-1.08288 -6.82523,-2.84502z" fill="#533023"/><path d="M259.66455,163.05828l-2.99367,-4.11214c0,0 2.27432,-0.67989 2.85526,-0.82228c0.55237,-0.13539 1.63737,-0.06892 1.63737,-0.06892l2.10775,4.48673z" fill="#b08a80"/></g><path d="M240.62707,172.39034c-0.44843,-0.51165 -1.33932,-1.44204 -1.28506,-2.87734c0.05426,-1.4353 0.04183,-4.16582 2.77986,-7.00901c2.57437,-2.67326 6.14541,1.88145 3.17816,4.40885c-2.67008,2.27428 -4.16746,6.05427 -4.67297,5.47749z" fill="#4f5357"/><path d="M245.87895,159.4771c3.47992,-1.25633 7.15907,-0.35686 8.21761,2.00902c1.05854,2.36588 -0.90438,5.30227 -4.3843,6.5586c-3.47992,1.25634 -7.15907,0.35685 -8.21761,-2.00903c-1.05854,-2.36588 0.90438,-5.30227 4.3843,-6.5586z" fill="#75756c"/><g><path d="M245.00586,158.85894c3.4278,-1.1924 6.76532,-0.78698 7.45458,0.90555c0.68926,1.69253 -1.53074,4.03122 -4.95853,5.22363c-3.4278,1.1924 -6.76532,0.78698 -7.45458,-0.90555c-0.68926,-1.69252 1.53074,-4.03123 4.95853,-5.22363z" fill="#533023"/><path d="M246.4167,164.4685l-4.21467,-3.19885c0,0 1.94697,-1.29058 2.45462,-1.58965c0.48269,-0.28436 1.54045,-0.51778 1.54045,-0.51778l3.49246,3.80893z" fill="#b08a80"/></g></g></g></g></svg>