<svg version="1.1" xmlns="http://www.w3.org/2000/svg" xmlns:xlink="http://www.w3.org/1999/xlink" width="185.41886" height="126.91283" viewBox="0,0,185.41886,126.91283"><g transform="translate(-166.10092,-127.43203)"><g data-paper-data="{&quot;isPaintingLayer&quot;:true}" fill-rule="nonzero" stroke-linejoin="miter" stroke-miterlimit="10" stroke-dasharray="" stroke-dashoffset="0" style="mix-blend-mode: normal"><g stroke-width="3" stroke-linecap="butt"><g><path d="M204.50216,159.07476l-1.54104,-14.30139c0,0 9.5565,-9.50665 11.89299,-10.75407c6.56543,-3.5052 16.75764,-4.92748 22.48624,-5.08727c5.73918,-0.1601 18.88123,1.08351 27.08684,4.67793c3.00071,1.31443 9.8623,9.75344 9.8623,9.75344l-0.22015,22.35851z" fill="#14ffa5" stroke="none"></path><path d="M208.99395,162.17378l-2.2015,-12.89139c0,0 3.18326,-6.441 10.57632,-9.68533c5.962,-2.61633 15.73947,-2.16773 20.47385,-2.19761c5.32586,-0.0336 16.14132,0.80927 22.9958,3.68125c6.88507,2.88479 9.79734,7.79881 9.79734,7.79881l-46.0112,13.29425z" fill="#00e28c" stroke="none"></path><path d="M204.50216,159.07476l-1.54104,-14.30139c0,0 9.5565,-9.50665 11.89299,-10.75407c6.56543,-3.5052 16.75764,-4.92748 22.48624,-5.08727c5.73918,-0.1601 18.88123,1.08351 27.08684,4.67793c3.00071,1.31443 9.8623,9.75344 9.8623,9.75344l-0.22015,22.35851z" fill="none" stroke="#000000"></path></g><path d="M197.01708,203.79178c0,0 -0.88596,-36.42178 3.13389,-45.33698c0.8608,-1.90908 2.71706,-3.71961 3.82204,-5.39232c8.42885,-12.75971 33.7107,-10.70622 36.19334,-10.70622c0.35608,0 18.50293,0.80473 30.97364,6.14721c6.30299,2.70021 11.15599,10.3089 11.52918,11.93636c0.21324,0.92987 2.13146,6.39824 2.51736,13.57532c0.63072,11.72995 -0.25621,27.01426 -0.25621,27.01426l15.33677,14.4452c0,0 -3.0976,14.88427 -3.67664,15.83409c-2.81455,4.61676 -9.51504,6.60003 -12.15121,8.1432c-6.91388,4.04729 -24.09414,-0.60744 -24.09414,-0.60744l-5.01796,-12.11552l-24.62396,0.38094l-4.39416,11.97641c0,0 -18.989,4.28154 -24.65813,1.74004c-1.07136,-0.48031 -8.98599,-2.35545 -12.07353,-5.51077c-2.59933,-2.65639 -9.99966,-17.17925 -9.99966,-17.17925z" fill="#14ffa5" stroke="none"></path><path d="M264.93094,178.26033c17.13093,6.62163 18.25332,22.85623 18.25332,22.85623c0,0 19.10226,10.22271 16.10402,17.13342c-0.54361,1.25298 -0.88008,13.13542 -4.04244,15.44448c-4.25454,3.10654 -16.86836,7.6355 -16.86836,7.6355l-11.56691,-2.50583l-3.45622,-10.10967l-6.79907,0.21505l-2.66977,-2.00903c0,0 -18.46821,0.56633 -21.59125,0.81679c-2.50302,0.20073 -2.67133,1.46851 -2.67133,1.46851l-5.82935,0.03481l-2.63467,9.64274c0,0 -11.45919,3.4086 -13.72986,2.96854c-3.66036,-0.70939 -11.67047,-0.08242 -17.13034,-5.30809c-6.46117,-6.18402 -10.5846,-17.50011 -10.5846,-17.50011c0,0 12.22746,-10.17752 17.60729,-15.86248l2.84639,-1.59388c0,0 2.51993,-15.38348 14.92272,-21.35554c15.17207,-7.3055 41.41731,-5.22724 49.84047,-1.97141z" fill="#00e28c" stroke="none"></path><path d="M197.01708,203.79178c0,0 -0.88596,-36.42178 3.13389,-45.33698c0.8608,-1.90908 2.71706,-3.71961 3.82204,-5.39232c8.42885,-12.75971 33.7107,-10.70622 36.19334,-10.70622c0.35608,0 18.50293,0.80473 30.97364,6.14721c6.30299,2.70021 11.15599,10.3089 11.52918,11.93636c0.21324,0.92987 2.13146,6.39824 2.51736,13.57532c0.63072,11.72995 -0.25621,27.01426 -0.25621,27.01426l15.33677,14.4452c0,0 -3.0976,14.88427 -3.67664,15.83409c-2.81455,4.61676 -9.51504,6.60003 -12.15121,8.1432c-6.91388,4.04729 -24.09414,-0.60744 -24.09414,-0.60744l-5.01796,-12.11552l-24.62396,0.38094l-4.39416,11.97641c0,0 -18.989,4.28154 -24.65813,1.74004c-1.07136,-0.48031 -8.98599,-2.35545 -12.07353,-5.51077c-2.59933,-2.65639 -9.99966,-17.17925 -9.99966,-17.17925z" fill="none" stroke="#000000"></path></g><g stroke="#000000" stroke-width="3.5" stroke-linecap="butt"><path d="M203.45714,187.07791c-0.16456,-2.52219 1.46333,-6.37662 8.04432,-11.74834c6.18763,-5.05064 12.80179,-6.0996 14.09706,-7.04891c0.76126,-0.55794 3.24303,0.15271 5.01082,1.29604c0.90121,0.58287 1.78536,1.15469 2.40083,1.55275c1.52504,0.98632 4.26046,2.67407 2.50997,3.95701c-1.74296,1.27744 -7.48003,2.66193 -14.73048,7.51316c-6.52427,4.36537 -11.89203,10.27382 -13.34273,9.33557c-1.2869,-0.83231 -3.82522,-2.33507 -3.98981,-4.85727z" fill="#4f5357"></path><path d="M252.75856,171.81133c-0.21541,4.22883 -6.03842,7.28567 -13.00605,6.82762c-6.96764,-0.45807 -12.44137,-4.25752 -12.22599,-8.48636c0.2154,-4.22885 6.03842,-7.28567 13.00605,-6.82762c6.96764,0.45804 12.4414,4.25752 12.22599,8.48636z" fill="#75756c"></path><g><path d="M252.44552,168.04783c-0.20867,2.97623 -5.8495,5.12759 -12.59916,4.80521c-6.74964,-0.32236 -12.05215,-2.99641 -11.84347,-5.97264c0.20867,-2.97623 5.84949,-5.12759 12.59913,-4.80521c6.74964,0.32239 12.05216,2.99643 11.84348,5.97264z" fill="#533023"></path><path d="M234.79213,170.67067l3.89084,-7.57804c0,0 2.00286,-0.11227 3.02253,0.11641c1.07241,0.2405 5.27073,1.38881 5.27073,1.38881l-5.52624,6.94538z" fill="#b08a80"></path></g><path d="M276.59259,187.30495c-0.93314,0.97416 -3.69726,-5.41019 -8.62615,-9.25143c-5.47746,-4.26875 1.11459,-11.96159 5.86678,-7.44649c5.05431,4.80212 5.03136,9.41392 5.13154,11.83814c0.10018,2.4242 -1.5444,3.99563 -2.37218,4.85978z" data-paper-data="{&quot;index&quot;:null}" fill="#4f5357"></path><path d="M266.89778,165.49466c6.42382,2.12192 10.0473,7.08145 8.09328,11.07739c-1.95402,3.99595 -8.74562,5.51516 -15.16943,3.39321c-6.42382,-2.12192 -10.0473,-7.08145 -8.09328,-11.07739c1.95402,-3.99595 8.74562,-5.51514 15.16943,-3.39321z" fill="#75756c"></path><g><path d="M277.66274,173.27325c-1.27236,2.85866 -7.43333,3.54341 -13.76092,1.52946c-6.32759,-2.01397 -10.42564,-5.96401 -9.15329,-8.82267c1.27236,-2.85865 7.43333,-3.54342 13.76092,-1.52946c6.32759,2.01396 10.42564,5.96401 9.15329,8.82267z" fill="#533023"></path><path d="M259.86352,171.39605l6.44698,-6.43322c0,0 1.95259,0.39425 2.84361,0.87453c0.93712,0.50512 4.53116,2.6849 4.53116,2.6849l-7.78015,5.40281z" fill="#b08a80"></path></g></g><g stroke-width="2" stroke-linecap="butt"><path d="M269.32588,197.58315c0.06842,3.16443 -5.76228,4.46741 -28.83475,3.0386c-23.61741,-1.46256 -32.64931,-12.34207 -32.64931,-12.34207c0,0 4.82935,1.42861 25.55082,2.66509c0.6053,0.03613 8.52016,1.80615 9.10271,1.84474c23.39466,1.54992 25.26683,-3.84463 25.33359,-0.75709c0,0 2.82784,-0.39414 3.07574,0.52504c0.25106,0.93091 -1.57879,5.0257 -1.57879,5.0257z" fill="#8bcde0" stroke="none"></path><path d="M269.78806,195.14257c0,0 1.53381,4.50722 -11.77132,5.79809c-10.24448,0.99394 -30.35263,-0.54744 -35.86361,-3.28256c-16.54192,-8.2098 -10.05795,-9.51717 -10.05795,-9.51717c0,0 3.37453,3.21213 11.59643,5.38378c1.13263,0.29916 2.35724,0.57858 3.6777,0.82713c0.41831,0.07874 0.83612,0.15476 1.25329,0.22815c21.42172,3.76784 41.16549,0.56259 41.16549,0.56259z" fill="#194eac" stroke="none"></path><path d="M242.04243,201.56023c-23.61741,-1.46256 -34.56558,-13.86956 -34.56558,-13.86956c0,0 32.17401,4.8807 42.85403,5.54969c9.58999,0.6007 22.41366,-2.64242 22.41366,-2.64242c0,0 -1.25448,5.40733 -3.30996,6.14125c-2.05548,0.73391 -4.31967,6.24986 -27.39214,4.82105z" fill="none" stroke="#000000"></path><path d="M236.15244,194.26626c-0.02129,-0.98449 3.19082,-1.04568 17.59331,0.94067c6.16464,0.85021 11.8393,-1.25071 11.86059,-0.26624c0.02129,0.98449 -4.06588,1.68884 -10.25669,1.66232c-11.7378,-0.05027 -19.1759,-1.35226 -19.1972,-2.33676z" data-paper-data="{&quot;index&quot;:null}" fill="#ffffff" stroke="none"></path></g><g><g stroke-width="2.5" stroke-linecap="round"><path d="M171.91052,203.7258l6.6127,-3.96762l7.27396,7.27396l-9.91904,6.6127l-7.93524,-4.62888z" fill="#000000" stroke="#000000"></path><path d="M179.39696,201.66781l-4.62888,4.29826l-5.62079,2.64508l0.49595,-1.98381l2.81039,-2.64508l5.62079,-3.47167z" fill="#313131" stroke="#313131"></path><path d="M171.91052,203.7258l6.6127,-3.96762l7.27396,7.27396l-9.91904,6.6127l-7.93524,-4.62888z" fill="none" stroke="#000000"></path></g><g><g><path d="M208.66253,203.79014c0,0.91302 -0.74015,1.65318 -1.65318,1.65318c-0.34195,0 -0.65965,-0.10382 -0.9233,-0.28166c-0.98527,0.24759 -2.1492,0.2824 -3.37495,0.28166c-0.82124,-0.0005 -2.73342,0.05763 -3.67697,-0.19877c-0.23391,0.12678 -0.50185,0.19877 -0.7866,0.19877c-0.91302,0 -1.65318,-0.74015 -1.65318,-1.65318c0,-0.19347 0.03323,-0.37919 0.09431,-0.55174c-1.37104,-2.16395 -1.64196,-5.33185 -2.05145,-7.58371c0,0 -0.29573,-1.62651 1.33078,-1.92224c0.30878,-0.05614 0.5696,-0.043 0.78954,0.01513c0.63055,-0.17069 1.23741,0.13273 1.23741,0.13273l0.39416,0.19883c2.09237,1.16452 3.66358,2.08562 6.02435,2.64658c1.13343,0.26932 3.55132,0.5222 4.25285,1.44871c0.55169,0.72858 0.32018,1.80848 0.32479,2.72235c0.00495,0.98067 -0.14432,1.75076 -0.41815,2.35523c0.05805,0.1687 0.08956,0.34973 0.08956,0.53813z" fill="#1f2d47" stroke="none" stroke-width="0.5" stroke-linecap="butt"></path><path d="M209.3238,200.97974c0,0.91302 -0.74015,1.65318 -1.65318,1.65318c-0.45761,0 -0.87179,-0.18593 -1.17113,-0.48637c-1.89063,0.10583 -4.78672,-2.48873 -5.61864,-3.30419c0,0 -1.16897,-1.16897 0,-2.33794c1.16897,-1.16897 2.33794,0 2.33794,0c0.06634,0.06811 0.14883,0.13983 0.24342,0.21457c0.12286,-0.02421 0.25783,-0.03751 0.40611,-0.03751c0.39354,0 0.69341,0.09368 0.92188,0.23645c1.45181,0.12061 3.56132,0.34026 4.36878,1.19173c-0.00034,0.01985 -0.0005,0.03974 -0.0005,0.05967c0,0.44336 0.08311,0.86731 0.23461,1.25711c-0.07082,0.19918 -0.18199,0.41476 -0.33885,0.64817c0.17044,0.26002 0.26956,0.57099 0.26956,0.90511z" fill="#14ffa5" stroke="none" stroke-width="0.5" stroke-linecap="butt"></path><path d="M194.19726,192.88265l8.5965,3.63698l5.29016,0.66127l0.66127,3.96762l-0.33064,4.62888h-11.24158z" fill="none" stroke="#000000" stroke-width="2.5" stroke-linecap="round"></path></g><path d="M201.47123,199.49535l1.65318,4.29826l1.98381,1.98381l1.41566,3.27273c0.4365,2.42581 0.89992,4.62638 1.56006,6.31568c-4.62888,6.70233 -9.49878,12.89476 -19.50745,17.19301c-8.89269,3.81899 -20.56519,-5.91859 -17.85428,-15.2092c3.30635,-11.33122 12.47448,-22.48317 13.88666,-27.77332c5.94812,-2.66641 10.1265,-2.76543 13.12687,-1.29382z" fill="#00ff9d" stroke="#000000" stroke-width="2.5" stroke-linecap="butt"></path><path d="M192.21345,224.62359l1.32254,-8.5965l4.62888,3.63698z" fill="#000000" stroke="#000000" stroke-width="2.5" stroke-linecap="round"></path><path d="M201.43357,203.93826c0.3121,0.37418 0.86794,0.49041 1.22141,0.82855c0.36747,0.35152 0.7004,0.79872 1.00382,1.28477l1.19385,0.86456c0.42491,0.30083 0.7008,0.78634 0.7008,1.33408c0,0.91302 -0.76654,1.65318 -1.71213,1.65318c-0.33228,0 -0.64244,-0.09139 -0.90501,-0.24957l-1.37668,-0.79756c-1.78026,0.06577 -3.88218,-0.2953 -5.58012,0.24188c-0.91322,0.28892 -1.80906,1.42 -2.67961,1.02701c-1.12312,-0.507 -2.02935,-4.76314 -1.49837,-5.76766c0.30585,-0.5786 1.37939,-0.20393 1.92606,-0.58258c0.18605,-0.12887 -0.13431,-0.42659 -0.15072,-0.64711c-0.03686,-0.49549 -0.00834,-0.99351 -0.00834,-1.49027c0,-2.53212 1.57782,-4.93214 -0.5258,-6.76627c0,0 -0.25781,-0.24893 -0.41651,-0.63192c-0.75138,0.34816 -1.49258,0.89182 -2.25937,0.7241c-0.75083,-0.16424 -0.98334,-1.16565 -1.60647,-1.60216c-0.3732,-0.26143 -0.87102,-0.29232 -1.30654,-0.43849c0,0 -1.58967,-0.61397 -0.9538,-2.1489c0.63586,-1.53493 2.22554,-0.92096 2.22554,-0.92096c0.2489,0.10391 0.51009,0.18776 0.77058,0.27278l1.179,-0.8403c0.7424,-0.28114 1.44099,-0.71442 2.22717,-0.84344c4.67023,-0.76639 5.91643,3.26146 6.2203,7.01668l0.1447,-0.05588l0.67043,1.61837c0.08811,0.19919 0.13687,0.41849 0.13687,0.64878c0,0.39956 -0.1468,0.76601 -0.39116,1.05181l0.26872,0.64866c0.48083,1.17283 0.66554,3.5897 1.48141,4.56789z" fill="#00e28c" stroke="none" stroke-width="0.5" stroke-linecap="butt"></path><path d="M197.94885,189.40404c0,1.65318 -1.85982,1.65318 -1.85982,1.65318h-0.74393c-2.52731,0 -4.92978,0.32075 -7.43929,0.33064c0,0 -1.85982,0 -1.85982,-1.65318c0,-1.65318 1.85982,-1.65318 1.85982,-1.65318c2.49162,0.01195 4.91973,-0.33064 7.43929,-0.33064h0.74393c0,0 1.85982,0 1.85982,1.65318z" fill="#00e28c" stroke="none" stroke-width="0.5" stroke-linecap="butt"></path><path d="M193.86662,193.87456l-4.62888,2.97572" fill="none" stroke="#000000" stroke-width="2.5" stroke-linecap="round"></path><path d="M196.75192,194.31059c1.37553,-0.91701 2.29253,0.45851 2.29253,0.45851l0.90682,1.58471c0.38975,1.99552 0.97726,5.93312 2.52361,7.42111c0.94949,0.91366 2.55879,1.15386 3.21937,2.29402c0.43926,0.75818 0.36579,1.71386 0.5487,2.57079c0,0 0.27178,1.63068 -1.35891,1.90246c-1.63068,0.27178 -1.90246,-1.35891 -1.90246,-1.35891c-0.03752,-0.46561 0.09759,-0.97967 -0.11258,-1.39682c-0.48052,-0.95377 -1.98611,-0.90932 -2.73206,-1.6736c-2.06631,-2.11708 -2.85709,-6.31189 -3.42782,-9.11062l-0.41573,-0.3991c0,0 -0.91701,-1.37552 0.45851,-2.29254z" fill="#14ffa5" stroke="none" stroke-width="0.5" stroke-linecap="butt"></path><path d="M202.13249,203.46296l-7.6046,0.33064l-6.6127,-1.98381" fill="none" stroke="#000000" stroke-width="2.5" stroke-linecap="round"></path><path d="M200.47931,200.48726l-8.26587,-4.62888" fill="none" stroke="#000000" stroke-width="2.5" stroke-linecap="round"></path><path d="M201.47123,199.49535l1.65318,4.29826l1.98381,1.98381l1.41566,3.27273c0.4365,2.42581 0.89992,4.62638 1.56006,6.31568c-4.62888,6.70233 -9.49878,12.89476 -19.50745,17.19301c-8.89269,3.81899 -20.56519,-5.91859 -17.85428,-15.2092c3.30635,-11.33122 12.47448,-22.48317 13.88666,-27.77332c5.94812,-2.66641 10.1265,-2.76543 13.12687,-1.29382z" fill="none" stroke="#000000" stroke-width="2.5" stroke-linecap="butt"></path><g><path d="M200.14869,213.38201l9.25778,3.30635l-8.5965,11.57222l-14.87857,8.5965l-4.62888,-1.65318l-0.66127,-7.93524l12.56412,-6.28206z" fill="#343133" stroke="#000000" stroke-width="2.5" stroke-linecap="round"></path><path d="M200.14869,213.38201l9.25778,3.30635l-8.5965,11.57222l-14.87857,8.5965l-4.62888,-1.65318l-0.66127,-7.93524l12.56412,-6.28206z" fill="none" stroke="#000000" stroke-width="2.5" stroke-linecap="round"></path><path d="M181.96377,226.93804l3.63698,0.66127v8.92714l-3.96762,-1.32254z" fill="#000000" stroke="#000000" stroke-width="0.5" stroke-linecap="round"></path><g><path d="M201.47222,220.30217c1.85181,0.46025 3.71922,1.21227 5.55882,2.32112c0.29315,0.17669 0.58378,0.35212 0.87193,0.52625l0.78125,3.6618l3.30635,-0.8817l0.66127,3.96762l4.18804,-1.76338l0.44085,3.96762l1.78999,-2.16117c12.05936,7.27798 19.24633,10.98146 29.28969,11.30874c9.52508,0.31039 -7.19711,12.25677 -21.81676,11.83488c-3.0879,-0.08911 -5.06414,1.62437 -7.38931,-0.92393c-2.84775,-3.12103 -5.69618,-7 -9.01847,-8.91252c-8.81745,-5.0759 -17.72331,-10.02734 -21.04965,-12.9949c-0.18224,-0.16259 -0.35805,-0.29833 -0.52808,-0.40993l1.61055,-1.70878z" fill="#ffffff" stroke="#000000" stroke-width="2.5" stroke-linecap="butt"></path><path d="M215.64489,228.68716c0.54781,0 0.9919,0.44409 0.9919,0.9919c0,0.12376 -0.02267,0.24223 -0.06408,0.35148c0.04692,0.05398 0.08637,0.11512 0.11674,0.18498c0.25223,0.58023 -0.38674,1.20481 -0.58011,1.80721c0,0 -0.08362,0.14634 -0.24224,0.2839l-0.54776,1.31461l-0.06285,-0.02618l-0.02181,0.19997c-0.68423,0.74562 -1.08648,1.9359 -2.05269,2.23685c-0.82947,0.25836 -3.58295,-1.12786 -4.43531,-1.60789c-4.164,-2.34501 -8.3309,-5.11946 -11.5236,-8.66467c0,0 -0.47488,-0.52764 -0.45652,-1.20259c-0.10011,-0.30966 -0.10011,-0.5646 -0.10011,-0.5646l0.68082,-1.46923c0.89368,-0.64843 2.81017,-2.15882 3.84394,-2.2912c1.51114,-0.19352 5.47534,1.49418 6.3157,2.72449c0.45624,0.66796 0.37682,1.57447 0.51415,2.37163c0.09195,0.53373 -0.20403,1.53913 0.33518,1.58984c1.31391,0.12354 2.74037,-1.52975 3.86803,-0.84421c1.12558,0.68427 0.61003,2.56532 1.00762,3.82114c0.0193,0.06095 0.00928,0.1424 -0.00511,0.22444l0.55785,-0.23244c0.0335,-0.01487 0.06759,-0.02865 0.10222,-0.04132l0.78134,-0.34028c0.08229,-0.4648 0.48825,-0.81782 0.97667,-0.81782z" fill="#b9d5d6" stroke="none" stroke-width="0.5" stroke-linecap="butt"></path><path d="M208.94006,229.85143c-0.70138,0.70138 -1.40277,0 -1.40277,0l-0.34258,-0.44291c-0.3102,-1.02347 -1.61954,-1.29696 -2.63644,-1.3887c0,0 -0.98584,-0.10953 -0.8763,-1.09538c0.10953,-0.98584 1.09538,-0.8763 1.09538,-0.8763c1.91449,0.24134 3.37487,0.81536 4.24077,2.57892l-0.07806,-0.1784c0,0 0.70138,0.70138 0,1.40277z" fill="#5c110f" stroke="none" stroke-width="0.5" stroke-linecap="butt"></path><path d="M215.81366,229.703c0.24057,0.9623 -0.72171,1.20286 -0.72171,1.20286l-1.05803,0.26451c0,0 -0.96229,0.24057 -1.20286,-0.72171c-0.24057,-0.9623 0.72171,-1.20286 0.72171,-1.20286l1.05803,-0.26451c0,0 0.96229,-0.24057 1.20286,0.72171z" fill="#5c110f" stroke="none" stroke-width="0.5" stroke-linecap="butt"></path><path d="M222.02628,247.52912c-0.20527,-0.02582 -0.41071,-0.04975 -0.61707,-0.06342c-0.29336,-0.01943 -0.58879,-0.02776 -0.88198,-0.00591c-2.29199,0.17071 3.03317,2.35503 2.67428,0.43196l-0.65548,-0.05738c0,0 -0.297,-0.07424 -0.51975,-0.30525zM217.02817,240.91926c-0.11389,-0.17583 -0.17573,-0.41658 -0.10324,-0.74281c0.21518,-0.96829 1.18346,-0.75311 1.18346,-0.75311c3.04672,0.68037 6.30253,1.7672 9.22402,2.80462c1.34321,0.47698 2.05168,2.16569 3.37953,2.49516c1.97536,0.49014 4.23086,-0.25247 6.27573,0.24814c0.6843,0.09036 1.32562,0.3905 2.00111,0.5324c2.68198,0.5634 5.2983,-0.54134 7.68364,-1.5554l0.0824,0.00291l-0.0063,-0.0252l1.03645,-0.25912c0.08351,-0.02283 0.17141,-0.03501 0.26215,-0.03501c0.54781,0 0.9919,0.44409 0.9919,0.9919c0,0.18535 -0.05084,0.35883 -0.13933,0.50724l-0.52037,0.91065l-0.05019,-0.02869c-0.04384,0.09521 -0.09361,0.18772 -0.15083,0.27685c-0.22809,0.35535 -0.76893,0.35008 -1.14382,0.54438c-1.30964,0.67879 -2.66311,1.14987 -4.01329,1.74061c-4.72358,2.06671 -10.52364,4.17457 -15.73794,4.18255c-2.1588,0 -5.16927,0.54743 -7.11136,-0.53122c-2.96344,-1.64592 -4.23947,-5.22437 -6.75518,-7.37456c-1.48859,-1.27231 -3.11591,-1.67923 -4.4367,-3.28039l-0.00722,-0.15275l-0.05876,0.02518l-0.38813,-0.90563c-0.05706,-0.12519 -0.08884,-0.26433 -0.08884,-0.41089c0,-0.54781 0.44409,-0.9919 0.9919,-0.9919c0.2739,0 0.52188,0.11102 0.70138,0.29052l0.79353,0.79353l-0.00829,0.00829c0.01315,0.008 0.02627,0.01607 0.03935,0.02421c0.4446,0.27673 0.66756,0.89701 1.16827,1.05042c0.44875,0.13749 1.98777,0.05606 2.22311,0.175c0.50922,0.25736 1.68303,3.15609 2.35844,1.06645c0.08441,-0.26116 0.04797,-0.54683 0.07196,-0.82025z" fill="#a7120a" stroke="none" stroke-width="0.5" stroke-linecap="butt"></path><path d="M237.00776,244.67061l-0.58978,-0.12065c-3.89002,-0.49258 -7.08506,-2.50394 -10.7495,-3.60722c-1.75489,-0.52835 -3.83789,-0.53395 -5.64998,-0.75716c0,0 -0.36356,-0.04544 -0.62114,-0.30205c-0.12204,0.0138 -0.23153,0.02595 -0.32308,0.03754l-0.51979,0.00766c0,0 -0.9919,0 -0.9919,-0.9919c0,-0.9919 0.9919,-0.9919 0.9919,-0.9919l0.27373,0.00766c0.19997,-0.02463 0.47845,-0.11233 0.74881,-0.13058c-0.74363,-0.71865 -1.68363,-1.67483 -1.74587,-2.10172c-0.05563,-0.38166 0.29875,-0.68321 0.56047,-1.00287l-0.02787,-0.00349l0.13062,-1.04498c0.05471,-0.49606 0.47524,-0.88193 0.98587,-0.88193c0.54781,0 0.9919,0.44409 0.9919,0.9919v1.02124c0.36377,0.33761 0.78596,1.26978 1.08755,2.1813c0.07192,0.06382 0.14201,0.12911 0.20898,0.19594c0,0 0.0847,0.0847 0.1658,0.22467c0.08891,0.04799 0.16967,0.10916 0.23965,0.18089l0.34193,0.3099c1.44027,0.66048 3.32112,0.17275 4.85623,-0.06456c0.26451,-0.04089 0.69918,0.07644 0.9226,-0.00841l-0.19543,-0.456c-0.05706,-0.12519 -0.08884,-0.26433 -0.08884,-0.41089c0,-0.54781 0.44409,-0.9919 0.9919,-0.9919c0.18535,0 0.35883,0.05084 0.50724,0.13933l0.8586,0.49063c3.91759,1.46177 7.87965,2.96173 11.72126,4.60814c0.11438,0.04902 1.3118,0.57112 1.67897,0.70118c0.66311,-0.13822 1.33494,-0.24799 2.03017,-0.25237h1.05803v0c0.54781,0 0.9919,0.44409 0.9919,0.9919c0,0.47205 -0.32975,0.86709 -0.77146,0.96732l-1.0379,0.25948l-0.00756,-0.03026c-0.03686,0.0182 -0.07412,0.03571 -0.11182,0.05244c-0.73148,0.32501 -1.58606,0.28692 -2.47668,0.0626c-1.30436,0.29817 -2.58644,0.66874 -3.98164,0.46642c-0.58301,-0.08455 -0.98725,-0.22239 -1.32998,-0.36205c-0.26495,0.78652 -1.12392,0.61473 -1.12392,0.61473zM239.85626,242.4613c-0.42247,-0.20625 -0.82383,-0.39895 -1.19255,-0.55468c0.33085,0.23836 0.64841,0.50546 1.04035,0.54238c0.05085,0.00478 0.10158,0.00888 0.1522,0.0123z" fill="#e41104" stroke="none" stroke-width="0.5" stroke-linecap="butt"></path><path d="M196.45462,225.61328l0.24108,0.16273c2.60548,1.50032 4.82078,3.63601 7.25578,5.36625c1.7842,1.4849 3.81151,2.62072 5.83043,3.75535c1.14161,0.64158 3.39572,1.24851 4.14082,2.38224c1.47008,2.23685 -0.5646,4.53937 -2.82434,4.21907c-2.2466,-0.31843 -5.53152,-2.48855 -7.46859,-3.69455c-3.90355,-2.23806 -8.08049,-3.64824 -10.85957,-7.39097c-0.34121,-0.45954 -1.93301,-1.67629 -1.92293,-1.92462c0.04155,-1.02311 3.61871,-2.80344 4.43654,-3.16002c0,0 0.73822,-0.31638 1.17078,0.28452z" fill="#89b8b9" stroke="none" stroke-width="0.5" stroke-linecap="butt"></path><path d="M206.16273,232.15177l0.13966,0.15874c0.96685,0.6906 1.77652,1.2726 2.86816,1.75229c0,0 0.30408,0.13515 0.48171,0.42501c0.22389,-0.01786 0.48324,0.04968 0.74259,0.30903c0.70138,0.70138 0,1.40277 0,1.40277l-0.83364,0.42278c-2.83855,-0.00486 -4.75576,-1.31231 -6.04509,-3.85466c0,0 -0.44359,-0.88719 0.44359,-1.33078c0.79728,-0.39864 1.23632,0.27744 1.31711,0.41857c0.49232,-0.09732 0.8859,0.29625 0.8859,0.29625z" fill="#5c110f" stroke="none" stroke-width="0.5" stroke-linecap="butt"></path><path d="M201.47222,220.30216c1.85181,0.46025 3.71923,1.21227 5.55882,2.32112c0.29315,0.1767 0.58378,0.35212 0.87193,0.52624l0.78125,3.6618l3.30635,-0.88169l0.66127,3.96762l4.18804,-1.76339l0.44085,3.96762l1.78999,-2.16117c12.05936,7.27798 19.24633,10.98146 29.28969,11.30873c9.52508,0.31039 -7.19711,12.25677 -21.81676,11.83488c-3.0879,-0.0891 -5.06414,1.62437 -7.38931,-0.92394c-2.84775,-3.12103 -5.69619,-6.99999 -9.01848,-8.91252c-8.81745,-5.0759 -17.72331,-10.02734 -21.04965,-12.9949c-0.18224,-0.16259 -0.35805,-0.29833 -0.52808,-0.40993l1.61055,-1.70878z" fill="none" stroke="#000000" stroke-width="2.5" stroke-linecap="butt"></path><path d="M250.56463,243.12264l-10.13946,2.42465l-3.7472,-1.10211l-18.73597,-5.06973l-7.49438,-4.40847l-9.03735,-5.731l-5.51058,-4.62888" fill="none" stroke="#000000" stroke-width="2.5" stroke-linecap="round"></path></g></g></g></g><g stroke="#000000" stroke-linecap="round"><path d="M259.80773,206.63956l-2.4251,2.20464" fill="none" stroke-width="2"></path><path d="M255.83938,210.60791l-6.17299,6.39346l-5.29114,2.86603l-10.36181,3.30696h-4.85021l-7.27532,-3.30696l-2.86603,-5.29114l0.88186,-3.0865l1.98417,-1.76372l2.42511,2.20464l6.17299,2.86603l8.5981,-0.44093l3.30696,-0.44093l6.83438,2.42511z" fill="#ffffff" stroke-width="2"></path><path d="M219.24231,206.41909l-3.0865,3.74789" fill="none" stroke-width="2"></path><path d="M216.59674,211.9307l-1.98418,-2.4251" fill="none" stroke-width="2"></path><path d="M207.55771,202.6712l3.0865,-0.66139l0.88186,3.30696l3.0865,-0.66139l1.54325,1.32279" fill="none" stroke-width="2"></path><path d="M221.44697,217.66276l3.96836,-4.40928l3.30696,8.37763l5.73207,-5.95253l2.20464,5.29114l4.62974,-6.39346l3.30697,4.62974" fill="none" stroke-width="1"></path></g><g data-paper-data="{&quot;index&quot;:null}"><path d="M313.61519,194.57495c0.61893,-0.1817 0.89312,0.39906 0.90725,0.43003c2.76939,2.69934 5.94921,6.22194 5.40801,10.30791c0.02288,1.04921 0.07328,3.22727 -2.03127,2.53486c-0.47564,-0.15649 -0.44178,-0.8729 -0.61269,-1.32874c-0.42847,-1.14271 -0.14439,-2.36513 -0.43068,-3.51492c-0.42883,-1.72221 -1.68896,-3.09674 -2.52109,-4.62109c-0.60685,-1.11166 -0.85874,-1.83275 -1.78334,-2.73058c0,0 -0.54412,-0.52839 0.00366,-1.05325c0.46949,-0.44984 0.93629,-0.126 1.06017,-0.02425z" fill="#323440" stroke="none" stroke-width="0.5" stroke-linecap="butt"></path><path d="M319.87803,202.27367l0.45868,0.55554c-0.13914,0.38818 -0.12973,0.86169 -0.41742,1.16451c-0.98078,1.03233 -3.65884,0.98104 -3.26401,-1.14698c0.09356,-0.50434 1.24683,-0.96571 1.87622,-1.21207c0.08659,-0.05866 0.17681,-0.09044 0.26437,-0.10462c0.06092,-0.02328 0.72026,-0.25731 1.00795,0.3962c0.05708,0.12969 0.07794,0.24528 0.07421,0.34744z" fill="#51626b" stroke="none" stroke-width="0.5" stroke-linecap="butt"></path><path d="M316.21497,197.11128c0.10287,0.11322 0.17604,0.23718 0.18026,0.38608c0.03304,1.1632 -1.08265,1.97221 -2.30766,1.45335c-0.48859,-0.20695 -0.67557,-1.38057 -0.77885,-1.83004c0,0 -0.14528,-0.64181 0.59356,-0.83114c0.08532,-0.12583 0.21388,-0.23239 0.37504,-0.29842c0.26344,-0.10787 0.54712,-0.08002 0.74968,0.05102l0.64826,0.4029l0.28078,0.2049c0,0 0.24686,0.1825 0.2589,0.46136z" fill="#91aea7" stroke="none" stroke-width="0.5" stroke-linecap="butt"></path><path d="M294.63466,210.24072c-1.73858,-0.69301 -3.21779,-1.5801 -4.85223,-2.43339c-2.47101,-1.2901 -6.75767,-2.02386 -5.9395,-5.76127c0.27567,-1.25917 1.9037,-2.99656 2.79923,-3.90789c0,0 0.25164,-0.25311 0.58963,-0.24544c0.67123,-0.92917 1.20601,-1.96463 2.03073,-2.82046c2.25865,-2.3438 6.20695,-4.15048 9.46364,-4.39019c6.67077,-1.73088 13.23008,3.22885 15.76144,8.95706c0.95244,2.1635 2.86903,5.44596 2.05608,7.93359c0.1662,0.37848 -0.01688,0.81533 -0.40919,0.976l-0.13029,0.05335c-0.19809,0.26047 -0.44133,0.50611 -0.73572,0.73382c-1.81643,1.40501 -5.77595,2.16428 -8.03881,2.3821c-0.39869,0.03836 -0.79654,0.12163 -1.17231,0.17531c-0.37366,0.06123 -0.75965,0.10356 -1.16394,0.12145l-0.02283,-0.00745l-0.00011,0.00742l-1.42906,-0.023c-0.3021,0.00167 -0.58998,-0.16885 -0.71545,-0.45384c-0.01807,-0.04104 -0.03203,-0.08274 -0.04202,-0.12474c-2.66716,0.14491 -5.34715,-0.13146 -8.04933,-1.17233z" fill="#4a5b80" stroke="none" stroke-width="0.5" stroke-linecap="butt"></path><path d="M303.47898,193.99037c1.73203,0.52208 3.13137,2.87802 0.44304,3.8366c-0.34827,0.12416 -0.66645,-0.18997 -1.02263,-0.21304c-1.30787,-0.08467 -2.25837,1.08682 -3.41879,-0.07821c-1.55699,-1.56322 1.6298,-3.22969 3.01007,-3.79867c0,0 0.70444,-0.28851 0.98834,0.25334z" fill="#98c0bf" stroke="none" stroke-width="0.5" stroke-linecap="butt"></path><path d="M283.9108,202.48111c-0.05023,-0.21006 -0.07802,-0.64062 0.44723,-0.85574c0.7107,-0.29109 1.01248,0.39444 1.01248,0.39444c2.06683,4.73728 7.48242,7.03309 12.24481,8.3298c4.34087,0.57879 8.65977,0.88071 12.93128,-0.51197c1.29035,-0.42072 2.68903,-0.74891 3.92704,-1.30121c0.42867,-0.19123 0.80752,-0.67322 1.27351,-0.59903c0.5786,0.0921 0.9347,0.6833 1.40204,1.02493c-0.53532,1.9464 -1.57512,4.13107 -2.82273,5.75894c-0.77119,1.00622 -2.10784,1.39715 -3.11264,2.13073c-2.57772,1.882 -6.0498,3.73428 -9.35001,3.80392c-3.27693,0.25274 -5.64443,-0.69992 -8.67355,-1.68471c-1.0692,-0.34759 -2.50358,-0.74338 -3.45299,-1.36034c-1.66447,-1.08168 -2.78334,-4.20369 -3.54344,-5.92175c-1.19293,-2.70987 -1.58223,-5.29722 -2.28838,-8.12468l-0.13232,-0.27462c0,0 -0.21193,-0.48144 0.13772,-0.80871z" fill="#313746" stroke="none" stroke-width="0.5" stroke-linecap="butt"></path><path d="M311.65098,190.86323c0.50801,-1.17601 1.64484,-0.9126 1.93319,-0.82371c2.84473,-0.61679 5.98624,-1.27509 8.87326,-1.11298c2.50968,0.14092 4.92142,0.82599 7.44952,0.53446c5.18378,-0.59771 11.3927,-5.17093 16.48488,-1.96311c0.66355,0.418 1.1631,1.0387 1.74464,1.55803c1.68248,3.64004 3.90457,9.1732 -0.03859,12.38322c-0.85803,0.69851 -2.12264,0.74485 -3.08773,1.29834c-0.66884,0.38361 -0.91305,1.70034 -1.19374,2.17555c-0.60375,1.02216 -1.75671,2.33843 -2.77499,2.99418c-1.57236,1.01259 -3.87282,1.76049 -5.76094,1.52989c-0.42354,-0.05175 -0.764,-0.44355 -1.19077,-0.45496c-1.28899,-0.03446 -3.75034,3.04062 -4.496,3.73202c-2.64983,1.69356 -6.1258,2.86657 -8.5078,4.85635c-2.55735,2.13623 -3.11919,4.75479 -6.55822,5.99106c-2.29008,0.82322 -8.45613,0.78748 -7.87075,-3.31671c0.12899,-0.90437 1.34265,-1.29461 2.09512,-1.84832c2.24817,-1.65427 4.00641,-2.71097 5.6227,-5.09113c0.67639,-1.16748 1.57696,-2.95771 2.79588,-3.60507c0.46952,-0.24937 1.05553,0.37229 1.58223,0.27652c0.22779,-0.04142 0.22226,-0.39777 0.27809,-0.61477c0.36599,-1.42282 0.73394,-2.86156 1.04489,-4.30354c0.64112,-2.97325 -1.27308,-5.40163 -2.89105,-7.77629c-0.71153,-1.04429 -1.2758,-2.55692 -2.4386,-3.2795c-0.58405,-0.36298 -1.8408,-0.31988 -2.40777,-0.34913c0,0 -1.54126,-0.09243 -1.44543,-1.57909c0.04404,-0.68317 0.39334,-1.03287 0.75799,-1.21132z" fill="#00e28c" stroke="none" stroke-width="0.5" stroke-linecap="butt"></path><path d="M311.21641,191.0305l0.39879,-0.58269c1.29676,-2.51628 4.0547,-5.16657 7.03075,-5.80909c2.03911,-0.44023 3.09742,0.40523 4.95432,0.11958c2.30064,-0.96774 4.65067,-2.26137 7.21443,-1.19025c0.96393,0.40273 1.10583,1.33175 2.19182,1.35644c1.64475,0.03739 3.16769,-1.06107 4.75194,-1.3219c1.47656,-0.24307 2.83116,-0.14685 4.25063,0.32743c3.56667,1.19167 4.55525,4.79924 4.49191,8.10093c-0.01495,0.77934 0.30252,1.70451 -0.17658,2.33223c-2.48085,3.25039 -5.31848,0.61963 -6.77338,-1.63101c0.12235,0.81701 0.19214,2.22309 0.21275,2.36866c0.20812,1.46892 1.11744,2.88158 1.29363,4.26996c0.13037,1.02743 0.69889,2.38265 -0.0702,3.10453c-0.7305,0.68566 -2.05149,0.0116 -3.05256,-0.17339c-2.93785,-0.5429 -5.91704,-4.49156 -5.83358,-7.34668c0.01002,-0.34287 0.52086,-0.52922 0.57189,-0.86867c0.00482,-0.03197 -2.90161,-0.05905 -2.93768,-0.05402c-0.27008,0.03772 -0.54154,0.0621 -0.8139,0.07516c-0.04059,0.02091 -0.08251,0.04026 -0.12568,0.05794c-0.07664,0.0314 -0.15445,0.05638 -0.23275,0.07514l-0.28923,0.07413l0.00963,0.03857l-1.3431,0.31208c0.57074,0.50711 1.58123,1.29402 1.7577,1.4202c2.20576,1.57697 3.43588,2.81707 4.74223,5.1818c0.4456,1.38496 1.252,2.97345 0.27283,4.45772c-1.32718,2.01178 -4.67578,1.86553 -6.54393,1.02509c-3.5242,-1.58546 -4.01804,-5.22905 -6.34396,-7.83811c-2.13621,-2.39625 -5.27076,-4.33863 -8.49349,-4.94461c-0.27827,0.04797 -0.60426,0.01265 -0.96821,-0.18542c-0.43545,-0.15123 -1.14997,-0.56066 -0.99939,-1.59992c0.09825,-0.6781 0.47452,-1.00089 0.85242,-1.15181z" fill="#14ffa5" stroke="none" stroke-width="0.5" stroke-linecap="butt"></path><path d="M328.54787,183.42246c2.11327,0.00683 4.82464,1.87956 4.82464,1.87956c0,0 3.03135,-1.62847 5.14951,-1.65549c2.11817,-0.02704 2.93219,0.18997 4.58093,0.98282c1.64875,0.79283 2.52563,1.72875 3.38743,2.84893c0.86179,1.12018 1.50831,2.7011 2.15681,4.17421c0.78972,1.79391 1.34493,2.67526 1.54908,5.33169c0.20412,2.65646 0.2065,2.62069 -0.84931,3.77453c-1.05579,1.15386 -4.49732,2.06875 -4.49732,2.06875c0,0 -1.43226,2.84448 -3.25825,4.50138c-0.87174,0.79101 -2.33961,1.44113 -3.57315,1.53629c-1.23354,0.09514 -3.61775,-0.39727 -3.61775,-0.39727l-5.07045,3.43746c0,0 -3.53868,0.34467 -5.796,0.18696c-2.25729,-0.15769 -2.39785,-0.26111 -3.66512,-0.84795c-1.26729,-0.58685 -2.94714,-2.42171 -2.94714,-2.42171c0,0 -0.41638,1.67358 -0.9856,2.60703c-0.56926,0.93346 -1.21189,1.93226 -2.70139,3.43895c-1.48949,1.50669 -2.18247,2.06146 -3.87516,2.94791c-1.69268,0.88644 -3.60899,1.63372 -6.06097,2.25557c-2.452,0.62182 -2.92374,0.83002 -5.10937,0.65898c-2.18563,-0.17107 -3.53198,-0.42523 -5.11854,-1.45952c-1.58656,-1.03426 -3.81104,-2.52187 -5.66127,-5.23024c-1.85024,-2.70834 -2.59091,-4.50105 -2.93434,-7.35189c-0.34344,-2.85083 -0.08941,-3.36985 0.65455,-5.47616c0.74396,-2.1063 1.36577,-3.04068 2.90432,-4.59973c1.53854,-1.55905 2.49589,-2.77066 4.64771,-3.8636c2.15179,-1.09295 3.69511,-1.43253 6.4765,-1.82647c2.78138,-0.39397 3.89848,-0.32409 6.30334,0.22102c2.40488,0.54513 5.45995,2.44544 5.45995,2.44544c0,0 0.30708,-2.10422 1.02529,-3.22259c0.71821,-1.11838 3.71783,-4.16317 3.71783,-4.16317c0,0 2.00268,-1.45312 3.51322,-1.63359c1.51054,-0.18049 4.30514,0.6994 4.30514,0.6994c0,0 2.95162,-1.85443 5.06491,-1.84761z" fill="none" stroke="#000000" stroke-width="2" stroke-linecap="round"></path><path d="M329.79453,195.42361c0,0 0.04784,0.95978 1.1066,2.51373c1.05874,1.55396 1.80748,2.06498 2.78467,3.56572c0.97715,1.50071 1.94825,2.84596 2.02496,4.06574c0.07668,1.2198 -1.78496,3.24442 -1.78496,3.24442" fill="none" stroke="#000000" stroke-width="2" stroke-linecap="round"></path><path d="M342.50937,204.46641c0,0 -0.26896,-1.12728 -0.39931,-1.86016c-0.13135,-0.73834 -1.80148,-3.08983 -2.08773,-4.69891c-0.33844,-1.90254 0.57151,-3.35253 0.57151,-3.35253c0,0 1.57725,3.08195 3.23719,4.90711c1.65994,1.82516 2.64531,1.56088 2.64531,1.56088z" fill="#000000" stroke="#000000" stroke-width="0" stroke-linecap="butt"></path><path d="M311.93713,193.97579c0,0 1.18227,0.04665 1.85077,0.34236c0.6685,0.29571 1.62216,0.70916 2.45486,1.56215c0.83267,0.85298 1.74835,2.24783 2.67959,3.80033c0.93124,1.55252 1.17371,2.03418 1.52153,3.31073c0.3478,1.27654 0.62642,2.51582 0.15062,3.55029c-0.4758,1.03447 -2.35709,2.76205 -2.35709,2.76205" fill="none" stroke="#000000" stroke-width="2" stroke-linecap="round"></path><path d="M306.767,191.88591c0,0 2.76505,1.60618 4.13942,3.05143c1.37437,1.44527 2.19065,2.63587 3.55997,4.89239c1.3693,2.25649 1.33975,2.52115 1.73583,3.83464c0.3961,1.31352 1.11877,4.82797 1.11877,4.82797" fill="none" stroke="#000000" stroke-width="2" stroke-linecap="round"></path><path d="M297.65716,191.51752c0,0 3.18162,0.61702 5.15848,1.55522c1.97687,0.9382 2.48103,1.40419 3.74871,2.67202c1.26768,1.26786 2.3872,2.58193 3.4449,4.52256c1.0577,1.94064 1.71195,3.52206 2.31392,6.01851c0.60201,2.49646 0.24225,3.44684 -0.12903,4.96814c-0.3713,1.52129 -2.44642,5.94995 -2.44642,5.94995" fill="none" stroke="#000000" stroke-width="1.5" stroke-linecap="round"></path><path d="M305.47764,218.93704c0,0 -2.95892,-0.45474 -4.83946,-1.08468c-1.88052,-0.62993 -3.26493,-1.06486 -5.13911,-2.05651c-1.87417,-0.99164 -3.2331,-1.62622 -4.68737,-3.24277c-1.45425,-1.61654 -2.08701,-2.62399 -2.83714,-4.84905c-0.7501,-2.22507 -0.86886,-3.27602 -0.64702,-4.98968c0.22185,-1.71365 0.85373,-2.9709 1.74716,-4.81506c0.89342,-1.84418 3.07475,-4.66545 3.07475,-4.66545" fill="none" stroke="#000000" stroke-width="1.5" stroke-linecap="round"></path><path d="M289.43198,208.9108l0.43882,-1.79794l2.63784,-4.4247l3.65424,-5.16461l3.82425,-3.50814l5.72584,-2.23724" fill="none" stroke="#000000" stroke-width="1.5" stroke-linecap="round"></path><path d="M286.85131,212.44902c0,0 2.07637,-1.41551 3.60352,-2.23105c1.52712,-0.81554 1.47544,-0.67495 2.46377,-1.00908c0.98832,-0.33411 4.01197,-1.27044 6.59038,-2.0519c2.57837,-0.78146 5.20679,-1.69538 8.60628,-2.55393c3.39949,-0.85855 7.19654,-1.4371 7.19654,-1.4371" fill="none" stroke="#000000" stroke-width="1.5" stroke-linecap="round"></path><path d="M286.15211,199.68178c0,0 2.85802,-0.8933 4.84181,-0.68849c1.98379,0.20482 2.83124,0.70456 4.41466,1.64409c1.58344,0.93955 2.52837,1.73214 3.76038,3.20667c1.23202,1.47452 1.72616,2.19743 2.14945,3.86643c0.42331,1.66899 0.6848,2.90062 0.34396,4.88348c-0.34087,1.98288 -0.75731,2.61607 -1.82018,3.70435c-1.06288,1.08826 -4.59987,3.27064 -4.59987,3.27064" fill="none" stroke="#000000" stroke-width="1.5" stroke-linecap="round"></path><path d="M285.79816,210.38216c-0.36852,-1.0299 0.55169,-2.92715 1.50506,-3.51228c0.95337,-0.58513 1.60049,-0.69479 2.61041,-0.42184c1.00991,0.27294 2.13909,0.91358 3.1023,1.96583c0.96321,1.05229 1.63698,1.80718 1.63807,3.21283c0.00108,1.40566 -0.52131,2.25115 -1.63309,3.15014c-1.11178,0.89897 -3.17318,1.22445 -4.19671,0.40969" fill="none" stroke="#000000" stroke-width="1.5" stroke-linecap="round"></path><path d="M330.62254,211.19738c0,0 -3.8823,2.25795 -6.29484,3.8109c-2.41253,1.55296 -2.36912,1.34376 -3.57757,2.54406c-1.20844,1.20031 -1.25547,2.15145 -2.33665,3.33039c-1.08117,1.17893 -1.36464,1.56571 -2.57545,2.02573c-1.21081,0.46004 -2.18768,0.85857 -4.05109,0.7804c-1.8634,-0.0782 -2.48579,-0.34499 -3.35566,-1.09115c-0.86989,-0.74618 -2.15209,-3.11019 -2.15209,-3.11019" fill="none" stroke="#000000" stroke-width="2" stroke-linecap="round"></path><path d="M350.27862,189.08017c0.28073,0.40276 0.51475,0.89386 0.74593,1.57587c0.24182,0.71335 0.85989,2.20361 0.19995,2.9305c-0.05471,0.06028 -0.11422,0.11489 -0.17752,0.16497l0.03111,0.03023l-0.54887,0.52587c-0.07011,0.07034 -0.15578,0.12849 -0.25476,0.16903c-0.3925,0.16077 -0.84582,-0.01583 -1.01249,-0.39443c-0.05858,-0.13303 -0.07396,-0.27332 -0.05222,-0.4063l0.11036,-0.76156c-0.06833,-2.64845 -0.72086,-4.06518 -3.35587,-5.06857c0,0 -0.71594,-0.2789 -0.42676,-0.96946c0.28915,-0.69057 1.00508,-0.41165 1.00508,-0.41165c0.24993,0.09915 0.55496,0.23044 0.88022,0.38353c0.27654,0.01728 0.4872,0.19041 0.4872,0.19041l0.1523,0.1273c0.69115,0.36272 1.37357,0.78935 1.74597,1.19057c0.1895,0.20414 0.3441,0.45006 0.47039,0.72366z" fill="#000000" stroke="none" stroke-width="0.5" stroke-linecap="butt"></path></g></g></g></svg>