<svg version="1.1" xmlns="http://www.w3.org/2000/svg" xmlns:xlink="http://www.w3.org/1999/xlink" width="49.08226" height="47.5326" viewBox="0,0,49.08226,47.5326"><g transform="translate(-215.12402,-156.29991)"><g data-paper-data="{&quot;isPaintingLayer&quot;:true}" fill-rule="nonzero" stroke-linecap="butt" stroke-linejoin="miter" stroke-miterlimit="10" stroke-dasharray="" stroke-dashoffset="0" style="mix-blend-mode: normal"><path d="M251.12053,163.0426c2.37647,2.52428 12.71443,16.95397 11.90729,18.76507c-0.42863,0.96177 -9.0579,6.23672 -9.46825,6.95887c-0.45205,0.79552 -4.86253,-7.49813 -5.16031,-6.82781c-0.69768,1.5705 0.01835,16.11979 0.01835,16.11979c0,0 0.14523,4.33842 -7.21735,4.13464c-7.70123,-0.21317 -6.80072,-2.19244 -6.80072,-2.19244c0,0 -0.54878,-15.11672 -0.78552,-17.47257c-0.06059,-0.60296 -7.06884,9.07004 -7.46247,8.68071c-0.44837,-0.44347 -1.15786,-0.44503 -1.51556,-0.82669c-1.44189,-1.53847 -7.34227,-9.25666 -7.34227,-9.25666c0,0 13.97356,-23.85312 23.71339,-23.453c4.7794,0.19634 10.11343,5.37011 10.11343,5.37011z" fill="#87a3ad" stroke="none" stroke-width="0"></path><path d="M250.38981,164.02591c1.96865,2.78603 12.00473,15.67911 11.31147,17.2347c-0.36816,0.82609 -8.09882,6.68494 -8.45128,7.30521c-0.38827,0.68329 -5.76191,-7.89677 -6.01767,-7.32102c-0.34638,0.90257 0.5479,15.41644 0.5479,15.41644c0,0 -0.82735,4.36624 -7.15122,4.1912c-6.61474,-0.18309 -6.07214,-0.55723 -6.07214,-0.55723c0,0 -0.30212,-16.77265 -0.50546,-18.79614c-0.05204,-0.51789 -7.61291,9.50116 -7.95101,9.16676c-0.38512,-0.3809 0.06973,-0.05683 -0.2375,-0.38466c-1.23848,-1.32143 -7.54658,-8.27174 -7.54658,-8.27174c0,0 13.0096,-23.97529 22.758,-23.10834c3.92009,0.34862 7.34687,2.33879 9.31551,5.12482z" fill="none" stroke="#ffffff" stroke-width="2.5"></path><path d="M250.7542,163.17498c2.37647,2.52428 12.71444,16.95397 11.90729,18.76507c-0.42862,0.96177 -9.0579,6.23672 -9.46825,6.95887c-0.45205,0.79552 -4.86253,-7.49813 -5.16031,-6.82781c-0.69768,1.5705 0.01834,16.11979 0.01834,16.11979c0,0 0.14523,4.33843 -7.21735,4.13464c-7.70123,-0.21317 -6.80073,-2.19244 -6.80073,-2.19244c0,0 -0.54878,-15.11672 -0.78551,-17.47258c-0.06059,-0.60296 -7.06884,9.07004 -7.46247,8.68071c-0.44837,-0.44347 -1.15786,-0.44502 -1.51556,-0.82669c-1.44189,-1.53847 -7.34226,-9.25666 -7.34226,-9.25666c0,0 13.97356,-23.85312 23.71338,-23.453c4.7794,0.19634 10.11344,5.37011 10.11344,5.37011z" fill="#16ff00" stroke="#000000" stroke-width="3"></path></g></g></svg>