<svg version="1.1" xmlns="http://www.w3.org/2000/svg" xmlns:xlink="http://www.w3.org/1999/xlink" width="199.3439" height="119.89304" viewBox="0,0,199.3439,119.89304"><g transform="translate(-118.52851,-119.74377)"><g data-paper-data="{&quot;isPaintingLayer&quot;:true}" fill-rule="nonzero" stroke-linejoin="miter" stroke-miterlimit="10" stroke-dasharray="" stroke-dashoffset="0" style="mix-blend-mode: normal"><path d="M253.70633,231.27658c0,0 1.73878,-11.01251 1.2315,-19.82491c-0.3293,-5.72052 -2.76243,-10.42059 -3.29456,-10.89688c-2.57511,-2.30494 -7.125,-2.43865 -7.89286,-3.10927c-0.09659,-0.08436 7.57917,-1.21242 11.82157,-3.70928c2.31693,-1.36363 2.38473,-5.09589 2.43835,-4.75239c0.3726,2.3869 -0.27893,11.29217 -1.11451,18.95441c-1.21584,11.14944 -3.18952,23.33832 -3.18952,23.33832z" fill="#e2e2e2" stroke="#ff0000" stroke-width="0" stroke-linecap="round"></path><path d="M227.60724,230.95518c0,0 -1.07047,-17.58517 -0.97548,-19.33338c0.05767,-1.06098 2.2183,-2.131 2.2183,-2.131c0,0 -0.5857,16.19813 6.73498,20.0619c1.67866,0.88598 7.92871,2.58403 12.13677,0.7457c3.55,-1.55086 5.24268,-6.5787 5.59311,-7.03433c1.28885,-1.67572 1.52983,-7.41644 2.15803,-7.43029c1.08746,-0.02399 -1.97758,16.03575 -1.97081,16.12846c0.04932,0.67604 -4.94435,1.93291 -9.82397,2.12783c-5.08351,0.20307 -10.06719,-0.67119 -10.31471,-0.72347z" fill="#e2e2e2" stroke="#ff0000" stroke-width="0" stroke-linecap="round"></path><g stroke="#ff0000" stroke-width="0" stroke-linecap="round"><path d="M207.84274,150.75981l3.71234,4.50823c0,0 -4.06539,24.76226 -4.05703,25.28621c0.04066,2.54928 1.95502,31.83358 1.95502,31.83358l-2.16554,9.56286l-40.58983,2.18582l-6.65126,-6.43664c0,0 -1.50651,-11.48388 -1.55492,-17.54543c-0.05626,-7.04224 0.34999,-22.20875 0.34999,-22.20875l-4.51337,-9.97269l4.79024,-10.08489z" fill="#000000"></path><path d="M156.17935,167.97299l4.64043,-9.01642l44.7027,-5.4645l2.93894,3.14208l-3.76068,12.44092l0.04837,21.02909l1.85617,22.67764l-1.54681,7.37709l-36.96867,1.77596l-5.72319,-6.14756c0,0 -2.14202,-17.05789 -2.39335,-23.9139c-0.20176,-5.50402 1.00123,-14.0643 1.00123,-14.0643z" fill="#2d00e3"></path><path d="M156.17935,167.97299l4.64043,-9.01642c0,0 24.97033,-3.05239 33.17269,-4.05506c2.56923,-0.31408 -9.58038,4.93377 -20.62959,8.50397c-7.2903,2.35563 -14.8003,3.51806 -14.8003,3.51806c0,0 -1.26955,3.33388 -1.37113,3.12552c-0.4447,-0.91221 -1.01208,-2.07605 -1.01208,-2.07605z" fill="#3300ff"></path><path d="M204.40497,169.02284l0.04837,21.02909l1.85618,22.67765l-1.54681,7.37708l-36.72981,1.77596l-5.27838,-5.95113c0,0 2.38016,-17.25432 2.12884,-24.11032c-0.20177,-5.50402 1.00122,-14.06429 1.00122,-14.06429c0,0 11.6811,-2.64855 17.84902,-4.04703c1.21452,-0.27538 9.30504,-7.21291 10.31998,-7.44304c0.96046,-0.21778 10.35139,2.75607 10.35139,2.75607z" fill="#2d00e3"></path></g><path d="M218.24019,126.9999c18.10609,-0.30876 30.17966,6.67175 35.84698,20.94221c3.57259,8.99589 5.58574,19.86948 6.11255,30.62282c1.36473,27.8564 -4.84138,55.46272 -4.84138,55.46272c0,0 -2.58179,1.69045 -5.18189,2.0466c-2.286,0.31312 -6.64085,1.00625 -8.69048,1.01267c-0.17291,0.00055 -5.21981,-0.49466 -7.62893,-0.92338c-3.11778,-0.55481 -7.73743,-2.8739 -7.73743,-2.8739c0,0 -1.14386,-15.46197 -1.04887,-16.93467c0.0231,-0.35812 0.55733,0.08019 0.02735,0.10714c-0.79274,0.04034 -3.05854,0.12272 -5.69047,2.96599c-0.10225,0.11047 -1.99312,10.30274 -2.07524,10.75446c-0.46142,2.53755 -2.19477,6.28299 -2.60696,6.63195c-0.27736,0.23481 -3.58811,2.12051 -6.25241,2.50063c-2.83488,0.40446 -8.12062,0.39539 -11.87053,0.15051c-0.11459,-0.00748 -6.66445,-0.99647 -8.51952,-1.15086c-5.71335,-0.47545 -7.29543,-4.5289 -7.29543,-4.5289c0,0 0.65586,-22.15785 0.62035,-45.67519c-0.02598,-17.20815 -0.11038,-35.5028 6.81329,-48.03068c5.34939,-9.67934 15.31477,-12.82936 30.01906,-13.0801z" fill="#000000" stroke="#ff0000" stroke-width="0" stroke-linecap="round"></path><path d="M218.15147,128.7636c9.49268,-0.16188 17.71392,1.8285 23.40464,5.81628c12.00599,8.41318 15.64931,24.98485 16.57371,43.85317c1.36473,27.85639 -4.62127,54.42582 -4.62127,54.42582c0,0 -1.99476,0.92088 -4.59487,1.27703c-2.47887,0.33953 -5.92361,0.74488 -7.93813,0.68228c-2.01699,-0.06269 -4.62014,-0.24913 -7.28064,-0.72258c-3.11778,-0.55481 -5.75623,-2.03142 -5.75623,-2.03142c0,0 -1.07047,-14.8139 -0.97548,-16.2866c0.05767,-0.89378 2.82447,-1.79517 2.82447,-1.79517c0,0 -7.36251,-1.22714 -11.72506,3.91328c-1.93539,2.28049 -2.12341,6.70341 -2.70135,10.75866c-0.07399,0.51916 -0.15435,1.03225 -0.2456,1.53408c-0.46142,2.53755 -1.66279,4.76004 -2.07497,5.10899c-0.27736,0.23481 -1.9371,1.53724 -4.6014,1.91737c-2.92152,0.41682 -6.6891,0.784 -10.56377,0.61791c-2.09108,-0.08963 -4.35737,-0.58898 -6.21242,-0.74335c-5.71335,-0.47545 -8.8119,-3.53519 -8.8119,-3.53519c0,0 0.55803,-22.24424 0.52252,-45.76158c-0.03349,-22.18437 -0.66796,-43.33631 12.6207,-53.2714c4.98326,-3.72567 12.95635,-5.60058 22.15709,-5.75747z" fill="#3300ff" stroke="#ff0000" stroke-width="0" stroke-linecap="round"></path><path d="M253.36177,234.1066c0,0 -1.99476,0.73935 -4.59487,1.02529c-2.47887,0.2726 -5.9236,0.59804 -7.93812,0.54778c-2.01699,-0.05033 -4.62015,-0.20002 -7.28065,-0.58014c-3.11778,-0.44543 -5.75623,-1.63095 -5.75623,-1.63095c0,0 -1.07046,-11.89357 -0.97547,-13.07594c0.05767,-0.71758 2.2183,-1.44128 2.2183,-1.44128c0,0 -6.75632,-0.98522 -11.11888,3.14183c-1.93539,1.83093 -2.12341,5.38192 -2.70135,8.63776c-0.07399,0.41682 -0.15436,0.82875 -0.24561,1.23165c-0.46142,2.03731 -1.66278,3.82167 -2.07496,4.10183c-0.27736,0.18852 -1.93711,1.2342 -4.60141,1.53939c-2.92152,0.33466 -6.68908,0.62945 -10.56376,0.4961c-2.09108,-0.07197 -4.35736,-0.47287 -6.21243,-0.59681c-5.71335,-0.38172 -8.81191,-2.83829 -8.81191,-2.83829c0,0 0.55803,-17.85912 0.52253,-36.74036c-0.01842,-9.7873 -0.21828,-19.32429 1.81033,-27.25424c1.32262,-5.17017 -0.62316,7.70272 5.79486,22.80674c1.65215,3.88815 5.22885,7.72981 7.94337,11.67863c2.11246,3.07301 7.55353,6.20058 14.5693,7.55284c4.00328,0.7716 16.57982,0.67408 16.53548,0.67874c-0.79648,0.08371 5.37717,5.25587 4.85042,8.18042c-0.5094,2.82834 0.68635,5.48966 1.10616,6.02433c0.34892,0.44437 2.02316,1.33913 3.99359,1.76868c1.75654,0.38293 3.74846,0.35342 5.24665,-0.02601c1.19555,-0.30277 5.56688,-2.81561 8.28455,-5.3113c1.51243,-1.3889 1.67427,-3.18408 2.50105,-3.60361c0.80007,-0.40598 -0.64177,4.11686 -0.61381,4.16756c0.50597,0.91747 -1.8871,9.51941 -1.8871,9.51941z" fill="#2d00e3" stroke="#ff0000" stroke-width="0" stroke-linecap="round"></path><path d="M187.88121,236.61c-2.97118,-0.91565 -5.12943,-2.40791 -5.12943,-2.40791c0,0 0.55803,-22.24423 0.52253,-45.76157c-0.00869,-5.75784 -0.05787,-11.44611 0.1064,-16.88678c0.10731,-3.55399 2.2707,24.52614 4.70417,45.23954c0.36714,3.12509 1.65529,10.65748 7.3138,14.32519c3.42562,2.2204 10.91917,2.28384 13.73255,1.21165c1.81772,-0.69275 2.55445,-10.00968 6.5786,-14.14815c4.64676,-4.77877 12.56075,-4.25744 13.46257,-4.00453c0.07536,0.02114 -4.85956,-0.05257 -8.03002,1.77041c-3.03293,1.7439 -4.30579,5.24357 -4.31266,5.55354c-0.04686,2.11656 -0.90989,6.94055 -2.02999,10.49899c-0.78789,2.50309 -2.36357,4.2341 -2.36745,4.28827c-0.06713,0.93719 -5.38598,2.02872 -10.81146,1.94452c-6.51027,-0.10101 -13.34534,-1.50169 -13.73961,-1.62322z" fill="#2d00e3" stroke="#ff0000" stroke-width="0" stroke-linecap="round"></path><g stroke-linecap="butt"><path d="M216.09015,161.54406c1.02814,-1.9507 2.93715,-0.90011 2.93715,-0.90011c4.55233,2.50535 9.3212,5.37511 14.27867,6.95838c3.79539,1.21213 7.64538,2.06809 11.37242,3.59509l2.191,0.59417c0.26731,0.06571 0.52676,0.18482 0.76328,0.35978c0.97002,0.71751 1.18714,2.10271 0.48496,3.09391c-0.53758,0.75883 -1.45813,1.06678 -2.29545,0.84748l-3.39285,-0.80467c-2.76475,-0.00237 -5.42171,-1.31682 -8.22652,-1.32732c-6.65019,-0.02489 -13.91297,-0.09352 -20.48087,0.97067c-2.80778,0.45494 -5.68312,1.73284 -8.43224,2.50872l-2.3779,0.03954c-0.45561,0.0948 -1.00939,0.061 -1.54467,-0.35371c-0.35887,-0.21917 -0.69834,-0.57181 -0.85287,-1.13917c-0.21302,-0.54723 -0.15169,-1.03789 0.00419,-1.43431c0.17309,-0.63411 0.56724,-0.99981 0.96869,-1.21071c4.36131,-3.51926 9.20788,-7.92356 14.42103,-10.01387c-0.17687,-0.46707 -0.19734,-1.06422 0.18196,-1.78388z" fill="#3f7ce2" stroke="none" stroke-width="0.5"></path><path d="M221.78585,159.30279c0.61247,-0.17191 1.21266,-0.30537 1.80734,-0.41564c1.92067,-0.8753 3.78713,-1.55654 5.87794,-2.12241c1.97221,-0.32443 3.933,-0.50662 5.87651,-0.54507c1.7948,-0.5668 3.61228,-1.0274 5.51594,-1.03942c1.5692,-0.0099 3.11271,0.43418 4.67925,0.52795l1.99025,0.40505c0,0 1.9963,0.43128 1.70636,2.43593c1.61033,0.59619 3.19599,1.30734 4.75292,2.1345c3.09913,1.64649 6.38866,2.85063 9.10745,5.18364c3.64639,3.12898 6.98563,13.97833 3.16021,11.08111c-0.02842,-0.01885 -0.04354,-0.03002 -0.04354,-0.03002l0.0015,-0.00249c-0.07963,-0.06284 -0.15048,-0.12593 -0.21187,-0.18516c-0.50002,-0.16846 -1.00002,-0.33696 -1.50003,-0.50543c-3.8318,0.05792 -7.80978,0.04004 -11.62495,-0.35028c-2.4581,-0.25149 -4.74171,-1.15439 -7.17616,-1.52259c-2.37195,-0.35875 -5.26837,-0.28832 -7.56048,-1.05176c-6.17841,-2.05791 -17.83857,-7.14431 -23.28586,-10.74317c0,0 3.43578,-0.1594 4.61314,-2.01994c0.5494,-0.86821 1.23892,-1.06929 1.81815,-1.03684c0.11544,-0.05886 0.22982,-0.10523 0.33733,-0.14176c0.09792,-0.03902 0.15866,-0.05617 0.15866,-0.05617z" fill="#98fdff" stroke="none" stroke-width="0.5"></path><path d="M200.51331,173.09828c0.56382,-0.79587 1.54889,-1.09574 2.41737,-0.81159l1.23575,-1.27841l1.30032,-1.18493c0,0 0.12102,-0.1097 0.32627,-0.23536c0.01736,-0.21177 0.0661,-0.44147 0.15445,-0.69008c0.73999,-2.08259 2.77807,-1.32643 2.77807,-1.32643c4.05195,1.50744 8.11693,2.00586 12.31839,2.67801c0.71285,0.06849 1.40103,0.15574 2.05533,0.26032c0,0 0.12711,0.02136 0.31427,0.08531c0.39344,0.12602 0.93525,0.39517 1.25022,0.95946c0.20364,0.34927 0.31739,0.81039 0.23579,1.4168c-0.0672,0.60824 -0.28869,1.02648 -0.57032,1.31368c-0.44137,0.46752 -1.0314,0.59189 -1.44309,0.61492c-0.19681,0.01482 -0.32515,0.0035 -0.32515,0.0035l-1.17283,-0.11006c-0.40618,-0.06829 -0.81099,-0.13453 -1.21455,-0.19958c-4.36343,-0.37631 -9.61526,0.18728 -13.39102,1.68643l-0.36005,-0.08917l0.00643,0.13658l-2.20155,0.10843c-0.288,0.01672 -0.58034,-0.02496 -0.85885,-0.12796c-0.71969,0.43166 -1.65099,0.41612 -2.37028,-0.11592c-0.97002,-0.71751 -1.18714,-2.10271 -0.48496,-3.09391z" fill="#00aeff" stroke="none" stroke-width="0.5"></path><path d="M259.93054,163.96418c0.07062,0.04452 0.1413,0.08898 0.21204,0.13342c0.42128,0.15733 0.8508,0.46872 1.10122,1.07157c0.20472,0.37265 0.32955,0.85172 0.18824,1.42082c-0.08159,0.58116 -0.37568,0.9755 -0.70394,1.2403c-0.46364,0.46717 -0.98601,0.58422 -1.43918,0.56087l-2.22644,0.33475c-8.71569,-1.64196 -17.1539,-4.33283 -23.73547,-10.5164c0,0 -1.5958,-1.49998 -0.12786,-3.13062c1.19483,-1.32727 2.47437,-0.58042 2.90911,-0.25658c0.40221,-0.26847 0.87969,-0.39093 1.35263,-0.35424l2.17092,0.13293c1.58152,-0.00305 3.68568,-0.09214 5.21263,0.30434c2.75929,0.71645 4.98377,2.75251 7.37896,4.18638c1.11008,0.66453 2.19992,1.34876 3.28369,2.0404c0.82834,0.18001 1.6649,0.41596 2.52953,0.78314l0.98954,0.66191c0,0 0.72012,0.53267 0.90436,1.387z" fill="#ffffff" stroke="none" stroke-width="0.5"></path><path d="M244.37539,155.27104c17.63833,5.6708 24.81,17.86479 23.90319,20.8098c-0.90679,2.945 -13.59499,0.49235 -32.02596,-1.02634c-20.46128,-1.68598 -37.76324,3.47057 -36.85644,0.52555c0.90681,-2.94503 27.34086,-25.97982 44.97921,-20.30902z" fill="none" stroke="#13263b" stroke-width="3"></path></g><g stroke-width="0" stroke-linecap="round"><g stroke="#33ff00"><g><path d="M127.10425,146.54692c0,0 -0.83556,-2.55839 0.2064,-3.06106c0.61466,-0.29652 3.79738,-1.05551 6.31428,-1.42446c1.74972,-0.25649 3.18386,-0.19611 3.18386,-0.19611l2.01599,0.39231l-0.05942,1.83222c0,0 -0.1092,0.72146 -5.73304,1.96154c-6.50914,1.43527 -5.92805,0.49556 -5.92805,0.49556z" fill="#000000"></path><path d="M128.97251,144.29965l3.99039,-0.76738c0,0 -0.14636,0.59702 -0.13262,0.88132c0.01371,0.28378 0.21494,0.82288 0.21494,0.82288l-4.23298,0.85002c0,0 -0.46368,-0.65696 -0.43495,-0.97723c0.02374,-0.2647 0.59522,-0.80964 0.59522,-0.80964z" fill="#5c5c85"></path><path d="M135.20174,143.08781l2.51307,0.12832l0.20958,0.93537l-2.47929,0.57085c0,0 0.14026,-0.73567 0.09886,-1.01373c-0.03964,-0.26626 -0.34221,-0.6208 -0.34221,-0.6208z" fill="#d8c6f9"></path></g><g><path d="M144.95641,146.38468c0,0 0.29788,22.97458 0.79243,32.75615c0.41028,8.11505 1.96949,21.87294 1.96949,21.87294c0,0 0.43469,5.8559 0.34613,10.75721c-0.06558,3.62916 -0.51079,6.70089 -1.14715,6.66236c-1.25726,-0.07611 -2.71914,-0.22405 -4.27424,-0.41615c-0.4743,-0.05857 -1.44078,-10.02814 -2.03519,-21.57345c-1.12656,-21.88049 -0.20328,-52.16802 0.38718,-52.10107c0.38909,0.04412 0.96825,0.10981 0.96825,0.10981z" fill="#000000"></path><path d="M143.89698,147.41779c0,0 -0.25597,24.03529 0.23855,33.81683c0.41028,8.11505 3.04542,35.78374 2.40907,35.74522c-1.25726,-0.07611 -1.38701,0.21223 -2.94209,0.02013c-0.4743,-0.05857 -0.80922,-9.48033 -1.40363,-21.02566c-1.12656,-21.88049 -0.0629,-50.03656 -0.0629,-50.03656z" fill="#251d47"></path></g><g><path d="M126.44002,216.53638l-3.48656,1.6003l-1.02922,-9.72051c0,0 0.90739,-1.93014 1.07443,-2.87764c0.16108,-0.91361 -0.08934,-2.7094 -0.08934,-2.7094l-2.06622,-35.02465l-1.63317,-1.57427c0,0 -0.34403,-6.14338 -0.45817,-8.98074c-0.11298,-2.80814 -0.22326,-7.95667 -0.22326,-7.95667l5.30122,-2.03272c0,0 -0.82976,25.71869 -0.43709,37.49005c0.36078,10.81528 2.70555,30.51313 2.70555,30.51313z" fill="#000000"></path><path d="M120.37583,150.97183l2.88768,-1.01916l-0.39714,14.74836l-2.1039,-3.02166z" fill="#5c5c85"></path><path d="M121.52868,150.56493c0.5194,-0.1833 1.73481,-0.61228 1.73481,-0.61228c0,0 -0.01776,0.65954 -0.03599,1.33699c-0.03046,1.13142 -1.47096,0.83544 -1.95837,0.35107c-0.4369,-0.43417 0.05943,-1.00517 0.25956,-1.0758z" fill="#d8c6f9"></path></g><g><path d="M142.87873,218.04604c-1.44285,-0.1751 -2.9719,-0.3899 -4.49653,-0.62182c-0.39719,-0.06042 -2.24074,-11.75833 -3.12965,-27.14947c-0.85055,-14.72689 -0.52588,-45.52498 -0.24636,-45.57142c1.99628,-0.33153 3.75913,-0.61351 3.75913,-0.61351l3.19798,0.36263c0,0 -1.4188,21.00196 -1.00635,40.01808c0.38565,17.78055 2.63065,33.66153 1.92176,33.57549z" fill="#000000"></path><path d="M142.01612,216.86493c-1.22182,-0.15619 -2.41549,-0.27024 -3.68328,-0.46311c-0.39719,-0.06042 -1.6064,-11.15323 -2.49532,-26.54436c-0.85056,-14.72688 0.06777,-43.67444 0.34728,-43.72086c1.99628,-0.33153 4.37055,0.48507 4.37055,0.48507c0,0 -0.90637,19.08339 -0.49392,38.09952c0.38565,17.78055 2.2022,32.1754 1.9547,32.14376z" fill="#251d47"></path><path d="M135.62834,184.9006c-0.45897,-15.42738 0.30573,-38.72239 0.55646,-38.76403c1.99628,-0.33153 4.37055,0.48507 4.37055,0.48507c0,0 -0.90636,19.08341 -0.49392,38.09952c0.15204,7.00983 -1.54703,8.48754 -2.39192,7.97047c-1.29819,-0.79446 -2.00923,-6.71778 -2.04116,-7.79102z" fill="#5c5c85"></path></g><g><path d="M138.38223,217.42421c-0.91826,-0.13969 0.21375,1.49137 -0.68147,1.34419c-5.12833,-0.84309 -11.60254,-3.50513 -11.60254,-3.50513c0,0 -1.63541,-0.52655 -2.0389,-2.09984c-0.14364,-0.56006 -0.28569,-1.46283 -0.41838,-2.50752c-0.04739,-0.3732 -0.09361,-0.76451 -0.13825,-1.16478c-0.14731,-1.32037 -0.27772,-2.73825 -0.37848,-3.92511c-0.02694,-0.31726 -0.05175,-0.61799 -0.07423,-0.89594c-0.08875,-1.09828 -0.14063,-1.84095 -0.14063,-1.84095c0,0 -0.0433,-0.78819 -0.10799,-1.96592c-0.0165,-0.30035 -0.03438,-0.62605 -0.05329,-0.97047c-0.06731,-1.22528 -0.14764,-2.68751 -0.2246,-4.08888c-0.02466,-0.44902 -0.04899,-0.8918 -0.07244,-1.31852c-0.36305,-6.60906 -1.5441,-28.10962 -1.5441,-28.10962c0,0 0.60107,-10.08406 1.14066,-13.61303c0.36012,-2.35517 1.78217,-5.50257 1.78217,-5.50257l2.92081,-0.78198c0,0 2.09849,-0.66722 3.37273,-0.92051c1.21934,-0.24236 3.74211,-0.66701 5.74875,-0.99738c0.8943,-0.14723 -1.18381,20.35321 -0.67736,40.43286c0.03861,1.53098 0.40403,9.90551 1.44037,18.36892c0.81083,6.62184 2.06077,14.10996 1.74718,14.06224z" fill="#000000"></path><g><path d="M135.73318,216.30841c-0.99855,0.26545 -9.4283,-1.87037 -9.4283,-1.87037c0,0 -3.33651,-29.38725 -2.95151,-40.79235c0.38499,-11.4051 1.39391,-25.26394 1.39391,-25.26394c0,0 7.61042,-1.53437 9.61705,-1.86474c0.8943,-0.14723 -0.02276,18.57858 0.4837,38.65824c0.60311,23.9126 1.88374,30.86775 0.88521,31.13319z" fill="#5c5c85"></path><path d="M124.94124,174.05069c-0.99854,0.26545 1.36361,40.38732 1.36361,40.38732c0,0 -3.3365,-29.38726 -2.95152,-40.79236c0.38499,-11.4051 1.39391,-25.26392 1.39391,-25.26392c0,0 7.61043,-1.53438 9.61706,-1.86475c0.37709,-0.06209 -8.54336,1.29176 -8.76156,5.00821c-0.6776,11.54171 9.11589,11.02875 9.11544,11.09177c-0.02915,4.05056 -0.05109,8.63487 -0.01444,13.47463c0.00492,0.64841 -8.85459,-7.78148 -9.74874,-6.52898c-1.97361,2.76456 5.18469,7.48907 8.32359,9.4201c0.83775,0.51537 1.4597,0.43649 1.4611,0.54036c0.00881,0.65155 0.01885,1.30638 0.03022,1.9639c0.02113,1.22156 -8.83009,-7.70173 -9.82863,-7.43627z" fill="#d8c6f9"></path><path d="M135.73318,216.30841c-0.99855,0.26545 -9.4283,-1.87037 -9.4283,-1.87037l-0.31631,-17.39192l7.3375,0.57878c0,0 1.51175,-12.85265 1.52192,-12.44965c0.60311,23.9126 1.88374,30.86776 0.8852,31.13319z" fill="#251d47"></path></g><g fill="#000000"><path d="M122.52346,195.80383c-0.02466,-0.44902 -0.04898,-0.8918 -0.07242,-1.31854c-0.00014,-0.00261 3.16766,0.17901 6.44598,0.12347c3.13715,-0.05315 6.39102,-0.3436 6.39105,-0.34327c0.02735,0.37287 0.05554,0.74063 0.08451,1.10326c0.00387,0.04833 -3.35478,0.10744 -6.63716,0.21337c-3.1402,0.10136 -6.21032,0.25149 -6.21196,0.22169z"></path><path d="M123.12421,205.56602c-0.02693,-0.31726 -0.05176,-0.618 -0.07422,-0.89596c-0.03393,-0.41989 5.81742,-0.70417 9.70752,-0.91066c1.6739,-0.08885 3.44601,-0.52165 3.46866,-0.35338c0.09677,0.7191 0.19528,1.4072 0.29449,2.06506c0.03331,0.22087 -3.68936,-0.37831 -6.86397,-0.50119c-3.32204,-0.12858 -6.50575,0.91064 -6.53247,0.59614z"></path><path d="M122.80137,200.86317c-0.0165,-0.30035 -0.03439,-0.62606 -0.0533,-0.97047c-0.01472,-0.26785 2.92725,0.11447 5.86604,-0.20989c3.46365,-0.38231 7.01417,-1.43432 7.04274,-1.14841c0.03011,0.30107 0.06068,0.59803 0.09171,0.89095c0.0387,0.36537 -12.93147,1.72385 -12.94719,1.43783z"></path><path d="M123.64095,210.65592c-0.04739,-0.3732 -0.09361,-0.7645 -0.13826,-1.16478c-0.06901,-0.61849 13.36926,-1.81771 13.44448,-1.38243c0.09509,0.5502 0.18941,1.07348 0.28202,1.57048c0.00318,0.01708 -2.74548,-0.50957 -5.78922,-0.26475c-3.68234,0.2962 -7.78362,1.36281 -7.79902,1.24147z"></path></g></g></g><g stroke="#33ff00"><g><path d="M150.38522,199.00947c0,0 7.42343,-0.56234 11.01536,-0.59836c3.7611,-0.03772 11.06705,0.37687 11.06705,0.37687c0,0 2.46498,3.10651 3.02665,9.36411c0.6414,7.14591 -2.38331,9.14068 -2.38331,9.14068c0,0 -15.7914,0.10209 -23.36966,-0.26581c-1.24611,-0.06049 -0.96257,-7.56622 -0.47783,-12.12567c0.46951,-4.41627 1.12176,-5.89179 1.12176,-5.89179z" fill="#000000"></path><path d="M151.63998,200.47956c0,0 6.64045,-0.53594 9.85288,-0.59494c3.36373,-0.0618 9.89649,0.23213 9.89649,0.23213c0,0 2.19603,2.61633 2.68134,7.92136c0.55418,6.05814 -2.1563,7.77463 -2.1563,7.77463c0,0 -14.12282,0.21168 -20.89923,-0.04047c-1.11425,-0.04147 -0.84028,-6.41223 -0.39439,-10.28471c0.4319,-3.75088 1.01924,-5.00801 1.01924,-5.00801z" fill="#251d47"></path><path d="M151.63998,200.47956c0,0 6.64045,-0.53594 9.85288,-0.59494c3.36373,-0.0618 9.89649,0.23213 9.89649,0.23213c0,0 0.83561,0.99552 1.58982,3.00353c0.10787,0.28721 -6.00248,-2.6478 -13.77942,-1.85011c-3.61454,0.37074 -8.58273,4.24965 -8.57901,4.2174c0.4319,-3.75088 1.01923,-5.00802 1.01923,-5.00802z" fill="#5c5c85"></path></g><g><path d="M173.30963,200.16263c0.76944,1.47329 1.83853,4.13296 2.18466,7.98945c0.6414,7.14591 -2.3833,9.14067 -2.3833,9.14067c0,0 -1.65962,-0.52159 -2.27119,-2.01482c-1.09891,-2.68307 -1.44258,-7.33149 -1.36612,-9.40483c0.23726,-6.43452 3.35691,-6.62778 3.83599,-5.71049z" fill="#000000"></path><path d="M172.73004,201.62533c0.79435,0.0088 1.87084,2.78992 2.12297,5.599c0.46721,5.20511 -0.745,7.44654 -1.5073,7.46135c-0.57403,0.01114 -1.20885,-0.37993 -1.65433,-1.46759c-0.80045,-1.95436 -1.00181,-4.5063 -0.94613,-6.01651c0.17281,-4.68692 1.24793,-5.58437 1.98479,-5.57621z" fill="#251d47"></path><path d="M172.73004,201.62533c0.48333,0.00535 0.26111,3.00264 -0.41639,3.95677c-0.43595,0.61393 -1.39863,-0.5474 -1.35929,-0.80848c0.38995,-2.58866 1.18977,-3.15479 1.77568,-3.14829z" fill="#5c5c85"></path></g></g><g stroke="#33ff00"><path d="M156.62139,195.89206c1.51694,-0.02767 3.21686,1.27127 3.21686,1.27127c0,0 8.04049,-4.09359 10.28803,-3.47333c2.24755,0.62026 3.8373,3.15323 2.47724,5.80352c-0.34611,1.18852 -4.17351,1.51798 -4.17351,1.51798c0,0 -0.77248,3.47756 -0.52974,7.50486c0.24274,4.02729 1.39433,6.32777 1.06095,8.2249c-0.44349,2.52371 -0.39221,5.25852 -4.63064,7.71192c-4.23843,2.45341 -12.46692,5.42381 -16.52879,4.31024c-2.32285,-0.63681 -3.55763,-1.5948 -5.04463,-2.36553c-1.11326,-0.57701 -2.45193,-0.94539 -4.03566,-1.56167c-3.58497,-1.39503 -9.48701,-2.2929 -10.64541,-3.2343c-2.35372,-1.91279 -1.39485,-6.13343 -0.59152,-7.71099c1.25077,-2.45616 8.74249,-1.68152 8.74249,-1.68152c0,0 -0.2841,-1.79541 -0.25657,-2.49995c0.10223,-2.61595 0.639,-8.99263 3.42792,-10.9925c2.18547,-1.56716 15.7061,-2.79721 17.22302,-2.82487z" fill="#000000"></path><path d="M156.38249,197.66785c0.84194,-0.01536 2.372,0.57557 2.38453,1.97287c0.00073,0.08057 -0.17515,0.64289 -0.49147,1.07316c-0.25531,0.34728 -0.66575,0.55614 -0.65532,0.76258c0.04076,0.80804 0.00644,1.18162 0.40571,1.03009c0.39925,-0.15152 1.22769,-1.86995 1.22769,-1.86995c0,0 6.94594,-5.67065 8.99215,-5.10594c2.04622,0.5647 3.10734,0.21191 2.68478,2.46685c-0.15905,0.84875 -2.69708,-0.29383 -3.18396,0.48625c-0.89807,2.94631 -1.72582,6.76673 -1.50481,10.43329c0.22099,3.66655 1.47605,8.7223 1.47605,8.7223c0,0 -2.1582,3.7977 -4.89668,5.37817c-5.54963,3.20288 -9.89424,4.31252 -15.13612,2.78247c-5.24189,-1.53005 -4.7137,-1.31854 -8.08154,-2.62905c-3.26387,-1.27006 -8.11921,-1.85696 -9.17385,-2.71405c-2.14288,-1.74147 -1.96225,-3.35604 -0.8444,-5.60149c0.15356,-0.30842 0.62451,-0.65499 1.09378,-0.70559c0.64243,-0.06927 1.39939,0.22429 2.41216,0.17226c1.19306,-0.06131 2.71034,-0.63339 3.57774,-0.50952c0.70687,0.10095 2.46069,4.74036 2.88998,4.39691c0.66978,-0.53583 -0.67017,-3.82944 -1.4384,-5.77689c-0.2632,-0.66719 -0.57811,-0.98258 -0.56088,-1.23796c0.20607,-3.05148 0.92296,-9.44433 3.34995,-11.18467c1.98972,-1.42679 14.09186,-2.31686 15.47291,-2.34206z" fill="#3300ff"></path><path d="M147.43109,212.41937c0.16327,-0.00298 1.10481,0.37287 2.19175,1.4554c1.00589,1.00179 2.12215,2.75219 4.13807,3.39554c1.85893,0.59326 4.5214,0.17097 7.68724,-0.9522c1.16527,-0.41342 4.18679,-1.20519 4.1723,-2.24038c-0.0068,-0.48597 -0.55165,-0.67154 -0.91362,-1.11037c-0.19482,-0.2362 -0.21302,-0.6287 -0.34461,-0.99395c-0.42081,-1.16802 -0.21116,-2.70786 0.0236,-4.15815c0.43762,-2.70366 2.95703,-7.922 2.93293,-7.83113c-0.71146,2.68289 -1.26211,5.86189 -1.07701,8.93292c0.22099,3.66655 1.47605,8.72229 1.47605,8.72229c0,0 -2.1582,3.7977 -4.89668,5.37816c-5.54964,3.20288 -9.89424,4.31253 -15.13612,2.78247c-5.24189,-1.53005 -4.7137,-1.31854 -8.08154,-2.62906c-3.26387,-1.27006 -8.11919,-1.85695 -9.17385,-2.71404c-2.14288,-1.74147 -1.96226,-3.35603 -0.84439,-5.60148c0.15355,-0.30842 -0.21069,2.52139 1.85424,3.28812c2.03466,0.75546 4.3496,-0.8706 5.36237,-0.92264c1.19306,-0.06132 2.54273,3.50861 3.41013,3.63248c0.70687,0.10095 -1.08239,-2.30048 -0.6531,-2.64391c0.66978,-0.53583 -0.67017,-3.82944 -1.43841,-5.77689c-0.2632,-0.66719 -0.5781,-0.98259 -0.56087,-1.23795c0.0276,-0.40883 0.0644,-0.87762 0.11321,-1.38718c0.07885,-0.82292 1.3066,0.24419 1.8927,1.14706c0.62459,0.96216 0.64554,1.83223 1.97087,3.20204c2.40885,2.48965 6.23407,4.22765 7.25117,3.49832c1.98971,-1.42677 -1.35651,-5.23546 -1.35651,-5.23546z" fill="#2d00e3"></path><path d="M141.57798,224.19271c0,0 0.21789,-1.17341 -0.00448,-1.81769c-0.12767,-0.3699 -0.63401,-0.88714 -0.96236,-1.39001c-0.33234,-0.50896 -0.48592,-1.00136 -0.48592,-1.00136c0,0 1.55399,1.21118 1.99283,1.96695c0.41994,0.72322 0.58595,2.4743 0.58595,2.4743z" fill="#000000"></path></g><g stroke="#33ff00"><path d="M144.02865,211.34221c-2.45283,-0.69215 -5.03752,-1.81481 -6.68283,-2.33768c-0.83617,-0.26572 -1.39879,-0.26828 -1.39461,-0.3382c0.11554,-1.93612 0.41598,-4.42187 1.16381,-6.43566c0.09154,-0.24652 0.89969,-2.15802 1.24886,-4.13625c0.8709,-4.93379 2.06119,-12.97358 5.41591,-16.34858c2.89226,-2.90975 15.56983,-4.58398 18.45345,1.36973c3.92205,8.09779 -8.87478,9.19656 -8.87478,9.19656c0,0 -0.17374,3.94537 0.06047,3.91591c0.45,-0.0566 -0.5248,1.18659 -1.79988,3.02439c-0.22741,0.32779 -0.30993,0.69536 -0.55005,1.05697c-0.25074,0.37755 -0.65938,0.75045 -0.90976,1.15596c-0.75132,1.21685 -1.46841,2.53907 -1.95499,3.8436c-1.37735,3.69262 -0.22929,7.08801 -0.05188,7.07943c0,0 -1.48321,-0.30112 -4.12369,-1.04622z" fill="#000000"></path><path d="M149.10581,213.25128c0.8611,-0.04171 -11.46561,-2.99492 -11.36052,-4.09202c0.25879,-2.70163 0.82329,-5.93617 2.05161,-7.74381c0.2472,-0.36379 0.96139,-12.21558 3.77982,-17.69448c0.82082,-1.59564 4.74391,-2.94186 5.67712,-3.13183c3.0376,-0.61827 12.66657,-0.94686 12.75341,4.48596c0.09857,6.16664 -9.82999,5.30587 -9.8593,6.53266c-0.0886,3.70992 0.03,7.06064 -0.09505,7.33347c-0.1683,0.36726 -1.12889,0.26276 -1.43109,0.71211c-0.47999,0.71368 -0.37269,2.04975 -0.92595,3.02266c-0.09034,0.15884 0.07133,-0.60337 -0.45314,-0.36536c-0.71137,0.32281 -2.15551,1.65676 -2.2652,1.89497c-0.20866,0.45316 1.71015,0.57997 1.54973,1.01478c-0.18934,0.51317 -0.33722,0.98969 -0.42517,1.37296c-0.1399,0.6097 -1.86613,0.15315 -1.90796,0.68661c-0.24824,3.16643 2.65983,5.98354 2.9117,5.97136z" fill="#2d00e3"></path><path d="M137.74527,209.15923c0.25879,-2.70163 0.82329,-5.93615 2.05163,-7.74379c0.2472,-0.36379 0.96141,-12.21559 3.77982,-17.69448c0.53813,-1.04611 2.40969,-1.98502 3.89793,-2.56118c0.78179,-0.30265 5.91113,2.56102 6.5459,5.2253c0.63478,2.66427 -1.84329,3.9959 -1.8726,5.22268c-0.0886,3.70992 0.341,6.81112 0.21595,7.08396c-0.1683,0.36726 -0.55536,0.95902 -0.85756,1.40836c-0.47999,0.71368 -1.2572,1.603 -1.81048,2.57591c-0.09034,0.15884 -1.00821,2.10958 -1.16862,2.54441c-0.18934,0.51317 -0.33722,0.98968 -0.42517,1.37296c-0.1399,0.6097 0.96997,6.71817 1.22183,6.70598c0,0 -11.68372,-3.04292 -11.57863,-4.14006z" fill="#3300ff"></path></g><g stroke="#33ff00"><path d="M143.40851,175.76282c0,0 1.55628,0.50587 2.78113,0.26752c2.47039,-0.4807 10.14005,-2.95634 10.82185,-2.38274c0.32579,0.2741 0.03611,7.84666 -0.31954,14.80839c-0.31581,6.18148 -0.75601,8.83154 -0.75601,8.83154l-4.08287,1.29791c0,0 0.3058,-7.51508 0.2356,-9.77334c-0.11994,-3.85797 0.36496,-8.95633 0.36496,-8.95633c0,0 -5.11503,1.30824 -6.70709,1.88814c-0.86001,0.31325 -2.08874,1.3157 -2.08874,1.3157c0,0 -0.49747,-3.37752 -0.54332,-4.71962c-0.03276,-0.95896 0.29405,-2.57719 0.29405,-2.57719z" fill="#000000"></path><path d="M156.19318,174.82444c0.14003,0.1178 -1.55193,20.83371 -1.55193,20.83371l-1.4774,0.6444c0,0 2.27577,-18.3831 0.44723,-19.09709c-1.76048,-0.68742 -10.19772,4.0785 -10.23129,3.81315c-0.12249,-0.96788 -0.24379,-2.04795 -0.26533,-2.6786c-0.01603,-0.46921 0.05404,-1.09625 0.12975,-1.61435c0.00361,-0.02474 1.28352,0.92984 2.95909,0.65656c3.76128,-0.61347 9.81163,-2.70776 9.98987,-2.55779z" fill="#251d47"></path><path d="M156.19318,174.82444c0.14003,0.1178 -0.75358,3.09501 -2.58209,2.38104c-1.76048,-0.68742 -10.25172,4.09433 -10.28532,3.829c-0.12249,-0.96788 -0.24378,-2.04796 -0.26532,-2.67862c-0.01603,-0.46921 0.05404,-1.09627 0.12975,-1.61437c0.00361,-0.02474 1.33756,0.91399 3.01313,0.64072c3.76128,-0.61347 9.81163,-2.70777 9.98987,-2.55779z" fill="#5c5c85"></path></g><path d="M153.24356,197.85002c0,0 -2.46623,1.63389 -3.45205,3.3576c-1.32554,2.31772 -1.26267,3.64696 -1.69252,4.0458c-0.88563,0.82174 -1.50597,-0.78965 -1.15846,-1.47477c0.5487,-1.08176 1.69453,-1.42897 2.40876,-2.59511c1.23911,-2.02312 2.76499,-5.48 2.76499,-5.48z" fill="#000000" stroke="#2dff00"></path></g><g fill="#67080a" stroke="#000000" stroke-width="2" stroke-linecap="round"><path d="M189.82822,173.39317l7.00315,7.60199l-3.65381,6.62109l-3.64875,-3.92439z"></path><path d="M202.31209,187.1258l-4.87176,6.86631l-2.74036,-3.67839l8.83006,-8.82812z"></path><path d="M213.88253,190.8042h12.78837l4.56727,6.37587l11.26594,-3.43316l4.56727,1.96181l5.78521,-0.49045l-11.87491,9.5638l-20.096,1.71658l-8.83006,-7.35676l-7.91661,0.24522l-2.74037,-7.11154l7.91661,-8.5829z"></path></g><g><path d="M303.26016,199.77744c-0.32641,0.96205 -1.45327,1.52559 -2.15122,1.28878c-0.69795,-0.23681 -3.34735,-5.738 -3.02093,-6.70006c0.17522,-0.51643 -10.23731,-5.65507 -9.60858,-5.8178c0.12798,-0.03312 0.97497,-2.34614 2.03853,-1.95654c3.44483,1.26191 10.15736,6.63354 10.40439,6.71735c0.08311,0.0282 -2.67663,-3.48319 -2.75946,-6.70867c-0.15131,-5.89272 2.07175,-13.38742 2.32157,-12.82901c0.22699,0.50736 1.69562,-3.53333 7.24078,-0.82847c1.84278,0.89888 7.8766,5.0049 8.81803,8.97302c1.18495,4.99452 -2.40612,10.03578 -2.25758,11.6947c0.31838,3.5559 -4.95765,5.53638 -8.14755,6.15444c-1.80864,0.35044 -2.84213,-0.09338 -2.87798,0.01227z" fill="#516087" stroke="none" stroke-width="0" stroke-linecap="butt"></path><path d="M310.85013,179.65232c-0.21121,0.6225 -1.16233,0.86253 -2.12437,0.53612c-0.96206,-0.32642 -1.57074,-1.09566 -1.35952,-1.71817c0.21121,-0.6225 1.16232,-0.86253 2.12438,-0.53611c0.96206,0.32642 1.57073,1.09566 1.35952,1.71817z" fill="#9ec6c6" stroke="none" stroke-width="0" stroke-linecap="butt"></path><path d="M300.91256,193.00114c-0.15224,0.44871 -0.77012,0.82343 -1.28297,1.16728c-0.52204,0.35001 -0.94022,0.66634 -1.21407,0.80399c-0.96112,0.48304 -3.5508,-2.5565 -3.24358,-3.46196c0.20806,-0.61322 1.19986,-2.02808 2.23323,-1.90081c0.14034,0.01728 -2.8108,-1.6028 -5.2915,-2.56605c-1.39443,-0.54145 -3.33279,0.24442 -2.79781,-1.09052c0.28789,-0.71834 -0.33421,-2.11806 -0.04447,-3.52958c0.41266,-2.01033 1.85445,-4.1663 3.38345,-5.45395c1.26817,-1.068 3.01693,-3.39905 4.55211,-4.00163c3.67924,-1.44416 7.14446,-0.20534 7.14446,-0.20534c0,0 -2.34708,1.31469 -3.16009,6.21329c-0.27023,1.62822 -0.6793,6.95836 0.96856,10.9623c2.11878,5.14814 6.40754,9.07951 6.40754,9.07951c0,0 -2.80222,2.06187 -4.12708,1.00191c-1.06413,-0.85138 -1.56537,-2.60945 -2.16074,-4.09351c-0.65663,-1.63681 -1.3536,-2.96461 -1.36707,-2.92491z" fill="#393b47" stroke="none" stroke-width="0" stroke-linecap="butt"></path><path d="M289.54651,190.00298c0,0 1.40507,-1.02876 2.03033,-1.47226c0.47251,-0.33516 1.39305,-0.956 1.39305,-0.956l4.98934,2.8069c0,0 -0.59625,0.88726 -1.06393,1.1897c-0.52908,0.34215 -1.94911,0.75884 -1.94911,0.75884z" fill="#9ec6c6" stroke="none" stroke-width="0" stroke-linecap="butt"></path><path d="M277.61019,221.17002c-0.30161,0.88895 -1.60219,1.49885 -2.67506,1.13483c-1.07287,-0.36401 -4.60408,-5.58414 -4.30247,-6.47309c0.30161,-0.88895 21.60057,-25.10766 22.67344,-24.74365c0.14727,0.04997 6.25968,4.98145 5.8331,5.95828c-2.68092,6.13917 -21.2688,23.35669 -21.52901,24.12363z" fill="#2e2230" stroke="none" stroke-width="0" stroke-linecap="butt"></path><path d="M299.00086,200.08083c-0.15245,0.44933 3.90599,5.66851 3.63554,6.49698c-0.42451,1.30039 -0.41113,3.24583 -1.42374,4.64324c-1.30789,1.80488 -2.8711,1.33382 -4.70118,2.63847c-1.36586,0.97371 -2.21982,2.74322 -3.49212,3.74525c-1.2298,0.96855 -2.88927,1.19064 -3.57009,0.95964c-0.81388,-0.27614 -4.58284,3.82489 -7.97036,3.60368c-2.08518,-0.13617 -9.22262,-6.05661 -10.71868,-6.96145c-1.62481,-0.9827 -0.26055,-5.71749 -1.06191,-6.52343c-1.47013,-1.47853 3.49533,-0.90885 2.83513,-2.24609c-0.44187,-0.89501 -0.75968,-1.63009 -0.5409,-2.2749c0.22364,-0.65915 -0.11722,-3.03169 0.75085,-3.30376c0.60814,-0.19059 -5.38882,-5.13634 -4.53085,-5.08888c1.14166,0.06315 0.71194,-4.4306 2.7853,-3.57663c0.83587,0.34427 3.96509,-1.62912 4.94662,-1.02795c5.62419,3.44474 10.77554,12.73323 12.24612,13.23218c3.52516,1.19605 11.96473,-7.71888 10.81028,-4.31633z" fill="#2d00e3" stroke="none" stroke-width="0" stroke-linecap="butt"></path><path d="M297.64794,206.98703c-1.10174,1.51506 -3.22052,2.74595 -5.76378,2.06481c-1.52724,-0.40903 -2.60274,-1.37889 -4.08486,-2.57374c-1.16755,-0.94125 -2.81234,-2.05146 -3.58911,-2.93628c-0.49588,-0.56485 6.46781,7.98113 -1.60973,8.27908c-1.08501,0.04002 -4.70224,-2.20242 -7.3042,-4.19592c-0.35862,-0.27476 -0.69213,-0.54432 -0.99905,-0.80267c-0.29898,-0.25168 -1.43361,-1.60378 -1.82513,-1.40314c-0.1031,0.05284 0.05492,1.09278 1.32081,2.63901c1.55553,1.9 -2.76852,-1.74873 -2.35272,0.18325c1.44619,6.71964 8.08191,6.99605 8.31758,7.01745c0.58243,0.0529 5.80415,-0.06734 -4.04116,-5.13767c-2.97541,-1.53234 -3.79747,-5.54929 -3.82808,-5.57651c-0.39511,-0.35123 1.03595,-4.34853 1.97688,-5.18849c2.0565,-1.83581 5.05842,-1.03242 4.73424,-1.94095c-0.22529,-0.63136 -2.45647,0.70725 -5.05635,-1.08275c-0.78661,-0.87898 -1.05819,-1.76776 -0.69178,-2.5934c0.56413,-1.27117 2.40969,-2.34723 3.77424,-3.95978c1.26221,-1.49161 1.40482,-4.17057 2.79767,-5.10405c1.60777,-1.07752 3.74772,-1.06103 3.85521,-1.00765c3.17223,1.5751 4.59532,2.96943 4.65824,4.06723c0.04424,0.77194 -1.38977,1.3742 0.1289,1.88948c3.67843,1.24805 15.15158,9.70388 9.58218,17.36267z" fill="#3300ff" stroke="none" stroke-width="0" stroke-linecap="butt"></path><path d="M272.61512,207.1059c0,0 -0.83356,-1.37857 -0.84681,-2.46593c-0.01325,-1.08737 0.00295,-1.75989 0.34096,-2.75613c0.33802,-0.99625 0.66107,-1.539 1.37649,-2.30576c0.71542,-0.76676 1.1837,-1.01225 2.20269,-1.5303c1.01899,-0.51805 2.65359,-0.81615 2.65359,-0.81615c0,0 -0.17923,-1.61532 0.00424,-2.63932c0.18347,-1.024 0.06533,-1.39287 0.93247,-2.45641c0.86714,-1.06356 1.91626,-1.65953 2.79896,-2.12021c0.88269,-0.46068 1.0964,-0.64013 2.37554,-0.5804c1.97948,0.09244 3.39223,0.71254 4.88588,1.36064c1.49364,0.6481 1.64667,0.74629 3.48719,2.27248c1.84052,1.52619 3.0914,2.78744 4.39584,4.26425c1.30446,1.47682 2.17923,2.79993 2.97337,4.07871c0.79414,1.27878 1.30556,2.0256 1.70156,3.44914c0.396,1.42355 0.39584,2.4705 0.30605,3.76788c-0.08979,1.29738 -0.06518,2.21481 -0.78816,3.19857c-0.72298,0.98376 -1.67779,1.16086 -2.70698,1.55726c-1.02919,0.39639 -2.17819,0.21293 -2.76089,0.54868c-0.58271,0.33575 -0.127,0.64529 -0.80877,1.5081c-0.68177,0.8628 -1.04356,1.34125 -1.968,2.00604c-0.92445,0.66479 -1.85512,1.07418 -2.61659,1.29084c-0.76147,0.21666 -0.75535,-0.38422 -1.98702,0.01902c-1.23167,0.40325 -1.10036,0.7434 -2.91472,1.5858c-1.12464,0.52216 -2.42018,1.65065 -3.93589,1.80006c-0.92953,0.09163 -2.11007,-0.44798 -2.88944,-0.94692c-2.05023,-1.31249 -3.58695,-2.24224 -5.14118,-3.52686c-1.55423,-1.28462 -2.96995,-2.69368 -3.59819,-3.69654c-0.62824,-1.00286 -0.54113,-1.68573 -0.57723,-2.96863c-0.03609,-1.28291 -0.11204,-2.44697 0.40281,-3.23029c0.51485,-0.78332 2.70222,-0.66762 2.70222,-0.66762z" fill="none" stroke="#000000" stroke-width="2" stroke-linecap="round"></path><path d="M286.14526,205.75484c0,0 -3.02707,-2.76263 -4.97731,-4.59358c-2.38213,-2.23643 -2.95329,-4.13792 -2.95329,-4.13792" fill="none" stroke="#000000" stroke-width="2" stroke-linecap="round"></path><path d="M279.7338,212.39301c0,0 -2.96443,-1.78618 -4.22749,-2.73113c-1.148,-0.85887 -3.03867,-2.70505 -3.03867,-2.70505" fill="none" stroke="#000000" stroke-width="2" stroke-linecap="round"></path><path d="M273.13099,199.69719c0,0 -0.93661,-0.19228 -1.83478,-0.72155c-0.89817,-0.52926 -1.79476,-0.92052 -2.33273,-1.4542c-0.53796,-0.53368 -0.7848,-0.75095 -0.85315,-1.70633c-0.06835,-0.95538 0.26062,-1.58058 0.7834,-2.30893c0.52278,-0.72836 0.90696,-0.89108 1.84589,-1.35427c0.93893,-0.46319 1.54462,-0.69855 2.53278,-0.97649c1.08456,-0.30503 1.79433,-0.35918 2.50924,-0.83975c0.7149,-0.48056 0.93593,-0.56057 1.62156,-2.06264c0.68562,-1.50207 0.67796,-2.42411 1.17352,-3.16686c0.44548,-0.66768 1.16043,-0.88531 2.08217,-1.17507c0.92174,-0.28977 1.58855,-0.37848 2.46276,-0.25372c0.87421,0.12476 1.3948,0.46528 2.07106,0.90075c0.67626,0.43546 0.90885,0.67239 1.50493,1.40186c0.59607,0.72948 1.04127,1.21589 1.29401,2.0235c0.25274,0.8076 0.10235,2.19049 0.10235,2.19049" fill="none" stroke="#000000" stroke-width="2" stroke-linecap="round"></path><path d="M277.88098,221.03143c0,0 -0.80372,1.17839 -1.60412,1.36014c-0.80039,0.18174 -1.60398,-0.26289 -2.0274,-0.53553c-0.42341,-0.27264 -1.55618,-1.33095 -2.31406,-2.38482c-0.75786,-1.05386 -1.17773,-1.85322 -1.67119,-3.15699c-0.49346,-1.30378 -0.57819,-2.78614 -0.57819,-2.78614" fill="none" stroke="#000000" stroke-width="2" stroke-linecap="round"></path><path d="M288.71023,189.48137c0,0 2.14013,0.65864 3.43327,1.26391c1.29316,0.60526 1.81889,0.81016 2.83859,1.55728c1.01971,0.74712 1.91519,1.46839 2.95118,2.68478c1.03599,1.2164 1.16176,1.65655 1.5858,2.91472c0.42403,1.25818 0.48683,3.23505 0.48683,3.23505" fill="none" stroke="#000000" stroke-width="2" stroke-linecap="round"></path><path d="M288.18689,187.52129c0,0 0.71696,-0.82651 1.36856,-0.82303c0.65161,0.00349 2.87038,0.23478 4.53224,0.94358c1.66186,0.70879 2.93649,1.62231 4.52113,3.0194c1.58463,1.39709 2.24226,2.11559 3.24137,3.87256c0.99912,1.75697 1.03742,2.23871 1.28449,3.80277c0.24708,1.56407 -0.07137,2.25344 -0.07137,2.25344c0,0 -0.85871,0.50939 -1.28736,0.62863c-0.36186,0.10067 -1.11831,0.04056 -1.11831,0.04056" fill="none" stroke="#000000" stroke-width="2" stroke-linecap="round"></path><path d="M289.08128,186.63642c0,0 -0.27771,-1.56442 -0.19346,-2.64037c0.08425,-1.07596 0.23156,-1.90333 0.63909,-3.05109c0.40754,-1.14776 0.73642,-2.10846 1.589,-3.22394c0.85258,-1.11548 1.80354,-2.05912 3.2192,-3.06694c1.41567,-1.00782 2.42232,-1.74013 4.22302,-2.23121c1.8007,-0.49108 3.13888,-0.41252 5.16181,-0.32825c2.02293,0.08428 2.40959,0.13807 3.8218,0.70253c1.41221,0.56446 2.83734,1.32113 4.37524,2.57378c1.5379,1.25266 2.01354,1.87511 2.91788,3.36668c0.90433,1.49158 1.501,2.62223 1.84428,4.48784c0.34328,1.86562 0.19426,2.83058 -0.17287,4.59568c-0.36713,1.76509 -0.99703,3.22969 -1.86652,5.20937c-0.86948,1.97968 -0.76016,1.91303 -1.53772,2.87823c-0.77755,0.96521 -1.61778,1.77748 -2.9105,2.64353c-1.29273,0.86606 -2.05561,0.96897 -3.44756,1.40502c-1.39195,0.43605 -3.53318,0.78179 -3.53318,0.78179" fill="none" stroke="#000000" stroke-width="2" stroke-linecap="round"></path><path d="M292.58063,186.63537c0,0 -0.11621,-1.52758 -0.04544,-2.59016c0.07077,-1.06258 0.18172,-1.78329 0.43136,-3.02255c0.24963,-1.23926 0.50137,-1.8656 1.0033,-2.76247c0.50192,-0.89687 0.78176,-1.21298 1.57207,-1.90931c0.79033,-0.69633 1.1583,-0.91962 1.96482,-1.41295c0.80653,-0.49333 2.02834,-1.24203 3.49989,-1.94841c1.47154,-0.70639 2.51562,-0.89598 2.51562,-0.89598" fill="none" stroke="#000000" stroke-width="1.5" stroke-linecap="round"></path><path d="M294.82988,187.49755c0,0 0.16781,-1.01471 0.40529,-2.03152c0.15928,-0.682 0.29213,-1.2822 0.42569,-1.77971c0.33266,-1.23927 0.59135,-2.03137 1.08417,-3.09814c0.49281,-1.06677 0.61961,-1.48599 1.60537,-2.59121c0.98577,-1.10522 0.91533,-1.23375 2.83068,-2.50557c1.91534,-1.27183 5.34313,-2.80845 5.34313,-2.80845" fill="none" stroke="#000000" stroke-width="1.5" stroke-linecap="round"></path><path d="M297.78419,189.58923c0,0 0.14556,-1.3115 0.72684,-2.82326c0.58129,-1.51176 0.97507,-2.4423 1.79937,-3.74673c0.8243,-1.30443 1.54063,-2.09031 2.49767,-3.08069c0.95704,-0.99038 0.9988,-1.02098 2.63192,-2.30893c1.63312,-1.28795 4.84096,-3.17689 4.84096,-3.17689" fill="none" stroke="#000000" stroke-width="1.5" stroke-linecap="round"></path><path d="M313.62703,177.23848c0,0 -0.67308,1.24817 -1.5681,2.49312c-0.54266,0.75481 -1.22908,1.4456 -1.71825,2.03647c-1.29597,1.56542 -1.87981,2.08368 -3.20123,3.40313c-1.32141,1.31945 -1.85372,1.95484 -3.12036,3.06747c-0.46483,0.40831 -1.20126,1.02785 -1.82156,1.52414c-1.07001,0.85609 -2.10914,1.49947 -2.10914,1.49947" fill="none" stroke="#000000" stroke-width="1.5" stroke-linecap="round"></path><path d="M316.45661,182.32468c0,0 -1.15804,2.38087 -2.01663,3.70602c-0.8586,1.32515 -1.46882,2.13912 -2.68637,3.24773c-1.21756,1.1086 -2.33971,1.96238 -4.04859,2.88457c-0.70263,0.37917 -1.6838,0.99118 -2.68781,1.39369c-1.43785,0.57643 -2.84032,0.88985 -2.84032,0.88985" fill="none" stroke="#000000" stroke-width="1.5" stroke-linecap="round"></path><path d="M315.87936,190.44722c0,0 -2.43226,2.93534 -4.30338,4.31655c-1.87111,1.38121 -2.63807,1.53043 -4.48943,2.14082c-1.85137,0.61039 -4.09615,0.68981 -4.09615,0.68981" fill="none" stroke="#000000" stroke-width="1.5" stroke-linecap="round"></path><path d="M296.49714,173.34102c0,0 1.08039,0.22264 2.73499,0.59786c1.6546,0.37522 1.79697,0.13792 4.2357,0.94199c2.43872,0.80407 4.45986,1.56377 6.09584,2.46437c1.63598,0.9006 2.67314,1.7454 3.75042,2.95596c1.07728,1.21056 1.41694,1.4588 2.05678,3.56966c0.63983,2.11086 0.65333,5.37114 0.65333,5.37114" fill="none" stroke="#000000" stroke-width="1.5" stroke-linecap="round"></path><path d="M292.30847,176.54117c0,0 3.66433,0.38804 6.16404,0.80403c2.49972,0.41599 2.51664,0.55678 4.08663,1.08947c1.56999,0.53268 2.40333,0.84685 3.77686,1.71057c1.37353,0.86373 2.24467,1.50246 3.42533,2.74664c1.18067,1.24418 1.52056,1.65498 2.1588,2.97711c0.63824,1.32212 0.87232,2.33999 1.25436,3.89158c0.38203,1.55159 0.49634,5.15282 0.49634,5.15282" fill="none" stroke="#000000" stroke-width="1.5" stroke-linecap="round"></path><path d="M289.39212,183.96909c0,0 0.6091,-0.37479 1.33376,-0.61579c0.63542,-0.21132 1.34898,-0.28818 1.96314,-0.3452c1.31457,-0.12202 1.72491,-0.14073 3.34922,0.34414c1.62431,0.48487 2.28385,0.85743 3.93438,1.83004c1.65053,0.97262 2.74237,1.53305 3.9883,2.83861c1.24593,1.30557 2.02405,2.39569 2.44055,3.89793c0.41649,1.50224 0.17398,2.18548 -0.2585,3.97245c-0.43249,1.78698 -2.39143,2.54826 -1.71269,4.17225" fill="none" stroke="#000000" stroke-width="1.5" stroke-linecap="round"></path></g><g><g stroke-linecap="round"><path d="M195.49999,134.41904c11.89343,-4.15564 20.40947,-7.87157 32.48458,-6.32495c12.07511,1.54662 27.99309,5.14843 21.61514,13.25422c-6.37794,8.10579 -24.99226,-1.65225 -31.72079,-0.41085c-6.72854,1.2414 -6.13789,7.35155 -13.3076,8.71846c-10.87385,2.07309 -4.97712,-4.44356 -8.41682,-5.62216c-2.91985,-1.00048 -10.59009,3.82154 -10.91852,-1.00306c-0.14551,-2.13746 3.63981,-6.29713 10.26402,-8.61166z" fill="#fff3df" stroke="none" stroke-width="0"></path><path d="M196.39739,135.53978c3.55566,-1.24236 3.20658,10.8992 6.75544,10.29932c6.50302,-1.09921 4.71047,-6.63194 11.64693,-8.62055c1.94004,-0.55619 12.40529,0.67378 14.25543,0.91076c12.07511,1.54662 26.92248,-4.88678 20.54453,3.219c-6.37794,8.10579 -24.99227,-1.65225 -31.7208,-0.41085c-6.72854,1.2414 -6.13789,7.35155 -13.3076,8.71846c-10.87385,2.07309 -4.97713,-4.44356 -8.41682,-5.62216c-2.91985,-1.00048 -10.59009,3.82154 -10.91852,-1.00306c-0.14551,-2.13748 1.73779,-4.26044 8.36199,-6.57497z" fill="#cfa7a7" stroke="none" stroke-width="0"></path><path d="M227.98453,128.0941c12.07509,1.54662 27.99308,5.14842 21.61514,13.25421c-6.37794,8.10579 -24.99225,-1.65224 -31.72078,-0.41084c-6.72853,1.2414 -6.13787,7.35157 -13.30759,8.71846c-10.87385,2.07309 -4.97713,-4.44355 -8.41682,-5.62216c-2.91986,-1.00048 -10.59009,3.82153 -10.91853,-1.00306c-0.14551,-2.13748 3.63983,-6.29714 10.26401,-8.61167c11.89343,-4.15564 20.40946,-7.87156 32.48457,-6.32494z" fill="none" stroke="#000000" stroke-width="4"></path></g><path d="M213.79434,135.75233c-8.82116,0.78744 -19.41915,-1.20292 -14.18469,-5.69056c0.39227,-0.3363 1.0689,-1.04256 1.79953,-1.77134c0.76332,-0.76137 1.58558,-1.54734 2.20417,-1.96176c6.69035,-4.4821 17.9614,-8.21733 28.03939,-0.99694c11.90169,8.52702 -9.03725,9.63314 -17.8584,10.42058z" fill="#ffd500" stroke="none" stroke-width="0" stroke-linecap="round"></path><path d="M213.79434,135.75233c-8.82116,0.78744 -19.41915,-1.20292 -14.18469,-5.69056c0.39227,-0.33631 1.06889,-1.04256 1.79954,-1.77134c0.76332,-0.76137 1.58558,-1.54734 2.20417,-1.96174c6.69035,-4.4821 2.66933,3.19118 8.85252,4.91715c12.99103,3.6263 20.33688,-3.95022 21.3317,-3.30579c7.95189,5.15112 -12.16293,7.1124 -20.00323,7.81229z" fill="#ff7e00" stroke="none" stroke-width="0" stroke-linecap="round"></path><path d="M213.8845,136.05116c-8.82116,0.78744 -19.41914,-1.20294 -14.1847,-5.69057c1.90151,-1.63022 4.89633,-4.43234 8.74295,-6.15821c6.74227,-3.02507 15.72197,-4.00121 23.30015,1.42819c11.90169,8.52701 -9.03725,9.63314 -17.85841,10.42058z" fill="none" stroke="#000000" stroke-width="4" stroke-linecap="round"></path><path d="M216.43028,126.18494c1.11318,-1.71286 4.29444,-2.24225 7.10554,-1.18242c2.81109,1.05982 4.18752,3.30751 3.07433,5.02036c-0.50605,0.77866 -2.04935,-1.52687 -4.39008,-2.32133c-2.80832,-0.95315 -6.39692,-0.58241 -5.78978,-1.51661z" fill="#fff45c" stroke="none" stroke-width="0" stroke-linecap="butt"></path></g></g></g></svg>