<svg version="1.1" xmlns="http://www.w3.org/2000/svg" xmlns:xlink="http://www.w3.org/1999/xlink" width="94.99282" height="48.80785" viewBox="0,0,94.99282,48.80785"><g transform="translate(-190.10767,-153.62427)"><g data-paper-data="{&quot;isPaintingLayer&quot;:true}" fill-rule="nonzero" stroke-linejoin="miter" stroke-miterlimit="10" stroke-dasharray="" stroke-dashoffset="0" style="mix-blend-mode: normal"><g stroke-width="1.5"><path d="M201.93275,175.15773c0.53458,1.77673 0.38313,3.30815 0.47666,5.13702c0.05629,1.10073 0.42547,2.16479 0.56029,3.25867c0.34151,2.77089 -0.14852,6.62182 -1.15014,9.18042c-0.72198,1.84425 -1.99321,3.55473 -2.76571,5.4136c0,0 -0.5005,1.20198 -1.70247,0.70147c-0.11815,-0.0492 -0.21984,-0.10517 -0.30718,-0.16611l-0.17625,-0.02029c-1.1729,-0.25616 -4.74715,-0.35338 -5.51159,-1.02311c-0.58254,-0.51036 -0.39947,-1.49655 -0.59919,-2.24485c-0.59285,-4.21533 0.36081,-8.48683 0.53956,-12.66567c0.06635,-1.55122 -0.2388,-3.07593 -0.06931,-4.67539c0.20513,-1.93584 0.4785,-3.72034 2.31349,-4.84876c1.93049,-1.18714 4.5891,-0.54023 6.69956,-0.30133c0.38806,-0.03135 0.6707,0.11193 0.87002,0.29461c0.21929,0.15997 0.41622,0.4101 0.46107,0.79932z" fill="#3300ff" stroke="none" stroke-linecap="butt"/><path d="M198.08785,185.2661c0.34531,-5.15968 1.6313,-13.1498 1.6313,-13.1498c0,0 1.78963,-3.05046 4.3594,-4.76861c2.56976,-1.71817 3.65014,-2.57238 7.2586,-2.9992c3.60846,-0.42682 9.25171,1.0463 9.25171,1.0463c0,0 4.53513,1.87156 6.75813,6.20612c2.223,4.33456 1.58538,5.04009 2.24773,11.35409c0.66233,6.31399 0.64839,16.25467 0.64839,16.25467c0,0 -4.02017,1.77736 -9.6857,2.47245c-5.66553,0.6951 -11.13277,0.39604 -14.48164,-0.05207c-3.34887,-0.44812 -8.13274,-2.97395 -8.13274,-2.97395c0,0 -0.20047,-8.23031 0.14484,-13.38998z" fill="#3300ff" stroke="#000000" stroke-linecap="round"/><path d="M197.19976,198.53601c0,0 -4.13203,-0.56513 -5.03613,-1.03805c-0.90409,-0.47292 -1.29265,-2.27247 -1.29265,-2.27247c0,0 -0.06132,-6.86543 -0.01339,-10.08519c0.04246,-2.85171 0.28656,-8.26361 0.28656,-8.26361c0,0 0.53536,-2.60156 2.61729,-3.7043c2.08193,-1.10274 5.62474,-0.66128 5.62474,-0.66128" fill="none" stroke="#000000" stroke-linecap="round"/><path d="M230.18709,191.3216l-4.04176,3.22045l-2.95807,-2.49466l-3.20201,2.71306l-3.71046,-3.26981l-4.10437,2.86603l-3.11897,-4.38799l-3.70639,3.06106l-3.88682,-10.73021l-1.45523,1.72555" fill="none" stroke="#000000" stroke-linecap="round"/><path d="M218.75823,184.49688c0,0 -6.08837,-0.11453 -9.63009,-2.19117c-3.54172,-2.07664 -3.87316,-3.09871 -4.07248,-5.84313c-0.19933,-2.74441 26.97687,-1.70203 26.84186,0.54779c-0.13501,2.24981 -1.09545,3.73236 -3.6763,5.29533c-2.58085,1.56296 -9.46299,2.19117 -9.46299,2.19117z" fill="#ffffff" stroke="#000000" stroke-linecap="round"/></g><g stroke-width="1.5" stroke-linecap="round"><path d="M199.17986,163.69177c6.65894,-3.05478 11.42693,-5.78634 18.18759,-4.64943c6.76066,1.13691 15.67287,3.78457 12.10197,9.74308c-3.57091,5.95851 -13.99276,-1.21455 -17.75996,-0.30201c-3.7672,0.91254 -3.4365,5.40408 -7.45071,6.40888c-6.08809,1.52392 -2.7866,-3.26643 -4.71244,-4.13282c-1.63478,-0.73544 -5.92922,2.80919 -6.11311,-0.73734c-0.08147,-1.57124 2.03787,-4.62897 5.74666,-6.33037z" fill="#fff3df" stroke="none"/><path d="M199.6823,164.51561c1.99075,-0.91325 1.79531,8.01193 3.78226,7.57096c3.64094,-0.80802 2.63732,-4.87509 6.52093,-6.33691c1.08619,-0.40885 6.94551,0.49529 7.98138,0.66949c6.76066,1.13691 15.07346,-3.59224 11.50255,2.36626c-3.57091,5.95851 -13.99277,-1.21455 -17.75996,-0.30201c-3.7672,0.91255 -3.4365,5.40407 -7.4507,6.40888c-6.08809,1.52392 -2.7866,-3.26643 -4.71244,-4.13281c-1.63478,-0.73544 -5.92922,2.80919 -6.1131,-0.73735c-0.08147,-1.57124 0.97296,-3.13181 4.68174,-4.83322z" fill="#cfa7a7" stroke="none"/><path d="M217.36743,159.04235c6.76064,1.13691 15.67288,3.78457 12.10197,9.74307c-3.57091,5.95851 -13.99275,-1.21454 -17.75995,-0.302c-3.7672,0.91255 -3.43649,5.40408 -7.4507,6.40888c-6.08809,1.52392 -2.7866,-3.26641 -4.71244,-4.1328c-1.63479,-0.73544 -5.92922,2.80917 -6.1131,-0.73735c-0.08147,-1.57124 2.03788,-4.62898 5.74665,-6.33037c6.65894,-3.05478 11.42693,-5.78632 18.18759,-4.64942z" fill="none" stroke="#000000"/></g><path d="M209.42256,164.67185c-4.93883,0.57885 -10.87246,-0.88427 -7.94178,-4.18309c0.21963,-0.2472 0.59846,-0.76637 1.00753,-1.3021c0.42738,-0.55968 0.88773,-1.13743 1.23408,-1.44207c3.74582,-3.29476 10.05629,-6.04051 15.6988,-0.73283c6.66357,6.26815 -5.05981,7.08125 -9.99863,7.66009z" fill="#ffd500" stroke="none" stroke-width="1.5" stroke-linecap="round"/><path d="M209.42256,164.67185c-4.93883,0.57885 -10.87247,-0.88427 -7.94178,-4.18309c0.21963,-0.24721 0.59846,-0.76637 1.00753,-1.3021c0.42738,-0.55968 0.88773,-1.13744 1.23408,-1.44207c3.74582,-3.29476 1.4945,2.34581 4.95638,3.61456c7.27347,2.66567 11.3863,-2.90378 11.94328,-2.43006c4.45214,3.78654 -6.80982,5.22828 -11.19948,5.74276z" fill="#ff7e00" stroke="none" stroke-width="1.5" stroke-linecap="round"/><path d="M209.47305,164.89152c-4.93883,0.57885 -10.87246,-0.88427 -7.94178,-4.18309c1.06464,-1.19836 2.74138,-3.25819 4.89505,-4.52686c3.77489,-2.2237 8.80247,-2.94126 13.04538,1.04986c6.66357,6.26814 -5.05981,7.08125 -9.99864,7.66009z" fill="none" stroke="#000000" stroke-width="1.5" stroke-linecap="round"/><path d="M210.89839,157.63893c0.62326,-1.25911 2.40439,-1.64826 3.97828,-0.86919c1.57389,0.77906 2.34453,2.43133 1.72127,3.69043c-0.28333,0.57239 -1.1474,-1.12239 -2.45793,-1.70639c-1.57233,-0.70065 -3.58153,-0.42812 -3.2416,-1.11485z" fill="#fff45c" stroke="none" stroke-width="1.5" stroke-linecap="butt"/><g stroke="none" stroke-width="0" stroke-linecap="round"><path d="M260.87435,193.9225l-0.23132,-21.86078l15.26784,-1.21448c0,0 8.46741,1.88626 9.07974,4.68444c0.73845,3.37453 -2.4868,18.79563 -2.4868,18.79563l-5.20495,1.56149z" fill="#000000"/><path d="M263.1439,191.92588l-0.18756,-17.72537l12.37963,-0.98475c0,0 6.86563,1.52943 7.36212,3.7983c0.59876,2.73617 -2.01637,15.24006 -2.01637,15.24006l-4.22032,1.2661z" fill="#00ffa9"/></g><g stroke="none" stroke-width="0" stroke-linecap="round"><path d="M258.26779,154.51876c14.61614,-0.40057 19.19658,12.81807 20.41127,24.42825c0.19286,1.84335 0.51229,3.73677 0.56215,5.43808c0.05551,1.89398 -0.17245,3.57158 -0.22424,5.12991c-0.12846,3.86516 -0.47367,6.43925 -0.47367,6.43925c0,0 -7.54595,4.07225 -18.85229,4.36445c-12.82289,0.33141 -18.84108,-3.27584 -18.84108,-3.27584c0,0 -1.11501,-6.48368 -1.40135,-13.74219c-0.48652,-12.33318 1.80464,-28.31562 18.81922,-28.78192z" fill="#000000"/><path d="M258.37609,157.10333c13.14344,-0.36562 17.13959,11.86925 18.15066,22.42432c0.17482,1.82511 0.53221,3.53959 0.56039,5.19041c0.02394,1.40221 -0.26533,2.77531 -0.3047,3.95328c-0.11532,3.45137 -0.41849,5.74603 -0.41849,5.74603c0,0 -6.69456,3.66719 -16.72523,3.93034c-11.37612,0.29844 -16.71529,-2.95001 -16.71529,-2.95001c0,0 -0.98921,-5.83877 -1.24323,-12.3753c-0.43162,-11.10644 1.60103,-25.49916 16.69589,-25.91908z" fill="#00ffa9"/></g><g stroke="#ff0000" stroke-width="0" stroke-linecap="round"><path d="M273.15303,176.82194c0,0 -1.46527,2.97232 -4.08503,3.60475c-2.82952,0.68305 -20.4812,1.81456 -22.21715,1.86497c-0.03203,0.00094 -5.72102,-0.54517 -7.99005,-2.44927c-2.66461,-2.23605 -1.96981,-5.88377 -1.96981,-5.88377l36.26205,2.86333z" fill="#000000"/><path d="M269.7818,177.84501c0,0 -0.78927,1.11329 -3.00819,1.46848c-0.36669,0.0587 -1.79189,0.1233 -2.65313,0.19071c-4.7676,0.37318 -15.26686,1.07604 -16.51223,1.10002c-0.02712,0.00053 -3.87253,-0.20192 -5.7944,-1.27133c-2.2569,-1.25584 -2.64154,-3.4088 -2.64154,-3.4088l30.60952,1.92094z" fill="#ffffff"/></g><path d="M274.38056,180.8756l-1.66302,-1.91633l-3.08847,13.23166l-4.11799,-3.2851l-2.85089,5.56642l-4.51394,-3.01134l-3.56362,4.28888l-3.56364,-2.92009l-2.8509,3.2851l-4.4802,-3.44167" fill="none" stroke="#000000" stroke-width="1.5" stroke-linecap="round"/><g stroke="#000000" stroke-width="1.5" stroke-linecap="butt"><path d="M280.24607,172.25589c-0.08915,1.49331 -1.46422,2.38305 -2.16136,2.87583c-0.78587,0.55552 -3.69371,-2.9427 -7.22804,-5.52731c-3.9277,-2.87226 -7.03561,-3.69197 -7.97981,-4.44831c-0.94828,-0.75959 0.53356,-1.75886 1.3597,-2.34283c0.33342,-0.23568 0.81238,-0.57424 1.30058,-0.91933c0.95765,-0.67693 2.30207,-1.09769 2.71447,-0.76735c0.70168,0.56206 4.28471,1.18312 7.63668,4.17345c3.56507,3.18043 4.44693,5.46253 4.35778,6.95584z" fill="#4f5357"/><path d="M253.53848,163.21701c-0.11669,-2.50378 2.84855,-4.75333 6.62307,-5.02452c3.7745,-0.2712 6.92896,1.53865 7.04564,4.04243c0.11668,2.50376 -2.84855,4.75332 -6.62307,5.02452c-3.77452,0.2712 -6.92896,-1.53866 -7.04566,-4.04243z" fill="#75756c"/><g><path d="M253.70804,160.98876c-0.11304,-1.76213 2.75945,-3.34536 6.41587,-3.53622c3.65643,-0.19087 6.71218,1.08288 6.82522,2.84502c0.11304,1.76214 -2.75944,3.34536 -6.41586,3.53622c-3.65643,0.19087 -6.7122,-1.08288 -6.82523,-2.84502z" fill="#533023"/><path d="M259.66455,163.05828l-2.99367,-4.11214c0,0 2.27432,-0.67989 2.85526,-0.82228c0.55237,-0.13539 1.63737,-0.06892 1.63737,-0.06892l2.10775,4.48673z" fill="#b08a80"/></g><path d="M240.62707,172.39034c-0.44843,-0.51165 -1.33932,-1.44204 -1.28506,-2.87734c0.05426,-1.4353 0.04183,-4.16582 2.77986,-7.00901c2.57437,-2.67326 6.14541,1.88145 3.17816,4.40885c-2.67008,2.27428 -4.16746,6.05427 -4.67297,5.47749z" fill="#4f5357"/><path d="M245.87895,159.4771c3.47992,-1.25633 7.15907,-0.35686 8.21761,2.00902c1.05854,2.36588 -0.90438,5.30227 -4.3843,6.5586c-3.47992,1.25634 -7.15907,0.35685 -8.21761,-2.00903c-1.05854,-2.36588 0.90438,-5.30227 4.3843,-6.5586z" fill="#75756c"/><g><path d="M245.00586,158.85894c3.4278,-1.1924 6.76532,-0.78698 7.45458,0.90555c0.68926,1.69253 -1.53074,4.03122 -4.95853,5.22363c-3.4278,1.1924 -6.76532,0.78698 -7.45458,-0.90555c-0.68926,-1.69252 1.53074,-4.03123 4.95853,-5.22363z" fill="#533023"/><path d="M246.4167,164.4685l-4.21467,-3.19885c0,0 1.94697,-1.29058 2.45462,-1.58965c0.48269,-0.28436 1.54045,-0.51778 1.54045,-0.51778l3.49246,3.80893z" fill="#b08a80"/></g></g></g></g></svg>