<svg version="1.1" xmlns="http://www.w3.org/2000/svg" xmlns:xlink="http://www.w3.org/1999/xlink" width="217.45463" height="187.42522" viewBox="0,0,217.45463,187.42522"><g transform="translate(-123.52653,-108.8641)"><g data-paper-data="{&quot;isPaintingLayer&quot;:true}" fill-rule="nonzero" stroke-linejoin="miter" stroke-miterlimit="10" stroke-dasharray="" stroke-dashoffset="0" style="mix-blend-mode: normal"><g><g stroke="#ff0000" stroke-width="0" stroke-linecap="round"><path d="M215.39659,157.43163l5.29983,4.06177c0,0 4.98238,29.88922 5.18093,30.49241c0.96597,2.9348 13.49017,36.19906 13.49017,36.19906l1.33659,11.7274l-39.25121,15.10637l-8.89966,-5.38052c0,0 -5.65702,-12.81039 -7.90623,-19.80354c-2.61312,-8.12457 -7.72054,-25.7855 -7.72054,-25.7855l-8.0747,-10.13135l1.0633,-13.14436z" fill="#000000"></path><path d="M170.67815,193.34394l1.30354,-11.8626l42.11814,-20.17169l4.04064,2.72198l0.8081,15.54925l7.68512,24.29816l10.06736,25.6439l1.15318,9.00852l-35.82751,13.51027l-7.87906,-5.33392c0,0 -8.30839,-19.05794 -11.04633,-26.90674c-2.19801,-6.30104 -4.12011,-16.57099 -4.12011,-16.57099z" fill="#2d00e3"></path><path d="M170.67815,193.34394l1.30354,-11.8626c0,0 23.52663,-11.26762 31.25475,-14.96886c2.42069,-1.15935 -7.65994,8.67332 -17.26423,16.22531c-6.33694,4.98283 -13.32396,8.65422 -13.32396,8.65422c0,0 -0.04171,4.24797 -0.21759,4.03854c-0.77003,-0.91685 -1.75248,-2.08661 -1.75248,-2.08661z" fill="#3300ff"></path><path d="M217.45231,173.56898l7.68511,24.29816l10.06737,25.64389l1.15318,9.00852l-35.59186,13.43624l-7.36888,-5.24467c0,0 -3.91824,-20.68651 -6.65618,-28.5353c-2.19803,-6.30104 -4.12012,-16.57097 -4.12012,-16.57097c0,0 10.56242,-6.68225 16.13966,-10.21064c1.0982,-0.69476 6.56056,-11.22305 7.4783,-11.80367c0.86847,-0.54944 11.21341,-0.02153 11.21341,-0.02153z" fill="#2d00e3"></path></g><path d="M217.60774,258.2178c-3.16703,-0.80105 -5.56645,-2.38041 -5.56645,-2.38041c0,0 -2.08583,-26.88244 -4.93468,-55.23963c-0.6975,-6.94278 -1.42834,-13.79756 -1.90991,-20.37552c-0.31457,-4.2969 5.26965,29.34568 10.25084,54.07673c0.75153,3.73125 2.97788,12.68351 9.23944,16.52918c3.79071,2.32815 11.50962,1.63996 14.27654,0.05987c1.7877,-1.02091 1.43168,-12.33186 5.07788,-17.73329c4.21034,-6.23715 12.41667,-6.41602 13.37494,-6.20306c0.08008,0.0178 -5.00707,0.43249 -8.05167,2.95445c-2.91252,2.41257 -3.80387,6.76289 -3.77387,7.13739c0.20488,2.55725 -0.10635,8.46282 -0.83347,12.86843c-0.51146,3.09901 -1.92594,5.34732 -1.92345,5.41304c0.04299,1.13706 -5.2999,2.99615 -10.89313,3.44826c-6.71155,0.54251 -13.91275,-0.44916 -14.33302,-0.55549z" fill="#bdb05b" stroke="#ff0000" stroke-width="0" stroke-linecap="round"></path><path d="M304.95906,232.53807c0,0 -2.76542,2.05598 -3.7378,2.03065c-5.70857,-0.14874 -23.46985,-2.78521 -28.37901,-3.55912c-7.13225,-1.12441 -13.26711,-1.40915 -13.26711,-1.40915l-10.50893,3.20263l-1.97719,22.34163c0,0 -6.36506,3.75693 -16.89995,5.02692c-6.03079,0.72701 -16.98242,-0.26059 -17.21046,-1.42957c-1.14246,-5.8564 -6.62913,-25.55711 -12.26233,-46.65388c-3.90071,-14.60849 -8.53563,-31.43917 -9.70871,-45.83601c-1.73799,-21.32992 4.25205,-37.21579 23.55364,-43.16938c20.8936,-6.44464 39.37818,6.81616 50.44724,28.41469c9.08313,17.72347 14.77857,35.15993 16.22389,39.32053c0.22624,0.65126 0.60062,0.13177 0.60062,0.13177l21.56654,5.11973c0,0 4.26822,4.94233 5.11265,16.17463c1.25018,16.62958 -3.55309,20.29398 -3.55309,20.29398z" fill="#000000" stroke="#ff0000" stroke-width="0" stroke-linecap="round"></path><path d="M302.811,230.40788c0,0 -3.80786,0.61948 -8.07972,0.51611c-4.04125,-0.09779 -8.47159,-0.90882 -11.38014,-1.23807c-6.88739,-0.77966 -22.32792,-3.56689 -22.32792,-3.56689l-14.85788,4.89113l-1.18332,22.37392c0,0 -4.49814,3.71953 -14.27032,4.90267c-5.59417,0.67731 -15.89929,-0.86783 -15.89929,-0.86783c0,0 -5.23737,-22.48678 -11.56367,-46.54452c-3.65175,-13.88689 -8.78097,-29.80807 -9.90136,-43.48783c-1.65992,-20.26754 3.73724,-36.6123 21.63337,-42.22547c19.37222,-6.07615 38.38793,7.33984 48.70647,27.88324c9.79265,19.49641 15.54112,40.8856 15.54112,40.8856l22.12262,4.00659c0,0 3.3157,2.88859 4.12412,13.56126c1.19687,15.8011 -2.66415,18.9101 -2.66415,18.9101z" fill="#2d00e3" stroke="#ff0000" stroke-width="0" stroke-linecap="round"></path><path d="M298.06415,220.2636c0,0 -0.31438,-3.0829 -9.00892,-3.49658c-3.59731,-0.17115 -6.522,-11.54425 -9.8757,-21.98386c-3.45513,-10.75535 -5.69021,-22.50651 -7.22291,-22.21661c-1.71062,0.32354 -43.82749,17.53161 -57.91583,15.32057c-5.26077,-0.82564 7.99093,31.7376 3.68883,28.31194c-13.50573,-10.75429 -24.57053,-51.67465 -24.57702,-51.81125c-0.89637,-18.87056 4.82356,-33.89318 21.82823,-39.22677c19.37223,-6.07615 38.38792,7.33985 48.70646,27.88325c9.79265,19.49641 15.54113,40.88559 15.54113,40.88559c0,0 16.24343,2.94183 19.66682,3.56181c0.53147,0.09624 -2.09369,4.14758 -2.36834,9.05905c-0.35048,6.26779 1.53725,13.71283 1.53725,13.71283z" fill="#3300ff" stroke="#ff0000" stroke-width="0" stroke-linecap="round"></path><path d="M218.38536,143.31953c-0.81077,-8.17623 5.32043,-15.47753 13.69445,-16.30791c8.37401,-0.83039 15.81975,5.1246 16.63052,13.30083c0.81077,8.17623 -5.32045,15.47752 -13.69446,16.30791c-8.37401,0.83039 -15.81975,-5.12459 -16.63052,-13.30082z" fill="#3300ff" stroke="none" stroke-width="0" stroke-linecap="butt"></path><path d="M302.98161,230.39097c0,0 -3.80786,0.61948 -8.07972,0.51611c-4.04125,-0.09779 -8.47159,-0.90882 -11.38013,-1.23808c-6.88739,-0.77966 -22.32792,-3.56689 -22.32792,-3.56689l-14.85789,4.89113l-1.1833,22.37392c0,0 -4.49815,3.71953 -14.27033,4.90266c-5.59417,0.67731 -15.89929,-0.86783 -15.89929,-0.86783c0,0 -5.23736,-22.48678 -11.56365,-46.54452c-1.70198,-6.47224 -3.72486,-13.38639 -5.51328,-20.30954c-0.5547,-2.14727 13.36483,51.29488 29.90314,61.89124c1.78703,1.14498 10.74395,-3.43627 12.43465,-9.12992c1.95012,-6.56721 -3.36109,-14.46381 -1.17831,-14.30097c5.08923,0.37965 10.41157,-4.44966 21.13782,-6.32518c10.38126,-1.81519 34.00617,8.74738 41.99127,6.10363c0.65433,-0.21664 -1.98672,-2.14382 -3.21836,-4.96863c-1.12764,-2.58628 -0.82814,-5.97658 -0.86005,-8.42001c-0.07387,-5.65533 0.68336,-12.09485 0.93652,-13.494c0.80507,-4.44936 2.46884,-3.9845 2.46884,-3.9845c0,0 3.31571,2.88859 4.12413,13.56127c1.19687,15.8011 -2.66416,18.9101 -2.66416,18.9101z" fill="#2d00e3" stroke="#ff0000" stroke-width="0" stroke-linecap="round"></path><g stroke-linecap="butt"><path d="M215.69218,170.11438c0.30555,-2.28295 2.53615,-1.91891 2.53615,-1.91891c5.31924,0.86817 10.97878,2.01922 16.36381,1.83668c4.12273,-0.13977 8.17177,-0.64956 12.3401,-0.45514l2.34238,-0.18469c0.28337,-0.02919 0.5781,-0.00305 0.87041,0.08618c1.19882,0.36593 1.90306,1.65418 1.57297,2.87736c-0.2527,0.93644 -1.03839,1.56332 -1.93079,1.64154l-3.5862,0.3997c-2.68973,0.96929 -5.74168,0.60817 -8.47328,1.58353c-6.47659,2.31258 -13.56451,4.79736 -19.5734,8.15386c-2.5688,1.43491 -4.91036,3.70427 -7.30787,5.43471l-2.29857,0.87463c-0.40937,0.25349 -0.95998,0.41481 -1.62819,0.1944c-0.42704,-0.08978 -0.88272,-0.31786 -1.23498,-0.82248c-0.40198,-0.46421 -0.51697,-0.96912 -0.50648,-1.41441c-0.05737,-0.68548 0.19576,-1.18426 0.51114,-1.53309c2.98891,-4.99951 6.13476,-11.04145 10.46079,-14.93267c-0.33829,-0.39795 -0.57075,-0.97903 -0.45802,-1.82125z" fill="#3f7ce2" stroke="none" stroke-width="0.5"></path><path d="M220.43377,165.90485c0.53448,-0.38459 1.07069,-0.727 1.6098,-1.04462c1.55641,-1.53724 3.12914,-2.86428 4.96116,-4.15649c1.80261,-1.01268 3.64473,-1.88126 5.52124,-2.60215c1.54379,-1.18909 3.14744,-2.28158 4.9946,-2.96243c1.52261,-0.56122 3.18185,-0.66621 4.73879,-1.12437l2.07982,-0.30043c0,0 2.09504,-0.2767 2.52663,1.79995c1.77837,0.02139 3.57366,0.16468 5.38231,0.43237c3.60019,0.53282 7.2281,0.56296 10.70274,1.90573c4.66015,1.80089 11.76972,11.31503 7.01796,9.80538c-0.03434,-0.00859 -0.05302,-0.01427 -0.05302,-0.01427l0.00058,-0.00296c-0.09981,-0.03391 -0.19118,-0.07118 -0.27197,-0.10794c-0.54627,0.00976 -1.09254,0.0195 -1.63879,0.02927c-3.70605,1.40368 -7.58123,2.78407 -11.43067,3.74032c-2.48018,0.61611 -5.02252,0.5292 -7.52123,1.02204c-2.43457,0.48017 -5.22645,1.56745 -7.72743,1.62091c-6.74141,0.14407 -19.89222,-0.76877 -26.47111,-2.39964c0,0 3.28476,-1.36447 3.76754,-3.61104c0.22528,-1.04835 0.8243,-1.48875 1.39918,-1.66034c0.09133,-0.09856 0.18605,-0.18444 0.27761,-0.2582c0.08134,-0.07284 0.13432,-0.11107 0.13432,-0.11107z" fill="#98fdff" stroke="none" stroke-width="0.5"></path><path d="M204.65561,186.97062c0.26504,-0.98215 1.11635,-1.62374 2.06214,-1.64905l0.74677,-1.69365l0.84285,-1.62426c0,0 0.07866,-0.1506 0.23354,-0.34653c-0.0585,-0.21472 -0.09285,-0.45811 -0.09544,-0.73407c-0.02164,-2.31161 2.22968,-2.28299 2.22968,-2.28299c4.47737,0.06098 8.60823,-0.87657 12.93366,-1.69098c0.71768,-0.18305 1.41803,-0.33894 2.0916,-0.46588c0,0 0.13122,-0.02364 0.33602,-0.02642c0.4275,-0.01413 1.05025,0.06059 1.55744,0.50579c0.32238,0.2725 0.59716,0.68678 0.73365,1.31282c0.15115,0.62279 0.08461,1.11264 -0.08705,1.49454c-0.26284,0.61567 -0.79241,0.94553 -1.18461,1.11291c-0.18614,0.08378 -0.31498,0.11772 -0.31498,0.11772l-1.17984,0.30376c-0.41936,0.07547 -0.83663,0.15248 -1.25226,0.23022c-4.37766,1.16275 -9.28477,3.5636 -12.42329,6.36735l-0.3819,0.03869l0.05487,0.13229l-2.10255,0.88051c-0.27416,0.11768 -0.5733,0.17937 -0.88082,0.17578c-0.54629,0.67816 -1.45758,0.99013 -2.34652,0.7188c-1.19882,-0.36593 -1.90306,-1.65418 -1.57297,-2.87736z" fill="#00aeff" stroke="none" stroke-width="0.5"></path><path d="M259.19113,157.09148c0.08452,0.01902 0.1691,0.03799 0.25371,0.05691c0.46572,0.00694 0.99431,0.16274 1.45245,0.6686c0.33177,0.29514 0.62369,0.72322 0.68883,1.33349c0.12752,0.60119 -0.01812,1.09298 -0.24312,1.46919c-0.28462,0.62313 -0.751,0.92202 -1.20005,1.05827l-2.0462,1.11222c-9.06103,1.44548 -18.22556,1.76019 -26.82766,-2.01825c0,0 -2.08596,-0.91681 -1.23874,-3.03902c0.68958,-1.7274 2.19987,-1.44134 2.73796,-1.27512c0.29562,-0.40581 0.7164,-0.69426 1.18942,-0.82431l2.15867,-0.63199c1.53705,-0.5588 3.55175,-1.38603 5.17792,-1.53209c2.9386,-0.26393 5.82682,0.96004 8.6667,1.53079c1.31617,0.26451 2.61967,0.55555 3.91991,0.85599c0.86969,-0.11379 1.76728,-0.17534 2.73889,-0.11749l1.19801,0.30428c0,0 0.88997,0.27166 1.37327,1.04853z" fill="#ffffff" stroke="none" stroke-width="0.5"></path><path d="M240.96836,153.99449c19.17296,-0.6124 30.48846,8.87948 30.65484,12.09929c0.1664,3.21979 -13.04672,5.26274 -31.51257,10.24394c-20.50001,5.52991 -35.49168,16.69011 -35.65808,13.4703c-0.16638,-3.21982 17.34283,-35.20114 36.51581,-35.81355z" fill="none" stroke="#13263b" stroke-width="3"></path></g></g><g data-paper-data="{&quot;index&quot;:null}" stroke="none" stroke-linecap="butt"><path d="M247.86233,177.79142c-1.19178,0.42638 -2.51928,-0.23801 -2.96506,-1.48396c-0.44575,-1.24594 0.15904,-2.60166 1.35082,-3.02804c1.1918,-0.42639 2.51927,0.23802 2.96505,1.48397c0.44578,1.24595 -0.15901,2.60166 -1.3508,3.02804z" fill="#50526b" stroke-width="0"></path><path d="M261.07619,173.28526c-1.74921,0.62581 -6.3055,2.46719 -10.03649,2.37055c-2.50852,-0.06498 -4.88258,-2.01193 -4.88258,-2.01193c0,0 9.1162,-7.35525 12.0415,-8.40183c2.92531,-1.04657 8.70003,-3.51571 9.49466,-1.29464c0.79462,2.22108 -3.69178,8.29126 -6.61708,9.33784z" fill="#333240" stroke-width="0"></path><path d="M283.5501,181.12569c-0.73647,-2.05855 0.33527,-4.32436 2.39382,-5.06084c2.05854,-0.73648 4.32436,0.33526 5.06084,2.39381c0.35841,1.00179 1.24258,4.39379 2.26952,7.68738c0.44187,1.41712 10.73841,-8.68471 15.82561,-11.50548c1.63152,-0.90466 2.71206,1.85673 2.77965,2.18661c0.23831,1.16337 -16.89857,16.36276 -17.38607,16.53718c-2.05855,0.73648 -10.2069,-10.18011 -10.94338,-12.23866z" fill="#323232" stroke-width="0"></path><path d="M293.32261,191.24558c-0.6938,0.55028 -2.4281,-0.8431 -3.87367,-3.11221c-1.44556,-2.26911 -2.055,-4.55472 -1.3612,-5.105c0.69381,-0.55029 2.42811,0.84309 3.87368,3.1122c1.44557,2.26911 2.055,4.55472 1.3612,5.105z" fill="#50526b" stroke-width="0"></path><path d="M306.59646,165.13551c-0.9347,0.33441 -14.85748,8.03932 -25.20311,15.1503c-5.29162,3.63717 -8.86071,7.49107 -10.9066,9.35316c-0.62468,0.56856 -1.78945,-3.26216 -2.42023,-2.73769c-1.16267,0.96674 -1.81199,2.08759 -2.99345,2.79884c-0.87492,0.5267 -2.14241,-0.43615 -3.08491,-1.57009c-0.7146,-0.85975 -1.11538,-1.98874 -1.74746,-1.65796c-2.27567,1.19085 -3.80957,3.02275 -5.7126,3.37265c-3.11231,0.57223 -7.84412,-8.26541 -8.08596,-8.94141c-0.98198,-2.74474 25.96751,-20.35457 29.57901,-21.64664c3.61149,-1.29207 18.46416,-15.60285 19.44614,-12.85811c0.98196,2.74474 14.74065,17.44491 11.12916,18.73698z" fill="#485e85" stroke-width="0"></path><path d="M310.1264,144.69461c-1.19178,0.42639 -15.48507,0.63223 -15.84685,-0.37898c-0.36178,-1.01122 4.85974,-5.13169 6.05153,-5.55807c1.19178,-0.42639 2.4512,0.0477 2.81298,1.05892c0.36178,1.01122 8.17411,4.45174 6.98233,4.87812z" fill="#323232" stroke-width="0"></path><path d="M265.5817,188.2181c0,0 -3.66971,1.70073 -4.84549,-1.58573c-0.80731,-2.25656 17.36855,-15.07727 30.05535,-23.32598c0.26756,-0.17395 1.44401,-0.97888 1.4089,-1.98193c-0.04353,-1.24376 -1.21964,-0.70116 -1.50525,-2.47001c-0.59633,-3.69318 0.80057,-8.00856 2.94793,-9.72684c3.93033,-3.14496 7.81233,7.52059 8.76249,7.18066c2.10702,-0.75382 11.37684,0.4593 9.4472,4.34959c-1.51011,3.04452 -14.14434,8.91148 -14.14434,8.91148c0,0 -0.78116,-0.82969 0.76229,-2.13138c1.53795,-1.29706 5.40113,-3.06476 5.07164,-3.8658c-0.60606,-1.47345 -8.19644,-0.01474 -9.90447,0.97284c-3.33701,1.9294 -6.7218,4.63592 -11.90108,8.12869c-6.12445,4.13018 -13.0043,8.496 -16.68224,11.79257c-3.44957,3.09186 0.52707,3.75183 0.52707,3.75183z" fill="#333947" stroke-width="0"></path><path d="M294.0065,148.95772c0,0 -3.58545,2.84249 -6.38287,4.80496c-3.2655,2.29082 -11.29747,7.63024 -16.70047,11.32426c-3.11438,2.12931 -5.32402,3.79929 -5.32402,3.79929c0,0 2.59419,1.04646 4.08839,1.70957c1.95124,0.86595 6.61816,3.04194 6.61816,3.04194l-2.98202,2.18878c0,0 -4.86517,-2.06468 -6.78067,-2.96298c-1.43946,-0.67507 -3.69778,-1.95113 -3.69778,-1.95113l-3.32638,2.03495l10.92374,5.1011l-8.58125,6.0545l-11.09368,-4.30464l-3.80231,0.91777c0,0 -1.1446,-2.76703 1.72062,-4.83886c5.80379,-4.19668 29.65351,-19.89041 40.74376,-26.91054c3.53469,-2.23744 6.50438,-3.32525 6.50438,-3.32525z" fill="#93c4c9" stroke-width="0"></path><path d="M327.14185,185.12124c-2.49207,0.89157 -7.76145,-12.13423 -17.57727,-12.55664c-3.51608,-0.1513 -6.17763,5.83257 -9.60183,10.50074c-1.4697,2.0036 -3.94124,3.71194 -5.26379,4.67579c-1.95344,1.42362 -5.47023,-3.85574 -5.64232,-4.33676c-0.15791,-0.4414 20.58045,-19.56454 20.46128,-21.02376c-0.07094,-0.86889 4.1098,-3.78863 3.17112,-3.94251c-2.4876,-0.40779 -7.49266,1.53074 -10.15372,0.39467c-3.72574,-1.59061 -5.8572,-5.42473 -7.60558,-7.51037c-2.3446,-2.79688 3.99278,-8.47609 5.53133,-9.02654c0.47436,-0.1697 1.76092,-0.85512 2.84634,-0.47469c1.63511,0.57304 3.62756,3.22246 5.66294,3.93891c1.95998,0.68989 3.9411,0.67957 6.08458,1.56952c2.51631,1.04475 7.80008,0.02013 10.07483,1.16021c1.99675,1.00073 6.30306,3.94152 9.11233,7.61361c3.72342,4.86698 5.80664,10.66448 6.09244,11.46334c1.31791,3.68372 -8.85892,16.00396 -13.19272,17.55446z" fill="#2d00e3" stroke-width="0"></path><path d="M311.68509,182.03956c-1.11565,0.39915 -1.52831,-6.84869 -2.6166,-7.01188c-1.57213,-0.23575 -6.25267,6.28064 -11.55623,8.83635c-5.45595,2.62915 -8.51189,-1.27628 -8.79274,-2.06126c-0.39832,-1.11335 -0.40814,-4.3443 1.94529,-6.8326c2.64535,-2.79696 7.06351,-5.15623 10.70452,-7.35726c3.14359,-1.90037 5.63789,-3.81542 6.74559,-4.21174c0.36908,-0.13204 1.15789,-1.71298 2.06534,-3.16883c0.10787,-0.17309 0.92726,-1.10433 0.03817,-1.25848c-2.25647,-0.39122 -7.86342,0.03972 -7.57558,-0.28379c0.00608,-0.0068 -1.77669,-0.82869 -3.47796,-2.27362c-3.14546,-2.67158 -6.5138,-7.0797 -1.31952,-9.62897c3.20794,-1.57441 4.97757,0.16396 6.55187,2.26301c0.90605,1.20801 1.81834,2.56989 2.87854,3.06791c0.7998,0.37568 2.05376,2.98079 2.18364,4.65016c0.05872,0.75463 -0.49837,1.68474 -0.49837,1.68474c0,0 2.844,-0.30985 2.91028,-0.36217c0.39217,-0.30952 0.36227,2.10569 0.78693,1.81329c2.50327,-1.7237 5.42336,-2.9644 7.03053,-1.5108c3.65903,3.30939 -1.53992,8.18909 -1.53992,8.18909c0,0 0.86694,-0.11409 2.28981,-0.89201c0.77443,-0.42339 1.59925,-1.42244 2.44925,-1.70018c0.76091,-0.2486 1.71779,-0.31917 2.46605,-0.08193c1.93035,0.61197 3.79586,2.43073 5.11567,4.27287c1.70172,2.37517 2.83923,7.2323 2.33701,8.94054c-0.66242,2.25314 -0.89159,4.19793 -3.72413,6.58456c-2.78737,2.34858 -8.27573,2.88526 -9.54344,3.76183c-1.71376,1.18498 -7.26405,-5.63992 -7.85398,-5.42885z" fill="#3300ff" stroke-width="0"></path><path d="M318.93175,154.96122c-0.95545,1.17828 -2.98949,2.35557 -4.45466,3.20024c-3.17359,2.74421 -5.80831,6.08762 -9.36349,8.37823c-1.91309,1.23263 -3.96878,2.09989 -5.93377,3.27964c-2.91037,1.45181 -5.83628,3.25182 -7.64971,5.58665c-0.05674,0.34339 -0.33154,0.55671 -0.45842,0.63847c-1.45806,2.2082 -1.91578,4.87111 -0.52857,8.12848c0.39159,0.9195 1.25506,1.47302 1.8726,2.25554c1.80194,1.75957 3.25087,-0.11011 4.58584,-1.73411c3.09996,-3.77109 7.86184,-6.05708 10.9643,-9.84073c3.57979,-1.83352 2.47655,3.89063 4.00384,6.21172c0.46726,0.71008 1.6717,1.04301 2.29147,1.73161c2.90288,3.22525 4.57686,4.93159 8.96652,2.42872c1.87003,-0.6749 4.66936,-0.94771 6.29743,-2.03059c1.38144,-0.91883 2.12037,-3.0078 3.16458,-4.25115c2.31995,-2.76239 4.49001,-5.34795 5.22322,-9.02455c0.31199,-0.66859 0.58564,-1.35596 0.82553,-2.05369l0.189,-0.40101c-2.52606,-6.75384 -4.80131,-11.84687 -10.48262,-16.49611c-4.98224,-3.06713 -9.91537,-2.52131 -15.56817,-3.21096c-1.83688,-0.22412 -3.30728,-1.16336 -5.07516,-1.51591c-1.47267,-0.68536 -3.5724,-3.49148 -5.05295,-3.56838c-2.41947,-0.12564 -7.67786,4.24255 -7.35349,6.88185c0.17178,1.39764 1.24608,2.8502 1.99697,3.97516c0.65528,1.22215 2.46965,2.8795 2.46965,2.8795l1.31606,0.78902c0,0 2.90217,1.02427 5.831,0.9966c2.54275,-0.02403 5.01711,-1.02727 6.73003,-1.86492c0.20799,-0.17387 0.4185,-0.34476 0.63193,-0.51223c0,0 0.1896,-0.14878 0.45198,-0.19934c1.15457,-0.82211 2.40419,-1.68718 3.86594,-1.41217l0.32844,0.01214c0.12667,0.00174 0.2448,0.08101 0.28999,0.20731c0.03904,0.10907 0.01378,0.22551 -0.05621,0.30787l-0.23963,0.29225l-0.07951,-0.06521zM293.89459,154.73336c0.94752,0.27172 1.86238,0.6496 2.75995,1.06682c-0.30805,-0.3986 -0.5963,-0.82879 -0.86243,-1.29189c-0.89151,-1.33566 -2.11908,-3.07819 -2.26048,-4.744c-0.07449,-0.87759 0.19979,-1.85771 0.7108,-2.83898l-0.05488,0.02774l-0.07083,-0.14013c-2.01211,1.66094 -4.15846,2.68238 -6.50933,4.1327c2.00757,1.18601 4.68355,2.1849 6.28723,3.78775zM287.02765,151.32566c0,0 -0.00491,-0.00301 -0.01295,-0.00889c-1.92573,1.21991 -3.85873,2.5677 -5.7494,3.95861c2.31175,0.65098 4.73341,1.06594 6.89541,2.09092c1.85739,0.57442 3.7931,1.81773 5.59211,2.70605c1.51478,-0.90811 3.03759,-1.77921 4.4835,-2.62803c-0.13876,-0.11555 -0.27519,-0.23537 -0.40912,-0.35952c-1.38901,-0.66412 -2.76992,-1.32863 -4.2495,-1.81268c-1.77951,-1.64628 -4.4673,-2.66483 -6.55009,-3.94642zM287.93418,157.9489c-2.28627,-1.07902 -4.86766,-1.49539 -7.29892,-2.20725c-1.43149,1.06527 -2.83522,2.15006 -4.18938,3.21699c-6.56933,4.38838 -14.15259,7.94545 -20.05247,13.22258c-2.4453,1.92015 -7.40226,4.14607 -8.9748,6.77343c-0.20561,0.34354 0.56386,1.90731 0.69259,2.1904c1.01196,2.22549 2.61249,4.34859 4.22492,6.16704c0.28165,0.31848 1.26192,1.85289 1.6327,1.97341c0.76177,0.24756 3.2435,-2.3289 3.84353,-2.79798c3.13032,-2.44719 6.25956,-4.83038 9.2542,-7.47643l0.91,-0.71458c0,0 0.02511,-0.01971 0.06973,-0.04723c0.04332,-0.02952 0.07154,-0.04442 0.07154,-0.04442c6.70468,-3.48786 11.64278,-9.30973 18.19628,-12.93208c1.97872,-1.7498 4.367,-3.33543 6.80704,-4.81912c-1.68285,-0.86363 -3.46578,-1.97253 -5.18696,-2.5048zM273.51096,182.38345c-0.54828,1.49851 -3.21161,3.40419 -4.60332,4.63266c0.43145,0.57832 0.85852,1.42719 1.41902,1.47278c1.0435,0.08483 2.51592,-2.32966 3.06481,-2.94481c4.93353,-4.50022 9.87699,-8.58831 16.27731,-10.87815l0.21717,-0.11331c2.00888,-2.65134 5.19434,-4.74258 8.3875,-6.3749c1.91828,-1.15313 3.91873,-1.99678 5.78748,-3.18992c2.3509,-1.50096 4.29596,-3.48988 6.26401,-5.45611c-3.51538,0.83371 -7.30194,0.72608 -10.36757,-0.92592c-4.11391,2.44406 -9.0022,5.05147 -12.5593,8.19709c-6.57266,3.69543 -11.62986,9.42054 -18.32831,13.01928l-0.8029,0.62953c-2.36522,2.09344 -4.83733,3.9993 -7.29084,5.94576c1.22747,0.93515 2.8882,2.42386 3.53136,2.23375c0.861,-0.25452 1.35904,-1.14114 2.03779,-1.70836c-0.00918,-0.02639 -0.014,-0.05157 -0.01549,-0.07548c-0.05425,-0.07782 0.34893,-0.18844 0.46065,-0.33876c0.06984,-0.09398 0.98878,-0.93779 2.07035,-1.89157c1.01008,-0.89076 2.15848,-1.88749 2.98802,-2.18426c0.31023,-0.21028 0.60176,-0.39199 0.95491,-0.51866l0.25597,-0.17087c0.02236,-0.01561 0.04714,-0.02858 0.07407,-0.0382c0.16251,-0.05813 0.34139,0.02646 0.39954,0.18899c0.01769,0.04942 0.02216,0.10037 0.01525,0.14896l-0.04389,0.36378l-0.19359,-0.02335zM309.35901,178.48175c-0.15173,-0.87846 -0.24142,-1.67692 -0.23143,-2.10084c-2.85345,3.36647 -6.92725,5.72004 -10.08497,8.77274c-1.27705,1.23458 -2.34718,3.11841 -4.09006,3.8274c-1.7576,0.71499 -2.73146,-0.1652 -3.92633,-1.29336c-0.76943,-0.98657 -1.66101,-1.56567 -2.1906,-2.73965c-1.32751,-2.94292 -1.3149,-5.51513 -0.44648,-7.75857c-1.68422,0.73437 -3.26229,1.6008 -4.76937,2.56655c2.54375,3.02515 4.88347,6.47062 7.15527,9.67042c1.04228,1.46803 2.26472,4.57672 3.72764,2.14853c2.49199,-2.27832 5.63805,-3.78536 7.82618,-6.45389l0.76002,-0.73938c0,0 0.12005,-0.11644 0.3079,-0.20028c1.57137,-2.02086 3.58622,-3.90238 5.64652,-5.3477zM304.38365,185.99498c0,0 -0.26657,0.37621 -0.68968,0.41403c-2.17864,2.64645 -5.26703,4.1214 -7.74795,6.36326c-1.27724,2.02982 -2.9709,2.32389 -4.70131,0.49815c-3.54566,-3.741 -5.88606,-8.52077 -9.1901,-12.45998c-2.5602,1.80698 -4.94054,3.88328 -7.33018,6.05269c-1.0974,1.23345 -2.57057,3.65096 -4.54474,3.49523c-1.4933,-0.1178 -1.64468,-1.4624 -2.44369,-2.07523c-0.28911,-0.22176 -0.51277,0.51818 -0.78153,0.76417c-0.62354,0.57071 -1.10871,1.23166 -2.02183,1.41029c-2.14963,0.42051 -3.60189,-1.98584 -5.43545,-2.87745c-0.40832,0.32989 -0.81541,0.6622 -1.2207,0.99798c-1.00042,0.82889 -3.22971,2.87714 -4.69862,2.54141c-0.89547,-0.20468 -2.03096,-1.86913 -2.64649,-2.56518c-1.73421,-1.96588 -6.2733,-7.10001 -5.29903,-10.15835c-0.06436,-0.05912 -0.09972,-0.10416 -0.09972,-0.10416c-0.844,-1.08089 -2.66627,-3.54922 -1.9502,-5.06313c0.44475,-0.94027 3.30261,-1.84411 4.24601,-2.3662c3.12404,-1.72888 5.44726,-4.57964 8.70271,-6.35153c4.3563,-0.82266 8.731,-2.1753 12.91208,-3.67114l0.84075,-0.3008c0,0 0.08438,-0.0302 0.21031,-0.04582c1.64553,-0.99399 3.27337,-2.00067 4.85147,-3.05313c4.48391,-3.50487 9.46109,-6.27529 14.11693,-9.42339c1.02438,-0.69266 2.22162,-1.9388 3.39004,-2.27873c-0.77331,-0.90646 0.69664,-2.18241 1.10286,-2.77788c1.97474,-2.89476 4.33126,-4.56967 7.6217,-5.75583c0,0 0.57704,-0.20646 0.96498,0.18103c0.1529,0.03223 0.29598,0.10231 0.41523,0.20362l0.79195,0.64936l-0.13224,0.16125l0.04167,0.0531c3.83178,2.03416 6.61009,5.97507 11.19202,6.85276l0.89274,0.55114c0,0 0.16031,0.11919 0.27796,0.32153c4.78774,0.38645 9.07819,0.52694 13.51225,3.26395c5.85031,4.80439 8.56658,10.11635 11.01796,17.07604c0.69848,0.41943 0.33461,1.1887 0.33461,1.1887l-0.10467,0.22043l-0.00959,0.4345c0,0 -0.02236,0.60539 -0.51777,0.82493c-0.16894,0.44804 -0.35397,0.89014 -0.56108,1.32141c-0.77392,3.88073 -3.09855,6.70896 -5.55427,9.62574c-1.18046,1.40208 -1.96035,3.54157 -3.53385,4.59422c-1.76412,1.18018 -4.58833,1.4919 -6.60232,2.20515c-2.87109,1.57038 -6.75641,2.38136 -9.28536,-0.33897c-0.85074,-0.91511 -1.29359,-2.37223 -2.35888,-3.1469c-0.62578,-0.45505 -1.46916,-0.6743 -1.9218,-1.30186c-0.21342,-0.2959 -0.4265,-0.87552 -0.61692,-1.56403c-2.02499,1.45773 -4.01434,3.39554 -5.43625,5.41353zM245.2774,174.03046c-0.21116,0.44643 0.83766,1.93066 1.42112,2.70312c2.11884,-2.3 6.4692,-4.40505 8.49435,-5.99295c2.51492,-2.20234 5.29258,-4.11599 8.15866,-5.92102c-2.05474,0.59655 -4.12893,1.10548 -6.18882,1.45687c-3.09968,1.78468 -5.38611,4.51938 -8.42105,6.22364c-0.4193,0.23546 -3.37097,1.3331 -3.46424,1.5303zM303.87255,141.01213c-0.01266,0.01085 -0.02555,0.02168 -0.03867,0.03253c0.08158,0.03374 0.16215,0.07041 0.24177,0.1097c-0.06827,-0.04702 -0.13617,-0.09441 -0.20309,-0.14225zM302.31825,139.76329l-0.00898,0.00704l-0.51065,-0.65077c-1.85923,0.69926 -3.42434,1.57811 -4.88815,2.98612c-0.37106,0.35692 -0.6539,0.87073 -0.94721,1.36773c0.24482,-0.22952 0.43743,-0.40145 0.47853,-0.4269c1.63897,-1.01413 3.42055,-1.89271 5.12591,-2.79243c0.70015,-0.38544 1.4816,-0.35469 0.75892,-0.46232zM308.39024,144.46131c0.0429,0.00855 0.08562,0.01749 0.12812,0.0268c-0.80014,-0.53841 -1.57707,-1.12384 -2.34501,-1.73225c0.71222,0.65744 1.41879,1.32025 2.21688,1.70543z" fill="#000000" stroke-width="0.5"></path><path d="M319.29036,163.91758c0,0 1.21827,0.29735 1.63998,0.64931c0.47364,0.39534 1.06421,1.60766 1.06421,1.60766l-9.18664,6.13176l6.48244,-8.38872z" fill="#000000" stroke-width="0"></path></g><path d="M262.93655,207.5149l-4.84565,-1.42041l-2.04237,8.61696l-3.48431,-0.92181l-3.70877,-0.44718l-3.05764,2.47425l-1.49582,4.08402l-2.83491,-0.75989l-27.73379,17.81068l-2.12644,-5.94223l-2.26784,-12.39766l-1.85922,-17.867l-1.11163,1.58491l1.05089,-1.37222c0,0 1.96855,1.31364 5.91225,5.07204c3.99458,3.8069 7.75225,7.2789 10.44795,9.52529c2.69568,2.24639 7.29314,5.25879 7.29314,5.25879l1.31796,-2.14735l4.48365,-7.56021c0,0 1.69929,3.43601 3.14608,5.13065c1.4468,1.69464 4.37068,3.67377 4.37068,3.67377l2.67936,-8.61545l8.78047,3.45882l1.98891,-8.70881l4.91351,1.25933l-0.36255,-6.91758z" fill="#67080a" stroke="#000000" stroke-width="2" stroke-linecap="round"></path><g><g stroke-linecap="round"><path d="M191.22882,135.75903c9.29693,-9.20814 15.62004,-16.7144 27.65825,-18.95337c12.03821,-2.23897 28.61218,-3.26316 26.27618,8.92216c-2.33598,12.18533 -24.21768,6.54398 -29.97749,10.3851c-5.75982,3.84112 -2.45054,11.17284 -8.56814,15.3202c-9.27818,6.29003 -6.67774,-3.77047 -10.43965,-4.04277c-3.19336,-0.23114 -8.22345,8.34863 -10.7069,2.51211c-1.10026,-2.58578 0.57969,-9.01486 5.75775,-14.14344z" fill="#fff3df" stroke="none" stroke-width="0"></path><path d="M192.57691,136.8329c2.7794,-2.75286 7.92513,12.33896 10.98781,10.3807c5.61212,-3.58835 1.43432,-9.79535 7.05257,-14.62925c1.57135,-1.35198 11.95483,-3.42866 13.79933,-3.7717c12.03821,-2.23897 23.08265,-15.27012 20.74665,-3.08481c-2.33598,12.18533 -24.21768,6.54398 -29.97749,10.3851c-5.75982,3.84112 -2.45054,11.17284 -8.56814,15.3202c-9.27818,6.29003 -6.67774,-3.77047 -10.43965,-4.04277c-3.19336,-0.23114 -8.22345,8.34863 -10.7069,2.51211c-1.10026,-2.58579 -0.28854,-5.85031 4.88952,-10.97889z" fill="#cfa7a7" stroke="none" stroke-width="0"></path><path d="M218.88704,116.80568c12.0382,-2.23896 28.61217,-3.26315 26.27618,8.92215c-2.33598,12.18533 -24.21765,6.54399 -29.97747,10.3851c-5.75981,3.84112 -2.45052,11.17285 -8.56813,15.32019c-9.27818,6.29003 -6.67774,-3.77045 -10.43964,-4.04275c-3.19337,-0.23114 -8.22345,8.34862 -10.7069,2.51211c-1.10026,-2.58579 0.57971,-9.01488 5.75774,-14.14346c9.29693,-9.20814 15.62003,-16.71438 27.65824,-18.95336z" fill="none" stroke="#000000" stroke-width="4"></path></g><path d="M209.01199,131.12155c-7.92987,3.99986 -18.78082,5.18445 -15.88767,-2.14663c0.21681,-0.54939 0.53392,-1.65261 0.89158,-2.80215c0.37368,-1.20095 0.79162,-2.45248 1.18578,-3.1759c4.26301,-7.82416 13.16492,-16.30019 25.88525,-10.857c15.02221,6.42821 -4.14507,14.98183 -12.07493,18.98167z" fill="#ffd500" stroke="none" stroke-width="0" stroke-linecap="round"></path><path d="M209.01199,131.12155c-7.92987,3.99986 -18.78082,5.18445 -15.88769,-2.14663c0.21681,-0.5494 0.53392,-1.65261 0.89159,-2.80215c0.37368,-1.20095 0.79162,-2.45248 1.18578,-3.17589c4.26301,-7.82416 3.94566,3.01855 10.53103,3.02379c13.836,0.01102 17.31966,-11.854 18.5445,-11.40092c9.79063,3.62155 -8.21709,12.94671 -15.26521,16.50181z" fill="#ff7e00" stroke="none" stroke-width="0" stroke-linecap="round"></path><path d="M209.23139,131.45908c-7.92987,3.99986 -18.78082,5.18444 -15.8877,-2.14665c1.05099,-2.66315 2.6005,-7.14681 5.43521,-10.5958c4.96861,-6.0453 12.96233,-10.33228 22.52742,-6.23926c15.0222,6.4282 -4.14507,14.98183 -12.07494,18.98167z" fill="none" stroke="#000000" stroke-width="4" stroke-linecap="round"></path><path d="M207.17457,118.41876c0.27332,-2.49438 3.02251,-4.23951 6.14049,-3.89784c3.11797,0.34166 5.424,2.64071 5.15067,5.13508c-0.12425,1.13393 -2.61309,-1.17914 -5.16966,-1.35508c-3.06728,-0.21108 -6.27056,1.47829 -6.1215,0.11783z" fill="#fff45c" stroke="none" stroke-width="0" stroke-linecap="butt"></path></g><g data-paper-data="{&quot;index&quot;:null}"><g stroke-width="2"><path d="M195.38669,223.64471" fill="none" stroke="#000000" stroke-linecap="round"></path><path d="M192.62271,213.674" fill="none" stroke="#000000" stroke-linecap="round"></path><path d="M192.61857,187.06695c0,0 -0.49272,2.88569 -3.47626,2.66693c-2.98351,-0.21876 -1.98059,-0.26132 -4.75501,-2.0224c-3.16832,-2.01112 -9.85072,-6.95111 -9.85072,-6.95111l3.54227,-1.7393c0,0 3.57076,0.5739 5.63343,1.77179c2.99005,1.73645 8.90634,6.27409 8.90634,6.27409z" fill="#312e37" stroke="#000000" stroke-linecap="butt"></path><path d="M147.45578,209.35757c0,0 8.82478,6.02909 13.25429,9.4803c4.70695,3.66739 14.20577,11.9149 14.20577,11.9149l-3.69663,3.86004c0,0 -11.1187,-5.60569 -15.75574,-9.16433c-4.52325,-3.47134 -11.73363,-11.93214 -11.73363,-11.93214l3.72595,-4.1588z" fill="#a09aa6" stroke="none" stroke-linecap="butt"></path><path d="M147.45578,209.35754c0,0 8.82478,6.02909 13.25429,9.4803c4.70695,3.66739 14.20577,11.9149 14.20577,11.9149c0,0 -15.11408,-1.77493 -20.26068,-6.28845c-6.49724,-4.87152 -7.19937,-15.10675 -7.19937,-15.10675z" fill="#695f72" stroke="none" stroke-linecap="butt"></path><path d="M147.45578,209.35757c0,0 8.82478,6.02909 13.25429,9.4803c4.70695,3.66739 14.20577,11.9149 14.20577,11.9149l-3.69663,3.86004c0,0 -11.11868,-5.60568 -15.75574,-9.16433c-4.52325,-3.47134 -11.73363,-11.93214 -11.73363,-11.93214l3.72595,-4.1588z" fill="none" stroke="#000000" stroke-linecap="butt"></path><path d="M172.00488,232.48803c0,0 -12.46956,-6.4651 -17.05842,-10.30426c-4.29549,-3.59371 -9.65282,-12.04304 -9.65282,-12.04304" fill="none" stroke="#000000" stroke-linecap="round"></path><path d="M131.58951,293.6134c0,0 -8.51876,-29.01165 -6.84509,-34.7554c0.87391,-2.99908 13.69921,-23.26754 13.69921,-23.26754l2.79954,-0.14015l-0.34882,-3.70453l2.91992,-1.2017l0.00579,-3.13538l2.79136,-0.94463l0.03897,-3.62874l2.54221,-4.10778l14.42108,12.87679z" fill="#4a627c" stroke="none" stroke-linecap="butt"></path><path d="M147.09032,247.55895l-6.83454,15.55635l-9.52208,-12.01461c0,0 -3.05374,2.08268 -3.9526,6.63969c-1.34471,6.81734 -3.37409,6.45308 -1.4249,0.61388c3.18223,-9.53299 13.0874,-22.7638 13.0874,-22.7638l2.79955,-0.14015l-0.34882,-3.70453l2.91992,-1.2017l0.00579,-3.13537l2.79136,-0.94463l0.03897,-3.62874l2.54221,-4.10778l-8.14793,19.51001z" fill="#91b6c0" stroke="none" stroke-linecap="butt"></path><path d="M149.45342,242.58159l-5.77127,-8.81073" fill="none" stroke="#91b6c0" stroke-linecap="round"></path><path d="M128.14383,273.26743c0,0 -3.4723,-8.95655 -1.90021,-13.56791c1.99618,-5.85525 13.16578,-21.32076 13.16578,-21.32076l4.33883,-1.18295l-0.64407,-3.68272l2.28855,-0.78086l-0.02704,-3.82326l3.54217,-1.26111l-0.05031,-5.6353" fill="none" stroke="#91b6c0" stroke-linecap="round"></path><path d="M131.58948,293.6134c0,0 -8.51876,-29.01165 -6.84509,-34.7554c0.87391,-2.99908 13.69921,-23.26754 13.69921,-23.26754l2.79955,-0.14015l-0.34882,-3.70453l2.91992,-1.2017l0.00579,-3.13537l2.79136,-0.94463l0.03897,-3.62874l2.54221,-4.10778l14.42108,12.87679z" fill="none" stroke="#000000" stroke-linecap="butt"></path><path d="M132.03987,290.94293c0,0 5.38423,-24.07423 12.41166,-37.06257c4.47535,-8.92601 13.39927,-25.15394 13.39927,-25.15394" fill="none" stroke="#000000" stroke-linecap="round"></path></g><g stroke-width="4" stroke-linecap="butt"><g><path d="M189.71078,210.99971c0,0 -0.77123,12.05782 -3.86652,12.04049c-0.93646,-0.00527 -2.51659,-1.08699 -4.71208,-2.80344c-0.30444,-0.23806 -1.06516,-1.16333 -1.39331,-1.42452c-1.11503,-0.88819 -2.78304,-2.10152 -3.92299,-3.11554c-4.1001,-3.64693 -6.9309,-6.74911 -6.92483,-7.82878c0.01181,-2.10478 10.2168,4.82161 13.31209,4.83894c0.23418,0.00134 -2.13011,-6.02489 -0.12034,-10.1567c1.02726,-2.11209 5.8044,-3.46599 7.26195,-3.8111c6.72727,-1.59308 7.77671,8.96306 7.76461,9.28211c-0.11708,3.08774 -7.39871,2.97851 -7.39871,2.97851z" fill="#3300ff" stroke="#000000"></path><path d="M188.0285,215.88416c0,0 -2.0209,-2.95389 -5.36387,-2.97268c-3.34294,-0.01881 -6.25289,5.62154 -6.24898,4.92509c0.00219,-0.38876 -3.11136,-4.82383 -1.72254,-7.45471c1.09906,-2.08198 6.52312,-2.52284 7.99992,-2.51454c1.68313,0.00949 4.02783,2.51151 4.77433,4.65324c0.73616,2.11203 0.56117,3.36359 0.56117,3.36359z" fill="#2d00e3" stroke="none"></path></g><g><path d="M183.1644,201.92511c-0.01087,1.92546 0.74227,5.59907 -0.81329,6.64799c-1.47339,0.99371 -5.04978,2.54741 -5.04978,2.54741c0,0 1.9131,1.21844 1.76962,3.59808c-0.06532,1.08499 -0.87303,2.07442 -1.58646,3.37879c-1.52247,2.7844 -3.79613,4.45607 -5.86975,4.44449c-5.83058,-0.03278 -12.07124,-2.85438 -17.55585,-7.13795c-3.59982,-2.81154 -6.41993,-5.09654 -6.40195,-8.29781c0.02073,-3.68539 -1.34814,-8.74173 1.35505,-11.29891c1.04253,-0.98603 2.46003,-0.62399 3.67978,-0.82167c2.55093,-0.41335 4.78815,-0.43499 4.78815,-0.43499c0,0 1.77126,-4.65537 3.95173,-6.50881c0.87553,-0.74417 1.16823,-1.43088 2.62006,-0.93807c3.0524,1.03602 3.16952,-0.01304 3.16952,-0.01304c0,0 2.25907,-4.61958 4.25303,-5.89025c0.93455,-0.59544 12.87914,2.92123 14.50644,6.53284c1.15819,2.57035 5.85092,6.75782 5.12734,9.81684c-1.3538,5.72323 -7.93994,3.70656 -7.94368,4.37502z" fill="#3300ff" stroke="#000000"></path><path d="M150.69302,205.44174c-0.01303,2.32151 -0.20972,7.39713 -0.20972,7.39713c0,0 -1.81341,-6.43209 -1.80035,-8.75359c0.00489,-0.87232 -0.42598,-8.00912 2.39371,-7.95359c1.5717,0.03096 4.48573,-2.09397 6.54642,-0.91565c2.13543,1.22105 3.44783,-8.11156 4.52926,-6.54427c0.23181,0.33594 5.07226,-0.79747 5.38023,0.57662c0.09896,0.44149 0.80823,-2.17639 2.05515,-4.05316c1.07629,-1.61994 2.72393,-2.55814 2.69544,-2.0405c-0.02957,0.53751 3.75905,-0.12964 8.03106,1.27872c1.78684,0.58907 5.78253,1.88061 7.54025,4.84366c1.96455,3.31171 3.78627,7.6348 3.78627,7.6348c0,0 -13.57978,-7.21322 -16.65351,-6.39096c-2.20611,0.59015 1.70227,5.22901 1.70227,5.22901c0,0 -5.14405,-4.17655 -6.70202,-2.81015c-1.06922,0.93777 -3.1099,2.23572 -3.79055,3.80452c-1.44453,3.3294 4.64546,10.66033 4.66225,10.66042c0.33688,0.00189 -7.76289,-4.37842 -13.48314,-5.92947c-2.58282,-0.70033 -5.01693,-0.22502 -5.13235,0.19831c-0.34597,1.26873 -1.54451,2.66921 -1.55069,3.76818z" fill="#2d00e3" stroke="none"></path><path d="M177.72204,212.90795c-0.92859,-0.00521 -12.05677,-8.81124 -12.05677,-8.81124c0,0 8.29063,5.09092 9.21924,5.09615c0.92862,0.00521 3.35761,0.93982 3.35238,1.86843c-0.00522,0.92859 0.41381,1.8519 -0.5148,1.84667z" fill="#000000" stroke="none"></path><path d="M183.50112,201.84298c-0.00364,0.65003 0.45805,0.67516 -0.42412,0.67019c-0.88218,-0.00496 -8.43993,-9.12719 -8.43993,-9.12719c0,0 9.07668,8.12192 9.95885,8.12689c0.8822,0.00495 -1.0911,-0.31991 -1.09477,0.33013z" fill="#000000" stroke="none"></path><path d="M181.83077,201.56247c-0.01094,1.92535 0.91217,5.26358 -0.64331,6.31262c-1.47335,0.99361 -5.38598,2.54551 -5.38598,2.54551c0,0 1.575,1.55276 1.43152,3.9324c-0.04673,0.77424 -1.23602,2.94901 -1.31924,3.09739c-1.5441,2.75615 -3.57008,4.90846 -5.80173,4.89596c-5.83056,-0.03279 -11.39776,-3.01873 -16.88237,-7.3023c-3.5998,-2.81153 -5.74346,-5.76534 -6.0722,-7.11898c-0.86951,-3.58141 -1.68158,-9.24802 1.02161,-11.8052c1.33533,-1.26314 3.38149,-1.3858 4.92832,-1.49231c2.18621,-0.1505 3.54045,0.0675 3.54045,0.0675c0,0 2.36915,-5.58426 4.60769,-7.18648c0.44825,-0.32073 1.27587,-0.22277 2.32489,-0.21132c1.04057,0.01136 1.6328,-0.23683 1.6328,-0.23683c0,0 2.92873,-4.1114 4.9228,-5.38206c0.52943,-0.33745 9.26409,1.0522 14.40758,4.61307c3.93351,2.72317 5.21006,9.23209 4.89649,10.55769c-1.35391,5.72322 -7.60554,4.04478 -7.60928,4.71324z" fill="none" stroke="#000000"></path><path d="M181.06575,201.5625c-0.01096,1.92545 0.91217,5.26358 -0.64331,6.31262c-1.47337,0.99361 -5.38609,2.5455 -5.38609,2.5455c0,0 1.57509,1.55288 1.43152,3.9324c-0.04662,0.77425 -1.236,2.94901 -1.31913,3.0974c-1.5441,2.75615 -3.57008,4.90846 -5.80173,4.89596c-5.83067,-0.03281 -11.39776,-3.01873 -16.88237,-7.3023c-3.5998,-2.81153 -5.74357,-5.76535 -6.0722,-7.11898c-0.86962,-3.58142 -1.51724,-8.57453 1.18593,-11.13161c1.33534,-1.26326 3.04518,-1.38783 4.59212,-1.49432c2.18609,-0.15042 4.04482,0.07035 4.04482,0.07035c0,0 2.03283,-5.58619 4.27145,-7.18829c0.44814,-0.32076 1.27578,-0.22289 2.3248,-0.21144c1.04057,0.01146 2.30438,-0.06486 2.30438,-0.06486c0,0 2.93076,-4.4477 4.92472,-5.71837c0.52953,-0.33744 8.59442,0.54401 13.73791,4.10488c3.93351,2.72317 5.21006,9.23209 4.89649,10.55769c-1.35391,5.72322 -7.60554,4.04478 -7.60928,4.71324z" fill="none" stroke="#000000"></path></g></g></g></g></g></svg>