<svg version="1.1" xmlns="http://www.w3.org/2000/svg" xmlns:xlink="http://www.w3.org/1999/xlink" width="167.19981" height="117.19118" viewBox="0,0,167.19981,117.19118"><g transform="translate(-154.32828,-142.17244)"><g data-paper-data="{&quot;isPaintingLayer&quot;:true}" fill-rule="nonzero" stroke-linejoin="miter" stroke-miterlimit="10" stroke-dasharray="" stroke-dashoffset="0" style="mix-blend-mode: normal"><g stroke="#ff0000" stroke-width="0" stroke-linecap="round"><path d="M207.84288,164.93478l3.71234,3.78921c0,0 -4.06539,20.81294 -4.05703,21.25333c0.04066,2.1427 1.95502,26.75646 1.95502,26.75646l-2.16554,8.03769l-40.58983,1.83721l-6.65126,-5.41006c0,0 -1.50651,-9.65232 -1.55492,-14.74712c-0.05626,-5.91908 0.34999,-18.66669 0.34999,-18.66669l-4.51337,-8.38215l4.79024,-8.47645z" fill="#000000"></path><path d="M156.17944,179.40264l4.64043,-7.57839l44.7027,-4.59297l2.93894,2.64095l-3.76068,10.45672l0.04837,17.67517l1.85617,19.06079l-1.54681,6.20052l-36.96867,1.49271l-5.72319,-5.16709c0,0 -2.14202,-14.33734 -2.39335,-20.09988c-0.20176,-4.62619 1.00123,-11.82119 1.00123,-11.82119z" fill="#00e397"></path><path d="M156.17944,179.40264l4.64043,-7.57839c0,0 24.97033,-2.56557 33.17269,-3.40832c2.56923,-0.26398 -9.58038,4.14688 -20.62959,7.14767c-7.2903,1.97993 -14.8003,2.95697 -14.8003,2.95697c0,0 -1.26955,2.80216 -1.37113,2.62703c-0.4447,-0.76672 -1.01208,-1.74494 -1.01208,-1.74494z" fill="#00ffa9"></path><path d="M204.40513,180.28504l0.04837,17.67517l1.85618,19.0608l-1.54681,6.20052l-36.72981,1.49271l-5.27838,-5.00199c0,0 2.38016,-14.50243 2.12884,-20.26498c-0.20177,-4.62619 1.00122,-11.82118 1.00122,-11.82118c0,0 11.6811,-2.22613 17.84902,-3.40157c1.21452,-0.23146 9.30504,-6.06252 10.31998,-6.25596c0.96046,-0.18305 10.35139,2.3165 10.35139,2.3165z" fill="#00e397"></path></g><path d="M218.24035,144.96433c18.10609,-0.25952 30.17966,5.60768 35.84698,17.60214c3.57259,7.56114 5.58574,16.70051 6.11255,25.7388c1.36473,23.4136 -4.84138,46.61699 -4.84138,46.61699c0,0 -2.58179,1.42084 -5.18189,1.72019c-2.286,0.26318 -6.64085,0.84576 -8.69048,0.85116c-0.17291,0.00046 -5.21981,-0.41577 -7.62893,-0.77611c-3.11778,-0.46632 -7.73743,-2.41555 -7.73743,-2.41555c0,0 -1.14386,-12.99594 -1.04887,-14.23377c0.0231,-0.301 0.55733,0.0674 0.02735,0.09005c-0.79274,0.03391 -3.05854,0.10315 -5.69047,2.49294c-0.10225,0.09285 -1.99312,8.65956 -2.07524,9.03924c-0.46142,2.13284 -2.19477,5.28092 -2.60696,5.57422c-0.27736,0.19736 -3.58811,1.78231 -6.25241,2.10181c-2.83488,0.33995 -8.12062,0.33233 -11.87053,0.12651c-0.11459,-0.00629 -6.66445,-0.83754 -8.51952,-0.96731c-5.71335,-0.39962 -7.29543,-3.80659 -7.29543,-3.80659c0,0 0.65586,-18.6239 0.62035,-38.39047c-0.02598,-14.46363 -0.11038,-29.84047 6.81329,-40.37028c5.34939,-8.13559 15.31477,-10.78321 30.01906,-10.99396z" fill="#000000" stroke="#ff0000" stroke-width="0" stroke-linecap="round"></path><path d="M218.42875,146.44673c9.49268,-0.13606 17.71392,1.53687 23.40464,4.88864c12.00599,7.07136 15.64931,21.00003 16.57371,36.85905c1.36473,23.41358 -4.62127,45.74546 -4.62127,45.74546c0,0 -1.99476,0.77401 -4.59487,1.07336c-2.47887,0.28538 -5.92361,0.62608 -7.93813,0.57346c-2.01699,-0.05269 -4.62014,-0.20939 -7.28064,-0.60734c-3.11778,-0.46632 -5.75623,-1.70743 -5.75623,-1.70743c0,0 -1.07047,-12.45124 -0.97548,-13.68906c0.05767,-0.75123 2.82447,-1.50886 2.82447,-1.50886c0,0 -7.36251,-1.03142 -11.72506,3.28915c-1.93539,1.91678 -2.12341,5.63428 -2.70135,9.04277c-0.07399,0.43636 -0.15435,0.86762 -0.2456,1.28941c-0.46142,2.13284 -1.66279,4.00086 -2.07497,4.29416c-0.27736,0.19736 -1.9371,1.29207 -4.6014,1.61157c-2.92152,0.35034 -6.6891,0.65896 -10.56377,0.51936c-2.09108,-0.07534 -4.35737,-0.49504 -6.21242,-0.62479c-5.71335,-0.39962 -8.8119,-2.97137 -8.8119,-2.97137c0,0 0.55803,-18.69652 0.52252,-38.46308c-0.03349,-18.6462 -0.66796,-36.42461 12.6207,-44.77516c4.98326,-3.13147 12.95635,-4.70734 22.15709,-4.83921z" fill="#00ffa9" stroke="#ff0000" stroke-width="0" stroke-linecap="round"></path><path d="M253.3619,234.98862c0,0 -1.99476,0.62143 -4.59487,0.86176c-2.47887,0.22913 -5.9236,0.50266 -7.93812,0.46041c-2.01699,-0.04231 -4.62015,-0.16812 -7.28065,-0.48762c-3.11778,-0.37439 -5.75623,-1.37083 -5.75623,-1.37083c0,0 -1.07046,-9.99667 -0.97547,-10.99046c0.05767,-0.60313 2.2183,-1.21141 2.2183,-1.21141c0,0 -6.75632,-0.82809 -11.11888,2.64074c-1.93539,1.53891 -2.12341,4.52356 -2.70135,7.26012c-0.07399,0.35034 -0.15436,0.69658 -0.24561,1.03522c-0.46142,1.71238 -1.66278,3.21215 -2.07496,3.44763c-0.27736,0.15846 -1.93711,1.03736 -4.60141,1.29388c-2.92152,0.28128 -6.68908,0.52906 -10.56376,0.41698c-2.09108,-0.06049 -4.35736,-0.39745 -6.21243,-0.50163c-5.71335,-0.32084 -8.81191,-2.38561 -8.81191,-2.38561c0,0 0.55803,-15.01077 0.52253,-30.88066c-0.01842,-8.22633 -0.21828,-16.24226 1.81033,-22.90747c1.32262,-4.34558 -0.62316,6.47421 5.79486,19.16931c1.65215,3.26803 5.22885,6.49698 7.94337,9.81601c2.11246,2.58289 7.55353,5.21165 14.5693,6.34824c4.00328,0.64854 15.82982,1.37275 15.78548,1.37668c-0.79648,0.07036 6.12717,3.61143 5.60042,6.06954c-0.5094,2.37725 0.68635,4.61411 1.10616,5.06351c0.34892,0.3735 2.02316,1.12555 3.99359,1.48659c1.75654,0.32186 3.74846,0.29706 5.24665,-0.02186c1.19555,-0.25448 5.56688,-2.36655 8.28455,-4.46421c1.51243,-1.16739 1.67427,-2.67625 2.50105,-3.02887c0.80007,-0.34123 -0.64177,3.46026 -0.61381,3.50288c0.50597,0.77114 -1.8871,8.00116 -1.8871,8.00116z" fill="#00e397" stroke="#ff0000" stroke-width="0" stroke-linecap="round"></path><path d="M188.14681,237.09276c-2.97118,-0.76961 -5.12943,-2.02387 -5.12943,-2.02387c0,0 0.55803,-18.69651 0.52253,-38.46307c-0.00869,-4.83952 -0.05787,-9.62058 0.1064,-14.19352c0.10731,-2.98716 2.2707,20.61448 4.70417,38.02431c0.36714,2.62667 1.65529,8.95772 7.3138,12.04047c3.42562,1.86627 10.91917,1.91959 13.73255,1.0184c1.81772,-0.58226 2.55445,-8.41324 6.5786,-11.89166c4.64676,-4.0166 12.56075,-3.57842 13.46257,-3.36585c0.07536,0.01777 -4.85956,-0.04419 -8.03002,1.48805c-3.03293,1.46577 -4.30579,4.40728 -4.31266,4.66781c-0.04686,1.77899 -0.90989,5.8336 -2.02999,8.82451c-0.78789,2.10387 -2.36357,3.5588 -2.36745,3.60434c-0.06713,0.78772 -5.38598,1.70516 -10.81146,1.63439c-6.51027,-0.0849 -13.34534,-1.26219 -13.73961,-1.36433z" fill="#00e397" stroke="#ff0000" stroke-width="0" stroke-linecap="round"></path><path d="M227.6074,233.48976c0,0 -1.07047,-12.45124 -0.97548,-13.68906c0.05767,-0.75123 2.2183,-1.50886 2.2183,-1.50886c0,0 -0.5857,11.46914 6.73498,14.2049c1.67866,0.62732 7.92871,1.82963 12.13677,0.528c3.55,-1.09809 5.24268,-4.65807 5.59311,-4.98068c1.28885,-1.1865 1.52983,-5.25124 2.15803,-5.26104c1.08746,-0.01699 -1.97758,11.35417 -1.97081,11.41981c0.04932,0.47867 -4.94435,1.3686 -9.82397,1.50662c-5.08351,0.14378 -10.06719,-0.47524 -10.31471,-0.51226z" fill="#00e397" stroke="#ff0000" stroke-width="0" stroke-linecap="round"></path><g stroke-linecap="butt"><path d="M216.09029,173.99904c1.02814,-1.63958 2.93715,-0.75655 2.93715,-0.75655c4.55233,2.10577 9.3212,4.51783 14.27867,5.84859c3.79539,1.01881 7.64538,1.73825 11.37242,3.02171l2.191,0.4994c0.26731,0.05523 0.52676,0.15534 0.76328,0.3024c0.97002,0.60308 1.18714,1.76735 0.48496,2.60046c-0.53758,0.63781 -1.45813,0.89664 -2.29545,0.71232l-3.39285,-0.67633c-2.76475,-0.00199 -5.42171,-1.1068 -8.22652,-1.11562c-6.65019,-0.02092 -13.91297,-0.07861 -20.48087,0.81586c-2.80778,0.38238 -5.68312,1.45647 -8.43224,2.1086l-2.3779,0.03324c-0.45561,0.07968 -1.00939,0.05127 -1.54467,-0.2973c-0.35887,-0.18421 -0.69834,-0.48061 -0.85287,-0.95749c-0.21302,-0.45995 -0.15169,-0.87236 0.00419,-1.20555c0.17309,-0.53297 0.56724,-0.84035 0.96869,-1.01761c4.36131,-2.95798 9.20788,-6.65984 14.42103,-8.41676c-0.17687,-0.39258 -0.19734,-0.89449 0.18196,-1.49937z" fill="#3f7ce2" stroke="none" stroke-width="0.5"></path><path d="M221.78601,172.11523c0.61247,-0.14449 1.21266,-0.25667 1.80734,-0.34935c1.92067,-0.7357 3.78713,-1.30829 5.87794,-1.7839c1.97221,-0.27269 3.933,-0.42582 5.87651,-0.45814c1.7948,-0.4764 3.61228,-0.86354 5.51594,-0.87365c1.5692,-0.00832 3.11271,0.36493 4.67925,0.44374l1.99025,0.34045c0,0 1.9963,0.36249 1.70636,2.04742c1.61033,0.5011 3.19599,1.09884 4.75292,1.79407c3.09913,1.38389 6.38866,2.39598 9.10745,4.3569c3.64639,2.62994 6.98563,11.74893 3.16021,9.31379c-0.02842,-0.01585 -0.04354,-0.02523 -0.04354,-0.02523l0.0015,-0.00209c-0.07963,-0.05281 -0.15048,-0.10585 -0.21187,-0.15563c-0.50002,-0.1416 -1.00002,-0.28322 -1.50003,-0.42482c-3.8318,0.04869 -7.80978,0.03365 -11.62495,-0.29442c-2.4581,-0.21138 -4.74171,-0.97028 -7.17616,-1.27975c-2.37195,-0.30153 -5.26837,-0.24234 -7.56048,-0.88402c-6.17841,-1.7297 -17.83857,-6.00487 -23.28586,-9.02975c0,0 3.43578,-0.13398 4.61314,-1.69778c0.5494,-0.72974 1.23892,-0.89875 1.81815,-0.87147c0.11544,-0.04947 0.22982,-0.08845 0.33733,-0.11915c0.09792,-0.0328 0.15866,-0.04721 0.15866,-0.04721z" fill="#98fdff" stroke="none" stroke-width="0.5"></path><path d="M200.51347,183.71049c0.56382,-0.66893 1.54889,-0.92098 2.41737,-0.68215l1.23575,-1.07451l1.30032,-0.99595c0,0 0.12102,-0.0922 0.32627,-0.19782c0.01736,-0.178 0.0661,-0.37106 0.15445,-0.58002c0.73999,-1.75044 2.77807,-1.11488 2.77807,-1.11488c4.05195,1.26702 8.11693,1.68595 12.31839,2.25089c0.71285,0.05756 1.40103,0.1309 2.05533,0.2188c0,0 0.12711,0.01795 0.31427,0.0717c0.39344,0.10592 0.93525,0.33215 1.25022,0.80644c0.20364,0.29357 0.31739,0.68114 0.23579,1.19083c-0.0672,0.51123 -0.28869,0.86277 -0.57032,1.10416c-0.44137,0.39296 -1.0314,0.49749 -1.44309,0.51684c-0.19681,0.01245 -0.32515,0.00295 -0.32515,0.00295l-1.17283,-0.09251c-0.40618,-0.0574 -0.81099,-0.11308 -1.21455,-0.16774c-4.36343,-0.31629 -9.61526,0.15741 -13.39102,1.41746l-0.36005,-0.07495l0.00643,0.1148l-2.20155,0.09113c-0.288,0.01405 -0.58034,-0.02098 -0.85885,-0.10755c-0.71969,0.36281 -1.65099,0.34975 -2.37028,-0.09744c-0.97002,-0.60308 -1.18714,-1.76735 -0.48496,-2.60046z" fill="#00aeff" stroke="none" stroke-width="0.5"></path><path d="M259.93057,176.0332c0.07062,0.03742 0.1413,0.07479 0.21204,0.11214c0.42128,0.13224 0.8508,0.39397 1.10122,0.90067c0.20472,0.31321 0.32955,0.71588 0.18824,1.19422c-0.08159,0.48847 -0.37568,0.81992 -0.70394,1.04249c-0.46364,0.39267 -0.98601,0.49104 -1.43918,0.47141l-2.22644,0.28136c-8.71569,-1.38009 -17.1539,-3.64179 -23.73547,-8.83914c0,0 -1.5958,-1.26075 -0.12786,-2.63132c1.19483,-1.11559 2.47437,-0.48785 2.90911,-0.21566c0.40221,-0.22565 0.87969,-0.32858 1.35263,-0.29774l2.17092,0.11173c1.58152,-0.00256 3.68568,-0.07745 5.21263,0.2558c2.75929,0.60219 4.98377,2.31351 7.37896,3.5187c1.11008,0.55855 2.19992,1.13365 3.28369,1.71498c0.82834,0.1513 1.6649,0.34962 2.52953,0.65823l0.98954,0.55635c0,0 0.72012,0.44772 0.90436,1.16579z" fill="#ffffff" stroke="none" stroke-width="0.5"></path><path d="M244.37555,168.72652c17.63833,4.76637 24.81,15.01554 23.90319,17.49085c-0.90679,2.4753 -13.59499,0.41382 -32.02596,-0.86265c-20.46128,-1.41708 -37.76324,2.91705 -36.85644,0.44173c0.90681,-2.47533 27.34086,-21.83631 44.97921,-17.06994z" fill="none" stroke="#13263b" stroke-width="3"></path></g><g><path d="M304.26726,199.45749c-0.42291,1.07424 -1.73268,1.65253 -2.51203,1.34571c-0.77935,-0.30682 -3.48703,-6.69548 -3.06412,-7.76973c0.22702,-0.57666 -11.3123,-6.97661 -10.58977,-7.12708c0.14708,-0.03063 1.23447,-2.60998 2.42048,-2.10983c3.84147,1.62002 11.16826,8.08291 11.4441,8.19151c0.09281,0.03654 -2.84852,-4.09954 -2.76686,-7.76527c0.14919,-6.69703 3.08078,-15.08315 3.33394,-14.43568c0.23002,0.58827 2.11713,-3.91831 8.26409,-0.54602c2.04277,1.12068 8.66809,6.11003 9.52058,10.6655c1.073,5.7338 -3.27777,11.26051 -3.19952,13.15163c0.16771,4.05362 -5.92894,6.01429 -9.58344,6.54211c-2.07206,0.29927 -3.221,-0.2608 -3.26745,-0.14282z" fill="#516087" stroke="none" stroke-width="0" stroke-linecap="butt"></path><path d="M313.97874,177.02699c-0.27364,0.6951 -1.36633,0.91575 -2.44056,0.49284c-1.07425,-0.42291 -1.72326,-1.32923 -1.4496,-2.02433c0.27364,-0.6951 1.36633,-0.91575 2.44057,-0.49284c1.07425,0.42291 1.72324,1.32923 1.4496,2.02433z" fill="#9ec6c6" stroke="none" stroke-width="0" stroke-linecap="butt"></path><path d="M301.97162,191.63791c-0.19724,0.50104 -0.91901,0.89273 -1.51987,1.2551c-0.61162,0.36887 -1.10352,0.70515 -1.42187,0.84648c-1.11727,0.49594 -3.89125,-3.09526 -3.49322,-4.10631c0.26957,-0.68473 1.47242,-2.23671 2.63846,-2.03597c0.15836,0.02726 -3.10323,-1.97241 -5.86659,-3.20091c-1.55333,-0.69055 -3.79634,0.09591 -3.11639,-1.39022c0.3659,-0.7997 -0.264,-2.4224 0.14176,-4.00882c0.57791,-2.25943 2.33189,-4.62814 4.13759,-6.00647c1.49766,-1.14321 3.60963,-3.69393 5.38503,-4.29428c4.25494,-1.43886 8.12081,0.15604 8.12081,0.15604c0,0 -2.73576,1.36447 -3.9254,6.88056c-0.39542,1.83347 -1.15006,7.86139 0.50235,12.49599c2.12462,5.95903 6.77864,10.65507 6.77864,10.65507c0,0 -3.29308,2.1878 -4.73919,0.91248c-1.16151,-1.02436 -1.63472,-3.04722 -2.22969,-4.7642c-0.65619,-1.8937 -1.37499,-3.43883 -1.39244,-3.3945z" fill="#393b47" stroke="none" stroke-width="0" stroke-linecap="butt"></path><path d="M289.23338,187.61566c0,0 1.65091,-1.09121 2.3848,-1.56058c0.5546,-0.3547 1.6333,-1.00928 1.6333,-1.00928l5.51049,3.45784c0,0 -0.72513,0.97465 -1.27246,1.29247c-0.61919,0.35956 -2.25375,0.7552 -2.25375,0.7552z" fill="#9ec6c6" stroke="none" stroke-width="0" stroke-linecap="butt"></path><path d="M273.987,222.34305c-0.39078,0.99262 -1.90027,1.61407 -3.09826,1.14244c-1.19799,-0.47163 -4.92193,-6.58928 -4.53115,-7.5819c0.39078,-0.99262 25.88618,-27.32308 27.08415,-26.85145c0.16445,0.06474 6.83401,5.99535 6.2966,7.08091c-3.37747,6.82252 -25.41421,25.35363 -25.75134,26.21z" fill="#2e2230" stroke="none" stroke-width="0" stroke-linecap="butt"></path><path d="M299.41606,199.5699c-0.19752,0.50173 4.12493,6.64703 3.77282,7.57269c-0.55269,1.45295 -0.64345,3.66193 -1.86897,5.19296c-1.58288,1.97747 -3.33162,1.35764 -5.47999,2.73885c-1.60341,1.03086 -2.66912,2.9929 -4.16787,4.06101c-1.44869,1.03241 -3.34443,1.19413 -4.10466,0.89484c-0.90879,-0.35777 -5.41027,4.09201 -9.24338,3.65641c-2.35946,-0.26814 -10.13866,-7.37713 -11.78756,-8.4857c-1.79079,-1.20395 0.01566,-6.50408 -0.85007,-7.46254c-1.58821,-1.75834 4.01702,-0.84126 3.34047,-2.39511c-0.45281,-1.03999 -0.77352,-1.89168 -0.49007,-2.61168c0.28976,-0.73602 0.03207,-3.44764 1.03222,-3.70918c0.70068,-0.18322 -5.83707,-6.12372 -4.86577,-6.02313c1.29245,0.13385 1.04943,-4.99038 3.35638,-3.9081c0.93004,0.43631 4.58948,-1.63324 5.67086,-0.8974c6.19636,4.21642 11.53774,15.0403 13.17981,15.68676c3.93624,1.54963 14.00151,-8.11 12.50578,-4.31065z" fill="#00e397" stroke="none" stroke-width="0" stroke-linecap="butt"></path><path d="M297.50423,207.3354c-1.3331,1.65973 -3.80515,2.94151 -6.65489,2.02983c-1.71128,-0.54746 -2.87926,-1.70693 -4.49652,-3.14392c-1.27402,-1.132 -3.08054,-2.48177 -3.91405,-3.52843c-0.5321,-0.66817 6.90688,9.41161 -2.27812,9.30986c-1.23377,-0.01367 -5.21752,-2.75607 -8.06242,-5.16059c-0.39211,-0.33142 -0.75599,-0.65556 -1.0903,-0.96552c-0.32567,-0.30196 -1.53994,-1.89853 -1.99527,-1.69211c-0.1199,0.05436 0.00282,1.2434 1.35551,3.06745c1.6622,2.24139 -3.04729,-2.13576 -2.68055,0.07986c1.27558,7.70619 8.79269,8.38136 9.05902,8.41848c0.65823,0.09177 6.59192,0.23968 -4.30728,-6.05184c-3.29391,-1.90141 -4.00825,-6.50579 -4.04151,-6.53835c-0.42936,-0.42021 1.41273,-4.87957 2.52653,-5.78175c2.43431,-1.97182 5.79802,-0.89638 5.47952,-1.94532c-0.22133,-0.72892 -2.82685,0.66901 -5.68047,-1.50442c-0.84499,-1.04057 -1.10486,-2.06421 -0.64399,-2.98144c0.70957,-1.41217 2.86306,-2.53308 4.49978,-4.28915c1.51396,-1.62436 1.82175,-4.65747 3.45361,-5.64121c1.88366,-1.13553 4.31181,-1.00025 4.43091,-0.9338c3.51499,1.96066 5.05439,3.62087 5.06601,4.8704c0.00818,0.87864 -1.65238,1.48415 0.0434,2.15175c4.10738,1.61701 16.66995,11.84004 9.93101,20.23017z" fill="#00ffa9" stroke="none" stroke-width="0" stroke-linecap="butt"></path><path d="M269.08316,206.10692c0,0 -0.87108,-1.61021 -0.8269,-2.84519c0.04418,-1.23498 0.0992,-1.99747 0.53714,-3.1099c0.43794,-1.11243 0.8342,-1.7109 1.68803,-2.54229c0.85383,-0.83137 1.39873,-1.08453 2.58361,-1.61706c1.18487,-0.53253 3.05652,-0.78188 3.05652,-0.78188c0,0 -0.11547,-1.8433 0.14857,-2.99564c0.26404,-1.15234 0.15002,-1.57748 1.19223,-2.73747c1.04221,-1.16001 2.26552,-1.77935 3.29256,-2.2542c1.02704,-0.47485 1.27938,-0.66689 2.72808,-0.52942c2.24185,0.21275 3.81169,0.99356 5.47182,1.81056c1.66012,0.817 1.82847,0.93679 3.83452,2.7694c2.00605,1.83261 3.35721,3.33238 4.75744,5.07974c1.40025,1.74737 2.32113,3.29688 3.15291,4.79167c0.83178,1.49479 1.37161,2.37035 1.74358,4.00777c0.37196,1.63742 0.31475,2.82581 0.14217,4.29357c-0.17258,1.46777 -0.19462,2.51046 -1.06885,3.58776c-0.87423,1.07728 -1.96768,1.22631 -3.1575,1.6202c-1.18982,0.39389 -2.48405,0.12306 -3.16375,0.47243c-0.67972,0.34937 -0.17931,0.72555 -1.00017,1.66779c-0.82086,0.94223 -1.25758,1.46562 -2.34312,2.16986c-1.08554,0.70425 -2.16424,1.11826 -3.04038,1.32271c-0.87614,0.20445 -0.83647,-0.47727 -2.25649,-0.08663c-1.42002,0.39064 -1.28951,0.78389 -3.39486,1.64128c-1.30501,0.53145 -2.83704,1.74183 -4.56565,1.82887c-1.0601,0.05339 -2.37072,-0.62343 -3.22821,-1.23222c-2.25571,-1.60147 -3.94939,-2.74051 -5.64363,-4.28333c-1.69424,-1.54282 -3.22445,-3.21933 -3.88294,-4.39189c-0.65849,-1.17256 -0.52242,-1.94294 -0.49351,-3.40111c0.02891,-1.45819 0.0061,-2.78365 0.63316,-3.64475c0.62706,-0.86111 3.10363,-0.61062 3.10363,-0.61062z" fill="none" stroke="#000000" stroke-width="2" stroke-linecap="round"></path><path d="M284.51467,205.31023c0,0 -3.28554,-3.30071 -5.39951,-5.48523c-2.58213,-2.6683 -3.12688,-4.85777 -3.12688,-4.85777" fill="none" stroke="#000000" stroke-width="2" stroke-linecap="round"></path><path d="M276.87555,212.496c0,0 -3.26762,-2.18893 -4.64984,-3.33033c-1.25631,-1.03742 -3.30185,-3.23598 -3.30185,-3.23598" fill="none" stroke="#000000" stroke-width="2" stroke-linecap="round"></path><path d="M270.07222,197.72541c0,0 -1.05267,-0.26927 -2.04335,-0.91897c-0.99068,-0.64968 -1.98709,-1.14263 -2.56866,-1.77771c-0.58157,-0.63507 -0.84992,-0.89515 -0.87548,-1.98332c-0.02554,-1.08817 0.38191,-1.77991 1.01499,-2.57819c0.63308,-0.79829 1.07802,-0.96207 2.16902,-1.43668c1.091,-0.47463 1.79132,-0.70879 2.92812,-0.97046c1.24768,-0.28717 2.05629,-0.30997 2.89396,-0.81653c0.83765,-0.50654 1.0929,-0.58532 1.95296,-2.25297c0.86005,-1.66765 0.90158,-2.71468 1.50453,-3.53076c0.54202,-0.73362 1.36542,-0.94171 2.42745,-1.22041c1.06204,-0.27871 1.82377,-0.34308 2.80928,-0.15387c0.98552,0.18923 1.55789,0.60411 2.30179,1.13523c0.7439,0.53112 0.99501,0.81272 1.63188,1.6732c0.63687,0.86049 1.11572,1.43686 1.35862,2.36734c0.2429,0.93047 -0.00313,2.49199 -0.00313,2.49199" fill="none" stroke="#000000" stroke-width="2" stroke-linecap="round"></path><path d="M274.3019,222.20049c0,0 -0.97649,1.2938 -1.89491,1.45652c-0.91842,0.16271 -1.80636,-0.38577 -2.27212,-0.7183c-0.46576,-0.33254 -1.69392,-1.59551 -2.49678,-2.83302c-0.80284,-1.23752 -1.2359,-2.16772 -1.72502,-3.6745c-0.48912,-1.50679 -0.50456,-3.19402 -0.50456,-3.19402" fill="none" stroke="#000000" stroke-width="2" stroke-linecap="round"></path><path d="M288.3125,186.97802c0,0 2.39337,0.86419 3.82824,1.62165c1.43489,0.75746 2.02048,1.01867 3.13725,1.92226c1.11677,0.90358 2.09395,1.77107 3.20364,3.20821c1.1097,1.43716 1.22849,1.94361 1.64128,3.39486c0.41279,1.45125 0.3764,3.6986 0.3764,3.6986" fill="none" stroke="#000000" stroke-width="2" stroke-linecap="round"></path><path d="M287.82521,184.72465c0,0 0.85884,-0.89912 1.59827,-0.85968c0.73945,0.03945 3.24537,0.42283 5.09312,1.3179c1.84776,0.89506 3.24484,2.00141 4.96746,3.67354c1.72262,1.67213 2.42995,2.52352 3.46835,4.57227c1.0384,2.04875 1.05564,2.59765 1.25089,4.38647c0.19527,1.78883 -0.20374,2.55398 -0.20374,2.55398c0,0 -1.00246,0.53144 -1.49552,0.64344c-0.41622,0.09455 -1.2716,-0.01487 -1.2716,-0.01487" fill="none" stroke="#000000" stroke-width="2" stroke-linecap="round"></path><path d="M288.88862,183.76894c0,0 -0.23002,-1.79089 -0.07579,-3.0076c0.15424,-1.21673 0.3665,-2.14785 0.8916,-3.42846c0.5251,-1.28061 0.95074,-2.35319 1.97926,-3.57293c1.02851,-1.21975 2.15934,-2.23906 3.82114,-3.30594c1.6618,-1.06686 2.84434,-1.84328 4.91505,-2.30263c2.07071,-0.45936 3.58539,-0.2973 5.87701,-0.09146c2.29163,0.20584 2.72759,0.28796 4.29984,1.0056c1.57224,0.71762 3.14869,1.65415 4.82613,3.15979c1.67743,1.50564 2.18343,2.23809 3.12871,3.98042c0.94526,1.74234 1.56096,3.05823 1.849,5.19458c0.28805,2.13635 0.06633,3.22355 -0.44653,5.20711c-0.51286,1.98355 -1.30763,3.61169 -2.40241,5.81147c-1.09477,2.19977 -0.96705,2.13006 -1.90222,3.18331c-0.93517,1.05325 -1.93314,1.9295 -3.44766,2.84215c-1.51454,0.91265 -2.38609,0.98791 -3.98982,1.40705c-1.60374,0.41914 -4.05308,0.69497 -4.05308,0.69497" fill="none" stroke="#000000" stroke-width="2" stroke-linecap="round"></path><path d="M292.8608,183.95836c0,0 -0.0487,-1.74028 0.08949,-2.94254c0.13821,-1.20227 0.3034,-2.0143 0.65426,-3.40739c0.35086,-1.39308 0.67072,-2.09033 1.28929,-3.08102c0.61857,-0.99069 0.95343,-1.33426 1.88844,-2.08163c0.93502,-0.74734 1.36486,-0.98077 2.30722,-1.49681c0.94236,-0.51605 2.37001,-1.29934 4.07882,-2.02102c1.70881,-0.72167 2.90426,-0.88001 2.90426,-0.88001" fill="none" stroke="#000000" stroke-width="1.5" stroke-linecap="round"></path><path d="M295.36696,185.05953c0,0 0.24574,-1.14266 0.57069,-2.28389c0.21795,-0.76546 0.40143,-1.43951 0.58013,-1.99695c0.4451,-1.38857 0.78188,-2.2736 1.39938,-3.45762c0.61749,-1.18404 0.78425,-1.653 1.96338,-2.85383c1.17913,-1.20084 1.10619,-1.35057 3.34956,-2.68988c2.24336,-1.33932 6.21792,-2.89685 6.21792,-2.89685" fill="none" stroke="#000000" stroke-width="1.5" stroke-linecap="round"></path><path d="M298.60642,187.59467c0,0 0.23666,-1.48075 0.97881,-3.16508c0.74216,-1.68433 1.23982,-2.71913 2.24652,-4.15489c1.0067,-1.43575 1.86261,-2.2888 3.00288,-3.36083c1.14028,-1.07205 1.18935,-1.10451 3.11324,-2.47751c1.92389,-1.373 5.66797,-3.34241 5.66797,-3.34241" fill="none" stroke="#000000" stroke-width="1.5" stroke-linecap="round"></path><path d="M317.26227,174.43832c0,0 -0.83198,1.38013 -1.91572,2.74452c-0.65709,0.82723 -1.47386,1.57395 -2.0613,2.218c-1.55631,1.70631 -2.24725,2.2628 -3.81905,3.68851c-1.5718,1.42573 -2.21062,2.11796 -3.70897,3.31192c-0.54986,0.43816 -1.41952,1.10128 -2.15066,1.63082c-1.26119,0.91347 -2.47574,1.58716 -2.47574,1.58716" fill="none" stroke="#000000" stroke-width="1.5" stroke-linecap="round"></path><path d="M320.19708,180.36574c0,0 -1.44415,2.63944 -2.49092,4.09685c-1.04677,1.45741 -1.78376,2.3481 -3.22617,3.54016c-1.44242,1.19205 -2.76268,2.10005 -4.75263,3.05375c-0.8182,0.39213 -1.96525,1.03338 -3.12683,1.43558c-1.6635,0.57599 -3.27249,0.85537 -3.27249,0.85537" fill="none" stroke="#000000" stroke-width="1.5" stroke-linecap="round"></path><path d="M319.09943,189.55413c0,0 -2.92071,3.19941 -5.11983,4.66531c-2.19911,1.4659 -3.07781,1.59351 -5.21253,2.18552c-2.13473,0.59201 -4.68709,0.55991 -4.68709,0.55991" fill="none" stroke="#000000" stroke-width="1.5" stroke-linecap="round"></path><path d="M298.03049,169.08134c0,0 1.21422,0.31157 3.07191,0.82759c1.85768,0.51602 2.03223,0.25443 4.75661,1.29994c2.72438,1.04552 4.97719,2.01793 6.78514,3.1293c1.80795,1.11137 2.93921,2.12679 4.09608,3.55956c1.15689,1.43277 1.52891,1.73305 2.14022,4.16392c0.6113,2.43088 0.44905,6.13234 0.44905,6.13234" fill="none" stroke="#000000" stroke-width="1.5" stroke-linecap="round"></path><path d="M293.10167,172.48567c0,0 4.13823,0.64004 6.95297,1.24837c2.81476,0.60833 2.8263,0.76908 4.57937,1.45922c1.75307,0.69016 2.68188,1.09215 4.19392,2.14736c1.51204,1.05523 2.46608,1.8277 3.73848,3.30425c1.27241,1.47656 1.63584,1.96137 2.2883,3.49687c0.65246,1.53549 0.86272,2.70363 1.21186,4.48563c0.34914,1.78201 0.28274,5.87597 0.28274,5.87597" fill="none" stroke="#000000" stroke-width="1.5" stroke-linecap="round"></path><path d="M289.38673,180.75819c0,0 0.7118,-0.39225 1.54748,-0.62634c0.73277,-0.20526 1.54692,-0.25364 2.24715,-0.2849c1.4988,-0.06691 1.9656,-0.0658 3.78294,0.57304c1.81734,0.63884 2.54569,1.09765 4.36622,2.29155c1.82054,1.19391 3.02935,1.88952 4.37249,3.43932c1.34314,1.5498 2.16701,2.82957 2.55794,4.55744c0.39093,1.72787 0.07845,2.49021 -0.50979,4.49503c-0.58824,2.00484 -2.85329,2.76227 -2.17131,4.64262" fill="none" stroke="#000000" stroke-width="1.5" stroke-linecap="round"></path></g><g stroke="#000000" stroke-linecap="round"><path d="M235.17113,211.83425l-3.75,-2.25l-3.25,1.25c0,0 -8.4918,1.30489 -17,1.25c-8.5082,-0.05489 -21.75,-1.5 -21.75,-1.5c0,0 -1.16122,-5.10042 -0.75,-8.75c0.41122,-3.64958 2.75,-9 2.75,-9l9.75,8.75l8.25,5.5l3,-1.75l6.5,4l3.75,-1.5l5.75,3l2.5,-1.75l4.5,2.75l6.5,-4.5z" fill="#ffffff" stroke-width="2"></path><path d="M220.42114,209.33425l-6.5,1.75l-4,-4l-5.5,3.5l-2.5,-8l-6.75,8l-4,-16.25" fill="none" stroke-width="1"></path></g><g><g stroke-width="2"><path d="M183.11105,226.23217" fill="none" stroke="#000000" stroke-linecap="round"></path><path d="M181.38455,219.84801" fill="none" stroke="#000000" stroke-linecap="round"></path><path d="M171.49782,204.05063c0,0 2.55062,-3.68833 4.04665,-5.22179c1.03203,-1.05786 3.37608,-1.9987 3.37608,-1.9987l3.18345,0.4373c0,0 -2.94975,4.05597 -4.47138,5.78245c-1.33245,1.51185 -0.59835,1.36856 -2.65381,1.99986c-2.05549,0.6313 -3.48097,-0.99913 -3.48097,-0.99913z" fill="#312e37" stroke="#000000" stroke-linecap="butt"></path><path d="M212.12858,209.69434l4.21431,1.84289c0,0 -2.01923,6.23501 -3.9685,9.05616c-1.99832,2.8921 -7.8779,8.08887 -7.8779,8.08887l-4.08226,-1.67045c0,0 3.73748,-6.49298 5.74544,-9.4614c1.88962,-2.79343 5.96892,-7.85606 5.96892,-7.85606z" fill="#a09aa6" stroke="none" stroke-linecap="butt"></path><path d="M212.12858,209.69434c0,0 3.30151,6.19469 0.45891,10.17889c-2.00833,3.54465 -12.17326,7.13858 -12.17326,7.13858c0,0 3.73748,-6.49299 5.74545,-9.46141c1.88962,-2.79343 5.96892,-7.85606 5.96892,-7.85606z" fill="#695f72" stroke="none" stroke-linecap="butt"></path><path d="M212.12858,209.69434l4.21431,1.84289c0,0 -2.01923,6.23501 -3.9685,9.05616c-1.99832,2.89211 -7.8779,8.08887 -7.8779,8.08887l-4.08226,-1.67045c0,0 3.73748,-6.49298 5.74544,-9.4614c1.88962,-2.79343 5.96892,-7.85606 5.96892,-7.85606z" fill="none" stroke="#000000" stroke-linecap="butt"></path><path d="M213.96821,209.79595c0,0 -0.69634,5.91677 -2.43701,8.77229c-1.85954,3.05055 -8.38717,8.98458 -8.38717,8.98458" fill="none" stroke="#000000" stroke-linecap="round"></path><path d="M208.82533,225.61791l5.54211,-10.06867l3.34756,2.01155l1.37668,2.14784l2.35027,0.09171l1.16955,1.86051l2.5379,0.22272l1.12713,2.25802l2.05712,-0.3873c0,0 16.71909,9.87797 18.45973,11.51166c3.3336,3.1288 8.01592,21.7848 8.01592,21.7848z" fill="#4a627c" stroke="none" stroke-linecap="butt"></path><path d="M227.45473,225.76302l-13.08726,-10.21377l3.34756,2.01155l1.37668,2.14784l2.35027,0.09171l1.16954,1.86051l2.5379,0.22272l1.12713,2.25802l2.05712,-0.3873c0,0 12.01186,6.19046 17.83431,11.31541c3.5664,3.13916 2.24835,3.69649 -1.24868,-0.12499c-2.33757,-2.55444 -5.29877,-3.27771 -5.29877,-3.27771l-2.35393,8.73344l-10.67708,-8.08721z" fill="#91b6c0" stroke="none" stroke-linecap="butt"></path><path d="M223.90552,223.55439l-0.85848,6.20091" fill="none" stroke="#91b6c0" stroke-linecap="round"></path><path d="M215.82844,217.44325l2.05857,3.35415l3.00564,0.15341l1.40172,2.27443l1.9293,0.07897l0.90756,2.29469l3.54715,-0.02688c0,0 13.74807,7.3047 17.35408,10.4455c2.83994,2.47357 3.68218,8.37467 3.68218,8.37467" fill="none" stroke="#91b6c0" stroke-linecap="round"></path><path d="M208.82535,225.61791l5.54213,-10.06866l3.34756,2.01155l1.37668,2.14784l2.35027,0.09171l1.16954,1.86051l2.5379,0.22272l1.12713,2.25802l2.05712,-0.3873c0,0 16.7191,9.87797 18.45973,11.51166c3.3336,3.1288 8.01591,21.7848 8.01591,21.7848z" fill="none" stroke="#000000" stroke-linecap="butt"></path><path d="M211.88299,222.94075c0,0 12.4231,8.13477 18.94607,12.68202c9.86071,6.53016 22.66511,19.9182 22.66511,19.9182" fill="none" stroke="#000000" stroke-linecap="round"></path></g><g stroke-width="4" stroke-linecap="butt"><g><path d="M182.47615,217.77084c0,0 -5.17448,1.28863 -6.40604,-0.52489c-0.12726,-0.18739 -3.29929,-6.63097 2.11089,-6.81577c1.17217,-0.04007 5.09678,-0.03912 6.61756,1.04218c2.97515,2.1153 3.52177,6.09045 3.68899,6.05029c2.2104,-0.53049 6.94469,-6.35781 7.73548,-5.11018c0.40565,0.63999 -0.4687,2.95752 -2.04963,5.81178c-0.43952,0.79362 -1.18316,1.79431 -1.65161,2.50902c-0.13794,0.21022 -0.33884,0.88741 -0.4684,1.0799c-0.93441,1.38805 -1.66403,2.29583 -2.33276,2.45634c-2.2104,0.53049 -7.24455,-6.49865 -7.24455,-6.49865z" fill="#00ffa9" stroke="#000000"></path><path d="M185.4964,220.38806c0,0 -0.59053,-0.71365 -0.84832,-2.09129c-0.26143,-1.39701 0.48786,-3.27654 1.68979,-3.56504c1.0546,-0.25313 5.10315,-0.90298 6.66416,0.14839c1.97255,1.32855 1.39111,4.48494 1.53718,4.71538c0.26166,0.41283 -3.91891,-2.44681 -6.30612,-1.87381c-2.38724,0.57299 -2.73666,2.66637 -2.73666,2.66637z" fill="#00e397" stroke="none"></path></g><g><path d="M183.7916,211.28301c-0.25114,-0.39624 -4.21853,1.90797 -7.31541,-1.26241c-1.65524,-1.69453 0.14923,-4.96934 0.02334,-6.69001c-0.17694,-2.41772 7.07062,-6.51304 7.96126,-6.31659c1.90037,0.41928 5.23537,2.78227 5.23537,2.78227c0,0 0.47382,0.60315 2.27485,-0.52494c0.85663,-0.53659 1.3215,-0.17808 2.22516,0.11659c2.25056,0.73393 5.2495,3.20016 5.2495,3.20016c0,0 1.61033,-0.36316 3.59093,-0.54647c0.94705,-0.08764 1.8277,-0.5408 2.94086,-0.13061c2.88651,1.0639 3.78553,4.29592 5.17022,6.48046c1.20277,1.89758 0.03234,3.72815 -1.50082,6.00238c-2.33589,3.46493 -5.75667,6.18896 -9.92033,7.18834c-1.48081,0.35538 -3.73056,-0.25498 -5.85588,-1.65221c-0.99578,-0.65451 -1.94202,-1.10619 -2.39209,-1.73937c-0.98725,-1.38869 -0.06998,-2.4336 -0.06998,-2.4336c0,0 -3.13891,-0.32137 -4.5635,-0.66371c-1.50396,-0.36132 -2.33002,-2.66892 -3.05349,-3.81025z" fill="#00ffa9" stroke="#000000"></path><path d="M208.35463,207.9136c-0.4129,-0.65142 -1.79185,-1.28146 -2.51121,-1.97656c-0.24001,-0.23193 -2.15999,-0.10505 -3.74948,0.74482c-3.52031,1.88223 -7.69321,5.84412 -7.45264,5.78639c0.01199,-0.00287 1.64877,-5.37878 -0.62332,-7.11269c-1.07059,-0.81701 -3.01456,-1.24464 -4.1289,-1.6217c-1.62369,-0.5494 -3.75545,2.79477 -3.75545,2.79477c0,0 1.07494,-3.41097 -0.72443,-3.39058c-2.50703,0.0284 -9.55172,6.5932 -9.55172,6.5932c0,0 -0.30215,-2.8728 -0.12609,-5.16914c0.15752,-2.05459 2.53917,-3.49292 3.59995,-4.14295c2.53612,-1.55413 5.4975,-1.79477 5.27654,-2.10891c-0.2128,-0.30254 1.31595,-0.02244 2.6889,0.75844c1.59062,0.90468 3.07166,2.33972 2.97843,2.06097c-0.29017,-0.86756 3.59783,-1.00816 3.63898,-1.24657c0.19197,-1.11226 4.60077,4.20798 5.67631,3.12414c1.03788,-1.0459 3.91472,-0.27407 5.02886,-0.55659c1.99882,-0.50686 4.34292,3.8027 4.67067,4.31978c0.87225,1.37609 1.96424,5.49961 1.96424,5.49961c0,0 -2.02744,-2.98035 -2.89967,-4.35645z" fill="#00e397" stroke="none"></path><path d="M191.77161,216.88894c-0.66313,0.15917 -0.70621,-0.45942 -1.0551,-1.00985c-0.34891,-0.55044 1.04334,-1.51355 1.70648,-1.67271c0.66313,-0.15917 4.70859,-4.57503 4.70859,-4.57503c0,0 -4.69683,7.09843 -5.35994,7.25757z" fill="#000000" stroke="none"></path><path d="M183.51989,211.29089c-0.24425,-0.38532 -1.53677,0.1392 -0.90678,-0.01201c0.62996,-0.15122 4.1118,-6.49869 4.1118,-6.49869c0,0 -2.02216,6.68608 -2.65214,6.8373c-0.62996,0.15122 -0.30864,0.0587 -0.55286,-0.32661z" fill="#000000" stroke="none"></path><path d="M184.61187,210.84355c-0.25114,-0.39624 -4.10468,1.65093 -7.20162,-1.51941c-0.7173,-0.73431 -2.22236,-4.81322 -0.41737,-7.09106c2.3602,-2.97854 8.09942,-5.27157 8.60402,-5.1602c1.90045,0.41926 5.52617,2.368 5.52617,2.368c0,0 0.51641,0.04782 1.25744,-0.13381c0.74705,-0.1831 1.30338,-0.38036 1.74363,-0.26527c2.19877,0.57503 5.97118,3.49224 5.97118,3.49224c0,0 0.88887,-0.35702 2.51057,-0.6351c1.14743,-0.19673 2.65847,-0.46779 4.08433,0.05771c2.88651,1.0639 4.41115,4.56466 5.1196,6.83709c0.2677,0.85891 -0.16968,2.97287 -1.70281,5.24708c-2.33589,3.46493 -5.21325,6.17334 -9.37689,7.17272c-1.59366,0.38249 -3.84466,-0.55486 -5.97498,-1.93168c-0.11475,-0.0741 -1.77487,-1.1654 -2.09611,-1.61721c-0.98725,-1.38869 -0.4364,-2.57526 -0.4364,-2.57526c0,0 -3.37905,-0.26379 -4.80358,-0.60608c-1.50395,-0.36139 -2.08362,-2.49846 -2.8071,-3.6397z" fill="none" stroke="#000000"></path><path d="M184.3254,210.91079c-0.25114,-0.39624 -4.10468,1.65093 -7.20162,-1.51941c-0.7173,-0.73431 -2.22236,-4.81322 -0.41736,-7.09106c2.3602,-2.97854 7.80863,-4.85728 8.3133,-4.74594c1.90037,0.41928 5.65255,2.56734 5.65255,2.56734c0,0 0.9335,-0.16709 1.67449,-0.34878c0.74705,-0.1831 1.30343,-0.3803 1.74361,-0.26518c2.19879,0.57494 5.73104,3.54983 5.73104,3.54983c0,0 1.24916,-0.44346 2.87074,-0.72156c1.14749,-0.19676 2.41838,-0.41016 3.8443,0.11541c2.88646,1.06384 4.27853,4.1371 4.9869,6.40955c0.26777,0.85889 -0.16968,2.97287 -1.70281,5.24708c-2.33589,3.46493 -5.21317,6.17333 -9.37688,7.17273c-1.59366,0.38249 -3.84466,-0.55486 -5.97498,-1.93168c-0.11469,-0.07412 -1.77487,-1.1654 -2.09604,-1.61724c-0.98727,-1.3886 -0.4364,-2.57526 -0.4364,-2.57526c0,0 -3.37911,-0.26377 -4.80365,-0.60606c-1.50395,-0.36139 -2.08357,-2.49841 -2.8071,-3.6397z" fill="none" stroke="#000000"></path></g></g></g><g stroke="#000000" stroke-width="3.5" stroke-linecap="butt"><path d="M180.80437,169.29945c-0.15263,-2.55668 1.3572,-6.46382 7.46088,-11.90899c5.73886,-5.11971 11.87331,-6.18301 13.07464,-7.1453c0.70605,-0.56557 3.00782,0.1548 4.6474,1.31377c0.83585,0.59083 1.65587,1.17048 2.22671,1.57398c1.41442,0.99981 3.95146,2.71064 2.32793,4.01112c-1.61654,1.2949 -6.93753,2.69832 -13.66212,7.61589c-6.05109,4.42506 -11.02952,10.41431 -12.37502,9.46322c-1.19356,-0.84369 -3.54778,-2.367 -3.70042,-4.92368z" fill="#4f5357"></path><path d="M226.53006,153.82413c-0.19979,4.28666 -5.60046,7.38529 -12.06275,6.92098c-6.46229,-0.46432 -11.53904,-4.31575 -11.33926,-8.60241c0.19978,-4.28667 5.60046,-7.38529 12.06274,-6.92098c6.46229,0.46431 11.53905,4.31574 11.33926,8.60241z" fill="#75756c"></path><g><path d="M226.23973,150.00917c-0.19353,3.01692 -5.42525,5.1977 -11.68537,4.87093c-6.26011,-0.32678 -11.17803,-3.03738 -10.9845,-6.05431c0.19353,-3.01692 5.42524,-5.1977 11.68535,-4.87093c6.26011,0.32679 11.17804,3.0374 10.98451,6.05431z" fill="#533023"></path><path d="M209.8667,152.66788l3.60864,-7.68166c0,0 1.85759,-0.11379 2.80331,0.118c0.99464,0.24379 4.88845,1.4078 4.88845,1.4078l-5.12543,7.04034z" fill="#b08a80"></path></g><path d="M248.63547,169.52962c-0.86547,0.98748 -3.42911,-5.48417 -8.00051,-9.37793c-5.0802,-4.32713 1.03374,-12.12515 5.44128,-7.54832c4.68773,4.86778 4.66645,9.54266 4.75936,12.00001c0.09291,2.45735 -1.43239,4.05028 -2.20013,4.92624z" data-paper-data="{&quot;index&quot;:null}" fill="#4f5357"></path><path d="M239.6438,147.42108c5.95791,2.15095 9.31859,7.17828 7.50628,11.22887c-1.8123,4.05059 -8.11132,5.59057 -14.06923,3.43962c-5.95791,-2.15095 -9.31859,-7.17828 -7.50628,-11.22887c1.8123,-4.05059 8.11132,-5.59056 14.06923,-3.43961z" fill="#75756c"></path><g><path d="M249.628,155.30606c-1.18008,2.89775 -6.8942,3.59187 -12.76286,1.55037c-5.86867,-2.04151 -9.6695,-6.04555 -8.48942,-8.94331c1.18008,-2.89775 6.8942,-3.59188 12.76286,-1.55037c5.86867,2.0415 9.6695,6.04556 8.48942,8.94331z" fill="#533023"></path><path d="M233.11971,153.40321l5.97938,-6.5212c0,0 1.81097,0.39964 2.63737,0.88648c0.86915,0.51203 4.20252,2.72162 4.20252,2.72162l-7.21587,5.47669z" fill="#b08a80"></path></g></g></g></g></svg>