<svg version="1.1" xmlns="http://www.w3.org/2000/svg" xmlns:xlink="http://www.w3.org/1999/xlink" width="245.98735" height="218.26968" viewBox="0,0,245.98735,218.26968"><g transform="translate(-108.38102,-100.09512)"><g data-paper-data="{&quot;isPaintingLayer&quot;:true}" fill-rule="nonzero" stroke-linejoin="miter" stroke-miterlimit="10" stroke-dasharray="" stroke-dashoffset="0" style="mix-blend-mode: normal"><g stroke="#ff0000" stroke-width="0" stroke-linecap="round"><path d="M220.05504,154.69505l4.87316,4.56493c0,0 2.00865,30.23499 2.14671,30.85484c0.67166,3.01579 9.85227,37.35357 9.85227,37.35357l0.17283,11.80205l-40.55031,11.1594l-8.32529,-6.23246c0,0 -4.36531,-13.3061 -5.91347,-20.48706c-1.79865,-8.34278 -5.13839,-26.4215 -5.13839,-26.4215l-7.03555,-10.8787l2.35517,-12.97528z" fill="#000000"></path><path d="M172.01109,186.01936l2.46776,-11.67607l43.90308,-15.9171l3.75232,3.10741l-0.73021,15.55311l5.24991,24.93792l7.48774,26.51217l0.25861,9.07835l-36.98582,9.90894l-7.31426,-6.08538c0,0 -6.38724,-19.78478 -8.33731,-27.86545c-1.56551,-6.48719 -2.46481,-16.89667 -2.46481,-16.89667z" fill="#2d00e3"></path><path d="M172.01109,186.01936l2.46776,-11.67607c0,0 24.52367,-8.89107 32.5793,-11.81165c2.52328,-0.91482 -8.47842,7.87512 -18.78105,14.44252c-6.79771,4.3332 -14.11291,7.2972 -14.11291,7.2972c0,0 -0.46069,4.22312 -0.61505,3.99736c-0.6758,-0.98836 -1.53802,-2.24936 -1.53802,-2.24936z" fill="#3300ff"></path><path d="M220.50832,170.9565l5.24991,24.93792l7.48775,26.51216l0.25861,9.07835l-36.74401,9.85853l-6.81538,-5.94622c0,0 -1.85781,-20.97219 -3.80788,-29.05285c-1.56552,-6.48719 -2.46482,-16.89666 -2.46482,-16.89666c0,0 11.17026,-5.60736 17.06845,-8.56818c1.1614,-0.583 7.63601,-10.52089 8.60656,-11.00811c0.91845,-0.46106 11.16081,1.08509 11.16081,1.08509z" fill="#2d00e3"></path></g><path d="M212.31,255.20752c-3.07253,-1.10965 -5.30439,-2.91807 -5.30439,-2.91807c0,0 0.57706,-26.95707 0.54035,-55.45698c-0.00899,-6.97773 -0.05985,-13.87117 0.11003,-20.46454c0.11097,-4.30697 2.34815,29.72245 4.86462,54.82434c0.37967,3.7872 1.71176,12.91546 7.56327,17.36024c3.54247,2.69084 11.29162,2.7677 14.20096,1.46836c1.87972,-0.83952 2.64158,-12.1304 6.80299,-17.14567c4.80526,-5.79124 12.98919,-5.15945 13.92177,-4.85297c0.07793,0.02561 -5.02531,-0.06371 -8.30391,2.1455c-3.13638,2.11339 -4.45266,6.35452 -4.45976,6.73016c-0.04846,2.56499 -0.94092,8.41103 -2.09923,12.72338c-0.81477,3.03341 -2.4442,5.13118 -2.44821,5.19682c-0.06942,1.13575 -5.56969,2.45854 -11.18023,2.35651c-6.73233,-0.12242 -13.80053,-1.81985 -14.20825,-1.96713z" fill="#bdb05b" stroke="#ff0000" stroke-width="0" stroke-linecap="round"></path><path d="M301.76902,238.27279c0,0 -2.9548,1.77306 -3.91994,1.6519c-5.66603,-0.71133 -23.08047,-5.08758 -27.8893,-6.34214c-6.98648,-1.82272 -13.0633,-2.71145 -13.0633,-2.71145l-10.77367,2.15l-4.17217,22.03749c0,0 -6.70472,3.1105 -17.31351,3.33473c-6.07309,0.12835 -16.87382,-1.93511 -16.9854,-3.12089c-0.55899,-5.94056 -4.07485,-26.08652 -7.59876,-47.63621c-2.44014,-14.9221 -5.39162,-32.12801 -5.13832,-46.57034c0.37529,-21.39732 7.90368,-36.61457 27.69856,-40.63446c21.42757,-4.35145 38.51338,10.66866 47.39712,33.25405c7.28988,18.53327 11.23693,36.44665 12.26463,40.72956c0.16087,0.67041 0.58468,0.19039 0.58468,0.19039l20.95608,7.22289c0,0 3.75969,5.33939 3.49162,16.6002c-0.3969,16.67179 -5.53832,19.84432 -5.53832,19.84432z" fill="#000000" stroke="#ff0000" stroke-width="0" stroke-linecap="round"></path><path d="M299.84165,235.94103c0,0 -3.8504,0.24071 -8.09122,-0.2837c-4.01188,-0.4961 -8.34056,-1.74034 -11.20243,-2.355c-6.77684,-1.45549 -21.86697,-5.75276 -21.86697,-5.75276l-15.26801,3.40111l-3.38536,22.14795c0,0 -4.84323,3.25751 -14.68446,3.47057c-5.6337,0.12198 -15.73606,-2.43251 -15.73606,-2.43251c0,0 -2.99285,-22.89385 -6.9143,-47.45844c-2.26359,-14.17946 -5.79671,-30.52908 -5.56174,-44.25263c0.34815,-20.33242 7.33184,-36.06482 25.69452,-39.88465c19.87726,-4.13488 37.47629,11.09207 45.71729,32.55342c7.82099,20.36757 11.43076,42.21962 11.43076,42.21962l21.61929,6.17005c0,0 3.01448,3.20168 2.76579,13.90204c-0.36819,15.84208 -4.51716,18.55491 -4.51716,18.55491z" fill="#2d00e3" stroke="#ff0000" stroke-width="0" stroke-linecap="round"></path><path d="M296.11899,225.37785c0,0 -0.00863,-3.09888 -8.61991,-4.3685c-3.56287,-0.52529 -5.351,-12.13148 -7.65817,-22.85108c-2.37695,-11.0438 -3.44154,-22.95816 -4.99537,-22.82092c-1.7342,0.15316 -45.34357,13.12123 -59.14497,9.53077c-5.15362,-1.34073 4.82012,32.37123 0.87706,28.53776c-12.3786,-12.03452 -19.35145,-53.84702 -19.34443,-53.9836c0.97012,-18.86691 8.14453,-33.25178 25.59252,-36.88135c19.87726,-4.13488 37.47628,11.09207 45.71728,32.55342c7.82099,20.36757 11.43076,42.21962 11.43076,42.21962c0,0 15.87386,4.53034 19.21937,5.48511c0.51938,0.14821 -2.49275,3.92073 -3.25071,8.78113c-0.96727,6.20261 0.17659,13.7976 0.17659,13.7976z" fill="#3300ff" stroke="#ff0000" stroke-width="0" stroke-linecap="round"></path><path d="M224.42177,140.94676c0,-8.21633 6.82176,-14.87698 15.23685,-14.87698c8.41508,0 15.23685,6.66065 15.23685,14.87698c0,8.21633 -6.82177,14.87697 -15.23685,14.87697c-8.41508,0 -15.23685,-6.66064 -15.23685,-14.87697z" fill="#3300ff" stroke="none" stroke-width="0" stroke-linecap="butt"></path><path d="M300.0131,235.94103c0,0 -3.8504,0.24071 -8.09122,-0.2837c-4.01188,-0.4961 -8.34056,-1.74034 -11.20242,-2.355c-6.77684,-1.45549 -21.86697,-5.75276 -21.86697,-5.75276l-15.26802,3.40111l-3.38535,22.14795c0,0 -4.84323,3.25751 -14.68446,3.47057c-5.6337,0.12198 -15.73606,-2.43251 -15.73606,-2.43251c0,0 -2.99285,-22.89385 -6.91429,-47.45844c-1.055,-6.6086 -2.38574,-13.68861 -3.48227,-20.75445c-0.3401,-2.19152 8.23792,52.36334 23.64989,64.53996c1.66532,1.31573 11.0306,-2.35931 13.27489,-7.85833c2.58864,-6.34272 -1.91742,-14.72488 0.23863,-14.34745c5.02693,0.87999 10.79984,-3.40055 21.65881,-4.20847c10.50971,-0.78193 32.97702,12.06035 41.18403,10.21746c0.67251,-0.15102 -1.76548,-2.3294 -2.71236,-5.26196c-0.86693,-2.68493 -0.23434,-6.02913 -0.02498,-8.46378c0.48455,-5.63502 1.87352,-11.96839 2.26351,-13.33573c1.2402,-4.3482 2.84997,-3.72143 2.84997,-3.72143c0,0 3.01448,3.20168 2.7658,13.90205c-0.36819,15.84208 -4.51717,18.55491 -4.51717,18.55491z" fill="#2d00e3" stroke="#ff0000" stroke-width="0" stroke-linecap="round"></path><g stroke-linecap="butt"><path d="M219.09767,167.34507c0.52934,-2.24165 2.71312,-1.65928 2.71312,-1.65928c5.20761,1.38882 10.72595,3.09273 16.10271,3.44246c4.1164,0.26774 8.19599,0.15998 12.32479,0.76478l2.34917,0.04735c0.28487,-0.00109 0.57558,0.05401 0.85766,0.17165c1.15686,0.48244 1.73054,1.8339 1.28136,3.01854c-0.34388,0.90694 -1.18759,1.45322 -2.08335,1.443l-3.60813,0.04387c-2.77225,0.69914 -5.77367,0.03863 -8.58818,0.73968c-6.67318,1.66219 -13.97171,3.43542 -20.28248,6.18259c-2.69786,1.17442 -5.25192,3.20165 -7.80849,4.68706l-2.37366,0.64354c-0.43238,0.21186 -0.99622,0.31806 -1.63942,0.03279c-0.4161,-0.13148 -0.84705,-0.40342 -1.14779,-0.94033c-0.35421,-0.50161 -0.41882,-1.0154 -0.36444,-1.45748c0.01055,-0.6878 0.31167,-1.15917 0.65993,-1.47517c3.46767,-4.68017 7.19436,-10.38219 11.88326,-13.82754c-0.29737,-0.42939 -0.47136,-1.03057 -0.27607,-1.85755z" fill="#3f7ce2" stroke="none" stroke-width="0.5"></path><path d="M224.23151,163.62398c0.56982,-0.32997 1.1372,-0.6178 1.70502,-0.88067c1.7005,-1.37615 3.39651,-2.54152 5.3471,-3.64664c1.89374,-0.82986 3.81259,-1.51242 5.75107,-2.04462c1.6536,-1.03095 3.35722,-1.95985 5.26255,-2.45511c1.57056,-0.40823 3.23206,-0.34898 4.82661,-0.65127l2.09932,-0.09373c0,0 2.11212,-0.06862 2.33669,2.04049c1.76758,0.19677 3.53997,0.51652 5.31337,0.96138c3.53004,0.88548 7.13727,1.27347 10.46245,2.95255c4.4597,2.25196 10.59573,12.42122 6.01613,10.45004c-0.03333,-0.01193 -0.05136,-0.01943 -0.05136,-0.01943l0.00087,-0.00289c-0.09598,-0.04359 -0.18322,-0.08969 -0.25999,-0.13425c-0.54456,-0.04419 -1.08913,-0.08841 -1.63368,-0.13259c-3.82647,1.03113 -7.81896,2.02238 -11.74397,2.59411c-2.52887,0.36836 -5.05023,0.03101 -7.58538,0.27487c-2.47007,0.23759 -5.35562,1.04407 -7.84967,0.85047c-6.72273,-0.52187 -19.71928,-2.72795 -26.10513,-5.00005c0,0 3.40338,-1.03368 4.10549,-3.22164c0.32763,-1.02101 0.96718,-1.40014 1.55619,-1.51417c0.10061,-0.08906 0.20334,-0.16518 0.30174,-0.22955c0.08813,-0.06446 0.14462,-0.09728 0.14462,-0.09728z" fill="#98fdff" stroke="none" stroke-width="0.5"></path><path d="M206.45162,183.02998c0.36067,-0.9512 1.27113,-1.50565 2.2148,-1.43751l0.91025,-1.61169l0.99902,-1.53316c0,0 0.09313,-0.1421 0.26659,-0.32179c-0.03703,-0.21944 -0.0472,-0.46504 -0.02254,-0.73991c0.20657,-2.30247 2.44408,-2.05183 2.44408,-2.05183c4.4495,0.5025 8.65271,-0.02285 13.0374,-0.40646c0.73224,-0.11134 1.44456,-0.19736 2.12737,-0.25721c0,0 0.13291,-0.01057 0.33698,0.00687c0.42681,0.02813 1.03915,0.16394 1.49993,0.65701c0.29392,0.30298 0.52647,0.74235 0.60052,1.3788c0.08896,0.63467 -0.02559,1.11556 -0.2341,1.47865c-0.32231,0.58673 -0.88185,0.86273 -1.28865,0.99059c-0.1935,0.065 -0.32506,0.08606 -0.32506,0.08606l-1.20405,0.18585c-0.42476,0.03372 -0.84759,0.06918 -1.26887,0.10553c-4.47103,0.72509 -9.59111,2.63 -12.99098,5.11037l-0.38386,0.00082l0.04155,0.13706l-2.17918,0.66874c-0.28443,0.09006 -0.5882,0.12192 -0.89387,0.088c-0.61054,0.62094 -1.54817,0.84147 -2.40599,0.48374c-1.15686,-0.48244 -1.73054,-1.8339 -1.28136,-3.01854z" fill="#00aeff" stroke="none" stroke-width="0.5"></path><path d="M263.6694,158.67813c0.08223,0.02727 0.16452,0.05449 0.24686,0.08167c0.46276,0.05286 0.9734,0.26006 1.37939,0.80866c0.30102,0.32644 0.54928,0.78123 0.55388,1.39496c0.06757,0.61084 -0.12589,1.08586 -0.38691,1.43803c-0.34472,0.59201 -0.83832,0.84341 -1.29862,0.93469l-2.14596,0.90487c-9.15944,0.5443 -18.3103,-0.04686 -26.49757,-4.6557c0,0 -1.98531,-1.11818 -0.93281,-3.14643c0.85667,-1.65092 2.33136,-1.21722 2.85042,-0.99872c0.33422,-0.37466 0.78141,-0.62018 1.26496,-0.70292l2.2105,-0.41589c1.58469,-0.4044 3.67119,-1.02879 5.30384,-1.01367c2.9503,0.02734 5.70364,1.53033 8.47334,2.37853c1.28365,0.3931 2.55206,0.81134 3.81631,1.23862c0.87667,-0.02741 1.77596,-0.0001 2.73712,0.15335l1.16213,0.42102c0,0 0.85882,0.35815 1.2631,1.17892z" fill="#ffffff" stroke="none" stroke-width="0.5"></path><path d="M245.84117,153.79806c19.13981,1.28254 29.46344,11.84469 29.31129,15.0652c-0.15213,3.22049 -13.50236,3.94963 -32.36962,7.08435c-20.94564,3.48002 -36.96541,13.1064 -36.81327,9.88589c0.15215,-3.22052 20.73177,-33.31798 39.8716,-32.03545z" fill="none" stroke="#13263b" stroke-width="3"></path></g><g data-paper-data="{&quot;index&quot;:null}" stroke="none" stroke-linecap="butt"><path d="M261.24953,185.96392c-1.19178,0.42638 -2.51928,-0.23801 -2.96506,-1.48396c-0.44575,-1.24594 0.15904,-2.60166 1.35082,-3.02804c1.1918,-0.42639 2.51927,0.23802 2.96505,1.48397c0.44578,1.24595 -0.15901,2.60166 -1.3508,3.02804z" fill="#50526b" stroke-width="0"></path><path d="M274.46339,181.45776c-1.74921,0.62581 -6.3055,2.46719 -10.03649,2.37055c-2.50852,-0.06498 -4.88258,-2.01193 -4.88258,-2.01193c0,0 9.1162,-7.35525 12.0415,-8.40183c2.92531,-1.04657 8.70003,-3.51571 9.49466,-1.29464c0.79462,2.22108 -3.69178,8.29126 -6.61708,9.33784z" fill="#333240" stroke-width="0"></path><path d="M296.9373,189.29819c-0.73647,-2.05855 0.33527,-4.32436 2.39382,-5.06084c2.05854,-0.73648 4.32436,0.33526 5.06084,2.39381c0.35841,1.00179 1.24258,4.39379 2.26952,7.68738c0.44187,1.41712 10.73841,-8.68471 15.82561,-11.50548c1.63152,-0.90466 2.71206,1.85673 2.77965,2.18661c0.23831,1.16337 -16.89857,16.36276 -17.38607,16.53718c-2.05855,0.73648 -10.2069,-10.18011 -10.94338,-12.23866z" fill="#323232" stroke-width="0"></path><path d="M306.70981,199.41808c-0.6938,0.55028 -2.4281,-0.8431 -3.87367,-3.11221c-1.44556,-2.26911 -2.055,-4.55472 -1.3612,-5.105c0.69381,-0.55029 2.42811,0.84309 3.87368,3.1122c1.44557,2.26911 2.055,4.55472 1.3612,5.105z" fill="#50526b" stroke-width="0"></path><path d="M319.98366,173.30801c-0.9347,0.33441 -14.85748,8.03932 -25.20311,15.1503c-5.29162,3.63717 -8.86071,7.49107 -10.9066,9.35316c-0.62468,0.56856 -1.78945,-3.26216 -2.42023,-2.73769c-1.16267,0.96674 -1.81199,2.08759 -2.99345,2.79884c-0.87492,0.5267 -2.14241,-0.43615 -3.08491,-1.57009c-0.7146,-0.85975 -1.11538,-1.98874 -1.74746,-1.65796c-2.27567,1.19085 -3.80957,3.02275 -5.7126,3.37265c-3.11231,0.57223 -7.84412,-8.26541 -8.08596,-8.94141c-0.98198,-2.74474 25.96751,-20.35457 29.57901,-21.64664c3.61149,-1.29207 18.46416,-15.60285 19.44614,-12.85811c0.98196,2.74474 14.74065,17.44491 11.12916,18.73698z" fill="#485e85" stroke-width="0"></path><path d="M323.5136,152.86711c-1.19178,0.42639 -15.48507,0.63223 -15.84685,-0.37898c-0.36178,-1.01122 4.85974,-5.13169 6.05153,-5.55807c1.19178,-0.42639 2.4512,0.0477 2.81298,1.05892c0.36178,1.01122 8.17411,4.45174 6.98233,4.87812z" fill="#323232" stroke-width="0"></path><path d="M278.9689,196.3906c0,0 -3.66971,1.70073 -4.84549,-1.58573c-0.80731,-2.25656 17.36855,-15.07727 30.05535,-23.32598c0.26756,-0.17395 1.44401,-0.97888 1.4089,-1.98193c-0.04353,-1.24376 -1.21964,-0.70116 -1.50525,-2.47001c-0.59633,-3.69318 0.80057,-8.00856 2.94793,-9.72684c3.93033,-3.14496 7.81233,7.52059 8.76249,7.18066c2.10702,-0.75382 11.37684,0.4593 9.4472,4.34959c-1.51011,3.04452 -14.14434,8.91148 -14.14434,8.91148c0,0 -0.78116,-0.82969 0.76229,-2.13138c1.53795,-1.29706 5.40113,-3.06476 5.07164,-3.8658c-0.60606,-1.47345 -8.19644,-0.01474 -9.90447,0.97284c-3.33701,1.9294 -6.7218,4.63592 -11.90108,8.12869c-6.12445,4.13018 -13.0043,8.496 -16.68224,11.79257c-3.44957,3.09186 0.52707,3.75183 0.52707,3.75183z" fill="#333947" stroke-width="0"></path><path d="M307.3937,157.13022c0,0 -3.58545,2.84249 -6.38287,4.80496c-3.2655,2.29082 -11.29747,7.63024 -16.70047,11.32426c-3.11438,2.12931 -5.32402,3.79929 -5.32402,3.79929c0,0 2.59419,1.04646 4.08839,1.70957c1.95124,0.86595 6.61816,3.04194 6.61816,3.04194l-2.98202,2.18878c0,0 -4.86517,-2.06468 -6.78067,-2.96298c-1.43946,-0.67507 -3.69778,-1.95113 -3.69778,-1.95113l-3.32638,2.03495l10.92374,5.1011l-8.58125,6.0545l-11.09368,-4.30464l-3.80231,0.91777c0,0 -1.1446,-2.76703 1.72062,-4.83886c5.80379,-4.19668 29.65351,-19.89041 40.74376,-26.91054c3.53469,-2.23744 6.50438,-3.32525 6.50438,-3.32525z" fill="#93c4c9" stroke-width="0"></path><path d="M340.52905,193.29374c-2.49207,0.89157 -7.76145,-12.13423 -17.57727,-12.55664c-3.51608,-0.1513 -6.17763,5.83257 -9.60183,10.50074c-1.4697,2.0036 -3.94124,3.71194 -5.26379,4.67579c-1.95344,1.42362 -5.47023,-3.85574 -5.64232,-4.33676c-0.15791,-0.4414 20.58045,-19.56454 20.46128,-21.02376c-0.07094,-0.86889 4.1098,-3.78863 3.17112,-3.94251c-2.4876,-0.40779 -7.49266,1.53074 -10.15372,0.39467c-3.72574,-1.59061 -5.8572,-5.42473 -7.60558,-7.51037c-2.3446,-2.79688 3.99278,-8.47609 5.53133,-9.02654c0.47436,-0.1697 1.76092,-0.85512 2.84634,-0.47469c1.63511,0.57304 3.62756,3.22246 5.66294,3.93891c1.95998,0.68989 3.9411,0.67957 6.08458,1.56952c2.51631,1.04475 7.80008,0.02013 10.07483,1.16021c1.99675,1.00073 6.30306,3.94152 9.11233,7.61361c3.72342,4.86698 5.80664,10.66448 6.09244,11.46334c1.31791,3.68372 -8.85892,16.00396 -13.19272,17.55446z" fill="#2d00e3" stroke-width="0"></path><path d="M325.07229,190.21206c-1.11565,0.39915 -1.52831,-6.84869 -2.6166,-7.01188c-1.57213,-0.23575 -6.25267,6.28064 -11.55623,8.83635c-5.45595,2.62915 -8.51189,-1.27628 -8.79274,-2.06126c-0.39832,-1.11335 -0.40814,-4.3443 1.94529,-6.8326c2.64535,-2.79696 7.06351,-5.15623 10.70452,-7.35726c3.14359,-1.90037 5.63789,-3.81542 6.74559,-4.21174c0.36908,-0.13204 1.15789,-1.71298 2.06534,-3.16883c0.10787,-0.17309 0.92726,-1.10433 0.03817,-1.25848c-2.25647,-0.39122 -7.86342,0.03972 -7.57558,-0.28379c0.00608,-0.0068 -1.77669,-0.82869 -3.47796,-2.27362c-3.14546,-2.67158 -6.5138,-7.0797 -1.31952,-9.62897c3.20794,-1.57441 4.97757,0.16396 6.55187,2.26301c0.90605,1.20801 1.81834,2.56989 2.87854,3.06791c0.7998,0.37568 2.05376,2.98079 2.18364,4.65016c0.05872,0.75463 -0.49837,1.68474 -0.49837,1.68474c0,0 2.844,-0.30985 2.91028,-0.36217c0.39217,-0.30952 0.36227,2.10569 0.78693,1.81329c2.50327,-1.7237 5.42336,-2.9644 7.03053,-1.5108c3.65903,3.30939 -1.53992,8.18909 -1.53992,8.18909c0,0 0.86694,-0.11409 2.28981,-0.89201c0.77443,-0.42339 1.59925,-1.42244 2.44925,-1.70018c0.76091,-0.2486 1.71779,-0.31917 2.46605,-0.08193c1.93035,0.61197 3.79586,2.43073 5.11567,4.27287c1.70172,2.37517 2.83923,7.2323 2.33701,8.94054c-0.66242,2.25314 -0.89159,4.19793 -3.72413,6.58456c-2.78737,2.34858 -8.27573,2.88526 -9.54344,3.76183c-1.71376,1.18498 -7.26405,-5.63992 -7.85398,-5.42885z" fill="#3300ff" stroke-width="0"></path><path d="M332.31895,163.13372c-0.95545,1.17828 -2.98949,2.35557 -4.45466,3.20024c-3.17359,2.74421 -5.80831,6.08762 -9.36349,8.37823c-1.91309,1.23263 -3.96878,2.09989 -5.93377,3.27964c-2.91037,1.45181 -5.83628,3.25182 -7.64971,5.58665c-0.05674,0.34339 -0.33154,0.55671 -0.45842,0.63847c-1.45806,2.2082 -1.91578,4.87111 -0.52857,8.12848c0.39159,0.9195 1.25506,1.47302 1.8726,2.25554c1.80194,1.75957 3.25087,-0.11011 4.58584,-1.73411c3.09996,-3.77109 7.86184,-6.05708 10.9643,-9.84073c3.57979,-1.83352 2.47655,3.89063 4.00384,6.21172c0.46726,0.71008 1.6717,1.04301 2.29147,1.73161c2.90288,3.22525 4.57686,4.93159 8.96652,2.42872c1.87003,-0.6749 4.66936,-0.94771 6.29743,-2.03059c1.38144,-0.91883 2.12037,-3.0078 3.16458,-4.25115c2.31995,-2.76239 4.49001,-5.34795 5.22322,-9.02455c0.31199,-0.66859 0.58564,-1.35596 0.82553,-2.05369l0.189,-0.40101c-2.52606,-6.75384 -4.80131,-11.84687 -10.48262,-16.49611c-4.98224,-3.06713 -9.91537,-2.52131 -15.56817,-3.21096c-1.83688,-0.22412 -3.30728,-1.16336 -5.07516,-1.51591c-1.47267,-0.68536 -3.5724,-3.49148 -5.05295,-3.56838c-2.41947,-0.12564 -7.67786,4.24255 -7.35349,6.88185c0.17178,1.39764 1.24608,2.8502 1.99697,3.97516c0.65528,1.22215 2.46965,2.8795 2.46965,2.8795l1.31606,0.78902c0,0 2.90217,1.02427 5.831,0.9966c2.54275,-0.02403 5.01711,-1.02727 6.73003,-1.86492c0.20799,-0.17387 0.4185,-0.34476 0.63193,-0.51223c0,0 0.1896,-0.14878 0.45198,-0.19934c1.15457,-0.82211 2.40419,-1.68718 3.86594,-1.41217l0.32844,0.01214c0.12667,0.00174 0.2448,0.08101 0.28999,0.20731c0.03904,0.10907 0.01378,0.22551 -0.05621,0.30787l-0.23963,0.29225l-0.07951,-0.06521zM307.28179,162.90586c0.94752,0.27172 1.86238,0.6496 2.75995,1.06682c-0.30805,-0.3986 -0.5963,-0.82879 -0.86243,-1.29189c-0.89151,-1.33566 -2.11908,-3.07819 -2.26048,-4.744c-0.07449,-0.87759 0.19979,-1.85771 0.7108,-2.83898l-0.05488,0.02774l-0.07083,-0.14013c-2.01211,1.66094 -4.15846,2.68238 -6.50933,4.1327c2.00757,1.18601 4.68355,2.1849 6.28723,3.78775zM300.41485,159.49816c0,0 -0.00491,-0.00301 -0.01295,-0.00889c-1.92573,1.21991 -3.85873,2.5677 -5.7494,3.95861c2.31175,0.65098 4.73341,1.06594 6.89541,2.09092c1.85739,0.57442 3.7931,1.81773 5.59211,2.70605c1.51478,-0.90811 3.03759,-1.77921 4.4835,-2.62803c-0.13876,-0.11555 -0.27519,-0.23537 -0.40912,-0.35952c-1.38901,-0.66412 -2.76992,-1.32863 -4.2495,-1.81268c-1.77951,-1.64628 -4.4673,-2.66483 -6.55009,-3.94642zM301.32138,166.1214c-2.28627,-1.07902 -4.86766,-1.49539 -7.29892,-2.20725c-1.43149,1.06527 -2.83522,2.15006 -4.18938,3.21699c-6.56933,4.38838 -14.15259,7.94545 -20.05247,13.22258c-2.4453,1.92015 -7.40226,4.14607 -8.9748,6.77343c-0.20561,0.34354 0.56386,1.90731 0.69259,2.1904c1.01196,2.22549 2.61249,4.34859 4.22492,6.16704c0.28165,0.31848 1.26192,1.85289 1.6327,1.97341c0.76177,0.24756 3.2435,-2.3289 3.84353,-2.79798c3.13032,-2.44719 6.25956,-4.83038 9.2542,-7.47643l0.91,-0.71458c0,0 0.02511,-0.01971 0.06973,-0.04723c0.04332,-0.02952 0.07154,-0.04442 0.07154,-0.04442c6.70468,-3.48786 11.64278,-9.30973 18.19628,-12.93208c1.97872,-1.7498 4.367,-3.33543 6.80704,-4.81912c-1.68285,-0.86363 -3.46578,-1.97253 -5.18696,-2.5048zM286.89816,190.55595c-0.54828,1.49851 -3.21161,3.40419 -4.60332,4.63266c0.43145,0.57832 0.85852,1.42719 1.41902,1.47278c1.0435,0.08483 2.51592,-2.32966 3.06481,-2.94481c4.93353,-4.50022 9.87699,-8.58831 16.27731,-10.87815l0.21717,-0.11331c2.00888,-2.65134 5.19434,-4.74258 8.3875,-6.3749c1.91828,-1.15313 3.91873,-1.99678 5.78748,-3.18992c2.3509,-1.50096 4.29596,-3.48988 6.26401,-5.45611c-3.51538,0.83371 -7.30194,0.72608 -10.36757,-0.92592c-4.11391,2.44406 -9.0022,5.05147 -12.5593,8.19709c-6.57266,3.69543 -11.62986,9.42054 -18.32831,13.01928l-0.8029,0.62953c-2.36522,2.09344 -4.83733,3.9993 -7.29084,5.94576c1.22747,0.93515 2.8882,2.42386 3.53136,2.23375c0.861,-0.25452 1.35904,-1.14114 2.03779,-1.70836c-0.00918,-0.02639 -0.014,-0.05157 -0.01549,-0.07548c-0.05425,-0.07782 0.34893,-0.18844 0.46065,-0.33876c0.06984,-0.09398 0.98878,-0.93779 2.07035,-1.89157c1.01008,-0.89076 2.15848,-1.88749 2.98802,-2.18426c0.31023,-0.21028 0.60176,-0.39199 0.95491,-0.51866l0.25597,-0.17087c0.02236,-0.01561 0.04714,-0.02858 0.07407,-0.0382c0.16251,-0.05813 0.34139,0.02646 0.39954,0.18899c0.01769,0.04942 0.02216,0.10037 0.01525,0.14896l-0.04389,0.36378l-0.19359,-0.02335zM322.74621,186.65425c-0.15173,-0.87846 -0.24142,-1.67692 -0.23143,-2.10084c-2.85345,3.36647 -6.92725,5.72004 -10.08497,8.77274c-1.27705,1.23458 -2.34718,3.11841 -4.09006,3.8274c-1.7576,0.71499 -2.73146,-0.1652 -3.92633,-1.29336c-0.76943,-0.98657 -1.66101,-1.56567 -2.1906,-2.73965c-1.32751,-2.94292 -1.3149,-5.51513 -0.44648,-7.75857c-1.68422,0.73437 -3.26229,1.6008 -4.76937,2.56655c2.54375,3.02515 4.88347,6.47062 7.15527,9.67042c1.04228,1.46803 2.26472,4.57672 3.72764,2.14853c2.49199,-2.27832 5.63805,-3.78536 7.82618,-6.45389l0.76002,-0.73938c0,0 0.12005,-0.11644 0.3079,-0.20028c1.57137,-2.02086 3.58622,-3.90238 5.64652,-5.3477zM317.77085,194.16748c0,0 -0.26657,0.37621 -0.68968,0.41403c-2.17864,2.64645 -5.26703,4.1214 -7.74795,6.36326c-1.27724,2.02982 -2.9709,2.32389 -4.70131,0.49815c-3.54566,-3.741 -5.88606,-8.52077 -9.1901,-12.45998c-2.5602,1.80698 -4.94054,3.88328 -7.33018,6.05269c-1.0974,1.23345 -2.57057,3.65096 -4.54474,3.49523c-1.4933,-0.1178 -1.64468,-1.4624 -2.44369,-2.07523c-0.28911,-0.22176 -0.51277,0.51818 -0.78153,0.76417c-0.62354,0.57071 -1.10871,1.23166 -2.02183,1.41029c-2.14963,0.42051 -3.60189,-1.98584 -5.43545,-2.87745c-0.40832,0.32989 -0.81541,0.6622 -1.2207,0.99798c-1.00042,0.82889 -3.22971,2.87714 -4.69862,2.54141c-0.89547,-0.20468 -2.03096,-1.86913 -2.64649,-2.56518c-1.73421,-1.96588 -6.2733,-7.10001 -5.29903,-10.15835c-0.06436,-0.05912 -0.09972,-0.10416 -0.09972,-0.10416c-0.844,-1.08089 -2.66627,-3.54922 -1.9502,-5.06313c0.44475,-0.94027 3.30261,-1.84411 4.24601,-2.3662c3.12404,-1.72888 5.44726,-4.57964 8.70271,-6.35153c4.3563,-0.82266 8.731,-2.1753 12.91208,-3.67114l0.84075,-0.3008c0,0 0.08438,-0.0302 0.21031,-0.04582c1.64553,-0.99399 3.27337,-2.00067 4.85147,-3.05313c4.48391,-3.50487 9.46109,-6.27529 14.11693,-9.42339c1.02438,-0.69266 2.22162,-1.9388 3.39004,-2.27873c-0.77331,-0.90646 0.69664,-2.18241 1.10286,-2.77788c1.97474,-2.89476 4.33126,-4.56967 7.6217,-5.75583c0,0 0.57704,-0.20646 0.96498,0.18103c0.1529,0.03223 0.29598,0.10231 0.41523,0.20362l0.79195,0.64936l-0.13224,0.16125l0.04167,0.0531c3.83178,2.03416 6.61009,5.97507 11.19202,6.85276l0.89274,0.55114c0,0 0.16031,0.11919 0.27796,0.32153c4.78774,0.38645 9.07819,0.52694 13.51225,3.26395c5.85031,4.80439 8.56658,10.11635 11.01796,17.07604c0.69848,0.41943 0.33461,1.1887 0.33461,1.1887l-0.10467,0.22043l-0.00959,0.4345c0,0 -0.02236,0.60539 -0.51777,0.82493c-0.16894,0.44804 -0.35397,0.89014 -0.56108,1.32141c-0.77392,3.88073 -3.09855,6.70896 -5.55427,9.62574c-1.18046,1.40208 -1.96035,3.54157 -3.53385,4.59422c-1.76412,1.18018 -4.58833,1.4919 -6.60232,2.20515c-2.87109,1.57038 -6.75641,2.38136 -9.28536,-0.33897c-0.85074,-0.91511 -1.29359,-2.37223 -2.35888,-3.1469c-0.62578,-0.45505 -1.46916,-0.6743 -1.9218,-1.30186c-0.21342,-0.2959 -0.4265,-0.87552 -0.61692,-1.56403c-2.02499,1.45773 -4.01434,3.39554 -5.43625,5.41353zM258.6646,182.20296c-0.21116,0.44643 0.83766,1.93066 1.42112,2.70312c2.11884,-2.3 6.4692,-4.40505 8.49435,-5.99295c2.51492,-2.20234 5.29258,-4.11599 8.15866,-5.92102c-2.05474,0.59655 -4.12893,1.10548 -6.18882,1.45687c-3.09968,1.78468 -5.38611,4.51938 -8.42105,6.22364c-0.4193,0.23546 -3.37097,1.3331 -3.46424,1.5303zM317.25975,149.18463c-0.01266,0.01085 -0.02555,0.02168 -0.03867,0.03253c0.08158,0.03374 0.16215,0.07041 0.24177,0.1097c-0.06827,-0.04702 -0.13617,-0.09441 -0.20309,-0.14225zM315.70545,147.93579l-0.00898,0.00704l-0.51065,-0.65077c-1.85923,0.69926 -3.42434,1.57811 -4.88815,2.98612c-0.37106,0.35692 -0.6539,0.87073 -0.94721,1.36773c0.24482,-0.22952 0.43743,-0.40145 0.47853,-0.4269c1.63897,-1.01413 3.42055,-1.89271 5.12591,-2.79243c0.70015,-0.38544 1.4816,-0.35469 0.75892,-0.46232zM321.77744,152.63381c0.0429,0.00855 0.08562,0.01749 0.12812,0.0268c-0.80014,-0.53841 -1.57707,-1.12384 -2.34501,-1.73225c0.71222,0.65744 1.41879,1.32025 2.21688,1.70543z" fill="#000000" stroke-width="0.5"></path><path d="M332.67756,172.09008c0,0 1.21827,0.29735 1.63998,0.64931c0.47364,0.39534 1.06421,1.60766 1.06421,1.60766l-9.18664,6.13176l6.48244,-8.38872z" fill="#000000" stroke-width="0"></path></g><path d="M261.99198,210.67731l-4.23323,-2.75276l-4.43205,7.66683l-3.07255,-1.88404l-3.42391,-1.49392l-3.6396,1.49141l-2.60615,3.48205l-2.49705,-1.54237l-31.68172,9.09134l-0.32948,-6.30264l1.38982,-12.52651l3.35264,-17.64784l-1.52013,1.19869l1.40084,-1.01242c0,0 1.50812,1.82385 4.20569,6.55686c2.73236,4.79409 5.33404,9.19933 7.27065,12.12552c1.93659,2.92618 5.4747,7.13249 5.4747,7.13249l1.87936,-1.67814l6.46677,-5.95322c0,0 0.64042,3.77936 1.53931,5.81824c0.8989,2.03888 3.13087,4.77464 3.13087,4.77464l5.04174,-7.48237l7.41647,5.83576l4.40723,-7.77016l4.3445,2.61796l1.64027,-6.73007z" fill="#67080a" stroke="#000000" stroke-width="2" stroke-linecap="round"></path><g><g stroke-linecap="round"><path d="M196.94302,125.3302c9.93999,-8.50996 16.7906,-15.5381 28.95945,-16.8985c12.16884,-1.3604 28.77345,-1.18041 25.56026,10.80351c-3.21318,11.98393 -24.62835,4.77117 -30.65146,8.18464c-6.02312,3.41348 -3.25403,10.96579 -9.65619,14.65876c-9.70974,5.60088 -6.38684,-4.24463 -10.11912,-4.78892c-3.1682,-0.46203 -8.80702,7.73053 -10.86084,1.72934c-0.90992,-2.65874 1.23167,-8.94912 6.76789,-13.68884z" fill="#fff3df" stroke="none" stroke-width="0"></path><path d="M198.20971,126.49896c2.97165,-2.54413 7.00981,12.88101 10.20638,11.14991c5.85748,-3.17207 2.14063,-9.6656 8.09453,-14.0795c1.66523,-1.23451 12.17192,-2.553 14.03644,-2.76144c12.16884,-1.3604 24.12889,-13.55664 20.91569,-1.57273c-3.21318,11.98393 -24.62835,4.77117 -30.65146,8.18464c-6.02312,3.41348 -3.25403,10.96579 -9.65619,14.65876c-9.70974,5.60088 -6.38684,-4.24463 -10.11912,-4.78892c-3.1682,-0.46203 -8.80702,7.73053 -10.86084,1.72934c-0.90992,-2.65875 0.13632,-5.85583 5.67254,-10.59555z" fill="#cfa7a7" stroke="none" stroke-width="0"></path><path d="M225.90243,108.43172c12.16883,-1.3604 28.77344,-1.18041 25.56026,10.8035c-3.21318,11.98393 -24.62832,4.77118 -30.65143,8.18464c-6.02311,3.41347 -3.25402,10.96581 -9.65618,14.65876c-9.70974,5.60088 -6.38684,-4.24461 -10.11911,-4.7889c-3.16821,-0.46203 -8.80702,7.73052 -10.86084,1.72934c-0.90992,-2.65875 1.23169,-8.94913 6.76788,-13.68885c9.93999,-8.50996 16.7906,-15.53807 28.95944,-16.89848z" fill="none" stroke="#000000" stroke-width="4"></path></g><path d="M215.01558,121.99406c-8.19897,3.41448 -19.10724,3.80935 -15.69026,-3.29272c0.25607,-0.53222 0.65231,-1.60956 1.09237,-2.73014c0.45975,-1.1707 0.96732,-2.38864 1.41289,-3.08158c4.81898,-7.49454 14.31192,-15.30295 26.60419,-8.95195c14.51669,7.50029 -5.22022,14.64192 -13.41918,18.05639z" fill="#ffd500" stroke="none" stroke-width="0" stroke-linecap="round"></path><path d="M215.01558,121.99406c-8.19897,3.41448 -19.10724,3.80935 -15.69028,-3.29271c0.25607,-0.53223 0.65231,-1.60956 1.09238,-2.73015c0.45975,-1.1707 0.96732,-2.38864 1.41289,-3.08157c4.81898,-7.49454 3.71646,3.29664 10.28412,3.77925c13.7988,1.01399 18.13341,-10.56727 19.32219,-10.02659c9.50234,4.32176 -9.13401,12.31697 -16.4213,15.35179z" fill="#ff7e00" stroke="none" stroke-width="0" stroke-linecap="round"></path><path d="M215.20994,122.3466c-8.19897,3.41448 -19.10723,3.80934 -15.69028,-3.29273c1.24128,-2.57996 3.11175,-6.93949 6.18902,-10.17391c5.39377,-5.66921 13.67723,-9.36543 22.92045,-4.58978c14.51669,7.50028 -5.22022,14.64192 -13.41919,18.05639z" fill="none" stroke="#000000" stroke-width="4" stroke-linecap="round"></path><path d="M214.10384,109.19149c0.45343,-2.468 3.32189,-4.00924 6.4069,-3.44245c3.08499,0.56679 5.2183,3.02696 4.76486,5.49496c-0.20613,1.12194 -2.52074,-1.36547 -5.05783,-1.72627c-3.04391,-0.43287 -6.36123,1.01983 -6.11393,-0.32624z" fill="#fff45c" stroke="none" stroke-width="0" stroke-linecap="butt"></path></g><g data-paper-data="{&quot;index&quot;:null}"><g stroke-width="2"><path d="M180.24118,245.72019" fill="none" stroke="#000000" stroke-linecap="round"></path><path d="M177.4772,235.74948" fill="none" stroke="#000000" stroke-linecap="round"></path><path d="M177.47306,209.14243c0,0 -0.49272,2.88569 -3.47626,2.66693c-2.98351,-0.21876 -1.98059,-0.26132 -4.75501,-2.0224c-3.16832,-2.01112 -9.85072,-6.95111 -9.85072,-6.95111l3.54227,-1.7393c0,0 3.57076,0.5739 5.63343,1.77179c2.99005,1.73645 8.90634,6.27409 8.90634,6.27409z" fill="#312e37" stroke="#000000" stroke-linecap="butt"></path><path d="M132.31027,231.43305c0,0 8.82478,6.02909 13.25429,9.4803c4.70695,3.66739 14.20577,11.9149 14.20577,11.9149l-3.69663,3.86004c0,0 -11.1187,-5.60569 -15.75574,-9.16433c-4.52325,-3.47134 -11.73363,-11.93214 -11.73363,-11.93214l3.72595,-4.1588z" fill="#a09aa6" stroke="none" stroke-linecap="butt"></path><path d="M132.31027,231.43302c0,0 8.82478,6.02909 13.25429,9.4803c4.70695,3.66739 14.20577,11.9149 14.20577,11.9149c0,0 -15.11408,-1.77493 -20.26068,-6.28845c-6.49724,-4.87152 -7.19937,-15.10675 -7.19937,-15.10675z" fill="#695f72" stroke="none" stroke-linecap="butt"></path><path d="M132.31027,231.43305c0,0 8.82478,6.02909 13.25429,9.4803c4.70695,3.66739 14.20577,11.9149 14.20577,11.9149l-3.69663,3.86004c0,0 -11.11868,-5.60568 -15.75574,-9.16433c-4.52325,-3.47134 -11.73363,-11.93214 -11.73363,-11.93214l3.72595,-4.1588z" fill="none" stroke="#000000" stroke-linecap="butt"></path><path d="M156.85937,254.56351c0,0 -12.46956,-6.4651 -17.05842,-10.30426c-4.29549,-3.59371 -9.65282,-12.04304 -9.65282,-12.04304" fill="none" stroke="#000000" stroke-linecap="round"></path><path d="M116.444,315.68888c0,0 -8.51876,-29.01165 -6.84509,-34.7554c0.87391,-2.99908 13.69921,-23.26754 13.69921,-23.26754l2.79954,-0.14015l-0.34882,-3.70453l2.91992,-1.2017l0.00579,-3.13538l2.79136,-0.94463l0.03897,-3.62874l2.54221,-4.10778l14.42108,12.87679z" fill="#4a627c" stroke="none" stroke-linecap="butt"></path><path d="M131.94481,269.63443l-6.83454,15.55635l-9.52208,-12.01461c0,0 -3.05374,2.08268 -3.9526,6.63969c-1.34471,6.81734 -3.37409,6.45308 -1.4249,0.61388c3.18223,-9.53299 13.0874,-22.7638 13.0874,-22.7638l2.79955,-0.14015l-0.34882,-3.70453l2.91992,-1.2017l0.00579,-3.13537l2.79136,-0.94463l0.03897,-3.62874l2.54221,-4.10778l-8.14793,19.51001z" fill="#91b6c0" stroke="none" stroke-linecap="butt"></path><path d="M134.30791,264.65707l-5.77127,-8.81073" fill="none" stroke="#91b6c0" stroke-linecap="round"></path><path d="M112.99832,295.34291c0,0 -3.4723,-8.95655 -1.90021,-13.56791c1.99618,-5.85525 13.16578,-21.32076 13.16578,-21.32076l4.33883,-1.18295l-0.64407,-3.68272l2.28855,-0.78086l-0.02704,-3.82326l3.54217,-1.26111l-0.05031,-5.6353" fill="none" stroke="#91b6c0" stroke-linecap="round"></path><path d="M116.44397,315.68888c0,0 -8.51876,-29.01165 -6.84509,-34.7554c0.87391,-2.99908 13.69921,-23.26754 13.69921,-23.26754l2.79955,-0.14015l-0.34882,-3.70453l2.91992,-1.2017l0.00579,-3.13537l2.79136,-0.94463l0.03897,-3.62874l2.54221,-4.10778l14.42108,12.87679z" fill="none" stroke="#000000" stroke-linecap="butt"></path><path d="M116.89436,313.01841c0,0 5.38423,-24.07423 12.41166,-37.06257c4.47535,-8.92601 13.39927,-25.15394 13.39927,-25.15394" fill="none" stroke="#000000" stroke-linecap="round"></path></g><g stroke-width="4" stroke-linecap="butt"><g><path d="M174.56527,233.07519c0,0 -0.77123,12.05782 -3.86652,12.04049c-0.93646,-0.00527 -2.51659,-1.08699 -4.71208,-2.80344c-0.30444,-0.23806 -1.06516,-1.16333 -1.39331,-1.42452c-1.11503,-0.88819 -2.78304,-2.10152 -3.92299,-3.11554c-4.1001,-3.64693 -6.9309,-6.74911 -6.92483,-7.82878c0.01181,-2.10478 10.2168,4.82161 13.31209,4.83894c0.23418,0.00134 -2.13011,-6.02489 -0.12034,-10.1567c1.02726,-2.11209 5.8044,-3.46599 7.26195,-3.8111c6.72727,-1.59308 7.77671,8.96306 7.76461,9.28211c-0.11708,3.08774 -7.39871,2.97851 -7.39871,2.97851z" fill="#3300ff" stroke="#000000"></path><path d="M172.88299,237.95964c0,0 -2.0209,-2.95389 -5.36387,-2.97268c-3.34294,-0.01881 -6.25289,5.62154 -6.24898,4.92509c0.00219,-0.38876 -3.11136,-4.82383 -1.72254,-7.45471c1.09906,-2.08198 6.52312,-2.52284 7.99992,-2.51454c1.68313,0.00949 4.02783,2.51151 4.77433,4.65324c0.73616,2.11203 0.56117,3.36359 0.56117,3.36359z" fill="#2d00e3" stroke="none"></path></g><g><path d="M168.01889,224.00059c-0.01087,1.92546 0.74227,5.59907 -0.81329,6.64799c-1.47339,0.99371 -5.04978,2.54741 -5.04978,2.54741c0,0 1.9131,1.21844 1.76962,3.59808c-0.06532,1.08499 -0.87303,2.07442 -1.58646,3.37879c-1.52247,2.7844 -3.79613,4.45607 -5.86975,4.44449c-5.83058,-0.03278 -12.07124,-2.85438 -17.55585,-7.13795c-3.59982,-2.81154 -6.41993,-5.09654 -6.40195,-8.29781c0.02073,-3.68539 -1.34814,-8.74173 1.35505,-11.29891c1.04253,-0.98603 2.46003,-0.62399 3.67978,-0.82167c2.55093,-0.41335 4.78815,-0.43499 4.78815,-0.43499c0,0 1.77126,-4.65537 3.95173,-6.50881c0.87553,-0.74417 1.16823,-1.43088 2.62006,-0.93807c3.0524,1.03602 3.16952,-0.01304 3.16952,-0.01304c0,0 2.25907,-4.61958 4.25303,-5.89025c0.93455,-0.59544 12.87914,2.92123 14.50644,6.53284c1.15819,2.57035 5.85092,6.75782 5.12734,9.81684c-1.3538,5.72323 -7.93994,3.70656 -7.94368,4.37502z" fill="#3300ff" stroke="#000000"></path><path d="M135.54751,227.51722c-0.01303,2.32151 -0.20972,7.39713 -0.20972,7.39713c0,0 -1.81341,-6.43209 -1.80035,-8.75359c0.00489,-0.87232 -0.42598,-8.00912 2.39371,-7.95359c1.5717,0.03096 4.48573,-2.09397 6.54642,-0.91565c2.13543,1.22105 3.44783,-8.11156 4.52926,-6.54427c0.23181,0.33594 5.07226,-0.79747 5.38023,0.57662c0.09896,0.44149 0.80823,-2.17639 2.05515,-4.05316c1.07629,-1.61994 2.72393,-2.55814 2.69544,-2.0405c-0.02957,0.53751 3.75905,-0.12964 8.03106,1.27872c1.78684,0.58907 5.78253,1.88061 7.54025,4.84366c1.96455,3.31171 3.78627,7.6348 3.78627,7.6348c0,0 -13.57978,-7.21322 -16.65351,-6.39096c-2.20611,0.59015 1.70227,5.22901 1.70227,5.22901c0,0 -5.14405,-4.17655 -6.70202,-2.81015c-1.06922,0.93777 -3.1099,2.23572 -3.79055,3.80452c-1.44453,3.3294 4.64546,10.66033 4.66225,10.66042c0.33688,0.00189 -7.76289,-4.37842 -13.48314,-5.92947c-2.58282,-0.70033 -5.01693,-0.22502 -5.13235,0.19831c-0.34597,1.26873 -1.54451,2.66921 -1.55069,3.76818z" fill="#2d00e3" stroke="none"></path><path d="M162.57653,234.98343c-0.92859,-0.00521 -12.05677,-8.81124 -12.05677,-8.81124c0,0 8.29063,5.09092 9.21924,5.09615c0.92862,0.00521 3.35761,0.93982 3.35238,1.86843c-0.00522,0.92859 0.41381,1.8519 -0.5148,1.84667z" fill="#000000" stroke="none"></path><path d="M168.35561,223.91846c-0.00364,0.65003 0.45805,0.67516 -0.42412,0.67019c-0.88218,-0.00496 -8.43993,-9.12719 -8.43993,-9.12719c0,0 9.07668,8.12192 9.95885,8.12689c0.8822,0.00495 -1.0911,-0.31991 -1.09477,0.33013z" fill="#000000" stroke="none"></path><path d="M166.68526,223.63795c-0.01094,1.92535 0.91217,5.26358 -0.64331,6.31262c-1.47335,0.99361 -5.38598,2.54551 -5.38598,2.54551c0,0 1.575,1.55276 1.43152,3.9324c-0.04673,0.77424 -1.23602,2.94901 -1.31924,3.09739c-1.5441,2.75615 -3.57008,4.90846 -5.80173,4.89596c-5.83056,-0.03279 -11.39776,-3.01873 -16.88237,-7.3023c-3.5998,-2.81153 -5.74346,-5.76534 -6.0722,-7.11898c-0.86951,-3.58141 -1.68158,-9.24802 1.02161,-11.8052c1.33533,-1.26314 3.38149,-1.3858 4.92832,-1.49231c2.18621,-0.1505 3.54045,0.0675 3.54045,0.0675c0,0 2.36915,-5.58426 4.60769,-7.18648c0.44825,-0.32073 1.27587,-0.22277 2.32489,-0.21132c1.04057,0.01136 1.6328,-0.23683 1.6328,-0.23683c0,0 2.92873,-4.1114 4.9228,-5.38206c0.52943,-0.33745 9.26409,1.0522 14.40758,4.61307c3.93351,2.72317 5.21006,9.23209 4.89649,10.55769c-1.35391,5.72322 -7.60554,4.04478 -7.60928,4.71324z" fill="none" stroke="#000000"></path><path d="M165.92024,223.63798c-0.01096,1.92545 0.91217,5.26358 -0.64331,6.31262c-1.47337,0.99361 -5.38609,2.5455 -5.38609,2.5455c0,0 1.57509,1.55288 1.43152,3.9324c-0.04662,0.77425 -1.236,2.94901 -1.31913,3.0974c-1.5441,2.75615 -3.57008,4.90846 -5.80173,4.89596c-5.83067,-0.03281 -11.39776,-3.01873 -16.88237,-7.3023c-3.5998,-2.81153 -5.74357,-5.76535 -6.0722,-7.11898c-0.86962,-3.58142 -1.51724,-8.57453 1.18593,-11.13161c1.33534,-1.26326 3.04518,-1.38783 4.59212,-1.49432c2.18609,-0.15042 4.04482,0.07035 4.04482,0.07035c0,0 2.03283,-5.58619 4.27145,-7.18829c0.44814,-0.32076 1.27578,-0.22289 2.3248,-0.21144c1.04057,0.01146 2.30438,-0.06486 2.30438,-0.06486c0,0 2.93076,-4.4477 4.92472,-5.71837c0.52953,-0.33744 8.59442,0.54401 13.73791,4.10488c3.93351,2.72317 5.21006,9.23209 4.89649,10.55769c-1.35391,5.72322 -7.60554,4.04478 -7.60928,4.71324z" fill="none" stroke="#000000"></path></g></g></g></g></g></svg>