<svg version="1.1" xmlns="http://www.w3.org/2000/svg" xmlns:xlink="http://www.w3.org/1999/xlink" width="185.295" height="137.28033" viewBox="0,0,185.295,137.28033"><defs><linearGradient x1="330.40615" y1="214.23473" x2="355.06544" y2="257.81427" gradientUnits="userSpaceOnUse" id="color-1"><stop offset="0" stop-color="#465d84"></stop><stop offset="1" stop-color="#90bcbf"></stop></linearGradient></defs><g transform="translate(-172.87675,-125.36396)"><g data-paper-data="{&quot;isPaintingLayer&quot;:true}" fill-rule="nonzero" stroke-linejoin="miter" stroke-miterlimit="10" stroke-dasharray="" stroke-dashoffset="0" style="mix-blend-mode: normal"><path d="M205.52605,163.48996c-0.02524,-0.47086 0.15149,-0.85115 0.15149,-0.85115l0.82928,-1.61726c2.49733,-2.86193 4.92664,-6.2178 8.77257,-7.96082c4.82751,-2.18788 8.84375,-0.25387 13.75242,-0.46513c1.5006,-0.06458 3.18355,-0.82887 4.76638,-1.68282l-0.2332,-0.20072l1.67895,-1.44514c0.3798,-0.32691 0.90445,-0.52909 1.484,-0.52909c1.15908,0 2.09869,0.80876 2.09869,1.80643v1.92686h-0.39089l0.19277,0.76621c-0.60065,0.46614 -1.35802,0.81656 -1.80195,1.39842c-0.37761,0.49493 -0.35523,1.24041 -0.57453,1.80441c2.63718,1.70952 4.6391,3.84096 7.05101,6.12236c2.2513,2.12947 4.67637,3.63602 6.67178,6.0443c2.67273,4.13913 6.40703,7.65113 9.09085,11.7807c4.33937,6.67696 7.17602,14.15565 11.65205,20.78563c3.7053,5.48835 10.69304,9.33534 17.08925,12.0873c4.46673,2.19697 12.37767,4.37437 14.15248,8.96972c1.45117,3.75737 -2.15998,9.3087 -4.80035,12.26545c-0.94065,1.05335 -2.4192,1.70835 -3.28789,2.80653c-1.6665,2.10679 -2.06691,3.55701 -5.0786,4.73094c-2.7052,1.05446 -5.65583,1.55652 -8.57568,1.84057c-4.75023,0.00558 -9.56384,-0.19458 -14.3066,0.00142c-1.21476,0.0502 -2.42573,0.32731 -3.63773,0.24086c-1.47887,-0.10548 -3.46699,0.21522 -4.35103,-0.81068c-0.80541,-0.93463 0.30716,-2.32385 0.68767,-3.44047c1.21523,-3.56615 5.15918,-6.30667 5.69725,-10.05837c0.341,-2.37777 -0.6488,-4.5904 -1.26371,-6.8136c-0.07123,-0.25749 0.35262,-0.70111 0.06387,-0.79215c-0.37546,-0.11837 -0.70933,0.31789 -1.06397,0.47683c-4.00937,-0.00983 -7.33679,0.46756 -10.89278,1.95746c-0.44668,0.18714 -1.03204,0.21382 -1.35097,0.54166c-1.03576,1.06472 -1.11955,4.0816 -1.53433,5.33272c-0.86171,2.59915 -3.0877,6.19428 -5.25053,8.22173c-1.88694,1.76885 -5.766,4.05152 -8.42065,4.81179c-3.36689,0.96424 -7.53823,0.57442 -11.01719,0.57442c-6.72016,0 -13.24532,-0.94365 -19.94813,-1.20561c-5.22624,-0.20426 -10.45828,-0.00458 -15.68478,-0.24138c-3.09468,-0.14021 -9.05631,0.01513 -10.29473,-3.4117c-0.85215,-2.35797 2.76832,-6.44349 4.09044,-8.44169c2.01421,-3.03139 3.10374,-7.44617 7.02812,-9.14443c2.70551,-1.1708 4.86375,-0.29103 7.56708,-0.43461c0.81536,-0.0433 1.57668,-0.39338 2.38836,-0.47293c1.15802,-0.11352 2.05862,0.42497 2.93347,-0.43741c1.90754,-1.88032 0.36786,-4.8249 0.51585,-7.00467c0.27206,-4.00704 1.11697,-7.88157 1.11697,-11.95771c0.02019,-12.73254 1.01512,-25.2215 2.23721,-37.87517z" fill="#2e00e3" stroke="none" stroke-width="0.5" stroke-linecap="butt"></path><path d="M227.00133,151.95083c1.16415,1.50304 1.65654,1.30079 1.65654,1.30079c0,0 -10.34632,3.4955 -13.62586,3.6719c-0.78813,0.04238 -3.53208,1.37017 -3.73804,1.90491c-0.95652,2.48344 -5.2695,10.70001 -5.2695,10.70001c0,0 1.7296,-0.65608 -0.30644,-1.09421c-2.03604,-0.43812 -1.52703,-2.19062 -1.52703,-2.19062c0.92657,-3.19017 1.74309,-6.71773 3.46492,-9.66688c0.49462,-0.84718 0.68759,-1.96846 1.61316,-2.4825c0.85901,-0.47707 4.2552,-0.22776 5.5021,-0.29485c2.79459,-0.15037 5.41479,-0.58886 7.97827,-1.54343l1.34151,-0.80609c0,0 1.74621,-1.00203 2.91036,0.50102z" fill="#4b00ff" stroke="none" stroke-width="0.5" stroke-linecap="butt"></path><path d="M301.66855,169.56254c0,12.49081 -4.14574,32.69904 -9.57512,43.62489c-1.94274,3.9095 -1.47334,6.59383 -4.97579,6.59383c-2.0233,0 -8.13717,-3.48963 -11.75176,-3.50724c-5.04866,-0.02458 -10.63818,-0.02752 -15.94928,-0.3655c-4.68949,-0.29842 -9.1003,-0.69884 -13.61329,-3.8867c-13.83228,-9.28251 -15.49016,-25.23719 -15.49016,-32.82498c0,-6.01979 -0.65005,-20.73824 7.20156,-29.9279c10.3535,-12.11792 28.99707,-15.47367 37.57044,-15.47367c13.29072,0 26.5834,18.80701 26.5834,35.76729z" fill="#3400ff" stroke="none" stroke-width="0" stroke-linecap="butt"></path><path d="M212.64089,218.92616l0.58806,-12.40128c0,0 0.98667,-9.19361 2.05824,-14.67908c1.07156,-5.48546 1.63729,-8.27351 3.5284,-13.91981c1.89111,-5.64628 3.56169,-9.8703 5.88069,-14.17289c2.31898,-4.3026 7.35085,-10.37659 7.35085,-10.37659l6.46875,-6.3272c0,0 6.12544,-5.31424 11.46733,-7.84571c5.34191,-2.53147 9.83602,-3.61184 14.70172,-4.55557c4.86569,-0.94375 8.22939,-1.16406 12.14067,-0.51841c3.91129,0.64565 5.93397,1.35605 10.44314,5.02505c2.58666,2.10469 6.91173,5.62664 9.89858,10.1363c2.21996,3.35177 3.45016,7.35698 4.00628,11.15975c1.30435,8.91922 1.11552,18.47597 0.85368,22.7901c-0.26182,4.31413 -1.04935,6.9764 -1.79263,9.91934c-0.74328,2.94294 -0.63096,2.54458 -2.61788,7.54371c-1.98694,4.99914 -5.27809,11.592 -5.58666,12.65438c-0.30855,1.06236 -0.25591,1.16849 1.17614,2.53088c1.43205,1.36238 4.41052,2.78396 4.41052,2.78396c0,0 3.24528,1.83086 4.14489,3.79632c0.89961,1.96546 1.52776,1.79342 0.01421,5.29038c-1.51355,3.49695 -2.29961,4.67958 -5.04122,7.61709c-2.74159,2.9375 -6.34943,6.58581 -7.94621,6.71621c-11.20269,0.91488 -27.73169,1.2982 -29.10211,1.26544c-1.37042,-0.03277 -4.3458,-0.65764 -2.05824,-4.43842c2.28757,-3.78078 5.72629,-8.16031 6.48331,-9.3893c0.96828,-1.57196 -2.66087,-7.06138 -2.66087,-7.06138c0,0 -3.91353,0.48877 -5.65638,0.88587c-1.57184,0.35813 -4.34078,1.39191 -4.34078,1.39191c0,0 -2.28403,5.69585 -5.01314,8.87686c-2.72911,3.18102 -5.15376,6.05261 -7.95348,7.57381c-2.26845,1.23254 -3.42624,2.48436 -15.26066,2.78396c-11.83441,0.2996 -19.02963,-0.54529 -25.87503,-1.01235c-6.84537,-0.46706 -14.86827,-1.10085 -17.34802,-2.02471c-2.47975,-0.92386 -3.19983,-2.57913 -2.35228,-5.31484c0.84756,-2.73572 2.39677,-3.26465 4.11648,-6.3272c1.71971,-3.06253 4.41052,-7.84571 4.41052,-7.84571z" fill="none" stroke="#000000" stroke-width="3" stroke-linecap="round"></path><path d="M202.31518,219.03176c0,0 0.74706,-21.30983 1.11929,-28.18028c0.37223,-6.87044 0.4772,-11.30329 1.39913,-18.30514c0.92194,-7.00187 1.35627,-12.04655 3.3579,-17.82342c0.40584,-1.17131 14.47968,-2.52967 16.78951,-2.64943c2.30983,-0.11977 6.43598,1.44514 6.43598,1.44514" fill="none" stroke="#000000" stroke-width="3" stroke-linecap="round"></path><g><g stroke-linecap="round"><path d="M238.93417,143.6297c13.50536,-5.33278 23.1756,-10.1013 36.88725,-8.11658c13.71165,1.98472 31.78703,6.60679 24.54467,17.00867c-7.24235,10.40187 -28.37949,-2.12027 -36.01995,-0.52723c-7.64047,1.59305 -6.96976,9.43399 -15.11119,11.18809c-12.3476,2.66032 -5.65168,-5.70226 -9.55756,-7.21473c-3.31558,-1.28388 -12.02538,4.90404 -12.39832,-1.2872c-0.16523,-2.74293 4.13312,-8.08088 11.65511,-11.05103z" fill="#fff3df" stroke="none" stroke-width="0"></path><path d="M239.95319,145.0679c4.03756,-1.59428 3.64117,13.98656 7.67102,13.21675c7.38438,-1.41058 5.34889,-8.51054 13.22545,-11.06245c2.20297,-0.71374 14.08659,0.86464 16.18748,1.16875c13.71165,1.98472 30.57132,-6.27104 23.32896,4.13083c-7.24235,10.40187 -28.37949,-2.12027 -36.01995,-0.52723c-7.64047,1.59305 -6.96976,9.43399 -15.11119,11.18809c-12.3476,2.66032 -5.65168,-5.70226 -9.55756,-7.21473c-3.31558,-1.28388 -12.02538,4.90404 -12.39832,-1.2872c-0.16523,-2.74294 1.97331,-5.46727 9.4953,-8.43743z" fill="#cfa7a7" stroke="none" stroke-width="0"></path><path d="M275.82137,135.51313c13.71164,1.98472 31.78701,6.60679 24.54467,17.00866c-7.24235,10.40187 -28.37948,-2.12026 -36.01994,-0.52721c-7.64045,1.59305 -6.96974,9.434 -15.11118,11.18809c-12.3476,2.66032 -5.65168,-5.70225 -9.55756,-7.21471c-3.31559,-1.28388 -12.02538,4.90403 -12.39832,-1.2872c-0.16523,-2.74294 4.13314,-8.08089 11.6551,-11.05104c13.50536,-5.33278 23.17558,-10.10129 36.88724,-8.11657z" fill="none" stroke="#000000" stroke-width="4"></path></g><path d="M259.70796,145.34065c-10.0167,1.01049 -22.05105,-1.54367 -16.10715,-7.30249c0.44543,-0.43156 1.21376,-1.33788 2.04342,-2.27309c0.86677,-0.97704 1.80048,-1.98564 2.5029,-2.51745c7.5971,-5.75172 20.39573,-10.545 31.8396,-1.27933c13.51475,10.94242 -10.26207,12.36187 -20.27876,13.37235z" fill="#ffd500" stroke="none" stroke-width="0" stroke-linecap="round"></path><path d="M259.70796,145.34065c-10.0167,1.01049 -22.05105,-1.54367 -16.10716,-7.30249c0.44543,-0.43157 1.21376,-1.33788 2.04343,-2.27309c0.86677,-0.97704 1.80048,-1.98564 2.5029,-2.51744c7.5971,-5.75172 3.0311,4.09512 10.05231,6.31c14.75171,4.6535 23.09317,-5.06918 24.22281,-4.24221c9.02962,6.61025 -13.81139,9.1271 -22.71429,10.02524z" fill="#ff7e00" stroke="none" stroke-width="0" stroke-linecap="round"></path><path d="M259.81035,145.72413c-10.0167,1.01049 -22.05104,-1.54369 -16.10716,-7.30251c2.15923,-2.092 5.55995,-5.68787 9.9279,-7.90261c7.65605,-3.88197 17.85279,-5.13461 26.45804,1.83274c13.51475,10.94241 -10.26207,12.36187 -20.27878,13.37235z" fill="none" stroke="#000000" stroke-width="4" stroke-linecap="round"></path><path d="M262.70115,133.06316c1.26405,-2.19805 4.87647,-2.8774 8.06856,-1.51737c3.19208,1.36003 4.75506,4.24442 3.491,6.44245c-0.57463,0.99923 -2.3271,-1.95938 -4.98508,-2.97888c-3.18893,-1.22314 -7.2639,-0.74738 -6.57448,-1.94621z" fill="#fff45c" stroke="none" stroke-width="0" stroke-linecap="butt"></path></g><g stroke="#000000" stroke-linecap="round"><path d="M245.69788,200.82458l5.54516,-2.63156l8.53101,4.97075l10.23722,-3.80116l4.69206,2.63156l11.09032,-5.26314l-4.64449,13.50105l-7.29892,5.21234l-6.82482,-3.21636l-6.39825,3.50876l-7.67792,-3.50876l-8.53101,3.21636c0,0 -8.66551,-4.36887 -11.51688,-8.18712c-2.85136,-3.81826 -6.82481,-16.37425 -6.82481,-16.37425l11.94341,7.01753z" data-paper-data="{&quot;index&quot;:null}" fill="#ffffff" stroke-width="2"></path><path d="M283.66054,198.28683l-9.71649,16.34662l-3.53327,-14.82601l-10.15816,15.20616l-8.39151,-15.96646l-6.62488,15.58632l-16.78304,-20.52832" fill="none" stroke-width="1"></path></g><g><path d="M314.29043,182.57436c0,1.79138 -73.05866,2.97647 -73.05866,2.00394c0,-11.74519 12.23327,-18.70382 19.28313,-18.70382c7.04986,0 53.77557,11.41192 53.77557,16.69986z" fill="#1c4ea5" stroke="none" stroke-width="0" stroke-linecap="butt"></path><path d="M305.32777,169.65984c5.43187,2.64576 15.55849,13.8052 8.28362,13.8052c-2.50751,0 -13.76883,2.19628 -25.27047,2.59679c-14.17766,0.49365 -17.39144,1.42469 -27.71355,-1.45687c-3.18074,-0.88796 -3.29259,-2.31555 -4.98813,-4.70883c-1.09459,-1.54496 -0.8899,-3.38206 -0.82792,-3.77903c1.62958,-10.439 10.51457,-10.79109 17.78936,-10.79109c7.27487,0 28.08467,2.0726 32.72705,4.33381z" fill="#6fddfe" stroke="none" stroke-width="0" stroke-linecap="butt"></path><path d="M311.84603,174.11317c1.53663,1.43005 1.86903,2.33087 2.44433,4.4533c0.57532,2.12242 0.82275,3.39773 0.27161,5.56665c-0.55112,2.16891 -73.70739,0.92815 -73.87343,-1.11332c-0.16603,-2.04147 -0.72836,-2.09597 0.81477,-5.12129c1.54313,-3.02531 2.13853,-4.70944 5.43187,-7.1253c3.29336,-2.41583 6.2775,-3.31139 10.04896,-4.23062c3.77146,-0.91926 4.8739,-1.06816 14.39447,-1.55867c9.52057,-0.49048 14.79885,0.41843 20.09793,0.89064c5.2991,0.47224 9.38008,1.97097 12.7649,3.33997c3.38481,1.369 6.06798,3.46858 7.60461,4.89862z" fill="none" stroke="#000000" stroke-width="2" stroke-linecap="round"></path><path d="M305.54942,175.45312c0.27159,3.2654 -13.90765,2.11534 -18.33256,2.11534c-4.42491,0 -12.90074,-1.74459 -12.90074,-5.00996c0,-4.37869 7.66102,-3.45127 12.08596,-3.45127c11.75796,0 18.85789,2.86598 19.14735,6.34595z" fill="#ffffff" stroke="none" stroke-width="0" stroke-linecap="butt"></path></g><g><path d="M209.47246,225.68715c0,0 -2.10285,1.48264 -3.28608,1.82474c-1.00967,0.2919 -3.37558,0.10124 -3.37558,0.10124l5.8541,-23.84638l-15.15124,-0.87487l2.09926,-8.66548l-1.24898,-0.19097l1.28109,-4.61474c0,0 9.51188,4.28696 13.33624,6.14432c2.57174,1.24902 7.38271,3.91818 7.38271,3.91818z" fill="#373142" stroke="#000000" stroke-width="2.5" stroke-linecap="round"></path><path d="M196.62923,195.17068c0,0 5.186,2.65223 6.31018,3.88159c1.12795,1.23347 0.26354,3.33754 0.26354,3.33754l-8.2296,-0.38432z" fill="#45597c" stroke="#45597c" stroke-width="0.5" stroke-linecap="round"></path><path d="M196.98352,193.58088l-1.22609,-0.25217l0.56588,-2.50529c0,0 3.23874,1.42952 4.56665,2.29551c1.37725,0.89817 3.55427,3.00045 3.55427,3.00045l-7.57246,-1.66903z" fill="#45597c" stroke="#45597c" stroke-width="0.5" stroke-linecap="round"></path><path d="M192.62058,193.68757l2.76143,0.79108l-2.52771,8.40495l-2.61171,1.47093l-8.82786,-1.81566l-0.9239,-1.80764l1.72151,-8.06875z" fill="#3a4b69" stroke="#000000" stroke-width="2.5" stroke-linecap="round"></path><path d="M188.00477,196.30815c1.55745,0.32033 2.50849,1.70217 2.12421,3.08647c-0.38428,1.38426 -1.95838,2.24678 -3.51583,1.92644c-1.55745,-0.32033 -2.50848,-1.70216 -2.1242,-3.08646c0.38429,-1.38427 1.95837,-2.24679 3.51583,-1.92646z" fill="#000000" stroke="#000000" stroke-width="0.5" stroke-linecap="butt"></path><path d="M182.23341,198.18904c0,0 0.03117,1.67492 0.28074,2.3335c0.22065,0.58225 1.15527,1.36443 1.15527,1.36443l-1.41,-0.29l-0.57723,-0.95542z" fill="#758d97" stroke="#758d97" stroke-width="0.5" stroke-linecap="round"></path><path d="M185.65616,189.17505c2.81392,0.11559 9.60218,0.1464 9.60218,0.1464l-1.00263,4.31198l-14.73808,-1.30206l0.79213,-4.0206c0,0 3.43389,0.78573 5.34639,0.86428z" fill="#3a4b69" stroke="#000000" stroke-width="2.5" stroke-linecap="round"></path><path d="M174.12675,170.37398c2.31381,-8.33479 9.94949,-13.9068 17.05474,-12.44543c4.01591,0.82596 10.12519,9.37038 10.42652,17.15629c0.2318,5.98953 -4.44224,11.83574 -6.29858,12.69009c-2.84463,1.30919 -9.66591,0.92094 -12.50701,0.33659c-7.10525,-1.46137 -10.98949,-9.40273 -8.67567,-17.73753z" fill="#3a4b69" stroke="#000000" stroke-width="2.5" stroke-linecap="butt"></path><path d="M192.34865,180.19385l2.02787,4.6006c0,0 0.94114,0.49406 1.44775,0.3084c0.6565,-0.24059 2.03072,-1.59093 2.03072,-1.59093c0,0 -0.41416,0.94744 -1.31496,1.83126c-0.69703,0.6839 -1.76178,1.29694 -1.98916,1.40106c-1.52062,0.6964 -5.18726,0.70066 -5.18726,0.70066c0,0 2.17749,-0.29588 2.87375,-0.664c0.69626,-0.36812 1.30371,-1.54471 1.30371,-1.54471l-1.84397,-4.56278z" fill="#9bb3c1" stroke="none" stroke-width="0" stroke-linecap="round"></path><path d="M182.81032,166.96444l0.06621,-2.10604l-1.31559,-1.3304l-2.1896,-0.28302c0,0 1.03433,-0.99072 1.54478,-1.39859c0.54246,-0.43344 1.61977,-1.13002 1.61977,-1.13002l-0.50347,1.34673l1.65032,2.45908l1.78596,1.0367z" fill="#9bb3c1" stroke="none" stroke-width="0" stroke-linecap="round"></path><path d="M189.53324,165.39083c4.33377,0.89134 6.79435,5.4057 5.49587,10.08309c-1.29849,4.67738 -5.86433,7.7466 -10.19812,6.85525c-4.33377,-0.89134 -6.79435,-5.40571 -5.49586,-10.0831c1.29849,-4.67738 5.86434,-7.74659 10.1981,-6.85524z" fill="#000000" stroke="#000000" stroke-width="0.5" stroke-linecap="butt"></path><path d="M198.18784,164.53516l2.17483,-0.93705l17.46426,21.78647l-3.60734,12.44249l-19.29814,-9.11106c0,0 2.55118,-2.07563 4.12544,-4.72515c1.45491,-2.44863 2.2581,-5.18917 2.52591,-7.41092c0.55759,-4.62579 -3.38495,-12.04476 -3.38495,-12.04476z" fill="#373142" stroke="#000000" stroke-width="2.5" stroke-linecap="round"></path><path d="M200.24885,164.79205l5.47359,7.3515c0,0 2.60519,7.26546 3.0491,9.67878c0.49545,2.69348 -0.21879,5.3464 -0.21879,5.3464l-7.22795,-5.0464c0,0 1.68146,-4.95091 1.46088,-7.66422c-0.19246,-2.36744 -3.21239,-9.33306 -3.21239,-9.33306z" fill="#465c83" stroke="none" stroke-width="0" stroke-linecap="round"></path><path d="M206.92227,200.33512c0,0 2.59218,-0.30569 2.80698,2.02761c0.2148,2.33331 -2.1776,4.80941 -2.1776,4.80941l-14.04916,5.08703l10.09959,-2.99879c0,0 4.49269,-0.47012 5.23665,1.62091c0.74397,2.09102 -2.87053,5.02947 -2.87053,5.02947l-9.42372,4.10465l9.22448,-4.14562c0,0 3.59561,-1.05841 4.82936,0.81199c1.23375,1.87042 -0.6789,5.48023 -0.6789,5.48023l-3.78913,3.02768l4.58609,-2.86376c0,0 2.16239,0.92766 1.22185,2.42675c-0.94052,1.49908 -4.24403,2.39025 -4.24403,2.39025c0,0 -4.83054,1.94942 -7.67873,1.86512c-2.84819,-0.08429 -4.98831,-0.90958 -6.73536,-2.29172c-1.74706,-1.38214 -1.99763,-4.943 -1.99763,-4.943c0,0 -2.61174,-0.76824 -3.15784,-2.28106c-0.54611,-1.51282 0.89575,-3.98534 0.89575,-3.98534c0,0 -4.30486,-1.29902 -5.06383,-3.76079c-0.75898,-2.46177 1.96076,-6.3043 1.96076,-6.3043c0,0 2.51195,-1.90726 7.6135,-3.14753c5.10153,-1.24027 13.39146,-1.95915 13.39146,-1.95915z" fill="#4b00ff" stroke="#000000" stroke-width="2.5" stroke-linecap="round"></path><path d="M217.57807,210.14074c0.17928,1.48177 -0.63577,5.13249 -2.29603,7.73194c-1.48479,2.32472 -3.82592,3.69893 -3.82592,3.69893l3.60108,-14.4492c0,0 2.18121,0.21137 2.52086,3.01831z" fill="#4e00e3" stroke="#000000" stroke-width="2.5" stroke-linecap="round"></path><path d="M186.75007,213.63319l4.7312,-1.50246l1.88751,-9.10139c0,0 9.35882,-2.35953 13.47125,-1.90529c3.05436,0.33736 1.25107,3.36462 0.95368,4.04696c-0.69781,1.60104 -2.98294,2.68723 -2.98294,2.68723l-11.96246,5.10382l-3.50863,2.85416c0,0 -0.63982,-0.95677 -1.07142,-1.32061c-0.43161,-0.36384 -1.5182,-0.86237 -1.5182,-0.86237z" fill="#4e00e3" stroke="none" stroke-width="0" stroke-linecap="round"></path><path d="M204.89816,209.52653c0,0 3.52782,-0.44886 3.9005,1.48987c0.37267,1.93874 -2.85455,3.95141 -2.85455,3.95141l-8.98891,4.75268c0,0 -0.75994,-0.22448 -0.92957,-0.49284c-0.16318,-0.25817 -0.06963,-1.08797 -0.06963,-1.08797l11.12778,-5.55053c0,0 -0.54128,-1.11989 -0.90556,-1.63032c-0.36428,-0.51044 -1.28009,-1.4323 -1.28009,-1.4323z" fill="#4e00e3" stroke="none" stroke-width="0" stroke-linecap="round"></path><path d="M208.91798,217.68242c0,0 -1.54458,-1.3288 -1.33572,-1.3344c0.11758,-0.00315 1.59537,0.17543 2.05943,0.42003c0.47638,0.25114 0.70812,1.06164 0.70812,1.06164c0,0 -0.3275,2.1198 -0.76766,3.00905c-0.47475,0.95913 -2.01148,2.8811 -2.01148,2.8811l-4.40759,2.33041l7.25226,-2.90139c0,0 1.00819,0.53202 1.17389,0.86108c0.17952,0.35653 -0.13498,1.20228 -0.13498,1.20228c0,0 -7.73353,3.04814 -10.35106,3.42009c-2.61752,0.37194 -6.42216,-0.88502 -7.20613,-1.1353c-0.78395,-0.25028 -0.93658,-1.46428 -0.93658,-1.46428c0,0 1.89467,1.36249 5.92996,0.41041c4.03527,-0.95207 7.01084,-3.13575 8.42645,-4.29412c1.41561,-1.15837 1.60109,-4.4666 1.60109,-4.4666z" fill="#4e00e3" stroke="none" stroke-width="0" stroke-linecap="round"></path><path d="M206.96405,200.39362c0,0 2.59218,-0.30569 2.80698,2.02761c0.2148,2.33331 -2.1776,4.80941 -2.1776,4.80941l-14.04916,5.08703l10.09959,-2.99879c0,0 4.49269,-0.47012 5.23665,1.62091c0.74397,2.09102 -2.87053,5.02947 -2.87053,5.02947l-9.68757,4.20044l9.48834,-4.24142c0,0 3.59561,-1.05841 4.82936,0.81199c1.23375,1.87042 -0.6789,5.48023 -0.6789,5.48023l-3.78913,3.02768l4.58609,-2.86376c0,0 2.16239,0.92766 1.22185,2.42675c-0.94052,1.49908 -4.24403,2.39025 -4.24403,2.39025c0,0 -4.83054,1.94942 -7.67873,1.86512c-2.84819,-0.08429 -4.98831,-0.90958 -6.73536,-2.29172c-1.74706,-1.38214 -1.99763,-4.943 -1.99763,-4.943c0,0 -2.61174,-0.76824 -3.15784,-2.28106c-0.54611,-1.51282 0.89575,-3.98534 0.89575,-3.98534c0,0 -4.30486,-1.29902 -5.06383,-3.76079c-0.75898,-2.46177 1.96076,-6.3043 1.96076,-6.3043c0,0 2.51195,-1.90726 7.6135,-3.14753c5.10153,-1.24027 13.39146,-1.95915 13.39146,-1.95915z" fill="none" stroke="#000000" stroke-width="2.5" stroke-linecap="round"></path><path d="M203.47288,201.43371l0.50649,8.27185l-6.35139,1.82872l-4.43573,-8.69379z" fill="#9db8cd" stroke="#000000" stroke-width="2.5" stroke-linecap="round"></path><path d="M196.40598,206.57528c0,0 0.47188,-0.34517 0.54883,-0.67566c0.07921,-0.34018 -0.13404,-1.09962 -0.13404,-1.09962l5.5436,-1.51685l0.63682,5.8624l-4.73168,1.31181z" fill="#43577c" stroke="#43577c" stroke-width="0.5" stroke-linecap="round"></path></g><g data-paper-data="{&quot;index&quot;:null}"><g><g><path d="M326.48211,185.31027c0,0 -1.87307,-5.61314 -1.54182,-9.78809c0.1903,-2.39859 2.01526,-4.09858 3.02667,-4.55795c1.04379,-0.47406 4.16809,-1.29177 6.5415,0.34683c4.23932,2.92685 8.13898,9.43278 8.13898,9.43278c0,0 -5.44322,4.76243 -8.32765,5.57722c-2.42324,0.68452 -7.83766,-1.01082 -7.83766,-1.01082z" fill="#465d84" stroke="#000000" stroke-width="2" stroke-linecap="butt"></path><path d="M325.93906,175.94244l5.69557,9.4958c0,0 -1.74037,0.11606 -2.50912,0.14255c-0.67282,0.02318 -2.01597,-1.04294 -2.01597,-1.04294c0,0 -0.87616,-3.3206 -1.05412,-4.62748c-0.20762,-1.52458 -0.11636,-3.96795 -0.11636,-3.96795z" fill="#90bcbf" stroke="none" stroke-width="0" stroke-linecap="butt"></path><path d="M328.20615,171.42783c0,0 2.2804,-0.16908 3.03702,-0.98138c0.67007,-0.71936 5.03758,1.56732 5.03758,1.56732l5.87951,8.59733c0,0 -1.74663,0.88554 -2.66441,1.7176c-0.91829,0.83253 -2.93348,1.98832 -2.93348,1.98832z" fill="#313243" stroke="none" stroke-width="0" stroke-linecap="butt"></path><g data-paper-data="{&quot;index&quot;:null}"><path d="M326.45961,180.60574c1.2822,2.23288 0.40846,4.89125 -1.95155,5.93763c-1.66096,0.73643 3.76601,12.54892 -4.44083,11.03662c-1.13874,-0.20983 -3.03351,-2.32731 -3.35638,-3.87879c-0.7807,-3.75134 1.4711,-8.8383 1.20242,-9.30618c-0.44594,-0.77659 -1.40073,-2.10883 -1.35326,-2.90265c0.089,-1.48856 1.7656,-2.35254 3.3048,-3.03498c2.36001,-1.04638 5.31261,-0.08453 6.5948,2.14835z" fill="#3400ff" stroke="#000000" stroke-width="3.5" stroke-linecap="butt"></path><path d="M324.28489,181.21497c0.71228,1.24041 3.13829,15.3207 -2.92182,15.38436c-1.34107,0.01409 -2.46687,-0.68217 -2.9975,-1.64216c-0.73962,-1.33808 -0.58664,-3.07164 -0.58664,-3.07164c0,0 1.11196,1.43494 2.08519,1.00343c0.2267,-0.10051 0.74256,-0.27335 1.11262,-1.35586c0.52386,-1.53236 0.32705,-5.18909 0.86585,-7.23501c0.71466,-2.71365 2.13078,-3.6256 2.44228,-3.08312z" fill="#3400ff" stroke="none" stroke-width="0" stroke-linecap="butt"></path><path d="M352.14951,186.88408c0.94314,4.71059 0.88669,4.27186 0.70658,5.11862c-0.25488,1.19821 -0.9369,2.42297 -0.9369,2.42297c0,0 1.0553,2.71373 0.50953,5.15261c-0.47376,2.11704 -2.49749,4.01258 -3.19782,3.92493c-0.52887,-0.0662 -1.6104,4.30153 -2.44449,4.70147c-2.05041,0.98317 -12.72197,5.35961 -17.40885,1.21327c-0.62369,-0.55175 -2.47955,-2.31923 -2.81059,-3.73721c-0.39713,-1.70115 0.79317,-3.03855 0.79317,-3.03855c0,0 -1.58677,-1.5034 -2.19873,-2.36041c-0.59962,-0.83972 -1.43674,-2.73083 -1.43674,-2.73083c0,0 -1.02043,-2.72218 -0.73165,-3.79875c0.28686,-1.06942 2.45861,-2.63935 2.45861,-2.63935c0,0 -4.22276,-2.96227 -2.60512,-8.62937c0.96658,-3.38624 7.65043,-4.7668 7.7659,-4.818c4.82569,-2.13961 19.86044,0.8444 21.53709,9.21862z" fill="#3400ff" stroke="#000000" stroke-width="3.5" stroke-linecap="butt"></path><path d="M336.98564,201.72318c0,0 4.77213,-3.58368 4.89273,-5.53666c0.36493,-5.91055 -5.0664,-6.05276 -5.0664,-6.05276c0,0 4.13018,0.09537 5.41005,-3.92399c1.22823,-3.85722 -1.10632,-7.11596 -1.10632,-7.11596c0,0 5.17299,1.17801 7.97839,4.23443c0.46016,0.50132 0.95495,1.05038 1.25972,1.63973c0.1755,0.33937 0.20274,0.72993 0.3426,1.03553c1.5278,3.33773 1.08323,3.61391 1.19636,5.72859c0.11314,2.11469 -0.92681,2.23781 -0.85515,2.99848c0.07167,0.76067 1.00465,0.37918 0.39266,4.1388c-0.05606,0.3444 -0.50437,2.33647 -1.42238,3.05969c-0.6767,0.5331 -1.2978,0.39681 -1.77742,1.24727c-0.75937,1.34651 -0.75298,3.03654 -2.14893,4.11767c-2.49355,1.93121 -6.79724,2.14143 -9.42782,2.64235c-2.41336,0.45956 -4.97749,0.20992 -6.52119,-1.10044c-0.7998,-0.67889 -2.05659,-2.07925 -2.3777,-2.85034c-0.29871,-0.71724 0.31069,-0.83113 0.31069,-0.83113c0,0 2.49562,1.21303 4.28965,0.97926c1.02435,-0.13347 2.81602,-0.69942 4.44005,-1.26686c1.86895,-0.65301 3.51591,-1.30797 3.51591,-1.30797c0,0 -1.26083,-0.4595 -1.81502,-0.76542c-0.55433,-0.306 -1.51052,-1.07031 -1.51052,-1.07031z" fill="#2e00e3" stroke="none" stroke-width="0" stroke-linecap="butt"></path><g fill="none" stroke="#000000" stroke-width="2" stroke-linecap="round"><path d="M337.21782,202.12748c0,0 -3.9562,0.73723 -5.6355,0.66762c-1.4963,-0.06203 -4.57894,-0.61933 -4.57894,-0.61933"></path><path d="M336.96674,190.40331c0,0 -1.85276,0.22888 -3.77966,0.42871c-1.16969,0.1213 -2.3667,0.2319 -3.19319,0.27409c-1.84874,0.09439 -5.30973,-0.07571 -5.30973,-0.07571"></path></g></g></g><g data-paper-data="{&quot;index&quot;:null}" stroke="#000000" stroke-width="2.5" stroke-linecap="butt"><path d="M320.58213,211.64362l29.29512,-2.97716l6.05335,12.17831l-25.73429,2.07089z" fill="#465d84"></path><path d="M324.21896,207.31464l25.7616,-2.81498l0.05996,4.62133l-29.53525,3.00158z" data-paper-data="{&quot;index&quot;:null}" fill="#313243"></path><path d="M350.13611,204.60751l6.6797,12.73435l-1.07411,3.1659l-5.88831,-11.441z" data-paper-data="{&quot;index&quot;:null}" fill="#90bcbf"></path></g></g><g stroke="#000000" stroke-width="2" stroke-linecap="round"><path d="M343.31549,214.10224l4.06563,7.03385l0.84682,11.71367l0.78374,11.18046l1.35622,11.46408l0.4731,3.9991l-18.44911,-21.56378" fill="#90bcbf"></path><path d="M342.77456,214.08522l1.87424,18.12073l3.21318,15.77232l2.74009,11.77322l-8.69507,-7.44506l-7.19844,-8.46046l-2.83945,-8.05774l-0.59926,-5.06552l4.28044,0.33908l-3.68981,-2.17981l4.41209,-2.99303l-5.77782,0.55955l-0.91669,-1.66006l7.68246,-2.75935l-6.31472,-0.87868l1.75847,-7.91313z" fill="url(#color-1)"></path></g></g></g></g></svg>