<svg version="1.1" xmlns="http://www.w3.org/2000/svg" xmlns:xlink="http://www.w3.org/1999/xlink" width="253.53015" height="197.47728" viewBox="0,0,253.53015,197.47728"><g transform="translate(-108.20931,-97.72277)"><g data-paper-data="{&quot;isPaintingLayer&quot;:true}" fill-rule="nonzero" stroke-linejoin="miter" stroke-miterlimit="10" stroke-dasharray="" stroke-dashoffset="0" style="mix-blend-mode: normal"><path d="M247.44455,214.44244c0,0 5.59541,-2.05496 8.58604,-2.91475c3.36969,-0.96878 8.34761,-3.37121 8.34761,-3.37121c0,0 -0.72128,4.18508 -4.0583,5.85359c-1.17541,0.58771 -5.17097,3.28158 -7.3563,4.04977c-3.81048,1.33946 -5.99949,0.70644 -5.99949,0.70644l0.48042,-4.32381z" fill="#000000" stroke="none" stroke-width="0" stroke-linecap="butt"></path><g stroke-linecap="butt"><path d="M193.4916,134.21265c1.06137,-0.18913 15.69379,-5.39616 19.92143,7.84016c6.61387,20.70734 16.70316,60.74088 11.66926,78.71227c-1.7535,6.26016 -19.3237,7.05171 -20.32661,7.24798c-6.76368,1.32359 -13.93051,2.9183 -16.66515,-0.85311c-3.02938,-4.1779 -9.63226,-35.38838 -12.50294,-58.57772c-1.29006,-10.42123 -2.14495,-18.58232 -1.84204,-23.007c0.04331,-0.63265 0.98222,-2.92489 3.77448,-4.88434c4.67234,-3.27876 12.49356,-5.85852 15.97157,-6.47823z" fill="#00e297" stroke="none" stroke-width="0"></path><path d="M187.77941,151.80316c-3.81999,0.72237 -9.55369,5.6538 -11.81094,4.47827c-1.36128,-0.70893 -0.83674,-13.40789 -1.04297,-14.62452c-0.54815,-3.23404 9.68777,-5.91534 15.8115,-7.07336c2.05255,-0.38813 12.12895,-1.97215 18.32661,0.66331c4.25778,1.81056 4.60955,5.50968 5.76172,8.58087c0.72089,1.92153 3.21128,3.46389 2.66594,4.55641c-1.09954,2.20277 -27.93308,3.08262 -29.71189,3.41901z" fill="#00ffaa" stroke="none" stroke-width="0"></path><path d="M193.4916,134.21265c1.06137,-0.18913 15.69379,-5.39616 19.92143,7.84016c6.61387,20.70734 16.70316,60.74088 11.66926,78.71227c-1.7535,6.26016 -19.3237,7.05171 -20.32661,7.24798c-6.76368,1.32359 -13.93051,2.9183 -16.66515,-0.85311c-3.02938,-4.1779 -9.63226,-35.38838 -12.50294,-58.57772c-1.29006,-10.42123 -2.14495,-18.58232 -1.84204,-23.007c0.04331,-0.63265 0.98222,-2.92489 3.77448,-4.88434c4.67234,-3.27876 12.49356,-5.85852 15.97157,-6.47823z" fill="none" stroke="#000000" stroke-width="3"></path></g><path d="M286.95453,186.92867c1.06325,2.84659 13.65562,2.96243 15.842,10.53509c0.46097,1.59658 5.43415,10.2991 2.70594,18.04486c-2.84017,8.0636 -13.82124,12.94708 -20.19738,15.53058c-14.03375,5.68619 -34.92079,-9.04645 -35.7674,-10.69291c-1.71475,-3.33477 5.01368,-7.36587 5.01368,-7.36587l-5.25293,1.81915c0,0 -1.23128,23.07658 -4.94239,28.23166c-2.37216,3.29519 -7.23896,6.57862 -14.74709,6.69755c-6.14813,0.09741 -15.07042,-2.56279 -17.41532,-3.73417c-5.1832,-2.58925 -15.29122,-94.58718 -14.62252,-97.61842c0.27152,-1.23078 -0.20387,-15.94986 5.28853,-27.56167c2.08794,-4.41426 11.05414,-13.48997 20.57422,-17.33425c4.70863,-1.90138 15.64529,-1.44016 22.96535,3.11672c5.26702,3.27884 19.77834,16.49281 25.79473,31.77728c8.27239,21.01579 14.69413,48.3765 14.76057,48.55437z" fill="#00e297" stroke="none" stroke-width="0" stroke-linecap="round"></path><path d="M285.2016,206.70717c-4.00918,0 -21.66859,-1.79753 -33.50605,-6.78647c-6.93964,-2.92473 -21.38072,-1.06082 -29.22897,-11.27341c-13.85448,-18.0282 -20.04954,-51.57361 -20.21927,-57.53112c-0.31525,-11.06572 7.90898,-22.1844 19.09562,-26.70254c7.7254,-3.1202 18.65516,-1.831 21.84644,-0.35303c9.0667,4.19905 16.27044,18.40329 24.09657,27.17969c3.1913,3.5788 8.81886,17.28158 12.61479,32.04857c0.64264,2.50004 3.35939,14.3564 8.78342,22.59715c3.51553,5.34114 9.2401,4.48769 12.57809,8.80342c3.7337,4.82732 4.86374,14.70877 4.26357,18.5425c-0.3254,2.07866 -3.41526,9.19596 -8.41893,11.03604c-6.67262,2.45383 -16.15627,-0.72278 -21.30169,-1.46971c-10.45274,-1.51735 -9.98063,-11.09627 -8.0142,-15.23695c2.86011,-6.02249 17.83143,-0.85412 17.41062,-0.85412z" fill="#00ffaa" stroke="none" stroke-width="0" stroke-linecap="butt"></path><path d="M286.95453,186.92867c1.06325,2.84659 13.65562,2.96243 15.842,10.53509c0.46097,1.59658 5.43415,10.2991 2.70594,18.04486c-2.84017,8.0636 -13.82124,12.94708 -20.19738,15.53058c-14.03375,5.68619 -34.92079,-9.04645 -35.7674,-10.69291c-1.71475,-3.33477 5.01368,-7.36587 5.01368,-7.36587l-5.25293,1.81915c0,0 -1.23128,23.07658 -4.94239,28.23166c-2.37216,3.29519 -7.23896,6.57862 -14.74709,6.69755c-6.14813,0.09741 -15.07042,-2.56279 -17.41532,-3.73417c-5.1832,-2.58925 -15.29122,-94.58718 -14.62252,-97.61842c0.27152,-1.23078 -0.20387,-15.94986 5.28853,-27.56167c2.08794,-4.41426 11.05414,-13.48994 20.57422,-17.33425c4.70863,-1.90138 15.64529,-1.44016 22.96535,3.11672c5.26702,3.27883 19.77834,16.4928 25.79473,31.77727c8.27239,21.01579 14.69413,48.3765 14.76057,48.55437z" fill="none" stroke="#000000" stroke-width="3" stroke-linecap="round"></path><g><path d="M280.01593,141.71014c0.55557,2.17917 -5.5994,4.87197 -5.5994,4.87197l-8.34585,2.07591c0,0 -16.22188,5.35792 -20.56795,6.61492c-5.78287,1.67258 -13.69909,4.4605 -15.20045,4.88752c-6.08274,1.73008 -11.47706,6.7178 -12.81543,1.46817c-2.9727,-11.66016 5.82114,-21.57057 11.90389,-23.30065c6.08274,-1.73008 49.2868,-1.86749 50.62517,3.38214z" fill="#1c4ea5" stroke="none" stroke-width="0" stroke-linecap="butt"></path><path d="M269.01418,131.08854c5.35635,1.2936 16.91818,9.88715 10.64133,11.67244c-2.16352,0.61536 -11.32407,5.55935 -21.14652,8.77951c-12.10778,3.96936 -14.64502,5.68235 -24.28043,5.35476c-2.96915,-0.10097 -3.42695,-1.49076 -5.49563,-3.45062c-1.33543,-1.26516 -1.62381,-3.13919 -1.67082,-3.54851c-1.2361,-10.76334 6.74032,-13.7302 13.01716,-15.51549c6.27686,-1.78529 24.35707,-4.39763 28.9349,-3.29209z" fill="#6fddfe" stroke="none" stroke-width="0" stroke-linecap="butt"></path><path d="M275.76535,133.91001c1.68778,1.0426 2.20261,1.85534 3.23614,3.82121c1.03357,1.96585 1.56984,3.17123 1.64325,5.45967c0.038,1.18487 -16.673,5.89683 -32.55188,11.13622c-14.78957,4.87996 -28.82329,10.35078 -28.82329,10.35078c0,0 -1.98593,-2.47732 -2.64585,-4.46325c-0.65993,-1.98593 -1.15894,-1.90209 -0.59319,-5.28417c0.56573,-3.3821 0.65319,-5.20015 2.8833,-8.4067c2.23012,-3.20658 4.57822,-4.82795 7.59963,-6.66609c3.02142,-1.83814 3.93492,-2.25653 12.02528,-5.07985c8.0904,-2.82333 12.87459,-3.21633 17.56625,-4.04795c4.69168,-0.83162 8.59215,-0.34523 11.85911,0.18321c3.26698,0.52844 6.11347,1.95436 7.80124,2.99694z" fill="none" stroke="#000000" stroke-width="2" stroke-linecap="round"></path><path d="M270.67167,136.78553c1.06081,3.17509 -11.46437,5.51303 -15.28228,6.59894c-3.8179,1.0859 -11.57249,1.43395 -12.39895,-1.80778c-1.10825,-4.34701 5.73652,-5.30637 9.55441,-6.39227c10.14495,-2.88547 16.9963,-1.7826 18.1268,1.60113z" fill="#ffffff" stroke="none" stroke-width="0" stroke-linecap="butt"></path></g><g stroke="#000000" stroke-linecap="round"><g><path d="M264.00946,197.10368l-8.83333,-5.28117l-6.58333,4.22495l-15.33333,1.40831c0,0 -1.68974,-5.38598 -1.33334,-7.39364c0.3564,-2.00766 3.33334,-3.87285 3.33334,-3.87285l13.33333,9.85818l6.66667,-4.22494l9,5.28117l5.66666,-6.3374z" fill="#ffffff" stroke-width="2"></path><path d="M229.09279,183.9888c0,0 -0.76908,2.84564 -0.83333,5.01711c-0.06425,2.17147 -2,5.98533 -2,5.98533l-4.83334,-3.6088l-0.41666,-4.13691l0.83333,-9.33006l2.33333,3.34474c0,0 1.14491,1.02025 1.81703,1.58817c1.21247,1.02453 3.09964,1.14042 3.09964,1.14042z" fill="#ffffff" stroke-width="2"></path><path d="M228.25945,188.30176l-3.5,5.19314l-2.41667,-10.65036" fill="none" stroke-width="1"></path><path d="M232.67614,189.88609l0.83334,6.3374l4.66666,-7.21761l4.33334,7.21761" fill="none" stroke-width="1"></path></g><path d="M216.03877,183.77837l0.25,7.92176l-4.75,-1.84841l-2.5,-7.92176l0.25,-8.44987l2,-5.01711l3.5,5.28117h3z" fill="#ffffff" stroke-width="2"></path><path d="M217.28877,176.64879l-6.5,11.61857l0.25,-16.89975" fill="none" stroke-width="1"></path></g><g stroke="#000000" stroke-width="3.5" stroke-linecap="butt"><path d="M187.38248,147.73213c-1.10623,-2.67531 -1.03119,-7.44903 3.12454,-15.67429c3.90733,-7.73363 9.72522,-11.28295 10.58388,-12.78476c0.50466,-0.88266 3.10427,-1.01689 5.19641,-0.42153c1.06656,0.3035 2.11292,0.60126 2.84131,0.80854c1.80483,0.51359 5.01141,1.34655 3.85097,3.37617c-1.15543,2.02091 -6.02276,5.61431 -11.00378,13.5192c-4.48215,7.1132 -7.29559,15.47817 -9.01247,14.98959c-1.52301,-0.4334 -4.47462,-1.1376 -5.58086,-3.81291z" fill="#4f5357"></path><path d="M227.93845,113.19875c1.39318,4.66472 -2.92387,10.1031 -9.64243,12.14696c-6.71855,2.04384 -13.2944,-0.08079 -14.6876,-4.74551c-1.3932,-4.66473 2.92387,-10.1031 9.64242,-12.14696c6.71855,-2.04387 13.29441,0.08078 14.6876,4.74551z" fill="#75756c"></path><g><path d="M226.22439,109.23137c0.9269,3.30381 -3.56065,7.69378 -10.02322,9.8053c-6.46257,2.11152 -12.45291,1.14497 -13.37982,-2.15885c-0.9269,-3.30381 3.56064,-7.69378 10.0232,-9.8053c6.46257,-2.11151 12.45293,-1.14495 13.37983,2.15885z" fill="#533023"></path><path d="M210.62957,118.5128l0.79602,-9.6371c0,0 1.83922,-0.85204 2.88343,-0.97585c1.09822,-0.13022 5.47557,-0.4157 5.47557,-0.4157l-2.5711,9.54729z" fill="#b08a80"></path></g><path d="M256.17506,121.311c-0.50909,1.39673 -5.51467,-4.51922 -11.5944,-6.88783c-6.7564,-2.63222 -3.46605,-13.37877 2.70195,-10.21495c6.56011,3.36494 8.2786,8.37484 9.28737,10.96736c1.00877,2.59253 0.05668,4.89642 -0.39493,6.13541z" data-paper-data="{&quot;index&quot;:null}" fill="#4f5357"></path><path d="M238.8382,101.19272c6.83544,-0.04108 12.11075,4.01629 11.78273,9.0624c-0.32802,5.04612 -6.13517,9.17011 -12.97061,9.21118c-6.83544,0.04108 -12.11075,-4.01629 -11.78273,-9.0624c0.32802,-5.04612 6.13517,-9.1701 12.97062,-9.21117z" fill="#75756c"></path><g><path d="M251.88621,105.7034c-0.11674,3.56417 -5.64628,6.55326 -12.35058,6.67634c-6.70432,0.12307 -12.04458,-2.66646 -11.92784,-6.23063c0.11674,-3.56416 5.64628,-6.55327 12.35058,-6.67634c6.70431,-0.12309 12.04458,2.66647 11.92784,6.23063z" fill="#533023"></path><path d="M234.45651,110.15772l3.62931,-9.3276c0,0 1.9831,-0.28441 3.00139,-0.08845c1.07096,0.2061 5.2698,1.25959 5.2698,1.25959l-5.27054,8.69623z" fill="#b08a80"></path></g></g><g data-paper-data="{&quot;index&quot;:null}"><path d="M323.90792,156.59533c0.61312,-0.20648 0.90489,0.3873 0.91996,0.41897c2.85043,2.71595 6.13618,6.27298 5.71969,10.52317c0.05483,1.08663 0.17156,3.34226 -1.95317,2.68656c-0.4802,-0.1482 -0.46819,-0.89161 -0.65291,-1.35897c-0.4631,-1.17161 -0.21638,-2.44674 -0.53757,-3.62986c-0.48111,-1.77213 -1.78257,-3.15952 -2.66076,-4.71475c-0.64045,-1.13418 -0.9142,-1.87405 -1.86575,-2.7773c0,0 -0.55999,-0.53158 -0.02843,-1.09159c0.45559,-0.47997 0.93205,-0.15809 1.05898,-0.05629z" fill="#323440" stroke="none" stroke-width="0.5" stroke-linecap="butt"></path><path d="M330.40258,164.38948l0.47541,0.56223c-0.12725,0.40635 -0.10342,0.89678 -0.38177,1.21905c-0.94892,1.09862 -3.62737,1.12415 -3.29754,-1.09271c0.07816,-0.52539 1.21687,-1.0374 1.83849,-1.3112c0.08477,-0.06334 0.17398,-0.09891 0.26107,-0.11618c0.06017,-0.02592 0.71211,-0.28781 1.01959,0.38096c0.06101,0.13272 0.08538,0.25189 0.08476,0.35787z" fill="#51626b" stroke="none" stroke-width="0.5" stroke-linecap="butt"></path><path d="M326.58385,159.14734c0.10627,0.1143 0.1832,0.24062 0.19194,0.3948c0.06846,1.20444 -1.0221,2.07561 -2.26239,1.57392c-0.49468,-0.20012 -0.71733,-1.41083 -0.83426,-1.87358c0,0 -0.16477,-0.66083 0.56799,-0.87875c0.08145,-0.1329 0.2067,-0.24711 0.36579,-0.32027c0.26003,-0.11953 0.54444,-0.099 0.75091,0.03084l0.66024,0.39848l0.2869,0.20408c0,0 0.25232,0.18187 0.27284,0.47049z" fill="#91aea7" stroke="none" stroke-width="0.5" stroke-linecap="butt"></path><path d="M305.41282,173.38747c-1.75894,-0.66708 -3.26453,-1.54291 -4.92426,-2.37915c-2.50924,-1.26432 -6.81641,-1.89876 -6.11244,-5.79588c0.23719,-1.31298 1.81159,-3.16127 2.67898,-4.132c0,0 0.24381,-0.26969 0.58189,-0.27168c0.64263,-0.98262 1.14564,-2.07138 1.94394,-2.9825c2.18628,-2.49524 6.07784,-4.48351 9.32582,-4.82762c6.61516,-1.98971 13.32272,2.95732 16.0275,8.81908c1.01794,2.21405 3.03369,5.55935 2.29687,8.16116c0.17766,0.38734 0.00796,0.84542 -0.37928,1.02345l-0.1286,0.05912c-0.19007,0.27575 -0.42572,0.53744 -0.71304,0.78207c-1.77284,1.50939 -5.70753,2.41256 -7.96277,2.70478c-0.39735,0.05147 -0.7925,0.14945 -1.16646,0.21611c-0.37163,0.07443 -0.75617,0.12965 -1.15974,0.16006l-0.02305,-0.00705l0.00011,0.00769l-1.42915,0.01815c-0.30192,0.01061 -0.59487,-0.15765 -0.72896,-0.4493c-0.01931,-0.04201 -0.03453,-0.08481 -0.0458,-0.12803c-2.66159,0.22854 -5.34885,0.02088 -8.08157,-0.97837z" fill="#4a5b80" stroke="none" stroke-width="0.5" stroke-linecap="butt"></path><path d="M313.75828,156.28736c1.74718,0.49014 3.2177,2.89049 0.55972,3.96285c-0.34433,0.1389 -0.67195,-0.17728 -1.02868,-0.19073c-1.30989,-0.04931 -2.22429,1.19263 -3.41969,0.01941c-1.60394,-1.57421 1.53072,-3.39481 2.89306,-4.02501c0,0 0.69534,-0.31969 0.99563,0.23349z" fill="#98c0bf" stroke="none" stroke-width="0.5" stroke-linecap="butt"></path><path d="M294.45721,165.66129c-0.05661,-0.2162 -0.09751,-0.66158 0.42096,-0.89994c0.70152,-0.32255 1.02406,0.379 1.02406,0.379c2.21025,4.84851 7.69343,7.06853 12.49327,8.27237c4.35662,0.47226 8.68286,0.65822 12.9101,-0.91052c1.27698,-0.47392 2.66505,-0.85511 3.8857,-1.46384c0.42266,-0.21076 0.78668,-0.72139 1.25472,-0.6582c0.58115,0.07844 0.95511,0.68064 1.43267,1.02094c-0.4758,2.03278 -1.44859,4.3273 -2.64608,6.05092c-0.7402,1.06541 -2.06437,1.5098 -3.04638,2.29953c-2.51927,2.02605 -5.93344,4.0476 -9.2301,4.21674c-3.26781,0.35821 -5.66331,-0.55949 -8.72112,-1.49101c-1.07933,-0.32879 -2.52515,-0.6968 -3.49294,-1.30826c-1.69671,-1.07204 -2.91019,-4.27449 -3.72231,-6.03259c-1.27496,-2.77319 -1.74291,-5.44301 -2.53489,-8.35236l-0.14063,-0.2807c0,0 -0.22651,-0.49268 0.11303,-0.84211z" fill="#313746" stroke="none" stroke-width="0.5" stroke-linecap="butt"></path><path d="M321.83149,152.80659c0.47195,-1.23362 1.61633,-0.99406 1.90726,-0.91042c2.82471,-0.72278 5.94481,-1.49727 8.83553,-1.41409c2.51289,0.07229 4.94445,0.71137 7.46259,0.33498c5.16334,-0.77172 11.23027,-5.69338 16.41796,-2.51874c0.676,0.41367 1.19424,1.04222 1.79135,1.56332c1.79265,3.72273 4.18232,9.39145 0.33865,12.83386c-0.83638,0.74908 -2.09903,0.83426 -3.04684,1.43619c-0.65687,0.41719 -0.86086,1.78889 -1.12695,2.2896c-0.57236,1.077 -1.68471,2.47493 -2.68258,3.1844c-1.54083,1.09555 -3.81752,1.9382 -5.71185,1.7547c-0.42493,-0.04118 -0.77719,-0.4372 -1.20413,-0.43649c-1.28948,0.00216 -3.6561,3.26119 -4.38037,3.9996c-2.59709,1.8329 -6.03582,3.15062 -8.35618,5.28262c-2.49118,2.28892 -2.973,5.01903 -6.37289,6.40123c-2.26401,0.9204 -8.42849,1.06453 -7.96839,-3.20583c0.10139,-0.94098 1.30263,-1.38105 2.03791,-1.97697c2.1968,-1.78038 3.9221,-2.92709 5.46518,-5.44114c0.64053,-1.22973 1.48617,-3.11141 2.68486,-3.81809c0.46172,-0.27221 1.06642,0.35478 1.58997,0.24007c0.22644,-0.04961 0.21005,-0.41874 0.25925,-0.64526c0.32248,-1.48522 0.64645,-2.987 0.91333,-4.49046c0.55028,-3.10001 -1.43708,-5.5603 -3.12669,-7.97362c-0.74304,-1.06129 -1.35314,-2.61224 -2.53745,-3.32689c-0.59487,-0.35899 -1.84975,-0.2774 -2.41736,-0.29105c0,0 -1.5434,-0.0505 -1.49291,-1.59394c0.02321,-0.70926 0.3617,-1.08192 0.72077,-1.27756z" fill="#00e297" stroke="none" stroke-width="0.5" stroke-linecap="butt"></path><path d="M321.4022,152.9927l0.38087,-0.61556c1.21954,-2.64572 3.89556,-5.47325 6.85075,-6.22654c2.02482,-0.51613 3.10842,0.32893 4.95582,-0.02166c2.27018,-1.07047 4.57976,-2.4801 7.17506,-1.44543c0.97578,0.38902 1.14591,1.3476 2.23219,1.34128c1.64517,-0.00959 3.13401,-1.19266 4.70963,-1.50951c1.46852,-0.29528 2.82546,-0.23538 4.25877,0.21442c3.60142,1.13013 4.69949,4.8396 4.73675,8.26301c0.00879,0.80806 0.35432,1.75749 -0.10546,2.42207c-2.38076,3.44127 -5.29731,0.7984 -6.82014,-1.49118c0.14718,0.84308 0.25978,2.29814 0.28482,2.44839c0.25277,1.51613 1.20474,2.95335 1.42315,4.38695c0.16162,1.06089 0.77117,2.44861 0.02441,3.21929c-0.70929,0.73202 -2.05025,0.07229 -3.05653,-0.09c-2.95312,-0.47628 -6.05131,-4.48074 -6.05486,-7.44195c-0.00042,-0.35561 0.50452,-0.56373 0.54518,-0.91701c0.00384,-0.03327 -2.90216,0.02406 -2.93805,0.03034c-0.26881,0.04702 -0.53942,0.08026 -0.81126,0.1018c-0.03993,0.02286 -0.08124,0.04414 -0.12385,0.06373c-0.07566,0.03479 -0.15266,0.06296 -0.23036,0.0847l-0.28685,0.08531l0.0108,0.03969l-1.33301,0.36287c0.58593,0.50875 1.61996,1.29454 1.80021,1.4201c2.25284,1.5694 3.5202,2.81837 4.89804,5.23055c0.48759,1.42214 1.34204,3.04459 0.40851,4.61151c-1.26532,2.1238 -4.61693,2.07064 -6.50988,1.25458c-3.57099,-1.53946 -4.1756,-5.3008 -6.57999,-7.93623c-2.20829,-2.42047 -5.40064,-4.34126 -8.64044,-4.87454c-0.27669,0.05788 -0.60361,0.03086 -0.97344,-0.1637c-0.43988,-0.14393 -1.16656,-0.54722 -1.0477,-1.62862c0.07755,-0.70559 0.44383,-1.05118 0.81697,-1.21867z" fill="#00ffaa" stroke="none" stroke-width="0.5" stroke-linecap="butt"></path><path d="M338.49441,144.59924c2.11256,-0.05502 4.87982,1.80602 4.87982,1.80602c0,0 2.98043,-1.77665 5.09685,-1.86689c2.11643,-0.09026 2.93671,0.11071 4.60888,0.8839c1.67219,0.77317 2.5772,1.7173 3.47275,2.85281c0.89555,1.13552 1.58994,2.75482 2.28303,4.26236c0.84403,1.83582 1.42584,2.73284 1.71083,5.4797c0.28496,2.74689 0.28624,2.70975 -0.73396,3.9365c-1.02019,1.22677 -4.43236,2.27599 -4.43236,2.27599c0,0 -1.34499,2.98981 -3.11972,4.76051c-0.84726,0.84534 -2.29469,1.56218 -3.5248,1.69704c-1.23011,0.13484 -3.62829,-0.30539 -3.62829,-0.30539l-4.96354,3.71122c0,0 -3.52665,0.46116 -5.7878,0.36406c-2.26112,-0.09709 -2.40476,-0.20014 -3.68936,-0.77104c-1.28462,-0.57092 -3.01964,-2.42301 -3.01964,-2.42301c0,0 -0.36522,1.74656 -0.90576,2.73063c-0.54057,0.98408 -1.1525,2.03801 -2.59545,3.64316c-1.44295,1.60515 -2.11873,2.20042 -3.78369,3.16878c-1.66494,0.96836 -3.55766,1.79906 -5.98964,2.51554c-2.43199,0.71645 -2.8972,0.94606 -5.08709,0.83302c-2.18989,-0.11306 -3.54341,-0.33689 -5.16078,-1.3621c-1.61738,-1.02519 -3.88621,-2.50144 -5.81815,-5.25376c-1.93195,-2.75229 -2.7269,-4.58831 -3.15704,-7.53255c-0.43014,-2.94422 -0.19202,-3.48955 0.48745,-5.69417c0.67948,-2.20462 1.27255,-3.19119 2.76295,-4.85203c1.49039,-1.66085 2.4104,-2.94458 4.52801,-4.14041c2.11757,-1.19584 3.64988,-1.5931 6.41806,-2.08307c2.76818,-0.49 3.88693,-0.45041 6.30735,0.04383c2.42044,0.49425 5.53209,2.37378 5.53209,2.37378c0,0 0.24285,-2.18962 0.92667,-3.3697c0.68384,-1.18008 3.5894,-4.42352 3.5894,-4.42352c0,0 1.95756,-1.56471 3.46194,-1.79613c1.50438,-0.23143 4.32458,0.59829 4.32458,0.59829c0,0 2.89385,-2.00848 5.00645,-2.06349z" fill="none" stroke="#000000" stroke-width="2" stroke-linecap="round"></path><path d="M340.10613,156.99939c0,0 0.07706,0.99322 1.1827,2.57247c1.10562,1.57926 1.8696,2.08683 2.89209,3.61334c1.02245,1.52648 2.0341,2.89202 2.14794,4.15382c0.1138,1.26182 -1.68536,3.41464 -1.68536,3.41464" fill="none" stroke="#000000" stroke-width="2" stroke-linecap="round"></path><path d="M353.09095,165.99684c0,0 -0.30318,-1.1603 -0.4558,-1.91595c-0.15379,-0.76128 -1.89483,-3.14906 -2.22998,-4.80813c-0.39626,-1.96165 0.46914,-3.49102 0.46914,-3.49102c0,0 1.67046,3.14748 3.38527,4.99012c1.71482,1.84264 2.69172,1.53981 2.69172,1.53981z" fill="#000000" stroke="#000000" stroke-width="0" stroke-linecap="butt"></path><path d="M322.21234,156.02372c0,0 1.18318,0.01361 1.86041,0.30041c0.67721,0.2868 1.64307,0.68724 2.50139,1.54672c0.8583,0.85948 1.81607,2.27805 2.79419,3.85954c0.97814,1.58151 1.23517,2.07353 1.62173,3.38621c0.38654,1.31266 0.70278,2.58874 0.25871,3.67474c-0.44408,1.086 -2.27193,2.93157 -2.27193,2.93157" fill="none" stroke="#000000" stroke-width="2" stroke-linecap="round"></path><path d="M316.98077,154.0099c0,0 2.81278,1.58324 4.23059,3.04057c1.4178,1.45734 2.27,2.66719 3.70747,4.96538c1.43745,2.29817 1.41598,2.57331 1.8519,3.92284c0.43594,1.34957 1.26536,4.97035 1.26536,4.97035" fill="none" stroke="#000000" stroke-width="2" stroke-linecap="round"></path><path d="M307.86364,153.8958c0,0 3.19904,0.54594 5.20362,1.4601c2.00459,0.91417 2.52273,1.38226 3.82849,2.65886c1.30575,1.27663 2.46483,2.60551 3.58119,4.5855c1.11637,1.98001 1.81851,3.5996 2.49626,6.16899c0.6778,2.56939 0.34714,3.56484 0.02237,5.15228c-0.32479,1.58742 -2.26411,6.23781 -2.26411,6.23781" fill="none" stroke="#000000" stroke-width="1.5" stroke-linecap="round"></path><path d="M316.51602,182.08086c0,0 -2.9715,-0.3843 -4.87042,-0.98185c-1.8989,-0.59754 -3.29596,-1.00758 -5.19953,-1.98016c-1.90357,-0.97256 -3.28124,-1.59025 -4.78413,-3.22275c-1.50287,-1.63249 -2.16605,-2.65791 -2.98363,-4.9417c-0.81756,-2.2838 -0.96829,-3.3694 -0.79874,-5.15179c0.16956,-1.78237 0.76286,-3.10383 1.59973,-5.04118c0.83686,-1.93737 2.9313,-4.92515 2.9313,-4.92515" fill="none" stroke="#000000" stroke-width="1.5" stroke-linecap="round"></path><path d="M300.17187,172.16214l0.38386,-1.8761l2.50191,-4.66282l3.49534,-5.45946l3.71573,-3.74785l5.65521,-2.4867" fill="none" stroke="#000000" stroke-width="1.5" stroke-linecap="round"></path><path d="M297.70009,175.90462c0,0 2.03236,-1.5279 3.534,-2.41792c1.50161,-0.89001 1.45424,-0.74281 2.43196,-1.11811c0.97772,-0.37528 3.97154,-1.43443 6.52503,-2.32002c2.55345,-0.88559 5.15289,-1.90991 8.52476,-2.89951c3.37186,-0.9896 7.14966,-1.70073 7.14966,-1.70073" fill="none" stroke="#000000" stroke-width="1.5" stroke-linecap="round"></path><path d="M296.61227,162.69448c0,0 2.82959,-1.0097 4.81875,-0.85574c1.98918,0.15396 2.85147,0.64695 4.46283,1.57406c1.61137,0.92713 2.58005,1.72073 3.85643,3.21258c1.27641,1.49184 1.79235,2.22648 2.26631,3.94363c0.47397,1.71714 0.77285,2.98578 0.49257,5.05064c-0.28031,2.06487 -0.67728,2.73329 -1.70655,3.8923c-1.02927,1.159 -4.49824,3.52452 -4.49824,3.52452" fill="none" stroke="#000000" stroke-width="1.5" stroke-linecap="round"></path><path d="M296.58444,173.79367c-0.39972,-1.05646 0.46229,-3.04961 1.39742,-3.68399c0.93513,-0.63439 1.57863,-0.76704 2.59643,-0.51386c1.01779,0.25317 2.166,0.88388 3.16084,1.94603c0.99485,1.06217 1.69132,1.82468 1.73523,3.28132c0.04389,1.45666 -0.4525,2.34819 -1.53642,3.31247c-1.08392,0.96426 -3.13451,1.36213 -4.18242,0.54787" fill="none" stroke="#000000" stroke-width="1.5" stroke-linecap="round"></path><path d="M341.4143,173.32141c0,0 -3.81184,2.45399 -6.17603,4.1342c-2.36419,1.68022 -2.32717,1.46214 -3.49854,2.74153c-1.17136,1.27938 -1.18938,2.26643 -2.23418,3.51994c-1.0448,1.25349 -1.31636,1.66265 -2.51262,2.17495c-1.19627,0.51231 -2.16059,0.95401 -4.02557,0.92776c-1.86498,-0.02629 -2.49523,-0.28447 -3.38745,-1.03216c-0.89224,-0.7477 -2.24591,-3.15985 -2.24591,-3.15985" fill="none" stroke="#000000" stroke-width="2" stroke-linecap="round"></path><path d="M360.38813,149.8238c0.29288,0.40913 0.54176,0.91118 0.79362,1.61116c0.26345,0.73214 0.92665,2.25833 0.28914,3.031c-0.05285,0.06407 -0.11067,0.12241 -0.17242,0.17617l0.03201,0.03042l-0.53261,0.56108c-0.06793,0.07495 -0.1518,0.13773 -0.24951,0.18266c-0.38743,0.17814 -0.84593,0.00845 -1.02406,-0.379c-0.0626,-0.13613 -0.08226,-0.28106 -0.06458,-0.41951l0.08711,-0.79245c-0.14898,-2.74258 -0.84438,-4.19156 -3.50882,-5.15395c0,0 -0.72413,-0.26798 -0.45611,-0.9921c0.26799,-0.72414 0.9921,-0.45613 0.9921,-0.45613c0.25284,0.0954 0.56174,0.2225 0.89153,0.37159c0.27695,0.00978 0.49279,0.183 0.49279,0.183l0.15611,0.12745c0.70189,0.35557 1.39703,0.77764 1.78149,1.18249c0.19564,0.20598 0.35767,0.45627 0.49223,0.73611z" fill="#000000" stroke="none" stroke-width="0.5" stroke-linecap="butt"></path></g><g data-paper-data="{&quot;index&quot;:null}"><g stroke-width="2"><path d="M165.03857,200.12042" fill="none" stroke="#000000" stroke-linecap="round"></path><path d="M157.60544,192.92299" fill="none" stroke="#000000" stroke-linecap="round"></path><path d="M144.12625,169.98292c0,0 1.03666,2.73777 -1.64672,4.0602c-2.68334,1.32243 -1.84013,0.77778 -5.12432,0.66443c-3.75048,-0.12945 -12.01439,-1.00458 -12.01439,-1.00458l2.17345,-3.29377c0,0 3.36958,-1.31363 5.75483,-1.32541c3.45765,-0.0171 10.85719,0.89911 10.85719,0.89911z" fill="#312e37" stroke="#000000" stroke-linecap="butt"></path><path d="M116.47375,212.07673c0,0 10.66278,0.72916 16.23009,1.46159c5.91602,0.77832 18.28356,3.07895 18.28356,3.07895l-1.23246,5.20057c0,0 -12.4263,0.79772 -18.22697,0.07777c-5.65834,-0.70231 -16.16068,-4.34588 -16.16068,-4.34588l1.10644,-5.47304z" fill="#a09aa6" stroke="none" stroke-linecap="butt"></path><path d="M132.70383,213.53828c5.91602,0.77832 18.28356,3.07896 18.28356,3.07896c0,0 -13.93119,6.12435 -20.65485,4.83912c-8.06957,-0.90986 -13.85881,-9.37967 -13.85881,-9.37967c0,0 10.66278,0.72916 16.23009,1.46159z" fill="#695f72" stroke="none" stroke-linecap="butt"></path><path d="M116.47375,212.07673c0,0 10.66278,0.72916 16.23009,1.46159c5.91602,0.77832 18.28356,3.07895 18.28356,3.07895l-1.23246,5.20057c0,0 -12.42628,0.79772 -18.22697,0.07777c-5.65834,-0.70231 -16.16068,-4.34588 -16.16068,-4.34588l1.10644,-5.47304z" fill="none" stroke="#000000" stroke-linecap="butt"></path><path d="M149.35626,219.58782c0,0 -14.02636,0.74084 -19.92755,-0.24539c-5.52393,-0.92318 -14.42265,-5.49537 -14.42265,-5.49537" fill="none" stroke="#000000" stroke-linecap="round"></path><path d="M145.46582,292.76279c0,0 -22.03886,-20.70106 -23.50475,-26.50132c-0.7654,-3.02859 0.02799,-27.00085 0.02799,-27.00085l2.34294,-1.53872l-2.177,-3.0176l1.90911,-2.51503l-1.58297,-2.70644l1.92845,-2.22824l-1.80424,-3.14865l0.11158,-4.82951l18.95638,3.7993z" fill="#4a627c" stroke="none" stroke-linecap="butt"></path><path d="M135.50641,245.20128l1.98565,16.87508l-14.29551,-5.53706c0,0 -1.5783,3.34243 -0.04537,7.72699c2.29327,6.55937 0.35894,7.27309 -0.91773,1.251c-2.08426,-9.8316 -0.24442,-26.25664 -0.24442,-26.25664l2.34295,-1.53873l-2.177,-3.0176l1.90911,-2.51503l-1.58297,-2.70644l1.92845,-2.22824l-1.80424,-3.14865l0.11158,-4.82952l2.85557,20.94934z" fill="#91b6c0" stroke="none" stroke-linecap="butt"></path><path d="M125.58445,235.03852l9.43869,4.67416" fill="none" stroke="#91b6c0" stroke-linecap="round"></path><path d="M132.19016,276.96443c0,0 -7.53023,-5.96425 -8.51019,-10.73665c-1.24427,-6.05974 0.55402,-25.05206 0.55402,-25.05206l3.14206,-3.21749l-2.42054,-2.84926l1.57784,-1.83238l-1.95967,-3.28294l2.41555,-2.8814l-2.89748,-4.8336" fill="none" stroke="#91b6c0" stroke-linecap="round"></path><path d="M145.46579,292.76282c0,0 -22.03886,-20.70106 -23.50475,-26.50132c-0.7654,-3.02859 0.02799,-27.00085 0.02799,-27.00085l2.34295,-1.53873l-2.177,-3.0176l1.90911,-2.51503l-1.58297,-2.70644l1.92845,-2.22824l-1.80424,-3.14865l0.11158,-4.82952l18.95639,3.7993z" fill="none" stroke="#000000" stroke-linecap="butt"></path><path d="M144.50165,290.23207c0,0 -7.55024,-23.48515 -8.06896,-38.24363c-0.66183,-9.96316 -1.18604,-28.47551 -1.18604,-28.47551" fill="none" stroke="#000000" stroke-linecap="round"></path></g><g stroke-width="4" stroke-linecap="butt"><g><path d="M153.74016,192.09187c0,0 5.4419,10.78755 2.76419,12.34028c-0.81015,0.46974 -2.72048,0.3373 -5.48289,-0.03078c-0.38308,-0.05108 -1.50763,-0.46363 -1.92287,-0.52264c-1.41128,-0.20112 -3.46404,-0.40254 -4.96055,-0.69953c-5.38241,-1.06802 -9.39444,-2.3092 -9.93603,-3.24322c-1.05582,-1.82084 11.25152,-1.017 13.92924,-2.56973c0.20261,-0.11744 -4.88811,-4.11618 -5.2478,-8.69675c-0.18394,-2.34145 3.24948,-5.92833 4.33147,-6.9641c4.9938,-4.7808 11.24504,3.78981 11.3962,4.07105c1.46289,2.72173 -4.87108,6.31545 -4.87108,6.31545z" fill="#00ffaa" stroke="#000000"></path><path d="M154.76343,197.15553c0,0 -3.23859,-1.52349 -6.13061,0.15341c-2.892,1.67687 -2.54447,8.01411 -2.89383,7.41161c-0.19501,-0.33633 -5.12592,-2.58358 -5.26085,-5.55548c-0.10678,-2.35185 4.34688,-5.47909 5.62446,-6.21989c1.45609,-0.84427 4.74503,0.1256 6.47343,1.59425c1.70443,1.44828 2.18742,2.61607 2.18742,2.61607z" fill="#00e297" stroke="none"></path></g><g><path d="M143.49947,187.58272c0.96581,1.66575 3.47579,4.4519 2.66573,6.14419c-0.76715,1.60306 -3.06403,4.75408 -3.06403,4.75408c0,0 2.2667,0.08168 3.34819,2.20622c0.4932,0.96862 0.29785,2.23085 0.34332,3.71688c0.09745,3.17196 -1.01638,5.7649 -2.81025,6.80514c-5.04407,2.92475 -11.85418,3.65249 -18.75283,2.73673c-4.52793,-0.60109 -8.11687,-1.14305 -9.72271,-3.91248c-1.84866,-3.18826 -5.58985,-6.85484 -4.55414,-10.42887c0.39954,-1.37822 1.80516,-1.78398 2.75678,-2.57219c1.99021,-1.64838 3.90831,-2.80012 3.90831,-2.80012c0,0 -0.83052,-4.91121 0.11091,-7.6137c0.37804,-1.08509 0.28262,-1.82547 1.78407,-2.13584c3.15667,-0.65263 2.72634,-1.6165 2.72634,-1.6165c0,0 -0.39177,-5.12742 0.68399,-7.23294c0.50426,-0.98674 12.58466,-4.00402 15.81698,-1.71406c2.30045,1.62972 8.46762,2.86368 9.39301,5.86782c1.73132,5.62057 -4.96902,7.21734 -4.63369,7.79563z" fill="#00ffaa" stroke="#000000"></path><path d="M117.28182,207.06071c1.16455,2.00834 3.56558,6.48446 3.56558,6.48446c0,0 -4.82128,-4.62769 -5.98578,-6.63603c-0.43759,-0.75465 -4.42368,-6.69019 -1.96425,-8.0704c1.3709,-0.76932 2.80733,-4.07742 5.18097,-4.10508c2.45972,-0.02867 -1.13533,-8.74047 0.59092,-7.93678c0.37002,0.17226 3.96971,-3.25657 4.93119,-2.22773c0.30893,0.33055 -0.40537,-2.28596 -0.28073,-4.53574c0.10759,-1.94192 1.05311,-3.58537 1.29072,-3.1246c0.24674,0.47844 3.17561,-2.01562 7.57248,-2.9649c1.83907,-0.39705 5.9385,-1.3071 8.95481,0.35759c3.37123,1.86056 7.13154,4.66554 7.13154,4.66554c0,0 -15.36255,0.65807 -17.59645,2.92382c-1.60334,1.62618 4.11613,3.64661 4.11613,3.64661c0,0 -6.55079,-0.99596 -7.20212,0.97129c-0.447,1.35013 -1.54922,3.50284 -1.34157,5.20028c0.44067,3.60241 9.4047,6.83918 9.41923,6.83076c0.29143,-0.16899 -8.91115,0.15633 -14.62905,1.71605c-2.58175,0.70426 -4.43986,2.3469 -4.32497,2.77037c0.34426,1.2692 0.0201,3.08379 0.57137,4.03452z" fill="#00e297" stroke="none"></path><path d="M144.36924,199.80914c-0.80332,0.46581 -14.85867,-1.49119 -14.85867,-1.49119c0,0 9.72706,0.19076 10.53041,-0.27505c0.80335,-0.46582 3.37112,-0.89015 3.83692,-0.0868c0.4658,0.80332 1.29473,1.38723 0.49139,1.85303z" fill="#000000" stroke="none"></path><path d="M143.74824,187.34138c0.32609,0.56233 0.7369,0.35018 -0.02627,0.79268c-0.76318,0.44252 -11.90004,-3.59545 -11.90004,-3.59545c0,0 11.93995,2.40614 12.70312,1.96364c0.76319,-0.44254 -1.10284,0.27677 -0.77678,0.83913z" fill="#000000" stroke="none"></path><path d="M142.16589,187.94548c0.96569,1.6657 3.45237,4.07659 2.64245,5.76893c-0.76718,1.60295 -3.35489,4.92272 -3.35489,4.92272c0,0 2.14449,0.54119 3.22598,2.66573c0.35184,0.69126 0.4278,3.16881 0.4312,3.3389c0.06448,3.15855 -0.59236,6.04049 -2.52295,7.15998c-5.04405,2.92472 -11.3567,3.16968 -18.25535,2.25392c-4.5279,-0.60108 -7.87231,-2.06234 -8.84134,-3.06303c-2.56362,-2.64772 -6.13378,-7.12251 -5.09807,-10.69654c0.51166,-1.76545 2.21386,-2.90753 3.49368,-3.7828c1.80886,-1.23702 3.08697,-1.73492 3.08697,-1.73492c0,0 -0.78543,-6.01497 0.3333,-8.53026c0.22407,-0.50358 0.9873,-0.83828 1.89763,-1.3597c0.903,-0.51722 1.28795,-1.03117 1.28795,-1.03117c0,0 0.44302,-5.0284 1.51888,-7.13397c0.28559,-0.5591 8.52095,-3.7847 14.75943,-3.31932c4.77091,0.35588 9.16819,5.32172 9.56918,6.62354c1.73121,5.62061 -4.50939,7.33961 -4.17406,7.91789z" fill="none" stroke="#000000"></path><path d="M142.51083,187.7429c0.96573,1.66579 3.45237,4.07659 2.64245,5.76893c-0.76719,1.60297 -3.35499,4.92276 -3.35499,4.92276c0,0 2.14461,0.54125 3.22598,2.66573c0.35194,0.69121 0.42783,3.1688 0.43131,3.33886c0.06448,3.15855 -0.59236,6.04049 -2.52295,7.15997c-5.04416,2.92476 -11.3567,3.16968 -18.25535,2.25392c-4.5279,-0.60108 -7.8724,-2.0623 -8.84134,-3.06303c-2.56371,-2.64768 -5.65098,-6.62503 -4.61523,-10.19896c0.51161,-1.76556 1.92285,-2.73895 3.20277,-3.61425c1.80879,-1.23689 3.5233,-1.98791 3.5233,-1.98791c0,0 -1.07641,-5.8463 0.04245,-8.36152c0.22396,-0.50355 0.98716,-0.83833 1.89749,-1.35975c0.90305,-0.51713 1.95412,-1.22303 1.95412,-1.22303c0,0 0.27445,-5.31941 1.35021,-7.42493c0.28569,-0.55915 7.68614,-3.88372 13.92462,-3.41835c4.77091,0.35588 9.16819,5.32172 9.56918,6.62354c1.73121,5.62061 -4.50939,7.33961 -4.17406,7.91789z" fill="none" stroke="#000000"></path></g></g></g></g></g></svg>