<svg version="1.1" xmlns="http://www.w3.org/2000/svg" xmlns:xlink="http://www.w3.org/1999/xlink" width="47.55217" height="49.03407" viewBox="0,0,47.55217,49.03407"><g transform="translate(-216.16495,-155.14418)"><g data-paper-data="{&quot;isPaintingLayer&quot;:true}" fill-rule="nonzero" stroke-linecap="butt" stroke-linejoin="miter" stroke-miterlimit="10" stroke-dasharray="" stroke-dashoffset="0" style="mix-blend-mode: normal"><path d="M256.55291,191.83214c-2.6156,2.27558 -17.43987,12.03931 -19.2179,11.16172c-0.94421,-0.46604 -5.87645,-9.29567 -6.58194,-9.73405c-0.77717,-0.48292 7.68318,-4.56453 7.02506,-4.88839c-1.54191,-0.75877 -16.10809,-0.61426 -16.10809,-0.61426c0,0 -4.34078,-0.02514 -3.84822,-7.37405c0.51522,-7.68693 2.45764,-6.70945 2.45764,-6.70945c0,0 15.12661,0.04487 17.48994,-0.09923c0.60487,-0.03688 -8.78565,-7.41933 -8.38117,-7.79738c0.46072,-0.43062 0.49012,-1.13951 0.88553,-1.48195c1.59387,-1.38041 9.53767,-6.97335 9.53767,-6.97335c0,0 23.28637,14.89887 22.50434,24.61549c-0.38375,4.76802 -5.76286,9.8949 -5.76286,9.8949z" data-paper-data="{&quot;index&quot;:null}" fill="#87a3ad" stroke="none" stroke-width="0"></path><path d="M255.59903,191.0634c-2.86114,1.8578 -16.13814,11.38018 -17.66532,10.62641c-0.811,-0.40029 -6.36197,-8.35492 -6.96793,-8.73145c-0.66752,-0.41479 8.11681,-5.44758 7.55154,-5.72574c-0.88828,-0.38154 -15.42607,-0.05751 -15.42607,-0.05751c0,0 -4.33041,-0.99805 -3.90734,-7.31018c0.44253,-6.60246 0.7951,-6.0456 0.7951,-6.0456c0,0 16.77159,0.35633 18.8015,0.23255c0.51953,-0.03168 -9.19509,-7.97991 -8.84768,-8.30462c0.39572,-0.36987 0.05405,0.07191 0.39368,-0.22222c1.36901,-1.18567 8.56152,-7.21615 8.56152,-7.21615c0,0 23.44628,13.94044 22.19744,23.64731c-0.50219,3.90339 -2.6253,7.24943 -5.48644,9.10722z" data-paper-data="{&quot;index&quot;:null}" fill="none" stroke="#ffffff" stroke-width="2.5"></path><path d="M256.435,191.4609c-2.6156,2.27558 -17.43987,12.03931 -19.2179,11.16172c-0.94421,-0.46604 -5.87645,-9.29567 -6.58194,-9.73405c-0.77717,-0.48292 7.68318,-4.56453 7.02506,-4.88839c-1.54191,-0.75877 -16.10809,-0.61426 -16.10809,-0.61426c0,0 -4.34078,-0.02514 -3.84822,-7.37405c0.51522,-7.68693 2.45764,-6.70945 2.45764,-6.70945c0,0 15.12661,0.04487 17.48994,-0.09923c0.60487,-0.03688 -8.78565,-7.41933 -8.38117,-7.79738c0.46072,-0.43062 0.49012,-1.13951 0.88553,-1.48195c1.59387,-1.38041 9.53767,-6.97335 9.53767,-6.97335c0,0 23.28637,14.89887 22.50434,24.61549c-0.38375,4.76802 -5.76286,9.8949 -5.76286,9.8949z" data-paper-data="{&quot;index&quot;:null}" fill="#ff0000" stroke="#000000" stroke-width="3"></path></g></g></svg>