<svg version="1.1" xmlns="http://www.w3.org/2000/svg" xmlns:xlink="http://www.w3.org/1999/xlink" width="283.66531" height="126.09044" viewBox="0,0,283.66531,126.09044"><g transform="translate(-59.7476,-117.56162)"><g data-paper-data="{&quot;isPaintingLayer&quot;:true}" fill-rule="nonzero" stroke-linejoin="miter" stroke-miterlimit="10" stroke-dasharray="" stroke-dashoffset="0" style="mix-blend-mode: normal"><g data-paper-data="{&quot;index&quot;:null}"><path d="M298.8396,171.21383c0,0 4.8249,-2.24778 7.37793,-3.25904c3.79654,-1.5038 13.19029,-4.888 13.19029,-4.888l0.50145,5.10154l-1.17875,0.04627l0.65937,9.54081l-14.08732,-0.9819l1.88563,26.26494c0,0 -2.20773,-0.09547 -3.09499,-0.53575c-1.03978,-0.51597 -2.75902,-2.36915 -2.75902,-2.36915z" fill="#373142" stroke="#000000" stroke-width="2.5" stroke-linecap="round"></path><path d="M318.1755,176.62184l-7.63835,-0.63061c0,0 -0.48687,-2.36151 0.73373,-3.53894c1.21652,-1.1735 6.38445,-3.35568 6.38445,-3.35568z" fill="#45597c" stroke="#45597c" stroke-width="0.5" stroke-linecap="round"></path><path d="M317.53783,168.29492l-7.22191,0.82767c0,0 2.31489,-1.97453 3.71586,-2.7615c1.35077,-0.75877 4.54485,-1.87879 4.54485,-1.87879l0.15282,2.75316l-1.16668,0.11467z" fill="#45597c" stroke="#45597c" stroke-width="0.5" stroke-linecap="round"></path><path d="M331.30636,168.2373l0.39913,8.85428l-1.11707,1.81781l-8.40006,0.82567l-2.18977,-1.90506l-1.09241,-9.3162l2.66044,-0.4971z" fill="#3a4b69" stroke="#000000" stroke-width="2.5" stroke-linecap="round"></path><path d="M325.43361,171.40603c1.48199,-0.14566 2.80529,0.97681 2.95571,2.50711c0.15041,1.53032 -0.92902,2.88894 -2.411,3.03461c-1.48199,0.14568 -2.80531,-0.9768 -2.95573,-2.50709c-0.15041,-1.53032 0.92903,-2.88895 2.41101,-3.03462z" fill="#000000" stroke="#000000" stroke-width="0.5" stroke-linecap="butt"></path><path d="M330.62111,176.84476l-0.67233,0.94955l-1.34167,0.13188c0,0 0.97611,-0.71887 1.26504,-1.31414c0.32679,-0.6733 0.60188,-2.46209 0.60188,-2.46209z" fill="#758d97" stroke="#758d97" stroke-width="0.5" stroke-linecap="round"></path><path d="M328.64662,164.06853c1.77351,0.15806 5.05268,-0.24817 5.05268,-0.24817l0.13837,4.40371l-13.76952,-0.47235l-0.28944,-4.74223c0,0 6.25847,0.82648 8.86789,1.05904z" fill="#3a4b69" stroke="#000000" stroke-width="2.5" stroke-linecap="round"></path><path d="M342.03401,145.40475c0.90569,9.21402 -3.84095,17.2222 -10.60188,17.88676c-2.70342,0.26574 -9.04489,-0.18235 -11.47303,-1.94379c-1.58455,-1.14948 -5.03072,-7.99869 -3.93615,-14.38018c1.42288,-8.29542 8.30813,-16.66735 12.12942,-17.04296c6.76094,-0.66456 12.97598,6.26615 13.88165,15.48017z" fill="#3a4b69" stroke="#000000" stroke-width="2.5" stroke-linecap="butt"></path><path d="M324.33172,154.20405l-2.36999,4.65026c0,0 0.38657,1.33627 0.97387,1.81844c0.5873,0.48218 2.54987,1.07456 2.54987,1.07456c0,0 -3.3774,-0.46879 -4.67588,-1.4067c-0.19416,-0.14024 -1.08494,-0.9312 -1.6265,-1.75146c-0.69988,-1.06003 -0.94209,-2.12656 -0.94209,-2.12656c0,0 1.06742,1.61931 1.63686,1.95995c0.43942,0.26286 1.37915,-0.14679 1.37915,-0.14679l2.54498,-4.66746z" fill="#9bb3c1" stroke="none" stroke-width="0" stroke-linecap="round"></path><path d="M332.29314,138.81494l1.79789,-0.8835l1.88214,-2.4231l-0.26575,-1.5052c0,0 0.89005,0.88197 1.32605,1.41458c0.41027,0.50119 1.21746,1.69256 1.21746,1.69256l-2.05889,0.0257l-1.40774,1.2574l-0.24879,2.26257z" fill="#9bb3c1" stroke="none" stroke-width="0" stroke-linecap="round"></path><path d="M336.96024,146.74908c0.50827,5.1708 -2.42268,9.69118 -6.54643,10.09652c-4.12377,0.40533 -7.87876,-3.45785 -8.38702,-8.62865c-0.50825,-5.17081 2.42269,-9.69117 6.54644,-10.0965c4.12375,-0.40534 7.87874,3.45783 8.387,8.62863z" fill="#000000" stroke="#000000" stroke-width="0.5" stroke-linecap="butt"></path><path d="M320.72573,136.10885c0,0 -4.7235,7.44165 -4.89023,12.46342c-0.08008,2.41193 0.25676,5.44695 1.23698,8.25202c1.06062,3.03521 3.10567,5.57985 3.10567,5.57985l-19.11932,7.30858l-1.49316,-13.77443l19.29427,-21.10778l1.8658,1.27832z" fill="#373142" stroke="#000000" stroke-width="2.5" stroke-linecap="round"></path><path d="M319.36256,136.5648c0,0 -3.80683,7.07324 -4.33238,9.58283c-0.60233,2.87624 0.21852,8.38829 0.21852,8.38829l-7.4013,4.48623c0,0 -0.26779,-2.92996 0.58486,-5.75017c0.76395,-2.52686 4.2328,-9.97354 4.2328,-9.97354l6.12411,-7.1756z" fill="#465c83" stroke="none" stroke-width="0" stroke-linecap="round"></path><path d="M307.41285,173.32115c0,0 7.53165,1.81905 12.04918,3.79247c4.51755,1.97342 6.55123,4.33288 6.55123,4.33288c0,0 1.94045,4.45716 0.87909,6.996c-1.06134,2.53884 -5.21843,3.38419 -5.21843,3.38419c0,0 0.96467,2.82898 0.23902,4.37908c-0.72564,1.55008 -3.24481,2.0417 -3.24481,2.0417c0,0 -0.75464,3.77961 -2.56749,5.03777c-1.81284,1.25817 -3.90589,1.87055 -6.54229,1.60016c-2.6364,-0.27039 -6.79995,-2.96852 -6.79995,-2.96852c0,0 -2.9124,-1.37212 -3.55838,-3.09573c-0.646,-1.72361 1.48264,-2.44274 1.48264,-2.44274l3.80386,3.64585l-3.04552,-3.7204c0,0 -1.23111,-4.1059 0.18066,-5.95167c1.41176,-1.84576 4.56866,-0.25765 4.56866,-0.25765l7.88859,5.60514l-8.07817,-5.58652c0,0 -2.89776,-3.60277 -1.90478,-5.74668c0.99298,-2.14391 5.06288,-1.0719 5.06288,-1.0719l8.86351,4.48843l-12.19502,-7.22362c0,0 -1.83987,-2.95317 -1.29876,-5.42341c0.54111,-2.47024 2.88428,-1.81484 2.88428,-1.81484z" fill="#14ffab" stroke="#000000" stroke-width="2.5" stroke-linecap="round"></path><path d="M296.15342,182.46734c0.72579,-2.9614 2.76641,-2.91146 2.76641,-2.91146l1.19223,15.9215c0,0 -1.95472,-1.76729 -2.98068,-4.44352c-1.1472,-2.99251 -1.3611,-7.00321 -0.97797,-8.56652z" fill="#12e39a" stroke="#000000" stroke-width="1.5" stroke-linecap="round"></path><path d="M324.04113,190.10863c0,0 -1.07439,0.39603 -1.52554,0.73081c-0.45115,0.33479 -1.18135,1.27785 -1.18135,1.27785l-2.81263,-3.49915l-10.27011,-6.9774c0,0 -1.94547,-1.45192 -2.35286,-3.25393c-0.17362,-0.76799 -1.38967,-4.2365 1.4739,-4.21088c3.85553,0.03449 12.13062,3.74492 12.13062,3.74492l0.40016,9.98057l4.13779,2.20717z" fill="#12e39a" stroke="none" stroke-width="0" stroke-linecap="round"></path><path d="M307.92562,183.41535c0,0 -0.97932,0.87076 -1.39001,1.37098c-0.41069,0.5002 -1.07408,1.63034 -1.07408,1.63034l9.43541,7.34986c0,0 -0.03586,0.9 -0.22418,1.15568c-0.19575,0.26577 -0.92889,0.40982 -0.92889,0.40982l-7.58227,-6.22508c0,0 -2.67714,-2.56284 -2.04863,-4.59078c0.62852,-2.02792 3.81263,-1.10083 3.81263,-1.10083z" fill="#12e39a" stroke="none" stroke-width="0" stroke-linecap="round"></path><path d="M303.02252,191.63596c0,0 -0.31574,3.56443 0.81805,4.98351c1.13379,1.41908 3.55393,4.13309 7.13153,5.66304c3.5776,1.52996 5.52356,0.31152 5.52356,0.31152c0,0 -0.31919,1.28007 -1.07825,1.4487c-0.75907,0.16862 -4.44912,1.03229 -6.8059,0.30279c-2.35678,-0.72952 -9.03322,-4.97122 -9.03322,-4.97122c0,0 -0.16533,-0.94506 0.0525,-1.30394c0.20106,-0.33122 1.20815,-0.77302 1.20815,-0.77302l6.25464,4.02369l-3.71786,-3.05239c0,0 -1.13307,-2.25174 -1.42936,-3.33844c-0.27471,-1.00754 -0.26462,-3.3179 -0.26462,-3.3179c0,0 0.33272,-0.83819 0.80854,-1.04667c0.46351,-0.20305 1.85125,-0.20708 1.95911,-0.18882c0.19159,0.03243 -1.42687,1.25914 -1.42687,1.25914z" fill="#12e39a" stroke="none" stroke-width="0" stroke-linecap="round"></path><path d="M307.36574,173.37849c0,0 7.53165,1.81904 12.04918,3.79246c4.51755,1.97342 6.55123,4.33288 6.55123,4.33288c0,0 1.94044,4.45716 0.87909,6.996c-1.06134,2.53884 -5.21843,3.38419 -5.21843,3.38419c0,0 0.96467,2.82899 0.23902,4.37908c-0.72564,1.55008 -3.24481,2.04169 -3.24481,2.04169c0,0 -0.75464,3.77961 -2.56749,5.03778c-1.81284,1.25817 -3.90589,1.87054 -6.54229,1.60016c-2.6364,-0.27039 -6.79995,-2.96852 -6.79995,-2.96852c0,0 -2.9124,-1.37212 -3.55838,-3.09572c-0.646,-1.72361 1.48263,-2.44275 1.48263,-2.44275l3.80386,3.64585l-3.04552,-3.7204c0,0 -1.23111,-4.1059 0.18065,-5.95167c1.41176,-1.84576 4.56866,-0.25765 4.56866,-0.25765l8.11759,5.74108l-8.30717,-5.72245c0,0 -2.89776,-3.60278 -1.90478,-5.74669c0.99298,-2.14391 5.06288,-1.0719 5.06288,-1.0719l8.86351,4.48844l-12.19502,-7.22362c0,0 -1.83987,-2.95317 -1.29876,-5.42341c0.54111,-2.47024 2.88428,-1.81484 2.88428,-1.81484z" fill="none" stroke="#000000" stroke-width="2.5" stroke-linecap="round"></path><path d="M319.69357,177.74108l-5.36539,8.74371l-5.58245,-2.7615l1.68337,-8.78957z" fill="#9db8cd" stroke="#000000" stroke-width="2.5" stroke-linecap="round"></path><path d="M313.89556,185.25089l-4.16628,-2.00317l1.44903,-6.19414l4.88413,2.32543c0,0 -0.30816,0.78586 -0.28523,1.16c0.02228,0.36348 0.40624,0.79268 0.40624,0.79268z" fill="#43577c" stroke="#43577c" stroke-width="0.5" stroke-linecap="round"></path></g><g stroke-linecap="butt"><path d="M176.77904,126.84313c1.1155,-0.17685 16.49987,-5.07654 20.91384,7.46597c6.90534,19.62192 17.42154,57.5513 12.09498,74.55793c-1.85544,5.9241 -20.3171,6.63654 -21.37122,6.82027c-7.10899,1.23904 -14.64209,2.73396 -17.50729,-0.84299c-3.17402,-3.96247 -10.04577,-33.52989 -13.01317,-55.49411c-1.33354,-9.87067 -2.21457,-17.60027 -1.88703,-21.7894c0.04683,-0.59897 1.03809,-2.76753 3.97588,-4.61705c4.91584,-3.09484 13.13854,-5.5211 16.794,-6.10058z" fill="#12e39a" stroke="none" stroke-width="0"></path><path d="M170.74071,143.4877c-4.01495,0.67595 -10.04939,5.33349 -12.41846,4.21558c-1.42872,-0.67417 -0.85097,-12.6978 -1.06508,-13.85027c-0.56915,-3.06349 10.19079,-5.58087 16.62708,-6.66445c2.15731,-0.3632 12.74731,-1.84185 19.25331,0.66677c4.4696,1.72342 4.83141,5.2269 6.03549,8.13744c0.75336,1.82104 3.36663,3.28677 2.79139,4.32013c-1.15984,2.08349 -29.35411,2.86002 -31.22372,3.17478z" fill="#14ffab" stroke="none" stroke-width="0"></path><path d="M176.77904,126.84313c1.1155,-0.17685 16.49987,-5.07654 20.91384,7.46597c6.90534,19.62192 17.42154,57.5513 12.09498,74.55793c-1.85544,5.9241 -20.3171,6.63654 -21.37122,6.82027c-7.10899,1.23904 -14.64209,2.73396 -17.50729,-0.84299c-3.17402,-3.96247 -10.04577,-33.52989 -13.01317,-55.49411c-1.33354,-9.87067 -2.21457,-17.60027 -1.88703,-21.7894c0.04683,-0.59897 1.03809,-2.76753 3.97588,-4.61705c4.91584,-3.09484 13.13854,-5.5211 16.794,-6.10058z" fill="none" stroke="#000000" stroke-width="3"></path></g><g><path d="M270.92282,198.01411c4.72774,9.1042 12.52989,14.23745 17.66313,21.30006c4.87007,6.70051 7.23139,15.54326 6.13278,16.51329c-4.44224,3.92234 -28.99269,6.03796 -32.622,6.3246c-1.23553,0.09757 -12.52769,-2.3718 -14.01792,-4.63799c-2.0355,-3.0954 -3.10337,-12.76569 -12.93997,-17.48779c-11.90497,-5.71504 -41.46713,-5.05409 -44.54305,-2.13336c-0.84402,0.80143 4.95911,2.40325 5.1505,5.7991c0.2225,3.94815 -0.28013,7.75595 -0.20963,9.21471c0.29563,6.11836 -4.86882,7.55473 -9.33201,8.374c-9.89198,1.81579 -14.43707,1.34277 -23.38651,-4.19108c-4.33909,-2.68307 -12.17563,-9.91834 -13.15839,-18.11914c-0.31012,-2.58785 -1.04804,-6.59106 1.3655,-9.79295c3.11371,-4.13073 9.70176,-7.26488 10.67198,-7.8371c1.84693,-1.08927 7.32609,-2.6913 9.26585,-0.85864c0.68941,0.65133 1.00208,7.70396 0.96081,7.54223c-1.21801,-4.77304 -0.88521,1.58446 -0.84542,-3.13375c0.02202,-2.61193 -0.30791,-5.30736 -0.2513,-8.04834c0.20385,-9.87369 -5.31365,-20.17153 -5.24513,-29.46146c0.10843,-14.70102 6.18657,-26.87809 10.13018,-30.85642c2.36164,-2.38241 8.4748,-7.78374 13.00393,-10.62438c2.79172,-1.75094 8.08501,-5.92728 14.36651,-6.83808c5.74957,-0.83367 13.10577,-0.01214 14.49083,0.24888c1.09969,0.20723 2.1651,0.42637 3.19397,0.6573c6.9194,1.55299 12.1875,3.63867 15.12939,6.21527c4.84306,4.24169 13.60261,14.79897 18.97735,26.72904c7.67159,17.02832 11.76516,36.85346 16.0486,45.10205z" fill="#12e39a" stroke="none" stroke-width="0" stroke-linecap="round"></path><path d="M283.05893,217.60812c-3.81637,0 -15.05158,2.36927 -26.30735,-2.5781c-5.32492,-2.34052 -34.03664,-7.42937 -41.14201,-9.88424c-8.20663,-2.83535 -12.69751,-7.63213 -20.69507,-9.74519c-9.73747,-2.57276 -16.03042,-1.38438 -21.40752,-2.62549c-8.97226,-2.07095 -6.1301,-34.49484 -6.1301,-37.33339c0,-13.03273 23.18456,-36.28488 37.31678,-36.28488c5.89241,0 22.41839,-5.21377 39.28354,14.74452c11.67902,13.82102 19.13102,45.64587 26.98334,62.98217c8.00411,17.67143 16.25773,20.7246 12.09836,20.7246z" fill="#14ffab" stroke="none" stroke-width="0" stroke-linecap="butt"></path><path d="M270.92282,198.01411c4.72774,9.1042 12.52989,14.23745 17.66313,21.30006c4.87007,6.70051 7.23139,15.54326 6.13278,16.51329c-4.44224,3.92234 -28.99269,6.03796 -32.622,6.3246c-1.23553,0.09757 -12.52769,-2.3718 -14.01792,-4.63799c-2.0355,-3.0954 -3.10337,-12.76569 -12.93997,-17.48779c-11.90497,-5.71504 -41.46713,-5.05409 -44.54305,-2.13336c-0.84402,0.80143 4.95911,2.40325 5.1505,5.7991c0.2225,3.94815 -0.28013,7.75595 -0.20963,9.21471c0.29563,6.11836 -4.86882,7.55473 -9.33201,8.374c-9.89198,1.81579 -14.43707,1.34277 -23.38651,-4.19108c-4.33909,-2.68307 -12.17563,-9.91834 -13.15839,-18.11914c-0.31012,-2.58785 -1.04804,-6.59106 1.3655,-9.79295c3.11371,-4.13073 9.70176,-7.26488 10.67198,-7.8371c1.84693,-1.08927 7.32609,-2.6913 9.26585,-0.85864c0.68941,0.65133 1.00208,7.70396 0.96081,7.54223c-1.21801,-4.77304 -0.88521,1.58446 -0.84542,-3.13375c0.02202,-2.61193 -0.30791,-5.30736 -0.2513,-8.04834c0.20385,-9.87369 -5.31365,-20.17153 -5.24513,-29.46146c0.10843,-14.70102 6.18657,-26.87809 10.13018,-30.85642c2.36164,-2.38241 8.4748,-7.78374 13.00393,-10.62438c2.79172,-1.75094 8.08501,-5.92728 14.36651,-6.83808c5.74957,-0.83367 13.10577,-0.01214 14.49083,0.24888c1.09969,0.20723 2.1651,0.42637 3.19397,0.6573c6.9194,1.55299 12.1875,3.63867 15.12939,6.21527c4.84306,4.24169 13.60261,14.79897 18.97735,26.72904c7.67159,17.02832 11.76516,36.85346 16.0486,45.10205z" fill="none" stroke="#000000" stroke-width="3" stroke-linecap="round"></path></g><g><path d="M266.03037,161.66784c0.0142,0.61917 -3.79704,9.95318 -12.76883,12.61254c-14.67752,4.35063 -37.69091,2.57619 -39.74969,2.61896c-1.78979,0.03717 -9.47438,-2.61581 -14.34595,-6.02082c-4.15742,-2.90583 -6.48869,-7.02684 -6.50591,-7.77836c-0.03743,-1.63215 0.93821,-9.95457 4.25543,-10.02348c0.83911,-0.01744 11.31046,-4.61005 18.03746,-4.1263c19.86662,1.42866 51.04953,11.49815 51.07746,12.71743z" fill="#1c4ea5" stroke="none" stroke-width="0" stroke-linecap="butt"></path><path d="M266.56049,162.49243c0.01891,0.82566 -2.33777,2.31732 -8.96396,4.0248c-4.60919,1.18772 -25.52374,2.5279 -37.32173,0.79241c-9.87114,-1.45203 -9.31019,-2.11792 -14.13318,-5.60055c-2.35075,-1.69746 -1.63782,-11.14065 6.33843,-11.30633c3.36302,-0.06986 29.71872,-1.70645 40.31875,0.54457c14.54052,3.08783 13.73675,10.45747 13.76168,11.54511z" fill="#6fddfe" stroke="#ffffff" stroke-width="0" stroke-linecap="butt"></path><path d="M260.49046,156.0534c0.02439,1.06444 -6.20144,2.18563 -12.91043,2.325c-6.70899,0.13938 -12.14098,0.54584 -12.05102,-1.4208c0.0214,-0.46797 1.18235,-1.63887 3.06384,-2.09586c2.395,-0.58172 6.60855,-1.06171 10.36585,-1.13977c4.55706,-0.09466 8.35286,-0.12141 10.24953,0.61871c0.89567,0.34948 1.27439,1.37133 1.28221,1.71277z" fill="#ffffff" stroke="none" stroke-width="0" stroke-linecap="butt"></path><path d="M249.98442,149.73006c19.03219,2.83678 16.94172,11.88251 16.94172,11.88251c0,0 -1.58479,4.2999 -3.86844,6.28749c-2.28366,1.98758 -5.36075,4.15751 -9.39951,5.68616c-4.03879,1.52866 -9.33291,3.10833 -15.70996,3.90739c-6.37706,0.79903 -11.4294,1.52524 -18.53842,0.86259c-7.10899,-0.66268 -8.27608,-1.01391 -13.11126,-3.06994c-4.83517,-2.05604 -5.94635,-2.46191 -9.65661,-5.52906c-3.71024,-3.06712 -4.0081,-4.04052 -4.67064,-6.82629c-0.33231,-1.39733 -2.20464,-9.40135 12.95142,-12.75941c5.33837,-1.18281 14.1427,-1.60641 24.08068,-1.85654c0,0 15.84692,0.64983 20.98103,1.41509z" fill="none" stroke="#000000" stroke-width="2" stroke-linecap="round"></path></g><g stroke="#000000" stroke-width="3.5" stroke-linecap="butt"><path d="M167.10327,151.83365c-0.18322,-2.92175 1.62928,-7.3868 8.95662,-13.60949c6.88936,-5.85076 14.25363,-7.06588 15.69579,-8.16559c0.8476,-0.64632 3.61081,0.1769 5.57909,1.50136c1.00343,0.6752 1.98783,1.33762 2.67311,1.79873c1.69798,1.14257 4.74363,3.09769 2.79462,4.58387c-1.94062,1.4798 -8.32834,3.08362 -16.40104,8.70337c-7.26418,5.05693 -13.24068,11.90138 -14.85592,10.81449c-1.43284,-0.96417 -4.25902,-2.70499 -4.44228,-5.62674z" fill="#4f5357"></path><path d="M221.99588,134.14858c-0.23984,4.89876 -6.72322,8.43985 -14.48104,7.90923c-7.75782,-0.53062 -13.85233,-4.932 -13.61252,-9.83076c0.23982,-4.89877 6.72321,-8.43985 14.48103,-7.90923c7.75782,0.53061 13.85236,4.932 13.61252,9.83076z" fill="#75756c"></path><g><path d="M221.64734,129.78887c-0.23233,3.44771 -6.51288,5.93989 -14.028,5.56646c-7.5151,-0.37344 -13.41896,-3.4711 -13.18663,-6.91882c0.23233,-3.44771 6.51287,-5.93989 14.02797,-5.56646c7.5151,0.37345 13.41897,3.47112 13.18665,6.91882z" fill="#533023"></path><path d="M201.99191,132.82722l4.33208,-8.77853c0,0 2.22999,-0.13004 3.36531,0.13485c1.19405,0.27859 5.86847,1.60882 5.86847,1.60882l-6.15295,8.04564z" fill="#b08a80"></path></g><path d="M248.53289,152.09668c-1.03897,1.12848 -4.11657,-6.26726 -9.60444,-10.71702c-6.09866,-4.945 1.24098,-13.85652 6.53212,-8.62616c5.62751,5.56285 5.60196,10.90527 5.71349,13.71351c0.11154,2.80824 -1.71955,4.62862 -2.6412,5.62966z" data-paper-data="{&quot;index&quot;:null}" fill="#4f5357"></path><path d="M237.7386,126.83123c7.15233,2.45809 11.18674,8.20328 9.01112,12.83226c-2.17562,4.62899 -9.73745,6.38886 -16.88978,3.93078c-7.15233,-2.45809 -11.18674,-8.20328 -9.01112,-12.83226c2.17562,-4.62899 9.73745,-6.38885 16.88978,-3.93076z" fill="#75756c"></path><g><path d="M249.7244,135.84211c-1.41665,3.31154 -8.27633,4.10476 -15.32151,1.77175c-7.04519,-2.33303 -11.608,-6.9088 -10.19135,-10.22034c1.41665,-3.31152 8.27633,-4.10477 15.32151,-1.77175c7.04519,2.333 11.608,6.90881 10.19135,10.22034z" fill="#533023"></path><path d="M229.90659,133.66755l7.17811,-7.45237c0,0 2.17404,0.4567 3.16611,1.01306c1.0434,0.58514 5.04502,3.11024 5.04502,3.11024l-8.66247,6.25871z" fill="#b08a80"></path></g></g><g><path d="M134.7897,185.24019c-0.32438,-0.34748 0.01733,-0.68919 0.01733,-0.68919l0.00859,-0.00851c0.03215,-0.0523 0.07741,-0.10146 0.14094,-0.13975l0.19162,-0.18999c1.45858,-1.12275 2.68553,-0.0354 3.76623,1.04694c1.41102,1.70054 2.36296,3.68595 3.58527,5.52136c0.35124,0.52741 1.15789,1.2985 1.16068,1.98434c0.00774,1.90486 -2.79068,3.77548 -4.25087,2.63315c-2.14004,-2.975 -4.06382,-6.44835 -4.61979,-10.15836z" fill="#342e32" stroke="none" stroke-width="0.5" stroke-linecap="butt"></path><path d="M94.42981,202.59687c0,-0.0779 -0.2037,-0.36697 -0.15798,-0.40987c0.24769,-0.23249 0.50413,-0.47474 0.50413,-0.47474l-0.06043,0.25001c3.0797,-0.87985 6.66026,-2.83191 9.76012,-1.49734c1.41689,0.94566 4.69682,3.9178 4.48779,5.66284c-0.16512,1.37838 -1.19495,2.23184 -1.22526,3.70335l0.22304,0.33456c0.48665,0.7301 1.03803,1.40448 1.52308,2.13205c0.64156,0.76793 2.43858,2.08985 1.6685,3.16625c-0.28355,0.39634 -1.82034,0.62837 -2.29901,0.88369c-2.28222,1.21736 -4.50065,2.14464 -6.83811,3.18351c-4.77893,1.20047 -9.39247,3.39904 -14.40637,3.39904c-4.52856,0 -8.86159,-0.22252 -13.27036,-1.32471c-3.64006,-1.03954 -7.64311,-3.30028 -10.96985,-5.27826l-0.0162,0.03887l-0.91238,-0.38016c-0.18635,-0.07268 -0.31839,-0.25392 -0.31839,-0.46599c0,-0.1996 0.11695,-0.37189 0.28608,-0.45206l0.44252,-0.22125c1.82788,-1.04574 3.38874,-2.36989 5.48255,-2.65427c4.23244,-1.85468 9.40782,-2.49432 13.87728,-3.98474c3.98704,-1.77518 7.5979,-4.14641 11.54528,-5.9902c-0.05623,-0.07254 0.67398,0.51912 0.67398,0.37945z" fill="#c8c9d9" stroke="none" stroke-width="0.5" stroke-linecap="butt"></path><path d="M74.16255,215.10154c-0.02384,-0.06649 -0.1421,-0.24872 -0.29283,-0.40902c-0.05493,-0.17618 -0.10389,-0.35709 -0.14629,-0.54367c0,0 -0.16864,-0.7308 -0.89944,-0.56215c-0.7308,0.16864 -0.56215,0.89944 -0.56215,0.89944c0.31888,1.36368 0.91729,2.47216 1.65926,3.59204c-1.03276,1.24314 -6.31172,-0.08224 -7.33108,-0.74828c-0.69645,-0.39781 -3.84896,-1.21136 -3.99991,-2.03754c-0.03932,-0.21525 0.60013,-0.84587 0.73203,-1.13612c0.7575,-1.66687 4.83105,-2.13925 6.61822,-2.36263c3.53614,-0.49701 7.04597,-2.4387 10.4083,-3.68221l0.67297,-0.08758c0,0 0.06212,-0.00777 0.14515,0.00418c2.76364,-0.8473 5.5028,-2.46135 8.30554,-3.16511l-0.04324,-0.10089l0.90899,-0.38957c0.06311,-0.02876 0.13324,-0.04478 0.20712,-0.04478c0.20754,0 0.38554,0.12644 0.46118,0.30649c0.31609,-0.24101 0.62939,-0.49345 0.94595,-0.75565c3.61856,-2.07986 7.71534,-3.4067 11.2515,-5.53845c1.74497,0.2346 2.73853,1.85184 1.19683,3.10505c-2.19879,1.78734 -5.68368,2.7776 -8.24723,4.06054c-0.30498,0.15249 -3.19685,1.41181 -3.89214,1.69975c0.1614,0.03339 0.39603,0.11928 0.50752,0.17506c0.52592,0.2631 0.99812,0.40349 1.5514,0.58876c1.25734,0.42103 2.63706,0.97245 3.81998,1.55871c3.4822,1.49238 7.00961,2.88873 10.56611,4.18294c0.09688,0.01153 0.20054,0.05568 0.28951,0.16465c0.068,0.06773 0.12812,0.16375 0.13326,0.29348c0.01693,0.12872 -0.02604,0.23354 -0.08157,0.31182c-0.06724,0.11899 -0.1585,0.18004 -0.24939,0.2089c-0.53823,0.33818 -1.34728,1.15099 -1.86402,1.3046c-0.31882,0.09477 -0.68717,0.04907 -1.06938,-0.06961c-0.07124,-0.08694 -0.13635,-0.13577 -0.13635,-0.13577l-0.47941,-0.31913c-0.49803,-0.18022 -0.98624,-0.39012 -1.45996,-0.62698c-4.78737,-1.74801 -9.37511,-3.99696 -13.88951,-6.26757l-1.00623,0.33541l0.33541,1.00624c4.47989,2.22469 9.00037,4.48534 13.73739,6.22002c0.03853,0.04506 0.06957,0.09108 0.09196,0.13809c0.60997,1.28101 -1.11982,1.87419 -1.95515,2.04333c-1.54504,0.31284 -2.82351,0.32143 -4.07775,0.0575c-0.07324,-0.09576 -0.14344,-0.15035 -0.14344,-0.15035c-3.06519,-2.3561 -6.86836,-3.81648 -10.04443,-5.9606l-0.50919,-0.26107l-1.00623,0.33541l0.33541,1.00623l0.34796,0.1675c3.16334,2.0873 6.9581,3.53093 9.95557,5.89655c0,0 0.04185,0.03256 0.11196,0.06923c-0.50558,0.29349 -1.4105,0.20795 -1.79977,0.23228c-2.42978,0.15186 -4.90839,0.45809 -7.34314,0.46279c-1.21296,0 -2.41105,-0.15614 -3.61539,-0.15384h-0.15385c0,0 -0.32115,0 -0.44869,-0.25738c-3.77585,0.27641 -6.92654,-0.90892 -8.54934,-4.66105z" fill="#ffffff" stroke="none" stroke-width="0.5" stroke-linecap="butt"></path><path d="M105.58263,200.67814l0.12085,0.42978c0.35829,0.70898 0.74428,1.40734 1.13011,2.10184c0.33345,0.66682 1.6565,2.33163 1.31337,3.14776c-0.21648,0.51489 -2.18705,1.15005 -2.69908,1.38526c-0.35469,0.16294 -1.31401,0.07708 -1.09941,0.40312c0.75558,1.14798 1.86694,1.90302 2.63292,3.06185l0.10177,-0.08481l0.38251,0.45901c0.07361,0.08707 0.11799,0.19967 0.11799,0.32262c0,0.27614 -0.22386,0.5 -0.5,0.5c-0.06587,0 -0.12877,-0.01273 -0.18636,-0.03588l-0.60459,-0.22673l0.00135,-0.00361l-0.0121,-0.00056c-0.73519,-0.3152 -1.46538,-0.65419 -2.18093,-1.01182c-2.59838,-1.15523 -5.29813,-2.13714 -7.96217,-3.13786c-0.65215,-0.24498 -2.70567,-0.4467 -2.70616,-1.44498c-0.00017,-0.32992 1.86573,-1.22733 2.19658,-1.39347c3.10063,-1.55032 6.02804,-3.46113 9.19702,-4.83246c0.03493,-0.01834 0.07473,-0.03431 0.11999,-0.04725c0.15052,-0.043 0.26736,-0.02542 0.35688,0.01902c0.09098,0.04137 0.17839,0.1209 0.24005,0.26478c0.01879,0.04383 0.0316,0.08527 0.03941,0.12438z" fill="#5d6084" stroke="none" stroke-width="0.5" stroke-linecap="butt"></path><path d="M105.26787,196.64764c0.06775,-0.10172 0.15383,-0.1591 0.15383,-0.1591l0.26005,-0.17195c2.00724,-1.05668 2.19635,2.38576 1.9483,4.53076l0.0113,-0.00323l0.02187,0.07655l0.06927,-0.0099l0.0757,0.52995c0.00411,0.0258 0.00624,0.05227 0.00624,0.07923c0,0.27614 -0.22386,0.5 -0.5,0.5c-0.23236,0 -0.42769,-0.15849 -0.4838,-0.37327l-0.14426,-0.50493c-0.56476,-1.31397 -1.10023,-2.49955 -1.74222,-3.78281c0,0 -0.22361,-0.44721 0.2236,-0.67082c0.03473,-0.01736 0.0681,-0.03068 0.10012,-0.04048z" fill="#342e32" stroke="none" stroke-width="0.5" stroke-linecap="butt"></path><path d="M108.16693,202.69766c2.0341,-4.42422 8.13686,-8.73262 12.37796,-10.85135c3.15953,-1.2273 6.48995,-2.20691 9.8883,-2.45676l-0.22821,-0.0978c-0.18384,-0.07389 -0.31364,-0.25384 -0.31364,-0.46411c0,-0.1996 0.11696,-0.37188 0.28609,-0.45206l0.45185,-0.22593l0.12517,0.25035c1.11338,-0.24577 2.12221,0.74697 3.12833,1.67419c2.3921,2.2045 3.43746,4.7986 6.52819,6.36142c0.15873,0.05154 0.35157,0.0999 0.50761,0.04676c-0.13068,-0.13072 -0.21004,-0.26787 -0.1778,-0.40423c0.15748,-0.66605 2.44225,-1.26856 3.40267,-1.41106c0.12739,-0.15149 0.33103,-0.18058 0.33103,-0.18058c0.79677,-0.08727 1.36604,0.05307 1.91545,0.71224c0.96549,1.15839 0.86763,3.02407 1.52873,4.3348c0.80142,1.58894 1.69982,2.75957 1.96767,4.60798c0.21314,1.51548 -0.0948,2.71124 -0.70395,3.73967c-1.35157,2.28187 -4.18601,3.73989 -6.10146,6.03842c-3.12243,3.63925 -7.10109,6.4832 -11.18058,2.43107c-0.79503,-0.66252 -1.23612,-1.33051 -1.69316,-2.23523c-1.88703,0.23205 -3.87521,-0.08613 -5.42191,0.945c-1.19716,1.18052 -5.75294,1.48925 -7.26287,0.58273c-1.44188,-0.86567 -2.12762,-3.00994 -3.64584,-4.01944c-1.27346,-0.90961 -2.17559,-1.72519 -3.10038,-2.93791c-0.63885,-0.83775 -2.006,-0.55643 -2.333,-1.82026c-0.292,-1.12858 -0.16884,-2.63513 -0.31721,-3.82209c0,0 -0.00247,-0.01976 -0.00248,-0.05188c-0.01861,-0.15747 0.04343,-0.29395 0.04343,-0.29395z" fill="#12e39a" stroke="none" stroke-width="0.5" stroke-linecap="butt"></path><path d="M108.06476,202.96141c-0.01957,-0.07613 -0.01957,-0.13376 -0.01957,-0.13376l0.00503,-0.30148c0.49804,-3.24015 -0.08643,-6.70007 0.38461,-10c0.67105,-4.67551 3.43559,-7.83186 7.24401,-10.36174c4.54708,-2.28359 7.69015,-2.22222 12.67102,-2.22013c1.84396,0.27827 6.42893,1.16557 7.58943,2.7295c1.20162,1.61935 -0.88703,1.60203 -1.51356,2.34977c-0.21841,0.26066 0.5969,1.44401 0.73288,1.76098c1.62058,3.78155 3.23615,7.8412 5.28224,11.41043c0.36396,0.63737 2.42073,3.39759 1.91943,3.98624c-0.39659,0.4657 -1.83803,-0.3314 -2.20487,-0.5281c-2.07846,-1.11451 -3.12203,-2.61613 -4.39548,-4.5263c-1.4992,-1.8249 -2.10098,-4.02486 -3.19404,-6.06322c-0.3933,-0.73343 -0.6517,-1.50071 -1.06854,-2.21573c-0.00867,-0.01486 -0.01799,-0.03133 -0.02783,-0.04913c-0.01338,0.20865 -0.04032,0.40426 -0.04048,0.51812c-0.36321,3.30006 -0.51561,6.67011 -2.7369,9.29995c-0.81038,0.95944 -1.75016,2.9355 -2.90186,1.35755c-0.49955,-1.11721 -2.50871,-0.84811 -3.4061,-0.39177c-2.57531,1.30956 -3.02195,3.09847 -3.79268,5.6525c-1.37031,1.08703 -2.03654,-0.25599 -3.47121,-0.86971c-1.84707,-0.79014 -4.36673,-1.65768 -6.37815,-0.77044c0,0 -0.45957,0.19697 -0.65653,-0.26261c-0.06485,-0.15132 -0.05853,-0.27417 -0.02086,-0.37089z" fill="#14ffab" stroke="none" stroke-width="0.5" stroke-linecap="butt"></path><path d="M139.36523,186.22729l2.76779,4.38233l1.61454,3.92104l-1.84519,0.9226l0.69195,1.38389c0,0 1.91107,1.07567 2.76779,2.53714c0.85671,1.46146 1.15324,2.2857 1.15324,4.15168c0,1.86599 -0.27901,3.04857 -1.15324,4.61298c-0.87423,1.56441 -1.77809,2.4129 -3.22908,3.22908c-1.45099,0.81618 -2.75429,0.9226 -4.15168,0.9226c-1.39739,0 -3.45973,-0.9226 -3.45973,-0.9226l-4.84363,2.53714l-4.84363,0.23065c0,0 -0.57071,1.12679 -1.31991,1.44788c-0.7492,0.32109 -2.08501,0.18537 -3.24251,0.10269c-1.15749,-0.08268 -2.78863,0.07922 -3.04899,-0.39732c-0.7183,-1.31469 -0.96068,-1.91996 -2.07585,-3.22908c-1.11517,-1.30912 -2.03239,-2.01545 -3.22908,-2.99844c-1.19668,-0.98299 -3.22908,-2.30649 -3.22908,-2.30649l-0.4613,-2.30649l-0.69195,-8.76466c0,0 0.70086,-4.47933 1.71723,-6.68882c1.01637,-2.20948 0.78267,-2.67971 3.5877,-4.84363c2.80503,-2.16392 5.56877,-3.40832 8.07271,-4.15168c2.50393,-0.74336 4.62492,-0.47346 6.68882,-0.23065c2.06389,0.2428 3.24827,0.9624 5.07427,1.61454c1.826,0.65214 4.61298,1.84519 4.61298,1.84519z" fill="none" stroke="#000000" stroke-width="2" stroke-linecap="round"></path><path d="M141.90239,195.45325l-1.84519,1.38389l-3.22908,-5.76622l-2.99844,-6.22752l3.45973,-1.38389" fill="none" stroke="#000000" stroke-width="2" stroke-linecap="round"></path><path d="M134.81623,210.90675c0,0 -0.54875,-0.95887 -1.84519,-2.53714c-1.29643,-1.57827 -2.16272,-2.74954 -3.45973,-3.92103c-1.29701,-1.17149 -3.69038,-2.53714 -3.69038,-2.53714v-1.61454" fill="none" stroke="#000000" stroke-width="2" stroke-linecap="round"></path><path d="M117.68425,206.06311l2.07584,2.07584c0,0 1.27568,1.30998 2.30649,2.53714c1.03081,1.22715 2.53714,3.22908 2.53714,3.22908" fill="none" stroke="#000000" stroke-width="2" stroke-linecap="round"></path><path d="M141.90239,189.68701c0,0 2.35966,2.20217 3.45973,3.92104c1.10008,1.71887 2.57424,4.55342 3.92103,7.61141c1.34679,3.058 0.92793,1.71486 1.05056,3.67696c0.12263,1.9621 -0.38674,2.75196 -1.08926,3.53714c-0.70253,0.78518 -1.40451,1.18047 -2.49843,2.01185c-1.09393,0.83139 -1.65233,1.58693 -2.76779,2.53714c-1.11547,0.95021 -2.08209,1.72267 -3.45973,2.76779c-1.37765,1.04512 -1.71621,1.97554 -3.22908,2.30649c-1.51288,0.33095 -2.61134,-0.12145 -4.15168,-0.69195c-1.54034,-0.57049 -1.65274,-0.65814 -2.07584,-1.61454c-0.4231,-0.9564 0.30745,-2.3828 0.30745,-2.3828" fill="none" stroke="#000000" stroke-width="2" stroke-linecap="round"></path><path d="M108.22764,205.83246l-4.38233,-8.99531l3.22908,-1.15324" fill="none" stroke="#000000" stroke-width="2" stroke-linecap="round"></path><path d="M108.90157,207.08691l-1.73623,2.0519l4.41948,6.1557c0,0 -4.20191,2.84452 -8.99679,4.41948c-4.79488,1.57496 -6.90566,2.22025 -12.62707,2.68325c-5.72141,0.463 -10.3765,0.38663 -14.67898,-0.47352c-4.30249,-0.86015 -8.86159,-3.79408 -10.29448,-4.51915c-1.43289,-0.72507 -3.35227,-2.38637 -3.35227,-2.38637l5.91267,-2.40695l14.36329,-4.89299l10.73301,-4.26164l11.20653,-5.52434" fill="none" stroke="#000000" stroke-width="2" stroke-linecap="round"></path></g><path d="M238.56077,199.68634l-4.4,-3.2l-5.2,8l-3.2,-2.2l-3.6,-1.8l-4,1.4l-3,3.6l-2.6,-1.8l-34.6,8v-6.8l2.2,-13.4l4.6,-18.8l-1.70304,1.20425l1.56421,-1.01054c0,0 1.52011,2.04724 4.15639,7.29156c2.67029,5.312 5.22183,10.19825 7.14098,13.45568c1.91913,3.25742 5.48944,7.9823 5.48944,7.9823l2.11653,-1.69992l7.29292,-6.04175c0,0 0.47649,4.10251 1.32899,6.34684c0.85251,2.24434 3.10016,5.31348 3.10016,5.31348l5.84564,-7.76723l7.65166,6.69627l5.17911,-8.11258l4.52731,3.06122l2.14343,-7.1491z" fill="#67080a" stroke="#000000" stroke-width="2" stroke-linecap="round"></path></g></g></svg>