<svg version="1.1" xmlns="http://www.w3.org/2000/svg" xmlns:xlink="http://www.w3.org/1999/xlink" width="233.70695" height="164.32157" viewBox="0,0,233.70695,164.32157"><g transform="translate(-118.64504,-105.72256)"><g data-paper-data="{&quot;isPaintingLayer&quot;:true}" fill-rule="nonzero" stroke-linejoin="miter" stroke-miterlimit="10" stroke-dasharray="" stroke-dashoffset="0" style="mix-blend-mode: normal"><g stroke-linecap="butt"><path d="M193.4916,140.36289c1.06137,-0.17906 15.69379,-5.10887 19.92143,7.42275c6.61387,19.60488 16.70316,57.50703 11.66926,74.52162c-1.7535,5.92687 -19.3237,6.67628 -20.32661,6.8621c-6.76368,1.25312 -13.93051,2.76293 -16.66515,-0.80769c-3.02938,-3.95547 -9.63226,-33.5043 -12.50294,-55.45903c-1.29006,-9.8664 -2.14495,-17.59299 -1.84204,-21.7821c0.04331,-0.59897 0.98222,-2.76917 3.77448,-4.6243c4.67234,-3.1042 12.49356,-5.54661 15.97157,-6.13333z" fill="#00e297" stroke="none" stroke-width="0"></path><path d="M187.77941,157.01688c-3.81999,0.68391 -9.55369,5.35279 -11.81094,4.23985c-1.36128,-0.67119 -0.83674,-12.69405 -1.04297,-13.84591c-0.54815,-3.06186 9.68777,-5.60041 15.8115,-6.69677c2.05255,-0.36747 12.12895,-1.86715 18.32661,0.628c4.25778,1.71417 4.60955,5.21634 5.76172,8.12402c0.72089,1.81923 3.21128,3.27947 2.66594,4.31383c-1.09954,2.08549 -27.93308,2.9185 -29.71189,3.23698z" fill="#00ffaa" stroke="none" stroke-width="0"></path><path d="M193.4916,140.36289c1.06137,-0.17906 15.69379,-5.10887 19.92143,7.42275c6.61387,19.60488 16.70316,57.50703 11.66926,74.52162c-1.7535,5.92687 -19.3237,6.67628 -20.32661,6.8621c-6.76368,1.25312 -13.93051,2.76293 -16.66515,-0.80769c-3.02938,-3.95547 -9.63226,-33.5043 -12.50294,-55.45903c-1.29006,-9.8664 -2.14495,-17.59299 -1.84204,-21.7821c0.04331,-0.59897 0.98222,-2.76917 3.77448,-4.6243c4.67234,-3.1042 12.49356,-5.54661 15.97157,-6.13333z" fill="none" stroke="#000000" stroke-width="3"></path></g><path d="M286.95453,190.2723c1.06325,2.69504 13.65562,2.80471 15.842,9.9742c0.46097,1.51158 5.43415,9.75077 2.70594,17.08415c-2.84017,7.63429 -13.82124,12.25778 -20.19738,14.70373c-14.03375,5.38346 -34.92079,-8.56482 -35.7674,-10.12362c-1.71475,-3.15723 5.01368,-6.97371 5.01368,-6.97371l-5.25293,1.7223c0,0 -1.23128,21.84798 -4.94239,26.7286c-2.37216,3.11975 -7.23896,6.22837 -14.74709,6.34097c-6.14813,0.09222 -15.07042,-2.42635 -17.41532,-3.53536c-5.1832,-2.4514 -15.29122,-89.55134 -14.62252,-92.4212c0.27152,-1.16525 -0.20387,-15.10069 5.28853,-26.09428c2.08794,-4.17924 11.05414,-12.77176 20.57422,-16.41137c4.70863,-1.80015 15.64529,-1.36349 22.96535,2.95079c5.26702,3.10427 19.77834,15.61473 25.79473,30.08545c8.27239,19.89691 14.69413,45.80093 14.76057,45.96933z" fill="#00e297" stroke="none" stroke-width="0" stroke-linecap="round"></path><path d="M285.2016,208.99779c-4.00918,0 -21.66859,-1.70183 -33.50605,-6.42516c-6.93964,-2.76902 -21.38072,-1.00434 -29.22897,-10.67321c-13.85448,-17.06838 -20.04954,-48.82782 -20.21927,-54.46815c-0.31525,-10.47658 7.90898,-21.0033 19.09562,-25.28089c7.7254,-2.95408 18.65516,-1.73352 21.84644,-0.33423c9.0667,3.97549 16.27044,17.4235 24.09657,25.73264c3.1913,3.38826 8.81886,16.36151 12.61479,30.3423c0.64264,2.36694 3.35939,13.59206 8.78342,21.39407c3.51553,5.05678 9.2401,4.24876 12.57809,8.33472c3.7337,4.57031 4.86374,13.92567 4.26357,17.55529c-0.3254,1.96799 -3.41526,8.70637 -8.41893,10.44848c-6.67262,2.32319 -16.15627,-0.6843 -21.30169,-1.39146c-10.45274,-1.43657 -9.98063,-10.5055 -8.0142,-14.42573c2.86011,-5.70185 17.83143,-0.80865 17.41062,-0.80865z" fill="#00ffaa" stroke="none" stroke-width="0" stroke-linecap="butt"></path><path d="M286.95453,190.2723c1.06325,2.69504 13.65562,2.80471 15.842,9.9742c0.46097,1.51158 5.43415,9.75077 2.70594,17.08415c-2.84017,7.63429 -13.82124,12.25778 -20.19738,14.70373c-14.03375,5.38346 -34.92079,-8.56482 -35.7674,-10.12362c-1.71475,-3.15723 5.01368,-6.97371 5.01368,-6.97371l-5.25293,1.7223c0,0 -1.23128,21.84798 -4.94239,26.7286c-2.37216,3.11975 -7.23896,6.22837 -14.74709,6.34097c-6.14813,0.09222 -15.07042,-2.42635 -17.41532,-3.53536c-5.1832,-2.4514 -15.29122,-89.55134 -14.62252,-92.4212c0.27152,-1.16525 -0.20387,-15.10069 5.28853,-26.09428c2.08794,-4.17924 11.05414,-12.77173 20.57422,-16.41137c4.70863,-1.80015 15.64529,-1.36349 22.96535,2.95079c5.26702,3.10426 19.77834,15.61472 25.79473,30.08544c8.27239,19.89691 14.69413,45.80093 14.76057,45.96933z" fill="none" stroke="#000000" stroke-width="3" stroke-linecap="round"></path><path d="M247.44455,214.44244c0,0 5.59541,-2.05496 8.58604,-2.91475c3.36969,-0.96878 8.34761,-3.37121 8.34761,-3.37121c0,0 -0.72128,4.18508 -4.0583,5.85359c-1.17541,0.58771 -5.17097,3.28158 -7.3563,4.04977c-3.81048,1.33946 -5.99949,0.70644 -5.99949,0.70644l0.48042,-4.32381z" fill="#000000" stroke="none" stroke-width="0" stroke-linecap="butt"></path><g><path d="M280.01593,147.46121c0.55557,2.06315 -5.5994,4.61259 -5.5994,4.61259l-8.34585,1.96539c0,0 -16.22188,5.07266 -20.56795,6.26274c-5.78287,1.58353 -13.69909,4.22302 -15.20045,4.62731c-6.08274,1.63797 -11.47706,6.36014 -12.81543,1.39c-2.9727,-11.03937 5.82114,-20.42215 11.90389,-22.06012c6.08274,-1.63797 49.2868,-1.76806 50.62517,3.20207z" fill="#1c4ea5" stroke="none" stroke-width="0" stroke-linecap="butt"></path><path d="M269.01418,137.40511c5.35635,1.22473 16.91818,9.36076 10.64133,11.051c-2.16352,0.5826 -11.32407,5.26337 -21.14652,8.31209c-12.10778,3.75803 -14.64502,5.37982 -24.28043,5.06967c-2.96915,-0.09559 -3.42695,-1.41139 -5.49563,-3.26691c-1.33543,-1.1978 -1.62381,-2.97206 -1.67082,-3.35959c-1.2361,-10.1903 6.74032,-12.9992 13.01716,-14.68944c6.27686,-1.69024 24.35707,-4.1635 28.9349,-3.11682z" fill="#6fddfe" stroke="none" stroke-width="0" stroke-linecap="butt"></path><path d="M275.76535,140.07636c1.68778,0.98709 2.20261,1.75656 3.23614,3.61777c1.03357,1.86119 1.56984,3.00239 1.64325,5.169c0.038,1.12179 -16.673,5.58288 -32.55188,10.54333c-14.78957,4.62015 -28.82329,9.7997 -28.82329,9.7997c0,0 -1.98593,-2.34543 -2.64585,-4.22563c-0.65993,-1.8802 -1.15894,-1.80082 -0.59319,-5.00284c0.56573,-3.20204 0.65319,-4.92329 2.8833,-7.95913c2.23012,-3.03586 4.57822,-4.57091 7.59963,-6.31119c3.02142,-1.74028 3.93492,-2.13639 12.02528,-4.8094c8.0904,-2.67302 12.87459,-3.04509 17.56625,-3.83244c4.69168,-0.78734 8.59215,-0.32685 11.85911,0.17346c3.26698,0.50031 6.11347,1.85031 7.80124,2.83738z" fill="none" stroke="#000000" stroke-width="2" stroke-linecap="round"></path><path d="M270.67167,142.79879c1.06081,3.00605 -11.46437,5.21952 -15.28228,6.24761c-3.8179,1.02809 -11.57249,1.35761 -12.39895,-1.71153c-1.10825,-4.11557 5.73652,-5.02386 9.55441,-6.05194c10.14495,-2.73185 16.9963,-1.68769 18.1268,1.51589z" fill="#ffffff" stroke="none" stroke-width="0" stroke-linecap="butt"></path></g><g stroke="#000000" stroke-linecap="round"><g><path d="M264.00946,199.90559l-8.83333,-5l-6.58333,4.00001l-15.33333,1.33333c0,0 -1.68974,-5.09923 -1.33334,-7c0.3564,-1.90077 3.33334,-3.66666 3.33334,-3.66666l13.33333,9.33333l6.66667,-4l9,5l5.66666,-6z" fill="#ffffff" stroke-width="2"></path><path d="M229.09279,187.48895c0,0 -0.76908,2.69414 -0.83333,4.75c-0.06425,2.05586 -2,5.66667 -2,5.66667l-4.83334,-3.41667l-0.41666,-3.91666l0.83333,-8.83333l2.33333,3.16667c0,0 1.14491,0.96593 1.81703,1.50362c1.21247,0.96998 3.09964,1.0797 3.09964,1.0797z" fill="#ffffff" stroke-width="2"></path><path d="M228.25945,191.57229l-3.5,4.91666l-2.41667,-10.08333" fill="none" stroke-width="1"></path><path d="M232.67614,193.07227l0.83334,6l4.66666,-6.83334l4.33334,6.83334" fill="none" stroke-width="1"></path></g><path d="M216.03877,187.28972l0.25,7.5l-4.75,-1.75l-2.5,-7.5l0.25,-8l2,-4.75l3.5,5h3z" fill="#ffffff" stroke-width="2"></path><path d="M217.28877,180.53972l-6.5,11l0.25,-16" fill="none" stroke-width="1"></path></g><g stroke="#000000" stroke-width="3.5" stroke-linecap="butt"><path d="M187.38248,153.16259c-1.10623,-2.53288 -1.03119,-7.05244 3.12454,-14.83979c3.90733,-7.32189 9.72522,-10.68224 10.58388,-12.1041c0.50466,-0.83567 3.10427,-0.96275 5.19641,-0.39909c1.06656,0.28734 2.11292,0.56925 2.84131,0.76549c1.80483,0.48625 5.01141,1.27486 3.85097,3.19642c-1.15543,1.91332 -6.02276,5.3154 -11.00378,12.79944c-4.48215,6.73449 -7.29559,14.65411 -9.01247,14.19154c-1.52301,-0.41033 -4.47462,-1.07703 -5.58086,-3.60991z" fill="#4f5357"></path><path d="M227.93845,120.46777c1.39318,4.41637 -2.92387,9.56521 -9.64243,11.50025c-6.71855,1.93503 -13.2944,-0.07649 -14.6876,-4.49286c-1.3932,-4.41638 2.92387,-9.56521 9.64242,-11.50025c6.71855,-1.93505 13.29441,0.07648 14.6876,4.49286z" fill="#75756c"></path><g><path d="M226.22439,116.71162c0.9269,3.12791 -3.56065,7.28416 -10.02322,9.28326c-6.46257,1.9991 -12.45291,1.08401 -13.37982,-2.04391c-0.9269,-3.12791 3.56064,-7.28416 10.0232,-9.28326c6.46257,-1.99909 12.45293,-1.08399 13.37983,2.04391z" fill="#533023"></path><path d="M210.62957,125.4989l0.79602,-9.12402c0,0 1.83922,-0.80668 2.88343,-0.9239c1.09822,-0.12329 5.47557,-0.39357 5.47557,-0.39357l-2.5711,9.03899z" fill="#b08a80"></path></g><path d="M256.17506,128.14813c-0.50909,1.32237 -5.51467,-4.27862 -11.5944,-6.52112c-6.7564,-2.49208 -3.46605,-12.66648 2.70195,-9.6711c6.56011,3.18579 8.2786,7.92896 9.28737,10.38346c1.00877,2.4545 0.05668,4.63573 -0.39493,5.80876z" data-paper-data="{&quot;index&quot;:null}" fill="#4f5357"></path><path d="M238.8382,109.10095c6.83544,-0.03889 12.11075,3.80246 11.78273,8.57992c-0.32802,4.77746 -6.13517,8.68189 -12.97061,8.72078c-6.83544,0.03889 -12.11075,-3.80246 -11.78273,-8.57992c0.32802,-4.77746 6.13517,-8.68188 12.97062,-8.72077z" fill="#75756c"></path><g><path d="M251.88621,113.37148c-0.11674,3.37441 -5.64628,6.20436 -12.35058,6.32089c-6.70432,0.11652 -12.04458,-2.5245 -11.92784,-5.89891c0.11674,-3.3744 5.64628,-6.20437 12.35058,-6.32089c6.70431,-0.11654 12.04458,2.52451 11.92784,5.89891z" fill="#533023"></path><path d="M234.45651,117.58865l3.62931,-8.831c0,0 1.9831,-0.26927 3.00139,-0.08374c1.07096,0.19513 5.2698,1.19253 5.2698,1.19253l-5.27054,8.23324z" fill="#b08a80"></path></g></g><g data-paper-data="{&quot;index&quot;:null}"><path d="M326.68059,172.79947c0.50202,0.40808 0.15584,0.97188 0.13711,1.00153c-0.77382,3.86038 -2.02623,8.538 -5.84194,10.4558c-0.88939,0.6267 -2.73405,1.93006 -3.31446,-0.21646c-0.13117,-0.48513 0.50375,-0.87201 0.80022,-1.27778c0.74319,-1.01725 1.953,-1.48968 2.78171,-2.3931c1.24128,-1.3532 1.71915,-3.19447 2.56498,-4.76754c0.61683,-1.1472 1.09614,-1.77378 1.35158,-3.06066c0,0 0.15034,-0.75734 0.90769,-0.60703c0.6491,0.12883 0.63144,0.70356 0.61316,0.86524z" fill="#323440" stroke="none" stroke-width="0.5" stroke-linecap="butt"></path><path d="M323.55977,182.45296l-0.22143,0.7022c-0.41151,0.10944 -0.81341,0.39151 -1.23452,0.3283c-1.43561,-0.2155 -2.88769,-2.46633 -0.83732,-3.37145c0.48593,-0.21452 1.52696,0.47474 2.09043,0.85405c0.09882,0.03784 0.17654,0.09426 0.23765,0.15867c0.05405,0.03703 0.62365,0.44833 0.22246,1.06546c-0.07962,0.12246 -0.16736,0.20671 -0.25729,0.26279z" fill="#51626b" stroke="none" stroke-width="0.5" stroke-linecap="butt"></path><path d="M325.95218,176.42476c-0.03988,0.15089 -0.10559,0.28339 -0.23127,0.37313c-0.98172,0.70114 -2.30068,0.24441 -2.53894,-1.07212c-0.09501,-0.5251 0.80966,-1.35995 1.13844,-1.70595c0,0 0.47069,-0.49223 1.04628,0.01088c0.15586,-0.00212 0.31931,0.04278 0.46613,0.1382c0.23993,0.156 0.37447,0.40742 0.37497,0.65132l0.01573,0.77101l-0.01931,0.35155c0,0 -0.019,0.31045 -0.25205,0.48195z" fill="#91aea7" stroke="none" stroke-width="0.5" stroke-linecap="butt"></path><path d="M302.60613,166.13129c-0.37543,-1.84334 -0.43907,-3.58399 -0.6185,-5.4338c-0.27122,-2.79665 -2.03519,-6.77693 1.63555,-8.26312c1.23672,-0.5007 3.64018,-0.15677 4.92412,0.05811c0,0 0.35822,0.06209 0.54046,0.34686c1.17396,0.01851 2.36308,-0.13771 3.55973,0.0506c3.27721,0.51572 7.03655,2.7439 9.06214,5.30608c5.21517,4.53005 4.6151,12.84295 1.10391,18.26029c-1.32818,2.04307 -3.07986,5.5339 -5.67305,6.30053c-0.23259,0.35707 -0.7105,0.45825 -1.06783,0.22594l-0.11867,-0.07715c-0.33464,-0.01342 -0.68174,-0.07288 -1.04201,-0.18515c-2.22292,-0.6927 -5.08792,-3.53687 -6.53944,-5.28747c-0.25573,-0.30845 -0.5496,-0.59019 -0.80569,-0.87075c-0.26141,-0.27444 -0.51346,-0.57005 -0.75471,-0.895l-0.00635,-0.02325l-0.00644,0.0042l-0.77862,-1.19856c-0.17022,-0.24959 -0.18442,-0.58712 -0.00947,-0.85625c0.0252,-0.03876 0.05326,-0.07449 0.08378,-0.1071c-1.61471,-2.12815 -2.87434,-4.51096 -3.48901,-7.35498z" fill="#4a5b80" stroke="none" stroke-width="0.5" stroke-linecap="butt"></path><path d="M321.52029,164.05411c0.51874,1.7389 -0.72523,4.2641 -3.05141,2.58967c-0.30133,-0.21693 -0.20899,-0.66277 -0.38814,-0.97155c-0.65789,-1.13376 -2.19623,-1.24354 -1.84278,-2.88077c0.47427,-2.19678 3.68762,-0.51896 4.948,0.29624c0,0 0.64164,0.41713 0.33434,0.96644z" fill="#98c0bf" stroke="none" stroke-width="0.5" stroke-linecap="butt"></path><path d="M303.28701,152.74265c0.15255,-0.16333 0.50725,-0.43577 0.98567,-0.12474c0.64736,0.42083 0.2265,1.06819 0.2265,1.06819c-2.91867,4.45809 -1.86713,10.27944 -0.32143,14.98034c1.9275,3.93547 4.08081,7.69235 7.66475,10.42839c1.08267,0.8265 2.14628,1.79644 3.31284,2.50332c0.40392,0.24477 1.03003,0.27981 1.22658,0.70926c0.24406,0.53322 -0.06534,1.171 -0.09799,1.75649c-1.9727,0.6834 -4.43212,1.08641 -6.52888,0.99455c-1.29606,-0.05678 -2.37897,-0.93895 -3.5711,-1.3474c-3.05838,-1.04782 -6.59089,-2.85463 -8.49455,-5.55141c-2.0481,-2.57142 -2.55162,-5.08678 -3.39718,-8.16947c-0.29847,-1.0881 -0.75952,-2.507 -0.75944,-3.65177c0.00017,-2.00701 2.05955,-4.74328 3.11218,-6.36883c1.66363,-2.55899 3.67088,-4.3805 5.70757,-6.60388l0.16221,-0.26881c0,0 0.29556,-0.45463 0.77232,-0.35419z" fill="#313746" stroke="none" stroke-width="0.5" stroke-linecap="butt"></path><path d="M328.77477,169.02051c1.29501,-0.25984 1.70366,0.8356 1.78832,1.12624c2.11967,2.0021 4.44082,4.22631 5.91436,6.71465c1.28096,2.1631 2.03929,4.56015 3.70238,6.48805c3.41005,3.95312 10.8112,6.45379 10.89786,12.53515c0.0113,0.79245 -0.24332,1.56628 -0.36497,2.3494c-2.18993,3.50379 -5.70621,8.55163 -10.66936,7.14055c-1.07999,-0.30704 -1.82635,-1.32904 -2.84145,-1.80888c-0.70353,-0.33253 -1.97216,0.2276 -2.53759,0.27005c-1.21622,0.09131 -2.99216,-0.10252 -4.12491,-0.56724c-1.74914,-0.71757 -3.67747,-2.19233 -4.53405,-3.89187c-0.19213,-0.38125 -0.04545,-0.89056 -0.27407,-1.25113c-0.69051,-1.08902 -4.70976,-1.34928 -5.72086,-1.56724c-2.93664,-1.21677 -5.88723,-3.42024 -8.92895,-4.24331c-3.26561,-0.88368 -5.83108,0.16706 -8.81544,-1.96914c-1.98729,-1.42252 -5.40144,-6.55722 -1.54539,-8.44893c0.84969,-0.41684 1.86329,0.36371 2.7598,0.66708c2.67846,0.9064 4.56937,1.7526 7.51896,1.71449c1.38175,-0.11524 3.42423,-0.40526 4.66187,0.23073c0.47673,0.24497 0.2696,1.09107 0.6462,1.47244c0.16288,0.16494 0.4662,-0.04605 0.68398,-0.12544c1.42789,-0.52058 2.87057,-1.04875 4.28419,-1.62608c2.91475,-1.19041 3.93337,-4.18458 5.07131,-6.90193c0.50042,-1.195 1.48581,-2.53913 1.45749,-3.92206c-0.0142,-0.69465 -0.75338,-1.712 -1.04499,-2.19917c0,0 -0.7816,-1.33182 0.55025,-2.11344c0.61203,-0.35917 1.10787,-0.27203 1.46504,-0.07295z" fill="#00e297" stroke="none" stroke-width="0.5" stroke-linecap="butt"></path><path d="M328.38815,168.75697l0.72383,-0.00675c2.88812,-0.38197 6.70781,0.37032 8.92296,2.46644c1.51776,1.43621 1.38204,2.80365 2.66509,4.17827c2.11746,1.34758 4.54271,2.54734 5.05404,5.29409c0.19225,1.03273 -0.52731,1.68852 0.05819,2.60352c0.88675,1.38577 2.68212,2.01264 3.79149,3.1755c1.03394,1.08384 1.70801,2.26304 2.09323,3.71504c0.96798,3.64835 -1.5817,6.55783 -4.45608,8.41769c-0.67847,0.439 -1.29661,1.23819 -2.10403,1.20441c-4.18088,-0.17489 -3.50416,-4.05214 -2.38177,-6.5624c-0.63416,0.5747 -1.80419,1.44701 -1.91784,1.54842c-1.14679,1.02343 -1.85345,2.59584 -2.94882,3.54614c-0.8106,0.70323 -1.65828,1.95972 -2.70867,1.73998c-0.99769,-0.20871 -1.15611,-1.69475 -1.55633,-2.63217c-1.17452,-2.75105 0.55633,-7.50905 3.05795,-9.09356c0.30042,-0.19028 0.74605,0.12546 1.06644,-0.02884c0.03018,-0.01452 -1.57031,-2.44074 -1.59479,-2.46773c-0.18332,-0.20215 -0.35595,-0.41318 -0.51934,-0.6315c-0.04065,-0.02155 -0.08071,-0.04511 -0.12003,-0.07067c-0.06982,-0.04538 -0.13476,-0.09544 -0.19464,-0.14952l-0.22532,-0.19695l-0.02779,0.03033l-1.01871,-0.93318c-0.11718,0.76708 -0.22927,2.06095 -0.23916,2.2804c-0.12364,2.74281 -0.5027,4.48133 -1.80618,6.93449c-0.94192,1.17176 -1.85726,2.76065 -3.68057,2.80826c-2.47132,0.06452 -4.21638,-2.79745 -4.53743,-4.83365c-0.60566,-3.84123 2.25141,-6.36123 3.19537,-9.80151c0.86696,-3.15968 0.78591,-6.88446 -0.49353,-9.90832c-0.19671,-0.20301 -0.34846,-0.49383 -0.38149,-0.91041c-0.11324,-0.44876 -0.16039,-1.27851 0.81735,-1.75557c0.63795,-0.31128 1.12574,-0.18618 1.46663,0.03984z" fill="#00ffaa" stroke="none" stroke-width="0.5" stroke-linecap="butt"></path><path d="M344.61282,178.72462c1.17478,1.75665 1.07931,5.09013 1.07931,5.09013c0,0 3.09382,1.5709 4.30044,3.31201c1.20664,1.7411 1.47482,2.54193 1.71421,4.36859c0.23941,1.82666 -0.07545,3.09603 -0.55716,4.45961c-0.48172,1.36358 -1.47988,2.81548 -2.38425,4.20658c-1.1013,1.69404 -1.54894,2.665 -3.71903,4.37297c-2.17013,1.70796 -2.13805,1.68921 -3.72005,1.48187c-1.58201,-0.20732 -4.29142,-2.53173 -4.29142,-2.53173c0,0 -3.24602,0.45968 -5.69088,-0.09506c-1.16718,-0.26483 -2.54626,-1.1057 -3.31725,-2.07365c-0.77097,-0.96797 -1.67959,-3.23059 -1.67959,-3.23059l-5.7885,-2.21429c0,0 -2.27338,-2.73527 -3.39891,-4.69879c-1.12553,-1.96349 -1.11512,-2.13996 -1.31853,-3.53092c-0.20341,-1.39098 0.43579,-3.84699 0.43579,-3.84699c0,0 -1.67166,0.62402 -2.79232,0.6926c-1.12068,0.06855 -2.33853,0.11408 -4.46623,-0.24857c-2.1277,-0.36265 -2.99188,-0.61606 -4.69978,-1.5065c-1.70789,-0.89043 -3.42105,-2.04694 -5.32565,-3.72038c-1.90458,-1.67346 -2.34716,-1.94413 -3.42116,-3.85592c-1.07398,-1.9118 -1.60763,-3.17565 -1.60468,-5.09058c0.00293,-1.91492 0.03928,-4.6215 1.33439,-7.72478c1.29508,-3.10327 2.42276,-4.75593 4.6822,-6.69202c2.25943,-1.93609 2.84764,-2.02602 5.0744,-2.62901c2.22676,-0.60298 3.37759,-0.62847 5.57771,-0.25545c2.20012,0.37301 3.77679,0.46522 5.91875,1.61686c2.14195,1.1516 3.29618,2.23491 5.18883,4.31355c1.89268,2.07862 2.4567,3.0456 3.33154,5.35588c0.87484,2.3103 0.94767,5.94481 0.94767,5.94481c0,0 1.98089,-0.96411 3.34378,-1.01623c1.3629,-0.05211 5.65682,0.67212 5.65682,0.67212c0,0 2.36835,0.81932 3.36745,1.96759c0.99911,1.14826 1.80383,3.97569 1.80383,3.97569c0,0 3.24358,1.37389 4.41837,3.13058z" fill="none" stroke="#000000" stroke-width="2" stroke-linecap="round"></path><path d="M334.99005,186.70984c0,0 -0.79855,0.5956 -1.54321,2.37379c-0.74468,1.77818 -0.76578,2.69515 -1.51026,4.37487c-0.74448,1.67967 -1.35866,3.26426 -2.36463,4.0344c-1.00601,0.77012 -3.78697,0.39881 -3.78697,0.39881" fill="none" stroke="#000000" stroke-width="2" stroke-linecap="round"></path><path d="M334.31814,202.493c0,0 0.81904,-0.87601 1.37639,-1.40861c0.56148,-0.5366 1.65035,-3.28379 2.874,-4.45321c1.44682,-1.38268 3.20199,-1.46784 3.20199,-1.46784c0,0 -1.76884,3.09326 -2.41084,5.52713c-0.64199,2.43388 0.13577,3.09805 0.13577,3.09805z" fill="#000000" stroke="#000000" stroke-width="0" stroke-linecap="butt"></path><path d="M326.25829,171.06068c0,0 0.6204,1.00757 0.73962,1.7333c0.11921,0.72571 0.2965,1.75615 0.02827,2.94083c-0.26824,1.18466 -0.95603,2.75202 -1.77069,4.4236c-0.81467,1.6716 -1.09337,2.15168 -1.9967,3.17956c-0.90333,1.02785 -1.81328,1.97674 -2.96859,2.18131c-1.15532,0.20456 -3.69184,-0.3551 -3.69184,-0.3551" fill="none" stroke="#000000" stroke-width="2" stroke-linecap="round"></path><path d="M325.16679,165.56219c0,0 0.16371,3.2236 -0.31116,5.20059c-0.47488,1.97699 -1.04259,3.34362 -2.21785,5.78632c-1.17525,2.44267 -1.41933,2.57146 -2.32746,3.66075c-0.90815,1.08933 -3.52632,3.72432 -3.52632,3.72432" fill="none" stroke="#000000" stroke-width="2" stroke-linecap="round"></path><path d="M320.39403,157.79329c0,0 1.24697,2.99616 1.5447,5.17914c0.29773,2.18299 0.17871,2.87104 -0.2032,4.65678c-0.38194,1.78575 -0.88639,3.4754 -1.96413,5.47667c-1.07775,2.00129 -2.07202,3.45989 -3.8823,5.40513c-1.81026,1.94528 -2.82845,2.19738 -4.34398,2.77061c-1.51553,0.57321 -6.48288,1.41729 -6.48288,1.41729" fill="none" stroke="#000000" stroke-width="1.5" stroke-linecap="round"></path><path d="M301.18636,180.16127c0,0 -1.2621,-2.71746 -1.77108,-4.64201c-0.50897,-1.92453 -0.90845,-3.32465 -1.10284,-5.45343c-0.19441,-2.12877 -0.40797,-3.6234 0.16955,-5.76587c0.57752,-2.14245 1.09026,-3.25078 2.58442,-5.16171c1.49417,-1.91091 2.33148,-2.61814 3.92893,-3.42673c1.59744,-0.80857 3.03152,-1.01273 5.11638,-1.3399c2.08487,-0.32719 5.72944,-0.15217 5.72944,-0.15217" fill="none" stroke="#000000" stroke-width="1.5" stroke-linecap="round"></path><path d="M300.84301,161.04598l1.79113,-0.67745l5.27833,-0.37509l6.4824,0.03933l5.15305,1.13978l5.12265,3.45304" fill="none" stroke="#000000" stroke-width="1.5" stroke-linecap="round"></path><path d="M296.35886,160.95501c0,0 2.37718,0.90222 3.93162,1.69643c1.55442,0.79419 1.40467,0.83275 2.24414,1.45891c0.83945,0.62617 3.33382,2.59159 5.44629,4.27744c2.11245,1.68581 4.36674,3.33641 7.00421,5.65859c2.63747,2.32218 5.25631,5.13627 5.25631,5.13627" fill="none" stroke="#000000" stroke-width="1.5" stroke-linecap="round"></path><path d="M306.94622,152.98012c0,0 2.36485,1.85298 3.29705,3.61692c0.93221,1.76395 0.97595,2.75626 1.05272,4.61371c0.07676,1.85747 -0.07683,3.10027 -0.65641,4.97613c-0.57956,1.87588 -0.9251,2.70443 -2.12371,4.02222c-1.1986,1.31779 -2.11153,2.24803 -4.00693,3.11386c-1.89543,0.86581 -2.67254,0.88718 -4.20212,0.636c-1.52957,-0.25119 -5.38216,-1.92062 -5.38216,-1.92062" fill="none" stroke="#000000" stroke-width="1.5" stroke-linecap="round"></path><path d="M297.54769,158.88439c0.67969,-0.90217 2.82515,-1.23788 3.86091,-0.7861c1.03576,0.45178 1.49159,0.92498 1.82112,1.92068c0.32954,0.99569 0.40954,2.30328 0.04288,3.71162c-0.36668,1.40836 -0.63936,2.40442 -1.84741,3.2195c-1.20807,0.81507 -2.22691,0.87155 -3.62105,0.47016c-1.39412,-0.4014 -2.82566,-1.92255 -2.69692,-3.24337" fill="none" stroke="#000000" stroke-width="1.5" stroke-linecap="round"></path><path d="M321.88946,196.533c0,0 -4.1105,-1.91206 -6.79367,-3.01347c-2.68317,-1.10141 -2.47903,-1.18658 -4.18627,-1.49361c-1.70723,-0.30702 -2.55134,0.2049 -4.16911,-0.00895c-1.61775,-0.21385 -2.1087,-0.22492 -3.18071,-0.96268c-1.07203,-0.73776 -1.96047,-1.31713 -2.93432,-2.90787c-0.97381,-1.59076 -1.09214,-2.26149 -0.93653,-3.41513c0.15561,-1.15366 1.47197,-3.58637 1.47197,-3.58637" fill="none" stroke="#000000" stroke-width="2" stroke-linecap="round"></path><path d="M351.88867,200.02469c-0.18947,0.46612 -0.48101,0.94466 -0.93828,1.53143c-0.47828,0.61375 -1.41438,1.98954 -2.4081,1.86323c-0.08239,-0.01046 -0.1626,-0.02819 -0.24103,-0.05168l-0.00862,0.04331l-0.75881,-0.15063c-0.09965,-0.0174 -0.19752,-0.05478 -0.28768,-0.11339c-0.35752,-0.23241 -0.45893,-0.71067 -0.2265,-1.06819c0.08166,-0.12563 0.19369,-0.21965 0.32018,-0.27865l0.71649,-0.34958c2.23911,-1.5907 3.09274,-2.95248 2.48337,-5.71908c0,0 -0.16018,-0.75533 0.59516,-0.91547c0.75534,-0.16017 0.91548,0.59515 0.91548,0.59515c0.05438,0.26471 0.1119,0.59375 0.16199,0.95219c0.13964,0.23937 0.10847,0.51436 0.10847,0.51436l-0.02437,0.20005c0.07425,0.78331 0.08867,1.59642 -0.04827,2.13767c-0.06966,0.27541 -0.19473,0.54607 -0.35945,0.80929z" fill="#000000" stroke="none" stroke-width="0.5" stroke-linecap="butt"></path></g><g data-paper-data="{&quot;index&quot;:null}"><g stroke-width="2"><path d="M183.18179,187.44373" fill="none" stroke="#000000" stroke-linecap="round"></path><path d="M178.74011,178.0989" fill="none" stroke="#000000" stroke-linecap="round"></path><path d="M174.14867,151.891c0,0 0.01219,2.92743 -2.96439,3.22634c-2.97655,0.29892 -1.99599,0.08407 -5.03249,-1.17229c-3.46762,-1.43475 -10.90166,-5.14864 -10.90166,-5.14864l3.18934,-2.32398c0,0 3.61624,-0.05033 5.85454,0.77399c3.24466,1.19492 9.85469,4.64457 9.85469,4.64457z" fill="#312e37" stroke="#000000" stroke-linecap="butt"></path><path d="M133.50536,181.63443c0,0 9.73211,4.41731 14.69032,7.05313c5.26876,2.80093 16.04731,9.28723 16.04731,9.28723l-2.97575,4.43958c0,0 -11.91869,-3.60474 -17.09984,-6.31061c-5.05401,-2.6395 -13.61516,-9.73044 -13.61516,-9.73044l2.95313,-4.73892z" fill="#a09aa6" stroke="none" stroke-linecap="butt"></path><path d="M148.19568,188.68753c5.26876,2.80093 16.04731,9.28723 16.04731,9.28723c0,0 -15.19376,0.8575 -21.04148,-2.70109c-7.23986,-3.67837 -9.69615,-13.63927 -9.69615,-13.63927c0,0 9.73211,4.41731 14.69032,7.05313z" fill="#695f72" stroke="none" stroke-linecap="butt"></path><path d="M133.50536,181.63443c0,0 9.73211,4.41731 14.69032,7.05313c5.26876,2.80093 16.04731,9.28723 16.04731,9.28723l-2.97575,4.43958c0,0 -11.91867,-3.60474 -17.09984,-6.31061c-5.05401,-2.6395 -13.61516,-9.73044 -13.61516,-9.73044l2.95313,-4.73892z" fill="none" stroke="#000000" stroke-linecap="butt"></path><path d="M161.67481,200.18595c0,0 -13.39749,-4.21839 -18.57955,-7.20888c-4.85076,-2.7993 -11.58463,-10.19843 -11.58463,-10.19843" fill="none" stroke="#000000" stroke-linecap="round"></path><path d="M132.40341,267.36405c0,0 -13.39315,-27.10846 -12.73484,-33.05476c0.34375,-3.10484 9.48246,-25.28102 9.48246,-25.28102l2.73345,-0.62072l-0.9823,-3.58892l2.66901,-1.68713l-0.53487,-3.08942l2.5867,-1.41174l-0.58725,-3.58112l1.7959,-4.48457l16.42524,10.19759z" fill="#4a627c" stroke="none" stroke-linecap="butt"></path><path d="M139.73175,219.32674l-4.05009,16.50175l-11.45095,-10.19296c0,0 -2.64893,2.578 -2.74865,7.22174c-0.14919,6.9471 -2.21098,6.93818 -1.29773,0.85036c1.49097,-9.93889 8.96666,-24.67934 8.96666,-24.67934l2.73346,-0.62073l-0.9823,-3.58892l2.66901,-1.68713l-0.53487,-3.08942l2.5867,-1.41174l-0.58725,-3.58112l1.7959,-4.48457l-4.66216,20.62265z" fill="#91b6c0" stroke="none" stroke-linecap="butt"></path><path d="M133.99738,206.33275l7.20392,7.68375" fill="none" stroke="#91b6c0" stroke-linecap="round"></path><path d="M125.50143,247.91683c0,0 -4.96452,-8.22376 -4.21102,-13.03711c0.95678,-6.11173 9.29267,-23.27142 9.29267,-23.27142l4.0699,-1.91331l-1.26937,-3.51652l2.11965,-1.16374l-0.68581,-3.76134l3.27169,-1.85294l-1.02115,-5.54223" fill="none" stroke="#91b6c0" stroke-linecap="round"></path><path d="M132.40337,267.36406c0,0 -13.39315,-27.10846 -12.73484,-33.05476c0.34375,-3.10484 9.48246,-25.28102 9.48246,-25.28102l2.73346,-0.62073l-0.9823,-3.58892l2.66901,-1.68713l-0.53487,-3.08942l2.5867,-1.41174l-0.58725,-3.58112l1.7959,-4.48457l16.42524,10.19759z" fill="none" stroke="#000000" stroke-linecap="butt"></path><path d="M132.38661,264.65594c0,0 1.15291,-24.64202 5.83575,-38.64747c2.86939,-9.56395 8.86177,-27.08746 8.86177,-27.08746" fill="none" stroke="#000000" stroke-linecap="round"></path></g><g stroke-width="4" stroke-linecap="butt"><g><path d="M175.4107,175.96672c0,0 1.31923,12.01021 -1.73269,12.52681c-0.92335,0.15626 -2.66632,-0.63682 -5.12487,-1.94904c-0.34093,-0.18201 -1.24978,-0.96227 -1.61805,-1.16297c-1.25147,-0.68264 -3.10368,-1.59022 -4.4014,-2.39252c-4.66748,-2.88541 -7.99074,-5.45308 -8.17091,-6.51762c-0.35126,-2.07529 10.89511,2.98792 13.94703,2.47132c0.2309,-0.03905 -3.13697,-5.56741 -1.86967,-9.98385c0.64773,-2.25758 5.11991,-4.41484 6.49612,-5.00608c6.35186,-2.72909 9.20559,7.48803 9.24868,7.80439c0.41704,3.06169 -6.77438,4.20953 -6.77438,4.20953z" fill="#00ffaa" stroke="#000000"></path><path d="M174.59577,181.06806c0,0 -2.49993,-2.56123 -5.79607,-2.00336c-3.29611,0.55783 -5.19003,6.61543 -5.30625,5.92874c-0.06487,-0.38332 -3.89646,-4.21516 -2.98203,-7.04609c0.72365,-2.2403 5.99047,-3.60972 7.44659,-3.85617c1.65956,-0.28084 4.40053,1.77945 5.50511,3.76041c1.08927,1.95348 1.13269,3.21646 1.13269,3.21646z" fill="#00e297" stroke="none"></path></g><g><path d="M167.39778,168.15665c0.32127,1.8985 1.69651,5.38725 0.34509,6.68866c-1.27999,1.23286 -4.53495,3.3799 -4.53495,3.3799c0,0 2.09453,0.87036 2.36347,3.2391c0.12273,1.08001 -0.5023,2.19387 -0.98016,3.60172c-1.01961,3.0052 -2.971,5.04384 -5.01557,5.38995c-5.74892,0.97298 -12.3826,-0.7304 -18.52362,-4.00421c-4.03065,-2.14879 -7.20249,-3.91335 -7.73672,-7.06978c-0.61499,-3.63378 -2.83513,-8.37839 -0.61331,-11.36333c0.85691,-1.15101 2.31562,-1.03879 3.48301,-1.44381c2.44146,-0.84697 4.64145,-1.25401 4.64145,-1.25401c0,0 0.94209,-4.89104 2.77035,-7.09267c0.73412,-0.88397 0.90404,-1.61087 2.41909,-1.37575c3.18532,0.49423 3.11981,-0.55931 3.11981,-0.55931c0,0 1.42877,-4.93989 3.17379,-6.53532c0.8179,-0.74765 13.18993,0.65696 15.41555,3.93392c1.584,2.33217 6.92842,5.64785 6.7431,8.78582c-0.34677,5.87094 -7.18198,5.02 -7.07042,5.6791z" fill="#00ffaa" stroke="#000000"></path><path d="M136.01897,177.2191c0.38743,2.289 1.06878,7.32252 1.06878,7.32252c0,0 -2.89522,-6.02312 -3.28261,-8.3121c-0.14558,-0.86011 -1.80047,-7.81574 0.98657,-8.24719c1.55351,-0.24048 4.05753,-2.83601 6.29052,-2.03062c2.31398,0.83459 1.99766,-8.58454 3.33312,-7.22717c0.28626,0.29094 4.85881,-1.66005 5.39908,-0.35963c0.17359,0.41781 0.42089,-2.28315 1.32556,-4.3468c0.78088,-1.78125 2.24209,-2.98947 2.30327,-2.47468c0.06355,0.53456 3.68041,-0.77581 8.13126,-0.12508c1.86165,0.27218 6.02018,0.85547 8.26244,3.4711c2.50611,2.9234 5.04591,6.86767 5.04591,6.86767c0,0 -14.62007,-4.76388 -17.506,-3.42399c-2.07132,0.96167 2.57833,4.85721 2.57833,4.85721c0,0 -5.78711,-3.22711 -7.08616,-1.61256c-0.89153,1.10808 -2.67787,2.73843 -3.07784,4.40109c-0.84887,3.5286 6.41385,9.69976 6.43041,9.69695c0.33215,-0.05622 -8.40153,-2.97444 -14.30354,-3.51602c-2.66489,-0.24452 -4.9806,0.64333 -5.0213,1.08022c-0.12205,1.30938 -1.06118,2.89553 -0.87779,3.97911z" fill="#00e297" stroke="none"></path><path d="M163.93052,179.91335c-0.91558,0.15497 -13.39538,-6.60055 -13.39538,-6.60055c0,0 9.04421,3.58529 9.95982,3.43033c0.91561,-0.15497 3.46936,0.34686 3.62432,1.26246c0.15496,0.91558 0.7269,1.75281 -0.18871,1.90777z" fill="#000000" stroke="none"></path><path d="M167.71531,168.01772c0.10849,0.64092 0.5676,0.58608 -0.30222,0.73328c-0.86982,0.14721 -9.88718,-7.53537 -9.88718,-7.53537c0,0 10.34108,6.43536 11.21089,6.28816c0.86984,-0.14723 -1.12992,-0.12699 -1.02146,0.51394z" fill="#000000" stroke="none"></path><path d="M166.02161,168.02939c0.32117,1.89841 1.80601,5.0275 0.45469,6.32901c-1.27998,1.23275 -4.86645,3.436 -4.86645,3.436c0,0 1.81913,1.25795 2.08807,3.6267c0.08746,0.7707 -0.70907,3.11795 -0.76546,3.27846c-1.04579,2.9811 -2.67034,5.45047 -4.87073,5.82293c-5.7489,0.97296 -11.74754,-1.00841 -17.88855,-4.28222c-4.03063,-2.14878 -6.65146,-4.68877 -7.20866,-5.96545c-1.47397,-3.37786 -3.25087,-8.8196 -1.02905,-11.80455c1.09755,-1.47444 3.09192,-1.94805 4.59723,-2.31966c2.12753,-0.52518 3.49907,-0.54393 3.49907,-0.54393c0,0 1.37087,-5.90911 3.29965,-7.87329c0.38624,-0.39321 1.21835,-0.43941 2.25364,-0.60899c1.02695,-0.16821 1.56752,-0.5148 1.56752,-0.5148c0,0 2.17602,-4.55479 3.92115,-6.15022c0.46332,-0.42367 9.30677,-0.56079 14.98717,2.05995c4.34412,2.00421 6.72377,8.19556 6.64344,9.55537c-0.34688,5.87095 -6.79428,5.29549 -6.68271,5.95459z" fill="none" stroke="#000000"></path><path d="M166.41565,167.96044c0.32118,1.89851 1.80601,5.0275 0.45469,6.32901c-1.28,1.23276 -4.86656,3.43601 -4.86656,3.43601c0,0 1.81923,1.25806 2.08807,3.6267c0.08758,0.7707 -0.70905,3.11795 -0.76535,3.27845c-1.04579,2.9811 -2.67034,5.45047 -4.87073,5.82293c-5.749,0.97296 -11.74754,-1.00841 -17.88855,-4.28222c-4.03063,-2.14878 -6.65157,-4.68876 -7.20866,-5.96545c-1.47407,-3.37786 -2.97287,-8.18454 -0.75105,-11.16939c1.09754,-1.47456 2.7603,-1.89207 4.26572,-2.26367c2.12741,-0.52508 3.99637,-0.62808 3.99637,-0.62808c0,0 1.03926,-5.85302 2.96813,-7.8171c0.38612,-0.39322 1.21824,-0.43952 2.25353,-0.6091c1.02696,-0.16812 2.25869,-0.4612 2.25869,-0.4612c0,0 2.12003,-4.8864 3.86505,-6.48182c0.46342,-0.42368 8.55952,-0.94592 14.23992,1.67483c4.34412,2.00421 6.72377,8.19556 6.64344,9.55537c-0.34688,5.87095 -6.79428,5.29549 -6.68271,5.95459z" fill="none" stroke="#000000"></path></g></g></g></g></g></svg>